<svg xmlns="http://www.w3.org/2000/svg" xmlns:xlink="http://www.w3.org/1999/xlink" viewBox="0 0 181.85 156.37"><defs><style>.cls-1,.cls-6{fill:none;}.cls-2{fill:url(#linear-gradient);}.cls-3{clip-path:url(#clip-path);}.cls-4{fill:#662d91;}.cls-5{fill:#fff;}.cls-6{stroke:#006838;stroke-miterlimit:10;stroke-width:1.14px;}</style><linearGradient id="linear-gradient" x1="96" y1="144.57" x2="96" y2="0.57" gradientUnits="userSpaceOnUse"><stop offset="0" stop-color="#38a643"/><stop offset="1" stop-color="#8dc63f"/></linearGradient><clipPath id="clip-path"><rect class="cls-1" x="24" y="0.57" width="144" height="144" rx="18.78" ry="18.78"/></clipPath></defs><title>Asset 12</title><g id="Layer_2" data-name="Layer 2"><g id="Layer_1-2" data-name="Layer 1"><g id="_11" data-name="11"><rect class="cls-2" x="24" y="0.57" width="144" height="144" rx="18.78" ry="18.78"/><g class="cls-3"><path class="cls-4" d="M147.06,25.79a40.58,40.58,0,0,1,4.42,6.63c1.66,3.31-5.24,12.15-5.24,12.15s-11.6,20.71-24.3,29.26-32,5.25-32,5.25S127.73,59.2,138.5,34.35,147.06,25.79,147.06,25.79Z"/><rect class="cls-1" x="24" y="0.57" width="144" height="144" rx="18.78" ry="18.78"/><rect class="cls-1" x="24" y="0.57" width="144" height="144" rx="18.78" ry="18.78"/><path class="cls-5" d="M186.26,28.27"/><path class="cls-5" d="M116.81,22.59a14.73,14.73,0,0,0-9.34-2.33s5.27.08,7.8,4.44a2.12,2.12,0,0,0,3,.23c3.16-3.93,8.37-3.22,8.37-3.22S121.31,20.29,116.81,22.59Z"/><path class="cls-5" d="M97.7,13.21a14.76,14.76,0,0,0-9.57-1.09s5.23-.6,8.31,3.38a2.11,2.11,0,0,0,3-.16c2.62-4.31,7.89-4.29,7.89-4.29S101.85,10.34,97.7,13.21Z"/><path class="cls-5" d="M123.56,10.4a14.78,14.78,0,0,0-9.6-.69s5.2-.82,8.45,3a2.11,2.11,0,0,0,3-.29c2.44-4.41,7.7-4.61,7.7-4.61S127.6,7.35,123.56,10.4Z"/><path class="cls-4" d="M173,19.44s-6-20.06-11.32-10.77c-2.91,5-8.14,14.45-11,19.6l-2,3.59s-15.18,16.56-20.43,23.75c-3.27,4.47-24,22.08-39.48,22.63l4,6.26,89,4.79Z"/><path class="cls-5" d="M21.34,35.49V87q2.83-.74,5.66-1.32V60.6q3.74-.47,7.48-.69V84.44q2.83-.39,5.66-.66V59.68c2.49,0,5,0,7.48.08V83.26c1.89-.08,3.78-.13,5.66-.15V60.05q3.74.26,7.48.66V83.19q2.83.08,5.66.23v-22c2.49.32,5,.69,7.48,1.07V83.9q2.83.22,5.66.47v-21c2.49.42,5,.85,7.48,1.3V85.08l5.66.57v-20L100.18,67V86.41l5.66.54V68q3.74.64,7.48,1.21V87.57q2.83.21,5.66.37V70q3.74.51,7.48.9V88.25q2.83.07,5.66.07V71.45q3.74.28,7.48.4V88.14q2.83-.13,5.66-.38V71.93q3.74,0,7.48-.27V86.9q2.83-.41,5.66-1V71.15q3.74-.43,7.48-1.13V84.23q2.83-.75,5.67-1.67V54.81q-1.41-.77-2.83-1.61l-2.83,2.38v3.75c-2.49.32-5,.54-7.48.69V56.11q-1.42-1-2.83-2.12l-2.83,2.18v4q-3.74,0-7.48-.17V55.84c-.94-.84-1.89-1.69-2.83-2.57l-2.83,2v4.3q-3.74-.34-7.48-.84V54.32q-1.42-1.45-2.83-3l-2.83,2v4.57q-3.74-.61-7.48-1.34V51.86q-1.42-1.61-2.83-3.26l-2.83,2v4.84q-3.74-.79-7.48-1.65v-5q-1.41-1.73-2.83-3.5l-2.83,2.06v5.12L92.7,50.68V45.41q-1.42-1.82-2.83-3.68Q88.46,42.81,87,43.94v5.39q-3.74-.88-7.48-1.74V42l-2.83-3.78q-1.42,1.18-2.83,2.41v5.66q-3.74-.8-7.48-1.51V39l-2.83-3.82q-1.42,1.32-2.83,2.7v5.93q-3.74-.62-7.48-1.1V36.62l-2.83-3.79q-1.42,1.49-2.83,3v6.21q-3.74-.35-7.48-.52V35.21l-2.83-3.69Q35.9,33.21,34.48,35v6.48q-3.74,0-7.48.25V35.07l-2.83-3.52Q22.76,33.48,21.34,35.49ZM158.4,69V62.15q3.74-.25,7.48-.77V68Q162.14,68.63,158.4,69Zm-13.14.63V62.3q3.74.15,7.48.09v7.07Q149,69.66,145.26,69.65ZM132.12,69V61.2q3.74.46,7.48.76v7.55Q135.86,69.36,132.12,69ZM119,67.47v-8.3q3.74.68,7.48,1.25v8Q122.72,68,119,67.47Zm-13.14-2.18V56.51q3.74.81,7.48,1.57v8.51Q109.58,66,105.84,65.29ZM92.7,62.81V53.55l7.48,1.7v9ZM79.56,60.35V50.61q3.74.81,7.48,1.66v9.47Q83.3,61,79.56,60.35ZM66.43,58.22V48q3.74.67,7.48,1.43v9.95Q70.16,58.75,66.43,58.22ZM53.29,56.73V46c2.49.29,5,.63,7.48,1V57.48Q57,57,53.29,56.73Zm-13.14-.52V45q3.74.12,7.48.43v10.9C45.13,56.26,42.64,56.2,40.15,56.21ZM27,57V45.32c2.49-.2,5-.31,7.48-.34V56.37Q30.75,56.55,27,57Z"/><path class="cls-4" d="M175.08,82s-18.63-6.62-33.72-4C111,83.15,93.87,77.6,86.14,77.6S65.53,85,65.53,85s-5.16-2.21,9.57-10.31,32-.74,32-.74-5.15-8.1-28-6.26c-10.4.84-20.09,5.43-27.59,10.17a63.92,63.92,0,0,1,5.13-7.14c39.94-47.76,90.56-20.62,90.56-20.62a72.68,72.68,0,0,0-40.86-12.15c-35.43.54-58.32,26.76-71,47.84C36.44,60.44,64,45.95,64,45.95s-9.57-.37-26.87,17.3a40.35,40.35,0,0,0-3.6,4.25c1.11-2.91,2.43-6,4-9.33C56.26,19,107.39,35.49,107.39,35.49s-32.9-14.73-61.79,3.24c-11,6.82-17.9,13.73-22.28,19.67C35.94,19,56.69,4.71,56.69,4.71A82.83,82.83,0,0,0,29.82,31.22c-11.41,18-16.56,42-16.56,42s-1.34,13.11-1.54,21l-1.61.31L0,151.59s173,4.78,174.12,4.78S175.08,82,175.08,82Z"/><path class="cls-5" d="M160.59,22.76c6.07-4.42,5.38,4.56,8.83,4.42L173,19.44s-6-20.06-11.32-10.77c-2,3.51-5.17,9.12-7.85,14C155.51,22.32,158.36,24.38,160.59,22.76Z"/><path class="cls-5" d="M147.06,25.79s1.79-13.22-5.74,2.37c1.48.39,3.19.89,4.64-.16a6.91,6.91,0,0,1,2-1.07C147.42,26.23,147.06,25.79,147.06,25.79Z"/></g><rect class="cls-6" x="24" y="0.57" width="144" height="144" rx="18.78" ry="18.78"/><path class="cls-5" d="M89.71,102.82V90.72h22.17v55H97.58V102.82Z"/><path class="cls-5" d="M125.15,102.82V90.72h22.17v55H133V102.82Z"/></g></g></g></svg>