<svg xmlns="http://www.w3.org/2000/svg" xmlns:xlink="http://www.w3.org/1999/xlink" viewBox="0 0 187.78 149.42"><defs><style>.cls-1,.cls-6{fill:none;}.cls-2{fill:url(#linear-gradient);}.cls-3{clip-path:url(#clip-path);}.cls-4{fill:#00aeef;}.cls-5{fill:#fff;}.cls-6{stroke:#662d91;stroke-miterlimit:10;stroke-width:1.14px;}</style><linearGradient id="linear-gradient" x1="94.16" y1="146.09" x2="94.16" y2="2.1" gradientUnits="userSpaceOnUse"><stop offset="0" stop-color="#662d91"/><stop offset="1" stop-color="#ae5fa5"/></linearGradient><clipPath id="clip-path"><rect class="cls-1" x="22.16" y="2.1" width="144" height="144" rx="18.78" ry="18.78"/></clipPath></defs><title>Asset 17</title><g id="Layer_2" data-name="Layer 2"><g id="Layer_1-2" data-name="Layer 1"><g id="_16" data-name="16"><rect class="cls-2" x="22.16" y="2.1" width="144" height="144" rx="18.78" ry="18.78"/><g class="cls-3"><path class="cls-4" d="M163.13,41.6,133,48.74a5.82,5.82,0,0,1-2.8-11.29l23.64-5.67a1,1,0,0,0-.47-1.94l-23.65,5.68a7.81,7.81,0,1,0,3.75,15.17l1.72-.41,3.5,11.18A6.13,6.13,0,1,1,127,65.12L122.27,50a6.29,6.29,0,0,1,0-3.81l.92-5.45-.11-.26a4.71,4.71,0,0,1-.23-.68,5.73,5.73,0,0,1,.85-4.65l1.21-1.79-2.15.24c-1.13.13-2-.08-2.22-.54s-.13-1.31.76-2.62l4.86-7.16.12-.23a6.11,6.11,0,0,1,1.77-2.61l9-13.13a16,16,0,0,1,9.44-6L157,0l30.82,24.18a23.91,23.91,0,0,1-9.12,12,32.77,32.77,0,0,1-15.52,5.43h0"/><path class="cls-4" d="M182.91,39.86a5.29,5.29,0,0,1-3.07,6.46l-12,4.43a4.34,4.34,0,0,1-1.5.27,5,5,0,0,1-1.42-.23l-17.64-2.57a4.3,4.3,0,0,1-1.34-.45l13.38-3.22,4.22-1a34.56,34.56,0,0,0,16.23-5.72c.34-.23.65-.48,1-.72h0A4.71,4.71,0,0,1,182.91,39.86Z"/><path class="cls-4" d="M103.18,66.31a5.82,5.82,0,0,0-7-4.32L78.12,66.13l0-.14-9,2.16H49.49V68l-5.17,0a5.77,5.77,0,0,0,.1-1.13,5.88,5.88,0,0,0-.1-.92l7.38,0H68.79l8.79-2.11,2.18-.52,0,.17,15.89-3.64a8,8,0,0,1,1.84-.21c.16,0,.31,0,.47,0a5.8,5.8,0,0,0-5.85-5.3l-18.53.15v-.15L33,54.48l22.91-7.64A5.82,5.82,0,0,0,51.95,35.9L3.18,52.18S0,85.92,0,88.13c.23,10.7,26.44,19.18,29.65,19.13l26.64-.15v.15l4.11-.08a6.6,6.6,0,0,0,6.84-2.91L68.44,103l.1.11L77,94.71a5.82,5.82,0,0,0-8.22-8.23l-7.21,7.18-2,1.88-10.06.07v-.15l-5.15,0a4.88,4.88,0,0,0-.12-2.23l5.19,0,2.28-.08v.2l4.59-.06v0l2.38,0L60,92.09l7.21-7.18a7.92,7.92,0,0,1,12.67,1.86l8.88-5.33a5.82,5.82,0,0,0-6-10l-16,9.42-.08-.13-1.55.91-15.7.12v-.15H49a6,6,0,0,0,.08-1A5.69,5.69,0,0,0,49,79.45h.46l2.28-.08v.21l12.88-.1,1-.61,1.91-1.12.07.13,14-8.29a7.92,7.92,0,0,1,11.89,5l5.35-1.26A5.82,5.82,0,0,0,103.18,66.31Z"/><path class="cls-4" d="M163.13,41.6,133,48.74a5.82,5.82,0,0,1-2.8-11.29l23.64-5.67"/></g><path class="cls-5" d="M109.62,46.52a95.58,95.58,0,0,1-22-17c3.07,7.84,14,18.36,28.74,26.92a108.16,108.16,0,0,0,16.32,7.77c-7,3.56-19.13,2-30.57-4.68C73.94,43.05,81.26,15.33,81.26,15.33s23.33,6.13,38,14.61c13.3,7.7,21.12,19.52,18.92,27.76C130.13,56.33,119.93,52.49,109.62,46.52Z"/><path class="cls-4" d="M163.13,41.6,133,48.74a5.82,5.82,0,0,1-2.8-11.29l23.64-5.67"/><rect class="cls-6" x="22.16" y="2.1" width="144" height="144" rx="18.78" ry="18.78"/><path class="cls-5" d="M87.87,104.35V92.25H110v55H95.75V104.35Z"/><path class="cls-5" d="M150.08,92.25l-15.61,18.6.15.14a18.08,18.08,0,0,1,7.66-1.68c10.79,0,17.65,9.26,17.65,19.33,0,13.49-11.08,20.79-23.63,20.79-5.32,0-11.45-1.39-15.68-4.74a20.38,20.38,0,0,1-7.37-15.09c0-8,4.08-15.68,8.83-21.88l11.82-15.46Zm-5,36.83a8.8,8.8,0,0,0-8.83-9,9,9,0,1,0,0,18.08A8.87,8.87,0,0,0,145.05,129.08Z"/></g></g></g></svg>