<svg xmlns="http://www.w3.org/2000/svg" xmlns:xlink="http://www.w3.org/1999/xlink" viewBox="0 0 186.53 168.94"><defs><style>.cls-1,.cls-5,.cls-7{fill:none;}.cls-2{fill:url(#New_Gradient_Swatch_1);}.cls-3{clip-path:url(#clip-path);}.cls-4{fill:#fff;}.cls-5{stroke:#fff;stroke-width:1.66px;}.cls-5,.cls-7{stroke-miterlimit:10;}.cls-6{fill:#8dc63f;}.cls-7{stroke:#f7941d;stroke-width:1.14px;}</style><linearGradient id="New_Gradient_Swatch_1" x1="86.45" y1="155.21" x2="86.45" y2="11.21" gradientUnits="userSpaceOnUse"><stop offset="0" stop-color="#f7941d"/><stop offset="1" stop-color="#f9ed32"/></linearGradient><clipPath id="clip-path"><rect class="cls-1" x="14.45" y="11.21" width="144" height="144" rx="18.78" ry="18.78"/></clipPath></defs><title>Asset 20</title><g id="Layer_2" data-name="Layer 2"><g id="Layer_1-2" data-name="Layer 1"><g id="_19" data-name="19"><rect class="cls-2" x="14.45" y="11.21" width="144" height="144" rx="18.78" ry="18.78"/><g class="cls-3"><path class="cls-4" d="M7.12,52.67V67.19H9.8a2,2,0,0,1,1.37.37,1.24,1.24,0,0,1,.41,1,1.23,1.23,0,0,1-.41,1,2,2,0,0,1-1.37.37h-8a2,2,0,0,1-1.37-.37,1.24,1.24,0,0,1-.41-1,1.23,1.23,0,0,1,.41-1,2,2,0,0,1,1.37-.37H4.47V56.12l-2.37.62a3.63,3.63,0,0,1-.85.15,1.15,1.15,0,0,1-.87-.4,1.4,1.4,0,0,1-.37-1,1.21,1.21,0,0,1,.27-.84,2.44,2.44,0,0,1,1.14-.54Z"/><path class="cls-4" d="M23,52.67V67.19H25.7a2,2,0,0,1,1.36.37,1.24,1.24,0,0,1,.41,1,1.23,1.23,0,0,1-.41,1,2,2,0,0,1-1.36.37h-8a2,2,0,0,1-1.37-.37,1.24,1.24,0,0,1-.41-1,1.23,1.23,0,0,1,.41-1,2,2,0,0,1,1.37-.37h2.68V56.12L18,56.75a3.63,3.63,0,0,1-.85.15,1.16,1.16,0,0,1-.87-.4,1.4,1.4,0,0,1-.37-1,1.21,1.21,0,0,1,.27-.84,2.44,2.44,0,0,1,1.14-.54Z"/><path class="cls-4" d="M43.37,60V62.9a9.15,9.15,0,0,1-1.49,5,4.77,4.77,0,0,1-4.28,2.37,4.94,4.94,0,0,1-2.71-.71,6.69,6.69,0,0,1-2.1-2.6,8.56,8.56,0,0,1-1-4V60A9.19,9.19,0,0,1,33.29,55a4.75,4.75,0,0,1,4.27-2.37,5,5,0,0,1,2.7.7A6.69,6.69,0,0,1,42.37,56,8.49,8.49,0,0,1,43.37,60ZM40.7,60a6.16,6.16,0,0,0-1.2-3.78,2.29,2.29,0,0,0-1.93-.89,2.38,2.38,0,0,0-2,1A5.84,5.84,0,0,0,34.45,60V62.9a6.07,6.07,0,0,0,1.22,3.78,2.26,2.26,0,0,0,1.93.89,2.37,2.37,0,0,0,2-1A5.84,5.84,0,0,0,40.7,62.9Z"/><path class="cls-4" d="M59.27,60V62.9a9.14,9.14,0,0,1-1.49,5,4.77,4.77,0,0,1-4.28,2.37,4.94,4.94,0,0,1-2.71-.71,6.68,6.68,0,0,1-2.1-2.6,8.55,8.55,0,0,1-1-4V60A9.19,9.19,0,0,1,49.19,55a4.75,4.75,0,0,1,4.27-2.37,5,5,0,0,1,2.7.7A6.69,6.69,0,0,1,58.27,56,8.49,8.49,0,0,1,59.27,60Zm-2.67,0a6.15,6.15,0,0,0-1.2-3.78,2.29,2.29,0,0,0-1.93-.89,2.38,2.38,0,0,0-2,1A5.84,5.84,0,0,0,50.36,60V62.9a6.07,6.07,0,0,0,1.22,3.78,2.26,2.26,0,0,0,1.93.89,2.37,2.37,0,0,0,2-1,5.84,5.84,0,0,0,1.15-3.69Z"/><path class="cls-4" d="M75.18,60V62.9a9.15,9.15,0,0,1-1.49,5,4.77,4.77,0,0,1-4.28,2.37,4.94,4.94,0,0,1-2.71-.71,6.69,6.69,0,0,1-2.1-2.6,8.56,8.56,0,0,1-1-4V60A9.2,9.2,0,0,1,65.1,55a4.75,4.75,0,0,1,4.27-2.37,5,5,0,0,1,2.7.7A6.69,6.69,0,0,1,74.18,56,8.48,8.48,0,0,1,75.18,60Zm-2.67,0a6.16,6.16,0,0,0-1.2-3.78,2.29,2.29,0,0,0-1.93-.89,2.38,2.38,0,0,0-2,1A5.84,5.84,0,0,0,66.26,60V62.9a6.08,6.08,0,0,0,1.21,3.78,2.27,2.27,0,0,0,1.93.89,2.37,2.37,0,0,0,2-1,5.84,5.84,0,0,0,1.15-3.69Z"/><path class="cls-4" d="M91.08,60V62.9a9.14,9.14,0,0,1-1.49,5,4.77,4.77,0,0,1-4.28,2.37,4.94,4.94,0,0,1-2.71-.71,6.66,6.66,0,0,1-2.1-2.6,8.55,8.55,0,0,1-1-4V60A9.2,9.2,0,0,1,81,55a4.75,4.75,0,0,1,4.27-2.37,5,5,0,0,1,2.7.7A6.69,6.69,0,0,1,90.08,56,8.49,8.49,0,0,1,91.08,60Zm-2.67,0a6.15,6.15,0,0,0-1.2-3.78,2.29,2.29,0,0,0-1.93-.89,2.38,2.38,0,0,0-2,1A5.84,5.84,0,0,0,82.17,60V62.9a6.08,6.08,0,0,0,1.21,3.78,2.27,2.27,0,0,0,1.93.89,2.37,2.37,0,0,0,2-1,5.84,5.84,0,0,0,1.15-3.69Z"/><path class="cls-4" d="M102.55,52.67V67.19h2.68a2,2,0,0,1,1.37.37,1.24,1.24,0,0,1,.41,1,1.23,1.23,0,0,1-.41,1,2,2,0,0,1-1.37.37h-8a2,2,0,0,1-1.37-.37,1.24,1.24,0,0,1-.41-1,1.23,1.23,0,0,1,.41-1,2,2,0,0,1,1.37-.37H99.9V56.12l-2.37.62a3.63,3.63,0,0,1-.85.15,1.16,1.16,0,0,1-.88-.4,1.41,1.41,0,0,1-.37-1,1.22,1.22,0,0,1,.27-.84,2.46,2.46,0,0,1,1.14-.54Z"/><path class="cls-4" d="M122.89,60V62.9a9.16,9.16,0,0,1-1.49,5,4.77,4.77,0,0,1-4.28,2.37,4.93,4.93,0,0,1-2.71-.71,6.65,6.65,0,0,1-2.1-2.6,8.55,8.55,0,0,1-1-4V60A9.2,9.2,0,0,1,112.81,55a4.75,4.75,0,0,1,4.27-2.37,5,5,0,0,1,2.7.7,6.71,6.71,0,0,1,2.11,2.6A8.48,8.48,0,0,1,122.89,60Zm-2.67,0a6.17,6.17,0,0,0-1.2-3.78,2.29,2.29,0,0,0-1.93-.89,2.38,2.38,0,0,0-2,1A5.84,5.84,0,0,0,114,60V62.9a6.08,6.08,0,0,0,1.21,3.78,2.27,2.27,0,0,0,1.93.89,2.37,2.37,0,0,0,2-1,5.84,5.84,0,0,0,1.15-3.69Z"/><path class="cls-4" d="M134.36,52.67V67.19H137a2,2,0,0,1,1.37.37,1.24,1.24,0,0,1,.41,1,1.23,1.23,0,0,1-.41,1,2,2,0,0,1-1.37.37h-8a2,2,0,0,1-1.37-.37,1.23,1.23,0,0,1-.41-1,1.22,1.22,0,0,1,.41-1,2,2,0,0,1,1.37-.37h2.68V56.12l-2.37.62a3.63,3.63,0,0,1-.85.15,1.16,1.16,0,0,1-.87-.4,1.41,1.41,0,0,1-.37-1,1.22,1.22,0,0,1,.27-.84,2.46,2.46,0,0,1,1.14-.54Z"/><path class="cls-4" d="M154.71,60V62.9a9.14,9.14,0,0,1-1.49,5,4.77,4.77,0,0,1-4.28,2.37,4.93,4.93,0,0,1-2.71-.71,6.65,6.65,0,0,1-2.1-2.6,8.55,8.55,0,0,1-1-4V60A9.2,9.2,0,0,1,144.62,55a4.75,4.75,0,0,1,4.27-2.37,5,5,0,0,1,2.7.7A6.69,6.69,0,0,1,153.7,56,8.49,8.49,0,0,1,154.71,60ZM152,60a6.17,6.17,0,0,0-1.2-3.78,2.29,2.29,0,0,0-1.93-.89,2.38,2.38,0,0,0-2,1A5.84,5.84,0,0,0,145.79,60V62.9A6.08,6.08,0,0,0,147,66.68a2.27,2.27,0,0,0,1.93.89,2.37,2.37,0,0,0,2-1A5.85,5.85,0,0,0,152,62.9Z"/><path class="cls-4" d="M166.17,52.67V67.19h2.68a2,2,0,0,1,1.37.37,1.24,1.24,0,0,1,.41,1,1.23,1.23,0,0,1-.41,1,2,2,0,0,1-1.37.37h-8a2,2,0,0,1-1.37-.37,1.24,1.24,0,0,1-.41-1,1.23,1.23,0,0,1,.41-1,2,2,0,0,1,1.37-.37h2.68V56.12l-2.37.62a3.6,3.6,0,0,1-.85.15,1.15,1.15,0,0,1-.87-.4,1.4,1.4,0,0,1-.37-1,1.22,1.22,0,0,1,.27-.84,2.46,2.46,0,0,1,1.14-.54Z"/><path class="cls-4" d="M186.52,60V62.9a9.14,9.14,0,0,1-1.49,5,4.77,4.77,0,0,1-4.28,2.37,4.94,4.94,0,0,1-2.71-.71,6.65,6.65,0,0,1-2.1-2.6,8.55,8.55,0,0,1-1-4V60A9.2,9.2,0,0,1,176.43,55a4.75,4.75,0,0,1,4.27-2.37,5,5,0,0,1,2.7.7,6.69,6.69,0,0,1,2.11,2.6A8.48,8.48,0,0,1,186.52,60Zm-2.67,0a6.15,6.15,0,0,0-1.2-3.78,2.29,2.29,0,0,0-1.93-.89,2.38,2.38,0,0,0-2,1A5.84,5.84,0,0,0,177.6,60V62.9a6.08,6.08,0,0,0,1.21,3.78,2.27,2.27,0,0,0,1.93.89,2.37,2.37,0,0,0,2-1,5.84,5.84,0,0,0,1.15-3.69Z"/><path class="cls-4" d="M7.12,77V91.48H9.8a2,2,0,0,1,1.37.37,1.24,1.24,0,0,1,.41,1,1.23,1.23,0,0,1-.41,1,2,2,0,0,1-1.37.37h-8a2,2,0,0,1-1.37-.37,1.24,1.24,0,0,1-.41-1,1.23,1.23,0,0,1,.41-1,2,2,0,0,1,1.37-.37H4.47V80.42L2.1,81a3.65,3.65,0,0,1-.85.15,1.15,1.15,0,0,1-.87-.4,1.4,1.4,0,0,1-.37-1A1.21,1.21,0,0,1,.27,79a2.43,2.43,0,0,1,1.14-.54Z"/><path class="cls-4" d="M27.46,84.29V87.2a9.14,9.14,0,0,1-1.49,5,4.77,4.77,0,0,1-4.28,2.37A4.94,4.94,0,0,1,19,93.82a6.68,6.68,0,0,1-2.1-2.6,8.55,8.55,0,0,1-1-4V84.29a9.2,9.2,0,0,1,1.49-5A4.76,4.76,0,0,1,21.65,77a5,5,0,0,1,2.7.7,6.7,6.7,0,0,1,2.11,2.59A8.49,8.49,0,0,1,27.46,84.29Zm-2.67,0a6.15,6.15,0,0,0-1.2-3.78,2.29,2.29,0,0,0-1.93-.89,2.38,2.38,0,0,0-2,1,5.83,5.83,0,0,0-1.15,3.69V87.2A6.07,6.07,0,0,0,19.76,91a2.26,2.26,0,0,0,1.93.89,2.36,2.36,0,0,0,2-1A5.84,5.84,0,0,0,24.8,87.2Z"/><path class="cls-4" d="M38.93,77V91.48h2.68a2,2,0,0,1,1.37.37,1.24,1.24,0,0,1,.41,1,1.23,1.23,0,0,1-.41,1,2,2,0,0,1-1.37.37h-8a2,2,0,0,1-1.37-.37,1.24,1.24,0,0,1-.41-1,1.23,1.23,0,0,1,.41-1,2,2,0,0,1,1.37-.37h2.68V80.42L33.91,81a3.64,3.64,0,0,1-.85.15,1.15,1.15,0,0,1-.87-.4,1.4,1.4,0,0,1-.37-1,1.22,1.22,0,0,1,.27-.84,2.45,2.45,0,0,1,1.14-.54Z"/><path class="cls-4" d="M54.83,77V91.48h2.68a2,2,0,0,1,1.36.37,1.24,1.24,0,0,1,.41,1,1.23,1.23,0,0,1-.41,1,2,2,0,0,1-1.36.37h-8a2,2,0,0,1-1.37-.37,1.24,1.24,0,0,1-.41-1,1.23,1.23,0,0,1,.41-1,2,2,0,0,1,1.37-.37h2.68V80.42L49.81,81a3.64,3.64,0,0,1-.85.15,1.15,1.15,0,0,1-.87-.4,1.4,1.4,0,0,1-.37-1A1.22,1.22,0,0,1,48,79a2.45,2.45,0,0,1,1.14-.54Z"/><path class="cls-4" d="M75.18,84.29V87.2a9.15,9.15,0,0,1-1.49,5,4.77,4.77,0,0,1-4.28,2.37,4.94,4.94,0,0,1-2.71-.71,6.68,6.68,0,0,1-2.1-2.6,8.56,8.56,0,0,1-1-4V84.29a9.2,9.2,0,0,1,1.49-5A4.76,4.76,0,0,1,69.37,77a5,5,0,0,1,2.7.7,6.7,6.7,0,0,1,2.11,2.59A8.49,8.49,0,0,1,75.18,84.29Zm-2.67,0a6.15,6.15,0,0,0-1.2-3.78,2.29,2.29,0,0,0-1.93-.89,2.38,2.38,0,0,0-2,1,5.84,5.84,0,0,0-1.15,3.69V87.2A6.08,6.08,0,0,0,67.48,91a2.27,2.27,0,0,0,1.93.89,2.36,2.36,0,0,0,2-1,5.84,5.84,0,0,0,1.15-3.69Z"/><path class="cls-4" d="M86.64,77V91.48h2.68a2,2,0,0,1,1.36.37,1.24,1.24,0,0,1,.41,1,1.23,1.23,0,0,1-.41,1,2,2,0,0,1-1.36.37h-8a2,2,0,0,1-1.37-.37,1.24,1.24,0,0,1-.41-1,1.23,1.23,0,0,1,.41-1,2,2,0,0,1,1.37-.37H84V80.42L81.62,81a3.63,3.63,0,0,1-.85.15,1.16,1.16,0,0,1-.88-.4,1.41,1.41,0,0,1-.37-1A1.22,1.22,0,0,1,79.8,79a2.45,2.45,0,0,1,1.14-.54Z"/><path class="cls-4" d="M107,84.29V87.2a9.15,9.15,0,0,1-1.49,5,4.77,4.77,0,0,1-4.28,2.37,4.94,4.94,0,0,1-2.71-.71,6.65,6.65,0,0,1-2.1-2.6,8.56,8.56,0,0,1-1-4V84.29a9.2,9.2,0,0,1,1.49-5A4.76,4.76,0,0,1,101.18,77a5,5,0,0,1,2.7.7A6.7,6.7,0,0,1,106,80.26,8.49,8.49,0,0,1,107,84.29Zm-2.67,0a6.16,6.16,0,0,0-1.2-3.78,2.29,2.29,0,0,0-1.93-.89,2.38,2.38,0,0,0-2,1,5.84,5.84,0,0,0-1.15,3.69V87.2A6.08,6.08,0,0,0,99.29,91a2.27,2.27,0,0,0,1.93.89,2.36,2.36,0,0,0,2-1,5.84,5.84,0,0,0,1.15-3.69Z"/><path class="cls-4" d="M122.89,84.29V87.2a9.16,9.16,0,0,1-1.49,5,4.77,4.77,0,0,1-4.28,2.37,4.93,4.93,0,0,1-2.71-.71,6.64,6.64,0,0,1-2.1-2.6,8.55,8.55,0,0,1-1-4V84.29a9.2,9.2,0,0,1,1.49-5A4.75,4.75,0,0,1,117.08,77a5,5,0,0,1,2.7.7,6.72,6.72,0,0,1,2.11,2.59A8.49,8.49,0,0,1,122.89,84.29Zm-2.67,0a6.16,6.16,0,0,0-1.2-3.78,2.29,2.29,0,0,0-1.93-.89,2.38,2.38,0,0,0-2,1A5.84,5.84,0,0,0,114,84.29V87.2A6.08,6.08,0,0,0,115.19,91a2.27,2.27,0,0,0,1.93.89,2.36,2.36,0,0,0,2-1,5.84,5.84,0,0,0,1.15-3.69Z"/><path class="cls-4" d="M134.36,77V91.48H137a2,2,0,0,1,1.37.37,1.24,1.24,0,0,1,.41,1,1.23,1.23,0,0,1-.41,1,2,2,0,0,1-1.37.37h-8a2,2,0,0,1-1.37-.37,1.23,1.23,0,0,1-.41-1,1.22,1.22,0,0,1,.41-1,2,2,0,0,1,1.37-.37h2.68V80.42l-2.37.62a3.64,3.64,0,0,1-.85.15,1.16,1.16,0,0,1-.87-.4,1.41,1.41,0,0,1-.37-1,1.22,1.22,0,0,1,.27-.84,2.45,2.45,0,0,1,1.14-.54Z"/><path class="cls-4" d="M150.27,77V91.48h2.68a2,2,0,0,1,1.36.37,1.24,1.24,0,0,1,.41,1,1.23,1.23,0,0,1-.41,1,2,2,0,0,1-1.36.37h-8a2,2,0,0,1-1.37-.37,1.23,1.23,0,0,1-.41-1,1.22,1.22,0,0,1,.41-1,2,2,0,0,1,1.37-.37h2.68V80.42l-2.37.62a3.65,3.65,0,0,1-.85.15,1.16,1.16,0,0,1-.87-.4,1.41,1.41,0,0,1-.37-1,1.22,1.22,0,0,1,.27-.84,2.45,2.45,0,0,1,1.14-.54Z"/><path class="cls-4" d="M166.17,77V91.48h2.68a2,2,0,0,1,1.37.37,1.24,1.24,0,0,1,.41,1,1.23,1.23,0,0,1-.41,1,2,2,0,0,1-1.37.37h-8a2,2,0,0,1-1.37-.37,1.24,1.24,0,0,1-.41-1,1.23,1.23,0,0,1,.41-1,2,2,0,0,1,1.37-.37h2.68V80.42l-2.37.62a3.62,3.62,0,0,1-.85.15,1.15,1.15,0,0,1-.87-.4,1.4,1.4,0,0,1-.37-1,1.22,1.22,0,0,1,.27-.84,2.45,2.45,0,0,1,1.14-.54Z"/><path class="cls-4" d="M182.08,77V91.48h2.68a2,2,0,0,1,1.36.37,1.24,1.24,0,0,1,.41,1,1.22,1.22,0,0,1-.41,1,2,2,0,0,1-1.36.37h-8a2,2,0,0,1-1.37-.37,1.24,1.24,0,0,1-.41-1,1.23,1.23,0,0,1,.41-1,2,2,0,0,1,1.37-.37h2.68V80.42l-2.37.62a3.65,3.65,0,0,1-.85.15,1.16,1.16,0,0,1-.88-.4,1.41,1.41,0,0,1-.37-1,1.22,1.22,0,0,1,.27-.84,2.45,2.45,0,0,1,1.14-.54Z"/><circle class="cls-5" cx="96.38" cy="84.27" r="83.44"/><rect class="cls-5" x="27.49" y="29.68" width="137.79" height="137.79"/><path class="cls-6" d="M161.39,55.47a3.25,3.25,0,0,0,1.26-.26,3.7,3.7,0,0,0,1.27.26c.9,0,1.36-.51,1.36-.94a.61.61,0,0,0-.31-.58,3.57,3.57,0,0,0-.86-.24,14.28,14.28,0,0,0-2.17-.46h-.17c-.69.11-1.51.18-1.51.18a.17.17,0,0,0-.15.1,1,1,0,0,0-.87-.32c-.29,0-.6,0-.8,0a.58.58,0,0,1-.24-.05l.26-.25a2.37,2.37,0,0,0,.83.16,1.75,1.75,0,0,0,.94-.26,2.75,2.75,0,0,0,.5,0c1.07,0,1.84-.64,1.88-1.2a.41.41,0,0,0-.17-.33.67.67,0,0,0-.39-.1,37.06,37.06,0,0,1-3.74-.25.93.93,0,0,0-.59.17,4.26,4.26,0,0,1-2.46,1l-.52,0a.93.93,0,0,0-.7.31,8.49,8.49,0,0,1-1.73,1.11c-.66.34-1.22.6-1.22.6a.17.17,0,0,0-.1.15,1.75,1.75,0,0,0-.84-.19,2.91,2.91,0,0,0-.92.16,5.78,5.78,0,0,1-2.68.35,16.18,16.18,0,0,1-4.11-.39,9.49,9.49,0,0,0-2.49-.21,40,40,0,0,0-4.29.25c-2.8.31-2.84,0-4.58.78a2.06,2.06,0,0,1-.83.18c-.85,0-1.68-.66-3.25-.84-.45,0-.93-.07-1.42-.07s-.94,0-1.41.06a1.6,1.6,0,0,0,.39-.26,6.61,6.61,0,0,1,1.86-.86,17.56,17.56,0,0,0,3-1.33c2-1.17,2.4-1.35,3.37-1.35a20.09,20.09,0,0,0,4.42-1.37,21,21,0,0,0,5.13-2.68c2-1.7,4-2.47,4.7-3.11a5.43,5.43,0,0,1,1.57-.64c.66-.23,1.36-.5,1.52-1.16a.22.22,0,0,0-.09-.23v0a2,2,0,0,0,.77.13,5.42,5.42,0,0,0,1.48-.25,4.53,4.53,0,0,0,1.57-.88,5.11,5.11,0,0,1,.73-.58,4.12,4.12,0,0,0,1.32-.47.8.8,0,0,0,.27-.29h.11c.16,0,.29-.05.89-.11a2.29,2.29,0,0,0,1.38-.56.45.45,0,0,0,.2,0c.27,0,.44-.14.9-.19,1-.12,1.55-.6,1.56-1.1a.63.63,0,0,0,0-.17.44.44,0,0,0-.46-.27,3.21,3.21,0,0,0-.95.22c-.44,0-1,.06-1.55.12l.18-.14.28,0a3,3,0,0,0,1.57-.61h.14a3.78,3.78,0,0,0,1.25-.32c.56-.21.79-.55.79-.87a1.07,1.07,0,0,0-.29-.67l-.09-.09-.11,0a4.76,4.76,0,0,1-1.47.2,2.14,2.14,0,0,0-1.26.26,2.26,2.26,0,0,1-1,.28l-.24,0a.73.73,0,0,0,.1-.13,3,3,0,0,0,1.82-.72l.34,0c1.44,0,2-.7,2-1.23a.57.57,0,0,0,0-.18.59.59,0,0,0-.15-.29.71.71,0,0,0-.59-.19l-.6,0a9.72,9.72,0,0,0-2.37.23c-.64.31-1.47.65-1.47.65a.15.15,0,0,0-.07.06.65.65,0,0,0-.39-.11,5,5,0,0,0-1.26.35l-.17,0h-.07l.18-.32h.18a1.89,1.89,0,0,0,1.49-.61,2.07,2.07,0,0,0,2-1.62.47.47,0,0,0-.11-.32.43.43,0,0,0-.33-.14.8.8,0,0,0-.23,0,23.14,23.14,0,0,1-3,.7c-.58.1-.9.15-1.15.46a4.25,4.25,0,0,1-2,1.7c-.41.13-.82.09-1.11.62a8.12,8.12,0,0,1-1.34,1.56c-.53.52-1,.92-1,.93a.19.19,0,0,0-.06.11,1.06,1.06,0,0,0-.51-.11c-1.21,0-3.41,1.16-4.54,1.85s-3.3,1-5.47,1.43c-3,.4-4,1.81-4.49,1.87-3.23.52-3.82,1.72-4.58,2.48a3,3,0,0,1-1.13.83,17.37,17.37,0,0,1-3,.7,24,24,0,0,0-7,3,7.57,7.57,0,0,0-3.54-.77,10.94,10.94,0,0,0-3.54.59,3.73,3.73,0,0,0-1.91,1.22,5.32,5.32,0,0,0-3.88,1.52,10,10,0,0,0-1-.54.57.57,0,0,0,.2-.31.75.75,0,0,0-.16-.65l-.16-.13-.07-.06s.18,0,.29.14a.87.87,0,0,0,1.11.14c.49-.38,0-.84.05-1.29a.8.8,0,0,1,.12-.25s.3.4.34.43c.47.38,1-.45,1.13-.8a2.28,2.28,0,0,0,.2-.43,2.57,2.57,0,0,1-.29.13c-.12.06-.34.15-.38,0a.49.49,0,0,1,.21-.4c.17-.13.4-.18.56-.32a1.13,1.13,0,0,0,.3-.84,2.3,2.3,0,0,1,.06-.59c.08-.22.29-.24.49-.18a.52.52,0,0,0,.3.11c.27,0,.27-.38.24-.61.43-.19.4-.78.27-1.16a2.94,2.94,0,0,0-.2-.43l-.07-.12a2.58,2.58,0,0,0,.33-.47,1.87,1.87,0,0,0,.87-.83c.2-.42.23-1.18-.33-1.34s-1.06.15-1.46-.2a.76.76,0,0,1-.22-.48h0a.49.49,0,0,0,.48-.5.86.86,0,0,0-.19-.51l0-.06h0a.13.13,0,0,0,.12-.08.73.73,0,0,0,.05-.27.63.63,0,0,0-.59-.66h0a.34.34,0,0,1-.23-.32,1.3,1.3,0,0,0,.6-.94,1.49,1.49,0,0,0-.3-1.1,1,1,0,0,0-.45-.33c-.47-.17-.8.28-1.19.46-.6.26-.75-.17-.7-.7s.25-1.38-.19-1.91-1.14-.27-1.54-.75a6,6,0,0,0-1.52-1.35,3.39,3.39,0,0,0-1.52-.51,1.78,1.78,0,0,0-.45,0,2.63,2.63,0,0,0-.6.25,1.42,1.42,0,0,1-.72.12,2.53,2.53,0,0,1-.59-.19.21.21,0,0,0-.2,0,1.15,1.15,0,0,0-.72.12l-.05,0-.34-.1a.43.43,0,0,0-.26,0l0,0a.17.17,0,0,0-.12,0h0a.19.19,0,0,0-.09.12s0,.09-.09.12-.14,0-.39-.12a.92.92,0,0,0-.65-.16.53.53,0,0,0-.41.46s-.32-.25-.36-.27a1.33,1.33,0,0,0-.43-.2,1.23,1.23,0,0,0-.92.21,1,1,0,0,1-.75,0,1.23,1.23,0,0,0-1.23.26,3,3,0,0,0-.4.55l-.31.45a2.49,2.49,0,0,1-.9.54,2.9,2.9,0,0,0-1,.6,1.68,1.68,0,0,0-.44,1.62l-.07.22,0,.12a.3.3,0,0,1-.11.12.94.94,0,0,1-.61-.06,1.49,1.49,0,0,0-.55-.09,1.35,1.35,0,0,0-1,.82,1.07,1.07,0,0,0,0,1s0,0,0,.05v0c-.35.27-.93.17-.93.79,0,0,0,.06,0,.09a1,1,0,0,0-.23,1.78,1,1,0,0,1,.23-.83,2.42,2.42,0,0,0-.08,1.29h0a2,2,0,0,0,.07.81,1.23,1.23,0,0,0,.17.35c.09.12.49.39.21.55,0,0-.18,0-.42-.14-.55-.35-.93-.19-1.1.07a.67.67,0,0,0,.15.91c.13.09.13.09,0,.31l-.17.36a1,1,0,0,0,.64,1.18l.54.24c-.13-.05-.2-.31-.27-.43a.83.83,0,0,1-.18-.5l0,0,0,0,0,.09a.74.74,0,0,0,.7.36.15.15,0,0,1,.1.09c0,.1-.21.35-.53.41a.37.37,0,0,0-.31.32.43.43,0,0,0,.28.43.53.53,0,0,0,.36,0,1,1,0,0,0,.49-.36c.19-.22.3-.24.33-.22s0,.06,0,.13-.23.39-.63.43l-.22,0,.13.18a.7.7,0,0,0,.82.16.41.41,0,0,0,.27.18c.07,0,.14,0,.21-.06a.23.23,0,0,1-.06.12c-.08.07-.24.08-.46,0a.61.61,0,0,0-.68.17.46.46,0,0,0,0,.52c.07.13.32.39,1,.31a.41.41,0,0,0,.07.11c.08.09.16.08.17,0s0,0,0,0a.3.3,0,0,1,.11.13.27.27,0,0,1,0,.3c-.09.1-.28.12-.52,0l-.48-.15L86,48a1.4,1.4,0,0,0,1,.45.75.75,0,0,0,.53-.39h.28a1,1,0,0,0,.22.56l-.07,0a1.09,1.09,0,0,0-.39.89.76.76,0,0,0,1.31.43v-.11l-.09-.06c-.09-.06-.13-.14-.1-.19s.26-.24.63-.07a1.14,1.14,0,0,0,1.45-.22l.26-.05a2,2,0,0,1-.79.94l-.09,0a6.46,6.46,0,0,0-2.65.62c-1.23-1.56-3.7-1.62-4.19-1.63a6.9,6.9,0,0,0-3.82-1.06,10.65,10.65,0,0,0-3.52.63,11.11,11.11,0,0,0-1-.66,16,16,0,0,0-4.26-1.66c-.74-.17-1.45-.45-2.23-.64-.95-.22-1.79,0-2.55-.31A5.49,5.49,0,0,1,64,44.19,16,16,0,0,0,59,41.42a9.45,9.45,0,0,0-4.1-1.51c-1.58-.31-3-.44-3-.44s-.43-.06-1-.2A6.8,6.8,0,0,1,49,38.59c-1.2-.71-1.92-.59-2.73-1.05A12.65,12.65,0,0,0,45,36.89a.27.27,0,0,0-.27,0,.18.18,0,0,0-.06-.19s-.48-.4-1-.92a7.55,7.55,0,0,1-1.34-1.55,2.16,2.16,0,0,0-1.18-1.11,6.87,6.87,0,0,1-1.9-1.2,2.33,2.33,0,0,0-1.63-.85H37.5c-.47.12-1.53.17-2.55.31a.33.33,0,0,0-.19.07l0,0a1.72,1.72,0,0,1-.48.06.53.53,0,0,0-.55.51.82.82,0,0,0,.15.41c-.29-.07-.6-.14-1-.2a9.41,9.41,0,0,0-.93-.18.63.63,0,0,0-.58.42.68.68,0,0,0-.06.29c0,.57.6,1.24,2.19,1.48a5.49,5.49,0,0,0,.5.38,3.05,3.05,0,0,0,1.25.41,1.21,1.21,0,0,0,.15.19l-.36,0a2.27,2.27,0,0,1-1-.28,2.16,2.16,0,0,0-1.26-.25,4.93,4.93,0,0,1-1.47-.19l-.11,0-.08.08a1.07,1.07,0,0,0-.29.67c0,.32.23.66.79.87a3.78,3.78,0,0,0,1.25.32H33a3,3,0,0,0,1.56.6,1.31,1.31,0,0,0,.28,0l.18.14c-.54-.05-1.11-.1-1.54-.1a3.18,3.18,0,0,0-.95-.22.44.44,0,0,0-.47.27.6.6,0,0,0,0,.17c0,.5.52,1,1.56,1.09.46,0,.63.17.9.19a.5.5,0,0,0,.2,0,2.31,2.31,0,0,0,1.38.55c.61.05.74.1.89.1h.11a.87.87,0,0,0,.28.29,4,4,0,0,0,1.33.46,5.39,5.39,0,0,1,.73.58,4.5,4.5,0,0,0,1.57.87,5.36,5.36,0,0,0,1.47.24,2.34,2.34,0,0,0,.57-.06.19.19,0,0,0,0,.12c.33.69,1.61,1.35,2.94,2a32,32,0,0,1,3.11,1.54.18.18,0,0,0,.11,0h0c1,.69,5.08,3.63,9.24,4.32.55.07,1.29.9,2.35,1.08a14.44,14.44,0,0,1,2.75,1c.65.25,3.47,1.88,5.16,1.89a6,6,0,0,1,2.46.76A12.1,12.1,0,0,0,68.59,54a9.93,9.93,0,0,0-2.26.26,17.18,17.18,0,0,1-3.47.59,3.56,3.56,0,0,1-.86-.11,14,14,0,0,0-3-.87,5.48,5.48,0,0,0-.93-.09,3.23,3.23,0,0,0-1.26.25,2.24,2.24,0,0,1-.93.22,2.46,2.46,0,0,1-.38,0,27.92,27.92,0,0,0-3.87-.31,14.25,14.25,0,0,0-3.27.34,6.89,6.89,0,0,1-1.62.22c-.79,0-1.19-.22-2-.23-.62,0-.9-.17-1.37-.18a2.08,2.08,0,0,0-1,.31c-.24-.09-.83-.33-1.48-.61a8.9,8.9,0,0,1-2.09-1.17.91.91,0,0,0-.7-.3l-.52,0a4.24,4.24,0,0,1-2.45-1.05,1,1,0,0,0-.59-.17,34.1,34.1,0,0,1-3.74.25.65.65,0,0,0-.4.11.4.4,0,0,0-.16.33c0,.56.81,1.18,1.88,1.2a2.73,2.73,0,0,0,.5,0,1.7,1.7,0,0,0,.94.26,2.48,2.48,0,0,0,.83-.15l.26.25a.54.54,0,0,1-.24.05c-.2,0-.5,0-.8,0a1,1,0,0,0-.87.32.17.17,0,0,0-.15-.1l-.49,0c-.29,0-.67-.08-1-.13H31a13.91,13.91,0,0,0-2.16.46,3.12,3.12,0,0,0-.86.25.59.59,0,0,0-.31.57c0,.43.46.94,1.36.95a3.76,3.76,0,0,0,1.27-.27,3.28,3.28,0,0,0,1.26.27,2.68,2.68,0,0,0,.69-.09l.13.1a5.43,5.43,0,0,1-.89.1.92.92,0,0,1-.36-.05.81.81,0,0,0-.32-.07c-.61,0-1.56.42-2.28.41h-.26l-.05.11a1.11,1.11,0,0,0-.12.49c0,.36.27.8,1,.84.25,0,.45,0,.62,0a1.79,1.79,0,0,0,.81-.13,3.61,3.61,0,0,0,1.12.21,1.71,1.71,0,0,0,.81-.18l.21.08c-.54.1-1.09.22-1.51.33h-.33a2.65,2.65,0,0,0-.59.06.48.48,0,0,0-.42.38.06.06,0,0,0,0,0c0,.46.48.83,1.27.83a3.25,3.25,0,0,0,.56-.05,2.68,2.68,0,0,1,.52,0h.13a.62.62,0,0,0,.45-.12,2.08,2.08,0,0,0,.92.2,2.79,2.79,0,0,0,.56-.06c.48-.09.67-.11.79-.13a.38.38,0,0,0,.19-.06,1.53,1.53,0,0,0,1.16.29L37,59v0h0a6.48,6.48,0,0,1,.87.36,4.53,4.53,0,0,0,1.74.39c1.16,0,2.07-.24,2.41-.78a.2.2,0,0,0,0-.09h.06a.28.28,0,0,0,.16.25s.39.17.95.35a7.06,7.06,0,0,0,1.94.34,3.08,3.08,0,0,0,.61-.06,2.24,2.24,0,0,1,.41,0c1.14,0,2.69.83,4.11,1,1.17.1,2.81,1.17,4.85,1.18a5.46,5.46,0,0,0,1.06-.11,13.23,13.23,0,0,1,2.42-.36,7.56,7.56,0,0,1,1.39.18,3.57,3.57,0,0,0,.58.05c1.06,0,1.5-.54,2.1-.52s2.34.29,4,.29a8.88,8.88,0,0,0,1.94-.18,5.37,5.37,0,0,1,1.08-.17.87.87,0,0,1,.54.18,4.51,4.51,0,0,0,1.24.51,11.54,11.54,0,0,0,2.84.27,28.94,28.94,0,0,0,4.28-.32,2.85,2.85,0,0,1,.53,0c1,0,1.54.62,2.26,1.8a5.46,5.46,0,0,0,1.4,3.37,3.18,3.18,0,0,1,.78,2A4.6,4.6,0,0,0,84,71c.72,1.35,0,3.32,2.31,7.33-.25.68-1.54,4.12-1.55,5.62a1.56,1.56,0,0,0,0,.29l0,.19c0,.13.05.25.08.36a3.42,3.42,0,0,0,.36,1c-.35.38-1,1.39-1.55,4.11-.14.7-.27,1.28-.38,1.75A10.29,10.29,0,0,0,83,93a6.62,6.62,0,0,1-.6,1.26c-.26.49-2.87,5-3.76,6.12a9.82,9.82,0,0,0-1.16,3.26,13.75,13.75,0,0,1-1,3.17,18.91,18.91,0,0,0-2.13,7.35,5.22,5.22,0,0,0,0,.58,4,4,0,0,0-.7,1.62,5.74,5.74,0,0,1-.32.62,2.9,2.9,0,0,1-.87,1l0,0,0,0s-1.95,1.88-2.31,3.43c-.55.62-5.9,6.67-6.84,8.23a23.6,23.6,0,0,0-2.69,6.56c-.8,3-1.71,4-2.21,7.24-.25,1.58-.49,2.88-.69,3.81-.1.46-.19.83-.26,1.09a2.34,2.34,0,0,1-.09.3l0,.07h0a7.67,7.67,0,0,0-.69,1.14,6.59,6.59,0,0,0-.64,1.55c0,.18-.12.2-.43.31a1.4,1.4,0,0,0-1,.63c-.21.38-.44.51-.69.51a.89.89,0,0,1-.44-.13.8.8,0,0,0-.39-.09,2.4,2.4,0,0,0-1.2.42,1.38,1.38,0,0,0-.74,1,.86.86,0,0,0,.45.71c1.13.71,4.56,2.82,7,4a1.36,1.36,0,0,0,.66.19h0a.91.91,0,0,0,.83-.78c0-.23.47-.5.5-1.09a.53.53,0,0,0,0-.11,1.15,1.15,0,0,1,0-.13c0-.18,0-.43,0-.67a1.49,1.49,0,0,0,0-.38.77.77,0,0,1,0-.09c0-.18.2-.46.41-.74a.92.92,0,0,0,.18-.54c0-.09,0-.16,0-.22a.85.85,0,0,1,.11-.42A5.34,5.34,0,0,0,62,151a8.4,8.4,0,0,1,2-5,34.5,34.5,0,0,0,3.07-5.11,10.36,10.36,0,0,0,2.48-3.27c.09-.21.29-.36.64-.91a18.28,18.28,0,0,0,1.51-3.41c.67-1.86.7-2.36,1.29-3.18a7.94,7.94,0,0,0,1.28-2.5,3,3,0,0,1,.65-.7c1.2-1.1,3.52-2.78,4.06-3.92l.06-.13,0,0a2,2,0,0,1,.39-.47,1.22,1.22,0,0,0,.37-.64,3.41,3.41,0,0,1,.83-1,18.73,18.73,0,0,0,2.82-5l0,.6c.22,2.33.52,4.43,1.15,5.47a4.18,4.18,0,0,0,.44,2s0,0,0,0a1,1,0,0,1,0,.17c0,1.23-1.16,5.35-1.16,7.81,0,.89,0,1.46,0,1.88a7.4,7.4,0,0,1-.63,2.28,19.09,19.09,0,0,0-1,6.16,18.09,18.09,0,0,0,1.54,7.35,21.39,21.39,0,0,0,4,9.26,4.11,4.11,0,0,1,.17.48,4.53,4.53,0,0,1,.19,1.27,3.59,3.59,0,0,1-.11.88,5.1,5.1,0,0,0-.19,1.17,1.32,1.32,0,0,0,.25.83,1.45,1.45,0,0,0-.83.79,1.76,1.76,0,0,0-.08.55,2.3,2.3,0,0,0,.55,1.58,1.59,1.59,0,0,0,0,.22,1.08,1.08,0,0,0,.92,1.13,1.46,1.46,0,0,0,1.06.43,1.4,1.4,0,0,0,1.13.54h1.71a1.62,1.62,0,0,0,1.13.36h.07a2.86,2.86,0,0,0,.53-.15,1.45,1.45,0,0,0,.48-.29,1.61,1.61,0,0,0,1,.29.91.91,0,0,1,.37.06,1.17,1.17,0,0,0,.4.09,1.79,1.79,0,0,0,.76-.23.94.94,0,0,0,.56-.91.21.21,0,0,0,0,0,2.35,2.35,0,0,0-.07-.47,2.3,2.3,0,0,0,.36.47,2.17,2.17,0,0,0,.79.53,5.23,5.23,0,0,0,2,.28c1.15,0,1.62-.9,3.32-.89l.58,0c2.21.21,2.65.85,4.86.86a4.2,4.2,0,0,0,1.9-.26.9.9,0,0,0,.29-.26,1.16,1.16,0,0,0,.65.2,1.62,1.62,0,0,0,.67-.16,1,1,0,0,0,.29-.24,1.45,1.45,0,0,0,1,.31,2.28,2.28,0,0,0,.47,0,5.59,5.59,0,0,0,1-.27,1.57,1.57,0,0,0,.57.12.66.66,0,0,0,.32-.07.68.68,0,0,0,.42-.59.93.93,0,0,0-.22-.54,1.47,1.47,0,0,0,0-.31A2,2,0,0,0,117,166a1.44,1.44,0,0,0-.25-.56l0,0h0a.54.54,0,0,0-.42-.19c-.41,0-.68.27-1.05.26a1,1,0,0,1-.3,0,2.34,2.34,0,0,0-.69-.13,3.9,3.9,0,0,0-.55.1.54.54,0,0,1-.2,0,10.49,10.49,0,0,1-2.66-.62,2.72,2.72,0,0,0-.88-.11,1.36,1.36,0,0,1-.88-.38c-.68-.66-1.55-.79-2.15-1.23a3.05,3.05,0,0,0-.77-.51,3.17,3.17,0,0,1-1.73-1.59,7.59,7.59,0,0,1-.39-.84,12,12,0,0,1-.51-1.79,24.55,24.55,0,0,1-.52-5.21c0-.46,0-1,0-1.46.07-1.53.1-2.92.1-4.18,0-5.6-.58-8.78-.58-10.33a3.07,3.07,0,0,1,.06-.68,6.53,6.53,0,0,1,.41-1.24,1.89,1.89,0,0,0,.18-.92,1.76,1.76,0,0,1,.29-.91,2.13,2.13,0,0,0,.35-1.07c-.05-.55.82-1.18.84-2.62,0-1-.28-1.58-.28-2.4a4.47,4.47,0,0,1,.21-1.32,5.62,5.62,0,0,0,.17-1,3.28,3.28,0,0,1,.49-1.15c.76-1.33.92-3.59,1.61-5.86a17.33,17.33,0,0,0,1.21,2.38,2.66,2.66,0,0,1,.55,1.24,2.28,2.28,0,0,0,.71,1.24c0,.46.25,2.1,2.19,4.52a28.32,28.32,0,0,0,1.91,5.37c.93,1.55-.15,4.74,3.29,8.18a10,10,0,0,0,2,1.54c0,.76.33,3.8,4.47,7.57,4.63,4.26,3.85,7.05,4.62,8.79a2.94,2.94,0,0,0,2.45,2h.15A2.89,2.89,0,0,0,132,160a5.69,5.69,0,0,0,.71-.71c.94-1.09,1.54-1.29,2-1.29a5.75,5.75,0,0,1,1,.18l.21,0a.92.92,0,0,0,.45-.11c.81-.44,4.38-2.5,5.55-3.26a2,2,0,0,0,.76-.77,1.48,1.48,0,0,0,.18-.67,1.52,1.52,0,0,0-.11-.57c-.19-.53-.54-.79-.88-.78a.89.89,0,0,0-.34.07l0,0a.85.85,0,0,0-.75-.46,1.21,1.21,0,0,0-.38.06.48.48,0,0,0-.25-.06,3.76,3.76,0,0,0-1.22.36,1.51,1.51,0,0,1-.59.16h-.24a2.48,2.48,0,0,0-1.2.45l-.26,0h-.06a14.18,14.18,0,0,0-2-.08h-.08l-.11,0a1.83,1.83,0,0,1-.34,0c-.66,0-1.93-.26-3.06-2.32-1.63-3-4.48-13.36-6.86-17.21a38.42,38.42,0,0,0-2.79-3.89,3.29,3.29,0,0,1-1-2,2.63,2.63,0,0,0-.1-.85,1.61,1.61,0,0,0-.35-.49,1.92,1.92,0,0,1-.22-1,2,2,0,0,0-.33-1,2,2,0,0,1-.21-1.08c0-1.53-1.13-2.31-1.4-3.18v0l0,0-.12-.22a7.08,7.08,0,0,1-.71-3.18,8.55,8.55,0,0,1,.06-1,8.16,8.16,0,0,0,0-.85c0-2.49-1.29-4.36-1.43-5.19a33.87,33.87,0,0,0-1.73-5.67,6.59,6.59,0,0,0-1.5-2.3,3.66,3.66,0,0,1-1.07-1.76,5.59,5.59,0,0,0-1-1.82,6.45,6.45,0,0,1-.58-3.28,7.81,7.81,0,0,0-.95-3.9,6.38,6.38,0,0,1-1-2.76s-.06-.4-.16-.82a4.29,4.29,0,0,0-.3-.91,2.57,2.57,0,0,0,.56-1,3.54,3.54,0,0,0,.09-.36,4.48,4.48,0,0,0,.08-.9,5,5,0,0,0-.31-1.86,7.56,7.56,0,0,1-.45-1.78,8.15,8.15,0,0,0-.3-1.65.72.72,0,0,0-.13-.22A4,4,0,0,0,108,75.74a31.64,31.64,0,0,1,.6-3.22,2.27,2.27,0,0,1,.49-1.33,4.32,4.32,0,0,0,.58-2.19,4.82,4.82,0,0,1,.38-1.93,6.64,6.64,0,0,0,.77-1.81,15.48,15.48,0,0,0,1.57-2.74,2.33,2.33,0,0,1,1-.57,4,4,0,0,0,1.51-.85.9.9,0,0,1,.16-.13l0,0h0a.74.74,0,0,1,.18.08,5.05,5.05,0,0,0,3,.68c.33,0,.7,0,1.11,0a18.81,18.81,0,0,0,2.16-.25c.32-.08.31-.1.38-.09s.66.06,2.46.22c.78.07,1.42.09,2,.09a8.44,8.44,0,0,0,2.31-.26,4.34,4.34,0,0,1,.85-.25h.11c.8.17.55.06,1.82.37a7,7,0,0,0,1.81.17,7.31,7.31,0,0,1,1.77.16,6.49,6.49,0,0,0,1.28.1,25,25,0,0,0,8.6-1.68,1.46,1.46,0,0,1,.52-.05h.66a9.48,9.48,0,0,0,2.06-.2c.84-.17,1.4-.21,1.84-.28a1.21,1.21,0,0,0,1-.6.26.26,0,0,0,0-.15,3.1,3.1,0,0,0,2.33.69,4.43,4.43,0,0,0,1.74-.39,5.87,5.87,0,0,1,.88-.36l.6,0a1.5,1.5,0,0,0,1.16-.29.43.43,0,0,0,.2.06c.13,0,.32,0,.79.13a2.6,2.6,0,0,0,.56.06,2.07,2.07,0,0,0,.92-.2.61.61,0,0,0,.45.13h.13a2.69,2.69,0,0,1,.51,0,3.4,3.4,0,0,0,.56,0c.68,0,1.13-.28,1.25-.65h0v-.18c0-.27-.24-.36-.42-.41a2.61,2.61,0,0,0-.59-.06h-.32c-.42-.12-1-.23-1.51-.33l.22-.08a1.67,1.67,0,0,0,.81.17,3.56,3.56,0,0,0,1.13-.21,1.75,1.75,0,0,0,.8.13l.62,0c.76,0,1.05-.48,1-.84a1.09,1.09,0,0,0-.13-.5l-.05-.1h-.26c-.72,0-1.67-.41-2.28-.41a.69.69,0,0,0-.33.07.8.8,0,0,1-.35.05,4.91,4.91,0,0,1-.89-.1l.13-.1A2.64,2.64,0,0,0,161.39,55.47Z"/><path class="cls-6" d="M96.38,165a1,1,0,0,1-.33-.2,3.58,3.58,0,0,0-.5-.38c-.06-.06-.14-.16-.23-.58a2.15,2.15,0,0,0-.48-.91,1.1,1.1,0,0,1-.26-.77,2.69,2.69,0,0,1,0-.4,1.54,1.54,0,0,0,0-.37,2.8,2.8,0,0,0-.88-2,6.34,6.34,0,0,1-1.49-4.57c0-.19,0-.39,0-.59s0-.6,0-.87c0-2.75-.73-3.56-.71-4.72a4,4,0,0,1,.12-.92,16.41,16.41,0,0,0,.34-3.41,14.87,14.87,0,0,0-.34-3.22c-.22-1-.53-1.95-.8-2.91a4.29,4.29,0,0,1-.16-1.17A5.67,5.67,0,0,1,91,135.4c.11-.38.24-.77.34-1.18,0-.18.09-.36.12-.54s0-.29.06-.44a3.45,3.45,0,0,1,.33-.76,2.67,2.67,0,0,0,.36-1.08.79.79,0,0,0-.07-.33,3.11,3.11,0,0,0,.45-1.58,3.49,3.49,0,0,0,0-.37,2.16,2.16,0,0,0,.66-1.12,1.83,1.83,0,0,0,.09-.54,1.35,1.35,0,0,0-.05-.38,9.46,9.46,0,0,0,.72-3.68,9.66,9.66,0,0,0-.25-2.21,7.27,7.27,0,0,1-.18-1.64,16.35,16.35,0,0,1,1.31-5.59c0,.48,0,1,0,1.53a7.69,7.69,0,0,0,.54,3.37,4,4,0,0,1,.44,2,15.74,15.74,0,0,1-.21,2.16,24.33,24.33,0,0,0-.4,3.29,5.73,5.73,0,0,0,.22,1.64,2.86,2.86,0,0,1,.11.8,6,6,0,0,1-.25,1.52,10.59,10.59,0,0,0-.57,2.3.82.82,0,0,0,0,.1c0,.39.07.7.07,1v0a1.69,1.69,0,0,1,0,.3l0,.24c-.52,2.87-1.37,5.74-1.38,8.7a12.52,12.52,0,0,0,.46,3.46,8.39,8.39,0,0,0,1.47,3,14.71,14.71,0,0,0-.15,2.22A16.77,16.77,0,0,0,96.38,158Z"/></g><rect class="cls-7" x="14.45" y="11.21" width="144" height="144" rx="18.78" ry="18.78"/><path class="cls-4" d="M80.16,113.46V101.36h22.17v55H88V113.46Z"/><path class="cls-4" d="M115.39,156.35l15.68-18.52-.14-.15a18.18,18.18,0,0,1-7.73,1.68c-10.79,0-17.65-9.26-17.65-19.4,0-13.49,11.09-20.79,23.63-20.79,5.32,0,11.45,1.31,15.68,4.74a20,20,0,0,1,7.37,15.17c0,7.95-4.08,15.61-8.82,21.88l-11.74,15.39Zm5-36.83a8.81,8.81,0,0,0,8.82,9,9,9,0,1,0,0-18.09A8.81,8.81,0,0,0,120.42,119.52Z"/></g></g></g></svg>