<svg xmlns="http://www.w3.org/2000/svg" xmlns:xlink="http://www.w3.org/1999/xlink" viewBox="0 0 174.5 145.71"><defs><style>.cls-1,.cls-6{fill:none;}.cls-2{fill:url(#linear-gradient);}.cls-3{clip-path:url(#clip-path);}.cls-4,.cls-7{fill:#fff;}.cls-4,.cls-5{fill-rule:evenodd;}.cls-5{fill:#662d91;}.cls-6{stroke:#006838;stroke-miterlimit:10;stroke-width:1.14px;}</style><linearGradient id="linear-gradient" x1="101.94" y1="144.57" x2="101.94" y2="0.57" gradientUnits="userSpaceOnUse"><stop offset="0" stop-color="#38a643"/><stop offset="1" stop-color="#8dc63f"/></linearGradient><clipPath id="clip-path"><rect class="cls-1" x="29.94" y="0.57" width="144" height="144" rx="18.78" ry="18.78"/></clipPath></defs><title>Asset 13</title><g id="Layer_2" data-name="Layer 2"><g id="Layer_1-2" data-name="Layer 1"><g id="_12" data-name="12"><rect class="cls-2" x="29.94" y="0.57" width="144" height="144" rx="18.78" ry="18.78"/><g class="cls-3"><path class="cls-4" d="M0,124.73s17.25-1.45,19.74-.93,4.36.21,4.89-1.45-1.14-3.74-1.14-3.74-.11-2.39-4.05-2.7-6,.52-8.63-.52-2.08-4.36-2.6-9S6.75,89.4,8,82.34s11.85-.73,18.61-2.6S40,76.1,40,76.1a62.41,62.41,0,0,0-.21,9.15c.21,5.92,2.91,14,4.26,17.67s2.81,7.38,3.33,8.73S51,113.2,53.62,113a3,3,0,0,0,2.81-2.7s.21,0,.93,2.49S57,117,59.65,119.33s4.37,2.7,9.25,2.6,5.92-.62,8.52-.72,2.08-2.08,3.53-2.39,1.46-1.25,1.87-1.25.52-1,1.56-.93-1.56-1.77-1.56-1.77a4.8,4.8,0,0,0-2.18-1.14c-1.66-.52-1.77-.1-3.33-.73s-2.7-.1-4.67-.73-2.19-2.91-2.19-6.86-1.14-9.56-.73-14.86,1.76-9.25,4.68-15.07S78.46,64.67,79.5,62s2.91-3.85,4.68-5.41,1.87-1.24,5.82-2.39,7.8-3.33,12.37-5.61a62.93,62.93,0,0,1,13-4.78c3.85-.93,5.4-1.56,9.77-1.56s5.82-.52,8.42-2.29,2.7-2.8,2.81-3.32.83-.73.83-1.35.1,1,.93-.62a2.1,2.1,0,0,0-.83-2.7,10.29,10.29,0,0,0-2.49-2.08A41.54,41.54,0,0,1,130,26.43c-.83-.73-1.14-.83-1.14-1.76s.83-.11.83-.11-.52-2.08-1.77-2.7-5-2.7-5-2.7.11-3.12-.62-3.64-1.56-1.15-2.39-.52-2.29,1.77-2.29,1.77-1.77-1.15-5.92-1.15-3.74,0-9.46.21-14.23,2.7-18.6,3-4.16.94-11.43-.11-9.77-.52-15.07,1.46S46.35,23,27,21.65.21,23.41.21,23.41ZM103.82,23.21c.21.62-1.56.52-1.46,1.35s.52,2.18,0,1.35-1-1.35-.83-2.5-.11-1.35.31-2.18.52.31,1,1.35S103.62,22.58,103.82,23.21Zm17.56,4.05c-.93.31-1.24,0-2.39-.31s-.21-.83.63-1.35,1.35-.83,2-.11a2.52,2.52,0,0,0,1.45.83A5.59,5.59,0,0,1,121.38,27.26Zm17.77,8.31-2.08,1.66a5.42,5.42,0,0,0-2.6-.31c-.83.31-.52.41-.83-.21s-.73-.72-1.14-1.45-.1-1.35.62-1.45.52-.1,1-1.25.93,0,2.5-.41,1.66,0,1.66,0Z"/><path class="cls-5" d="M26,139s17.25-1.45,19.74-.93,4.37.21,4.89-1.46-1.14-3.74-1.14-3.74-.1-2.39-4.05-2.7-6,.52-8.63-.52-2.08-4.37-2.6-9-1.46-16.94-.21-24,11.85-.73,18.6-2.6,13.4-3.64,13.4-3.64a62.5,62.5,0,0,0-.21,9.15c.21,5.92,2.91,14,4.26,17.67s2.81,7.38,3.32,8.73,3.64,1.56,6.24,1.35a3,3,0,0,0,2.81-2.7s.21,0,.93,2.5-.42,4.26,2.29,6.55,4.36,2.7,9.25,2.6,5.93-.62,8.52-.72,2.08-2.08,3.53-2.39,1.46-1.25,1.87-1.25.52-1,1.56-.94-1.56-1.77-1.56-1.77a4.81,4.81,0,0,0-2.18-1.14c-1.66-.52-1.77-.1-3.33-.73s-2.7-.1-4.67-.73-2.19-2.91-2.19-6.86-1.14-9.56-.73-14.86,1.76-9.25,4.68-15.07,4.05-10.81,5.09-13.51,2.91-3.85,4.68-5.41,1.87-1.25,5.82-2.39,7.8-3.33,12.37-5.61a62.8,62.8,0,0,1,13-4.78c3.84-.93,5.4-1.56,9.77-1.56s5.82-.52,8.41-2.29,2.7-2.8,2.81-3.32.83-.73.83-1.35.1,1,.94-.62a2.11,2.11,0,0,0-.83-2.7,10.3,10.3,0,0,0-2.5-2.08,41.52,41.52,0,0,1-4.78-3.42c-.83-.73-1.14-.83-1.14-1.77s.83-.11.83-.11-.52-2.08-1.77-2.7-5-2.7-5-2.7.11-3.12-.62-3.63-1.56-1.15-2.39-.52S143.69,31,143.69,31s-1.77-1.15-5.92-1.15-3.74,0-9.46.21-14.24,2.7-18.6,3S105.55,34,98.28,33s-9.77-.52-15.07,1.46S72.4,37.23,53.07,35.88s-26.81,1.76-26.81,1.76ZM129.87,37.44c.21.62-1.56.52-1.45,1.35s.52,2.18,0,1.35-1-1.35-.83-2.5-.11-1.35.31-2.18.52.31,1,1.35S129.66,36.82,129.87,37.44Zm17.56,4.06c-.93.31-1.25,0-2.39-.31s-.21-.83.62-1.35,1.35-.83,2-.11a2.52,2.52,0,0,0,1.46.83A5.61,5.61,0,0,1,147.43,41.5Zm17.77,8.31-2.08,1.66a5.42,5.42,0,0,0-2.6-.31c-.83.31-.52.41-.83-.21s-.73-.73-1.14-1.45-.11-1.35.62-1.46.52-.1,1-1.25.93,0,2.49-.42,1.66,0,1.66,0Z"/></g><rect class="cls-6" x="29.94" y="0.57" width="144" height="144" rx="18.78" ry="18.78"/><path class="cls-7" d="M95.65,102.82V90.72h22.17v55h-14.3V102.82Z"/><path class="cls-7" d="M166,133.6v12.11h-44.2l22.46-24.43c3.21-3.5,6.27-8.46,6.27-13.49,0-3.5-2.48-7.15-6.27-7.15s-6,3-6,6.71a13.2,13.2,0,0,0,.22,2.33H122.7c.44-12.62,8.46-21.15,21.44-21.15,11.52,0,21.22,7.58,21.22,19.54,0,7.88-3.28,12.47-8.9,17.58l-8.53,8Z"/></g></g></g></svg>