<svg xmlns="http://www.w3.org/2000/svg" xmlns:xlink="http://www.w3.org/1999/xlink" viewBox="0 0 153.22 158.79"><defs><style>.cls-1,.cls-5{fill:none;}.cls-2{fill:url(#linear-gradient);}.cls-3{clip-path:url(#clip-path);}.cls-4{fill:#27aae1;}.cls-5{stroke:#662d91;stroke-miterlimit:10;stroke-width:1.14px;}.cls-6{fill:#fff;}.cls-7{fill:#00aeef;}</style><linearGradient id="linear-gradient" x1="72.79" y1="157.65" x2="72.79" y2="13.65" gradientUnits="userSpaceOnUse"><stop offset="0" stop-color="#662d91"/><stop offset="1" stop-color="#ae5fa5"/></linearGradient><clipPath id="clip-path"><rect class="cls-1" x="0.79" y="13.65" width="144" height="144" rx="18.78" ry="18.78"/></clipPath></defs><title>Asset 15</title><g id="Layer_2" data-name="Layer 2"><g id="Layer_1-2" data-name="Layer 1"><g id="_14" data-name="14"><rect class="cls-2" x="0.79" y="13.65" width="144" height="144" rx="18.78" ry="18.78"/><g class="cls-3"><path class="cls-4" d="M42.12,138.81a9.44,9.44,0,0,1-18.88-.13c0-5.22,9.55-15.42,9.55-15.42S42.15,133.59,42.12,138.81Z"/><rect class="cls-5" x="0.79" y="13.65" width="144" height="144" rx="18.78" ry="18.78"/><path class="cls-6" d="M29.45,137a8.11,8.11,0,0,1,.13-1.27A3.88,3.88,0,0,0,32.11,143,8.13,8.13,0,0,1,29.45,137Z"/><path class="cls-4" d="M38,108.67a5.24,5.24,0,0,1-10.49-.07c0-2.9,5.3-8.57,5.3-8.57S38,105.77,38,108.67Z"/><path class="cls-6" d="M30.93,107.64a4.53,4.53,0,0,1,.07-.7A2.16,2.16,0,0,0,32,111a2,2,0,0,0,.43,0A4.52,4.52,0,0,1,30.93,107.64Z"/><path class="cls-7" d="M112.51,62c-.57-.16,13-29.77,31.4-48.7l.31-.34c8.46,5.75,12.58,17.07,5,35.32-11,23.83-46.48,48.83-45.46,49-1-.22-16.42-36.45-5.38-60.29C108.36,13,120.82,6,135,9.14a29.63,29.63,0,0,1,4.55,1.42C121.34,29.51,111.94,61.87,112.51,62Z"/><path class="cls-7" d="M93.28,39.28c4.78-11.58,10.14-19.18,16-23.63-.17-.22-.33-.46-.51-.68l-.48.29c-28,15.91-53.94,46-53.32,46.35-.62-.38,21.39-35.08,49.2-51.08a35.58,35.58,0,0,0-4.84-3.2C83.74-1.18,66.78,2.8,47,27.61c-21,24.16-15.3,71.81-14.19,72.42-.93-.5,33.47-12.51,57.18-30.42C88.7,59.5,89,48.47,93.28,39.28Z"/><path class="cls-7" d="M42.55,27.61A105.26,105.26,0,0,1,53.4,15.8C36.68,23,21.84,33.89,20.77,35.13c.66-1.3,20.07-20.42,40.59-26.85a24.57,24.57,0,0,0-2.78-2.87c-9.2-8-21.19-7.9-38.19,5.81C2.67,24.31-.58,57.17.08,57.74c-.43-.38,15.11-2.3,30.83-7.3C33.3,42.06,37,34,42.55,27.61Z"/><path class="cls-6" d="M139.59,10.55c-18.25,19-27.66,51.32-27.08,51.48-.57-.16,13-29.77,31.4-48.7"/><path class="cls-6" d="M108.3,15.26c-28,15.91-53.94,46-53.32,46.35-.62-.38,21.39-35.08,49.2-51.08"/><path class="cls-6" d="M53.4,15.8C36.68,23,21.84,33.89,20.77,35.13c.66-1.3,20.07-20.42,40.59-26.85"/></g><rect class="cls-5" x="0.79" y="13.65" width="144" height="144" rx="18.78" ry="18.78"/><path class="cls-6" d="M66.5,115.9V103.8H88.67v55H74.37V115.9Z"/><path class="cls-6" d="M138,136.47v10.94h-6.64v11.38H118.06V147.41H91.36v-9.12l21.22-34.5h18.74v32.67Zm-19.91-21.15h-.15l-12.84,21.15h13Z"/></g></g></g></svg>