<svg xmlns="http://www.w3.org/2000/svg" xmlns:xlink="http://www.w3.org/1999/xlink" viewBox="0 0 209.53 174.93"><defs><style>.cls-1,.cls-6{fill:none;}.cls-2{fill:url(#linear-gradient);}.cls-3{clip-path:url(#clip-path);}.cls-4{fill:#fff;}.cls-5{fill:#00aeef;}.cls-6{stroke:#662d91;stroke-miterlimit:10;stroke-width:1.14px;}</style><linearGradient id="linear-gradient" x1="85.21" y1="171.6" x2="85.21" y2="27.6" gradientUnits="userSpaceOnUse"><stop offset="0" stop-color="#662d91"/><stop offset="1" stop-color="#ae5fa5"/></linearGradient><clipPath id="clip-path"><rect class="cls-1" x="13.21" y="27.6" width="144" height="144" rx="18.78" ry="18.78"/></clipPath></defs><title>Asset 16</title><g id="Layer_2" data-name="Layer 2"><g id="Layer_1-2" data-name="Layer 1"><g id="_15" data-name="15"><rect class="cls-2" x="13.21" y="27.6" width="144" height="144" rx="18.78" ry="18.78"/><g class="cls-3"><path class="cls-4" d="M26.23,68.1c9-5.14,31.69-23.56,31.69-23.56s11.56-8.14,32.55,7.28a133,133,0,0,0,41.12,20.56L150,49.68s6.85-7.28,25.7,3.85,33.84,22.27,33.84,22.27l-10.71-66L13.81,0,9.52,72S17.23,73.23,26.23,68.1Z"/><path class="cls-5" d="M109.27,32.63h-3.22c-.48-2.9,2.24-5.8,1.61-8.71C109.37,26.83,107.72,29.73,109.27,32.63Z"/><path class="cls-5" d="M106.05,52.09h3.22c.48,2.9-2.24,5.8-1.61,8.7C106,57.9,107.61,55,106.05,52.09Z"/><path class="cls-5" d="M106.7,32.54l-3.11.83c-1.22-2.68.67-6.19-.7-8.82C105.29,26.91,104.45,30.14,106.7,32.54Z"/><path class="cls-5" d="M108.62,52.18l3.11-.83c1.21,2.68-.66,6.19.7,8.83C110,57.81,110.88,54.58,108.62,52.18Z"/><path class="cls-5" d="M104.19,33.13l-2.79,1.61c-1.87-2.27-1-6.15-3-8.34C101.37,28.05,101.4,31.39,104.19,33.13Z"/><path class="cls-5" d="M111.13,51.59,113.92,50c1.87,2.27,1,6.15,3,8.34C114,56.67,113.93,53.33,111.13,51.59Z"/><path class="cls-5" d="M101.92,34.34l-2.27,2.28c-2.39-1.71-2.52-5.69-5-7.29C97.88,30.17,98.77,33.39,101.92,34.34Z"/><path class="cls-5" d="M113.4,50.38l2.28-2.28c2.39,1.71,2.51,5.69,5,7.29C117.44,54.56,116.56,51.34,113.4,50.38Z"/><path class="cls-5" d="M100,36.1l-1.61,2.79c-2.75-1-3.91-4.85-6.74-5.74C95.06,33.12,96.75,36,100,36.1Z"/><path class="cls-5" d="M115.29,48.62l1.61-2.79c2.75,1,3.9,4.84,6.73,5.75C120.26,51.61,118.57,48.73,115.29,48.62Z"/><path class="cls-5" d="M98.67,38.29c-.27,1-.55,2.08-.83,3.11-2.93-.29-5-3.67-8-3.8C93.09,36.69,95.47,39,98.67,38.29Z"/><path class="cls-5" d="M116.65,46.44l.84-3.11c2.92.29,5,3.67,8,3.81C122.23,48,119.85,45.69,116.65,46.44Z"/><path class="cls-5" d="M97.93,40.75c0,1.07,0,2.15,0,3.22-2.9.48-5.8-2.24-8.71-1.6C92.12,40.66,95,42.3,97.93,40.75Z"/><path class="cls-5" d="M117.4,44q0-1.61,0-3.22c2.9-.48,5.8,2.25,8.7,1.61C123.2,44.07,120.29,42.42,117.4,44Z"/><path class="cls-5" d="M97.84,43.33l.83,3.11c-2.68,1.21-6.19-.66-8.82.7C92.21,44.74,95.44,45.58,97.84,43.33Z"/><path class="cls-5" d="M117.48,41.4l-.83-3.11c2.67-1.21,6.19.67,8.82-.69C123.11,40,119.88,39.15,117.48,41.4Z"/><path class="cls-5" d="M98.43,45.84,100,48.62c-2.27,1.87-6.15,1-8.34,3C93.35,48.66,96.69,48.63,98.43,45.84Z"/><path class="cls-5" d="M116.9,38.89c-.54-.93-1.08-1.86-1.61-2.79,2.27-1.86,6.15-1,8.34-3C122,36.07,118.63,36.1,116.9,38.89Z"/><path class="cls-5" d="M99.64,48.11l2.28,2.28c-1.71,2.39-5.69,2.52-7.29,5C95.47,52.14,98.69,51.26,99.64,48.11Z"/><path class="cls-5" d="M115.69,36.62l-2.28-2.28c1.71-2.39,5.69-2.51,7.29-5C119.86,32.59,116.64,33.47,115.69,36.62Z"/><path class="cls-5" d="M101.4,50l2.79,1.61c-1,2.75-4.85,3.91-5.74,6.74C98.42,55,101.29,53.28,101.4,50Z"/><path class="cls-5" d="M113.93,34.74l-2.79-1.61c1-2.75,4.85-3.9,5.75-6.73C116.91,29.76,114,31.45,113.93,34.74Z"/><path class="cls-5" d="M103.59,51.35l3.11.83c-.29,2.92-3.67,5-3.8,8C102,56.93,104.34,54.55,103.59,51.35Z"/><path class="cls-5" d="M111.74,33.38l-3.11-.83c.29-2.92,3.67-5,3.81-8C113.34,27.8,111,30.18,111.74,33.38Z"/><path class="cls-5" d="M85.75,14.15a7.64,7.64,0,0,0-.65,1.66l-14,.39A7.69,7.69,0,1,0,58.36,24L51.68,36.38a7.69,7.69,0,0,0-8.34,3.85,7.84,7.84,0,0,0-.65,1.67l-14,.39a7.69,7.69,0,1,0-12.74,7.83L9.27,62.47a7.69,7.69,0,1,0,.42,14.95L17,89.35a7.58,7.58,0,0,0,.3,10.53l-6.68,12.35a7.69,7.69,0,1,0,.42,14.95l7.34,11.93a7.71,7.71,0,1,0,13.17,7.12l14-.39A7.69,7.69,0,1,0,58.32,138L65,125.67a7.58,7.58,0,0,0,9-5.51l14-.39a7.69,7.69,0,1,0,12.74-7.83l6.68-12.36A7.69,7.69,0,1,0,107,84.64L99.65,72.71a7.58,7.58,0,0,0-.3-10.53L106,49.82a7.69,7.69,0,1,0-.42-14.95L98.27,22.94a7.7,7.7,0,1,0-12.52-8.79Zm15.06,24.49a7.68,7.68,0,0,0,1.34,9.08L95.47,60.07a7.58,7.58,0,0,0-9,5.51l-7,.19-7,.2a7.64,7.64,0,0,0-9.28-5l-3.67-6-3.67-6a7.58,7.58,0,0,0-.3-10.53l6.68-12.36a7.68,7.68,0,0,0,8.34-3.85,7.8,7.8,0,0,0,.65-1.67l14-.39a7.64,7.64,0,0,0,9.28,5l7.34,11.93A7.65,7.65,0,0,0,100.81,38.64Zm1.38,49.77a7.69,7.69,0,0,0,1.34,9.08l-6.68,12.35a7.58,7.58,0,0,0-9,5.51l-14,.39a7.64,7.64,0,0,0-9.28-5L57.24,98.79a7.57,7.57,0,0,0-.3-10.53L63.62,75.9a7.59,7.59,0,0,0,9-5.51l7-.19,7-.2a7.64,7.64,0,0,0,9.28,5L103.23,87A7.68,7.68,0,0,0,102.19,88.41ZM46.11,139.77a7.66,7.66,0,0,0-.65,1.66l-14,.39a7.64,7.64,0,0,0-9.28-5l-7.34-11.93a7.93,7.93,0,0,0,1-1.45,7.68,7.68,0,0,0-1.34-9.08L21.21,102a7.58,7.58,0,0,0,9-5.51l14-.39a7.64,7.64,0,0,0,9.28,5L60.82,113a7.58,7.58,0,0,0,.3,10.53l-6.68,12.35A7.68,7.68,0,0,0,46.11,139.77ZM14.49,73.65a7.68,7.68,0,0,0-1.34-9.08l6.68-12.36a7.68,7.68,0,0,0,8.34-3.84,8,8,0,0,0,.65-1.67l14-.39a7.64,7.64,0,0,0,9.28,5l3.67,6,3.67,6a7.57,7.57,0,0,0,.3,10.53L53.06,86.16A7.69,7.69,0,0,0,44.72,90a7.55,7.55,0,0,0-.64,1.66l-14,.39a7.64,7.64,0,0,0-9.28-5L13.45,75.1A7.61,7.61,0,0,0,14.49,73.65Z"/><path class="cls-5" d="M107.66,50.64a8.28,8.28,0,1,1,8.28-8.28A8.29,8.29,0,0,1,107.66,50.64Z"/><path class="cls-4" d="M107.66,34.65A7.71,7.71,0,1,1,100,42.36a7.71,7.71,0,0,1,7.71-7.71m0-1.14a8.84,8.84,0,1,0,8.84,8.85,8.86,8.86,0,0,0-8.84-8.85Z"/></g><rect class="cls-6" x="13.21" y="27.6" width="144" height="144" rx="18.78" ry="18.78"/><path class="cls-4" d="M78.7,129.86v-12.1h22.17v55H86.58V129.86Z"/><path class="cls-4" d="M124.58,129.86l-.95,6.27,4.52-.36c11.23-.87,19.47,8.31,19.47,19.69a19.16,19.16,0,0,1-7.07,14.88c-4.38,3.5-10.58,4.6-16,4.6a33.11,33.11,0,0,1-17.94-5l2.12-13.49A23.31,23.31,0,0,0,124,162.82c4.52,0,8.75-3.28,8.75-8.09,0-6.64-6.34-9.41-12-9.41a24.73,24.73,0,0,0-10.5,2.26L115,117.75h28.59v12.1Z"/></g></g></g></svg>