<svg xmlns="http://www.w3.org/2000/svg" xmlns:xlink="http://www.w3.org/1999/xlink" viewBox="0 0 150.6 145.71"><defs><style>.cls-1,.cls-7{fill:none;}.cls-2{fill:url(#New_Gradient_Swatch_3);}.cls-3{clip-path:url(#clip-path);}.cls-4,.cls-5{fill:#fbb040;}.cls-5{fill-rule:evenodd;}.cls-6{fill:#fff;}.cls-7{stroke:#be1e2d;stroke-miterlimit:10;stroke-width:1.14px;}</style><linearGradient id="New_Gradient_Swatch_3" x1="72.57" y1="144.57" x2="72.57" y2="0.57" gradientUnits="userSpaceOnUse"><stop offset="0" stop-color="#be1e2d"/><stop offset="1" stop-color="#f15a29"/></linearGradient><clipPath id="clip-path"><rect class="cls-1" x="0.57" y="0.57" width="144" height="144" rx="18.78" ry="18.78"/></clipPath></defs><title>Asset 8</title><g id="Layer_2" data-name="Layer 2"><g id="Layer_1-2" data-name="Layer 1"><g id="_7" data-name="7"><rect class="cls-2" x="0.57" y="0.57" width="144" height="144" rx="18.78" ry="18.78"/><g class="cls-3"><path class="cls-4" d="M127.21,53.36a29.05,29.05,0,0,1-.49,9.68.58.58,0,0,0,0,.07c-1.7-.13-3.25-1.43-3.68-4.7-.38-4.37,2.67-10.94,2.5-10.89.17-.05,5.42,3.91,5.8,8.28.57,4.31-.65,6.37-3,7.1a5.06,5.06,0,0,1-.78.17A21.62,21.62,0,0,0,127.21,53.36Z"/><path class="cls-4" d="M67.72,9.09A42,42,0,0,0,55,15l-.09.06c1.1,2.23,3.68,3.58,8.32,2.38,6.09-1.87,13.26-9.56,13.29-9.3,0-.25-8.22-5.15-14.3-3.28C56.07,6.48,54,9.24,54.26,12.76a7.05,7.05,0,0,0,.19,1.14C59.61,10.14,67.7,9,67.72,9.09Z"/><path class="cls-4" d="M62.43,24.52A29,29,0,0,1,69,31.65l0,.06C67.74,32.84,65.74,33,63.11,31c-3.39-2.79-5.94-9.57-6-9.42.08-.15,6.58-1.12,10,1.67,3.47,2.62,4.09,4.93,3,7.09a4.7,4.7,0,0,1-.42.68A21.6,21.6,0,0,0,62.43,24.52Z"/><path class="cls-4" d="M34.42,16.37a42.15,42.15,0,0,0-8,11.58l0,.1c2.08,1.36,5,1.22,8.38-2.17,4.3-4.7,6.58-15,6.72-14.76-.14-.21-9.69-.27-14,4.43-4.46,4.47-4.86,7.92-2.83,10.8a7,7,0,0,0,.74.89C28,21.39,34.33,16.26,34.42,16.37Z"/><path class="cls-4" d="M16.91,40.16a28.94,28.94,0,0,1,9.54,1.68l.07,0c-.34,1.67-1.81,3-5.11,3.06-4.39-.16-10.53-4-10.5-3.82,0-.17,4.55-4.89,8.93-4.74,4.35,0,6.24,1.44,6.67,3.83a4.55,4.55,0,0,1,.08.79A21.58,21.58,0,0,0,16.91,40.16Z"/><path class="cls-4" d="M60.43,34.24a28.89,28.89,0,0,1,2.21,9.43s0,0,0,.08c-1.67.35-3.51-.47-4.83-3.49C56.23,36.16,57.34,29,57.2,29.1c.15-.09,6.29,2.26,7.87,6.35,1.74,4,1.14,6.3-.89,7.65a4.91,4.91,0,0,1-.7.38A21.58,21.58,0,0,0,60.43,34.24Z"/><path class="cls-4" d="M62,70.23l5.05.35c15.19-31.43,2.21-40.21,2.21-40.21S79.71,37.73,62,70.23Z"/><path class="cls-4" d="M127.83,62.33s2.12,12.79-34.27,23a54.67,54.67,0,0,0-11.14,4.51L81.92,97a44.53,44.53,0,0,1,14.7-7.77C130.74,78.06,127.83,62.33,127.83,62.33Z"/><path class="cls-4" d="M39.87,57.88a91.87,91.87,0,0,1,3,10.75l8.44.58c.62-.57,1.24-1.13,1.81-1.69.78.65,1.51,1.3,2.22,2l10.43.72A54.77,54.77,0,0,0,61,57.62c5.31-9.25,2.48-14.93,2.48-14.93s2.1,4.44-3.77,12.48c-17.34-32.1-7-39.39-7-39.39S39.49,24.72,55.4,56.92c.37.75.71,1.49,1,2.23-.81.87-1.71,1.77-2.7,2.7-.55-.35-1.09-.71-1.67-1C48.2,58.51,44.89,56.32,42,54.26,36.9,44.44,31.1,41.69,28,40.93c-4.94-7.17-3.13-11.2-3.13-11.2S19.41,41.32,39.87,57.88Zm17.88,4.52c.38,1,.7,2,1,3q-1-.84-2.14-1.65C57,63.33,57.39,62.86,57.75,62.41Zm-9.67,1.43c.65.42,1.27.85,1.88,1.29-.92.76-1.89,1.53-2.94,2.32-.54-2-1.11-3.79-1.71-5.48Q46.64,62.89,48.08,63.84ZM28.27,41.27c2,.9,5,3.12,8,8.5A48.06,48.06,0,0,1,28.27,41.27Z"/><path class="cls-5" d="M113.17,12.1C99.25,19.74,95.71,27.76,98.4,36.16c1-.85,2-1.68,3-2.45C117.23,21.06,130,16.22,131.16,16.22h0a2,2,0,0,1,1.94,1.51,2,2,0,0,1-1,2.26c-10.37,5.56-19.87,14.19-28.29,24,4.3,3.08,10.82,3.5,19.76-1.41,13.89-8.42,26.83-31.92,27-31.3C150.39,10.67,127.06,3.67,113.17,12.1Z"/><path class="cls-5" d="M131.13,18.22s0,0,0,0,0,0,0,0Z"/><path class="cls-4" d="M50.14,122.71c-2.54,0-6.28.14-6.91-2.73-4.54-20.59-18-29.76-18-29.76A3,3,0,0,1,25.11,86c1.13-1.2,3.83-2.43,12.79,1.55s15.42,13.92,15.42,13.92c29-67,79.28-84,77.83-83.24-40.86,21.91-68.51,91.06-68.87,91.86-3,6.46-7,11.8-10.16,12.43A10.19,10.19,0,0,1,50.14,122.71Z"/><path class="cls-6" d="M72.39,92.82l-2.58,37.39-54.75-3.78,3.43-49.66,43.57,3c1.48-2.54,3-5,4.52-7.36L15.19,68.87a3.83,3.83,0,0,0-4.08,3.56l-4,57.3a3.83,3.83,0,0,0,3.56,4.08l62.39,4.3h.27a3.83,3.83,0,0,0,3.81-3.57l4-57.3a3.64,3.64,0,0,0,0-.66C77.77,82.4,74.85,87.91,72.39,92.82Z"/></g><rect class="cls-7" x="0.57" y="0.57" width="144" height="144" rx="18.78" ry="18.78"/><path class="cls-6" d="M95.16,102.82V90.72H140.3l-31.58,55H93l25.09-42.88Z"/></g></g></g></svg>