<svg xmlns="http://www.w3.org/2000/svg" xmlns:xlink="http://www.w3.org/1999/xlink" viewBox="0 0 148.5 149.3"><defs><style>.a,.f{fill:none;}.b{fill:url(#a);}.c{clip-path:url(#b);}.d{fill:#662d91;}.e{fill:#fff;}.f{stroke:#006838;stroke-miterlimit:10;stroke-width:1.14px;}</style><linearGradient id="a" x1="73.92" y1="146.25" x2="73.92" y2="2.25" gradientUnits="userSpaceOnUse"><stop offset="0" stop-color="#38a643"/><stop offset="1" stop-color="#8dc63f"/></linearGradient><clipPath id="b"><rect class="a" x="1.9" y="2.3" width="144" height="144" rx="18.8" ry="18.8"/></clipPath></defs><title>Aichi Biodiversity Target 11</title><rect class="b" x="1.9" y="2.3" width="144" height="144" rx="18.8" ry="18.8"/><g class="c"><path class="d" d="M125,27.5a40.6,40.6,0,0,1,4.4,6.6c1.7,3.3-5.2,12.1-5.2,12.1S112.6,67,99.9,75.5s-32,5.2-32,5.2S105.7,60.9,116.4,36,125,27.5,125,27.5Z"/><rect class="a" x="1.9" y="2.3" width="144" height="144" rx="18.8" ry="18.8"/><rect class="a" x="1.9" y="2.3" width="144" height="144" rx="18.8" ry="18.8"/><path class="e" d="M94.7,24.3a14.7,14.7,0,0,0-9.3-2.3s5.3.1,7.8,4.4a2.1,2.1,0,0,0,3,.2c3.2-3.9,8.4-3.2,8.4-3.2S99.2,22,94.7,24.3Z"/><path class="e" d="M75.6,14.9a14.8,14.8,0,0,0-9.6-1.1s5.2-.6,8.3,3.4a2.1,2.1,0,0,0,3-.2c2.6-4.3,7.9-4.3,7.9-4.3S79.8,12,75.6,14.9Z"/><path class="e" d="M101.5,12.1a14.8,14.8,0,0,0-9.6-.7s5.2-.8,8.5,3a2.1,2.1,0,0,0,3-.3c2.4-4.4,7.7-4.6,7.7-4.6S105.5,9,101.5,12.1Z"/><path class="d" d="M150.9,21.1s-6-20.1-11.3-10.8c-2.9,5-8.1,14.4-11,19.6l-2,3.6s-15.2,16.6-20.4,23.7c-3.3,4.5-24,22.1-39.5,22.6l4,6.3,89,4.8Z"/><path class="e" d="M-.7,37.2V88.7l5.7-1.3V62.3l7.5-.7V86.1l5.7-.7V61.4h7.5V84.9l5.7-.2V61.7l7.5.7V84.9l5.7.2v-22l7.5,1.1V85.6l5.7.5v-21L65,66.4V86.8l5.7.6v-20l7.5,1.3V88.1l5.7.5V69.7l7.5,1.2V89.3l5.7.4V71.7l7.5.9V89.9H110V73.1l7.5.4V89.8l5.7-.4V73.6l7.5-.3V88.6l5.7-1V72.8l7.5-1.1V85.9l5.7-1.7V56.5l-2.8-1.6-2.8,2.4V61l-7.5.7V57.8l-2.8-2.1-2.8,2.2v4l-7.5-.2V57.5L120.4,55l-2.8,2v4.3l-7.5-.8V56l-2.8-3-2.8,2v4.6l-7.5-1.3V53.5l-2.8-3.3-2.8,2v4.8l-7.5-1.7v-5L80.9,47,78.1,49v5.1l-7.5-1.8V47.1l-2.8-3.7L65,45.6V51l-7.5-1.7V43.7l-2.8-3.8-2.8,2.4V48l-7.5-1.5V40.7l-2.8-3.8-2.8,2.7v5.9l-7.5-1.1V38.3l-2.8-3.8-2.8,3v6.2l-7.5-.5V36.9l-2.8-3.7-2.8,3.5v6.5l-7.5.3V36.8L2.1,33.2ZM136.3,70.7V63.8l7.5-.8v6.6Zm-13.1.6V64h7.5v7.1ZM110,70.7V62.9l7.5.8v7.6ZM96.9,69.2V60.9l7.5,1.3v8ZM83.8,67V58.2l7.5,1.6v8.5ZM70.6,64.5V55.2l7.5,1.7v9ZM57.5,62V52.3L65,54v9.5ZM44.4,59.9V49.7l7.5,1.4v9.9ZM31.2,58.4V47.7l7.5,1V59.2Zm-13.1-.5V46.7l7.5.4V58.1Zm-13.1.8V47l7.5-.3V58.1Z"/><path class="d" d="M153,83.7s-18.6-6.6-33.7-4c-30.4,5.2-47.5-.4-55.2-.4s-20.6,7.4-20.6,7.4S38.3,84.4,53,76.3s32-.7,32-.7-5.2-8.1-28-6.3c-10.4.8-20.1,5.4-27.6,10.2a63.9,63.9,0,0,1,5.1-7.1c39.9-47.8,90.6-20.6,90.6-20.6A72.7,72.7,0,0,0,84.3,39.6c-35.4.5-58.3,26.8-71,47.8C14.4,62.1,42,47.6,42,47.6s-9.6-.4-26.9,17.3a40.3,40.3,0,0,0-3.6,4.3c1.1-2.9,2.4-6,4-9.3C34.2,20.7,85.3,37.2,85.3,37.2S52.4,22.4,23.5,40.4C12.5,47.2,5.6,54.1,1.2,60.1,13.9,20.7,34.6,6.4,34.6,6.4A82.8,82.8,0,0,0,7.7,32.9c-11.4,18-16.6,42-16.6,42s-1.3,13.1-1.5,21l-1.6.3-10.1,57.1L152,158.1C153.2,158.1,153,83.7,153,83.7Z"/><path class="e" d="M138.5,24.4c6.1-4.4,5.4,4.6,8.8,4.4l3.6-7.7s-6-20.1-11.3-10.8l-7.9,14C133.4,24,136.3,26.1,138.5,24.4Z"/><path class="e" d="M125,27.5s1.8-13.2-5.7,2.4c1.5.4,3.2.9,4.6-.2a6.9,6.9,0,0,1,2-1.1Z"/></g><rect class="f" x="1.9" y="2.3" width="144" height="144" rx="18.8" ry="18.8"/><path class="e" d="M67.6,104.5V92.4H89.8v55H75.5V104.5Z"/><path class="e" d="M103.1,104.5V92.4h22.2v55H111V104.5Z"/></svg>
