<svg xmlns="http://www.w3.org/2000/svg" xmlns:xlink="http://www.w3.org/1999/xlink" viewBox="0 0 151.3 150.8"><defs><style>.a,.f{fill:none;}.b{fill:url(#a);}.c{clip-path:url(#b);}.d{fill:#fbb040;}.d,.e{fill-rule:evenodd;}.e,.g{fill:#fff;}.f{stroke:#be1e2d;stroke-miterlimit:10;stroke-width:1.14px;}</style><linearGradient id="a" x1="75.22" y1="147.43" x2="75.22" y2="3.43" gradientUnits="userSpaceOnUse"><stop offset="0" stop-color="#be1e2d"/><stop offset="1" stop-color="#f15a29"/></linearGradient><clipPath id="b"><rect class="a" x="3.2" y="3.4" width="144" height="144" rx="18.8" ry="18.8"/></clipPath></defs><title>Aichi Biodiversity Target 10</title><rect class="b" x="3.2" y="3.4" width="144" height="144" rx="18.8" ry="18.8"/><g class="c"><path class="d" d="M113,74.3c-.6,0-.7-.4-1.1-.6s-.1,1.1-.7,1.2-.1,1-.7.9a1.3,1.3,0,0,1-.7,1.1c0-.6-.7-.7-.4-1.4a.3.3,0,0,1-.4-.4c0-.3.4-.1.4-.5s-.5,0-.5-.4a.6.6,0,0,0,.3-.8c.3-.1.7-.1.9-.4s-.4,0-.4-.2.4-.6.7-.8.2-1.6.4-2.5-.7-.5-1.1-.7h-.4c0,.7-.4,1-.7,1.5s-.8-.5-1-.8.5-.4.4-.9.4-.3.7-.2a3.2,3.2,0,0,0-.4-.9c-.6.1-.8-.3-1.2-.4s0,.5-.4.5v-.8c-.9-.6-1.2-3.2-2.6-2.1.3.7,0,1.3,0,1.8s.2.1.3.3,0,1.1-.3,1-.6-.5-.7-1h-.5c-.1-.6-.5-.8-1.1-.9s0,1-.2,1.7.4-.1.7.1.2.3.3.5-.2.2-.1.5a1.9,1.9,0,0,1,.7,1.3H103c0,.6.2.5.1,1s-.3.4-.5.6a1,1,0,0,1-.7-.8h-.9c-.3.8.7,1.9-.4,2.3s.1.2.1.4-.5-.1-.6.2a6.8,6.8,0,0,0,1.6,1.5c-.1,1.4-2,.7-2.6.8s0,.4-.2.4-.1-.4-.5-.4-.5,0-.7.3-.5-.2-.6-.3.3-.1.3-.3.8-1.3.8-2h.5c-.1-.5.3-.5.7-.5s.1-.5.7-.5-.5-2,.2-2.8-.1-.5-.3-1-2.2-.6-2.6-1.7H97c0,.4.2.4.3.7a1.5,1.5,0,0,0-.1,1.7h-.4A2.4,2.4,0,0,1,95,72.8c-.2-.1-.6-1-.7-1.1s-.3.1-.3-.5.4-.7.6-1.1.5.2.6.5.7.3,1.3.3.1-.3.1-.6-1.2-.6-1.2-1.3h.3a1.4,1.4,0,0,1,0-.7c-.7-.4-1.6.3-2,.7s-.3-.4-.7-.2.3.6,0,.7-.2-.5-.3-.8-.7-.1-.6-.6-1.4.4-2,0,.4-.7.5-1.2-1.2.5-2,.3.1,2.3-1.3,2.3-.3.8-.9.8a7.1,7.1,0,0,0-.8,2.9,1,1,0,0,0-.6,1,2.5,2.5,0,0,1,.9,1.8c.3.1.5.1.6.5s-.2,2-.8,2.8-1.8,0-2.6-.3.3,2-.1,3.5a6.9,6.9,0,0,1,1.2,3.4,4.4,4.4,0,0,1,1.8,1.5A8,8,0,0,1,88.8,89c-.3,1.1,1.6,1.9.6,3a2,2,0,0,0-1.5.7c.3.3.7.5.5,1a17.2,17.2,0,0,1,5.9,5.6c.1.3-.2.2-.2.4s.5,2.6.4,3.9,2.5.5,3.5-.2.5.1.5.5a9.9,9.9,0,0,1,3.3-.2.7.7,0,0,0,.1-.8c.2-.3.4-.6.9-.6s.7-.6,1.4-.6-.3-.6-.1-.9.5.3.9.1.2.3.2.6,3-1.5,3.1-3.3c-.4-.1-1.1-.1-.7-.7s-.5.3-.9.4-.1-.2-.1-.5,2.3-2.8,4.7-3c.1-1.7.1-3.4-1.1-4.4.3-.8.4-1.8.9-2.3s.9-.4,1.3-.6-.2-.8-.7-.9a1.7,1.7,0,0,1,1-1.7c-.5-1-.2-2.4-1.2-3.1s-.6.5-.6,1h-.5a2.4,2.4,0,0,1-.9,1.6c0,.5,0,.9-.5.8a1.9,1.9,0,0,1-.4-2.2c-.3,0-.3-.2-.3-.5s.5-.7.7-1,.2.2.5.1,0-.4.6-.4,0-.4,0-.8.9-1.5,1.9-1.9.3-.6,0-1,.4-.3.7-.4S113.3,75.6,113,74.3ZM96.9,77.7c.6.4,1-.2,1.4.3s.3-.1.3-.4a1.6,1.6,0,0,0,1.1-.2c.3.1.3.4.8.3s-1.6-.2-2,.6-1.2.3-2,0S96.7,77.9,96.9,77.7ZM99.3,83c-.1.3-.6.5-.9.7s-.3-1-1-.9-.2-.9.1-1.5h.4c-.1-.3,0-.2,0-.6l.7-.2c-.1-.5.4-.5.3-1h.4c-.1-.3.3-.4.3-.9h.3c.2.7-.4,1.3-.5,2.2S99.6,82.4,99.3,83Zm-8.8-9.9c1.2,0,2.4.4,2.4,1.3a2.3,2.3,0,0,1,.9,1.3l-.2.2c-.7-.2-1.6,0-2-.7a.3.3,0,0,0-.2.3c-.5-.2-.9-.8-1.5-.4S90.5,74.1,90.5,73.2Zm-3.8.7a6.4,6.4,0,0,0,.3-2.3c.2-.1.6-.2.5-.7s.6-.1.7.2.3-.4.5-.6h.2c.1,1.3-.9,2.4-1.3,3.4S87.1,73.5,86.7,73.8ZM89.2,84a.6.6,0,0,0,.5.6c.1.5-.2.5-.2.9a1.7,1.7,0,0,1-1.6-1c-1.1-.1-.8-2.3,0-2.9s-.2-.2-.1-.5l.6-.5c0-.3-.3-.3-.2-.7a6.8,6.8,0,0,1,1.2,2.1,1.6,1.6,0,0,0-1,.4c.1.1.1.4.2.6h.8c-.3.5.4.4.4.9S89.4,84,89.2,84Zm2-4.3c-.1-.3.1-.2.1-.5h.3C91.4,79.4,91.5,79.8,91.1,79.7Zm.5-.7c0-.3.4-.2.5-.4s-1.7-1-2.6-.9-.2-.6-.2-1.5.3.3.7.2.1.3.1.6.5-.2.8-.2.2.3.2.6.5-.2.8-.1.2.2.2.5h.7c.1.3.2.7.6.7S92.3,78.6,91.6,78.9Zm2.2,8.3c.1.2.2.3.2.6-1.6.5-.9-1.1-.5-1.7s.7.3.7.7S94,87.1,93.8,87.2Zm4.6,0c-.4.1-.6-.1-1-.1h-.2c-.1.6.4.6.8.7s.5.6.2,1.1-.7.4-1.3.5a.8.8,0,0,0,.1.6c.5,0,.7-.2,1.1,0s-.7.4-1,.6.2.4.3.7-.2,1.5-.7,1.9.3,1.4-.3,1.6a2.3,2.3,0,0,0-.4-.7,1,1,0,0,0-.8,1.4c-.6-.4-1.2-1.8-.7-2.4s-.3-.1-.3-.3a2.9,2.9,0,0,0,.8-.9c-.1-.2,0-.5-.2-.7s.9-.4,1.2-.7.1-1.3-.5-1.4.3-.1.3-.4-.4,0-.4-.3a3.2,3.2,0,0,0,1-1.7c-.1-.2-.4-.3-.7-.3s-.1-.6-.5-.6.3-.2.2-.5-.4-.4-.6-.7.2-.4.3-.6.8-.1,1.4.3.3.6.3,1h1.1c-.1.6.3.6.5.9S98.1,86.7,98.4,87.2Zm1.3,12.9c-.9-.3-.1-1.3-.7-1.8s.2-.8.7-.8.2-1,.8-.9S100.5,99.5,99.7,100.1ZM106,72.4c0-.3-.3-.2-.2-.6s.7,0,.6-.5.2.8.6,1.2-.4.4-.8.5.2-.2.2-.4-.2.2-.4.3-.3-.1-.5-.2A.7.7,0,0,1,106,72.4Zm-.7,5.3c-.3-.3-.1-.5,0-.8s.6-.1.6-.5.2.2.5.1.2,1.3-.2,2-.8-.1-1.4-.4S105.1,77.8,105.3,77.7Zm-1.9,8.5c.3-.1.6-.5.9-.3s-.6-.1-.6-.4a2.3,2.3,0,0,1,.9-.7c.1-.3-.2-.3-.1-.6s.8-.2.7-.7.3.8.3,1.5-.4-.1-.6-.1-.5,1.1-.7,2.6-.5-.3-1-.2S103.7,86.6,103.4,86.2Zm.1-5a.9.9,0,0,1,.2-1.4c0-.3-.3-.2-.3-.6s.7.1,1.2.1.1.6.6.5-.4.4-.3.8-1,1.1-1.9,1.3S103.4,81.5,103.5,81.2Zm.7,14.4-.8-.2a1.8,1.8,0,0,1,1.8-1.4C105,94.7,104.4,95,104.2,95.6Zm2.9-4.4c-.6,0-.7.4-1,.7s-.8-.3-1.3-.4-1.3.9-1.5.1.8-.6,1.6-.6-.6-.5-.7-.8.2-.7.8-.6-.1-.4,0-.7.5,0,.7.1a6.8,6.8,0,0,1,.4-1.1h.7c.1-.3-.2-.2-.3-.4s.4-.3.5-.6.3,1,.8,1.1A9.3,9.3,0,0,1,107,91.2Z"/><path class="d" d="M157.7,48.6c-1,0-1.1-.7-1.8-.9s-.2,1.9-1.1,2-.1,1.6-1.1,1.5a2.2,2.2,0,0,1-1.2,1.8c0-1-1.2-1.2-.6-2.3a.6.6,0,0,1-.6-.6c0-.4.7-.2.6-.8s-.9,0-.8-.6a.9.9,0,0,0,.5-1.4c.6-.2,1.2-.2,1.5-.6s-.6,0-.6-.3.7-1,1.1-1.4.4-2.6.6-4.1c-1,0-1.1-.8-1.8-1.1s-.3.2-.6.2-.7,1.7-1.1,2.5-1.3-.8-1.7-1.4.8-.7.6-1.5.6-.4,1.2-.3a5.3,5.3,0,0,0-.6-1.5c-1,.2-1.3-.5-2-.6s-.1.9-.6.8V36.5c-1.5-.9-2-5.3-4.3-3.5.5,1.1-.1,2.1,0,2.9s.3.1.5.5,0,1.8-.5,1.7a3.2,3.2,0,0,1-1.1-1.7h-.8c-.1-1-.9-1.3-1.8-1.5s-.1,1.7-.3,2.8.6-.1,1.1.2.3.5.5.8-.3.3-.2.8a3.1,3.1,0,0,1,1.2,2.1h-.6c-.1,1,.4.8.2,1.7s-.5.7-.8,1.1a1.7,1.7,0,0,1-1.1-1.4,5.3,5.3,0,0,1-1.5-.2c-.4,1.4,1.1,3.1-.6,3.8,0,.3.2.3.2.6s-.9-.1-.9.3a11.5,11.5,0,0,0,2.6,2.4c-.1,2.3-3.3,1.2-4.3,1.4s0,.6-.3.6-.2-.7-.8-.6-.8,0-1.2.5-.8-.4-.9-.5.4-.2.5-.5,1.4-2.1,1.4-3.4a1,1,0,0,0,.8,0c-.1-.8.5-.8,1.2-.8s.2-.9,1.2-.8c1.2-1.4-.8-3.2.3-4.6-.8-.1-.2-.9-.5-1.7s-3.7-1-4.3-2.8h-1.1c-.1.6.3.7.5,1.1a2.5,2.5,0,0,0-.2,2.8l-.6.2c.8,2.5-.5,5.1-2.9,5.4-.4-.1-.9-1.7-1.1-1.8s-.6.1-.5-.8.7-1.2.9-1.8.8.3.9.8,1.2.4,2.1.5.2-.6.2-.9-1.9-1-2-2.1h.5a2.3,2.3,0,0,1,0-1.2c-1.1-.6-2.6.4-3.4,1.1s-.5-.6-1.1-.3.5.9,0,1.2-.4-.9-.5-1.4-1.1-.1-.9-.9-2.2.6-3.4,0,.7-1.1.8-2-1.9.8-3.2.5c.2,1.9.2,3.8-2.1,3.8-.4.6-.6,1.4-1.5,1.4a11.7,11.7,0,0,0-1.4,4.7,1.6,1.6,0,0,0-.9,1.7c.7.8,1.5,1.4,1.5,2.9s.9.2.9.8-.4,1.7-.6,2.6l-2.4.3c-.4.6-.2,1.3-.6,1.4a6.9,6.9,0,0,1-2.1-.2,1.6,1.6,0,0,0-.7,1.1h-.4a1.7,1.7,0,0,1-1.4,1c-.1-.4.3-1.1-.4-1.2s.4-.6.6-1.6l-.6-.2a3.1,3.1,0,0,1,1.8-1.7c.2-.4-.1-.4.1-.8s.7,0,.7-.6.6.3,1.1.2.7-1.8.5-2.7-1.8,0-2.2.9l-.7-.2c-.3.7-1,.9-1.5,1.3s-.2-1.4.1-1.7.5-.1.6-.3,0-1.8.8-2.8c-1.7-2.4-3.4,1.7-5.1,2.1l-.4,1.3c-.6-.1-.5-.5-.4-.9s-1.2.4-2.1,0a5.4,5.4,0,0,0-1,1.3c.6.1.6.5,1.1.6s0,1,.1,1.6-1,1.2-2,.8-.7-1.5-.3-2.7-.4-.2-.5-.3-1.2.8-2.1.5c-.2,1.5.5,3.2-.6,4.1s.3,1.1.6,1.6-.5-.1-.7.1.8.7,1.3,1a.9.9,0,0,0,0,1.5c-.1.6-.6.2-.9.4s.5.5.4.9a.6.6,0,0,1-.8.4c.2,1.2-1,1.1-1.3,2a2.2,2.2,0,0,1-.6-2.1c-1-.2-.7-1-.6-1.8s-.7-1.3-.4-2.2-1.1.7-2,.3c-1.2,1.8-.5,2.5-.7,4.3.5.2.5.7,1,.9s.2,1.2-.5,1.6c1.3,1,.7,2.9,2,3.8s-.5.8-.4,1.3.8.5.7.9.4-.1.8.1-.2,1.6.5,1.9-.3.7-.7.6-.7,3-1.7,3.3-.6-.8-.3-1.5a4,4,0,0,1-.7-2.9,1,1,0,0,0-.7-.4c.3-.9-.5-1.1-.4-1.9-1.9.5-2.1,3-3.4,4.3.9.7,1.1,1.8.8,3.1s-1.2.4-1.5,1.2.7,1.3,1.7,1.6.2,2.7.4,4.1l-.8.4h-.4a.4.4,0,0,0,0,.3l-.2.2v-.5c-.3-.1-.7-.1-.6-.6s-1.4.4-2,0,.4-.7.5-1.2-1.2.5-2,.3.1,2.3-1.3,2.3-.3.8-.9.8a7.1,7.1,0,0,0-.8,2.9,1,1,0,0,0-.6,1,2.5,2.5,0,0,1,.9,1.8c.3.1.5.1.6.5s-.2,2-.8,2.8-1.8,0-2.6-.3.2,2-.1,3.4c-.5-.9-1.4-1.6-1.4-2.7s-.8-.8-1.6-.6-.2-.8-.1-1.4c-1.5-1-1.6-1.9-3.8-2.1-.3.9-1.1.8-1.5,1.4s1.7.8,1.5,1.7,1.5.7,1.1,1.5a2.2,2.2,0,0,1,1.3,1.8c-.9-.3-1.6.7-2.4-.2a.6.6,0,0,1-.8.4c-.4-.2.1-.7-.5-.8s-.3.8-.8.5a.9.9,0,0,0-1.1-.9c.1-.6.2-1.2,0-1.7s-.2.5-.5.5-.7-1-.9-1.5-2.3-1.3-3.7-2c-.3.9-1.2.8-1.6,1.3s.1.3-.1.6,1.3,1.2,1.9,1.9-1.2.9-1.9,1.1-.4-1-1.2-1.1-.2-.7.1-1.2a5.2,5.2,0,0,0-1.7,0c-.2,1-.9,1-1.3,1.6s.8.4.5.8l-1.3-.5c-1.4,1.1-5.7,0-4.8,2.8,1.3-.1,1.9.8,2.7,1s.2-.3.6-.3,1.7.6,1.4,1a3.2,3.2,0,0,1-2,.4l-.3.7c-1-.3-1.6.4-2.1,1.2s1.5.6,2.5,1.3.1-.6.5-.9.6-.1.9-.2.2.4.7.4a3.1,3.1,0,0,1,2.4-.4l-.2.6c.9.4.9-.1,1.6.4s.5.7.7,1.1a1.7,1.7,0,0,1-1.7.5,5.4,5.4,0,0,1-.7,1.4c1.1.9,3.3.1,3.4,1.9.3.1.4,0,.6.1s-.4.8,0,1a11.5,11.5,0,0,0,3.2-1.6,1.3,1.3,0,0,1,.9,1.2,6.9,6.9,0,0,0-.5,2l-.3.6a.9.9,0,0,0-.4.9l.4.5c-.2.2-.7-.1-.7.4s-.3.8,0,1.3-.6.6-.8.7,0-.5-.3-.6c-1.9.4-1.5-2-2.7-2.5s.2-.2.3-.7-.6-.7-.3-1.4-.7-.5-.3-1.4-3.3-.4-4.2-1.9c-.4.8-.9-.1-1.7-.2s-2.2,3.1-4.1,3.1l-.4,1c.5.3.8,0,1.2-.1a2.5,2.5,0,0,0,2.5,1.1.9.9,0,0,0-.1.6c2.6.1,4.6,2.3,4,4.6-.2.3-1.9.3-2.1.4s-.1.6-.9.2-.9-1.1-1.4-1.5.6-.7,1-.6.8-1,1.2-1.8-.5-.3-.8-.5-1.6,1.4-2.7,1.1l.2-.4a2.3,2.3,0,0,1-1.1-.4c-.9.8-.5,2.5-.2,3.5s-.8.3-.7.9,1-.1,1.1.4-.9,0-1.5-.1-.5,1-1.2.5-.2,2.3-1.2,3.2-.8-1.1-1.6-1.4.1,2.1-.7,3.2c1.8.5,3.6,1.1,2.8,3.3.4.6,1.1,1,.8,1.9a11.8,11.8,0,0,0,4,3,1.6,1.6,0,0,0,1.3,1.5c1-.4,1.9-.9,3.3-.4s.5-.7,1-.6,3,1.5,3.8,2.9c-1.1,1.3-1.1,2.7-1.9,3.9s3.1.8,5.2,2.1a4,4,0,0,1,.2,2,6.9,6.9,0,0,1,1.2,3.3,4.4,4.4,0,0,1,1.8,1.5,8,8,0,0,1,2.9,1.7c-.3,1.1,1.6,1.9.6,3a2,2,0,0,0-1.5.7c.3.3.7.5.5,1a17.2,17.2,0,0,1,5.9,5.6c.1.3-.2.2-.2.4s.5,2.6.4,3.9,2.5.5,3.5-.2.5.1.5.5a9.9,9.9,0,0,1,3.3-.2.7.7,0,0,0,.1-.8c.2-.3.4-.6.9-.6s.7-.6,1.4-.6-.3-.6-.1-.9.5.3.9.1.2.3.2.6,3-1.5,3.1-3.3c-.4-.1-1.1-.1-.7-.7s-.5.3-.9.4-.1-.2-.1-.5,2.3-2.8,4.7-3c.1-1.7.1-3.4-1.1-4.4.3-.8.4-1.8.9-2.3a1.3,1.3,0,0,0,.8-.3l1.1,8.2,59.8-5.2.2-62.9-2.8-.5a3.2,3.2,0,0,0,.1-.8c-.6-.2-1.8-.1-1.2-1.1s-.9.5-1.5.6-.2-.4-.2-.8c2.2-1.6,3.7-4.6,7.7-4.9.1-2.8.2-5.6-1.8-7.2.5-1.3.6-3,1.5-3.8s1.5-.6,2.1-1.1-.3-1.4-1.1-1.5.6-2.4,1.7-2.8c-.9-1.6-.4-4-2-5.1-.1.7-1,.8-.9,1.7a1,1,0,0,0-.8.2,4,4,0,0,1-1.5,2.6c0,.8.1,1.5-.8,1.4s-1.4-2.8-.6-3.7-.4-.4-.5-.8.8-1.2,1.1-1.7.3.3.8.2,0-.7.9-.6-.1-.7,0-1.4,1.6-2.5,3.1-3.1c-.5-.6.4-1,0-1.7s.7-.5,1.2-.6C157.5,51.2,158.3,50.7,157.7,48.6ZM61.5,101.2c-.4,0-.2-.4-.5-.5s.2.5.2.7-.4.4-.6.6a1.1,1.1,0,0,1-.2-1.1c-.4-.2-.5.3-1,0s.3-1-.4-1.1,1.3.1,2.2-.2C60.4,100.3,61.7,100.6,61.5,101.2ZM51.5,131.7a10.5,10.5,0,0,0-3.4-1.8c-.1-.5.1-1-.7-1.1s.2-1,.7-1-.4-.7-.6-1,.1-.2.3-.2c2,.6,3.1,2.7,4.6,4C52,131.1,51.3,130.8,51.5,131.7Zm94.8-86.1c.1-.5-.5-.3-.3-.9s1.1,0,.9-.8.4,1.3.9,2-.7.7-1.4.8.3-.3.3-.6-.4.4-.6.5-.5-.2-.8-.3A1.1,1.1,0,0,1,146.3,45.6ZM145,54.3c-.4-.5-.2-.8,0-1.4s1-.2.9-.8.3.3.8.2c0,1.4.3,2.1-.3,3.2-.7-.8-1.4-.1-2.3-.6S144.7,54.5,145,54.3ZM142,68.2c.4-.2,1.1-.8,1.5-.5s-.9-.1-.9-.6a3.8,3.8,0,0,1,1.5-1.2c.1-.5-.3-.5-.2-.9s1.4-.3,1.2-1.2.4,1.4.5,2.5-.7-.2-1.1-.2c-.2,1.8-.8,1.9-1.2,4.3-.7.4-.8-.5-1.7-.3S142.5,68.9,142,68.2Zm.2-8.3a1.5,1.5,0,0,1,.3-2.3c0-.5-.5-.4-.5-.9s1.1.1,2,.2.1,1,.9.8-.6.6-.5,1.4-1.6,1.9-3.1,2.1S142,60.5,142.1,60ZM88.8,137.1c0-.2.3-.2.3-.3l2.1-.8v.7H91c-.1.4-.1,1-.7.9a1.3,1.3,0,0,1-.7,1.1c0-.6-.7-.7-.4-1.4A.3.3,0,0,1,88.8,137.1Zm-3,3.3c-.4-.5-.8-.1-1.4-.4s.4-.3.6-.4a.5.5,0,0,1-.1-.4l1.2-.8C86,139.2,86.2,139.7,85.9,140.3ZM83.2,148c.3-.1.6-.5.9-.3s-.6-.1-.6-.4a2.3,2.3,0,0,1,.9-.7c.1-.3-.2-.3-.1-.6s.8-.1.7-.7.3.8.3,1.5-.4-.1-.6-.1-.5,1.1-.7,2.6-.5-.3-1-.2S83.5,148.4,83.2,148Zm-4.1-3.2c-.1.3-.6.5-.9.7s-.3-1-1-.9-.2-.9.1-1.5h.4V143h1a.7.7,0,0,0,.1-.8,1.6,1.6,0,0,1,.6-.5,3.6,3.6,0,0,0-.3,1C78.9,143.5,79.3,144.2,79.1,144.9Zm-5.7-33.8c-.7-.2-.4-.8-.9-1.1a1.5,1.5,0,0,1-1.3-.1l.2-.4c.2.1.5.2.6.5s.7.3,1.3.3A1.9,1.9,0,0,1,73.4,111.1Zm9.1-15.8c-.1-.3.1-.2.1-.5h.3C82.8,95,82.9,95.4,82.5,95.3Zm24.8-24.5h.4c-.3.8.3,1.1,0,1.6l.6.2c-.4.8.3,1,0,1.7s.5.5.9.6,0,.5-.3.9l.6.2c.2,1.1-.6,1.2-.6,2.4-1.1-.4-1.4.6-2.1,1s-1-1-1.1-1.6.9-2.1,1.2-3.3S106.7,71.8,107.3,70.8Zm1.9-.1c-.3-1.4-2.6-.7-2.8-1.8.7.4,1,0,1.5,0a2.6,2.6,0,0,0,1.7.8c-.2.4-.1.6.3.7s1.3.6,2.3.2.6.5.3,1.1S110.3,70.7,109.2,70.8Zm23.6-11.4,1.1-.3c-.1-.8.6-.8.5-1.7h.6c-.1-.6.5-.7.5-1.5h.5c.3,1.1-.7,2.2-.8,3.7s.6,2.5.2,3.5-1,.7-1.5,1.2-.5-1.6-1.7-1.5c.4-1.1-.3-1.4.2-2.5h.6C132.6,59.8,132.8,59.9,132.8,59.4Zm.9,10.6h-1a1.8,1.8,0,0,0-.5-.9,11.2,11.2,0,0,0,.3-2.1h.8c-.2,1,.5,1.1.8,1.5S133.2,69.1,133.7,69.9Zm-15.6,4.3a1.9,1.9,0,0,1-.9-.8.7.7,0,0,0,.7-.1A2.1,2.1,0,0,0,118.1,74.2Zm12.1-9.3c0,.3.3.5.6.7a7.3,7.3,0,0,0-.6,2.8h-.6c.1-.6-.2-1-.8-.9s.4-.3.3-.8-.7-.6-.9-1.1.2-.7.5-.9S129.7,64.9,130.2,64.9Zm-1.1,13.5a6.2,6.2,0,0,1-.1-2.9,3.3,3.3,0,0,0,1-.6c-.6-.3-.3-1.2-.4-1.8h.6a3.8,3.8,0,0,1,2.2-2.3h.7c0,.8.8,1,.3,1.8s-1.1.6-2.1.8a1.3,1.3,0,0,0,.2.9c.8,0,1.1-.2,1.8,0s-1.2.6-1.7.9.3.7.5,1.1a21.6,21.6,0,0,0-.6,2.3A6.1,6.1,0,0,0,129.1,78.4Zm-7.4-20.9c-.1-.4.2-.4.2-.8h.5C122.2,57.1,122.4,57.7,121.8,57.5Zm-4.5,1.4c-.1-.3-.4-.4-.3-.9l.5.8Zm-.9,1.7c0-.3-.1-.3-.2-.5s1.3-.5,2,.1l.2-.2a4.8,4.8,0,0,1,.6,1.5,2.6,2.6,0,0,0-1.7.6c.2.2.1.7.3.9h.8c-.3.4-.8.8-1,.8a3.4,3.4,0,0,1-1.9-2.1A2.6,2.6,0,0,1,116.4,60.6Zm-3,24.9c.4,1.2.7,3.9-1.5,2.4.1-.5.4-.5.6-.8s-.8-.3-.6-.8S112.7,85.5,113.4,85.5ZM78.8,99.3v.3a1.4,1.4,0,0,1-.1-.5Zm9.1,29.4a2,2,0,0,0,0,.8l-.9-.4a.6.6,0,0,1-.1.4h0a12.8,12.8,0,0,1,.7-2c.9.3,1.7.3,1.7,1.1A3.8,3.8,0,0,0,87.9,128.7Zm-10.9,9c0-.2.3-.1.3-.3h0v.3ZM97,99.5a7.5,7.5,0,0,1,0,1.1h-.3ZM73.5,123.7c-.3.5.2.6.3,1l-.9.3c-.5-.1-.5-.5-.7-.8a.9.9,0,0,0,.6-.6A.8.8,0,0,1,73.5,123.7Zm6.7,1.9c.3-.1.6-.5.9-.3s-.6-.1-.6-.4a2.5,2.5,0,0,1,.8-.7,1.2,1.2,0,0,1,0,.7h.2a14.7,14.7,0,0,0-.5,1.5l-.9-.3A.6.6,0,0,0,80.2,125.6Zm-5.3-.6h0c-.3,0-.3-.2-.3-.3h.4A.7.7,0,0,0,74.9,125Zm-.5,3.1.5-.5c.1.2.3.4.1.8h-.5Zm.8-5.7a11.1,11.1,0,0,1,.6-1.7h.2a3.4,3.4,0,0,1,.1,1.7c-.1.3-.6.5-.9.7s-.3-.6-.5-.8Zm8.1,6.3h-.5a.8.8,0,0,0-.3-.6h0l.2-.6h.7c.1-.3-.2-.2-.3-.4s.4-.3.5-.6.4.6.6.9a10.1,10.1,0,0,0-.1,1.1c0,.1.2.1.3.3v.7l-.3-.4h-.5Zm4.9-25.4a1.3,1.3,0,0,0,1.1.3,2.3,2.3,0,0,0,.2.6l-.3.3-1.2-.9Zm-.2,5.5c0,.6.3,1.3-.3,1.4a1.7,1.7,0,0,0-.3-.6l.2-.7c-.6,0-.7-.5-1.1-.7h-.4a1.8,1.8,0,0,1-.4,1.1,1.2,1.2,0,0,1,.2-1c0-.2-.3-.1-.3-.3l.5-.4A8.2,8.2,0,0,1,88.1,108.8Zm-19.4,9.4v-.2h.2v-.4a.9.9,0,0,1,0-.2c-.8-.2-.5-.9-1.4-1v-.2h.3c0,.3.2.3.2.6s.5-.2.8-.1.2.2.2.5h.7c.1.3.2.7.6.7S69.3,118.1,68.7,118.2Zm20.9,12.6h0Zm2.3-37.5-.3.2v-.2Zm-9.4,18.9h0Zm-15.6,2.2h0Zm-.2,19.6,1,.8-.5.9c-.4,0-.4-.5-.8-.2A13.8,13.8,0,0,0,66.7,134.1Zm21.2-2.7v-.3a.6.6,0,0,0,0-.5l.6-.2a1.9,1.9,0,0,0,1.1.4h-.3v.2Zm8-48.9h0ZM79,103.7l-.8-.5Zm.7,5.1c-.3.1-.4.6-.5,1l.8.5h0c-.4,0-.3.4-.5.6a1,1,0,0,1-.7-.8h-.1c-.3-.2-.5.1-.8-.1s.3-1.4-.7-1.6C77.9,107.7,78.6,108.5,79.6,108.8Zm-17,18.5c.3.2.9.3.5.8s-.3-.3-.7-.4Zm68.7-73c.9.7,1.7-.4,2.3.5s.5-.2.5-.6a2.6,2.6,0,0,0,1.8-.3c.4.2.6.7,1.4.5s-2.6-.3-3.2.9c-1-.4-2,.4-3.4,0S131,54.5,131.2,54.3Zm-10.6-7.5c2-.1,4,.7,4,2.1a3.7,3.7,0,0,1,1.5,2.1c-.1.1-.3.1-.3.3s-2.7,0-3.4-1.1a.4.4,0,0,0-.3.5c-.9-.3-1.5-1.3-2.5-.6C119.8,48.5,120.8,48.4,120.7,46.8Zm-.8,5.2c-.1.5.2.6.2.9s.7-.4,1.4-.3.3.5.3.9.8-.3,1.4-.2.3.4.3.8a2.9,2.9,0,0,1,1.2.2c.1.6.3,1.1.9,1.1s-1.9.5-3.1.9.6-.3.8-.6c-.4-2.1-2.9-1.6-4.3-1.5.1-1-.3-1.1-.3-2.5S119.2,52.2,119.9,52Zm-5.1-8c.4-.2,1-.3.8-1.1s1-.2,1.2.3.5-.6.8-.9.3,0,.3.2c.1,2.1-1.4,3.9-2.1,5.7-.7,0-.6-.8-1.4-.3A10.6,10.6,0,0,0,114.9,44Zm-6.8,17.9c.1-.2.2-.3.3-.5a4,4,0,0,1-.1.6Zm.3-.6c-.7-.6-.5-1.2-.2-1.8A6.3,6.3,0,0,1,108.4,61.4Zm-2.7,2.7a12.8,12.8,0,0,0,2.9-1.4,10.9,10.9,0,0,1,1.6,4.3c-.3,0-.4.5-.7.4s.1-.5-.1-.7S105.1,66.3,105.6,64.1Zm-1,23.7c-.3-1,.6-.9.8-1.7s1.5.3,1.6-.6l-.2-.2c-.6-.2-1,0-1.7-.3s.3-.9.2-1.6,1.1-.2,1.2-1.2a11.1,11.1,0,0,1,1.8.5c.2-.7,1.2-.6.9-1.5s1.3.8,2.3.2.4.5.2,1-.8.5-1.2.8.3.4.1.8-.9,0-1,.7-1-.3-1.3.1a5.2,5.2,0,0,0,.8,3.1c-.1.4-.6,0-.7.3s.5.3.3.7-.4,1.8-1.4,2a2.9,2.9,0,0,0,.7.8l-3.1,1.4a4.7,4.7,0,0,0,0-1.2c.3-.3.7-.2.8-.9s-1.5-.6-1.3-1.4,1,.3,1.8.5.3-.5.4-.8S106.1,87.7,104.7,87.8Zm-4.2-17.1a1.5,1.5,0,0,1-.4,2.3c0,.6.6.7.4,1.4s-1.1-2.6-2.3-2.9c.4-.7-.2-.9,0-1.5s.8-.1,1.1-.5,1.5-.3,1.9.4S100.6,70.2,100.4,70.7Zm-.2-14.5c-.4.7.6.6.7,1s-.5.3-.6.8a1.1,1.1,0,0,1,.7.9c-.3,0-.5.2-.8.1s-.2-1-.5-.6.3.3.1.7-.1-1.4-1.1-1.1C99.4,57.3,99.3,56.4,100.2,56.2Zm-2.3,8.1c.4.2.4-.1.8.1s0,.9.7,1,.1,1-.4,1.3.7.4.7.9-1.5-.6-2.4-.1C97,66.2,97.5,65.6,97.9,64.3ZM96,75.7c-.4.9.4,1.1.8,1.5s-.4.4-.4.8a3.8,3.8,0,0,1,1.1,1.6c-.1.5-.9-.2-1.1.3s1,.6,1.3.9a.9.9,0,0,0-.4.6c-.4-.8-.8-1.5-1.5-1.2a5.8,5.8,0,0,1,.1-2.2c-.4-.1-.8-.3-1.1-.2S95.1,75.8,96,75.7Zm-3.9,4.9c.1.4.6.6.5,1.1s-.6-.1-.6.4l1,.3a11.4,11.4,0,0,1,0,1.9c.3-.1.7,0,1.1.2s-.1.5-.3,1a.8.8,0,0,1,.6.2c.1.3.2.3.1.7s-.3.4-.5.6a1,1,0,0,1-.7-.8h-.9c-.3.8.7,1.9-.4,2.3h0a2.1,2.1,0,0,1-1.1-.1h0c0-.3.2-.4.7-.3s-.5-2,.2-2.8-.1-.5-.3-1l-1.8-.8a5.6,5.6,0,0,1,.4-1.7C91.2,82,91.3,80.6,92.1,80.6ZM81.8,88.8h.2l-.4,1.4a7.1,7.1,0,0,1,1.9,1.1,1,1,0,0,1-.6-.4.3.3,0,0,0-.2.3c-.5-.2-.9-.8-1.5-.4S81.9,89.8,81.8,88.8ZM81.4,92c-.1.3.1.3.1.6s.5-.2.8-.2.2.3.2.6.5-.2.8-.1.2.2.2.5h.7c.1.3.2.7.6.7s-1.1.3-1.9.6.4-.2.5-.4-1.7-1-2.6-.9-.2-.6-.2-1.5S81,92.1,81.4,92Zm-.6,5.7L79,97.4l.2-.2c0-.2-.2-.2-.1-.5l.6-.5c0-.3-.3-.3-.2-.7A7.6,7.6,0,0,1,80.8,97.6ZM78.3,87.1c.2-.1.6-.2.5-.7s.6-.1.7.2.3-.4.5-.6h.2c.1,1.3-.9,2.4-1.3,3.4s-.4-.5-.8-.2A6.4,6.4,0,0,0,78.3,87.1Zm-1,15.8.5.2c-.2.2-.5.1-.8,0a.7.7,0,0,0-.1-.5ZM75,99.4h-.3a2,2,0,0,0-.1-.6Zm-2,10.1a1.3,1.3,0,0,1-.8-1.1h.3A7.9,7.9,0,0,0,73,109.5Zm-1.7-2.9c.5.2.4.8,1.1.9v.2c-.7-.3-1.5.3-2,.7s-.3-.4-.7-.2.3.6,0,.7a1,1,0,0,1-.2-.6,4.5,4.5,0,0,0,.7-1C70.7,107.1,71.3,107.4,71.3,106.5ZM67,102.9c1.3.5,2.1.4,2.9,1.4-1,.4-.6,1.3-1.4,1.9s-.2-.7-.3-1.1-.8-.1-1.3-.5.2-1-.4-1.1S66.9,103.4,67,102.9ZM55.5,127.4c-1.5-.7-1.3-1.6-2.8-2,.6-1.9,2.1-3.5,3.4-3a3.8,3.8,0,0,1,2.5-.7.5.5,0,0,0,.2.4c-.7.9-.9,2.5-2.2,2.8a.4.4,0,0,0,.3.4C56.4,126.1,55.2,126.3,55.5,127.4Zm3.5,2.1c-.9-.5-1.1-.1-2.4-.6.2-.4.6-.3.7-1s.6.1.9.2-.1-.8.2-1.4.6-.2,1,0,0-.8.3-1.3.5-.2.8,0a2.2,2.2,0,0,1,.4-.8,4.5,4.5,0,0,1,.1.6,3.5,3.5,0,0,1,1.3,1,3.8,3.8,0,0,0-.1.8c-.5-.1-.1-.7-.3-.9C59.8,125.7,59.4,128.2,59,129.5Zm2.9,3.2c1-.2,1.8-.6,2.9-.7s.7.5.4,1l.5.3a6.6,6.6,0,0,0-.3,1.6l-.4.4a2.6,2.6,0,0,1-.8-1.2c-.3-.2-.4.1-.8-.1a12.2,12.2,0,0,1-.3-1.3C62.5,132.7,62.4,133.1,61.9,132.8Zm7.1,13a.6.6,0,0,0,.5.6c.1.5-.2.6-.2.9a1.7,1.7,0,0,1-1.6-1c-1.1-.1-.8-2.3,0-2.9s-.2-.2-.1-.5l.7-.5h.2a3.9,3.9,0,0,1,.8,1.5,1.6,1.6,0,0,0-1,.4c.1.1.1.4.2.6h.8c-.3.5.4.4.4.9S69.1,145.8,68.9,145.8Zm2-4.3c-.1-.3.1-.2.1-.5h.3C71.2,141.2,71.3,141.6,70.9,141.5Zm2.7,7.5c.1.2.2.3.2.6-1.6.5-.9-1.1-.5-1.7s.7.3.7.7S73.7,148.9,73.6,149.1Zm4.6,0c-.4.1-.6-.1-1-.1h-.2c-.1.6.4.6.8.7s.5.6.2,1.1-.7.4-1.3.5a.8.8,0,0,0,.1.6c.5,0,.7-.1,1.1,0s-.7.4-1,.6.2.5.3.7-.2,1.5-.7,1.9.3,1.4-.3,1.6a2.3,2.3,0,0,0-.4-.7,1,1,0,0,0-.8,1.4c-.6-.4-1.2-1.8-.7-2.4s-.3-.1-.3-.3a2.8,2.8,0,0,0,.8-.9c-.1-.2,0-.5-.2-.7s.9-.4,1.2-.7.1-1.3-.5-1.4.3-.1.3-.4-.4,0-.4-.3a3.2,3.2,0,0,0,1-1.7c-.1-.2-.4-.3-.7-.3s-.1-.6-.5-.6.3-.2.2-.5-.4-.4-.6-.7.2-.4.3-.6.8-.1,1.4.3.3.6.3,1h1.1c-.1.6.3.6.5.9S77.8,148.6,78.1,149.1ZM79.4,162c-.9-.3-.1-1.3-.7-1.8s.2-.8.7-.8.2-1,.8-.9S80.2,161.3,79.4,162Zm3.8-19a.9.9,0,0,1,.2-1.4c0-.3-.3-.2-.3-.6s.7.1,1.2.1.1.6.6.5-.4.4-.3.8-1,1.1-1.9,1.3S83.2,143.3,83.3,143Zm.7,14.4-.8-.2a1.8,1.8,0,0,1,1.8-1.4C84.7,156.6,84.2,156.8,83.9,157.4Zm2.9-4.4c-.6,0-.7.5-1,.7s-.8-.3-1.3-.4-1.3.9-1.5.1.8-.6,1.6-.6-.6-.5-.7-.8.2-.7.8-.6-.1-.4,0-.7.5,0,.7.1a7.2,7.2,0,0,1,.4-1.1h.7c.1-.3-.2-.2-.3-.4s.4-.3.5-.6.3,1,.8,1.1A9.2,9.2,0,0,1,86.8,153Zm3.8-8.7h-.5a2.4,2.4,0,0,1-.9,1.6c0,.5,0,.9-.5.8a1.9,1.9,0,0,1-.4-2.2c-.3,0-.3-.2-.3-.5s.5-.7.7-1,.2.2.5.1,0-.4.6-.4,0-.4,0-.8.9-1,1.3-1.5v3.1C90.8,143.8,90.6,143.9,90.6,144.3Zm51.2-60.9a3,3,0,0,1,2.9-2.3c-.2,1.2-1.1,1.7-1.5,2.6A3.6,3.6,0,0,1,141.8,83.4Zm6.1-6.9c-.9,0-1.1.7-1.7,1.1s-1.4-.5-2.1-.6-2.1,1.5-2.4.2,1.4-1,2.6-.9-.9-.8-1.2-1.4.4-1.1,1.4-.9-.2-.6,0-1.1.9-.1,1.1.2a11.5,11.5,0,0,1,.6-1.8h1.1c.1-.5-.4-.3-.5-.6s.6-.5.8-.9.5,1.6,1.4,1.8S148.3,75,147.9,76.5Z"/></g><path class="d" d="M109.5,15c1.8-.7,3.5,2.8,5.7,2.6,2.1,2.4,1.2,5.9,2.8,6.8,1.5-1.3,1.1-4.3,3-4.8.5,4.3-4.4,8.4,0,12-2.8,1.1-.7,4.2-.9,6.4,2.5-.9,2.7-4.3,6.3-5.3.6.9-.6,1-.4,1.8-3.1,1.5-2.9,4.5-4.4,6.7a16,16,0,0,0,5.1-4.8c.7,2.8-1.8,4.2-3.3,6,.6.2,1.6-.4,2.2-.1a2.9,2.9,0,0,1-1.8,2.9c.3.7,1,.7,1.5,1,1.2-1.8,4.8-1.9,6.4-3.7-.5-1.6-1.3-3.8.9-5,.2,1.7-.8,2.9.4,5-.8,1.1-2.5,1.8-2.5,3.2s2,1.6,1.7,2.9-2-1.4-2.9-2.4-2.5,1.2-3.2,2.1a12.5,12.5,0,0,1-4.9-1.8c-2.9,1.5,1.1,3.6,1.3,4.4-3.3.9-4.2,3.9-4.7,6.6.9-.2,1.2,1.1,2.1,1.1,4.1-1.8,2-6.2,4.4-8.6,1,1.6.2,3.9.5,5.8,1-.3.2-1.3.9-1.7s2.5-.2,3.2-1.6.7.4,1,1c1.8-.8,1.5-2.5,3.6-3.1-.1,1-.9,1.7-1.1,2.6s1.1.2,1.3,1.1-1.1,0-1.6.1c-.2,1.9-1.5,3.3-1.7,5.1,1.8.5,3.4-.3,4.9-1.5,1,2.9-4.4,2.2-5.2,4s1.2.9,1.4,2.1c-1.3.6-1.8-.7-2.9-.4a2.6,2.6,0,0,0-1.7,1.2c-4.2.2-6.3,6.8-11.2,4.6,1,2.6,5.4,1.4,7.5,2.9,1-.2,0-1.3,1-1.5s1.3.1,2.1-.3a6.7,6.7,0,0,1-.3,3.4c1.5.3,2.6-1.1,4-.3-2.5,2.9-7.9,4.2-12.3,5.3-1.7.4-3.7.1-5.2.7s-2,2-3.3,2.7-1.1.3-1.4.6-1,3.5-2.5,4.6-1.8.4-2.7.8-3.4,2.5-6.7,3c-.3-1,1-1.3.7-2.2-2.5.7-6.1,1.4-8.6.5.5-.9,1.5-1,3-1.5l-.3-.7c-.8-.5-1.1.8-2.1.9s1.3-.8.4-1.8c1.9.3,3.1-1.1,4.4-2.1l-.7-1.6c1.6.6,6.1,0,6.1-2.5-2.5-2-5.1-3.9-8.4-3.1s-6.5,3.3-10.3,4.2c-.9-3-3.9-.2-5.4-.5s1-.5.3-1.2-1.7.3-2-.8,1.6-.9,2.5-1.9c2,2.3,5,2.2,8.7.5-1.2-1.5-2.9-1.8-4.4-2.6a2.6,2.6,0,0,1-2.2.6c-.7-.9.3-1.2-.3-2.1s-3.3.3-4.6,1.6c-.4-.7-.3-1.2-.4-1.7-4.5,1.6-7-1.9-9.8-4.5.7-.1.5-.6,1.1-.7,2.1,2.3,4.5,3.7,7.6,3.7.7-.5-.3-1.7.2-2.3s.9.7,1.1,1.4c5.1-.1,9.4,1.8,13.6,3.7l1.6-.7c-.4-1.9-2.1-.9-3.1-1.5,1.1-2.3,3.4.4,5.4-.8-2.2-2.2-5.4-.4-7.7-2.8-.8.1-.8.6-1.3.8-1.7-4.3-5.7-7.2-9.1-8.9a8.7,8.7,0,0,0,4.4-2.6c-1.5-.7-1.2-2.1-1.5-3.7C72,54,70.1,58,67.2,57.5S65,55,63.1,54.3s-3.8,1.6-5.2,1.3c.2-1.4,1.5-1.8,2.9-2.3-.5-.6-.6-4.4-2.8-3.5-.2-.6.8-.7.6-1.3s-1.8-.2-2.4-1.2a1.6,1.6,0,0,0,1.1-.7c-.1-2-2.1-1.5-2-2.8,6,1.2,8.5,15.5,16.1,9.8-.6-1.8-2-1.6-3.4-1.6s1.1-.3.4-1c1.4-.5,2.3.5,3.6.2a5.3,5.3,0,0,1,.5-2.1c-1.4-.7-2.5-1.5-2.7-3.3-1.8-.5-4-2-4.7-3.5,2.6-.3,4.2,2.1,6.4,2.9,1.8-3.3-2.2-5.3-3.2-7.7.4-.1.3-.4.6-.5,3.2.8,4.5,5.7,5.5,9.5,1.3-.2,1.2-1.1,1.8-1.6s1.2.1,1.5,1,.3-.5.5-.2c1.8-2.1-.5-5.9-.6-8.8,2.8.5,2,4.7,3.9,6.9,1.2-2.1-.3-8.1-3.3-9.3,1.9-1.5.1-4.6,1.5-6.4.3,4.4,1.9,6.5,3.9,10.7,0-2.4-1.2-5.3.7-6.9.6,1.7-.6,5.9,2.3,5.6.4,1.3-1.3,1.8-1.2,3s3.4,5,2.3,7c.5,1,1.5,1,2,2.2a2.5,2.5,0,0,0,1.1-1.3c-.4-1.2-1.5-.7-1.9-2s.6-.2,1.1-.7A4.8,4.8,0,0,1,88.9,41c1.2.1,1.3,2.8,2.4,3.1.6-4.3-5.2-9-3.6-13.6-.4-1.4-1.7-.5-2.3-1.5s.1-.4,0-.6,1.7.1,2.6-.3-.6-2.5.7-3a4,4,0,0,1,.7,3.8c1.4.4,1.7-1.2,2.6-1.6s.8,1.1,1.5,1,0-1,.6-1.3c2.2-.1,2.1,5.3,5.1,3.1,1.9,6.4,5.2,11.8,5.6,17.7.5.6.6-.6,1.4-.6a3,3,0,0,0,.4,3.7c.7-.1.5-.6,1.1-.7s-.7-.8-.9-1.5.2-.8.7-1.1c-1.7-3.1-.8-4.6.5-6.8s-.9-.9-1.4-1.4a8.3,8.3,0,0,0-.9-6.8c1.3-.4,2-1.5,2.8-2.5s.5.7,1,.4-.3-2.3-.7-3-1.2.5-1.6.1.5-1.1.7-1.7a10.9,10.9,0,0,0-1.8-1.7c-.1-.4.7-.4.5-.8s-.8-1.2-1.7-.7c2-2.5,3.6,3.4,5.9,3.1a22.4,22.4,0,0,1,.5,9.1c1,.4.6-.9,1.4-1.1a1.7,1.7,0,0,1,.7,1.1c.8-.2.7-.9,1.4-.6s-.9,1.6-.9,2.5.8-1.3,1.8-1-.1.9,0,1.4,1.4-.5,1.5-.9-.6-1-.9-1.5.9.1,1.5-.3c-1.1-1.5-1.4-3.8-.4-5-1.5-.6-2-3.5-1.3-5.2-.8.1-1.3-.6-1.7-1.5,1.3-1.4-.1-4.7-2.5-3.4C112.3,17.3,109.6,16.3,109.5,15ZM93.8,40.3c0-.8,0-1.4,1.1-1.3.2-3.1-.8-12.1-5.3-7.7.1,1-.3,1.7.4,2.9s.5-.4,1.4-.6.7.4.9,1-.9,2.1,0,2.7-.1-2.1,1.4-2.5C95.1,37,92.3,39.4,93.8,40.3Zm2.7-5.5c.4.5,1.2-.1,1.6.5s-.8,1.6-.5,2.7.7-.5,1.6-.7c-.9-1.8-.8-4.2-3-4.5C96.1,33.3,96.5,34.2,96.5,34.8Zm12.3.7c.9-1.2.3-2,.3-3.4C108,32.8,108.6,34.3,108.8,35.5ZM80.6,50.9c-.8-1.1-1.1-4.4-3-4C79.1,48.1,79.1,50.7,80.6,50.9Zm-.3,1.2c-1-1.7-2.5-2.4-3.4-4.3l-1.4.6C76.5,51.1,77.8,53,80.3,52.1ZM97.1,39.5a7.7,7.7,0,0,0-1.2,3.8c.9.9,2,1.3,2.9,2.4.5-1.1,1-.6,2.1-.9C100.9,42.9,99.5,38.3,97.1,39.5Zm-11.6,13a1.8,1.8,0,0,1,2.2,1.3,1.9,1.9,0,0,0,.9-1.7c-1.6-1-2.5-3.6-4.2-4.3C83.2,49.9,86.5,50.6,85.4,52.5Zm26-13.4c.8-.3.6-2.1.2-2.3S110.9,38.1,111.4,39.1Zm-14.8,8c-.3-.7-.5-1.9-1.4-1.4S96,47.1,96.6,47.1Zm17.9-6.5a1,1,0,0,0,.7-1.7A1.2,1.2,0,0,0,114.5,40.6Zm2.8-.6a1.7,1.7,0,0,0,1.1-.7c-.2-.3-.2-.7-.5-.6S116.7,39.3,117.2,40ZM89.6,55.4c-.4-1.1-.8-2-1.9-1.4C88.4,55.1,88.1,56,89.6,55.4Zm28-10.4c.1-1,.5-2,.7-3C116.4,41.6,115.8,44.9,117.7,45ZM91.3,56.1c.5-.1.4-.5.8-.6A3,3,0,0,0,90.4,54ZM78.5,63c.2-1.3-1-1.5-1.5-2.4l-1.2.5C76.7,61.8,77.4,62.9,78.5,63Zm20.8-8.8c-.6-.6-1.1-1.4-1.8-1.7S98.4,54.4,99.3,54.2Zm17.9-7.1c-.2-.4.6-.4.5-.8s-.5-.7-1-.4S116.4,47.2,117.2,47.1ZM80.6,63.5a6.8,6.8,0,0,0,1.5.2c.1-.6.6-1.5,1.4-1.1a2.7,2.7,0,0,0-3.1-.9C80.7,62.4,80,62.6,80.6,63.5Zm25.8-7.8c1.3-.2,1-1.8.2-2.3l-.7.3A4.7,4.7,0,0,0,106.4,55.7ZM82,66.8a2.2,2.2,0,0,0-.3-1.5c-.5.1-.8-.3-1.4,0S81.1,67.1,82,66.8Zm3.9,1.4c-.4-1.4-1.3-1.4-2.3-1.5A2,2,0,0,0,85.8,68.2Zm39.9-8.2c1.6-1.2,3.8-2.2,2.8-4.4A3.7,3.7,0,0,0,125.7,60.1ZM94.6,73.6c.7-.6,1.5-1.2,1.3-2.2C93.4,68.6,90.7,73.3,94.6,73.6Zm7.1,7.2-.4-.9-.7.3C100.8,80.9,101,81.4,101.7,80.9Zm17-5.9,2.3-1a4.8,4.8,0,0,0-3.5-.5A1.9,1.9,0,0,0,118.7,75ZM97.6,84.2l.9-.4a1.4,1.4,0,0,1-.1-1C97.6,83,97.4,83.5,97.6,84.2Zm-6.3,4c.1.8.7.2,1.1.1l-.3-.7C91.7,87.7,91.7,88,91.3,88.2Zm7.2.1c-.1-.3.2-.3.5-.2s1.2-1.3.6-2.5C98.7,86.2,98,87.8,98.4,88.2Z"/><path class="e" d="M26.2,36.3a12.9,12.9,0,0,1-4.3,3.4c-.7,1.2-2.4,1.5-3.7,2,.3-.2.7-.3.9-.7s-1.8.7-2.7.6a2.8,2.8,0,0,1-1.2.3c-.3,0,.1-.1.1-.2a3.3,3.3,0,0,1-1.6.1c-.2,0-.2-.1-.1-.2h-.7c-.1-.2-.3-.2-.3-.4S10.7,39.2,10,38s-1.2-2.4.1-3.3h.4a1.7,1.7,0,0,1,1.1-.6c-.3-.4-.7,0-1-.3s-1.1-.1-1.8-.1,0-2.2,0-3.2.8.4,1.3.5-.4-1.4-.1-2.3,2.8-2.7,4.1-4.2c.5,0,1-.5,1.5-.1s-.1-.1-.1-.2a19.2,19.2,0,0,1,2.6.7,1.1,1.1,0,0,0-.6-.6c.5,0,1,.5,1.7.6a12.7,12.7,0,0,0,2.4,2.3c.7.9,1.6,1.6,2.2,2.6a23.8,23.8,0,0,1,1.4,3.4c.2.5.5.8.6,1.2A16.6,16.6,0,0,0,26.2,36.3Z"/><path class="d" d="M52.5,82.9c-2.4,2.5-4.6,5-8,6.4-1.4,2.2-4.4,2.8-7,3.8.6-.4,1.3-.6,1.6-1.3-1.4-.4-3.4,1.3-5,1a5.2,5.2,0,0,1-2.2.6c-.5,0,.1-.3.1-.5a6.1,6.1,0,0,1-3,.1c-.3,0-.4-.2-.2-.3a4.4,4.4,0,0,1-1.3-.1c-.2-.3-.5-.4-.6-.8-2-1-3.4-3.6-4.7-5.7s-2.2-4.4.2-6.1c.3,0,.3-.2.7-.1a3.2,3.2,0,0,1,2.1-1.1c-.5-.8-1.3,0-1.9-.6-1.1,1-2-.1-3.3-.2.1-1.9,0-4,0-6.1,1.1,0,1.5.8,2.5.9s-.7-2.6-.2-4.3c2.2-3,5.3-5.1,7.7-7.9.9,0,1.9-.9,2.7-.1s-.3-.2-.1-.5a36.3,36.3,0,0,1,4.8,1.4,2,2,0,0,0-1.1-1c.9,0,1.9,1,3.1,1.1a23.7,23.7,0,0,0,4.5,4.2c1.4,1.8,2.9,3,4.1,4.9s1.7,4.1,2.6,6.3.9,1.5,1.1,2.3S52,81.8,52.5,82.9Z"/><rect class="f" x="3.2" y="3.4" width="144" height="144" rx="18.8" ry="18.8"/><path class="g" d="M68.9,105.7V93.6H91.1v55H76.8V105.7Z"/><path class="g" d="M141,121.1c0,14.3-6.9,29.7-23.3,29.7s-23.3-15.4-23.3-29.7,7-29.7,23.3-29.7S141,106.8,141,121.1Zm-32.5-.1c0,5.3,1.8,17.1,9.1,17.1s9.1-11.8,9.1-17.1-1.8-17-9.1-17S108.5,115.7,108.5,121Z"/></svg>
