<svg xmlns="http://www.w3.org/2000/svg" xmlns:xlink="http://www.w3.org/1999/xlink" viewBox="0 0 183.12 161.86"><defs><style>.cls-1,.cls-7{fill:none;}.cls-2{fill:url(#New_Gradient_Swatch_3);}.cls-3{clip-path:url(#clip-path);}.cls-4,.cls-6{fill:#fbb040;}.cls-4,.cls-5{fill-rule:evenodd;}.cls-5,.cls-8{fill:#fff;}.cls-7{stroke:#be1e2d;stroke-miterlimit:10;stroke-width:1.14px;}</style><linearGradient id="New_Gradient_Swatch_3" x1="77.9" y1="158.53" x2="77.9" y2="14.53" gradientUnits="userSpaceOnUse"><stop offset="0" stop-color="#be1e2d"/><stop offset="1" stop-color="#f15a29"/></linearGradient><clipPath id="clip-path"><path class="cls-1" d="M149.9,139.75a18.78,18.78,0,0,1-18.79,18.78H24.68A18.78,18.78,0,0,1,5.9,139.75V33.31A18.78,18.78,0,0,1,24.68,14.53H131.12A18.78,18.78,0,0,1,149.9,33.31Z"/></clipPath></defs><title>Asset 6</title><g id="Layer_2" data-name="Layer 2"><g id="Layer_1-2" data-name="Layer 1"><g id="_5" data-name="5"><path class="cls-2" d="M149.9,139.75a18.78,18.78,0,0,1-18.79,18.78H24.68A18.78,18.78,0,0,1,5.9,139.75V33.31A18.78,18.78,0,0,1,24.68,14.53H131.12A18.78,18.78,0,0,1,149.9,33.31Z"/><g class="cls-3"><path class="cls-4" d="M124.22,161.14c-7.64-15.34-12-31.2-11.68-47.66V13.71H88.15v99.77c.32,16.45-4,32.32-11.68,47.66Z"/><path class="cls-4" d="M152.56,161.14c-7.64-15.34-12-31.2-11.68-47.66V13.71h-24.4v99.77c.33,16.45-4,32.32-11.68,47.66Z"/><path class="cls-4" d="M183.12,161.14c-7.64-15.34-12-31.2-11.67-47.66V13.71H147v99.77c.33,16.45-4,32.32-11.68,47.66Z"/><path class="cls-4" d="M53.32,112.89v-.77l20.85-2.38v-96H49.77v99.77c.33,16.45-4,32.32-11.68,47.66H85.84c-7.36-14.78-11.64-30.05-11.65-45.87Z"/><path class="cls-5" d="M9.62,124l2.57-1.43c.69,1.66-.22,4.72.54,6.37.85-.5,3.3-2.4,4.14-2.91.74,1.64-.11,4.67.7,6.3.83-.53,3.27-2.46,4.09-3,.8,1.61,0,4.61.86,6.21.81-.55,3.24-2.51,4-3.07.85,1.58.1,4.56,1,6.13.79-.58,3.19-2.56,4-3.15.9,1.55.21,4.5,1.17,6,.77-.61,3.16-2.61,3.91-3.22,1,1.52.31,4.44,1.33,5.95.74-.62,3.11-2.65,3.85-3.29,1,1.49.41,4.38,1.48,5.85.72-.65,3.06-2.7,3.78-3.36,1,1.46.51,4.31,1.62,5.75.7-.67,3-2.75,3.72-3.42,1.1,1.42.61,4.24,1.77,5.64.68-.69,3-2.79,3.65-3.49,1.15,1.39.71,4.17,1.91,5.54.66-.72,2.93-2.84,3.58-3.56,1.2,1.35.8,4.09,2.05,5.42.63-.74,2.88-2.88,3.5-3.62,1.24,1.32.89,4,2.2,5.3.61-.76,2.83-2.91,3.43-3.68q1.93,1.91,4,3.78l-.62-.38c.77.36,2.89-2.6,3.13-3.27a137.19,137.19,0,0,1,7.77-16.18c.36-.61,1.35-4.11.58-4.49s-2.89,2.6-3.13,3.27c-1.47,3.66-3.1,7.24-4.88,10.75l-66.1-31.72c1.63-3.58,3.39-7.1,5.33-10.53.36-.61,1.35-4.11.59-4.49s-2.89,2.61-3.13,3.27a137.35,137.35,0,0,1-7.76,16.18C9.84,120.11,8.86,123.62,9.62,124Z"/><path class="cls-4" d="M16.87,112.89l-2.58-17v17.57c.32,16.45-4,32.32-11.68,47.66H50.37c-7.34-14.74-11.61-30-11.65-45.76Z"/><path class="cls-6" d="M159.92,39.2,151.6,0S.31,0,0,.83,1.41,22.64,1.41,22.64L4.32,24c0,.12,0,.22,0,.34.51,4.77,5.18,11.19,5,11.17a15.34,15.34,0,0,0,2.76-3.72c-.61,4.36.22,9.57.09,9.49a17.44,17.44,0,0,0,6.27-3.79c1.37,2.48,2.75,4.35,2.65,4.34a17.13,17.13,0,0,0,4.15-7.67c2.19,2.3,4.38,4,4.27,4a6.56,6.56,0,0,0,.7-1.49c1.12,2.35,2.22,4.09,2.12,4.07.19,0,5.25-5.09,5-9.89a15.44,15.44,0,0,0-.2-2.28l.56.6c0,.15,0,.28,0,.44.6,4.77,5.38,11.09,5.19,11.07A16.44,16.44,0,0,0,46,36.1c1.44,4.41,5.43,9.27,5.26,9.27a17.11,17.11,0,0,0,3.82-7.8L68.5,38c1.4,4.35,5,9.05,4.86,9a17.14,17.14,0,0,0,3.51-5.72c1.51,1.42,2.69,2.36,2.61,2.37a9.06,9.06,0,0,0,1-2.18c.83,1.69,1.51,2.84,1.44,2.83a17.4,17.4,0,0,0,4.61-6.74,19.34,19.34,0,0,0,1.94-2.9c2,4.35,8.08,9,7.89,9a16,16,0,0,0,1.7-5c2.38,2.66,5.05,4.72,4.93,4.74a16.28,16.28,0,0,0,1.74-5.23l6.79,4.12c1.57,2.79,3.3,5,3.18,5a16,16,0,0,0,2.86-4.43l10.63-3.12,5.45.21c.08.28.16.55.27.85,1.88,4.42,8.21,9.2,8,9.24a14.6,14.6,0,0,0,1.5-4.06c1.53,1.44,2.73,2.39,2.64,2.41a9.52,9.52,0,0,0,1-2.33c.07.07.11.12.1.12a16.71,16.71,0,0,0,1.8-5.63l.47,0ZM28,31.37l.08.18a.35.35,0,0,1,0,.13S28.11,31.56,28,31.37Zm23.39,7.34a15.62,15.62,0,0,0-.55-2.94l.41.19A12.81,12.81,0,0,1,51.42,38.71Zm22.3,1.7a12.61,12.61,0,0,0-.31-2.22h.3A11,11,0,0,1,73.72,40.41ZM94.94,37.2a22.17,22.17,0,0,0-1.8-3.8l.63.13A17.44,17.44,0,0,1,94.94,37.2Zm6.63-.28a3.29,3.29,0,0,0-.29-.78l.14.09A2.64,2.64,0,0,1,101.57,36.92Zm38.52,5.57.24.29a3.1,3.1,0,0,1,.16.76A5.43,5.43,0,0,0,140.09,42.49Z"/></g><path class="cls-7" d="M149.9,139.75a18.78,18.78,0,0,1-18.79,18.78H24.68A18.78,18.78,0,0,1,5.9,139.75V33.31A18.78,18.78,0,0,1,24.68,14.53H131.12A18.78,18.78,0,0,1,149.9,33.31Z"/><path class="cls-8" d="M117.26,116.79l-.95,6.27,4.52-.36c11.23-.87,19.47,8.31,19.47,19.69a19.16,19.16,0,0,1-7.07,14.88c-4.37,3.5-10.58,4.6-16,4.6a33.1,33.1,0,0,1-17.94-5l2.12-13.49a23.31,23.31,0,0,0,15.31,6.35c4.52,0,8.75-3.28,8.75-8.09,0-6.64-6.34-9.41-12-9.41a24.72,24.72,0,0,0-10.5,2.26l4.81-29.83H136.3v12.1Z"/></g></g></g></svg>