<svg xmlns="http://www.w3.org/2000/svg" xmlns:xlink="http://www.w3.org/1999/xlink" viewBox="0 0 152.3 146.2"><defs><style>.a,.e{fill:none;}.b{fill:url(#a);}.c{clip-path:url(#b);}.d{fill:#27aae1;}.e{stroke:#662d91;stroke-miterlimit:10;stroke-width:1.14px;}.f{fill:#fff;}.g{fill:#00aeef;}</style><linearGradient id="a" x1="75.35" y1="145.09" x2="75.35" y2="1.09" gradientUnits="userSpaceOnUse"><stop offset="0" stop-color="#662d91"/><stop offset="1" stop-color="#ae5fa5"/></linearGradient><clipPath id="b"><rect class="a" x="3.3" y="1.1" width="144" height="144" rx="18.8" ry="18.8"/></clipPath></defs><title>Aichi Biodiversity Target 14</title><rect class="b" x="3.3" y="1.1" width="144" height="144" rx="18.8" ry="18.8"/><g class="c"><path class="d" d="M44.7,126.3a9.4,9.4,0,0,1-18.9-.1c0-5.2,9.6-15.4,9.6-15.4S44.7,121,44.7,126.3Z"/><rect class="e" x="3.3" y="1.1" width="144" height="144" rx="18.8" ry="18.8"/><path class="f" d="M32,124.4a8.1,8.1,0,0,1,.1-1.3,3.9,3.9,0,0,0,1.8,7.3h.8A8.1,8.1,0,0,1,32,124.4Z"/><path class="d" d="M40.5,96.1A5.2,5.2,0,0,1,30,96c0-2.9,5.3-8.6,5.3-8.6S40.6,93.2,40.5,96.1Z"/><path class="f" d="M33.5,95.1a4.5,4.5,0,0,1,.1-.7,2.2,2.2,0,0,0,1,4.1H35A4.5,4.5,0,0,1,33.5,95.1Z"/><path class="g" d="M115.1,49.5c-.6-.2,13-29.8,31.4-48.7l.3-.3c8.5,5.7,12.6,17.1,5,35.3-11,23.8-46.5,48.8-45.5,49-1-.2-16.4-36.5-5.4-60.3S123.4-6.6,137.6-3.4A29.6,29.6,0,0,1,142.2-2C123.9,17,114.5,49.3,115.1,49.5Z"/><path class="g" d="M95.8,26.7c4.8-11.6,10.1-19.2,16-23.6l-.5-.7-.5.3c-28,15.9-53.9,46-53.3,46.4S78.9,14,106.7-2a35.6,35.6,0,0,0-4.8-3.2C86.3-13.7,69.3-9.8,49.5,15.1S34.2,86.9,35.4,87.5C34.4,87,68.8,75,92.5,57.1,91.3,47,91.6,35.9,95.8,26.7Z"/><path class="g" d="M45.1,15.1A105.3,105.3,0,0,1,56,3.2C39.2,10.5,24.4,21.3,23.3,22.6,24,21.3,43.4,2.2,63.9-4.3a24.6,24.6,0,0,0-2.8-2.9C52-15.2,40-15,23-1.3S2,44.6,2.6,45.2s15.1-2.3,30.8-7.3C35.9,29.5,39.5,21.5,45.1,15.1Z"/><path class="f" d="M142.2-2c-18.2,19-27.7,51.3-27.1,51.5s13-29.8,31.4-48.7"/><path class="f" d="M110.9,2.7c-28,15.9-53.9,46-53.3,46.4S78.9,14,106.7-2"/><path class="f" d="M56,3.2C39.2,10.5,24.4,21.3,23.3,22.6,24,21.3,43.4,2.2,63.9-4.3"/></g><rect class="e" x="3.3" y="1.1" width="144" height="144" rx="18.8" ry="18.8"/><path class="f" d="M69.1,103.3V91.2H91.2v55H76.9V103.3Z"/><path class="f" d="M140.5,123.9v10.9h-6.6v11.4H120.6V134.9H93.9v-9.1l21.2-34.5h18.7v32.7Zm-19.9-21.1h-.1l-12.8,21.1h13Z"/></svg>
