<svg xmlns="http://www.w3.org/2000/svg" xmlns:xlink="http://www.w3.org/1999/xlink" viewBox="0 0 159.01 153.32"><defs><style>.cls-1,.cls-6{fill:none;}.cls-2{fill:url(#New_Gradient_Swatch_1);}.cls-3{fill:#fff;}.cls-4{clip-path:url(#clip-path);}.cls-5{fill:#8dc63f;}.cls-6{stroke:#f7941d;stroke-miterlimit:10;stroke-width:1.14px;}</style><linearGradient id="New_Gradient_Swatch_1" x1="72.57" y1="144.57" x2="72.57" y2="0.57" gradientUnits="userSpaceOnUse"><stop offset="0" stop-color="#f7941d"/><stop offset="1" stop-color="#f9ed32"/></linearGradient><clipPath id="clip-path"><rect class="cls-1" x="0.57" y="0.57" width="144" height="144" rx="18.78" ry="18.78"/></clipPath></defs><title>Asset 18</title><g id="Layer_2" data-name="Layer 2"><g id="Layer_1-2" data-name="Layer 1"><g id="_17" data-name="17"><rect class="cls-2" x="0.57" y="0.57" width="144" height="144" rx="18.78" ry="18.78"/><path class="cls-3" d="M55.41,103.72a6.62,6.62,0,0,0-2.67-4.93,4.69,4.69,0,0,0,.5-2.07,5.57,5.57,0,0,0-1.85-3.92h0c-3.44-3.67-5.9-13.28-5.9-24.55v-.1c1.92-1.15,3.07-2.62,3.07-4.22v-4c0-1.73-1.35-3.32-3.58-4.51a13.62,13.62,0,1,0-20.72,0c-2.23,1.19-3.58,2.78-3.58,4.51v4c0,1.63,1.19,3.11,3.17,4.28v0c0,10.85-2.28,20.15-5.52,24.11A5.89,5.89,0,0,0,16,96.71a4.72,4.72,0,0,0,.5,2.07,6.63,6.63,0,0,0-2.67,4.93,5.18,5.18,0,0,0,.42,2,5.16,5.16,0,0,0-.42,2v.94c0,5.56,9.31,10.06,20.79,10.06s20.79-4.5,20.79-10.06v-.94a5.13,5.13,0,0,0-.42-2A5.16,5.16,0,0,0,55.41,103.72Z"/><path class="cls-3" d="M89.37,71.63a5.3,5.3,0,0,0-2.14-3.94,3.77,3.77,0,0,0,.4-1.66,4.46,4.46,0,0,0-1.48-3.14h0C83.39,60,81.43,52.27,81.43,43.25c0,0,0-.05,0-.08,1.53-.92,2.46-2.1,2.46-3.38V36.57c0-1.39-1.08-2.65-2.86-3.61a10.9,10.9,0,1,0-16.58,0c-1.78,1-2.86,2.22-2.86,3.61v3.23c0,1.3,1,2.49,2.54,3.43v0c0,8.68-1.82,16.12-4.42,19.28A4.73,4.73,0,0,0,57.83,66a3.77,3.77,0,0,0,.4,1.66,5.3,5.3,0,0,0-2.14,3.94,4.13,4.13,0,0,0,.34,1.62,4.12,4.12,0,0,0-.34,1.62v.75c0,4.45,7.45,8,16.63,8s16.63-3.6,16.63-8v-.75A4.13,4.13,0,0,0,89,73.25,4.14,4.14,0,0,0,89.37,71.63Z"/><g class="cls-4"><path class="cls-5" d="M101.59,41c-7.18-6.55-8.11-7.64-9-6.24s-1.71,2.49-1.71,2.49-3.9-4.21-6.4-3.9-1.72,2.34-1.72,2.34l-.47,8.58H76.16c-2.81,0-3.59,3.59-5.15,5.46s-.31,3-1.56,5.46-1.87,4.52-5.3,7-2.81,2.18-3,4.83-.47,4.53,2.34,8.42,4.06,4.68,7.8,4.84S74.91,80,75.22,79s.62-1.56,1.87-1.56h2.65s-16.85,28.08-19,32.76-.47,4.37-.47,4.37a48.41,48.41,0,0,0,5,2.5c.78.16-.69,2.19-.69,2.19-1.77,1.51-7.51,6.25-7.51,8.52a6.58,6.58,0,0,0,.53,2.56,6.57,6.57,0,0,0-.53,2.56v7.63c0,7,11.8,12.75,26.35,12.75s26.36-5.71,26.36-12.75v-7.63a6.54,6.54,0,0,0-.53-2.56,6.55,6.55,0,0,0,.53-2.56c0-2.27-5.74-7-7.51-8.52a10.82,10.82,0,0,0,5-2.19,8.94,8.94,0,0,0,2.19-2.5,235.52,235.52,0,0,1,.62-36.2C111.89,57.67,108.77,47.53,101.59,41ZM89.83,54.64c-.25,1.73-1.57,3-2.94,2.76s-2.28-1.77-2-3.49,1.57-3,2.94-2.76S90.08,52.92,89.83,54.64Z"/><path class="cls-5" d="M108.53,85.82c-2,1.76-3.17,3.79-3.17,5.94a6.38,6.38,0,0,0,.68,2.83c-2.31,2-3.64,4.27-3.64,6.71A7.07,7.07,0,0,0,103,104a7.09,7.09,0,0,0-.57,2.75V115a7.43,7.43,0,0,0,1.22,4,9.23,9.23,0,0,0,3.57-1.86,8.94,8.94,0,0,0,2.19-2.5,229.18,229.18,0,0,1,.17-30.23A15.92,15.92,0,0,1,108.53,85.82Z"/><path class="cls-5" d="M159,101.29c0-2.44-1.33-4.73-3.64-6.71a6.43,6.43,0,0,0,.68-2.83,7.59,7.59,0,0,0-2.52-5.33h0c-4.69-5-8-18.07-8-33.41,0,0,0-.09,0-.14,2.61-1.57,4.18-3.57,4.18-5.74V46c2.56-1.79,4.06-4,4.06-6.31V24.94c0-6.15-10.31-11.14-23-11.14a46.58,46.58,0,0,0-4.93.26V17c-.95.1-1.87.23-2.77.38V14.44c-8.93,1.53-15.33,5.66-15.33,10.5V39.68c0,2.34,1.5,4.52,4.06,6.31v1.14c0,2.21,1.62,4.24,4.31,5.83,0,0,0,0,0,.05,0,10.21-1.48,19.4-3.86,25.89a236,236,0,0,0-.6,35.54l0,.51-.19.48a10.42,10.42,0,0,1-2.74,3.3,9.52,9.52,0,0,1-2.1,1.43,27.21,27.21,0,0,1,4.18,4.54c5.12,2.45,12.15,4,19.93,4,15.63,0,28.3-6.13,28.3-13.69V106.8a7.05,7.05,0,0,0-.57-2.75A7,7,0,0,0,159,101.29Z"/></g><rect class="cls-6" x="0.57" y="0.57" width="144" height="144" rx="18.78" ry="18.78"/><path class="cls-3" d="M66.28,102.82V90.72H88.45v55H74.15V102.82Z"/><path class="cls-3" d="M95.16,102.82V90.72H140.3l-31.58,55H93l25.09-42.88Z"/></g></g></g></svg>