<svg xmlns="http://www.w3.org/2000/svg" xmlns:xlink="http://www.w3.org/1999/xlink" viewBox="0 0 204.92 173.01"><defs><style>.cls-1,.cls-7{fill:none;}.cls-2{fill:url(#New_Gradient_Swatch_3);}.cls-3{clip-path:url(#clip-path);}.cls-4,.cls-5{fill:#fbb040;}.cls-5,.cls-6{fill-rule:evenodd;}.cls-6,.cls-8{fill:#fff;}.cls-7{stroke:#be1e2d;stroke-miterlimit:10;stroke-width:1.14px;}</style><linearGradient id="New_Gradient_Swatch_3" x1="97.23" y1="162.96" x2="97.23" y2="18.96" gradientUnits="userSpaceOnUse"><stop offset="0" stop-color="#be1e2d"/><stop offset="1" stop-color="#f15a29"/></linearGradient><clipPath id="clip-path"><rect class="cls-1" x="25.23" y="18.96" width="144" height="144" rx="18.78" ry="18.78"/></clipPath></defs><title>Asset 10</title><g id="Layer_2" data-name="Layer 2"><g id="Layer_1-2" data-name="Layer 1"><g id="_9" data-name="9"><rect class="cls-2" x="25.23" y="18.96" width="144" height="144" rx="18.78" ry="18.78"/><g class="cls-3"><polygon class="cls-4" points="173.31 165.79 54.44 165.79 173.31 47.1 173.31 165.79"/><path class="cls-5" d="M83.28,89.79A2.17,2.17,0,1,1,80.48,93c-1.21-1-1.56-2.62-.79-3.51S82.07,88.75,83.28,89.79Z"/><path class="cls-5" d="M88.62,84.79c2.33,1.21,2,3.84.76,5.31s-3.83,2.15-5.36,0c-2.1-2.91-2.27-4.64-1.3-5.77C83.35,83.63,84.5,82.66,88.62,84.79Z"/><path class="cls-5" d="M81.28,93.44a1.88,1.88,0,1,1-2.43,2.82c-1-.91-1.36-2.27-.69-3S80.23,92.53,81.28,93.44Z"/><path class="cls-5" d="M80.45,97.3a1.54,1.54,0,1,1-1.52,2.64,1.59,1.59,0,1,1,1.52-2.64Z"/><path class="cls-5" d="M80.62,100.85a1.31,1.31,0,1,1-1.05,2.38,1.36,1.36,0,1,1,1.05-2.38Z"/><path class="cls-5" d="M89.13,91.84c1.4-1.19,5.86-1.56,6.9,3.85s.46,11.29,6.32,13.58c3.82,1.5,5.87-1.4,9.73,1.71s1.83,6.24-.63,8.4-7.2.33-12.74-4.23-15-7.3-15.81-12.6-.36-7,2.12-8.47S89.13,91.84,89.13,91.84Z"/><path class="cls-5" d="M123.33,101.21a2.17,2.17,0,1,0,3.38-2.64c-1-1.26-2.54-1.69-3.47-1S122.34,99.95,123.33,101.21Z"/><path class="cls-5" d="M127.07,99.4A1.88,1.88,0,1,0,130,97.11c-.85-1.09-2.2-1.47-3-.84S126.21,98.3,127.07,99.4Z"/><path class="cls-5" d="M131,98.76a1.54,1.54,0,1,0,2.71-1.39A1.59,1.59,0,1,0,131,98.76Z"/><path class="cls-5" d="M134.5,99.11a1.31,1.31,0,1,0,2.43-.93c-.35-.9-1.17-1.43-1.84-1.17A1.58,1.58,0,0,0,134.5,99.11Z"/><path class="cls-5" d="M125.08,107.15c-1.26,1.34-1.85,5.77,3.5,7.09s11.25,1,13.25,7c1.3,3.89-1.69,5.79,1.22,9.8s6.14,2.14,8.42-.21.69-7.17-3.59-12.94-6.54-15.33-11.79-16.43-7-.7-8.57,1.7S125.08,107.15,125.08,107.15Z"/><path class="cls-6" d="M35.63,42.14a2.17,2.17,0,1,1-2.8,3.25c-1.21-1-1.56-2.62-.79-3.51S34.42,41.1,35.63,42.14Z"/><path class="cls-6" d="M41,37.14c2.33,1.21,2,3.84.76,5.31s-3.83,2.15-5.36,0c-2.09-2.92-2.27-4.64-1.29-5.77C35.7,36,36.85,35,41,37.14Z"/><path class="cls-6" d="M33.63,45.79A1.88,1.88,0,1,1,31.2,48.6c-1-.9-1.36-2.27-.68-3S32.58,44.88,33.63,45.79Z"/><path class="cls-6" d="M32.8,49.65a1.54,1.54,0,1,1-1.52,2.64,1.85,1.85,0,0,1-1-2.34A1.85,1.85,0,0,1,32.8,49.65Z"/><path class="cls-6" d="M33,53.2a1.31,1.31,0,1,1-1.05,2.38A1.36,1.36,0,1,1,33,53.2Z"/><path class="cls-6" d="M41.48,44.19c1.41-1.19,5.86-1.56,6.9,3.85s.46,11.29,6.32,13.58c3.82,1.49,5.87-1.4,9.73,1.71s1.83,6.24-.63,8.4-7.2.33-12.74-4.23-15-7.29-15.82-12.6-.35-7,2.12-8.47S41.48,44.19,41.48,44.19Z"/><path class="cls-6" d="M75.67,53.56a2.17,2.17,0,1,0,3.38-2.64c-1-1.26-2.54-1.69-3.47-1S74.69,52.3,75.67,53.56Z"/><path class="cls-6" d="M70.41,58.64c1.09,2.39,3.73,2.22,5.26,1S78,56,76,54.31c-2.81-2.24-4.52-2.5-5.7-1.58C69.51,53.32,68.49,54.42,70.41,58.64Z"/><path class="cls-6" d="M79.41,51.75a1.88,1.88,0,1,0,2.93-2.29c-.85-1.09-2.2-1.47-3-.84S78.56,50.65,79.41,51.75Z"/><path class="cls-6" d="M83.31,51.11A1.54,1.54,0,1,0,86,49.73a1.59,1.59,0,1,0-2.71,1.38Z"/><path class="cls-6" d="M86.85,51.45a1.31,1.31,0,1,0,2.43-.93c-.35-.91-1.17-1.43-1.84-1.17A1.58,1.58,0,0,0,86.85,51.45Z"/><path class="cls-6" d="M77.43,59.5c-1.26,1.35-1.85,5.77,3.5,7.09s11.25,1,13.25,7c1.3,3.89-1.69,5.79,1.22,9.81s6.14,2.14,8.42-.21.69-7.17-3.59-12.94S93.69,54.91,88.43,53.81s-7-.7-8.56,1.7S77.43,59.5,77.43,59.5Z"/><path class="cls-5" d="M27.36,5.24a2.17,2.17,0,1,0,3.38-2.64c-1-1.26-2.54-1.69-3.47-1S26.37,4,27.36,5.24Z"/><path class="cls-5" d="M22.1,10.32c1.09,2.39,3.73,2.23,5.26,1S29.7,7.63,27.65,6C24.84,3.76,23.12,3.5,22,4.41,21.19,5,20.17,6.1,22.1,10.32Z"/><path class="cls-5" d="M31.1,3.43A1.9,1.9,0,0,0,33.88,4,1.9,1.9,0,0,0,34,1.14c-.85-1.09-2.2-1.47-3-.84S30.25,2.34,31.1,3.43Z"/><path class="cls-5" d="M35,2.8a1.54,1.54,0,1,0,2.71-1.39A1.85,1.85,0,0,0,35.42.27,1.85,1.85,0,0,0,35,2.8Z"/><path class="cls-5" d="M38.53,3.14A1.31,1.31,0,1,0,41,2.21C40.61,1.3,39.79.78,39.12,1A1.58,1.58,0,0,0,38.53,3.14Z"/><path class="cls-5" d="M29.11,11.18c-1.26,1.34-1.85,5.77,3.5,7.08s11.25,1,13.25,7c1.3,3.89-1.69,5.79,1.22,9.8s6.14,2.14,8.42-.21.69-7.17-3.59-12.94S45.37,6.59,40.12,5.49s-7-.7-8.56,1.7S29.11,11.18,29.11,11.18Z"/><path class="cls-5" d="M141.8,61.5a2,2,0,1,1-2.56,3c-1.1-1-1.42-2.38-.72-3.2S140.7,60.55,141.8,61.5Z"/><path class="cls-5" d="M146.67,56.94c2.13,1.1,1.86,3.5.7,4.84s-3.49,2-4.89,0c-1.91-2.66-2.07-4.23-1.18-5.26C141.87,55.88,142.91,55,146.67,56.94Z"/><path class="cls-5" d="M140,64.83a1.71,1.71,0,1,1-2.22,2.57A1.77,1.77,0,1,1,140,64.83Z"/><path class="cls-5" d="M139.22,68.35a1.4,1.4,0,1,1-1.38,2.4,1.45,1.45,0,1,1,1.38-2.4Z"/><path class="cls-5" d="M139.38,71.58a1.2,1.2,0,1,1-1,2.17,1.24,1.24,0,1,1,1-2.17Z"/><path class="cls-5" d="M147.13,63.37c1.28-1.09,5.34-1.42,6.29,3.51s.42,10.29,5.77,12.38c3.49,1.36,5.35-1.28,8.87,1.56s1.67,5.69-.58,7.66-6.56.3-11.62-3.86S142.2,78,141.44,73.13s-.32-6.38,1.93-7.72S147.13,63.37,147.13,63.37Z"/><path class="cls-5" d="M178.31,71.91a2,2,0,1,0,3.09-2.4c-.9-1.15-2.31-1.54-3.17-.88S177.42,70.76,178.31,71.91Z"/><path class="cls-5" d="M173.51,76.54c1,2.18,3.4,2,4.8.94s2.13-3.39.26-4.88c-2.56-2-4.12-2.28-5.19-1.44C172.69,71.69,171.76,72.69,173.51,76.54Z"/><path class="cls-5" d="M181.72,70.26a1.71,1.71,0,1,0,2.67-2.08,1.77,1.77,0,1,0-2.67,2.08Z"/><path class="cls-5" d="M185.28,69.68a1.4,1.4,0,1,0,2.47-1.26,1.45,1.45,0,1,0-2.47,1.26Z"/><path class="cls-5" d="M188.5,70a1.2,1.2,0,1,0,2.21-.85c-.32-.82-1.07-1.3-1.68-1.07A1.44,1.44,0,0,0,188.5,70Z"/><path class="cls-5" d="M179.91,77.32c-1.15,1.23-1.69,5.27,3.19,6.46s10.26.93,12.08,6.38c1.19,3.55-1.54,5.28,1.11,8.94s5.6,2,7.68-.19.63-6.54-3.27-11.79-6-14-10.75-15-6.36-.64-7.81,1.54S179.91,77.32,179.91,77.32Z"/><path class="cls-5" d="M98.35,18.05a2,2,0,1,1-2.56,3c-1.1-1-1.43-2.39-.72-3.21S97.25,17.1,98.35,18.05Z"/><path class="cls-5" d="M103.22,13.49c2.12,1.1,1.85,3.5.7,4.84s-3.5,2-4.89,0c-1.91-2.66-2.07-4.23-1.18-5.26C98.41,12.43,99.46,11.54,103.22,13.49Z"/><path class="cls-5" d="M96.53,21.38a1.71,1.71,0,1,1-2.22,2.57,2.06,2.06,0,0,1-.62-2.78A2.06,2.06,0,0,1,96.53,21.38Z"/><path class="cls-5" d="M95.77,24.9a1.4,1.4,0,1,1-1.39,2.41,1.69,1.69,0,0,1-.93-2.14A1.68,1.68,0,0,1,95.77,24.9Z"/><path class="cls-5" d="M95.93,28.14a1.2,1.2,0,1,1-1,2.16,1.44,1.44,0,0,1-1-1.73A1.44,1.44,0,0,1,95.93,28.14Z"/><path class="cls-5" d="M103.68,19.92C105,18.83,109,18.5,110,23.43s.42,10.29,5.77,12.38c3.48,1.36,5.35-1.28,8.87,1.56s1.67,5.69-.58,7.66-6.56.3-11.61-3.86S98.76,34.52,98,29.68s-.32-6.38,1.94-7.72S103.68,19.92,103.68,19.92Z"/><path class="cls-6" d="M134.86,28.46a2,2,0,1,0,3.08-2.41c-.9-1.15-2.31-1.54-3.17-.88S134,27.31,134.86,28.46Z"/><path class="cls-6" d="M130.07,33.09c1,2.18,3.4,2,4.8.94s2.13-3.39.26-4.88c-2.56-2-4.12-2.28-5.19-1.44C129.24,28.24,128.31,29.24,130.07,33.09Z"/><path class="cls-6" d="M138.27,26.81a1.71,1.71,0,1,0,2.67-2.08A2.06,2.06,0,0,0,138.2,24,2.06,2.06,0,0,0,138.27,26.81Z"/><path class="cls-6" d="M141.83,26.23A1.4,1.4,0,1,0,144.3,25a1.69,1.69,0,0,0-2.09-1A1.69,1.69,0,0,0,141.83,26.23Z"/><path class="cls-6" d="M145.05,26.54a1.2,1.2,0,1,0,2.21-.85c-.32-.83-1.07-1.3-1.68-1.07A1.44,1.44,0,0,0,145.05,26.54Z"/><path class="cls-6" d="M136.46,33.88c-1.15,1.23-1.69,5.26,3.19,6.46s10.26.93,12.08,6.38c1.19,3.55-1.54,5.28,1.11,8.94s5.6,2,7.68-.19.63-6.54-3.27-11.79-6-14-10.75-15-6.35-.64-7.81,1.54S136.46,33.88,136.46,33.88Z"/><path class="cls-5" d="M48.48,133.27a2,2,0,1,1-2.56,3c-1.1-.95-1.43-2.38-.72-3.21S47.38,132.32,48.48,133.27Z"/><path class="cls-5" d="M53.35,128.71c2.12,1.1,1.86,3.5.7,4.84s-3.49,2-4.89,0c-1.91-2.66-2.07-4.23-1.18-5.26C48.55,127.65,49.59,126.77,53.35,128.71Z"/><path class="cls-5" d="M46.66,136.6a1.71,1.71,0,1,1-2.21,2.57,2.06,2.06,0,0,1-.63-2.78A2.06,2.06,0,0,1,46.66,136.6Z"/><path class="cls-5" d="M45.91,140.12a1.4,1.4,0,1,1-1.38,2.4,1.45,1.45,0,1,1,1.38-2.4Z"/><path class="cls-5" d="M46.06,143.36a1.2,1.2,0,1,1-1,2.16,1.24,1.24,0,1,1,1-2.16Z"/><path class="cls-5" d="M53.81,135.14c1.28-1.09,5.34-1.42,6.29,3.51s.42,10.29,5.77,12.38c3.49,1.36,5.35-1.28,8.87,1.56s1.67,5.69-.58,7.66-6.56.3-11.62-3.86-13.66-6.65-14.42-11.49-.32-6.38,1.94-7.72S53.81,135.14,53.81,135.14Z"/><path class="cls-5" d="M85,143.68a2,2,0,1,0,3.08-2.4c-.89-1.15-2.31-1.55-3.17-.88S84.1,142.53,85,143.68Z"/><path class="cls-5" d="M80.2,148.31c1,2.18,3.4,2,4.8.94s2.13-3.39.26-4.88c-2.56-2-4.12-2.28-5.19-1.45C79.37,143.46,78.44,144.46,80.2,148.31Z"/><path class="cls-5" d="M88.41,142a1.71,1.71,0,1,0,2.67-2.09A1.77,1.77,0,1,0,88.41,142Z"/><path class="cls-5" d="M92,141.45a1.4,1.4,0,1,0,2.47-1.26A1.45,1.45,0,1,0,92,141.45Z"/><path class="cls-5" d="M95.18,141.76a1.2,1.2,0,1,0,2.21-.85c-.32-.82-1.07-1.3-1.68-1.07A1.44,1.44,0,0,0,95.18,141.76Z"/><path class="cls-5" d="M86.59,149.1c-1.15,1.23-1.69,5.26,3.2,6.46s10.26.93,12.08,6.38c1.19,3.55-1.54,5.28,1.11,8.94s5.6,2,7.68-.19.62-6.54-3.27-11.8-6-14-10.75-15-6.35-.64-7.81,1.54S86.59,149.1,86.59,149.1Z"/><path class="cls-6" d="M5,89.83a2,2,0,1,1-2.56,3c-1.1-1-1.43-2.39-.72-3.2S3.93,88.87,5,89.83Z"/><path class="cls-6" d="M9.91,85.27c2.12,1.1,1.85,3.5.69,4.84s-3.5,2-4.89,0c-1.91-2.66-2.07-4.23-1.18-5.26C5.1,84.2,6.14,83.32,9.91,85.27Z"/><path class="cls-6" d="M3.21,93.15A1.71,1.71,0,1,1,1,95.72a2.06,2.06,0,0,1-.62-2.78A2.06,2.06,0,0,1,3.21,93.15Z"/><path class="cls-6" d="M2.46,96.67a1.4,1.4,0,1,1-1.39,2.41,1.69,1.69,0,0,1-.93-2.14A1.69,1.69,0,0,1,2.46,96.67Z"/><path class="cls-6" d="M2.61,99.91a1.2,1.2,0,1,1-1,2.17,1.44,1.44,0,0,1-1-1.73A1.44,1.44,0,0,1,2.61,99.91Z"/><path class="cls-6" d="M10.37,91.69c1.28-1.09,5.34-1.42,6.29,3.51s.42,10.29,5.77,12.38c3.48,1.36,5.35-1.28,8.87,1.56s1.67,5.69-.58,7.66-6.56.3-11.61-3.86S5.44,106.29,4.68,101.46s-.32-6.38,1.93-7.72S10.37,91.69,10.37,91.69Z"/><path class="cls-5" d="M41.55,100.23a2,2,0,1,0,3.08-2.4c-.89-1.15-2.31-1.54-3.16-.88S40.65,99.08,41.55,100.23Z"/><path class="cls-5" d="M36.75,104.86c1,2.18,3.4,2,4.8.94s2.13-3.39.26-4.88c-2.56-2-4.12-2.27-5.19-1.44C35.92,100,35,101,36.75,104.86Z"/><path class="cls-5" d="M45,98.58a1.71,1.71,0,1,0,2.67-2.08,2.06,2.06,0,0,0-2.75-.76A2.06,2.06,0,0,0,45,98.58Z"/><path class="cls-5" d="M48.51,98A1.4,1.4,0,1,0,51,96.74a1.69,1.69,0,0,0-2.09-1A1.69,1.69,0,0,0,48.51,98Z"/><path class="cls-5" d="M51.74,98.31a1.2,1.2,0,1,0,2.21-.85c-.32-.82-1.07-1.3-1.68-1.07A1.44,1.44,0,0,0,51.74,98.31Z"/><path class="cls-5" d="M43.15,105.65c-1.15,1.22-1.69,5.26,3.19,6.46s10.26.94,12.08,6.38c1.19,3.55-1.54,5.28,1.11,8.94s5.6,2,7.68-.19.63-6.54-3.27-11.79-6-14-10.76-15-6.35-.64-7.81,1.55S43.15,105.65,43.15,105.65Z"/></g><rect class="cls-7" x="25.23" y="18.96" width="144" height="144" rx="18.78" ry="18.78"/><path class="cls-8" d="M126.16,164.1l15.68-18.52-.14-.15a18.16,18.16,0,0,1-7.73,1.68c-10.79,0-17.65-9.26-17.65-19.4,0-13.49,11.09-20.79,23.63-20.79,5.32,0,11.45,1.31,15.68,4.74A20,20,0,0,1,163,126.83c0,7.95-4.08,15.61-8.82,21.88L142.43,164.1Zm5-36.83a8.81,8.81,0,0,0,8.83,9,9,9,0,1,0,0-18.09A8.81,8.81,0,0,0,131.19,127.27Z"/></g></g></g></svg>