<svg xmlns="http://www.w3.org/2000/svg" xmlns:xlink="http://www.w3.org/1999/xlink" viewBox="0 0 208.44 194.88"><defs><style>.cls-1,.cls-10,.cls-4,.cls-5,.cls-8{fill:none;}.cls-2{fill:url(#New_Gradient_Swatch_1);}.cls-3{clip-path:url(#clip-path);}.cls-4{stroke:#8dc63f;}.cls-4,.cls-5,.cls-8{stroke-linecap:round;stroke-linejoin:round;}.cls-4,.cls-5{stroke-width:3.18px;}.cls-5,.cls-8,.cls-9{stroke:#fff;}.cls-6,.cls-9{fill:#fff;}.cls-7{fill:#8dc63f;}.cls-8,.cls-9{stroke-width:2.61px;}.cls-10,.cls-9{stroke-miterlimit:10;}.cls-10{stroke:#f7941d;stroke-width:1.14px;}</style><linearGradient id="New_Gradient_Swatch_1" x1="112.02" y1="172.05" x2="112.02" y2="28.05" gradientUnits="userSpaceOnUse"><stop offset="0" stop-color="#f7941d"/><stop offset="1" stop-color="#f9ed32"/></linearGradient><clipPath id="clip-path"><rect class="cls-1" x="40.02" y="28.05" width="144" height="144" rx="18.78" ry="18.78"/></clipPath></defs><title>Asset 19</title><g id="Layer_2" data-name="Layer 2"><g id="Layer_1-2" data-name="Layer 1"><g id="_18" data-name="18"><rect class="cls-2" x="40.02" y="28.05" width="144" height="144" rx="18.78" ry="18.78"/><g class="cls-3"><g class="cls-3"><path class="cls-4" d="M38.7,161.14c-4.41-20.56-14.17-25.39-6.83-42.31C40.49,102.74,50,129.35,59.57,115c10.76-13.32-8.44-22.15,4-34.85,13.42-11.52,18,13.17,31.81,3.39,14.6-8.5-7.71-25.68,8.43-33.18,16.79-6.08,19.36,19.61,35.86,15.32,17-2.77-3.42-22.67,14.73-23.87,18.38.3,18.22,9.6,35.12,22.12"/><path class="cls-4" d="M46.56,168.38c7.14-8.08,9.39-4.31,14.65-16.23,5.95-11.42-.54-15.84,6.8-26.57,8-10.15,11.22-2.28,20.11-11.18,9.42-8.28,3.08-13.68,13.61-21,11-6.58,13.27,1.42,24.7-3.74,11.77-4.41,4.42-13.38,17.06-16.49,12.9-2.27,16,9.19,28.84,8.48,13,.14,9-5.68,19.29-8.91"/><path class="cls-5" d="M1.59,122.13c7.64-9.82,9.85-5.93,15.89-19.64,6.84-13.12.18-17.27,8.6-29.56,9.17-11.64,12.17-3.52,22.39-13.75,10.84-9.52,4.23-14.72,16.3-23.07,12.58-7.54,14.59.62,27.74-5.32,13.53-5.07,5.86-13.94,20.34-17.51,14.77-2.61,17.57,8.9,32.31,8.08,14.93.16,10.67-5.67,22.81-8.65"/><path class="cls-4" d="M173,25.56c-11.74,3-9.13,6.63-23.72,6.55-14.39.87-15.49-6.92-29.78-4.33-14,3.52-7.91,9.63-21.08,14.63-12.79,5.85-14.87-2.29-27.11,5.13C59.6,55.75,66.15,61,55.63,70.3c-9.91,10-14.88-.58-23.83,10.9-8.21,12.12,1.07,19.45-5.52,32.25-5.8,13.37-9.38,7.12-16.95,16.65"/><path class="cls-5" d="M196.28,84.64c-10,3.28-7.49,6.88-20.17,6.81-12.5.75-13.93-7-26.38-4.74-12.2,3.07-6.41,9.27-17.86,13.62-11.11,5.08-13.47-2.91-24.13,3.55-10.22,7.14-3.92,12.55-13.06,20.67-8.6,8.71-13.79-1.66-21.59,8.36-7.16,10.56,2,18.19-3.77,29.3-5,11.6-8.71,5.56-15.77,13.37"/><path class="cls-6" d="M131.08,49c3.1-.65,4.55-3.28,3.2-6A7.86,7.86,0,0,0,126,39.09c-3.19.67-4.57,3.54-3.13,6.25A7.8,7.8,0,0,0,131.08,49Z"/><path class="cls-6" d="M27.06,148c.85-3.24,0-7.54-2-9.68s-4.51-1.26-5.38,2.06.21,7.74,2.26,9.8S26.21,151.22,27.06,148Z"/><path class="cls-6" d="M49.07,101.81a7.79,7.79,0,0,0,.09-8.94c-1.88-2.42-5.06-2.35-7,.27a7.87,7.87,0,0,0,.1,9.1C44.21,104.6,47.2,104.37,49.07,101.81Z"/><path class="cls-6" d="M85.23,67.85a5.62,5.62,0,0,0,1.85-7.72,5.74,5.74,0,0,0-9.65,6.21A5.63,5.63,0,0,0,85.23,67.85Z"/><path class="cls-6" d="M182.23,48c3.29.56,5.13-1.06,4.11-3.78s-4.61-5.54-8-6.11-5.22,1.31-4.1,4S178.93,47.41,182.23,48Z"/><path class="cls-7" d="M160.39,106.28c2.69-.57,3.81-3.14,2.45-5.87s-4.72-4.58-7.5-4-3.83,3.37-2.4,6.08A7.29,7.29,0,0,0,160.39,106.28Z"/><path class="cls-7" d="M70.07,192.27a10.44,10.44,0,0,0-2.24-8.92c-2-2.15-4.4-1.59-5.16,1.3a10.46,10.46,0,0,0,2.45,9C67.18,195.73,69.33,195.07,70.07,192.27Z"/><path class="cls-7" d="M89.19,152.18a7.29,7.29,0,0,0-.37-8.34c-1.88-2.43-4.85-2.61-6.53-.32s-1.4,6.12.53,8.48S87.55,154.39,89.19,152.18Z"/><path class="cls-7" d="M120.57,122.69a5.29,5.29,0,0,0,1.21-7.34c-1.64-2.62-4.94-3.62-7.29-2.1s-2.81,4.93-1.1,7.51A5.29,5.29,0,0,0,120.57,122.69Z"/><path class="cls-7" d="M204.8,105.42c2.86.49,4.35-1.2,3.32-3.92a10.47,10.47,0,0,0-7.2-6c-3-.51-4.43,1.43-3.32,4.16A10.41,10.41,0,0,0,204.8,105.42Z"/><path class="cls-6" d="M119.32,77.9a4.69,4.69,0,0,0,2.31-6.84,6.51,6.51,0,0,0-7.89-2.86,4.79,4.79,0,0,0-2.21,7.06A6.44,6.44,0,0,0,119.32,77.9Z"/><path class="cls-6" d="M51.83,141.89a9.06,9.06,0,0,0-1.07-9.11c-2-2.29-4.77-1.91-6.13.94A9.13,9.13,0,0,0,45.9,143C47.91,145.19,50.5,144.67,51.83,141.89Z"/><path class="cls-6" d="M79.9,103.42a6.45,6.45,0,0,0,.79-8.2,4.76,4.76,0,0,0-7.32-.87,6.52,6.52,0,0,0-.64,8.37A4.67,4.67,0,0,0,79.9,103.42Z"/><path class="cls-6" d="M165.88,68c3.07-.07,4.61-2.23,3.42-5a9.1,9.1,0,0,0-7.89-5c-3.16.07-4.66,2.49-3.38,5.23A9,9,0,0,0,165.88,68Z"/><path class="cls-7" d="M86.62,21.19c3.14-1.31,4.51-4.42,3-7.12S84.24,10.16,81,11.5s-4.48,4.69-2.9,7.36S83.48,22.49,86.62,21.19Z"/><path class="cls-7" d="M9.71,94.11C11.21,91,11,86.61,9,84.32s-4.93-1.61-6.48,1.63-1,7.74,1,10S8.2,97.27,9.71,94.11Z"/><path class="cls-7" d="M41.7,50.28c2.47-2.34,3.12-6.17,1.35-8.71s-5.35-2.76-7.88-.37-3,6.43-1.18,8.91S39.22,52.61,41.7,50.28Z"/><path class="cls-7" d="M139.68,9.93c3.5-.09,5.39-2.24,4.2-5s-5.09-5-8.68-5S129.77,2.52,131,5.25,136.18,10,139.68,9.93Z"/></g><line class="cls-8" x1="145.64" y1="140.92" x2="96.03" y2="34.88"/><line class="cls-8" x1="45.33" y1="170.63" x2="108.84" y2="34.88"/><polygon class="cls-9" points="68.87 170.63 77.76 128.16 98.87 170.63 68.87 170.63"/><polygon class="cls-9" points="122.5 91.92 102.43 48.58 45.33 170.63 82.56 170.63 102.43 128.16 99.3 121.93 122.5 121.93 122.5 91.92"/><path class="cls-7" d="M121.32,172.68V150.37a12.69,12.69,0,0,1,25.37,0v22.32l37.87.06a52,52,0,0,0,1.19-11c0-28.66-23.23-74.79-51.89-74.79S82,133.1,82,161.76a52,52,0,0,0,1.19,11Z"/></g><rect class="cls-10" x="40.02" y="28.05" width="144" height="144" rx="18.78" ry="18.78"/><path class="cls-6" d="M105.73,130.31V118.2H127.9v55H113.6V130.31Z"/><path class="cls-6" d="M173.19,131.69a13,13,0,0,1-8.68,12.47v.14c6.56,2.19,10.94,7.22,10.94,14.44,0,11.38-11.52,16.63-21,16.63s-21-5.25-21-16.63c0-7.22,4.38-12.25,10.94-14.44v-.14a13,13,0,0,1-8.68-12.47c0-10.5,9.33-15.68,18.74-15.68S173.19,121.19,173.19,131.69Zm-25.31,25.23a6.57,6.57,0,1,0,13.13,0,6.57,6.57,0,1,0-13.13,0Zm.51-24.8a6.05,6.05,0,1,0,6.05-6.2A6.12,6.12,0,0,0,148.39,132.13Z"/></g></g></g></svg>