<svg xmlns="http://www.w3.org/2000/svg" xmlns:xlink="http://www.w3.org/1999/xlink" viewBox="0 0 151.3 150.2"><defs><style>.a,.f{fill:none;}.b{fill:url(#a);}.c{clip-path:url(#b);}.d{fill:#fff;}.e{fill:#00aeef;}.f{stroke:#662d91;stroke-miterlimit:10;stroke-width:1.14px;}</style><linearGradient id="a" x1="75.22" y1="146.83" x2="75.22" y2="2.83" gradientUnits="userSpaceOnUse"><stop offset="0" stop-color="#662d91"/><stop offset="1" stop-color="#ae5fa5"/></linearGradient><clipPath id="b"><rect class="a" x="3.2" y="2.8" width="144" height="144" rx="18.8" ry="18.8"/></clipPath></defs><title>Aichi Biodiversity Target 15</title><rect class="b" x="3.2" y="2.8" width="144" height="144" rx="18.8" ry="18.8"/><g class="c"><path class="d" d="M16.2,43.3c9-5.1,31.7-23.6,31.7-23.6S59.5,11.6,80.5,27a133,133,0,0,0,41.1,20.6L140,24.9s6.9-7.3,25.7,3.9S199.5,51,199.5,51l-10.7-66L3.8-24.8l-4.3,72S7.2,48.5,16.2,43.3Z"/><path class="e" d="M99.3,7.9H96.1C95.6,5,98.3,2.1,97.7-.8,99.4,2.1,97.7,5,99.3,7.9Z"/><path class="e" d="M96.1,27.3h3.2c.5,2.9-2.2,5.8-1.6,8.7C96,33.1,97.6,30.2,96.1,27.3Z"/><path class="e" d="M96.7,7.8l-3.1.8c-1.2-2.7.7-6.2-.7-8.8C95.3,2.1,94.5,5.4,96.7,7.8Z"/><path class="e" d="M98.6,27.4l3.1-.8c1.2,2.7-.7,6.2.7,8.8C100,33,100.9,29.8,98.6,27.4Z"/><path class="e" d="M94.2,8.4,91.4,10c-1.9-2.3-1-6.1-3-8.3C91.4,3.3,91.4,6.6,94.2,8.4Z"/><path class="e" d="M101.1,26.8l2.8-1.6c1.9,2.3,1,6.1,3,8.3C104,31.9,103.9,28.6,101.1,26.8Z"/><path class="e" d="M91.9,9.6l-2.3,2.3c-2.4-1.7-2.5-5.7-5-7.3C87.9,5.4,88.8,8.6,91.9,9.6Z"/><path class="e" d="M103.4,25.6l2.3-2.3c2.4,1.7,2.5,5.7,5,7.3C107.4,29.8,106.6,26.6,103.4,25.6Z"/><path class="e" d="M90,11.3l-1.6,2.8c-2.8-1-3.9-4.8-6.7-5.7C85.1,8.3,86.8,11.2,90,11.3Z"/><path class="e" d="M105.3,23.9l1.6-2.8c2.8,1,3.9,4.8,6.7,5.7C110.3,26.8,108.6,24,105.3,23.9Z"/><path class="e" d="M88.7,13.5l-.8,3.1c-2.9-.3-5-3.7-8-3.8C83.1,11.9,85.5,14.3,88.7,13.5Z"/><path class="e" d="M106.7,21.7l.8-3.1c2.9.3,5,3.7,8,3.8C112.2,23.3,109.9,20.9,106.7,21.7Z"/><path class="e" d="M87.9,16c0,1.1,0,2.1,0,3.2-2.9.5-5.8-2.2-8.7-1.6C82.1,15.9,85,17.5,87.9,16Z"/><path class="e" d="M107.4,19.2q0-1.6,0-3.2c2.9-.5,5.8,2.2,8.7,1.6C113.2,19.3,110.3,17.6,107.4,19.2Z"/><path class="e" d="M87.8,18.6l.8,3.1c-2.7,1.2-6.2-.7-8.8.7C82.2,20,85.4,20.8,87.8,18.6Z"/><path class="e" d="M107.5,16.6l-.8-3.1c2.7-1.2,6.2.7,8.8-.7C113.1,15.2,109.9,14.4,107.5,16.6Z"/><path class="e" d="M88.4,21.1,90,23.9c-2.3,1.9-6.1,1-8.3,3C83.4,23.9,86.7,23.9,88.4,21.1Z"/><path class="e" d="M106.9,14.1l-1.6-2.8c2.3-1.9,6.1-1,8.3-3C112,11.3,108.6,11.3,106.9,14.1Z"/><path class="e" d="M89.6,23.3l2.3,2.3c-1.7,2.4-5.7,2.5-7.3,5C85.5,27.4,88.7,26.5,89.6,23.3Z"/><path class="e" d="M105.7,11.8l-2.3-2.3c1.7-2.4,5.7-2.5,7.3-5C109.9,7.8,106.6,8.7,105.7,11.8Z"/><path class="e" d="M91.4,25.2l2.8,1.6c-1,2.8-4.8,3.9-5.7,6.7C88.4,30.2,91.3,28.5,91.4,25.2Z"/><path class="e" d="M103.9,10l-2.8-1.6c1-2.7,4.8-3.9,5.7-6.7C106.9,5,104,6.7,103.9,10Z"/><path class="e" d="M93.6,26.6l3.1.8c-.3,2.9-3.7,5-3.8,8C92,32.2,94.3,29.8,93.6,26.6Z"/><path class="e" d="M101.7,8.6l-3.1-.8c.3-2.9,3.7-5,3.8-8C103.3,3,101,5.4,101.7,8.6Z"/><path class="e" d="M75.8-10.6A7.6,7.6,0,0,0,75.1-9l-14,.4a7.7,7.7,0,0,0-3.6-4.4A7.7,7.7,0,0,0,47-9.8,7.7,7.7,0,0,0,48.4-.7L41.7,11.6a7.7,7.7,0,0,0-8.3,3.8,7.8,7.8,0,0,0-.6,1.7l-14,.4A7.7,7.7,0,1,0,6,25.3L-.7,37.7a7.7,7.7,0,0,0-8.3,3.8A7.7,7.7,0,0,0-5.9,52a7.6,7.6,0,0,0,5.6.7L7,64.6a7.6,7.6,0,0,0,.3,10.5L.7,87.5a7.7,7.7,0,0,0-8.3,3.8,7.7,7.7,0,0,0,3.1,10.4,7.7,7.7,0,0,0,5.6.7l7.3,11.9a7.7,7.7,0,1,0,13.2,7.1l14-.4a7.7,7.7,0,1,0,12.7-7.8L55,100.9a7.6,7.6,0,0,0,9-5.5L78,95a7.7,7.7,0,1,0,12.7-7.8l6.7-12.4A7.7,7.7,0,1,0,97,59.9L89.7,47.9a7.6,7.6,0,0,0-.3-10.5L96,25.1a7.7,7.7,0,1,0-.4-14.9L88.3-1.8a7.8,7.8,0,0,0,1-1.5,7.7,7.7,0,0,0-3.1-10.4A7.7,7.7,0,0,0,75.8-10.6ZM90.8,13.9a7.7,7.7,0,0,0,1.3,9.1L85.5,35.3a7.6,7.6,0,0,0-9,5.5l-7,.2-7,.2a7.6,7.6,0,0,0-9.3-5l-3.7-6-3.7-6a7.6,7.6,0,0,0-.3-10.5L52.2,1.4a7.7,7.7,0,0,0,8.3-3.8,7.8,7.8,0,0,0,.6-1.7l14-.4A7.7,7.7,0,0,0,78.9-.2a7.7,7.7,0,0,0,5.6.7l7.3,11.9A7.6,7.6,0,0,0,90.8,13.9Zm1.4,49.8a7.7,7.7,0,0,0,1.3,9.1L86.9,85.1a7.6,7.6,0,0,0-9,5.5l-14,.4a7.6,7.6,0,0,0-9.3-5L47.3,74a7.6,7.6,0,0,0-.3-10.5l6.7-12.4a7.6,7.6,0,0,0,9-5.5l7-.2,7-.2a7.6,7.6,0,0,0,9.3,5l7.3,11.9A7.7,7.7,0,0,0,92.2,63.6ZM36.1,115a7.7,7.7,0,0,0-.6,1.7l-14,.4a7.6,7.6,0,0,0-9.3-5L4.8,100.1a7.9,7.9,0,0,0,1-1.5,7.7,7.7,0,0,0-1.3-9.1l6.7-12.4a7.6,7.6,0,0,0,9-5.5l14-.4a7.6,7.6,0,0,0,9.3,5l7.3,11.9a7.6,7.6,0,0,0,.3,10.5l-6.7,12.4A7.7,7.7,0,0,0,36.1,115ZM4.5,48.9a7.7,7.7,0,0,0-1.3-9.1L9.8,27.4a7.7,7.7,0,0,0,8.3-3.8,8,8,0,0,0,.6-1.7l14-.4a7.6,7.6,0,0,0,9.3,5l3.7,6,3.7,6A7.6,7.6,0,0,0,49.7,49L43.1,61.4a7.7,7.7,0,0,0-8.3,3.8,7.5,7.5,0,0,0-.6,1.7l-14,.4a7.6,7.6,0,0,0-9.3-5L3.5,50.3A7.6,7.6,0,0,0,4.5,48.9Z"/><path class="e" d="M97.7,25.9a8.3,8.3,0,1,1,8.3-8.3A8.3,8.3,0,0,1,97.7,25.9Z"/><path class="d" d="M97.7,9.9A7.7,7.7,0,1,1,90,17.6a7.7,7.7,0,0,1,7.7-7.7m0-1.1a8.8,8.8,0,1,0,8.8,8.8,8.9,8.9,0,0,0-8.8-8.8Z"/></g><rect class="f" x="3.2" y="2.8" width="144" height="144" rx="18.8" ry="18.8"/><path class="d" d="M68.7,105.1V93H90.9v55H76.6V105.1Z"/><path class="d" d="M114.6,105.1l-.9,6.3,4.5-.4c11.2-.9,19.5,8.3,19.5,19.7a19.2,19.2,0,0,1-7.1,14.9c-4.4,3.5-10.6,4.6-16,4.6a33.1,33.1,0,0,1-17.9-5l2.1-13.5a23.3,23.3,0,0,0,15.3,6.3c4.5,0,8.8-3.3,8.8-8.1,0-6.6-6.3-9.4-12-9.4a24.7,24.7,0,0,0-10.5,2.3L105,93h28.6v12.1Z"/></svg>
