<svg xmlns="http://www.w3.org/2000/svg" xmlns:xlink="http://www.w3.org/1999/xlink" viewBox="0 0 201.89 195.02"><defs><style>.cls-1,.cls-6{fill:none;}.cls-2{fill:url(#linear-gradient);}.cls-3{clip-path:url(#clip-path);}.cls-4{fill:#fff;}.cls-5{fill:#662d91;fill-rule:evenodd;}.cls-6{stroke:#006838;stroke-miterlimit:10;stroke-width:1.14px;}</style><linearGradient id="linear-gradient" x1="84.64" y1="157.51" x2="84.64" y2="13.51" gradientUnits="userSpaceOnUse"><stop offset="0" stop-color="#38a643"/><stop offset="1" stop-color="#8dc63f"/></linearGradient><clipPath id="clip-path"><rect class="cls-1" x="12.64" y="13.51" width="144" height="144" rx="18.78" ry="18.78"/></clipPath></defs><title>Asset 14</title><g id="Layer_2" data-name="Layer 2"><g id="Layer_1-2" data-name="Layer 1"><g id="_13" data-name="13"><rect class="cls-2" x="12.64" y="13.51" width="144" height="144" rx="18.78" ry="18.78"/><g class="cls-3"><path class="cls-4" d="M43.87,73.42A153.86,153.86,0,0,0,55.23,186.07l.74-.38A152.49,152.49,0,0,1,45.44,74.3,156.81,156.81,0,0,1,60.17,37.95,148.8,148.8,0,0,0,43.87,73.42Z"/><path class="cls-4" d="M48.27,74.63c-2.25,2.25-3.34,5-2.58,6s3-.12,5.25-2.33a12.17,12.17,0,0,0,2.83-5.73A7.88,7.88,0,0,0,48.27,74.63Z"/><path class="cls-4" d="M45.64,84c-2,2.39-2.91,5.22-2.14,6.15s2.88-.33,4.88-2.68a12.66,12.66,0,0,0,2.4-5.9A7.47,7.47,0,0,0,45.64,84Z"/><path class="cls-4" d="M53.5,69.65a11.73,11.73,0,0,0,3.22-5.57,8.27,8.27,0,0,0-5.81,1.7c-2.45,2.11-3.72,4.81-3,5.86S51.09,71.72,53.5,69.65Z"/><path class="cls-4" d="M56.73,61a11.47,11.47,0,0,0,3.61-5.38,8.72,8.72,0,0,0-6.1,1.31c-2.65,1.95-4.1,4.58-3.39,5.69S54.13,62.88,56.73,61Z"/><path class="cls-4" d="M54.21,54.3c.84,1,3.45,0,6-2.19a11.19,11.19,0,0,0,3.21-5.74,9.18,9.18,0,0,0-6.2,1.91C54.63,50.5,53.37,53.28,54.21,54.3Z"/><path class="cls-4" d="M58.73,45.25c.91,1,3.61-.1,6.16-2.31A10.93,10.93,0,0,0,68,37.08a9.57,9.57,0,0,0-6.38,2C59,41.42,57.82,44.25,58.73,45.25Z"/><path class="cls-4" d="M40.56,79c1.1-.45,1.45-3.45.84-6.84a10.32,10.32,0,0,0-3.18-5.54,12.88,12.88,0,0,0-.93,7C38,77.13,39.47,79.47,40.56,79Z"/><path class="cls-4" d="M35.79,76.8a13.4,13.4,0,0,0-.51,7c.84,3.38,2.39,5.61,3.41,5.09s1.19-3.53.43-6.85A10,10,0,0,0,35.79,76.8Z"/><path class="cls-4" d="M41.53,57.35a12.47,12.47,0,0,0-1.34,7c.54,3.51,2,6,3.13,5.58s1.69-3.35,1.23-6.79A10.54,10.54,0,0,0,41.53,57.35Z"/><path class="cls-4" d="M45.47,48a12.08,12.08,0,0,0-1.75,6.91c.37,3.56,1.73,6.1,3,5.82S48.6,57.52,48.31,54A10.73,10.73,0,0,0,45.47,48Z"/><path class="cls-4" d="M51.37,39.43a11.31,11.31,0,0,0-3.05,6.4c-.28,3.62.62,6.49,1.91,6.49s2.53-2.76,2.87-6.27A11.41,11.41,0,0,0,51.37,39.43Z"/><path class="cls-4" d="M57.63,30.28a10.82,10.82,0,0,0-4,5.87c-.78,3.57-.24,6.61,1.08,6.84s3-2.34,3.79-5.79A11.58,11.58,0,0,0,57.63,30.28Z"/><path class="cls-4" d="M60.9,36.77c1,1,3.71-.38,6.15-2.83a11,11,0,0,0,2.72-6.26,9.86,9.86,0,0,0-6.39,2.61C60.92,32.86,59.87,35.83,60.9,36.77Z"/><path class="cls-4" d="M7.92,60.69c-7,47,3.87,94.94,31.37,133.54l.74-.38C13,155.51,2.5,108.11,9.52,61.66A196.54,196.54,0,0,1,22,14.38,188.39,188.39,0,0,0,7.92,60.69Z"/><path class="cls-4" d="M12.29,61.83c-2,3-2.77,6.54-1.94,7.72s2.92-.38,4.85-3.35,2.22-7.46,2.23-7.48A6.88,6.88,0,0,0,12.29,61.83Z"/><path class="cls-4" d="M10.65,73.74c-1.71,3.13-2.25,6.68-1.39,7.79S12,81,13.68,77.87s1.69-7.56,1.69-7.57A6.61,6.61,0,0,0,10.65,73.74Z"/><path class="cls-4" d="M17,55.06c2.16-2.85,2.72-7.37,2.72-7.38a7.17,7.17,0,0,0-5.52,2.79c-2.23,2.9-3.25,6.4-2.45,7.64S14.77,57.91,17,55.06Z"/><path class="cls-4" d="M19.49,43.75c2.41-2.72,3.23-7.24,3.23-7.25a7.5,7.5,0,0,0-5.89,2.43c-2.48,2.77-3.73,6.23-3,7.53S17.07,46.48,19.49,43.75Z"/><path class="cls-4" d="M16.68,35.68c.88,1.18,3.36-.47,5.74-3.54s2.94-7.69,2.95-7.7a8.68,8.68,0,0,0-6,3.29C16.91,30.87,15.8,34.5,16.68,35.68Z"/><path class="cls-4" d="M20.75,23.73c.93,1.14,3.53-.65,6-3.83a18.09,18.09,0,0,0,3-7.87,9.54,9.54,0,0,0-6.3,3.58C21,18.9,19.82,22.59,20.75,23.73Z"/><path class="cls-4" d="M5.23,67.93c1-.63,1.07-4.4.19-8.55a13.27,13.27,0,0,0-3.53-6.59,19.72,19.72,0,0,0-.33,8.78C2.53,65.78,4.21,68.57,5.23,67.93Z"/><path class="cls-4" d="M.39,65.54a20.3,20.3,0,0,0,.2,8.72C1.76,78.36,3.53,81,4.45,80.32s.76-4.43-.32-8.49A13.1,13.1,0,0,0,.39,65.54Z"/><path class="cls-4" d="M4.48,41a19,19,0,0,0-.84,8.79C4.41,54,6,56.95,7.09,56.38s1.37-4.34.69-8.57A13.41,13.41,0,0,0,4.48,41Z"/><path class="cls-4" d="M7.85,28.95a18.65,18.65,0,0,0-1.37,8.78c.56,4.37,2,7.4,3.22,6.91s1.67-4.26,1.21-8.57A13.6,13.6,0,0,0,7.85,28.95Z"/><path class="cls-4" d="M13.34,17.51a17.12,17.12,0,0,0-2.79,8.35c-.14,4.53.89,8,2.15,7.84s2.34-3.77,2.56-8.19A15.79,15.79,0,0,0,13.34,17.51Z"/><path class="cls-4" d="M19.38,5.23a16.08,16.08,0,0,0-3.87,7.87c-.7,4.54-.07,8.25,1.24,8.35s2.84-3.34,3.6-7.76A16.83,16.83,0,0,0,19.38,5.23Z"/><path class="cls-4" d="M22.7,12.8c1,1,3.66-1.05,6.08-4.53A18.54,18.54,0,0,0,31.48,0,10.81,10.81,0,0,0,25.1,4.33C22.66,7.93,21.67,11.77,22.7,12.8Z"/><path class="cls-4" d="M25.89,67.05a168.53,168.53,0,0,0,21.37,123.1l.74-.38A167.13,167.13,0,0,1,27.48,68a176.49,176.49,0,0,1,13.6-41.82A168.59,168.59,0,0,0,25.89,67.05Z"/><path class="cls-4" d="M30.28,68.23C28.16,70.86,27.23,74,28,75.09s3-.25,5.05-2.84a15,15,0,0,0,2.53-6.6A7.25,7.25,0,0,0,30.28,68.23Z"/><path class="cls-4" d="M28.14,78.87c-1.87,2.76-2.58,5.94-1.76,7s2.81-.45,4.65-3.17a15.57,15.57,0,0,0,2-6.73A6.94,6.94,0,0,0,28.14,78.87Z"/><path class="cls-4" d="M35.23,62.35a14.5,14.5,0,0,0,3-6.48,7.59,7.59,0,0,0-5.66,2.24c-2.35,2.51-3.48,5.61-2.72,6.75S32.94,64.81,35.23,62.35Z"/><path class="cls-4" d="M38.11,52.36A14.1,14.1,0,0,0,41.53,46a8,8,0,0,0-6,1.87c-2.56,2.36-3.92,5.41-3.18,6.61S35.6,54.68,38.11,52.36Z"/><path class="cls-4" d="M35.45,45c.86,1.1,3.41-.25,5.86-2.86a14.36,14.36,0,0,0,3.08-6.72A8.78,8.78,0,0,0,38.26,38C35.77,40.69,34.59,43.89,35.45,45Z"/><path class="cls-4" d="M39.74,34.49c.92,1.08,3.57-.37,6.08-3.07a14.17,14.17,0,0,0,3.07-6.87,9.39,9.39,0,0,0-6.34,2.81C40,30.16,38.82,33.42,39.74,34.49Z"/><path class="cls-4" d="M22.89,73.48c1.06-.54,1.26-3.93.52-7.7a11.73,11.73,0,0,0-3.36-6.07,16.12,16.12,0,0,0-.63,7.9C20.26,71.46,21.84,74,22.89,73.48Z"/><path class="cls-4" d="M18.09,71.17a16.64,16.64,0,0,0-.15,7.88c1,3.75,2.66,6.18,3.64,5.58s1-4,.05-7.67A11.55,11.55,0,0,0,18.09,71.17Z"/><path class="cls-4" d="M23,49.15A15.53,15.53,0,0,0,21.92,57c.65,3.9,2.16,6.58,3.29,6.11s1.53-3.84,1-7.68A11.94,11.94,0,0,0,23,49.15Z"/><path class="cls-4" d="M26.66,38.49a15.12,15.12,0,0,0-1.56,7.85c.46,4,1.89,6.75,3.09,6.36S30,49,29.6,45.06A12.09,12.09,0,0,0,26.66,38.49Z"/><path class="cls-4" d="M32.36,28.47a14,14,0,0,0-2.93,7.38c-.21,4.07.76,7.24,2,7.17s2.44-3.27,2.72-7.23A13.57,13.57,0,0,0,32.36,28.47Z"/><path class="cls-4" d="M38.51,17.76a13.22,13.22,0,0,0-3.93,6.87c-.74,4.05-.15,7.42,1.16,7.59s2.9-2.84,3.69-6.77A14.07,14.07,0,0,0,38.51,17.76Z"/><path class="cls-4" d="M41.8,24.78c1,1,3.68-.71,6.11-3.68a14.47,14.47,0,0,0,2.71-7.26,10.14,10.14,0,0,0-6.39,3.47C41.79,20.4,40.77,23.8,41.8,24.78Z"/><path class="cls-4" d="M61.84,79.78A139.45,139.45,0,0,0,63.21,182l.74-.38a138.11,138.11,0,0,1-.54-101A137.24,137.24,0,0,1,79.26,49.73,129.67,129.67,0,0,0,61.84,79.78Z"/><path class="cls-4" d="M66.26,81c-2.39,1.86-3.62,4.25-2.91,5.15s3.09,0,5.45-1.82a10,10,0,0,0,3.13-4.86A8.85,8.85,0,0,0,66.26,81Z"/><path class="cls-4" d="M63.13,89.13c-2.19,2-3.25,4.49-2.52,5.34s2.94-.21,5.11-2.2a10.44,10.44,0,0,0,2.76-5.07A8.35,8.35,0,0,0,63.13,89.13Z"/><path class="cls-4" d="M71.78,76.95a9.69,9.69,0,0,0,3.46-4.67,9.32,9.32,0,0,0-5.95,1.16c-2.56,1.71-4,4-3.25,5S69.25,78.62,71.78,76.95Z"/><path class="cls-4" d="M75.35,69.57a9.42,9.42,0,0,0,3.8-4.45,9.87,9.87,0,0,0-6.22.75c-2.73,1.54-4.29,3.76-3.61,4.76S72.65,71.08,75.35,69.57Z"/><path class="cls-4" d="M73,63.61c.83,1,3.5.18,6.09-1.51a8.71,8.71,0,0,0,3.33-4.77s-3.67-.56-6.29,1.22S72.14,62.67,73,63.61Z"/><path class="cls-4" d="M77.71,56c.91,1,3.64.17,6.23-1.56a8.22,8.22,0,0,0,3.19-4.86s-3.81-.55-6.42,1.27S76.81,55.08,77.71,56Z"/><path class="cls-4" d="M58.23,84.58c1.14-.35,1.64-3,1.16-6a9,9,0,0,0-3-5,10.22,10.22,0,0,0-1.23,6.16C55.7,82.81,57.1,84.93,58.23,84.58Z"/><path class="cls-4" d="M53.49,82.43a10.59,10.59,0,0,0-.87,6.21c.68,3,2.12,5,3.18,4.61s1.41-3.08.81-6A8.73,8.73,0,0,0,53.49,82.43Z"/><path class="cls-4" d="M60.05,65.55a9.8,9.8,0,0,0-1.58,6.08c.42,3.11,1.77,5.32,3,5s1.85-2.86,1.5-5.9A9.25,9.25,0,0,0,60.05,65.55Z"/><path class="cls-4" d="M64.27,57.58a9.47,9.47,0,0,0-1.94,6c.28,3.15,1.57,5.45,2.83,5.27S67.22,66.09,67,63A9.48,9.48,0,0,0,64.27,57.58Z"/><path class="cls-4" d="M70.38,50.39a9.07,9.07,0,0,0-3.18,5.42c-.36,3.16.49,5.73,1.8,5.82s2.63-2.26,3-5.31A9.5,9.5,0,0,0,70.38,50.39Z"/><path class="cls-4" d="M76.76,42.8s-3.25,1.76-4.06,4.86-.32,5.79,1,6.08,3-1.84,3.88-4.8S76.76,42.81,76.76,42.8Z"/><path class="cls-4" d="M80,48.76c1,.92,3.73,0,6.19-2a8.15,8.15,0,0,0,2.71-5.25s-3.92-.32-6.38,1.75S79,47.85,80,48.76Z"/><path class="cls-5" d="M41.8,193.08A3,3,0,0,0,38.74,189a1.62,1.62,0,0,0,.19-.42,1.55,1.55,0,0,0-.38-1.46,1.55,1.55,0,0,0,.64-2.59,1.55,1.55,0,0,0,.72-2.57,1.55,1.55,0,0,0,.68-2.55,1.55,1.55,0,0,0,.63-2.59A1.55,1.55,0,0,0,42,174.3a1.56,1.56,0,0,0,.62-2.49,1.55,1.55,0,0,0,.59-2.57,1.55,1.55,0,0,0,.72-2.57,1.55,1.55,0,0,0,.68-2.55A1.55,1.55,0,0,0,45.66,163a1.51,1.51,0,0,0,0-.56,5.26,5.26,0,0,0,1.49.64,5.58,5.58,0,1,0,6.49-6.64,5.35,5.35,0,0,0-3.37-3.57,5.15,5.15,0,0,0,.08-.74A5.4,5.4,0,0,0,47.11,147a5.63,5.63,0,0,0,.13-1,5.41,5.41,0,0,0-2.68-4.83,5.29,5.29,0,0,0-.32-3.23,2.25,2.25,0,0,0-.51-1.52A2.27,2.27,0,0,0,45.33,135a2.24,2.24,0,0,0-.41-2.15,2.25,2.25,0,0,0,1.16-3.68,2.25,2.25,0,0,0,1.27-3.64,2.25,2.25,0,0,0,1.24-3.58,2.26,2.26,0,0,0,1.54-1.47,2.39,2.39,0,0,0,.1-.48l.2-.16a2.77,2.77,0,0,0,1.5.5,2.88,2.88,0,0,0,.93-.13,4.48,4.48,0,0,0,4.46.23,2.77,2.77,0,0,0,1.68-1,2.76,2.76,0,0,0,1.4,1.08,4,4,0,0,0,4.63.15,2.87,2.87,0,0,0,.8.14,2.8,2.8,0,0,0,1.31-.28,4.24,4.24,0,0,0,6.78,1,4.12,4.12,0,0,0,6,.91,3.66,3.66,0,0,0,5.35-.19,3.12,3.12,0,0,0,.51.41,3.36,3.36,0,0,0,4.95-1.5,3.48,3.48,0,0,0,.83.77,3.55,3.55,0,0,0,4.92-1,3.39,3.39,0,0,0,.32-.61l.2.15a2.71,2.71,0,0,0,3.75-.76,3,3,0,0,0,.25-.46,3,3,0,0,0,3.94-1,2.93,2.93,0,0,0,.33-.68,3,3,0,0,0,4.13-2.83,3,3,0,0,0,4.37-3,3.77,3.77,0,0,0,4.25-5.08,4.19,4.19,0,0,0,.85-.37,4.11,4.11,0,0,0,1.54-5.44,4.82,4.82,0,0,0,1.94-.65,4.89,4.89,0,0,0,2.31-5.14,6.15,6.15,0,0,0,.87-.42A5.9,5.9,0,0,0,128,87.39,7.21,7.21,0,0,0,132.51,77a8.84,8.84,0,0,0,2.11-.91,8.91,8.91,0,0,0,2.18-13.54,10.37,10.37,0,0,0,2.26-.86,8.9,8.9,0,0,0,7.76-.63,9.83,9.83,0,0,0,13,3.61l.19.36a10.29,10.29,0,0,0,14.1,3.61l.41-.26c.14.29.28.57.45.85a10.9,10.9,0,1,0,3.82-14.93c-.31.18-.6.38-.89.59l-.19-.34a10.29,10.29,0,0,0-14.07-3.63,9.84,9.84,0,0,0-13.46-3.41q-.41.24-.79.52a8.93,8.93,0,0,0-6.07-3.51,10.52,10.52,0,0,0,1.1-.57,11.05,11.05,0,0,0,3.88-15.14,11.24,11.24,0,0,0-1.19-1.65,12.29,12.29,0,1,0-12.38-3,11.06,11.06,0,0,0-3.44,18.4,10.44,10.44,0,0,0-2.34,1,10.21,10.21,0,0,0-1.61,1.18,8.64,8.64,0,0,0-.55-1.11,9.07,9.07,0,0,0-13.76-2.25,5.16,5.16,0,0,0-1.37.16c-.12-.24-.24-.47-.38-.7A9.05,9.05,0,0,0,96,40.51a8.68,8.68,0,0,0-.49-1,8.59,8.59,0,0,0-11.77-3,8.45,8.45,0,0,0-2,1.63,8.34,8.34,0,0,0-12.34-.1,7.53,7.53,0,0,0-10.48,7,5.61,5.61,0,0,0-9.85,3.55,4.14,4.14,0,0,0-5,3.91,3.51,3.51,0,0,0-1.87.49,3.55,3.55,0,0,0-1.64,3.88l-.22,0a3.32,3.32,0,0,0-3.43,3.22A3.37,3.37,0,0,0,37,61,3.08,3.08,0,0,0,34,64a3,3,0,0,0,.2,1.18,3.13,3.13,0,0,0-2,4,3.22,3.22,0,0,0-2,2.87,3.17,3.17,0,0,0,.33,1.54,3,3,0,0,0-1.2,4,3.19,3.19,0,0,0-1.29,3.73A3.61,3.61,0,0,0,26.73,86a4.11,4.11,0,0,0-1.15,5.83,4.73,4.73,0,0,0-.06,7.42,5.06,5.06,0,0,0,3,8.88A5.28,5.28,0,0,0,25.91,116c0,.07,0,.13-.05.2A3.76,3.76,0,0,0,22,120.25a3.42,3.42,0,0,0-5,3.58,3,3,0,0,0-3.73,3.57,2.87,2.87,0,0,0-1.13.5,2.9,2.9,0,0,0-1,3.45,2.65,2.65,0,0,0-2.07,3.35,2.41,2.41,0,0,0-1.5,3.54,1.91,1.91,0,0,0-.34.2,2.13,2.13,0,0,0-.45,3l.1.12-.17.11a2,2,0,0,0-.42,2.76l0,0a1.59,1.59,0,0,0-.16,2.07l.12.14-.12.08a1.8,1.8,0,0,0-.38,2.52l0,0a1.67,1.67,0,0,0-.16,2.17l.05.06a1.7,1.7,0,0,0-.17,2.22l.09.12a1.75,1.75,0,0,0-.1,2.2,1.68,1.68,0,0,0,.51.46,1.66,1.66,0,0,0-.13,2.12,1.64,1.64,0,0,0,.73.56,1.73,1.73,0,0,0,.53,2.75,2,2,0,0,0-.2,2.55,2.08,2.08,0,0,0,.3.33,2.23,2.23,0,0,0,.05,2.57,2.19,2.19,0,0,0,.93.73A2.57,2.57,0,0,0,9.56,172a2.56,2.56,0,0,0,2.75,3.68,2.87,2.87,0,0,0,2.6,4.65,3,3,0,0,0,3.92,4,3.05,3.05,0,0,0,3.58,3.48,2.89,2.89,0,0,0,.51,1.17,2.94,2.94,0,0,0,3,1.12,3.11,3.11,0,0,0,.31.54,2.92,2.92,0,0,0,3.18,1.07,2.88,2.88,0,0,0,.27.45,2.93,2.93,0,0,0,3.67.88,2.62,2.62,0,0,0,.17.26,2.89,2.89,0,0,0,3.49.94,2.93,2.93,0,0,0,.85.5A3,3,0,0,0,41.8,193.08Zm-17.5-10a3,3,0,0,0-1.29-1,1.48,1.48,0,0,0,.29-.23,1.55,1.55,0,0,0,.39-1.45,1.56,1.56,0,0,0,1.83-1.94,1.56,1.56,0,0,0,1.89-1.89,1.55,1.55,0,0,0,1.84-1.89,1.56,1.56,0,0,0,1.82-1.94,1.55,1.55,0,0,0,1.9-1.79,1.55,1.55,0,0,0,1.35-.45,1.57,1.57,0,0,0,.41-1.41,1.56,1.56,0,0,0,1.78-2,1.55,1.55,0,0,0,1.88-1.88,1.53,1.53,0,0,0,1-.12,1.54,1.54,0,0,0,.18,1.32,1.56,1.56,0,0,0-1.1,2.43,1.56,1.56,0,0,0-1.19,2.36,1.56,1.56,0,0,0-1.12,2.31,1.56,1.56,0,0,0-1,2.42A1.56,1.56,0,0,0,34,178.32a1.56,1.56,0,0,0-1.11,2.39,1.55,1.55,0,0,0-1.09,2.43,1.56,1.56,0,0,0-1.16,2.4,1.56,1.56,0,0,0-1.09.65,3,3,0,0,0-1.58-.08,2.91,2.91,0,0,0-3.11-1.72A3,3,0,0,0,24.3,183.07Zm15.93-19.74.21,0a1.54,1.54,0,0,0,.24.67,1.56,1.56,0,0,0-.48.14A1.58,1.58,0,0,0,40.22,163.33Zm2.07,2.87.05.06-.1,0,0-.05Zm-1,1.15a1.72,1.72,0,0,0,0,.24,1.75,1.75,0,0,0-.2-.46,1.79,1.79,0,0,0,.36-.09A1.6,1.6,0,0,0,41.3,167.35Zm-26.74,7.3a1.55,1.55,0,0,0,.54-1.05,1.56,1.56,0,0,0,2.27-1.3A1.56,1.56,0,0,0,19.69,171,1.56,1.56,0,0,0,22,169.72a1.56,1.56,0,0,0,2.31-1.27,1.56,1.56,0,0,0,2.31-1.33A1.56,1.56,0,0,0,29,166a1.56,1.56,0,0,0,2.23-1.28,1.55,1.55,0,0,0,2.27-1.34,1.56,1.56,0,0,0,2.36-1.25,1.56,1.56,0,0,0,2.31-1.28,1.56,1.56,0,0,0,1.06.17,1.56,1.56,0,0,0-.19,1.19,1.55,1.55,0,0,0-1.84,1.9A1.56,1.56,0,0,0,35.37,166a1.56,1.56,0,0,0-1.89,1.84,1.56,1.56,0,0,0-1.82,1.81,1.56,1.56,0,0,0-1.35.46,1.54,1.54,0,0,0-.38,1.5A1.56,1.56,0,0,0,28,173.49a1.56,1.56,0,0,0-1.83,1.9,1.55,1.55,0,0,0-1.83,1.94,1.56,1.56,0,0,0-1.88,1.89,1.56,1.56,0,0,0-1.85,1.85h-.12a3,3,0,0,0-3.38-2.34,2.87,2.87,0,0,0-2.58-4.07Zm16.1-42.38a5.62,5.62,0,0,0,3.74,5.48,5.39,5.39,0,0,0-.54,2.19c0,.15,0,.29,0,.43a2.08,2.08,0,0,0-.36,0,1.88,1.88,0,0,0-2.25-2.21,1.88,1.88,0,0,0-2.15-2.39,1.88,1.88,0,0,0-2.18-2.33,1.88,1.88,0,0,0-2.23-2.32,1.89,1.89,0,0,0-.43-1.82,1.87,1.87,0,0,0-1.73-.56,1.88,1.88,0,0,0-1.13-2.24,3.43,3.43,0,0,0,2.36-3.35,3.78,3.78,0,0,0,3.58.21,5.51,5.51,0,0,0,4.86,5.21A5.61,5.61,0,0,0,30.66,132.27Zm84-33a4.11,4.11,0,0,0-1.6,5.32,4.41,4.41,0,0,0-.51.25,3.88,3.88,0,0,0-.41.29l-.24-.29a4.19,4.19,0,0,0-3.84-1.3,4.18,4.18,0,0,0-4.78-5.24A4.18,4.18,0,0,0,98.4,93a4.19,4.19,0,0,0-4.62-5.38,4.18,4.18,0,0,0-4.55-5.17,4.18,4.18,0,0,0-5-5,4.19,4.19,0,0,0-4.73-5.37,4.18,4.18,0,0,0-4.78-5.22,4.18,4.18,0,0,0-4.9-5.22,4.18,4.18,0,0,0-4.74-5.36,4.18,4.18,0,0,0-.93-3.95,3.74,3.74,0,0,0-.28-.28,7.52,7.52,0,0,0,6.37-.61,7.29,7.29,0,0,0,.9-.62,8.34,8.34,0,0,0,8.58,0l.34-.21a4.56,4.56,0,0,0,5.79,3.63,4.56,4.56,0,0,0,5.92,5.1,4.56,4.56,0,0,0,5.77,5.26,4.56,4.56,0,0,0,5.76,5.14,4.57,4.57,0,0,0,5.92,5.07,4.56,4.56,0,0,0,5.49,5.34,4.56,4.56,0,0,0,3.8,5,5.9,5.9,0,0,0-1.44,6.73,4.9,4.9,0,0,0-1.48,6.55l.18.26A4.19,4.19,0,0,0,114.68,99.23ZM36.49,71a3.12,3.12,0,0,0,1.84-2.75A3.09,3.09,0,0,0,38.12,67a3.11,3.11,0,0,0,1.82-1.64,3.48,3.48,0,0,0,2.48.51A3.47,3.47,0,0,0,46.5,70a3.47,3.47,0,0,0,4.15,4.24,3.47,3.47,0,0,0,4,4.36,3.47,3.47,0,0,0,4,4.27,3.48,3.48,0,0,0,4.16,4.23,3.47,3.47,0,0,0,3.81,4.4,3.47,3.47,0,0,0,4,4.08,3.47,3.47,0,0,0,4.18,4.14,3.47,3.47,0,0,0,4,4.36,3.47,3.47,0,0,0,4,4.26,3.47,3.47,0,0,0,3.57,4.33,3.47,3.47,0,0,0,3.84,3.75,3.48,3.48,0,0,0-.12,1.14l0,.07a3.46,3.46,0,0,0-.72-.65,3.36,3.36,0,0,0-4.2.4,3.64,3.64,0,0,0-4.38-.92,3.11,3.11,0,0,0-.79-.76,3,3,0,0,0-1.59-.5,4,4,0,0,0-1.07-.18h-.28a3,3,0,0,0-4.26-2.39,3,3,0,0,0-4.36-2.8,3,3,0,0,0-4.19-3,3,3,0,0,0-4.11-2.82,3,3,0,0,0-4.36-2.61,3,3,0,0,0-4.26-2.93,3,3,0,0,0-4.28-2.82A3,3,0,0,0,43,93a3,3,0,0,0-4.27-2.92,3,3,0,0,0-4.2-2.87,3,3,0,0,0-1-2.22,3.94,3.94,0,0,0,0-.45,3.59,3.59,0,0,0-.43-1.81,3.17,3.17,0,0,0,.72-4,3,3,0,0,0,1.28-2.38A3.09,3.09,0,0,0,34.93,75a3.22,3.22,0,0,0,1.56-4ZM12,136.59a2.66,2.66,0,0,0,2.12-3.47,2.9,2.9,0,0,0,2.54-3.37,3,3,0,0,0,2.15-1.5,1.88,1.88,0,0,0,2.24,1.86,1.88,1.88,0,0,0,2.23,2.32,1.88,1.88,0,0,0,2.16,2.39,1.88,1.88,0,0,0,2.16,2.33,1.88,1.88,0,0,0,2.23,2.31,1.88,1.88,0,0,0,2,2.4A1.88,1.88,0,0,0,34,144.1a1.88,1.88,0,0,0,2.24,2.27,1.89,1.89,0,0,0,.1,1.33c0,.07-.06.13-.08.21a2.25,2.25,0,0,0,.45,2.19,2.26,2.26,0,0,0-1.54,1.18,1.84,1.84,0,0,0-2.61-1.06,1.85,1.85,0,0,0-2.64-1.5,1.85,1.85,0,0,0-2.79-1.36,1.85,1.85,0,0,0-2.74-1.56,1.84,1.84,0,0,0-2.74-1.49,1.85,1.85,0,0,0-2.8-1.47,1.85,1.85,0,0,0-2.75-1.55,1.85,1.85,0,0,0-2.7-1.53,1.84,1.84,0,0,0-1-1.46,1.81,1.81,0,0,0-.65-.21A2.4,2.4,0,0,0,12,136.59Zm27.69,16.6a1.78,1.78,0,0,0-.39-.12l0-.05a2.25,2.25,0,0,0-.45-2.2l.23-.06a1.9,1.9,0,0,0,.53.27,5.94,5.94,0,0,0-.09.79A5.24,5.24,0,0,0,39.73,153.19ZM40,157.1a1.85,1.85,0,0,0-1,.69,1.84,1.84,0,0,0-1-.87,2.15,2.15,0,0,0,.11-.27.74.74,0,0,0,0-.1,1.84,1.84,0,0,0,1.72,0A1.89,1.89,0,0,0,40,157.1ZM50.28,56.2a4.14,4.14,0,0,0,1.89-2.49,5.62,5.62,0,0,0,3.58.48,4.23,4.23,0,0,0,1.28,0,4.19,4.19,0,0,0,4.81,5.13,4.18,4.18,0,0,0,4.89,5.22,4.18,4.18,0,0,0,4.74,5.36,4.19,4.19,0,0,0,4.75,5.25,4.18,4.18,0,0,0,4.9,5.2,4.19,4.19,0,0,0,4.48,5.4,4.19,4.19,0,0,0,4.72,5,4.19,4.19,0,0,0,4.93,5.1,4.18,4.18,0,0,0,4.74,5.36,4.18,4.18,0,0,0,4.77,5.25,4.18,4.18,0,0,0,.93,3.95,4.14,4.14,0,0,0,2,1.23,3.1,3.1,0,0,0,0,.36,3,3,0,0,0-3.88,1,3,3,0,0,0-.33.68,3,3,0,0,0-3.62,1.15,3.08,3.08,0,0,0-.38.81,2.71,2.71,0,0,0-2.62.35A3.45,3.45,0,0,0,93.31,114a3.47,3.47,0,0,0-3.55-4.39,3.46,3.46,0,0,0-4.14-3.7,3.47,3.47,0,0,0-4.05-4.26,3.47,3.47,0,0,0-4.15-4.25A3.47,3.47,0,0,0,73.48,93a3.47,3.47,0,0,0-3.87-4.2,3.47,3.47,0,0,0-4.2-4,3.47,3.47,0,0,0-4-4.37,3.47,3.47,0,0,0-4.06-4.25,3.47,3.47,0,0,0-4.15-4.24,3.47,3.47,0,0,0-4-4.36,3.47,3.47,0,0,0-4-4.29,3.48,3.48,0,0,0-.87-3.16,3.44,3.44,0,0,0-.59-.49,3.54,3.54,0,0,0,3.67-2.86A4.15,4.15,0,0,0,50.28,56.2Zm10.3-6.46A7.55,7.55,0,0,0,62,51.12a4.14,4.14,0,0,0-1.57-.06A4.14,4.14,0,0,0,60.58,49.74ZM9.31,159.34a1.73,1.73,0,0,0-.81-.6,1.64,1.64,0,0,0,.35-.66,2.17,2.17,0,0,0,.36.07,1.86,1.86,0,0,0,1.6-.69,1.84,1.84,0,0,0,3.09.21,1.84,1.84,0,0,0,3.15.21,1.85,1.85,0,0,0,3.14.31,1.84,1.84,0,0,0,3.11.27,1.85,1.85,0,0,0,3.15.21,1.85,1.85,0,0,0,3.08.4A1.83,1.83,0,0,0,31,160a1.85,1.85,0,0,0,1.6-.69v0a2.25,2.25,0,0,0,.51,1.73,1.55,1.55,0,0,0-.35.95,1.56,1.56,0,0,0-2.35,1.21,1.56,1.56,0,0,0-2.27,1.2,1.56,1.56,0,0,0-1.42,0,1.54,1.54,0,0,0-.8,1.32A1.56,1.56,0,0,0,23.54,167a1.56,1.56,0,0,0-2.31,1.28,1.55,1.55,0,0,0-2.31,1.32,1.56,1.56,0,0,0-2.35,1.25,1.56,1.56,0,0,0-2.31,1.23L14.1,172a2.67,2.67,0,0,0-.21-.33,2.56,2.56,0,0,0-1.24-.91,2.56,2.56,0,0,0-1.56-3.64,2.24,2.24,0,0,0-.77-2.95,2,2,0,0,0-1.09-2.69A1.73,1.73,0,0,0,9.31,159.34Zm.17-17.28,0,0a2.43,2.43,0,0,0,.29-.18,2.09,2.09,0,0,0,.55-.6,1.76,1.76,0,0,0,.4.29,1.84,1.84,0,0,0,1.74,0A1.84,1.84,0,0,0,15.19,143,1.85,1.85,0,0,0,18,144.5,1.85,1.85,0,0,0,20.74,146a1.85,1.85,0,0,0,2.74,1.5A1.85,1.85,0,0,0,26.27,149a1.84,1.84,0,0,0,2.65,1.6A1.85,1.85,0,0,0,31.61,152a1.85,1.85,0,0,0,2.79,1.42,1.85,1.85,0,0,0,.18.74,2.3,2.3,0,0,0-.71,1,2.25,2.25,0,0,0,0,1.32,1.85,1.85,0,0,0-1.1.67,1.85,1.85,0,0,0-3-.3,1.85,1.85,0,0,0-3.1-.11,1.85,1.85,0,0,0-3.14-.32,1.84,1.84,0,0,0-3.11-.25,1.85,1.85,0,0,0-3.15-.21,1.85,1.85,0,0,0-3.15-.31,1.84,1.84,0,0,0-3.09-.3,1.84,1.84,0,0,0-1.46-.95,1.81,1.81,0,0,0-.87.14,1.8,1.8,0,0,0-.3-.63l-.13-.16a1.69,1.69,0,0,0,.06-2.1l-.07-.09a1.67,1.67,0,0,0,.21-2.07,1.8,1.8,0,0,0,.28-2.44,1.59,1.59,0,0,0-.26-.28,1.59,1.59,0,0,0,.48-1.92l.14-.1A2,2,0,0,0,9.48,142.07ZM31.94,92.28a4.19,4.19,0,0,0,.88-1.41A3,3,0,0,0,37,92.73a3,3,0,0,0,4.36,2.8,3,3,0,0,0,4.27,2.92,3,3,0,0,0,4.26,2.84,3,3,0,0,0,4.36,2.78,3,3,0,0,0,4.1,3,3,3,0,0,0,4.2,2.68,3,3,0,0,0,4.36,2.71,3,3,0,0,0,1.35,2.69l0,0a4.13,4.13,0,0,0-.65.64,2.77,2.77,0,0,0-1.4-.58,4,4,0,0,0-6.67-.22,4.49,4.49,0,0,0-8.09-1,4.53,4.53,0,0,0-7.89.09,4.26,4.26,0,0,0-8,1.33l-.07.1a2.73,2.73,0,0,0-.34-.47,5.27,5.27,0,0,0-4.58-7.29,5.07,5.07,0,0,0,1.18-8.86,4.73,4.73,0,0,0,.13-6.66ZM122.4,73a9,9,0,0,0,.65.94c-.19.09-.37.19-.55.29a7.21,7.21,0,0,0-2.2,2,4.59,4.59,0,0,0-2,0,4.56,4.56,0,0,0-6-4.82,4.57,4.57,0,0,0-5.74-5.28,4.56,4.56,0,0,0-5.79-5.11A4.56,4.56,0,0,0,94.89,56a4.55,4.55,0,0,0-2.15-4.81,8.55,8.55,0,0,0,2.4-2.31,9.17,9.17,0,0,0,.62,1.25,9,9,0,0,0,14.68,1.25l0,0a9.28,9.28,0,0,0,.74,1.57,9.09,9.09,0,0,0,12.45,3.19,8.62,8.62,0,0,0,.75-.5,10.39,10.39,0,0,0,1,2.18A10.52,10.52,0,0,0,127.13,60a8.47,8.47,0,0,0-1.6.75A8.93,8.93,0,0,0,122.4,73ZM42.65,132.08a2.32,2.32,0,0,0-.74.33,5.62,5.62,0,0,0-5-5.56,5.49,5.49,0,0,0,.4-7,2.62,2.62,0,0,0,.44.05,4.26,4.26,0,0,0,4.12,0,2.81,2.81,0,0,0,.7.11,2.73,2.73,0,0,0,1.73-.54,4.51,4.51,0,0,0,1.59,1.06,2.3,2.3,0,0,0,.33.6,2.25,2.25,0,0,0-1.14,3.61,2.25,2.25,0,0,0-1.16,3.68,2.25,2.25,0,0,0-1.26,3.64Zm1.57,29a1.56,1.56,0,0,0-1.41.78l-.17-.09a1.59,1.59,0,0,0-.55-.14,1.55,1.55,0,0,0-.46-.95,1.73,1.73,0,0,0-.23-.18A1.86,1.86,0,0,0,42,160a1.83,1.83,0,0,0,1.49,1,1.9,1.9,0,0,0,.67-.07ZM37,186.66a1.54,1.54,0,0,0-1,2.1,2.84,2.84,0,0,0-1.38.29,3.2,3.2,0,0,0-.19-.3,2.93,2.93,0,0,0-2.12-1.18,1.58,1.58,0,0,0-.17-1.33,1.56,1.56,0,0,0,1.09-2.43,1.56,1.56,0,0,0,1.16-2.4A1.56,1.56,0,0,0,35.5,179a1.56,1.56,0,0,0,1.09-2.43,1.55,1.55,0,0,0,1.21-2.31,1.56,1.56,0,0,0,1-2.34,1.55,1.55,0,0,0,1-2.42,1.57,1.57,0,0,0,1.27-.89,1.6,1.6,0,0,0,.14-.51,1.54,1.54,0,0,0,.41.73,1.55,1.55,0,0,0-.76,2.53,1.57,1.57,0,0,0-1,1.08,1.55,1.55,0,0,0,.31,1.39,1.55,1.55,0,0,0-.55,2.55A1.55,1.55,0,0,0,39,179a1.55,1.55,0,0,0-.66,2.55,1.55,1.55,0,0,0-.64,2.59,1.55,1.55,0,0,0-.72,2.56Z"/><path class="cls-4" d="M45.68,80.64c.76,1,3-.12,5.25-2.33a12.17,12.17,0,0,0,2.83-5.73,7.88,7.88,0,0,0-5.49,2.06C46,76.88,44.93,79.64,45.68,80.64Z"/><path class="cls-4" d="M47.93,71.64c.74,1.05,3.16.08,5.57-2a11.73,11.73,0,0,0,3.22-5.57,8.27,8.27,0,0,0-5.81,1.7C48.46,67.88,47.2,70.59,47.93,71.64Z"/><path class="cls-4" d="M67,33.94a11,11,0,0,0,2.72-6.26,9.86,9.86,0,0,0-6.39,2.61c-2.46,2.57-3.5,5.54-2.48,6.48S64.61,36.4,67,33.94Z"/><path class="cls-4" d="M43.49,90.16c.77.94,2.88-.33,4.88-2.68a12.66,12.66,0,0,0,2.4-5.9A7.47,7.47,0,0,0,45.64,84C43.61,86.39,42.73,89.22,43.49,90.16Z"/><path class="cls-4" d="M50.84,62.58c.71,1.11,3.28.3,5.89-1.61a11.47,11.47,0,0,0,3.61-5.38,8.72,8.72,0,0,0-6.1,1.31C51.58,58.84,50.13,61.47,50.84,62.58Z"/><path class="cls-4" d="M61.63,39.12c-2.58,2.31-3.81,5.13-2.9,6.13s3.61-.1,6.16-2.31A10.93,10.93,0,0,0,68,37.08,9.57,9.57,0,0,0,61.63,39.12Z"/><path class="cls-4" d="M54.21,54.3c.84,1,3.45,0,6-2.19a11.19,11.19,0,0,0,3.21-5.74,9.18,9.18,0,0,0-6.2,1.91C54.63,50.5,53.37,53.28,54.21,54.3Z"/><path class="cls-4" d="M40.56,79c1.1-.45,1.45-3.45.84-6.84a10.32,10.32,0,0,0-3.18-5.54,12.88,12.88,0,0,0-.93,7C38,77.13,39.47,79.47,40.56,79Z"/><path class="cls-4" d="M43.32,69.91c1.17-.37,1.69-3.35,1.23-6.79a10.54,10.54,0,0,0-3-5.78,12.47,12.47,0,0,0-1.34,7C40.73,67.84,42.15,70.29,43.32,69.91Z"/><path class="cls-4" d="M38.69,88.94c1-.52,1.19-3.53.43-6.85a10,10,0,0,0-3.33-5.29,13.4,13.4,0,0,0-.51,7C36.12,87.24,37.67,89.46,38.69,88.94Z"/><path class="cls-4" d="M46.68,60.76c1.23-.29,1.93-3.24,1.63-6.72a10.73,10.73,0,0,0-2.84-6,12.08,12.08,0,0,0-1.75,6.91C44.09,58.5,45.44,61,46.68,60.76Z"/><path class="cls-4" d="M54.72,43c1.33.23,3-2.34,3.79-5.79a11.58,11.58,0,0,0-.88-6.92,10.82,10.82,0,0,0-4,5.87C52.86,39.72,53.4,42.75,54.72,43Z"/><path class="cls-4" d="M50.22,52.33c1.29,0,2.53-2.76,2.87-6.27a11.41,11.41,0,0,0-1.73-6.63,11.31,11.31,0,0,0-3.05,6.4C48,49.45,48.94,52.32,50.22,52.33Z"/><path class="cls-4" d="M40.22,89.79a3,3,0,0,1,1.45.49l.1.08A152.45,152.45,0,0,1,45.44,74.3,156.81,156.81,0,0,1,60.17,37.95a148.8,148.8,0,0,0-16.3,35.47A153.7,153.7,0,0,0,40.22,89.79Z"/><path class="cls-4" d="M86.18,46.78a8.15,8.15,0,0,0,2.71-5.25s-3.92-.32-6.38,1.75S79,47.85,80,48.76,83.73,48.72,86.18,46.78Z"/><path class="cls-4" d="M72.93,65.87c-2.73,1.54-4.29,3.76-3.61,4.76s3.33.44,6-1.06a9.42,9.42,0,0,0,3.8-4.45A9.87,9.87,0,0,0,72.93,65.87Z"/><path class="cls-4" d="M73.71,53.75c1.33.29,3-1.84,3.88-4.8s-.83-6.14-.83-6.15-3.25,1.76-4.06,4.86S72.38,53.45,73.71,53.75Z"/><path class="cls-4" d="M61.84,79.78a136.53,136.53,0,0,0-6.06,20.76,3,3,0,0,1,.13,1,3,3,0,0,1,1.33-.29A135.13,135.13,0,0,1,63.4,80.62,137.24,137.24,0,0,1,79.26,49.73,129.67,129.67,0,0,0,61.84,79.78Z"/><path class="cls-4" d="M69.29,73.43c-2.56,1.71-4,4-3.25,5s3.21.21,5.74-1.46a9.69,9.69,0,0,0,3.46-4.67A9.32,9.32,0,0,0,69.29,73.43Z"/><path class="cls-4" d="M60.61,94.47c.73.85,2.94-.21,5.11-2.2a10.44,10.44,0,0,0,2.76-5.07,8.35,8.35,0,0,0-5.34,1.93C60.94,91.16,59.89,93.62,60.61,94.47Z"/><path class="cls-4" d="M63.35,86.18c.72.91,3.09,0,5.45-1.82a10,10,0,0,0,3.13-4.86A8.85,8.85,0,0,0,66.26,81C63.87,82.9,62.63,85.29,63.35,86.18Z"/><path class="cls-4" d="M69,61.64c1.31.08,2.63-2.26,3-5.31a9.5,9.5,0,0,0-1.65-5.94,9.07,9.07,0,0,0-3.18,5.42C66.84,59,67.69,61.55,69,61.64Z"/><path class="cls-4" d="M76.11,58.55c-2.62,1.77-4,4.12-3.14,5.06s3.5.18,6.09-1.51a8.71,8.71,0,0,0,3.33-4.77S78.73,56.77,76.11,58.55Z"/><path class="cls-4" d="M55.81,93.26c1.06-.43,1.41-3.08.81-6a8.73,8.73,0,0,0-3.12-4.79,10.59,10.59,0,0,0-.87,6.21C53.3,91.67,54.74,93.68,55.81,93.26Z"/><path class="cls-4" d="M80.71,50.87c-2.62,1.82-3.9,4.21-3,5.15s3.64.17,6.23-1.56a8.22,8.22,0,0,0,3.19-4.86S83.32,49,80.71,50.87Z"/><path class="cls-4" d="M58.23,84.58c1.14-.35,1.64-3,1.16-6a9,9,0,0,0-3-5,10.22,10.22,0,0,0-1.23,6.16C55.7,82.81,57.1,84.93,58.23,84.58Z"/><path class="cls-4" d="M65.16,68.82c1.26-.19,2.06-2.73,1.84-5.8a9.48,9.48,0,0,0-2.73-5.45,9.47,9.47,0,0,0-1.94,6C62.61,66.7,63.9,69,65.16,68.82Z"/><path class="cls-4" d="M61.43,76.68c1.2-.27,1.85-2.86,1.5-5.9a9.25,9.25,0,0,0-2.88-5.23,9.8,9.8,0,0,0-1.58,6.08C58.88,74.74,60.23,77,61.43,76.68Z"/><path class="cls-4" d="M78.35,115.77V103.66h22.17v55H86.23V115.77Z"/><path class="cls-4" d="M107.38,119.49a19.88,19.88,0,0,1,6.42-13.27c3.5-3.14,8.39-4.74,14-4.74,9.85,0,17.58,5.69,17.58,16,0,4.38-1.75,9-5.76,11.3,5.83,1.53,9,8.24,9,13.86,0,12-10.43,18.23-21.37,18.23-6.27,0-12-1.68-16.41-6.2-3.28-3.35-6.42-9-6.27-13.86h14.59a7.51,7.51,0,0,0,7.66,7.8c4.38,0,7.66-2.92,7.66-7.37a7.53,7.53,0,0,0-7.58-7.36,9.29,9.29,0,0,0-2.48.44v-9.55h1.46c3.65,0,6.27-2.26,6.27-6.05a5.34,5.34,0,0,0-5.62-5.54c-3.65,0-5.91,2.77-5.83,6.34Z"/><path class="cls-4" d="M116.61,32.54a17.3,17.3,0,0,0,6.65.11c3.55-.66,6-1,7-2.22s1.33-3.32-.44-5.54a44.94,44.94,0,0,0-5.1-5l-.78-.66a8.36,8.36,0,0,1,4.21.55,22.45,22.45,0,0,1,5.54,4.32,12.57,12.57,0,0,1,1.88,5.1c0,1.11.22.77.22.77s4.1-.88,5.54-.66,4.77.22,6.32,1.33,3.66,2.22,4.77,2.22,9.54.33,10.64.11,7.76-.33,9.87-.89a31.48,31.48,0,0,1,5.43-1.22c1.11,0,1.32-.44,2.21-.66a6.06,6.06,0,0,1,3.88.44c1.11.67,5.43,3.44,6.87,4s4.77,2.11,5.21,2.33,3.16-.06,4,.77,1.55,3.66,1.33,5.21,0,4.21-.44,5.76-1.88,5.77-2.11,6.65,1.11,3.11,1.11,4.43-.33,4.21-.33,4.66-.11-.67-.33.77a15.07,15.07,0,0,1-.55,2.55c-.22.77-.22-1-.22-1s-.33-.55-.55.33-.67-.22-.67-.55-.88-.77-.88-1.66-.34,1.11-.34,1.11-.55-.22-.55-2.11a16.22,16.22,0,0,1,1-5.76c.78-2.21,2.77-5.32,2.55-7.32a16.37,16.37,0,0,1,.11-4s-1.89,4.77-2.33,6.54-1.33,5.43-1.89,7.2-.78,5.1.22,6.1,4.21,3.88,4.21,4.88S199.08,76,198.75,78a61.66,61.66,0,0,0-.89,8.31,53.16,53.16,0,0,0,.66,5.65c0,.78-.88-.22-1.22-.22s-1.55.22-1.55,1.22.67,1.11.11,1.66-2.55.78-3.77.78a20.06,20.06,0,0,1-3.66-.66,9.21,9.21,0,0,0,1.78-2.22,5.24,5.24,0,0,1,1.11-2,7.48,7.48,0,0,0,2.33-3c.45-1.44.22-7.1.22-7.1s-2.22,4.43-2.88,6.32-.89,3.66-1.22,4-1.21-1-1.44-.45.89,2.55-.11,2.88-4.44-.11-4.44-.11l-3.44.11s1.88-2.22,2.44-3.1-.22-.89.56-1.22a8.19,8.19,0,0,0,2.1-1.88,11.32,11.32,0,0,0,3.22-6.65,22.57,22.57,0,0,0,0-6.76s-2.33-5-3.33-6-2.11-3.66-2.66-3.66-2.33-.55-2.88-.33-2.55.89-3.88,1.55-6.48,2.83-7,3.32-1.33.78-1.88,1.66-1,1.55-1,1.55-.44-.88-.78-.88-.89.78-.89.78.78-1.22-1.44-1.22-3.55.22-4.66.22A16.79,16.79,0,0,1,152.75,69c-1.44-.77-2-1.11-3.1-1.11s-2.44-.11-2.44-.11a19.08,19.08,0,0,1-.22,3c-.22,1,.55,5.43.55,6.65s-.44,4.55-.44,5,.66,3,.66,4,.55,1.33.22,1.66-1.22.22-1.77.22-.44.22-.44,1.11-.55,1.44-.55,2.22.11,1.22-.44,1.44a15.18,15.18,0,0,1-2.88.44,7.55,7.55,0,0,1-1.33-.33l-.89.89c-.44.44-4.1-.44-4.77-.11s-1.77-.22-1.77-.22l-.55-.11,1.55-1.55a1.7,1.7,0,0,1,.44-1.22c.5-.5,1.11-1.33,2.33-2.55a7,7,0,0,0,1.55-5.43,23.09,23.09,0,0,0-1.55-4.1c-.33-.78-.22-4.11-.89-5.43s-1.55-3.55-1.55-3.55a6.41,6.41,0,0,1-2.77.66c-1.55,0-4.77-2.22-5.43-3.55s-1.94-5.6-3.1-6.76-2-2.11-2-2.11a12.39,12.39,0,0,1-2.44-2.44c-.33-.77-2.33-3.21-2.88-3.21h-2.44a2.5,2.5,0,0,0-1.55.55,1.86,1.86,0,0,1-1.66.78c-.89,0-1.11-.33-1.11-.33a1.69,1.69,0,0,1-1.11.44,15.16,15.16,0,0,1-1.55-.11l-.44-.44a3.54,3.54,0,0,1-1.44.44,2.19,2.19,0,0,1-1.55-.55,2.1,2.1,0,0,1-.33-2.22c.44-.89.88-1.33.88-2.11s.78-2.44.11-3.1a5.77,5.77,0,0,1-1-1.33s-1.11.66-2.55,1.55a5.42,5.42,0,0,1-5,.55c-2.22-.66-2.33-1-2.33-1a3.66,3.66,0,0,1,1.11-2.21c1.05-1.05,2.77-1.44,3.65-2.11s2.72-1.94,3-2.22a6.82,6.82,0,0,0,.67-.89s-.55.22-2.88-.56A17.7,17.7,0,0,1,92.22,34a7.15,7.15,0,0,1-1.88-5.1,9.6,9.6,0,0,1,3.77-5.43c1.89-1.11,5.88-3.32,7.43-3.55a21.73,21.73,0,0,1,3.55-.11s-4.21,2.33-5.88,3.21-4.44,2.77-4.44,3.77S94.22,29,96.1,30.44s4.43,1.66,5.32,1.89,1-.55,1.89-1a8.87,8.87,0,0,1,3.77-1.22c1.44,0,3.55-.44,4.55,0s2.66.89,3.21,1.44A6.07,6.07,0,0,0,116.61,32.54Z"/></g><rect class="cls-6" x="12.64" y="13.51" width="144" height="144" rx="18.78" ry="18.78"/></g></g></g></svg>