<svg xmlns="http://www.w3.org/2000/svg" xmlns:xlink="http://www.w3.org/1999/xlink" viewBox="0 0 155.52 147.9"><defs><style>.cls-1,.cls-6{fill:none;}.cls-2{fill:url(#New_Gradient_Swatch_3);}.cls-3,.cls-7{fill:#fff;}.cls-3,.cls-5{fill-rule:evenodd;}.cls-4{clip-path:url(#clip-path);}.cls-5{fill:#fbb040;}.cls-6{stroke:#be1e2d;stroke-miterlimit:10;stroke-width:1.14px;}</style><linearGradient id="New_Gradient_Swatch_3" x1="82.95" y1="144.57" x2="82.95" y2="0.57" gradientUnits="userSpaceOnUse"><stop offset="0" stop-color="#be1e2d"/><stop offset="1" stop-color="#f15a29"/></linearGradient><clipPath id="clip-path"><rect class="cls-1" x="10.95" y="0.57" width="144" height="144" rx="18.78" ry="18.78"/></clipPath></defs><title>Asset 7</title><g id="Layer_2" data-name="Layer 2"><g id="Layer_1-2" data-name="Layer 1"><g id="_6" data-name="6"><rect class="cls-2" x="10.95" y="0.57" width="144" height="144" rx="18.78" ry="18.78"/><path class="cls-3" d="M20.63,63.9C29.22,61.55,31.91,49.23,43.14,48c2.33,2.66,5.61,4.37,8.07,6.9,4.36.74,8,3.55,11.79,6.21,6.28,4.4,14,4.94,21.4,5a2.17,2.17,0,0,1,.94.21,2.11,2.11,0,0,1,.94-.21,2,2,0,0,1,2,2.25,1.16,1.16,0,0,1,1.26.31c.55,2.11-2.62.5-1.88,2.81,3.66.46,8.44-1.83,11.26-3.76,10.79-1.25,21.22-2.85,27.67-8.44C123,36.54,96.49,32.33,74.1,31.54,68.73,35.88,60.38,37.21,53.46,40c-2.93,3.18-7.56,4.93-13.13,4.22a2.46,2.46,0,0,1,.81-1.39c-1.36-1.72-1.35-4-1.33-6.28a12.56,12.56,0,0,0-.88-5C38.38,33,37.69,34.43,37,35.83a9.06,9.06,0,0,1-.85,5.35c-.79,3.14-3.82,5.2-6.84,6.33a2.25,2.25,0,0,1-.14.28L29,48l.5,0C27.07,53.77,24.39,59.37,20.63,63.9Zm98-13.82c2.72,0,2.72,4.23,0,4.23S115.91,50.08,118.64,50.08Z"/><g class="cls-4"><path class="cls-5" d="M0,105.87c13.33-6.08,18.8-20,35-23.31,5.91,9.79,18.49,14.64,25.89,24.6-1.56,3-7.34,1.72-7.77,5.83,11.6,3,27.55-2.4,40.13,1.29,2.29.07-1.38,2.14.65,1.94,18.9.7,48.18,1.94,60.2-8.41-1.76-12.48-8.88-24.34-16.83-30.43-6.13-4.69-13.64-6.72-21.23-10.06a2.79,2.79,0,0,1-2,.17C101.94,64.34,89.09,65,76.81,66c-6.11.5-12.18,1.29-18.31,1.6a34.8,34.8,0,0,0-8.95,1.22c-2.52.79-5,1.82-7.51,2.54-4.24,1.22-7-.33-10.5-2.69-4-2.7-8-5.52-11.69-8.56-5-4.14-9.1-9.22-14.45-13A14.66,14.66,0,0,0,2.27,45.4C3,46.54,3.72,47.76,4.36,49c2.76,2.66,4.71,6.44,6.57,9.57,2.72,4.56,5.25,8.78,5.71,13.93C23.77,83.18,4,95.45,0,105.87ZM141.08,93.93c3.76,0,3.76,5.83,0,5.83S137.33,93.93,141.08,93.93Z"/></g><rect class="cls-6" x="10.95" y="0.57" width="144" height="144" rx="18.78" ry="18.78"/><path class="cls-7" d="M138.87,90.72l-15.61,18.6.15.14a18.08,18.08,0,0,1,7.66-1.67c10.79,0,17.65,9.26,17.65,19.32,0,13.49-11.08,20.79-23.63,20.79-5.32,0-11.45-1.39-15.68-4.74A20.38,20.38,0,0,1,102,128.06c0-8,4.08-15.68,8.83-21.88l11.82-15.46Zm-5,36.83a8.8,8.8,0,0,0-8.83-9,9,9,0,1,0,0,18.09A8.87,8.87,0,0,0,133.84,127.55Z"/></g></g></g></svg>