<svg xmlns="http://www.w3.org/2000/svg" xmlns:xlink="http://www.w3.org/1999/xlink" viewBox="0 0 147.3 146.9"><defs><style>.a,.e,.g{fill:none;}.b{fill:url(#a);}.c{clip-path:url(#b);}.d{fill:#fff;}.e{stroke:#fff;stroke-width:1.66px;}.e,.g{stroke-miterlimit:10;}.f{fill:#8dc63f;}.g{stroke:#f7941d;stroke-width:1.14px;}</style><linearGradient id="a" x1="73.68" y1="145.8" x2="73.68" y2="1.8" gradientUnits="userSpaceOnUse"><stop offset="0" stop-color="#f7941d"/><stop offset="1" stop-color="#f9ed32"/></linearGradient><clipPath id="b"><rect class="a" x="1.7" y="1.8" width="144" height="144" rx="18.8" ry="18.8"/></clipPath></defs><title>Aichi Biodiversity Target 19</title><rect class="b" x="1.7" y="1.8" width="144" height="144" rx="18.8" ry="18.8"/><g class="c"><path class="d" d="M10.3,43.3V57.8h2.7a2,2,0,0,1,1.4.4,1.2,1.2,0,0,1,.4,1,1.2,1.2,0,0,1-.4,1,2,2,0,0,1-1.4.4h-8a2,2,0,0,1-1.4-.4,1.2,1.2,0,0,1-.4-1,1.2,1.2,0,0,1,.4-1,2,2,0,0,1,1.4-.4H7.6V46.7l-2.4.6-.9.2a1.2,1.2,0,0,1-.9-.4,1.4,1.4,0,0,1-.4-1,1.2,1.2,0,0,1,.3-.8,2.4,2.4,0,0,1,1.1-.5Z"/><path class="d" d="M30.6,50.6v2.9a9.2,9.2,0,0,1-1.5,5,4.8,4.8,0,0,1-4.3,2.4,4.9,4.9,0,0,1-2.7-.7A6.7,6.7,0,0,1,20,57.5a8.6,8.6,0,0,1-1-4V50.6a9.2,9.2,0,0,1,1.5-4.9,4.8,4.8,0,0,1,4.3-2.4,5,5,0,0,1,2.7.7,6.7,6.7,0,0,1,2.1,2.6A8.5,8.5,0,0,1,30.6,50.6Zm-2.7,0a6.2,6.2,0,0,0-1.2-3.8,2.3,2.3,0,0,0-1.9-.9,2.4,2.4,0,0,0-2,1,5.8,5.8,0,0,0-1.2,3.7v2.9a6.1,6.1,0,0,0,1.2,3.8,2.3,2.3,0,0,0,1.9.9,2.4,2.4,0,0,0,2-1,5.8,5.8,0,0,0,1.2-3.7Z"/><path class="d" d="M46.5,50.6v2.9a9.1,9.1,0,0,1-1.5,5,4.8,4.8,0,0,1-4.3,2.4,4.9,4.9,0,0,1-2.7-.7,6.7,6.7,0,0,1-2.1-2.6,8.5,8.5,0,0,1-1-4V50.6a9.2,9.2,0,0,1,1.5-4.9,4.8,4.8,0,0,1,4.3-2.4,5,5,0,0,1,2.7.7,6.7,6.7,0,0,1,2.1,2.6A8.5,8.5,0,0,1,46.5,50.6Zm-2.7,0a6.2,6.2,0,0,0-1.2-3.8,2.3,2.3,0,0,0-1.9-.9,2.4,2.4,0,0,0-2,1,5.8,5.8,0,0,0-1.2,3.7v2.9a6.1,6.1,0,0,0,1.2,3.8,2.3,2.3,0,0,0,1.9.9,2.4,2.4,0,0,0,2-1,5.8,5.8,0,0,0,1.2-3.7Z"/><path class="d" d="M62.4,50.6v2.9a9.2,9.2,0,0,1-1.5,5,4.8,4.8,0,0,1-4.3,2.4,4.9,4.9,0,0,1-2.7-.7,6.7,6.7,0,0,1-2.1-2.6,8.6,8.6,0,0,1-1-4V50.6a9.2,9.2,0,0,1,1.5-4.9,4.8,4.8,0,0,1,4.3-2.4,5,5,0,0,1,2.7.7,6.7,6.7,0,0,1,2.1,2.6A8.5,8.5,0,0,1,62.4,50.6Zm-2.7,0a6.2,6.2,0,0,0-1.2-3.8,2.3,2.3,0,0,0-1.9-.9,2.4,2.4,0,0,0-2,1,5.8,5.8,0,0,0-1.2,3.7v2.9a6.1,6.1,0,0,0,1.2,3.8,2.3,2.3,0,0,0,1.9.9,2.4,2.4,0,0,0,2-1,5.8,5.8,0,0,0,1.2-3.7Z"/><path class="d" d="M78.3,50.6v2.9a9.1,9.1,0,0,1-1.5,5,4.8,4.8,0,0,1-4.3,2.4,4.9,4.9,0,0,1-2.7-.7,6.7,6.7,0,0,1-2.1-2.6,8.5,8.5,0,0,1-1-4V50.6a9.2,9.2,0,0,1,1.5-4.9,4.8,4.8,0,0,1,4.3-2.4,5,5,0,0,1,2.7.7,6.7,6.7,0,0,1,2.1,2.6A8.5,8.5,0,0,1,78.3,50.6Zm-2.7,0a6.2,6.2,0,0,0-1.2-3.8,2.3,2.3,0,0,0-1.9-.9,2.4,2.4,0,0,0-2,1,5.8,5.8,0,0,0-1.2,3.7v2.9a6.1,6.1,0,0,0,1.2,3.8,2.3,2.3,0,0,0,1.9.9,2.4,2.4,0,0,0,2-1,5.8,5.8,0,0,0,1.2-3.7Z"/><path class="d" d="M89.8,43.3V57.8h2.7a2,2,0,0,1,1.4.4,1.2,1.2,0,0,1,.4,1,1.2,1.2,0,0,1-.4,1,2,2,0,0,1-1.4.4h-8a2,2,0,0,1-1.4-.4,1.2,1.2,0,0,1-.4-1,1.2,1.2,0,0,1,.4-1,2,2,0,0,1,1.4-.4h2.7V46.7l-2.4.6-.9.2a1.2,1.2,0,0,1-.9-.4,1.4,1.4,0,0,1-.4-1,1.2,1.2,0,0,1,.3-.8,2.5,2.5,0,0,1,1.1-.5Z"/><path class="d" d="M110.1,50.6v2.9a9.2,9.2,0,0,1-1.5,5,4.8,4.8,0,0,1-4.3,2.4,4.9,4.9,0,0,1-2.7-.7,6.6,6.6,0,0,1-2.1-2.6,8.5,8.5,0,0,1-1-4V50.6a9.2,9.2,0,0,1,1.5-4.9,4.8,4.8,0,0,1,4.3-2.4,5,5,0,0,1,2.7.7,6.7,6.7,0,0,1,2.1,2.6A8.5,8.5,0,0,1,110.1,50.6Zm-2.7,0a6.2,6.2,0,0,0-1.2-3.8,2.3,2.3,0,0,0-1.9-.9,2.4,2.4,0,0,0-2,1,5.8,5.8,0,0,0-1.2,3.7v2.9a6.1,6.1,0,0,0,1.2,3.8,2.3,2.3,0,0,0,1.9.9,2.4,2.4,0,0,0,2-1,5.8,5.8,0,0,0,1.2-3.7Z"/><path class="d" d="M121.6,43.3V57.8h2.7a2,2,0,0,1,1.4.4,1.2,1.2,0,0,1,.4,1,1.2,1.2,0,0,1-.4,1,2,2,0,0,1-1.4.4h-8a2,2,0,0,1-1.4-.4,1.2,1.2,0,0,1-.4-1,1.2,1.2,0,0,1,.4-1,2,2,0,0,1,1.4-.4h2.7V46.7l-2.4.6-.9.2a1.2,1.2,0,0,1-.9-.4,1.4,1.4,0,0,1-.4-1,1.2,1.2,0,0,1,.3-.8,2.5,2.5,0,0,1,1.1-.5Z"/><path class="d" d="M141.9,50.6v2.9a9.1,9.1,0,0,1-1.5,5,4.8,4.8,0,0,1-4.3,2.4,4.9,4.9,0,0,1-2.7-.7,6.6,6.6,0,0,1-2.1-2.6,8.5,8.5,0,0,1-1-4V50.6a9.2,9.2,0,0,1,1.5-4.9,4.8,4.8,0,0,1,4.3-2.4,5,5,0,0,1,2.7.7,6.7,6.7,0,0,1,2.1,2.6A8.5,8.5,0,0,1,141.9,50.6Zm-2.7,0a6.2,6.2,0,0,0-1.2-3.8,2.3,2.3,0,0,0-1.9-.9,2.4,2.4,0,0,0-2,1,5.8,5.8,0,0,0-1.2,3.7v2.9a6.1,6.1,0,0,0,1.2,3.8,2.3,2.3,0,0,0,1.9.9,2.4,2.4,0,0,0,2-1,5.9,5.9,0,0,0,1.2-3.7Z"/><path class="d" d="M153.4,43.3V57.8h2.7a2,2,0,0,1,1.4.4,1.2,1.2,0,0,1,.4,1,1.2,1.2,0,0,1-.4,1,2,2,0,0,1-1.4.4h-8a2,2,0,0,1-1.4-.4,1.2,1.2,0,0,1-.4-1,1.2,1.2,0,0,1,.4-1,2,2,0,0,1,1.4-.4h2.7V46.7l-2.4.6-.9.2a1.2,1.2,0,0,1-.9-.4,1.4,1.4,0,0,1-.4-1,1.2,1.2,0,0,1,.3-.8,2.5,2.5,0,0,1,1.1-.5Z"/><path class="d" d="M14.7,74.9v2.9a9.1,9.1,0,0,1-1.5,5,4.8,4.8,0,0,1-4.3,2.4,4.9,4.9,0,0,1-2.7-.7,6.7,6.7,0,0,1-2.1-2.6,8.5,8.5,0,0,1-1-4V74.9a9.2,9.2,0,0,1,1.5-5,4.8,4.8,0,0,1,4.3-2.4,5,5,0,0,1,2.7.7,6.7,6.7,0,0,1,2.1,2.6A8.5,8.5,0,0,1,14.7,74.9Zm-2.7,0a6.1,6.1,0,0,0-1.2-3.8,2.3,2.3,0,0,0-1.9-.9,2.4,2.4,0,0,0-2,1,5.8,5.8,0,0,0-1.2,3.7v2.9A6.1,6.1,0,0,0,7,81.6a2.3,2.3,0,0,0,1.9.9,2.4,2.4,0,0,0,2-1A5.8,5.8,0,0,0,12,77.8Z"/><path class="d" d="M26.2,67.6V82.1h2.7a2,2,0,0,1,1.4.4,1.2,1.2,0,0,1,.4,1,1.2,1.2,0,0,1-.4,1,2,2,0,0,1-1.4.4h-8a2,2,0,0,1-1.4-.4,1.2,1.2,0,0,1-.4-1,1.2,1.2,0,0,1,.4-1,2,2,0,0,1,1.4-.4h2.7V71l-2.4.6-.9.2a1.2,1.2,0,0,1-.9-.4,1.4,1.4,0,0,1-.4-1,1.2,1.2,0,0,1,.3-.8,2.4,2.4,0,0,1,1.1-.5Z"/><path class="d" d="M42.1,67.6V82.1h2.7a2,2,0,0,1,1.4.4,1.2,1.2,0,0,1,.4,1,1.2,1.2,0,0,1-.4,1,2,2,0,0,1-1.4.4h-8a2,2,0,0,1-1.4-.4,1.2,1.2,0,0,1-.4-1,1.2,1.2,0,0,1,.4-1,2,2,0,0,1,1.4-.4h2.7V71l-2.4.6-.9.2a1.2,1.2,0,0,1-.9-.4,1.4,1.4,0,0,1-.4-1,1.2,1.2,0,0,1,.3-.8,2.4,2.4,0,0,1,1.1-.5Z"/><path class="d" d="M62.4,74.9v2.9a9.1,9.1,0,0,1-1.5,5,4.8,4.8,0,0,1-4.3,2.4,4.9,4.9,0,0,1-2.7-.7,6.7,6.7,0,0,1-2.1-2.6,8.6,8.6,0,0,1-1-4V74.9a9.2,9.2,0,0,1,1.5-5,4.8,4.8,0,0,1,4.3-2.4,5,5,0,0,1,2.7.7,6.7,6.7,0,0,1,2.1,2.6A8.5,8.5,0,0,1,62.4,74.9Zm-2.7,0a6.2,6.2,0,0,0-1.2-3.8,2.3,2.3,0,0,0-1.9-.9,2.4,2.4,0,0,0-2,1,5.8,5.8,0,0,0-1.2,3.7v2.9a6.1,6.1,0,0,0,1.2,3.8,2.3,2.3,0,0,0,1.9.9,2.4,2.4,0,0,0,2-1,5.8,5.8,0,0,0,1.2-3.7Z"/><path class="d" d="M73.9,67.6V82.1h2.7a2,2,0,0,1,1.4.4,1.2,1.2,0,0,1,.4,1,1.2,1.2,0,0,1-.4,1,2,2,0,0,1-1.4.4h-8a2,2,0,0,1-1.4-.4,1.2,1.2,0,0,1-.4-1,1.2,1.2,0,0,1,.4-1,2,2,0,0,1,1.4-.4h2.7V71l-2.4.6-.9.2a1.2,1.2,0,0,1-.9-.4,1.4,1.4,0,0,1-.4-1,1.2,1.2,0,0,1,.3-.8,2.4,2.4,0,0,1,1.1-.5Z"/><path class="d" d="M94.2,74.9v2.9a9.1,9.1,0,0,1-1.5,5,4.8,4.8,0,0,1-4.3,2.4,4.9,4.9,0,0,1-2.7-.7,6.7,6.7,0,0,1-2.1-2.6,8.6,8.6,0,0,1-1-4V74.9a9.2,9.2,0,0,1,1.5-5,4.8,4.8,0,0,1,4.3-2.4,5,5,0,0,1,2.7.7,6.7,6.7,0,0,1,2.1,2.6A8.5,8.5,0,0,1,94.2,74.9Zm-2.7,0a6.2,6.2,0,0,0-1.2-3.8,2.3,2.3,0,0,0-1.9-.9,2.4,2.4,0,0,0-2,1,5.8,5.8,0,0,0-1.2,3.7v2.9a6.1,6.1,0,0,0,1.2,3.8,2.3,2.3,0,0,0,1.9.9,2.4,2.4,0,0,0,2-1,5.8,5.8,0,0,0,1.2-3.7Z"/><path class="d" d="M110.1,74.9v2.9a9.2,9.2,0,0,1-1.5,5,4.8,4.8,0,0,1-4.3,2.4,4.9,4.9,0,0,1-2.7-.7,6.6,6.6,0,0,1-2.1-2.6,8.5,8.5,0,0,1-1-4V74.9a9.2,9.2,0,0,1,1.5-5,4.8,4.8,0,0,1,4.3-2.4,5,5,0,0,1,2.7.7,6.7,6.7,0,0,1,2.1,2.6A8.5,8.5,0,0,1,110.1,74.9Zm-2.7,0a6.2,6.2,0,0,0-1.2-3.8,2.3,2.3,0,0,0-1.9-.9,2.4,2.4,0,0,0-2,1,5.8,5.8,0,0,0-1.2,3.7v2.9a6.1,6.1,0,0,0,1.2,3.8,2.3,2.3,0,0,0,1.9.9,2.4,2.4,0,0,0,2-1,5.8,5.8,0,0,0,1.2-3.7Z"/><path class="d" d="M121.6,67.6V82.1h2.7a2,2,0,0,1,1.4.4,1.2,1.2,0,0,1,.4,1,1.2,1.2,0,0,1-.4,1,2,2,0,0,1-1.4.4h-8a2,2,0,0,1-1.4-.4,1.2,1.2,0,0,1-.4-1,1.2,1.2,0,0,1,.4-1,2,2,0,0,1,1.4-.4h2.7V71l-2.4.6-.9.2a1.2,1.2,0,0,1-.9-.4,1.4,1.4,0,0,1-.4-1,1.2,1.2,0,0,1,.3-.8,2.4,2.4,0,0,1,1.1-.5Z"/><path class="d" d="M137.5,67.6V82.1h2.7a2,2,0,0,1,1.4.4,1.2,1.2,0,0,1,.4,1,1.2,1.2,0,0,1-.4,1,2,2,0,0,1-1.4.4h-8a2,2,0,0,1-1.4-.4,1.2,1.2,0,0,1-.4-1,1.2,1.2,0,0,1,.4-1,2,2,0,0,1,1.4-.4h2.7V71l-2.4.6-.9.2a1.2,1.2,0,0,1-.9-.4,1.4,1.4,0,0,1-.4-1,1.2,1.2,0,0,1,.3-.8,2.4,2.4,0,0,1,1.1-.5Z"/><path class="d" d="M153.4,67.6V82.1h2.7a2,2,0,0,1,1.4.4,1.2,1.2,0,0,1,.4,1,1.2,1.2,0,0,1-.4,1,2,2,0,0,1-1.4.4h-8a2,2,0,0,1-1.4-.4,1.2,1.2,0,0,1-.4-1,1.2,1.2,0,0,1,.4-1,2,2,0,0,1,1.4-.4h2.7V71l-2.4.6-.9.2a1.2,1.2,0,0,1-.9-.4,1.4,1.4,0,0,1-.4-1,1.2,1.2,0,0,1,.3-.8,2.4,2.4,0,0,1,1.1-.5Z"/><circle class="e" cx="83.6" cy="74.9" r="83.4"/><rect class="e" x="14.7" y="20.3" width="137.8" height="137.79"/><path class="f" d="M148.6,46.1a3.3,3.3,0,0,0,1.3-.3l1.3.3c.9,0,1.4-.5,1.4-.9a.6.6,0,0,0-.3-.6l-.9-.2a14.3,14.3,0,0,0-2.2-.5H149l-1.5.2h-.1a1,1,0,0,0-.9-.3h-1l.3-.3.8.2a1.7,1.7,0,0,0,.9-.3h.5c1.1,0,1.8-.6,1.9-1.2a.4.4,0,0,0-.2-.3h-.4a37.1,37.1,0,0,1-3.7-.2l-.6.2a4.3,4.3,0,0,1-2.5,1H142a.9.9,0,0,0-.7.3,8.5,8.5,0,0,1-1.7,1.1l-1.2.6v.2l-.8-.2-.9.2a5.8,5.8,0,0,1-2.7.3,16.2,16.2,0,0,1-4.1-.4,9.5,9.5,0,0,0-2.5-.2l-4.3.2c-2.8.3-2.8,0-4.6.8l-.8.2c-.9,0-1.7-.7-3.2-.8h-2.8l.4-.3a6.6,6.6,0,0,1,1.9-.9,17.6,17.6,0,0,0,3-1.3c2-1.2,2.4-1.3,3.4-1.4a20.1,20.1,0,0,0,4.4-1.4,21,21,0,0,0,5.1-2.7c2-1.7,4-2.5,4.7-3.1a5.4,5.4,0,0,1,1.6-.6c.7-.2,1.4-.5,1.5-1.2a.2.2,0,0,0-.1-.2h.8l1.5-.2a4.5,4.5,0,0,0,1.6-.9l.7-.6,1.3-.5.3-.3h1a2.3,2.3,0,0,0,1.4-.6h.2l.9-.2c1-.1,1.5-.6,1.6-1.1v-.2a.4.4,0,0,0-.5-.3l-.9.2h-1.1a3,3,0,0,0,1.6-.6h.1l1.2-.3c.6-.2.8-.6.8-.9a1.1,1.1,0,0,0-.3-.7h-.2a4.8,4.8,0,0,1-1.5.2,2.1,2.1,0,0,0-1.3.3l-1,.3h-.1a3,3,0,0,0,1.8-.7h.3c1.4,0,2-.7,2-1.2v-.2l-.2-.3a.7.7,0,0,0-.6-.2h-.6a9.7,9.7,0,0,0-2.4.2l-1.5.6h-.5a5,5,0,0,0-1.3.3h-.2l.2-.3h.2a1.9,1.9,0,0,0,1.5-.6,2.1,2.1,0,0,0,2-1.6.5.5,0,0,0-.1-.3h-.6l-3,.7c-.6.1-.9.1-1.2.5a4.2,4.2,0,0,1-2,1.7c-.4.1-.8.1-1.1.6a8.1,8.1,0,0,1-1.3,1.6l-1,.9h-.6c-1.2,0-3.4,1.2-4.5,1.9s-3.3,1-5.5,1.4-4,1.8-4.5,1.9c-3.2.5-3.8,1.7-4.6,2.5a3,3,0,0,1-1.1.8l-3,.7a24,24,0,0,0-7,3,7.6,7.6,0,0,0-3.5-.8,10.9,10.9,0,0,0-3.5.6A3.7,3.7,0,0,0,96,40.5,5.3,5.3,0,0,0,92.1,42l-1-.5.2-.3a.7.7,0,0,0-.2-.6h.1a.9.9,0,0,0,1.1.1c.5-.4,0-.8.1-1.3v-.2l.3.4c.5.4,1-.5,1.1-.8l.2-.4h-.3c-.1.1-.3.1-.4,0a.5.5,0,0,1,.2-.4l.6-.3a1.1,1.1,0,0,0,.3-.8,2.3,2.3,0,0,1,.1-.6c.1-.2.3-.2.5-.2h.3c.3,0,.3-.4.2-.6s.4-.8.3-1.2l-.2-.4h-.1l.3-.5a1.9,1.9,0,0,0,.9-.8c.2-.4.2-1.2-.3-1.3s-1.1.2-1.5-.2a.8.8,0,0,1-.2-.5h0a.5.5,0,0,0,.5-.5.9.9,0,0,0-.2-.5h.2v-.3a.6.6,0,0,0-.6-.7h0a.3.3,0,0,1-.2-.3,1.3,1.3,0,0,0,.6-.9,1.5,1.5,0,0,0-.3-1.1l-.5-.3c-.5-.2-.8.3-1.2.5s-.7-.2-.7-.7.2-1.4-.2-1.9-1.1-.3-1.5-.7a6,6,0,0,0-1.5-1.4,3.4,3.4,0,0,0-1.5-.5h-.4l-.6.2H86l-.6-.2H83.2l-.6-.2a.5.5,0,0,0-.4.5l-.4-.3-.4-.2a1.2,1.2,0,0,0-.9.2,1,1,0,0,1-.8,0,1.2,1.2,0,0,0-1.2.3l-.4.6-.3.5a2.5,2.5,0,0,1-.9.5,2.9,2.9,0,0,0-1,.6,1.7,1.7,0,0,0-.4,1.6v.2H74a1.4,1.4,0,0,0-1,.8,1.1,1.1,0,0,0,0,1h0c-.4.3-.9.2-.9.8h0a1,1,0,0,0-.2,1.8,1,1,0,0,1,.2-.8,2.4,2.4,0,0,0-.1,1.3h0a2,2,0,0,0,.1.8l.2.3c.1.1.5.4.2.6H72c-.5-.3-.9-.2-1.1.1a.7.7,0,0,0,.2.9c.1.1.1.1,0,.3l-.2.4a1,1,0,0,0,.6,1.2l.5.2c-.1-.1-.2-.3-.3-.4a.8.8,0,0,1-.2-.5h.1a.7.7,0,0,0,.7.4h.1c0,.1-.2.3-.5.4a.4.4,0,0,0-.3.3.4.4,0,0,0,.3.4h.4l.5-.4.3-.2s0,.1,0,.1-.2.4-.6.4h-.2v.2a.7.7,0,0,0,.8.2l.3.2h-.3a.6.6,0,0,0-.7.2.5.5,0,0,0,0,.5c.1.1.3.4,1,.3h.1c.1.1.2.1.2,0s0,0,0,0h.1a.3.3,0,0,1,0,.3h-.5l-.5-.2.4.4a1.4,1.4,0,0,0,1,.4.8.8,0,0,0,.5-.4h.3a1,1,0,0,0,.2.6h-.1a1.1,1.1,0,0,0-.4.9.8.8,0,0,0,1.3.4h-.1c-.1-.1-.1-.1-.1-.2s.3-.2.6-.1a1.1,1.1,0,0,0,1.5-.2h.3a2,2,0,0,1-.8.9h-.1a6.5,6.5,0,0,0-2.7.6c-1.2-1.6-3.7-1.6-4.2-1.6a6.9,6.9,0,0,0-3.8-1.1,10.6,10.6,0,0,0-3.5.6l-1-.7A16,16,0,0,0,58,37.1l-2.2-.6c-.9-.2-1.8,0-2.6-.3a5.5,5.5,0,0,1-1.9-1.3A16,16,0,0,0,46.2,32a9.5,9.5,0,0,0-4.1-1.5l-3-.4-1-.2a6.8,6.8,0,0,1-1.8-.7c-1.2-.7-1.9-.6-2.7-1.1l-1.3-.6H32a.2.2,0,0,0-.1-.2l-1-.9a7.5,7.5,0,0,1-1.3-1.6,2.2,2.2,0,0,0-1.2-1.1,6.9,6.9,0,0,1-1.9-1.2,2.3,2.3,0,0,0-1.6-.8h-.2l-2.5.3h-.7a.5.5,0,0,0-.6.5.8.8,0,0,0,.1.4l-1-.2-.9-.2a.6.6,0,0,0-.6.4.7.7,0,0,0-.1.3c0,.6.6,1.2,2.2,1.5l.5.4a3.1,3.1,0,0,0,1.3.4v.2h-.4l-1-.3a2.2,2.2,0,0,0-1.3-.3,4.9,4.9,0,0,1-1.5-.2h-.2a1.1,1.1,0,0,0-.3.7c0,.3.2.7.8.9l1.2.3h.2a3,3,0,0,0,1.6.6H20.8l-.9-.2a.4.4,0,0,0-.5.3v.2c0,.5.5,1,1.6,1.1l.9.2H22a2.3,2.3,0,0,0,1.4.5h1l.3.3,1.3.5.7.6a4.5,4.5,0,0,0,1.6.9l1.5.2h.6a.2.2,0,0,0,0,.1c.3.7,1.6,1.3,2.9,2a32,32,0,0,1,3.1,1.5h.1c1,.7,5.1,3.6,9.2,4.3.5.1,1.3.9,2.3,1.1a14.4,14.4,0,0,1,2.7,1c.7.3,3.5,1.9,5.2,1.9a6,6,0,0,1,2.5.8,12.1,12.1,0,0,0-2.6-.3l-2.3.3a17.2,17.2,0,0,1-3.5.6h-.9a14,14,0,0,0-3-.9h-.9a3.2,3.2,0,0,0-1.3.3l-.9.2h-.4a27.9,27.9,0,0,0-3.9-.3,14.3,14.3,0,0,0-3.3.3l-1.6.2-2-.2-1.4-.2-1,.3-1.5-.6a8.9,8.9,0,0,1-2.1-1.2.9.9,0,0,0-.7-.3h-.5a4.2,4.2,0,0,1-2.5-1.1l-.6-.2a34.1,34.1,0,0,1-3.7.3h-.4a.4.4,0,0,0-.2.3c0,.6.8,1.2,1.9,1.2h.5a1.7,1.7,0,0,0,.9.3l.8-.2.3.3h-1a1,1,0,0,0-.9.3H18.2a13.9,13.9,0,0,0-2.2.5l-.9.2a.6.6,0,0,0-.3.6c0,.4.5.9,1.4.9l1.3-.3a3.3,3.3,0,0,0,1.3.3H18c-.6,0-1.6.4-2.3.4h-.3a1.1,1.1,0,0,0-.1.5c0,.4.3.8,1,.8h1.4l1.1.2.8-.2h.2l-1.5.3h-.9a.5.5,0,0,0-.4.4h0c0,.5.5.8,1.3.8H20l.9.2h1.5a1.5,1.5,0,0,0,1.2.3h.6l.9.4a4.5,4.5,0,0,0,1.7.4c1.2,0,2.1-.2,2.4-.8h.1a.3.3,0,0,0,.2.3l.9.3a7.1,7.1,0,0,0,1.9.3h1c1.1,0,2.7.8,4.1,1s2.8,1.2,4.8,1.2h1.1l2.4-.4,1.4.2h.6c1.1,0,1.5-.5,2.1-.5s2.3.3,4,.3l1.9-.2,1.1-.2.5.2,1.2.5a11.5,11.5,0,0,0,2.8.3,28.9,28.9,0,0,0,4.3-.3h.5c1,0,1.5.6,2.3,1.8a5.5,5.5,0,0,0,1.4,3.4,3.2,3.2,0,0,1,.8,2,4.6,4.6,0,0,0,.4,2.1c.7,1.3,0,3.3,2.3,7.3-.3.7-1.5,4.1-1.5,5.6a1.6,1.6,0,0,0,0,.3v.6a3.4,3.4,0,0,0,.4,1c-.4.4-1,1.4-1.6,4.1l-.4,1.8a10.3,10.3,0,0,0-.4,1.4,6.6,6.6,0,0,1-.6,1.3c-.3.5-2.9,5-3.8,6.1a9.8,9.8,0,0,0-1.2,3.3,13.8,13.8,0,0,1-1,3.2,18.9,18.9,0,0,0-2.1,7.3,5.2,5.2,0,0,0,0,.6,4,4,0,0,0-.7,1.6l-.3.6a2.9,2.9,0,0,1-.9,1h-.1s-1.9,1.9-2.3,3.4-5.9,6.7-6.8,8.2a23.6,23.6,0,0,0-2.7,6.6c-.8,3-1.7,4-2.2,7.2-.2,1.6-.5,2.9-.7,3.8l-.3,1.1v.3h0l-.7,1.1a6.6,6.6,0,0,0-.6,1.6c0,.2-.1.2-.4.3a1.4,1.4,0,0,0-1,.6c-.2.4-.4.5-.7.5h-.8a2.4,2.4,0,0,0-1.2.4,1.4,1.4,0,0,0-.7,1,.9.9,0,0,0,.5.7c1.1.7,4.6,2.8,7,4l.7.2h0a.9.9,0,0,0,.8-.8c0-.2.5-.5.5-1.1h0c0-.2,0-.4,0-.7a1.5,1.5,0,0,0,0-.4h0c0-.2.2-.5.4-.7a.9.9,0,0,0,.2-.5v-.2a.8.8,0,0,1,.1-.4,5.3,5.3,0,0,0,.8-2.9,8.4,8.4,0,0,1,2-5,34.5,34.5,0,0,0,3.1-5.1,10.4,10.4,0,0,0,2.5-3.3l.6-.9a18.3,18.3,0,0,0,1.5-3.4c.7-1.9.7-2.4,1.3-3.2a7.9,7.9,0,0,0,1.3-2.5l.6-.7c1.2-1.1,3.5-2.8,4.1-3.9h0l.4-.5a1.2,1.2,0,0,0,.4-.6,3.4,3.4,0,0,1,.8-1,18.7,18.7,0,0,0,2.8-5v.6c.2,2.3.5,4.4,1.2,5.5a4.2,4.2,0,0,0,.4,2h0v.2c0,1.2-1.2,5.4-1.2,7.8,0,.9,0,1.5,0,1.9a7.4,7.4,0,0,1-.6,2.3,19.1,19.1,0,0,0-1,6.2A18.1,18.1,0,0,0,71,140a21.4,21.4,0,0,0,4,9.3l.2.5a4.5,4.5,0,0,1,.2,1.3,3.6,3.6,0,0,1-.1.9,5.1,5.1,0,0,0-.2,1.2,1.3,1.3,0,0,0,.3.8,1.5,1.5,0,0,0-.8.8,1.8,1.8,0,0,0-.1.5,2.3,2.3,0,0,0,.6,1.6v.2a1.1,1.1,0,0,0,.9,1.1,1.5,1.5,0,0,0,1.1.4,1.4,1.4,0,0,0,1.1.5h1.7a1.6,1.6,0,0,0,1.1.4H81l.5-.2.5-.3a1.6,1.6,0,0,0,1,.3h.8l.8-.2a.9.9,0,0,0,.6-.9h0a2.4,2.4,0,0,0-.1-.5l.4.5.8.5a5.2,5.2,0,0,0,2,.3c1.2,0,1.6-.9,3.3-.9H92c2.2.2,2.6.9,4.9.9a4.2,4.2,0,0,0,1.9-.3l.3-.3.7.2.7-.2.3-.2a1.5,1.5,0,0,0,1,.3h.5l1-.3h.9a.7.7,0,0,0,.4-.6.9.9,0,0,0-.2-.5,1.5,1.5,0,0,0,0-.3,2,2,0,0,0-.1-.5,1.4,1.4,0,0,0-.2-.6h0l-.4-.2c-.4,0-.7.3-1.1.3h-1.7a10.5,10.5,0,0,1-2.7-.6h-.9a1.4,1.4,0,0,1-.9-.4c-.7-.7-1.5-.8-2.2-1.2a3.1,3.1,0,0,0-.8-.5,3.2,3.2,0,0,1-1.7-1.6l-.4-.8a12,12,0,0,1-.5-1.8,24.5,24.5,0,0,1-.5-5.2c0-.5,0-1,0-1.5s.1-2.9.1-4.2c0-5.6-.6-8.8-.6-10.3a3.1,3.1,0,0,1,.1-.7,6.5,6.5,0,0,1,.4-1.2,1.9,1.9,0,0,0,.2-.9,1.8,1.8,0,0,1,.3-.9,2.1,2.1,0,0,0,.3-1.1c-.1-.5.8-1.2.8-2.6s-.3-1.6-.3-2.4a4.5,4.5,0,0,1,.2-1.3,5.6,5.6,0,0,0,.2-1,3.3,3.3,0,0,1,.5-1.1c.8-1.3.9-3.6,1.6-5.9a17.3,17.3,0,0,0,1.2,2.4,2.7,2.7,0,0,1,.6,1.2,2.3,2.3,0,0,0,.7,1.2c0,.5.3,2.1,2.2,4.5a28.3,28.3,0,0,0,1.9,5.4c.9,1.5-.1,4.7,3.3,8.2a10,10,0,0,0,2,1.5c0,.8.3,3.8,4.5,7.6s3.9,7.1,4.6,8.8a2.9,2.9,0,0,0,2.5,2h.1a2.9,2.9,0,0,0,1.6-.7l.7-.7c.9-1.1,1.5-1.3,2-1.3l1,.2h.7l5.5-3.3a2,2,0,0,0,.8-.8,1.5,1.5,0,0,0,.2-.7,1.5,1.5,0,0,0-.1-.6c-.2-.5-.5-.8-.9-.8h-.4a.8.8,0,0,0-.8-.5h-.6l-1.2.4-.6.2h-.2a2.5,2.5,0,0,0-1.2.4h-2.8c-.7,0-1.9-.3-3.1-2.3s-4.5-13.4-6.9-17.2a38.4,38.4,0,0,0-2.8-3.9,3.3,3.3,0,0,1-1-2,2.6,2.6,0,0,0-.1-.9,1.6,1.6,0,0,0-.3-.5,1.9,1.9,0,0,1-.2-1,2,2,0,0,0-.3-1,2,2,0,0,1-.2-1.1c0-1.5-1.1-2.3-1.4-3.2h0v-.2a7.1,7.1,0,0,1-.7-3.2,8.6,8.6,0,0,1,.1-1,8.2,8.2,0,0,0,0-.8c0-2.5-1.3-4.4-1.4-5.2a33.9,33.9,0,0,0-1.7-5.7,6.6,6.6,0,0,0-1.5-2.3,3.7,3.7,0,0,1-1.1-1.8,5.6,5.6,0,0,0-1-1.8,6.5,6.5,0,0,1-.6-3.3,7.8,7.8,0,0,0-.9-3.9,6.4,6.4,0,0,1-1-2.8l-.2-.8a4.3,4.3,0,0,0-.3-.9,2.6,2.6,0,0,0,.6-1V75a4.5,4.5,0,0,0,.1-.9,5,5,0,0,0-.3-1.9,7.6,7.6,0,0,1-.4-1.8,8.1,8.1,0,0,0-.3-1.6v-.2a4,4,0,0,0,1.2-2.3,31.6,31.6,0,0,1,.6-3.2,2.3,2.3,0,0,1,.5-1.3,4.3,4.3,0,0,0,.6-2.2,4.8,4.8,0,0,1,.4-1.9,6.6,6.6,0,0,0,.8-1.8,15.5,15.5,0,0,0,1.6-2.7,2.3,2.3,0,0,1,1-.6,4,4,0,0,0,1.5-.9h.4a5.1,5.1,0,0,0,3,.7h1.1l2.2-.2h.4l2.5.2h2a8.4,8.4,0,0,0,2.3-.3l.9-.3h.1l1.8.4a7,7,0,0,0,1.8.2l1.8.2h1.3a25,25,0,0,0,8.6-1.7h1.2l2.1-.2,1.8-.3a1.2,1.2,0,0,0,1-.6.3.3,0,0,0,0-.2,3.1,3.1,0,0,0,2.3.7,4.4,4.4,0,0,0,1.7-.4l.9-.4h.6a1.5,1.5,0,0,0,1.2-.3h1.5l.9-.2h1.7c.7,0,1.1-.3,1.2-.6h0v-.2c0-.3-.2-.4-.4-.4H149l-1.5-.3h.2l.8.2,1.1-.2h1.4c.8,0,1.1-.5,1-.8a1.1,1.1,0,0,0-.1-.5h-.3c-.7,0-1.7-.4-2.3-.4h-.7Z"/><path class="f" d="M83.6,155.5l-.3-.2-.5-.4c-.1-.1-.1-.2-.2-.6a2.1,2.1,0,0,0-.5-.9,1.1,1.1,0,0,1-.3-.8,2.7,2.7,0,0,1,0-.4,1.5,1.5,0,0,0,0-.4,2.8,2.8,0,0,0-.9-2,6.3,6.3,0,0,1-1.5-4.6c0-.2,0-.4,0-.6s0-.6,0-.9c0-2.8-.7-3.6-.7-4.7a4,4,0,0,1,.1-.9,16.4,16.4,0,0,0,.3-3.4,14.9,14.9,0,0,0-.3-3.2c-.2-1-.5-1.9-.8-2.9a4.3,4.3,0,0,1-.2-1.2,5.7,5.7,0,0,1,.2-1.6l.3-1.2v-1l.3-.8a2.7,2.7,0,0,0,.4-1.1.8.8,0,0,0-.1-.3,3.1,3.1,0,0,0,.4-1.6,3.5,3.5,0,0,0,0-.4,2.2,2.2,0,0,0,.7-1.1,1.8,1.8,0,0,0,.1-.5,1.3,1.3,0,0,0-.1-.4,9.5,9.5,0,0,0,.7-3.7,9.7,9.7,0,0,0-.3-2.2,7.3,7.3,0,0,1-.2-1.6,16.3,16.3,0,0,1,1.3-5.6c0,.5,0,1,0,1.5a7.7,7.7,0,0,0,.5,3.4,4,4,0,0,1,.4,2,15.7,15.7,0,0,1-.2,2.2,24.3,24.3,0,0,0-.4,3.3,5.7,5.7,0,0,0,.2,1.6,2.9,2.9,0,0,1,.1.8,6,6,0,0,1-.2,1.5,10.6,10.6,0,0,0-.6,2.3h0c0,.4.1.7.1,1h0v.5c-.5,2.9-1.4,5.7-1.4,8.7A12.5,12.5,0,0,0,81,137a8.4,8.4,0,0,0,1.5,3,14.7,14.7,0,0,0-.2,2.2,16.8,16.8,0,0,0,1.2,6.4Z"/></g><rect class="g" x="1.7" y="1.8" width="144" height="144" rx="18.8" ry="18.8"/><path class="d" d="M67.4,104.1V91.9H89.6v55H75.3V104.1Z"/><path class="d" d="M102.6,146.9l15.7-18.5h-.1a18.2,18.2,0,0,1-7.7,1.7c-10.8,0-17.7-9.3-17.7-19.4,0-13.5,11.1-20.8,23.6-20.8,5.3,0,11.4,1.3,15.7,4.7a20,20,0,0,1,7.4,15.2c0,7.9-4.1,15.6-8.8,21.9l-11.7,15.4Zm5-36.8a8.8,8.8,0,0,0,8.8,9,9,9,0,1,0,0-18.1A8.8,8.8,0,0,0,107.7,110.1Z"/></svg>
