<svg xmlns="http://www.w3.org/2000/svg" xmlns:xlink="http://www.w3.org/1999/xlink" viewBox="0 0 155.29 162.84"><defs><style>.cls-1,.cls-6{fill:none;}.cls-2{fill:url(#New_Gradient_Swatch_3);}.cls-3{clip-path:url(#clip-path);}.cls-4{fill:#fbb040;}.cls-4,.cls-5{fill-rule:evenodd;}.cls-5,.cls-7{fill:#fff;}.cls-6{stroke:#be1e2d;stroke-miterlimit:10;stroke-width:1.14px;}</style><linearGradient id="New_Gradient_Swatch_3" x1="72.57" y1="144.57" x2="72.57" y2="0.57" gradientUnits="userSpaceOnUse"><stop offset="0" stop-color="#be1e2d"/><stop offset="1" stop-color="#f15a29"/></linearGradient><clipPath id="clip-path"><rect class="cls-1" x="0.57" y="0.57" width="144" height="144" rx="18.78" ry="18.78"/></clipPath></defs><title>Asset 11</title><g id="Layer_2" data-name="Layer 2"><g id="Layer_1-2" data-name="Layer 1"><g id="_10" data-name="10"><rect class="cls-2" x="0.57" y="0.57" width="144" height="144" rx="18.78" ry="18.78"/><g class="cls-3"><path class="cls-4" d="M110.34,71.41c-.58,0-.67-.44-1.12-.56,0,.6-.1,1.14-.65,1.21-.08.44-.06,1-.65.93a1.32,1.32,0,0,1-.74,1.11c0-.58-.73-.74-.37-1.4a.35.35,0,0,1-.37-.37c0-.26.44-.12.37-.46-.14-.14-.53,0-.46-.37a.58.58,0,0,0,.28-.84c.34-.09.74-.13.93-.37-.06-.13-.36,0-.37-.19.26-.23.4-.59.65-.84-.46-.75.23-1.59.38-2.51-.58,0-.68-.5-1.12-.65-.13,0-.18.13-.37.09,0,.72-.41,1-.65,1.49-.65,0-.78-.46-1-.84.18-.33.51-.43.37-.93.3,0,.36-.27.74-.19a3.19,3.19,0,0,0-.37-.93c-.62.09-.76-.29-1.21-.37,0,.27,0,.52-.37.46v-.84c-.92-.57-1.2-3.23-2.6-2.14.33.7,0,1.28,0,1.77,0,.12.2.06.28.28s0,1.07-.28,1c-.26-.3-.58-.53-.65-1h-.46c-.06-.62-.55-.82-1.12-.93-.29.51,0,1-.19,1.67.23.18.37-.08.65.09-.1.35.2.3.28.46s-.17.2-.09.46a1.87,1.87,0,0,1,.74,1.31h-.37c0,.58.24.48.09,1-.42,0-.32.43-.46.65a1,1,0,0,1-.65-.84,3.22,3.22,0,0,1-.93-.09c-.26.83.66,1.91-.37,2.33,0,.17.1.21.09.37-.25,0-.55-.05-.56.18a6.85,6.85,0,0,0,1.58,1.49c-.06,1.37-2,.75-2.6.84-.13.06,0,.36-.19.37s-.12-.44-.46-.37c-.11.36-.49,0-.74.28-.07-.31-.46-.23-.56-.28,0-.22.27-.1.28-.28-.62-1,.84-1.27.84-2a.58.58,0,0,0,.46,0c-.08-.48.3-.51.74-.46,0-.42.13-.52.74-.47.73-.86-.5-2,.19-2.79-.51,0-.12-.55-.28-1-.91-.52-2.24-.61-2.61-1.68h-.65c0,.35.18.44.28.65a1.54,1.54,0,0,0-.09,1.67.51.51,0,0,0-.37.09,2.39,2.39,0,0,1-1.77,3.25c-.24-.07-.55-1-.65-1.11-.42-.44-.34.07-.28-.47s.41-.75.56-1.12c.2.14.52.17.56.46.57-.24.73.27,1.3.28-.07-.28.09-.34.09-.56-.68-.28-1.16-.6-1.21-1.3H93a1.38,1.38,0,0,1,0-.74c-.67-.36-1.56.25-2,.65-.23-.14-.31-.38-.65-.19-.11.3.29.57,0,.74-.21-.16-.22-.52-.28-.84-.3-.07-.67-.07-.56-.56-.67-.36-1.37.39-2,0,0-.55.44-.68.47-1.21-.64,0-1.18.51-2,.28.1,1.13.13,2.31-1.3,2.33-.22.37-.34.84-.93.84a7.09,7.09,0,0,0-.84,2.88,1,1,0,0,0-.56,1,2.47,2.47,0,0,1,.93,1.77c.28.06.54.14.56.46-.29.91-.25,2-.84,2.79-1-.35-1.75,0-2.61-.28-1.05.79.27,2-.09,3.53a6.87,6.87,0,0,1,1.21,3.35,4.39,4.39,0,0,1,1.77,1.49,8,8,0,0,1,2.88,1.67c-.33,1.14,1.64,1.93.56,3a2,2,0,0,0-1.49.74c.25.26.72.54.46,1a17.23,17.23,0,0,1,5.86,5.58c.07.25-.18.19-.19.37.67.88.53,2.57.37,3.91,1.32.07,2.46.54,3.54-.19q.5,0,.47.47a9.86,9.86,0,0,1,3.35-.19.69.69,0,0,0,.09-.84c.24-.25.4-.59.93-.56.07-.76.65-.63,1.4-.56.13-.47-.34-.64-.09-.93.41.06.48.27.93.09,0,.27.21.29.19.56,1-1,3-1.51,3.07-3.25-.35-.14-1.12-.06-.74-.65-.53-.1-.55.32-.93.37.08-.26-.13-.24-.09-.46,1.33-1,2.26-2.8,4.65-3,.08-1.71.11-3.4-1.12-4.37.31-.78.37-1.8.93-2.33.65,0,.91-.39,1.3-.65,0-.49-.21-.84-.65-.93a1.66,1.66,0,0,1,1-1.67c-.54-1-.21-2.45-1.21-3.07-.08.44-.59.47-.56,1a.61.61,0,0,0-.47.09,2.44,2.44,0,0,1-.93,1.58c0,.46,0,.91-.46.84a1.87,1.87,0,0,1-.37-2.23c-.26,0-.27-.23-.28-.47.51-.06.47-.73.65-1,.22,0,.2.17.46.09,0-.24,0-.44.56-.37.16-.31,0-.41,0-.84.93-.31.95-1.54,1.86-1.86-.31-.39.27-.59,0-1,.33,0,.43-.31.74-.37C110.21,73,110.69,72.69,110.34,71.41ZM94.25,74.85c.56.4,1-.24,1.4.28.25,0,.31-.13.28-.37A1.61,1.61,0,0,0,97,74.57c.27.1.34.4.84.28-.29.61-1.56-.2-2,.56-.64-.22-1.24.26-2,0C93.84,75.06,94.07,75,94.25,74.85Zm2.42,5.3c-.14.32-.6.45-.93.74-.31-.34-.31-1-1-.93.22-.66-.2-.86.09-1.49h.37c-.1-.29,0-.21,0-.56.26,0,.39-.17.65-.19-.06-.5.38-.48.28-1h.37c-.07-.35.29-.41.28-.93H97c.16.68-.41,1.32-.46,2.23C96.53,78.75,96.93,79.53,96.67,80.15Zm-8.84-9.86c1.22,0,2.41.43,2.42,1.3a2.27,2.27,0,0,1,.93,1.3c-.08,0-.17.08-.18.19-.67-.22-1.63,0-2-.65a.26.26,0,0,0-.19.28c-.52-.18-.9-.78-1.49-.37C87.32,71.33,87.89,71.28,87.83,70.29ZM84,70.94a6.4,6.4,0,0,0,.28-2.33c.25-.13.59-.16.47-.65.33,0,.58-.11.74.19.21-.13.3-.38.46-.56.11,0,.17,0,.19.09.08,1.29-.86,2.36-1.3,3.44C84.45,71.12,84.46,70.66,84,70.94Zm2.51,10.14a.63.63,0,0,0,.46.56c.12.49-.19.55-.18.93a1.67,1.67,0,0,1-1.58-1c-1.12-.13-.83-2.33,0-2.89,0-.22-.17-.2-.09-.47a7.56,7.56,0,0,1,.65-.46c0-.29-.29-.27-.19-.65a6.82,6.82,0,0,1,1.21,2.14,1.59,1.59,0,0,0-1,.37c.13.12.06.44.19.56.46,0,.46-.09.84,0-.28.47.4.44.37.93C87,81.27,86.74,81.13,86.53,81.08Zm2-4.28c-.08-.26.13-.24.09-.47h.28C88.77,76.53,88.85,76.9,88.48,76.8Zm.46-.74c0-.29.38-.18.47-.37-.22-1.26-1.75-1-2.6-.93.08-.59-.17-.65-.19-1.49.28,0,.33.29.74.18-.07.28.09.34.09.56.43.09.45-.23.84-.18,0,.27.21.28.18.56.31,0,.46-.16.84-.09,0,.18.2.23.19.46a1.78,1.78,0,0,1,.75.09c.06.34.16.65.56.65C90.33,76,89.67,75.78,88.95,76.06Zm2.23,8.28c.05.19.23.26.19.56-1.56.47-.94-1.06-.46-1.67.39.11.71.28.74.74S91.32,84.2,91.18,84.34Zm4.56,0c-.44.07-.64-.11-1-.09-.07,0-.09.09-.19.09-.07.57.37.62.84.65,0,.47.51.6.19,1.11-.8-.29-.69.36-1.3.46a.81.81,0,0,0,.09.56c.48,0,.69-.15,1.12,0,0,.48-.7.35-1,.56-.12.43.17.45.28.65-.28.56-.19,1.48-.65,1.86-.09.68.34,1.37-.28,1.58a2.26,2.26,0,0,0-.37-.74,1,1,0,0,0-.84,1.4C92,92,91.33,90.68,91.92,90c0-.21-.27-.1-.28-.28a2.86,2.86,0,0,0,.84-.93c-.11-.17,0-.54-.19-.65.27-.38.88-.42,1.21-.74-.54-.29.11-1.27-.46-1.4-.08-.3.31-.13.28-.37s-.41,0-.37-.28a3.17,3.17,0,0,0,1-1.67c-.1-.25-.38-.31-.74-.28,0-.38-.1-.59-.47-.56-.07-.28.26-.18.19-.47s-.45-.36-.56-.65.15-.41.28-.56c.49.49.84-.14,1.4.28-.29.48.28.56.28,1a6.59,6.59,0,0,1,1.12,0c-.14.61.28.65.46.93C95.72,83.8,95.42,83.84,95.74,84.34ZM97,97.27c-.92-.27-.08-1.34-.65-1.77.12-.38.24-.76.65-.84-.38-.38.21-1,.84-.93C98,95,97.83,96.62,97,97.27Zm6.33-27.72c0-.29-.29-.21-.18-.56s.66,0,.56-.47c.5.29.25.77.56,1.21-.55-.36-.41.43-.84.47-.07-.25.18-.19.18-.37s-.24.25-.37.28-.29-.15-.46-.19A.66.66,0,0,1,103.36,69.55Zm-.74,5.3c-.26-.29-.12-.49,0-.84.38,0,.59-.09.56-.46.22,0,.2.17.46.09,0,.84.19,1.29-.18,2-.42-.49-.84-.05-1.4-.37C102.11,75,102.42,75,102.62,74.85Zm-1.86,8.47c.26-.13.65-.47.93-.28,0-.32-.57-.06-.56-.37a2.33,2.33,0,0,1,.93-.74c.07-.29-.16-.27-.09-.56.33-.17.84-.15.75-.74.53.25.27.85.28,1.49-.12-.13-.4-.09-.65-.09-.09,1.1-.47,1.13-.74,2.6-.44.26-.48-.29-1-.18C100.78,84.07,101.08,83.71,100.76,83.32Zm.09-5a.9.9,0,0,1,.19-1.4c0-.28-.33-.22-.28-.56.36-.35.69.09,1.21.09.1.24.06.62.56.47,0,.34-.37.38-.28.84-.76,0-1,1.13-1.86,1.3C100.37,78.62,100.78,78.62,100.85,78.29Zm.65,14.42a2.1,2.1,0,0,1-.84-.19,1.82,1.82,0,0,1,1.77-1.4C102.32,91.85,101.77,92.14,101.51,92.71Zm2.88-4.37c-.57,0-.67.45-1,.65-.6,0-.82-.29-1.3-.37-.43.1-1.25.93-1.49.1.61-.1.84-.59,1.58-.56,0-.54-.57-.48-.74-.84.29-.18.23-.7.83-.56,0-.34-.13-.36,0-.65.25,0,.53,0,.65.09a6.84,6.84,0,0,1,.37-1.11h.65c.08-.3-.24-.2-.28-.37,0-.33.36-.32.47-.56.5.16.31,1,.84,1.12A9.26,9.26,0,0,1,104.39,88.34Z"/><path class="cls-4" d="M155.09,45.77c-1,0-1.11-.73-1.84-.92,0,1-.17,1.87-1.07,2-.13.73-.09,1.64-1.07,1.53a2.2,2.2,0,0,1-1.23,1.84c0-1-1.19-1.22-.61-2.3a.57.57,0,0,1-.61-.61c0-.44.73-.19.61-.77-.23-.23-.87,0-.77-.61a.94.94,0,0,0,.46-1.38c.56-.16,1.22-.21,1.53-.61-.1-.21-.59,0-.61-.31.43-.38.66-1,1.07-1.38-.76-1.23.37-2.62.62-4.14-1,0-1.12-.82-1.84-1.07-.21,0-.29.22-.61.15,0,1.18-.68,1.67-1.07,2.45-1.07.05-1.28-.76-1.68-1.38.3-.55.84-.71.61-1.53.5,0,.59-.43,1.22-.31a5.33,5.33,0,0,0-.61-1.53c-1,.15-1.26-.48-2-.61,0,.45-.06.86-.61.77V33.67c-1.52-.94-2-5.32-4.29-3.52.54,1.15-.08,2.11,0,2.91,0,.2.34.1.46.46s0,1.77-.46,1.68a3.19,3.19,0,0,1-1.07-1.68h-.76c-.11-1-.9-1.35-1.84-1.53-.47.84-.05,1.66-.3,2.76.38.29.6-.13,1.07.15-.16.57.32.5.46.77s-.28.33-.15.77a3.06,3.06,0,0,1,1.23,2.15h-.61c-.06,1,.4.8.15,1.69-.69-.08-.52.7-.77,1.07A1.71,1.71,0,0,1,137,39.94a5.32,5.32,0,0,1-1.53-.15c-.42,1.37,1.08,3.15-.61,3.83,0,.29.18.34.15.61-.41,0-.9-.09-.92.31a11.5,11.5,0,0,0,2.6,2.45c-.1,2.26-3.27,1.23-4.29,1.38-.21.09,0,.59-.31.61s-.19-.73-.77-.61c-.19.6-.81,0-1.22.46-.12-.5-.76-.38-.92-.46,0-.35.44-.17.46-.46-1-1.63,1.39-2.09,1.38-3.37a1,1,0,0,0,.76,0c-.13-.8.49-.84,1.22-.77-.06-.7.21-.85,1.23-.77,1.2-1.42-.83-3.24.31-4.59-.84-.07-.19-.9-.46-1.69-1.49-.86-3.69-1-4.29-2.75h-1.07c-.07.58.3.72.46,1.07a2.54,2.54,0,0,0-.15,2.76.86.86,0,0,0-.61.15c.82,2.46-.55,5.09-2.91,5.36-.39-.12-.91-1.67-1.07-1.84-.7-.72-.55.12-.46-.76s.68-1.23.92-1.84c.32.24.85.27.92.76.94-.4,1.2.44,2.15.46-.11-.47.15-.56.15-.92-1.12-.47-1.9-1-2-2.15h.46a2.27,2.27,0,0,1,0-1.23c-1.11-.59-2.57.42-3.37,1.07-.38-.24-.51-.62-1.07-.31-.18.5.47.94,0,1.22-.35-.26-.36-.86-.46-1.38-.49-.12-1.1-.13-.92-.92-1.1-.6-2.25.64-3.37,0,0-.91.72-1.12.77-2-1,0-1.94.83-3.22.46.16,1.86.22,3.81-2.15,3.83-.36.62-.56,1.38-1.53,1.38a11.74,11.74,0,0,0-1.38,4.75,1.65,1.65,0,0,0-.92,1.69c.7.78,1.52,1.44,1.53,2.91.46.1.88.24.92.77-.26.82-.37,1.74-.57,2.61a19.55,19.55,0,0,0-2.4.25c-.4.56-.25,1.29-.64,1.44a6.93,6.93,0,0,1-2.05-.16,1.56,1.56,0,0,0-.66,1.08,2.27,2.27,0,0,1-.36-.13,1.71,1.71,0,0,1-1.43,1c-.13-.42.26-1.12-.42-1.25,0-.92.42-.63.64-1.57l-.58-.18a3.06,3.06,0,0,1,1.79-1.7c.25-.38-.09-.44.08-.78s.65,0,.66-.6c.53-.13.62.33,1.07.17.08-1.12.72-1.78.51-2.73-1-.09-1.81,0-2.21.93l-.73-.22c-.34.74-1,.95-1.52,1.3-.48-.06-.19-1.42.05-1.75s.5-.12.57-.3c.31-.75,0-1.84.85-2.78-1.69-2.39-3.4,1.67-5.13,2.12l-.4,1.32c-.56-.07-.48-.48-.36-.91-.74-.08-1.15.44-2.08,0a5.39,5.39,0,0,0-1,1.29c.65.06.61.5,1.08.65-.46.72,0,1,.14,1.64-.56.47-1,1.19-2,.83-.15-.86-.66-1.53-.32-2.65-.33,0-.36-.22-.54-.33-.76,0-1.15.76-2.07.49-.21,1.53.47,3.18-.62,4.14.28.5.32,1.14.62,1.63-.1.27-.52-.06-.67.12.18.47.8.72,1.29,1a.94.94,0,0,0,0,1.45c-.06.57-.63.21-.91.36-.28.52.46.49.36.91a.58.58,0,0,1-.77.41c.24,1.2-1,1.11-1.25,2a2.19,2.19,0,0,1-.64-2.11c-1-.18-.66-1-.58-1.78-.83-.38-.71-1.26-.45-2.22-.76,0-1.13.65-2,.34-1.16,1.85-.55,2.51-.66,4.28.47.24.49.72,1,.94-.62.55.18,1.15-.49,1.61,1.28,1,.71,2.89,2,3.82-.13.69-.51.75-.4,1.32.87.14.76.46.7.85.38.25.44-.09.78.08.15.55-.24,1.59.54,1.92-.13.37-.26.75-.66.6.5,1.09-.66,3-1.66,3.34-.82-.13-.59-.83-.33-1.54A4,4,0,0,1,85.9,69a1,1,0,0,0-.69-.37c.31-.86-.47-1.14-.39-1.88-1.87.51-2.07,3-3.38,4.25.94.68,1.13,1.77.81,3.13-.74-.08-1.17.41-1.47,1.15.49.6.73,1.33,1.74,1.65.64,1.1.24,2.74.35,4.11a4.42,4.42,0,0,0-.81.43.33.33,0,0,0-.38,0,.4.4,0,0,0,0,.27l-.19.16c0-.16-.07-.34-.11-.52-.3-.07-.67-.08-.56-.56-.67-.36-1.37.39-2,0,0-.55.44-.68.47-1.21-.64,0-1.18.51-2,.28.1,1.13.13,2.31-1.3,2.33-.22.37-.34.84-.93.84a7.09,7.09,0,0,0-.84,2.88,1,1,0,0,0-.56,1,2.47,2.47,0,0,1,.93,1.77c.28.06.54.14.56.47-.29.91-.25,2-.84,2.79-1-.35-1.75,0-2.61-.28-1,.77.21,2-.08,3.44-.53-.86-1.42-1.55-1.41-2.66-.77.25-.77-.75-1.58-.59.13-.53-.24-.84-.14-1.36-1.47-1-1.63-1.88-3.8-2.08-.3.9-1.07.78-1.51,1.4.92.38,1.7.82,1.49,1.7.64.38,1.5.67,1.06,1.54a2.2,2.2,0,0,1,1.29,1.79c-.9-.33-1.56.69-2.37-.23a.58.58,0,0,1-.79.36c-.39-.18.08-.75-.5-.84-.3.13-.35.8-.84.5a1,1,0,0,0-1.13-.91c.05-.58.23-1.22,0-1.65-.23,0-.23.55-.5.47-.21-.54-.68-1-.92-1.49-1.42.29-2.32-1.26-3.66-2-.35.9-1.16.76-1.65,1.35,0,.21.1.35-.07.63,1.11.4,1.32,1.22,1.92,1.86-.32,1-1.16.93-1.88,1.1-.41-.47-.37-1-1.22-1.11.17-.47-.21-.7.14-1.25a5.24,5.24,0,0,0-1.65,0c-.22,1-.89,1-1.27,1.65.42.17.79.36.5.84l-1.29-.48c-1.41,1.09-5.67,0-4.8,2.78,1.26-.1,1.95.81,2.73,1,.19.05.21-.28.59-.27s1.66.6,1.42,1a3.18,3.18,0,0,1-2,.41l-.27.71c-1-.26-1.58.38-2.08,1.19.62.74,1.54.63,2.47,1.25.41-.26.09-.61.52-.95.48.35.57-.13.88-.16s.21.38.67.41a3.06,3.06,0,0,1,2.43-.39l-.21.57c.87.39.89-.09,1.63.44-.31.62.48.74.74,1.09a1.72,1.72,0,0,1-1.67.52,5.39,5.39,0,0,1-.68,1.38c1.13.87,3.33.09,3.37,1.92.26.13.38,0,.63.07-.14.39-.4.82,0,1a11.49,11.49,0,0,0,3.21-1.58,1.32,1.32,0,0,1,.89,1.24,6.9,6.9,0,0,0-.54,2l-.26.56a.94.94,0,0,0-.37.85l.43.49c-.23.17-.66-.09-.73.41.5.39-.31.75,0,1.31-.51-.07-.62.58-.75.7-.35-.08,0-.47-.27-.59-1.89.39-1.47-2-2.67-2.47.27-.4.21-.24.27-.72-.79-.16-.61-.75-.29-1.41-.67-.19-.72-.5-.29-1.42-.91-1.61-3.32-.36-4.19-1.89-.36.77-.91-.13-1.74-.16-1.33,1.1-2.24,3.11-4.08,3.05l-.38,1c.52.26.78,0,1.17-.06a2.54,2.54,0,0,0,2.53,1.11.87.87,0,0,0-.07.63c2.6.09,4.58,2.29,4,4.6-.25.32-1.88.27-2.1.36-.92.4-.08.56-.88.16s-.91-1.07-1.4-1.51c.33-.22.55-.7,1-.59,0-1,.83-1,1.18-1.85-.48-.06-.47-.34-.81-.46-.83.88-1.59,1.43-2.71,1.11l.16-.43a2.28,2.28,0,0,1-1.14-.43c-.94.83-.51,2.55-.18,3.53-.36.28-.76.26-.66.9.4.34,1-.11,1.15.43-.37.24-.94,0-1.45-.05-.28.42-.5,1-1.18.54-.95.82-.19,2.33-1.18,3.16-.84-.33-.79-1.07-1.59-1.41-.37,1,.1,2.11-.7,3.17,1.8.5,3.64,1.13,2.84,3.35.45.55,1.1,1,.75,1.92a11.77,11.77,0,0,0,4,3,1.65,1.65,0,0,0,1.25,1.45c1-.38,1.88-.92,3.26-.42.25-.4.53-.74,1-.59,1.23,1,3,1.54,3.82,2.9-1.1,1.31-1.07,2.68-1.93,3.86.59,2,3.13.84,5.22,2.09a4,4,0,0,1,.21,2,6.85,6.85,0,0,1,1.21,3.35A4.4,4.4,0,0,1,63,146.28,8,8,0,0,1,65.91,148c-.33,1.14,1.64,1.94.56,3a2,2,0,0,0-1.49.74c.25.26.72.54.46,1a17.21,17.21,0,0,1,5.86,5.58c.07.25-.18.18-.19.37.67.88.53,2.57.37,3.91,1.32.07,2.46.54,3.54-.18.33,0,.49.13.46.46a9.9,9.9,0,0,1,3.35-.19.68.68,0,0,0,.09-.84c.24-.25.4-.59.93-.56.07-.76.65-.63,1.4-.56.13-.47-.34-.64-.09-.93.41.06.48.26.93.09,0,.27.21.29.18.56,1-1,3-1.51,3.07-3.26-.35-.13-1.12-.06-.74-.65-.53-.1-.54.32-.93.37.08-.26-.13-.24-.09-.47,1.33-1,2.26-2.8,4.65-3,.08-1.71.11-3.4-1.12-4.37.31-.78.37-1.8.93-2.33a1.33,1.33,0,0,0,.81-.27l1.09,8.15,59.82-5.23L150,86.44l-2.8-.54a3.24,3.24,0,0,0,.13-.78c-.58-.22-1.85-.1-1.23-1.07-.87-.16-.9.53-1.53.61.13-.43-.22-.4-.15-.77,2.18-1.59,3.73-4.61,7.66-4.9.13-2.82.18-5.59-1.84-7.2.5-1.28.6-3,1.53-3.83,1.06,0,1.5-.64,2.15-1.07-.07-.8-.35-1.39-1.08-1.53.09-1.4.59-2.38,1.69-2.76-.88-1.58-.35-4-2-5.06-.14.73-1,.77-.92,1.68a1,1,0,0,0-.77.15,4,4,0,0,1-1.53,2.6c0,.76.06,1.49-.77,1.38-.85-.62-1.41-2.78-.61-3.68-.43,0-.44-.37-.46-.77.83-.1.77-1.2,1.07-1.69.37-.06.33.28.77.15.06-.39,0-.73.92-.61.26-.51-.08-.68,0-1.38,1.54-.5,1.56-2.53,3.06-3.06-.51-.64.44-1,0-1.68.54-.07.71-.52,1.22-.61C154.88,48.33,155.67,47.87,155.09,45.77ZM58.89,98.38c-.43,0-.18-.39-.47-.5-.44,0,.24.51.22.73s-.39.36-.56.61a1.08,1.08,0,0,1-.25-1.07c-.42-.24-.49.32-1,0s.35-1-.39-1.13c.74-.61,1.33.06,2.19-.17C57.78,97.46,59.08,97.69,58.89,98.38ZM48.83,128.79A10.49,10.49,0,0,0,45.4,127c-.05-.45.09-1-.74-1.1.11-.54.16-1,.72-1-.07-.4-.42-.68-.59-1,0-.18.13-.25.25-.24,2,.62,3.15,2.68,4.56,4C49.35,128.21,48.64,127.94,48.83,128.79ZM143.6,42.7c.08-.48-.47-.35-.31-.92.14-.42,1.09,0,.92-.77.83.48.41,1.27.92,2-.91-.59-.67.71-1.38.77-.11-.42.31-.31.31-.61-.18-.41-.4.4-.61.46-.38,0-.48-.24-.77-.31A1.09,1.09,0,0,1,143.6,42.7Zm-1.22,8.73c-.43-.48-.19-.81,0-1.38.63.06,1-.16.92-.77.37-.06.33.28.77.15,0,1.39.31,2.12-.31,3.22-.7-.81-1.38-.09-2.3-.61C141.54,51.62,142.05,51.62,142.38,51.43Zm-3.06,13.94c.43-.21,1.07-.78,1.53-.46,0-.52-.93-.09-.92-.61a3.84,3.84,0,0,1,1.53-1.22c.11-.47-.26-.45-.15-.92.53-.28,1.38-.25,1.22-1.23.88.41.44,1.39.46,2.45-.2-.21-.67-.15-1.07-.15-.15,1.81-.77,1.86-1.22,4.29-.73.43-.79-.48-1.68-.31C139.34,66.61,139.84,66,139.31,65.37Zm.15-8.27a1.49,1.49,0,0,1,.3-2.3c0-.47-.55-.37-.46-.92.6-.58,1.14.15,2,.15.17.39.1,1,.92.77,0,.56-.61.62-.46,1.38-1.26,0-1.61,1.85-3.06,2.14C138.68,57.64,139.35,57.64,139.47,57.1ZM86.19,134.18c0-.2.26-.17.35-.29.68-.3,1.37-.57,2.08-.83l0,.73a.59.59,0,0,1-.26.11c-.08.44-.06,1-.65.93a1.32,1.32,0,0,1-.74,1.11c0-.58-.73-.74-.37-1.4A.35.35,0,0,1,86.19,134.18Zm-3,3.25c-.42-.49-.84-.06-1.4-.37.05-.26.36-.26.56-.37a.46.46,0,0,1-.14-.38c.38-.27.77-.54,1.16-.78C83.39,136.34,83.58,136.79,83.21,137.44Zm-2.7,7.72c.26-.13.65-.47.93-.28,0-.32-.57-.05-.56-.37a2.32,2.32,0,0,1,.93-.74c.07-.28-.16-.28-.09-.56.33-.17.84-.15.74-.74.53.25.27.85.28,1.49-.12-.13-.4-.09-.65-.09-.09,1.1-.47,1.13-.74,2.61-.44.26-.48-.29-1-.19C80.53,145.91,80.84,145.56,80.51,145.16ZM76.42,142c-.14.33-.6.45-.93.74-.31-.34-.31-1-1-.93.22-.66-.2-.86.09-1.49h.37a1,1,0,0,1,0-.16,8.58,8.58,0,0,1,1,0,.69.69,0,0,0,.09-.84,1.57,1.57,0,0,1,.59-.51,3.64,3.64,0,0,0-.25,1C76.28,140.59,76.69,141.37,76.42,142Zm-5.68-33.79c-.65-.22-.41-.85-.88-1.15a1.46,1.46,0,0,1-1.28-.06,1.8,1.8,0,0,0,.24-.39c.2.14.51.17.56.46.57-.24.73.26,1.29.28A1.93,1.93,0,0,1,70.74,108.21Zm9.08-15.76c-.08-.26.13-.24.09-.46h.28C80.12,92.18,80.2,92.54,79.83,92.45ZM104.62,68l.44.13c-.27.81.27,1.08,0,1.6l.58.18c-.42.8.29,1,0,1.74.41.15.53.45.94.61-.15.55,0,.46-.27.88l.58.18c.16,1.13-.59,1.24-.56,2.39-1.1-.45-1.41.58-2.06,1-.38-.62-1-1-1.11-1.62-.12-1.11.89-2.15,1.17-3.33C104.63,70.23,104,68.94,104.62,68Zm1.94-.05c-.25-1.38-2.64-.72-2.81-1.81.73.44,1,0,1.46,0a2.63,2.63,0,0,0,1.67.83c-.16.37-.14.65.26.72.82-.64,1.25.59,2.33.23.21.3.55.52.32,1.06C108.39,68.9,107.67,67.86,106.56,67.9Zm23.57-11.41c.43,0,.64-.28,1.07-.31-.1-.82.63-.8.46-1.69h.61c-.11-.58.48-.67.46-1.53h.46c.26,1.12-.67,2.18-.77,3.68-.08,1.21.59,2.49.15,3.52-.23.54-1,.75-1.53,1.22-.51-.56-.5-1.64-1.69-1.53.36-1.09-.33-1.42.15-2.45h.61C130,56.92,130.11,57.06,130.12,56.49ZM131,67.06a2.49,2.49,0,0,1-1-.07,1.84,1.84,0,0,0-.49-.9,11.22,11.22,0,0,0,.27-2.11,6.93,6.93,0,0,0,.79,0c-.24,1,.46,1.07.77,1.53C131,66.16,130.52,66.24,131,67.06Zm-15.59,4.26a1.88,1.88,0,0,1-.88-.82.74.74,0,0,0,.67-.09A2.08,2.08,0,0,0,115.45,71.32Zm12.12-9.26c0,.31.33.49.56.71a7.26,7.26,0,0,0-.59,2.8,2.21,2.21,0,0,0-.63-.05c.06-.62-.16-1-.77-.92-.11-.47.42-.29.31-.77-.3-.37-.73-.59-.92-1.07s.25-.67.46-.92C126.56,62.43,127,62.07,127.57,62.06Zm-1.09,13.5a6.22,6.22,0,0,1-.13-2.88,3.26,3.26,0,0,0,1-.57c-.62-.33-.3-1.21-.36-1.78a1.84,1.84,0,0,1,.59,0A3.85,3.85,0,0,1,129.77,68a4.4,4.4,0,0,0,.66.08c0,.78.84,1,.31,1.84-1.31-.47-1.13.6-2.14.77a1.3,1.3,0,0,0,.15.92c.8,0,1.14-.25,1.84,0-.08.79-1.16.58-1.69.92-.19.71.28.74.46,1.07a21.65,21.65,0,0,0-.61,2.3A6.14,6.14,0,0,0,126.48,75.56ZM119.1,54.65c-.13-.43.21-.4.15-.77h.46C119.57,54.21,119.7,54.8,119.1,54.65ZM114.61,56c-.1-.29-.41-.36-.26-.89.17.28.35.54.54.8Zm-.88,1.71c0-.27-.13-.32-.17-.52.77.1,1.25-.46,2,.15a.55.55,0,0,1,.18-.21,4.82,4.82,0,0,1,.63,1.5,2.61,2.61,0,0,0-1.69.61c.21.2.09.73.31.92a4.49,4.49,0,0,0,.79-.05c-.35.4-.76.83-1,.84a3.37,3.37,0,0,1-1.86-2.13A2.58,2.58,0,0,1,113.73,57.71Zm-3,24.91c.45,1.19.7,3.9-1.54,2.41.07-.48.38-.51.56-.79-.15-.29-.82-.3-.55-.81C109.47,82.71,110.06,82.6,110.73,82.62ZM76.12,96.48a1.12,1.12,0,0,0-.11.31,1.39,1.39,0,0,1-.14-.47A.85.85,0,0,0,76.12,96.48Zm9.11,29.4a2,2,0,0,0,0,.76c-.34-.06-.51-.3-.85-.36a.56.56,0,0,1-.12.38l0,0a12.78,12.78,0,0,1,.71-2c.86.25,1.74.26,1.71,1.14A3.77,3.77,0,0,0,85.23,125.88Zm-10.85,9c0-.22.27-.1.28-.28v0h0c0,.11,0,.23,0,.34A2.2,2.2,0,0,1,74.38,134.84Zm20-38.16a7.51,7.51,0,0,1,0,1.08.4.4,0,0,0-.27-.09C94.16,97.32,94.25,97,94.36,96.67ZM70.87,120.85c-.28.47.24.56.27,1a1.88,1.88,0,0,1-.85.27c-.53-.12-.54-.47-.7-.75a.94.94,0,0,0,.57-.62A.77.77,0,0,1,70.87,120.85Zm6.7,1.86c.26-.13.65-.47.93-.28,0-.32-.57-.05-.56-.37a2.51,2.51,0,0,1,.84-.69,1.23,1.23,0,0,1,0,.66l.2.07a14.74,14.74,0,0,0-.53,1.51,1.93,1.93,0,0,0-.85-.26A.57.57,0,0,0,77.57,122.7Zm-5.31-.59a.54.54,0,0,0,0,.06c-.26,0-.28-.17-.32-.31h.36A.72.72,0,0,0,72.26,122.11Zm-.53,3.14a2.38,2.38,0,0,1,.53-.54c.13.24.33.41.1.79a.77.77,0,0,0-.49,0Zm.84-5.74a11.12,11.12,0,0,1,.64-1.72,1.12,1.12,0,0,0,.2.08,3.38,3.38,0,0,1,.07,1.67c-.14.33-.6.45-.93.74-.21-.23-.29-.59-.53-.79A.9.9,0,0,1,72.57,119.51Zm8.13,6.3h-.46a.85.85,0,0,0-.33-.62s0-.1,0-.14a3.86,3.86,0,0,1,.19-.58h.65c.08-.3-.24-.19-.28-.37,0-.33.36-.32.47-.56.37.12.36.61.55.91a10.09,10.09,0,0,0-.12,1.08c0,.12.2.06.28.28a1,1,0,0,1,0,.17c0,.16-.07.32-.11.48l-.29-.43a1.06,1.06,0,0,1-.48-.06C80.75,125.91,80.71,125.88,80.7,125.81Zm4.91-25.38a1.29,1.29,0,0,0,1.12.28,2.34,2.34,0,0,0,.23.59,3,3,0,0,0-.27.32c-.42-.3-.83-.61-1.23-.92A.52.52,0,0,0,85.61,100.43Zm-.2,5.55c0,.63.3,1.25-.28,1.45a1.75,1.75,0,0,0-.3-.63,3.7,3.7,0,0,0,.18-.65c-.58,0-.68-.5-1.12-.65-.12,0-.18.13-.37.09a1.75,1.75,0,0,1-.41,1.1,1.16,1.16,0,0,1,.16-1c0-.21-.27-.1-.28-.28a1.72,1.72,0,0,0,.48-.43A8.16,8.16,0,0,1,85.41,106ZM66,115.38a1.76,1.76,0,0,0,0-.18.25.25,0,0,0,.17-.12,1.25,1.25,0,0,0-.13-.37.93.93,0,0,1,0-.22c-.8-.19-.53-.87-1.42-1l.06-.17a.52.52,0,0,1,.35-.08c0,.27.21.28.19.56.3,0,.46-.16.84-.09,0,.18.2.23.19.46a1.76,1.76,0,0,1,.75.09c.06.34.15.65.56.65C67.2,115.33,66.65,115.23,66,115.38ZM86.9,128h0ZM89.23,90.5a.42.42,0,0,1-.33.22c0-.08-.05-.15-.07-.23A.62.62,0,0,0,89.23,90.5Zm-9.39,18.93a.71.71,0,0,0-.22-.12v0Zm-15.57,2.24a.6.6,0,0,0-.18.06,1,1,0,0,1,0-.12Zm-.21,19.58c.35.26.68.54,1,.83a9.66,9.66,0,0,0-.45.9c-.4,0-.39-.47-.84-.18A13.75,13.75,0,0,0,64.06,131.24Zm21.15-2.75c0-.1-.06-.17-.09-.27a.56.56,0,0,0,0-.46c.25,0,.34-.17.58-.19a1.94,1.94,0,0,0,1.07.39c-.1,0-.17.12-.34.08a1.24,1.24,0,0,1,0,.18A4.27,4.27,0,0,1,85.21,128.49Zm8-48.88a.8.8,0,0,1,0,.1l0,0s0-.06,0-.09ZM76.32,100.88a2.18,2.18,0,0,1-.83-.5A5.87,5.87,0,0,1,76.32,100.88ZM77,106c-.27.11-.37.57-.52,1a5.31,5.31,0,0,1,.84.48s0,0,0,.06c-.42,0-.32.43-.47.65a1,1,0,0,1-.65-.84h-.08c-.34-.18-.47.1-.85-.15-.08-.6.25-1.39-.72-1.58C75.21,104.85,76,105.61,77,106Zm-17,18.48c.25.24.85.33.5.84-.45,0-.3-.34-.66-.41Zm68.66-73c.93.66,1.7-.39,2.3.46.4,0,.5-.21.46-.61a2.63,2.63,0,0,0,1.84-.31c.44.17.56.67,1.38.46-.49,1-2.57-.33-3.22.92-1-.36-2,.43-3.37,0C127.91,51.78,128.3,51.66,128.59,51.43ZM118,43.93c2-.06,4,.71,4,2.15a3.75,3.75,0,0,1,1.53,2.14c-.14.07-.27.13-.31.31-1.1-.36-2.69,0-3.37-1.07a.42.42,0,0,0-.31.46c-.87-.29-1.49-1.29-2.45-.61C117.18,45.63,118.13,45.55,118,43.93Zm-.76,5.21c-.11.47.16.56.15.92.7.14.74-.39,1.38-.31,0,.45.34.47.31.92.5,0,.76-.26,1.38-.15.06.29.33.38.31.77a2.86,2.86,0,0,1,1.22.15c.1.56.25,1.07.92,1.07-.79.84-1.88.45-3.06.92,0-.48.62-.3.77-.61-.36-2.07-2.88-1.61-4.29-1.53.14-1-.27-1.07-.3-2.45C116.5,48.88,116.58,49.3,117.26,49.14Zm-5.05-8c.4-.21,1-.26.77-1.07.54-.08,1-.19,1.22.31.35-.21.49-.63.77-.92.18,0,.27,0,.31.15.13,2.13-1.41,3.89-2.14,5.67-.66,0-.65-.78-1.38-.31A10.56,10.56,0,0,0,112.2,41.17Zm-6.8,17.89c.05-.24.22-.28.3-.49a4,4,0,0,1-.07.55Zm.31-.57c-.69-.58-.54-1.18-.23-1.82A6.34,6.34,0,0,1,105.71,58.5ZM103,61.21a12.75,12.75,0,0,0,2.94-1.41,10.93,10.93,0,0,1,1.58,4.26c-.3,0-.36.48-.71.39s.06-.52-.11-.68C105.76,63.33,102.43,63.4,103,61.21Zm-1,23.72c-.26-1,.62-.92.83-1.67.75.18,1.47.31,1.63-.62-.15,0-.14-.17-.25-.24-.6-.2-1,0-1.66-.34.73-.63.29-.85.15-1.56.43-.35,1.12-.21,1.18-1.24a11.08,11.08,0,0,1,1.76.54c.23-.72,1.15-.57.93-1.48,1.07-.39,1.33.77,2.33.23.13.3.41.52.17,1s-.8.49-1.19.76c-.25.42.32.4.07.82-.57-.22-.88,0-1,.65-.56-.22-1-.25-1.31.08a5.21,5.21,0,0,0,.81,3.13c-.06.43-.59,0-.72.26s.53.29.26.72c-1-.08-.41,1.79-1.4,2a2.86,2.86,0,0,0,.72.76l-3.1,1.36a4.65,4.65,0,0,0,0-1.23c.27-.26.73-.16.75-.89-.41-.48-1.5-.59-1.35-1.37.75,0,1,.29,1.76.54.22-.12.32-.47.41-.84C102.92,85.83,103.41,84.86,102,84.93ZM97.78,67.79a1.48,1.48,0,0,1-.38,2.29c0,.55.6.74.38,1.39-1.3-.7-1.1-2.57-2.31-2.94.36-.69-.15-.9,0-1.45.71.48.83-.14,1.1-.46.82.24,1.54-.29,1.95.43C98.42,67.6,97.91,67.34,97.78,67.79Zm-.23-14.48c-.37.65.64.56.66,1,0,.6-.49.31-.56.79a1.08,1.08,0,0,1,.7.85c-.3,0-.46.2-.82.07-.19-.12-.17-1-.45-.62-.08.29.34.31.11.68-.66-.26-.05-1.43-1.1-1.13C96.79,54.4,96.62,53.53,97.55,53.31Zm-2.31,8.11c.38.25.44-.09.78.08-.22.57,0,.88.66,1,0,.6.15,1-.4,1.32.26.27.74.42.7.85-1,.24-1.48-.65-2.38-.08C94.33,63.35,94.87,62.76,95.24,61.42ZM93.36,72.85c-.44.89.39,1.1.82,1.53,0,.48-.39.36-.41.84a3.84,3.84,0,0,1,1.11,1.62c-.14.5-.92-.19-1.06.32.54-.17,1,.57,1.33.89a.88.88,0,0,0-.39.58c-.4-.77-.8-1.53-1.54-1.19a5.8,5.8,0,0,1,.06-2.2c-.39-.12-.82-.31-1.07-.17C92.53,74.05,92.4,73,93.36,72.85Zm-3.89,4.9c.05.42.62.57.46,1.1-.15.26-.6-.06-.62.45l1,.31a11.41,11.41,0,0,1,0,1.94c.25-.14.68,0,1.07.16.06.53-.12.5-.31,1a.84.84,0,0,1,.6.24c.05.27.19.31.08.73-.42,0-.32.43-.46.65a1,1,0,0,1-.65-.84,3.33,3.33,0,0,1-.93-.09c-.26.83.66,1.91-.37,2.33a.17.17,0,0,0,0,.09,2.05,2.05,0,0,1-1.11-.12l0,0c0-.28.21-.36.73-.31.73-.86-.5-2,.19-2.79-.51,0-.12-.54-.28-1-.54-.31-1.2-.49-1.75-.78a5.61,5.61,0,0,1,.42-1.67C88.5,79.15,88.62,77.75,89.47,77.75ZM79.18,85.94l.23,0c-.13.47-.26.94-.39,1.42a7.07,7.07,0,0,1,1.88,1.1,1,1,0,0,1-.6-.4.26.26,0,0,0-.19.28c-.52-.18-.9-.78-1.49-.37C78.67,87,79.24,86.92,79.18,85.94Zm-.47,3.16c-.07.28.09.34.09.56.43.09.45-.23.84-.19,0,.27.21.29.18.56.31,0,.47-.16.84-.09,0,.18.2.23.19.46a1.72,1.72,0,0,1,.75.09c.06.34.16.65.56.65-.48.51-1.14.27-1.86.56,0-.29.38-.18.47-.37-.22-1.26-1.75-1-2.6-.93.08-.59-.17-.65-.19-1.49C78.25,88.94,78.3,89.2,78.71,89.1Zm-.59,5.66a8.38,8.38,0,0,0-1.79-.21,1.22,1.22,0,0,1,.25-.25c0-.22-.17-.2-.09-.46a7.08,7.08,0,0,1,.65-.46c0-.29-.29-.27-.19-.66A7.6,7.6,0,0,1,78.12,94.76Zm-2.48-10.5c.25-.13.59-.16.47-.65.33,0,.58-.11.74.18.21-.13.3-.38.46-.56.11,0,.17,0,.19.09.08,1.3-.86,2.36-1.3,3.44-.4,0-.39-.47-.84-.19A6.39,6.39,0,0,0,75.64,84.26Zm-1,15.81a3.69,3.69,0,0,1,.52.18c-.17.17-.47.08-.76,0a.73.73,0,0,0-.05-.49C74.42,99.87,74.53,100,74.62,100.08Zm-2.29-3.55a1.43,1.43,0,0,1-.29-.1,2,2,0,0,0-.08-.62Q72.16,96.16,72.33,96.53Zm-2,10.07a1.31,1.31,0,0,1-.8-1.11h.26A7.92,7.92,0,0,0,70.37,106.6Zm-1.69-2.93c.51.25.37.78,1.13.91a.77.77,0,0,0,0,.15c-.67-.29-1.51.28-2,.66-.23-.14-.31-.38-.65-.19-.11.3.28.57,0,.74a1,1,0,0,1-.25-.65,4.55,4.55,0,0,0,.74-1C68.07,104.24,68.63,104.52,68.68,103.67Zm-4.38-3.6c1.3.52,2.09.45,2.91,1.41-1,.37-.57,1.26-1.38,1.93-.37-.23-.19-.7-.25-1.07-.6.23-.82-.11-1.29-.48.28-.56.19-1-.4-1.13C64,100.37,64.27,100.52,64.3,100.07ZM52.85,124.57c-1.53-.65-1.28-1.57-2.83-2,.64-1.91,2.06-3.47,3.4-3a3.76,3.76,0,0,1,2.54-.68.46.46,0,0,0,.18.39c-.73.91-.94,2.52-2.18,2.78a.41.41,0,0,0,.32.45C53.71,123.2,52.56,123.43,52.85,124.57Zm3.46,2.11c-.86-.47-1.1-.12-2.4-.57.21-.42.64-.35.72-1,.4.27.58.05.91.18.38-.61-.1-.83.2-1.4.41.19.56-.16,1,0,.17-.47,0-.8.34-1.34.29,0,.48-.18.82,0a2.17,2.17,0,0,1,.36-.78,4.53,4.53,0,0,1,.08.59,3.54,3.54,0,0,1,1.33,1,3.83,3.83,0,0,0-.08.8c-.46-.14-.06-.68-.3-.93C57.19,122.82,56.73,125.34,56.31,126.68Zm2.89,3.21c1-.18,1.85-.55,2.85-.65.26.25.69.53.44,1,.16.09.3.2.46.29a6.65,6.65,0,0,0-.3,1.6,1.09,1.09,0,0,0-.43.45,2.6,2.6,0,0,1-.79-1.21c-.32-.19-.41.14-.77-.13a12.2,12.2,0,0,1-.34-1.28C59.87,129.8,59.74,130.28,59.2,129.89Zm7.08,13a.63.63,0,0,0,.47.56c.12.49-.19.55-.18.93a1.67,1.67,0,0,1-1.58-1c-1.12-.13-.83-2.32,0-2.89,0-.22-.17-.2-.09-.46a7.54,7.54,0,0,1,.65-.46.19.19,0,0,0,0-.08l.27.06a3.86,3.86,0,0,1,.78,1.5,1.58,1.58,0,0,0-1,.37c.13.12.06.44.19.56.46,0,.46-.09.84,0-.28.47.4.44.37.93C66.76,143.11,66.49,143,66.28,142.93Zm2-4.28c-.08-.26.13-.24.09-.46h.28C68.52,138.38,68.61,138.74,68.23,138.65Zm2.7,7.54c.05.19.23.27.19.56-1.56.47-.94-1.06-.46-1.67.39.11.71.28.74.74S71.07,146,70.93,146.18Zm4.56,0c-.44.07-.64-.11-1-.09-.08,0-.09.09-.19.09-.07.57.37.62.84.65,0,.47.51.6.19,1.12-.8-.28-.69.36-1.3.47a.78.78,0,0,0,.09.56c.48,0,.69-.15,1.12,0,0,.48-.7.35-1,.56-.12.43.17.45.28.65-.28.56-.19,1.48-.65,1.86-.09.68.34,1.37-.28,1.58a2.27,2.27,0,0,0-.37-.74,1,1,0,0,0-.84,1.4c-.57-.39-1.24-1.75-.65-2.42,0-.21-.27-.1-.28-.28a2.85,2.85,0,0,0,.84-.93c-.11-.17,0-.54-.19-.65.27-.39.88-.42,1.21-.74-.54-.29.11-1.27-.47-1.4-.08-.3.31-.13.28-.37s-.41,0-.37-.28a3.17,3.17,0,0,0,1-1.67c-.1-.24-.38-.3-.74-.28,0-.38-.1-.59-.47-.56-.07-.29.26-.18.19-.46s-.45-.36-.56-.65.15-.41.28-.56c.49.49.84-.14,1.4.28-.29.48.27.56.28,1a6.62,6.62,0,0,1,1.12,0c-.14.61.28.65.46.93C75.47,145.64,75.17,145.69,75.49,146.18Zm1.3,12.93c-.92-.27-.09-1.34-.65-1.77.12-.38.24-.76.65-.84-.38-.38.21-1,.84-.93C77.8,156.88,77.58,158.47,76.79,159.11Zm3.81-19a.9.9,0,0,1,.19-1.4c0-.28-.34-.22-.28-.56.36-.35.69.09,1.21.09.1.24.06.62.56.47,0,.34-.37.38-.28.84-.77,0-1,1.13-1.86,1.3C80.13,140.46,80.53,140.47,80.61,140.14Zm.65,14.42a2.09,2.09,0,0,1-.84-.19,1.82,1.82,0,0,1,1.77-1.4C82.07,153.69,81.52,154,81.26,154.55Zm2.88-4.37c-.57,0-.67.45-1,.65-.6,0-.82-.29-1.3-.37-.43.1-1.25.93-1.49.09.61-.1.84-.59,1.58-.56,0-.54-.57-.49-.74-.84.29-.18.23-.7.84-.56,0-.34-.13-.36,0-.65.25,0,.53,0,.65.09a7.18,7.18,0,0,1,.37-1.11h.65c.08-.3-.24-.19-.28-.37,0-.34.36-.32.47-.56.5.16.32,1,.84,1.12A9.17,9.17,0,0,1,84.14,150.18ZM88,141.44a.61.61,0,0,0-.47.09,2.44,2.44,0,0,1-.93,1.58c0,.46,0,.91-.46.84a1.87,1.87,0,0,1-.37-2.23c-.26,0-.27-.23-.28-.46.51-.06.47-.73.65-1,.23,0,.2.17.46.09,0-.24,0-.44.56-.37.16-.31,0-.41,0-.84.71-.23.89-1,1.33-1.49l-.11,3.1C88.17,140.92,87.94,141.05,88,141.44Zm51.2-60.9a3,3,0,0,1,2.91-2.3c-.19,1.18-1.1,1.66-1.53,2.6A3.55,3.55,0,0,1,139.16,80.53Zm6.13-6.89c-.93,0-1.1.74-1.69,1.07-1,.08-1.35-.48-2.14-.61-.71.16-2.06,1.52-2.45.16,1-.17,1.38-1,2.6-.92,0-.89-.94-.8-1.22-1.38.47-.29.38-1.15,1.38-.92,0-.56-.21-.59,0-1.07.41,0,.88-.06,1.07.15a11.54,11.54,0,0,1,.61-1.84h1.07c.13-.49-.4-.32-.46-.61,0-.55.59-.53.77-.92.82.25.52,1.63,1.38,1.84C146.44,70.21,145.64,72.09,145.29,73.64Z"/></g><path class="cls-4" d="M106.8,12.13c1.77-.68,3.48,2.81,5.71,2.58,2.12,2.38,1.25,5.85,2.79,6.8,1.52-1.26,1.1-4.3,3-4.78.53,4.34-4.4,8.37,0,12-2.81,1.09-.74,4.22-.93,6.41,2.46-.87,2.74-4.28,6.3-5.33.65.92-.6,1-.36,1.79-3.15,1.53-2.89,4.49-4.36,6.72a16,16,0,0,0,5.13-4.84c.72,2.76-1.81,4.16-3.29,6,.61.23,1.59-.4,2.16-.07a2.9,2.9,0,0,1-1.81,2.93c.35.72,1,.71,1.51,1,1.2-1.77,4.75-1.89,6.41-3.73-.49-1.61-1.31-3.77.94-5,.16,1.68-.82,2.89.42,5-.77,1.1-2.52,1.79-2.51,3.22.44,1,2,1.62,1.72,2.86-1.45.38-2-1.43-2.89-2.38-1.61-.62-2.51,1.25-3.23,2.15a12.48,12.48,0,0,1-4.86-1.84c-2.86,1.46,1.08,3.58,1.26,4.41-3.32.86-4.2,3.94-4.69,6.58.94-.23,1.22,1.1,2.08,1.06,4.13-1.77,2-6.16,4.39-8.64,1,1.59.25,3.92.47,5.83,1-.31.19-1.35.93-1.75,1.72-.2,2.48-.23,3.18-1.58.53-.18.75.38,1,1,1.84-.78,1.49-2.48,3.64-3.14-.05,1-.93,1.68-1.11,2.65.21.88,1.07.23,1.28,1.12-.69.42-1.06,0-1.6.11-.19,1.86-1.48,3.27-1.75,5.1,1.85.51,3.41-.31,4.88-1.46,1,2.87-4.37,2.24-5.19,4,.26,1.22,1.16.93,1.43,2.15-1.27.57-1.77-.71-2.92-.44a2.57,2.57,0,0,0-1.68,1.24c-4.22.17-6.34,6.8-11.25,4.62,1,2.63,5.36,1.41,7.51,2.95,1-.21,0-1.3,1-1.52.55,1,1.3.14,2.07-.3a6.67,6.67,0,0,1-.25,3.39c1.48.29,2.62-1.11,4-.27-2.49,2.92-7.86,4.2-12.33,5.33-1.67.42-3.73.12-5.17.75-.9.39-2,2-3.27,2.71-.5.28-1.11.3-1.4.58-1.15,1.08-1,3.51-2.5,4.59-.62.44-1.84.4-2.67.82-2.11,1.07-3.41,2.47-6.7,3-.28-1,1-1.26.74-2.22-2.5.74-6.14,1.39-8.56.5.51-.92,1.54-1,3-1.48l-.29-.7c-.78-.5-1.1.82-2.11.87-.43-.83,1.26-.77.36-1.79,1.92.27,3.05-1.06,4.36-2.06L90,80.06c1.56.57,6.08,0,6.09-2.5-2.46-2-5.06-3.85-8.4-3.13-3.09.67-6.45,3.33-10.31,4.23-.86-3-3.88-.24-5.42-.52-.71-.75,1-.47.32-1.22-.26-1.22-1.67.27-2-.83.8-1,1.55-.86,2.52-1.86,2,2.34,5,2.2,8.71.54-1.19-1.49-2.88-1.78-4.35-2.6a2.6,2.6,0,0,1-2.2.63c-.73-.95.27-1.18-.3-2.06C73,70,71.4,71,70.16,72.33c-.45-.7-.29-1.15-.44-1.74-4.54,1.56-7-1.94-9.77-4.48.74-.08.47-.58,1.08-.72,2.09,2.29,4.52,3.75,7.56,3.74.73-.47-.34-1.69.17-2.26,1.06-.29.87.67,1.14,1.45,5.09-.1,9.36,1.77,13.58,3.74l1.64-.67c-.44-1.9-2.07-.94-3.07-1.48,1.14-2.32,3.45.35,5.4-.84-2.16-2.17-5.42-.36-7.74-2.85-.78.12-.76.59-1.31.81-1.69-4.33-5.67-7.16-9.11-8.86a8.69,8.69,0,0,0,4.4-2.63c-1.51-.7-1.24-2.1-1.54-3.75-2.78-.68-4.68,3.36-7.6,2.84-1.84-.32-2.18-2.54-4.07-3.25-1.6.12-3.78,1.61-5.21,1.32.17-1.39,1.45-1.84,2.9-2.28-.46-.64-.59-4.38-2.81-3.5-.22-.61.78-.71.55-1.33-.4-1.36-1.84-.23-2.41-1.2a1.64,1.64,0,0,0,1.07-.71c-.12-2-2.15-1.45-2-2.76,6,1.21,8.48,15.46,16.08,9.83-.61-1.79-2-1.64-3.4-1.62-.32-.52,1.12-.31.41-1,1.42-.46,2.27.46,3.62.15a5.27,5.27,0,0,1,.5-2.12c-1.43-.73-2.54-1.52-2.71-3.27-1.78-.51-4-2-4.74-3.53,2.65-.29,4.19,2.06,6.38,2.86,1.79-3.29-2.16-5.32-3.17-7.73.4-.09.31-.39.61-.52,3.22.81,4.5,5.71,5.54,9.5,1.32-.22,1.19-1.06,1.82-1.57.76-.28,1.25.11,1.51,1,.15-.23.3-.46.47-.19,1.85-2.08-.49-5.9-.6-8.79,2.79.47,2,4.69,3.92,6.88,1.2-2.06-.32-8.1-3.28-9.33,1.87-1.55.12-4.61,1.5-6.36.28,4.41,1.88,6.49,3.86,10.74,0-2.39-1.17-5.28.74-6.87.62,1.72-.58,5.94,2.31,5.62.44,1.34-1.27,1.8-1.24,3,1.48,1.84,3.41,5,2.32,7,.54,1,1.52,1,2,2.19a2.51,2.51,0,0,0,1.12-1.28c-.38-1.25-1.51-.71-1.9-2,.63-.57.65-.19,1.08-.72a4.77,4.77,0,0,1-1.12-4.74c1.18.11,1.28,2.83,2.38,3.13.64-4.33-5.17-9-3.65-13.56-.38-1.41-1.72-.54-2.27-1.53.22-.1.06-.36,0-.56,1.11-.66,1.65.08,2.63-.26.82-.76-.61-2.46.68-3a4,4,0,0,1,.74,3.8c1.42.35,1.67-1.16,2.62-1.62.52.3.84,1.08,1.51,1,.87-.15,0-1,.55-1.32,2.17-.08,2.07,5.25,5.11,3.11,1.86,6.36,5.2,11.77,5.61,17.69.48.55.6-.63,1.41-.58A3,3,0,0,0,104,48c.74-.08.47-.58,1.08-.72-.15-.89-.72-.76-.91-1.55,1.07,0,.24-.81.65-1.09-1.72-3.1-.79-4.62.5-6.78-.18-1.12-.93-.88-1.38-1.35a8.27,8.27,0,0,0-.86-6.77c1.29-.37,2-1.45,2.8-2.52.68-.71.47.74,1,.41,1.31-.54-.33-2.25-.68-3-.31-.49-1.25.5-1.6.11-.29-.77.5-1.09.69-1.65a10.93,10.93,0,0,0-1.8-1.72c-.09-.36.66-.37.51-.76-.51-.32-.81-1.16-1.65-.69,2-2.46,3.56,3.39,5.91,3.05a22.36,22.36,0,0,1,.46,9.12c1,.42.6-.89,1.45-1.14a1.66,1.66,0,0,1,.72,1.08c.78-.18.71-.89,1.41-.58.28,1.09-.91,1.56-.87,2.55.46.24.83-1.33,1.78-1,.28.57-.07.88,0,1.36.62-.26,1.37-.46,1.54-.91-.18-.81-.61-1-.91-1.54.55-.23.86.12,1.5-.34-1.07-1.49-1.37-3.8-.42-5-1.52-.59-2-3.46-1.32-5.21-.81.07-1.29-.62-1.71-1.49,1.29-1.37-.12-4.66-2.48-3.37C109.61,14.4,107,13.42,106.8,12.13ZM91.17,37.43c0-.8,0-1.45,1.12-1.28.16-3.14-.84-12.1-5.33-7.67.13,1-.29,1.69.35,2.87.6.27.52-.43,1.41-.58.28.4.75.38.95,1,.25,1-.95,2.08,0,2.73,1-.6-.08-2.11,1.44-2.51C92.43,34.1,89.68,36.52,91.17,37.43Zm2.68-5.48c.38.48,1.2-.09,1.56.46.3,1.1-.78,1.62-.54,2.69.72.32.72-.52,1.64-.67-.89-1.78-.84-4.23-3-4.54C93.42,30.48,93.87,31.32,93.85,31.95Zm12.33.69c.88-1.21.3-2,.25-3.39C105.38,30,106,31.39,106.18,32.64ZM78,48c-.75-1.09-1.06-4.41-3-4C76.44,45.19,76.49,47.81,78,48Zm-.32,1.23c-1-1.67-2.48-2.42-3.43-4.34l-1.4.58C73.84,48.21,75.17,50.14,77.68,49.26ZM94.4,36.65a7.7,7.7,0,0,0-1.19,3.77c.91.93,2,1.33,2.89,2.37.52-1.08,1-.6,2.11-.87C98.26,40,96.87,35.44,94.4,36.65Zm-11.64,13a1.82,1.82,0,0,1,2.17,1.3,1.91,1.91,0,0,0,.93-1.75c-1.58-1-2.5-3.61-4.22-4.29C80.51,47,83.82,47.73,82.76,49.64Zm26-13.4c.8-.32.61-2.07.17-2.26C108.88,34.74,108.22,35.24,108.75,36.24ZM94,44.23c-.34-.74-.51-1.89-1.38-1.35C92.31,43.67,93.32,44.2,94,44.23Zm17.86-6.51a1,1,0,0,0,.69-1.65A1.21,1.21,0,0,0,111.82,37.72Zm2.77-.59a1.67,1.67,0,0,0,1.08-.71c-.15-.26-.23-.69-.52-.61C115.3,36.39,114.09,36.4,114.59,37.13ZM87,52.57c-.36-1.14-.84-2-1.94-1.4C85.72,52.28,85.44,53.17,87,52.57Zm28-10.41c.14-1,.54-2,.68-3C113.72,38.72,113.12,42.08,115,42.16ZM88.62,53.26c.47-.13.41-.47.84-.62a3,3,0,0,0-1.71-1.49ZM75.84,60.14c.17-1.31-1-1.46-1.53-2.39l-1.17.48C74,58.89,74.71,60.08,75.84,60.14Zm20.76-8.79c-.58-.63-1.09-1.42-1.8-1.72C95.21,50.67,95.7,51.49,96.61,51.35Zm17.91-7.07c-.16-.39.59-.4.51-.76-.46.16-.48-.71-1-.42C114.58,43.57,113.74,44.36,114.51,44.28ZM78,60.64a6.77,6.77,0,0,0,1.46.22c.09-.57.59-1.48,1.45-1.14a2.71,2.71,0,0,0-3.11-.91C78.08,59.53,77.3,59.78,78,60.64Zm25.8-7.85c1.28-.21,1-1.78.17-2.26l-.7.29A4.69,4.69,0,0,0,103.77,52.8ZM79.31,63.92A2.17,2.17,0,0,0,79,62.42c-.49.09-.8-.26-1.37,0C77.54,62.92,78.44,64.22,79.31,63.92Zm3.87,1.42c-.38-1.4-1.35-1.41-2.27-1.53A2,2,0,0,0,83.18,65.35Zm39.91-8.16c1.6-1.21,3.76-2.18,2.83-4.45A3.68,3.68,0,0,0,123.09,57.19ZM92,70.77c.7-.61,1.47-1.2,1.3-2.17C90.78,65.76,88.05,70.47,92,70.77ZM99.05,78l-.38-.94-.71.29C98.15,78,98.36,78.56,99.05,78Zm17-5.89,2.34-1a4.77,4.77,0,0,0-3.49-.49A1.93,1.93,0,0,0,116.07,72.12ZM94.94,81.33l.94-.38a1.42,1.42,0,0,1-.15-1C94.94,80.17,94.71,80.65,94.94,81.33Zm-6.32,4c.06.8.7.2,1.13.08l-.29-.7C89,84.8,89.06,85.15,88.62,85.29Zm7.15.08c-.07-.3.2-.25.47-.19-.87-1.27,1.21-1.31.64-2.45C96,83.28,95.35,84.93,95.78,85.37Z"/><path class="cls-5" d="M23.53,33.42a12.87,12.87,0,0,1-4.29,3.43c-.74,1.18-2.36,1.48-3.74,2,.31-.2.69-.33.86-.67-.77-.2-1.8.67-2.7.55a2.84,2.84,0,0,1-1.16.31c-.29,0,.07-.14.06-.25a3.3,3.3,0,0,1-1.59.06c-.17,0-.21-.09-.12-.18a2.53,2.53,0,0,1-.68-.06c-.08-.16-.26-.23-.31-.43C8.78,37.66,8,36.3,7.35,35.14s-1.16-2.35.12-3.25c.15,0,.18-.1.37-.06a1.75,1.75,0,0,1,1.1-.61c-.29-.43-.69,0-1-.31-.6.53-1.08-.08-1.78-.12,0-1,0-2.15,0-3.25.61,0,.8.43,1.35.49.06-.58-.36-1.41-.12-2.33,1.17-1.61,2.83-2.72,4.11-4.23.46,0,1-.51,1.47-.06.18-.05-.14-.09-.06-.24a19.21,19.21,0,0,1,2.57.73,1.06,1.06,0,0,0-.61-.55c.49,0,1,.54,1.66.61a12.7,12.7,0,0,0,2.39,2.27c.72.95,1.56,1.63,2.21,2.64a23.78,23.78,0,0,1,1.41,3.37c.2.45.48.8.61,1.23A16.64,16.64,0,0,0,23.53,33.42Z"/><path class="cls-4" d="M49.86,80.07c-2.35,2.45-4.61,5-8,6.41-1.38,2.2-4.41,2.75-7,3.77.58-.38,1.29-.61,1.6-1.26-1.44-.37-3.36,1.25-5,1a5.24,5.24,0,0,1-2.17.57c-.54,0,.13-.26.11-.46a6.08,6.08,0,0,1-3,.11c-.32,0-.39-.17-.23-.34a4.43,4.43,0,0,1-1.26-.12c-.16-.3-.48-.43-.57-.8-2-1-3.4-3.55-4.69-5.72s-2.17-4.39.23-6.06c.27,0,.34-.2.69-.11A3.23,3.23,0,0,1,22.63,76c-.54-.8-1.28,0-1.94-.57-1.12,1-2-.14-3.32-.23.05-1.92,0-4,0-6.06,1.14,0,1.5.79,2.52.92.12-1.09-.67-2.63-.23-4.35,2.19-3,5.29-5.08,7.66-7.89.87,0,1.86-.95,2.75-.12.34-.1-.26-.17-.11-.46a36.28,36.28,0,0,1,4.81,1.37,2,2,0,0,0-1.14-1c.92,0,1.9,1,3.09,1.14a23.75,23.75,0,0,0,4.46,4.23c1.35,1.77,2.92,3,4.12,4.92S47,72,47.91,74.12c.37.85.89,1.49,1.14,2.29C49.41,77.53,49.34,78.9,49.86,80.07Z"/><rect class="cls-6" x="0.57" y="0.57" width="144" height="144" rx="18.78" ry="18.78"/><path class="cls-7" d="M66.28,102.82V90.72H88.45v55H74.15V102.82Z"/><path class="cls-7" d="M138.33,118.21c0,14.29-6.93,29.68-23.34,29.68s-23.34-15.39-23.34-29.68,7-29.68,23.34-29.68S138.33,103.92,138.33,118.21Zm-32.45-.07c0,5.32,1.75,17.14,9.12,17.14s9.12-11.82,9.12-17.14-1.75-17-9.12-17S105.88,112.82,105.88,118.14Z"/></g></g></g></svg>