<svg xmlns="http://www.w3.org/2000/svg" xmlns:xlink="http://www.w3.org/1999/xlink" viewBox="0 0 148 146.9"><defs><style>.a,.f{fill:none;}.b{fill:url(#a);}.c{fill:#fff;}.d{clip-path:url(#b);}.e{fill:#8dc63f;}.f{stroke:#f7941d;stroke-miterlimit:10;stroke-width:1.14px;}</style><linearGradient id="a" x1="73.6" y1="145.8" x2="73.6" y2="1.8" gradientUnits="userSpaceOnUse"><stop offset="0" stop-color="#f7941d"/><stop offset="1" stop-color="#f9ed32"/></linearGradient><clipPath id="b"><rect class="a" x="1.6" y="1.8" width="144" height="144" rx="18.8" ry="18.8"/></clipPath></defs><title>Aichi Biodiversity Target 17</title><rect class="b" x="1.6" y="1.8" width="144" height="144" rx="18.8" ry="18.8"/><path class="c" d="M56.4,104.9a6.6,6.6,0,0,0-2.7-4.9,4.7,4.7,0,0,0,.5-2.1A5.6,5.6,0,0,0,52.4,94h0c-3.4-3.7-5.9-13.3-5.9-24.5h0c1.9-1.2,3.1-2.6,3.1-4.2v-4c0-1.7-1.4-3.3-3.6-4.5a13.6,13.6,0,1,0-20.7,0c-2.2,1.2-3.6,2.8-3.6,4.5v4c0,1.6,1.2,3.1,3.2,4.3h0c0,10.8-2.3,20.1-5.5,24.1A5.9,5.9,0,0,0,17,97.9a4.7,4.7,0,0,0,.5,2.1,6.6,6.6,0,0,0-2.7,4.9,5.2,5.2,0,0,0,.4,2,5.2,5.2,0,0,0-.4,2v.9c0,5.6,9.3,10.1,20.8,10.1s20.8-4.5,20.8-10.1V109a5.1,5.1,0,0,0-.4-2A5.2,5.2,0,0,0,56.4,104.9Z"/><path class="c" d="M90.4,72.9a5.3,5.3,0,0,0-2.1-3.9,3.8,3.8,0,0,0,.4-1.7,4.5,4.5,0,0,0-1.5-3.1h0c-2.8-2.9-4.7-10.6-4.7-19.6h0c1.5-.9,2.5-2.1,2.5-3.4V37.8c0-1.4-1.1-2.7-2.9-3.6a10.9,10.9,0,1,0-16.6,0c-1.8,1-2.9,2.2-2.9,3.6V41c0,1.3,1,2.5,2.5,3.4h0c0,8.7-1.8,16.1-4.4,19.3a4.7,4.7,0,0,0-1.9,3.5,3.8,3.8,0,0,0,.4,1.7,5.3,5.3,0,0,0-2.1,3.9,4.1,4.1,0,0,0,.3,1.6,4.1,4.1,0,0,0-.3,1.6v.8c0,4.4,7.4,8,16.6,8s16.6-3.6,16.6-8v-.8a4.1,4.1,0,0,0-.3-1.6A4.1,4.1,0,0,0,90.4,72.9Z"/><g class="d"><path class="e" d="M102.6,42.2c-7.2-6.5-8.1-7.6-9-6.2l-1.7,2.5s-3.9-4.2-6.4-3.9-1.7,2.3-1.7,2.3l-.5,8.6H77.2c-2.8,0-3.6,3.6-5.1,5.5s-.3,3-1.6,5.5-1.9,4.5-5.3,7-2.8,2.2-3,4.8-.5,4.5,2.3,8.4,4.1,4.7,7.8,4.8,3.6-.3,3.9-1.2.6-1.6,1.9-1.6h2.7s-16.8,28.1-19,32.8-.5,4.4-.5,4.4a48.4,48.4,0,0,0,5,2.5c.8.2-.7,2.2-.7,2.2-1.8,1.5-7.5,6.3-7.5,8.5a6.6,6.6,0,0,0,.5,2.6,6.6,6.6,0,0,0-.5,2.6v7.6c0,7,11.8,12.8,26.4,12.8s26.4-5.7,26.4-12.8v-7.6a6.5,6.5,0,0,0-.5-2.6,6.6,6.6,0,0,0,.5-2.6c0-2.3-5.7-7-7.5-8.5a10.8,10.8,0,0,0,5-2.2,8.9,8.9,0,0,0,2.2-2.5,235.5,235.5,0,0,1,.6-36.2C112.9,58.9,109.8,48.8,102.6,42.2ZM90.9,55.9c-.3,1.7-1.6,3-2.9,2.8s-2.3-1.8-2-3.5,1.6-3,2.9-2.8S91.1,54.1,90.9,55.9Z"/><path class="e" d="M109.6,87c-2,1.8-3.2,3.8-3.2,5.9a6.4,6.4,0,0,0,.7,2.8c-2.3,2-3.6,4.3-3.6,6.7a7.1,7.1,0,0,0,.6,2.8,7.1,7.1,0,0,0-.6,2.8v8.2a7.4,7.4,0,0,0,1.2,4,9.2,9.2,0,0,0,3.6-1.9,8.9,8.9,0,0,0,2.2-2.5,229.2,229.2,0,0,1,.2-30.2Z"/><path class="e" d="M160,102.5c0-2.4-1.3-4.7-3.6-6.7a6.4,6.4,0,0,0,.7-2.8,7.6,7.6,0,0,0-2.5-5.3h0c-4.7-5-8-18.1-8-33.4h0c2.6-1.6,4.2-3.6,4.2-5.7V47.2c2.6-1.8,4.1-4,4.1-6.3V26.2c0-6.2-10.3-11.1-23-11.1l-4.9.3v2.9l-2.8.4V15.7c-8.9,1.5-15.3,5.7-15.3,10.5V40.9c0,2.3,1.5,4.5,4.1,6.3v1.1c0,2.2,1.6,4.2,4.3,5.8h0c0,10.2-1.5,19.4-3.9,25.9a235.9,235.9,0,0,0-.6,35.5v.5l-.2.5a10.4,10.4,0,0,1-2.7,3.3,9.5,9.5,0,0,1-2.1,1.4,27.2,27.2,0,0,1,4.2,4.5c5.1,2.5,12.2,4,19.9,4,15.6,0,28.3-6.1,28.3-13.7V108a7.1,7.1,0,0,0-.6-2.8A7,7,0,0,0,160,102.5Z"/></g><rect class="f" x="1.6" y="1.8" width="144" height="144" rx="18.8" ry="18.8"/><path class="c" d="M67.3,104.1V91.9H89.5v55H75.2V104.1Z"/><path class="c" d="M96.2,104.1V91.9h45.1l-31.6,55H94.1l25.1-42.9Z"/></svg>
