<svg xmlns="http://www.w3.org/2000/svg" xmlns:xlink="http://www.w3.org/1999/xlink" viewBox="0 0 217.11 243.2"><defs><style>.cls-1,.cls-9{fill:none;}.cls-2{fill:url(#New_Gradient_Swatch_1);}.cls-3{clip-path:url(#clip-path);}.cls-4,.cls-5,.cls-7,.cls-8{fill:#8dc63f;}.cls-5,.cls-7,.cls-8{stroke:#fff;}.cls-5,.cls-7,.cls-8,.cls-9{stroke-miterlimit:10;}.cls-5{stroke-width:0.46px;}.cls-6{fill:#fff;}.cls-7{stroke-width:0.61px;}.cls-8{stroke-width:0.93px;}.cls-9{stroke:#f7941d;stroke-width:1.14px;}</style><linearGradient id="New_Gradient_Swatch_1" x1="113.95" y1="159.86" x2="113.95" y2="15.87" gradientUnits="userSpaceOnUse"><stop offset="0" stop-color="#f7941d"/><stop offset="1" stop-color="#f9ed32"/></linearGradient><clipPath id="clip-path"><rect class="cls-1" x="41.95" y="15.87" width="144" height="144" rx="18.78" ry="18.78"/></clipPath></defs><title>Asset 21</title><g id="Layer_2" data-name="Layer 2"><g id="Layer_1-2" data-name="Layer 1"><g id="_20" data-name="20"><rect class="cls-2" x="41.95" y="15.87" width="144" height="144" rx="18.78" ry="18.78"/><g class="cls-3"><circle class="cls-4" cx="43.91" cy="42.77" r="42.77" transform="matrix(0.13, -0.99, 0.99, 0.13, -4.05, 80.95)"/><circle class="cls-5" cx="43.91" cy="42.78" r="39.02" transform="matrix(0.13, -0.99, 0.99, 0.13, -4.06, 80.95)"/><circle class="cls-6" cx="48.22" cy="8.8" r="1.57" transform="matrix(0.13, -0.99, 0.99, 0.13, 33.43, 55.53)"/><circle class="cls-6" cx="54.28" cy="10.13" r="1.57" transform="translate(28.18 58.79) rotate(-72.36)"/><circle class="cls-6" cx="60" cy="12.54" r="1.57" transform="translate(20.77 59.64) rotate(-62.01)"/><circle class="cls-6" cx="65.19" cy="15.94" r="1.57" transform="translate(12.23 57.16) rotate(-51.63)"/><circle class="cls-6" cx="69.68" cy="20.22" r="1.57" transform="translate(3.95 50.93) rotate(-41.22)"/><circle class="cls-6" cx="73.33" cy="25.24" r="1.57" transform="translate(-2.58 41.09) rotate(-30.79)"/><path class="cls-6" d="M74.54,31.38a1.57,1.57,0,1,1,2,.93A1.56,1.56,0,0,1,74.54,31.38Z"/><circle class="cls-6" cx="77.64" cy="36.82" r="1.57" transform="translate(-5.22 14.07) rotate(-10.02)"/><circle class="cls-6" cx="78.16" cy="43" r="1.57" transform="translate(34.67 120.89) rotate(-89.64)"/><path class="cls-6" d="M76,48.88a1.57,1.57,0,1,1,1.25,1.84A1.57,1.57,0,0,1,76,48.88Z"/><circle class="cls-6" cx="75.85" cy="55.14" r="1.57" transform="translate(-2.99 105.91) rotate(-68.8)"/><path class="cls-6" d="M71.76,59.88A1.57,1.57,0,1,1,72.27,62,1.57,1.57,0,0,1,71.76,59.88Z"/><circle class="cls-6" cx="69.38" cy="65.67" r="1.57" transform="translate(-25.84 73.38) rotate(-48.05)"/><circle class="cls-6" cx="64.84" cy="69.89" r="1.57" transform="translate(-29.2 54.21) rotate(-37.68)"/><path class="cls-6" d="M58.88,71.83a1.57,1.57,0,1,1-.68,2.11A1.57,1.57,0,0,1,58.88,71.83Z"/><circle class="cls-6" cx="53.85" cy="75.56" r="1.57" transform="translate(-19.6 18.87) rotate(-16.86)"/><circle class="cls-6" cx="47.78" cy="76.81" r="1.57" transform="translate(-8.33 5.85) rotate(-6.45)"/><circle class="cls-6" cx="41.57" cy="76.95" r="1.57" transform="translate(-38.04 113.16) rotate(-86.08)"/><circle class="cls-6" cx="35.45" cy="75.97" r="1.57" transform="translate(-46.93 91.51) rotate(-75.67)"/><path class="cls-6" d="M30.25,72.48a1.57,1.57,0,1,1-2.08.77A1.56,1.56,0,0,1,30.25,72.48Z"/><path class="cls-6" d="M41.72,43.79a13.26,13.26,0,0,1,0,7.28l.6.21a29.66,29.66,0,0,0,8,1.85,2.51,2.51,0,0,0,2.77-2.66h6.63A12.49,12.49,0,0,1,57,58a9.23,9.23,0,0,1-7.23,3c-2.66,0-4.94-.82-7.49-1.52a30.46,30.46,0,0,0-6.9-1.36c-1.36,0-3,.54-3.42,2H24.89c.87-4.62,4.24-9.56,9.34-9.62,1.09-2.34.33-4.67-1-6.68H24.51V39.66h5.86a13.28,13.28,0,0,1-2-7,14.39,14.39,0,0,1,4.4-10.37c3.15-3,7.22-4,11.46-4,10.76,0,15,4.78,15.1,15.42H48.84v-1.9a5.12,5.12,0,0,0-4.94-5.16c-3.31,0-5.16,2.66-5.16,5.76A12.56,12.56,0,0,0,41,39.66h8.47v4.13Z"/><circle class="cls-4" cx="56.27" cy="100.57" r="56.26" transform="translate(-50.58 143.72) rotate(-82.77)"/><circle class="cls-7" cx="56.27" cy="100.57" r="51.33" transform="translate(-50.59 143.73) rotate(-82.77)"/><circle class="cls-6" cx="61.94" cy="55.87" r="2.07" transform="translate(-1.27 110.31) rotate(-82.79)"/><circle class="cls-6" cx="69.91" cy="57.63" r="2.07" transform="translate(-6.16 106.85) rotate(-72.4)"/><circle class="cls-6" cx="77.43" cy="60.8" r="2.07" transform="translate(-12.62 100.59) rotate(-61.98)"/><circle class="cls-6" cx="84.26" cy="65.27" r="2.06" transform="translate(-19.22 90.78) rotate(-51.61)"/><circle class="cls-6" cx="90.17" cy="70.9" r="2.06" transform="translate(-24.37 77.05) rotate(-41.25)"/><circle class="cls-6" cx="94.97" cy="77.5" r="2.06" transform="translate(-26.29 59.58) rotate(-30.81)"/><path class="cls-6" d="M96.56,85.58a2.07,2.07,0,1,1,2.66,1.21A2.06,2.06,0,0,1,96.56,85.58Z"/><circle class="cls-6" cx="100.64" cy="92.74" r="2.07" transform="translate(-14.58 18.89) rotate(-10)"/><circle class="cls-6" cx="101.32" cy="100.87" r="2.06" transform="translate(-0.19 201.54) rotate(-89.63)"/><circle class="cls-6" cx="100.53" cy="108.99" r="2.07" transform="translate(-25.3 187.42) rotate(-79.25)"/><path class="cls-6" d="M96.36,116.09a2.07,2.07,0,1,1,1.18,2.67A2.07,2.07,0,0,1,96.36,116.09Z"/><circle class="cls-6" cx="94.66" cy="124.15" r="2.06" transform="translate(-60.67 139.82) rotate(-58.43)"/><circle class="cls-6" cx="89.78" cy="130.69" r="2.06" transform="translate(-67.43 110.09) rotate(-48.05)"/><path class="cls-6" d="M82.54,134.61a2.06,2.06,0,1,1-.38,2.89A2.06,2.06,0,0,1,82.54,134.61Z"/><circle class="cls-6" cx="76.91" cy="140.62" r="2.06" transform="translate(-55.92 50.92) rotate(-27.29)"/><circle class="cls-6" cx="69.35" cy="143.69" r="2.06" transform="translate(-38.68 26.28) rotate(-16.85)"/><circle class="cls-6" cx="61.36" cy="145.34" r="2.07" transform="translate(-15.92 7.8) rotate(-6.44)"/><circle class="cls-6" cx="53.2" cy="145.52" r="2.06" transform="translate(-95.62 188.65) rotate(-86.08)"/><path class="cls-6" d="M45.65,142.23a2.06,2.06,0,1,1-2.51,1.49A2.06,2.06,0,0,1,45.65,142.23Z"/><path class="cls-6" d="M38.31,139.64a2.06,2.06,0,1,1-2.74,1A2.06,2.06,0,0,1,38.31,139.64Z"/><polygon class="cls-6" points="140.08 111.19 87.41 111.19 98.97 48.16 128.51 48.16 140.08 111.19"/><polygon class="cls-6" points="85.5 55.34 113.48 18.86 141.46 55.34 85.5 55.34"/><path class="cls-6" d="M41.08,112.29c3.41,3.19,8.67,6.22,13.41,6.22,3.11,0,7-1.77,7-5.41,0-4.15-5.78-4.89-11.63-7s-11.64-5.48-11.64-14.53c0-8.74,6.08-16.81,15.12-17.41v-9H60.2v9a30.16,30.16,0,0,1,13.49,4.3L68.2,89.18a15.38,15.38,0,0,0-9.49-3.63c-3.26,0-6.3,1.18-6.3,4.15,0,3.41,4.67,4.89,7.26,5.78,8.44,2.81,16.07,5.93,16.07,16.23S69.83,127.4,60.2,129.77V139H53.31v-8.82a26.65,26.65,0,0,1-9.56-1.85A26.1,26.1,0,0,1,35,123.48Z"/><circle class="cls-4" cx="131.17" cy="157.27" r="85.94"/><circle class="cls-8" cx="131.17" cy="157.27" r="78.4"/><circle class="cls-6" cx="62.36" cy="157.27" r="3.15"/><circle class="cls-6" cx="63.49" cy="144.85" r="3.15" transform="translate(-90.45 181.13) rotate(-79.59)"/><circle class="cls-6" cx="66.84" cy="132.85" r="3.16" transform="translate(-81.08 148.24) rotate(-69.23)"/><circle class="cls-6" cx="72.3" cy="121.64" r="3.15" transform="translate(-69.2 120.55) rotate(-58.83)"/><circle class="cls-6" cx="79.69" cy="111.6" r="3.15" transform="translate(-56.69 97.21) rotate(-48.44)"/><circle class="cls-6" cx="88.77" cy="103.06" r="3.15" transform="translate(-44.67 76.67) rotate(-38.07)"/><circle class="cls-6" cx="99.25" cy="96.3" r="3.15" transform="translate(-33.36 57.06) rotate(-27.65)"/><circle class="cls-6" cx="110.77" cy="91.54" r="3.15" transform="translate(-22.19 37.02) rotate(-17.27)"/><path class="cls-6" d="M123.34,92.07a3.15,3.15,0,1,1,2.75-3.51A3.15,3.15,0,0,1,123.34,92.07Z"/><path class="cls-6" d="M135.22,91.73a3.15,3.15,0,1,1,3.34-3A3.15,3.15,0,0,1,135.22,91.73Z"/><path class="cls-6" d="M147,93.53a3.15,3.15,0,1,1,3.82-2.3A3.15,3.15,0,0,1,147,93.53Z"/><path class="cls-6" d="M158.22,97.43a3.15,3.15,0,1,1,4.17-1.57A3.15,3.15,0,0,1,158.22,97.43Z"/><path class="cls-6" d="M168.57,103.29a3.15,3.15,0,1,1,4.39-.8A3.15,3.15,0,0,1,168.57,103.29Z"/><circle class="cls-6" cx="179.93" cy="108.69" r="3.15" transform="translate(-24.23 158.79) rotate(-44.92)"/><path class="cls-6" d="M185.29,120.07a3.15,3.15,0,1,1,4.38.81A3.14,3.14,0,0,1,185.29,120.07Z"/><circle class="cls-6" cx="193.99" cy="129.15" r="3.15" transform="translate(-35.83 90.5) rotate(-24.11)"/><path class="cls-6" d="M195,141.69a3.15,3.15,0,1,1,3.81,2.31A3.15,3.15,0,0,1,195,141.69Z"/><path class="cls-6" d="M196.73,153.45a3.15,3.15,0,1,1,3.33,3A3.14,3.14,0,0,1,196.73,153.45Z"/><path class="cls-6" d="M196.34,165.34a3.15,3.15,0,1,1,2.74,3.52A3.14,3.14,0,0,1,196.34,165.34Z"/><path class="cls-6" d="M193.82,177a3.15,3.15,0,1,1,2.06,4A3.14,3.14,0,0,1,193.82,177Z"/></g><rect class="cls-9" x="41.95" y="15.87" width="144" height="144" rx="18.78" ry="18.78"/><path class="cls-6" d="M129.76,148.9V161H85.56L108,136.58c3.21-3.5,6.27-8.46,6.27-13.49,0-3.5-2.48-7.15-6.27-7.15s-6,3-6,6.71a13.23,13.23,0,0,0,.22,2.33H86.51c.44-12.62,8.46-21.15,21.44-21.15,11.52,0,21.22,7.58,21.22,19.54,0,7.88-3.28,12.47-8.9,17.58l-8.53,7.95Z"/><path class="cls-6" d="M179.71,133.51c0,14.29-6.93,29.68-23.34,29.68S133,147.81,133,133.51s7-29.68,23.34-29.68S179.71,119.22,179.71,133.51Zm-32.45-.08c0,5.32,1.75,17.14,9.12,17.14s9.12-11.82,9.12-17.14-1.75-17-9.12-17S147.26,128.11,147.26,133.44Z"/></g></g></g></svg>