<svg xmlns="http://www.w3.org/2000/svg" xmlns:xlink="http://www.w3.org/1999/xlink" viewBox="0 0 151.3 148.2"><defs><style>.a,.g{fill:none;}.b{fill:url(#a);}.c{clip-path:url(#b);}.d,.f{fill:#fbb040;}.d,.e{fill-rule:evenodd;}.e,.h{fill:#fff;}.g{stroke:#be1e2d;stroke-miterlimit:10;stroke-width:1.14px;}</style><linearGradient id="a" x1="75.22" y1="144.9" x2="75.22" y2="0.91" gradientUnits="userSpaceOnUse"><stop offset="0" stop-color="#be1e2d"/><stop offset="1" stop-color="#f15a29"/></linearGradient><clipPath id="b"><path class="a" d="M147.2,126.1a18.8,18.8,0,0,1-18.8,18.8H22A18.8,18.8,0,0,1,3.2,126.1V19.7A18.8,18.8,0,0,1,22,.9H128.4a18.8,18.8,0,0,1,18.8,18.8Z"/></clipPath></defs><title>Aichi Biodivesity Target 5</title><path class="b" d="M147.2,126.1a18.8,18.8,0,0,1-18.8,18.8H22A18.8,18.8,0,0,1,3.2,126.1V19.7A18.8,18.8,0,0,1,22,.9H128.4a18.8,18.8,0,0,1,18.8,18.8Z"/><g class="c"><path class="d" d="M121.5,147.5c-7.6-15.3-12-31.2-11.7-47.7V.1H85.5V99.9c.3,16.5-4,32.3-11.7,47.7Z"/><path class="d" d="M149.9,147.5c-7.6-15.3-12-31.2-11.7-47.7V.1H113.8V99.9c.3,16.5-4,32.3-11.7,47.7Z"/><path class="d" d="M180.4,147.5c-7.6-15.3-12-31.2-11.7-47.7V.1H144.4V99.9c.3,16.5-4,32.3-11.7,47.7Z"/><path class="d" d="M50.6,99.3v-.8l20.9-2.4V.1H47.1V99.9c.3,16.5-4,32.3-11.7,47.7H83.2c-7.4-14.8-11.6-30.1-11.7-45.9Z"/><path class="e" d="M6.9,110.4l2.6-1.4c.7,1.7-.2,4.7.5,6.4l4.1-2.9c.7,1.6-.1,4.7.7,6.3l4.1-3c.8,1.6,0,4.6.9,6.2l4-3.1c.9,1.6.1,4.6,1,6.1l4-3.1c.9,1.6.2,4.5,1.2,6l3.9-3.2c1,1.5.3,4.4,1.3,5.9l3.8-3.3c1,1.5.4,4.4,1.5,5.9l3.8-3.4c1,1.5.5,4.3,1.6,5.7l3.7-3.4c1.1,1.4.6,4.2,1.8,5.6l3.6-3.5c1.2,1.4.7,4.2,1.9,5.5l3.6-3.6c1.2,1.4.8,4.1,2.1,5.4l3.5-3.6c1.2,1.3.9,4,2.2,5.3.6-.8,2.8-2.9,3.4-3.7l4,3.8-.6-.4c.8.4,2.9-2.6,3.1-3.3A137.2,137.2,0,0,1,86,123.6c.4-.6,1.4-4.1.6-4.5s-2.9,2.6-3.1,3.3c-1.5,3.7-3.1,7.2-4.9,10.7L12.5,101.5c1.6-3.6,3.4-7.1,5.3-10.5.4-.6,1.4-4.1.6-4.5s-2.9,2.6-3.1,3.3a137.3,137.3,0,0,1-7.8,16.2C7.2,106.5,6.2,110,6.9,110.4Z"/><path class="d" d="M14.2,99.3l-2.6-17V99.9c.3,16.5-4,32.3-11.7,47.7H47.7c-7.3-14.7-11.6-30-11.6-45.8Z"/><path class="f" d="M157.2,25.6l-8.3-39.2s-151.3,0-151.6.8S-1.3,9-1.3,9l2.9,1.3c0,.1,0,.2,0,.3.5,4.8,5.2,11.2,5,11.2a15.3,15.3,0,0,0,2.8-3.7c-.6,4.4.2,9.6.1,9.5a17.4,17.4,0,0,0,6.3-3.8c1.4,2.5,2.7,4.4,2.6,4.3a17.1,17.1,0,0,0,4.2-7.7c2.2,2.3,4.4,4,4.3,4a6.6,6.6,0,0,0,.7-1.5c1.1,2.3,2.2,4.1,2.1,4.1s5.3-5.1,5-9.9a15.4,15.4,0,0,0-.2-2.3l.6.6c0,.1,0,.3,0,.4.6,4.8,5.4,11.1,5.2,11.1a16.4,16.4,0,0,0,3.1-4.6c1.4,4.4,5.4,9.3,5.3,9.3a17.1,17.1,0,0,0,3.8-7.8l13.4.5c1.4,4.4,5,9.1,4.9,9a17.1,17.1,0,0,0,3.5-5.7l2.6,2.4a9.1,9.1,0,0,0,1-2.2c.8,1.7,1.5,2.8,1.4,2.8A17.4,17.4,0,0,0,83.8,24a19.3,19.3,0,0,0,1.9-2.9c2,4.4,8.1,9,7.9,9a16,16,0,0,0,1.7-5c2.4,2.7,5.1,4.7,4.9,4.7a16.3,16.3,0,0,0,1.7-5.2l6.8,4.1c1.6,2.8,3.3,5,3.2,5a16,16,0,0,0,2.9-4.4l10.6-3.1,5.5.2.3.9c1.9,4.4,8.2,9.2,8,9.2a14.6,14.6,0,0,0,1.5-4.1l2.6,2.4a9.5,9.5,0,0,0,1-2.3h.1a16.7,16.7,0,0,0,1.8-5.6h.5ZM25.4,17.7v.2h0Zm23.4,7.3a15.6,15.6,0,0,0-.5-2.9l.4.2A12.8,12.8,0,0,1,48.7,25.1ZM71,26.8a12.6,12.6,0,0,0-.3-2.2H71A11,11,0,0,1,71,26.8Zm21.2-3.2a22.2,22.2,0,0,0-1.8-3.8h.6A17.4,17.4,0,0,1,92.3,23.6Zm6.6-.3-.3-.8h.1A2.6,2.6,0,0,1,98.9,23.3Zm38.5,5.6.2.3a3.1,3.1,0,0,1,.2.8Z"/></g><path class="g" d="M147.2,126.1a18.8,18.8,0,0,1-18.8,18.8H22A18.8,18.8,0,0,1,3.2,126.1V19.7A18.8,18.8,0,0,1,22,.9H128.4a18.8,18.8,0,0,1,18.8,18.8Z"/><path class="h" d="M114.6,103.2l-.9,6.3,4.5-.4c11.2-.9,19.5,8.3,19.5,19.7a19.2,19.2,0,0,1-7.1,14.9c-4.4,3.5-10.6,4.6-16,4.6a33.1,33.1,0,0,1-17.9-5l2.1-13.5a23.3,23.3,0,0,0,15.3,6.3c4.5,0,8.7-3.3,8.7-8.1,0-6.6-6.3-9.4-12-9.4a24.7,24.7,0,0,0-10.5,2.3L105,91.1h28.6v12.1Z"/></svg>
