<svg xmlns="http://www.w3.org/2000/svg" xmlns:xlink="http://www.w3.org/1999/xlink" viewBox="0 0 237.27 177.92"><defs><style>.cls-1,.cls-7{fill:none;}.cls-2{fill:url(#New_Gradient_Swatch_3);}.cls-3,.cls-5{fill:#fff;}.cls-4{clip-path:url(#clip-path);}.cls-5{opacity:0.5;}.cls-6{fill:#fbb040;}.cls-7{stroke:#be1e2d;stroke-miterlimit:10;stroke-width:1.14px;}</style><linearGradient id="New_Gradient_Swatch_3" x1="158.38" y1="144.16" x2="158.38" y2="0.57" gradientUnits="userSpaceOnUse"><stop offset="0" stop-color="#be1e2d"/><stop offset="1" stop-color="#f15a29"/></linearGradient><clipPath id="clip-path"><rect class="cls-1" x="86.58" y="0.57" width="143.59" height="143.59" rx="18.73" ry="18.73"/></clipPath></defs><title>Asset 9</title><g id="Layer_2" data-name="Layer 2"><g id="Layer_1-2" data-name="Layer 1"><g id="_8" data-name="8"><rect class="cls-2" x="86.58" y="0.57" width="143.59" height="143.59" rx="18.73" ry="18.73"/><path class="cls-3" d="M161.16,88.54S157.82,79.13,145.7,75s-22.82,2.12-46.53-4.68c-12.45-3.57-12.45-2.69-12.45-2.69l-.55,2.48a110.81,110.81,0,0,0,41.08,7.37c22.3-.55,26.7,11,26.7,11Z"/><g class="cls-4"><path class="cls-5" d="M165,67.29c-4.41-8-14.32-14.32-34.14-24.78s-49-7.43-49-7.43L75.66,24.62s8.65-6.33,34.25-6.88,19.82,9.36,41,17.62,33,.55,52.31,7.16a35.34,35.34,0,0,1,22.85,24.78M168.65,96.68a19.17,19.17,0,0,0-12.4-13.44c-10.46-3.58-16.88.6-28.38-3.88s-8.36-9.86-22.26-9.56S87,73.53,87,73.53l-5.6,6s24.78-2,35.54,3.69,16.13,9.11,18.52,13.44"/></g><g class="cls-4"><path class="cls-6" d="M237.27,151.81c-13.91-28.17-21.37-56.35-11.18-84.52H165c6.14,17,5.84,34,1.61,51a44.36,44.36,0,0,1,2.07-21.56h-7.33l-.16-8.15h-4.71l-.67-33.29H144.63l-.84,41.44h-8.38c4.13,11.42,2.93,22.84-1.08,34.25l-1-48.26h-6.5l-1,50.57-1.58-78H113.11l-1,49.7H110l-.3-14.84h-6.5l-.3,14.84H97.75l-.19-9.33h-6.5l-.19,9.33H84.21c5.54,15.32,1.49,30.64-6.08,46a54.63,54.63,0,0,0,11.73,4.39l-.24,11.81H99l-.21-10.52c1,0,2,.05,3,0l-.1,5H111l-.33,16.3h16.1l-.48-23.74h8.54l-.19-9.18a51.15,51.15,0,0,0,8.15,2.42l-.62,30.5h16.1L157.89,160h4.71l-.09-4.31Q199.89,170.69,237.27,151.81ZM111,155.48l.09,0,0,2.2Z"/><path class="cls-3" d="M109.68,90.11A23.66,23.66,0,0,0,95.73,76.57c-10.93-4.13-20.77,2.75-42-4.68s-15.9-4.68-15.9-4.68l-.5,2.48S59,79.6,79.08,79s24.1,11,24.1,11Z"/><path class="cls-3" d="M97.56,95.62A23.66,23.66,0,0,0,83.62,82.08c-10.93-4.13-20.77,2.75-42-4.68s-15.9-4.68-15.9-4.68l-.5,2.48S46.85,85.11,67,84.55s24.1,11,24.1,11Z"/><path class="cls-3" d="M133.35,82.67A23.65,23.65,0,0,0,119.4,69.14c-10.93-4.13-20.77,2.75-42-4.68s-15.9-4.68-15.9-4.68L61,62.26s21.61,9.91,41.74,9.36,24.1,11,24.1,11Z"/><path class="cls-3" d="M155.77,55.24s-5.18-9.41-23.93-13.54-35.63,2.75-72-4.68-27.28-4.68-27.28-4.68l-.85,2.48s37.08,9.91,71.6,9.36,41.34,11,41.34,11Z"/><path class="cls-3" d="M124.26,55.24s-5.18-9.41-23.93-13.54S64.7,44.46,28.3,37,1,32.35,1,32.35L.17,34.82s37.08,9.91,71.6,9.36,41.34,11,41.34,11Z"/></g><rect class="cls-7" x="86.58" y="0.57" width="143.59" height="143.59" rx="18.73" ry="18.73"/><path class="cls-3" d="M219.38,103.92a13,13,0,0,1-8.65,12.44v.14c6.55,2.18,10.91,7.2,10.91,14.4,0,11.34-11.49,16.58-20.95,16.58s-20.94-5.24-20.94-16.58c0-7.2,4.36-12.22,10.91-14.4v-.14A13,13,0,0,1,182,103.92c0-10.47,9.31-15.64,18.69-15.64S219.38,93.44,219.38,103.92Zm-25.24,25.16a6.55,6.55,0,1,0,13.09,0,6.55,6.55,0,1,0-13.09,0Zm.51-24.73a6,6,0,1,0,6-6.18A6.1,6.1,0,0,0,194.65,104.35Z"/></g></g></g></svg>