<svg id="svg3310" xmlns="http://www.w3.org/2000/svg" xmlns:xlink="http://www.w3.org/1999/xlink" viewBox="0 0 279.32 106.14"><defs><style>.cls-1{fill:none;}.cls-2{clip-path:url(#clip-path);}.cls-3{clip-path:url(#clip-path-2);}.cls-4{fill:#009b48;}.cls-5{clip-path:url(#clip-path-3);}</style><clipPath id="clip-path" transform="translate(0 -0.11)"><rect class="cls-1" x="0.07" y="0.11" width="279.25" height="106.06"/></clipPath><clipPath id="clip-path-2" transform="translate(0 -0.11)"><rect class="cls-1" width="280" height="106.25"/></clipPath><clipPath id="clip-path-3" transform="translate(0 -0.11)"><rect class="cls-1" x="-17.83" y="-5.81" width="297.87" height="113.03"/></clipPath></defs><title>cbd-logo-green-en</title><g class="cls-2"><g id="g3322"><g id="g3324"><g class="cls-3"><g id="g3330"><path id="path3336" class="cls-4" d="M43.28,47.21V33.47c0-.15.14-16.91,15.18-17.63l9.66-.42c6.59-.91,10.43-2.79,12.8-7.81V27.32a8.08,8.08,0,0,1-.24,1.48c-1.53,6.06-7.38,8.56-13.63,8.89l-8.43.42C49.37,38.6,46.22,42.35,43.28,47.21Zm0,34.16c0-.14.14-16.9,15.18-17.62l9.66-.43c6.59-.9,10.43-2.78,12.8-7.79v19.7a7.93,7.93,0,0,1-.24,1.47c-1.53,6.07-7.38,8.57-13.63,8.89L58.62,86c-9.25.48-12.4,4.23-15.34,9.09ZM39.77,73.9c-2.94-4.85-6.09-8.6-15.33-9.09L16,64.38C9.75,64.05,3.9,61.56,2.38,55.49A7,7,0,0,1,2.14,54V34.31c2.37,5,6.21,6.9,12.79,7.8l9.67.43c15,.72,15.17,17.48,15.17,17.62ZM58.54,40.54l8.88-.47C83,39.21,83.28,27.39,83.29,27.28V.24L82,.11c0,.07-2.43,12.1-13.57,12.66l-10.19.48C49.63,13.67,45.29,19,43.14,24a29.07,29.07,0,0,0-2.16,10v19a22,22,0,0,0-.84-2.37C38,45.6,33.65,40.32,25.05,39.89l-10.19-.47c-6.69-.34-11-4.94-13-10.77a18.25,18.25,0,0,1-.55-1.89L0,26.89V53.94a9.51,9.51,0,0,0,.29,1.92C2,63.16,8.65,66.32,15.86,66.72l8.88.47c13.1.73,16,15.24,16.24,17.65v21.41H42.3c0-1.47,2.64-17.12,16.24-17.87l8.88-.47C83,87.05,83.28,75.23,83.29,75.13v-27L82,48C82,48,79.56,60,68.42,60.6l-10.19.48c-8.6.43-12.94,5.71-15.09,10.8-.32.76-.6,1.52-.83,2.26V58.32c-.18-1.16,3.56-17.78,16.22-17.78" transform="translate(0 -0.11)"/></g></g></g></g><g id="g3338"><g class="cls-5"><g id="g3340"><path id="path3346" class="cls-4" d="M111.93,47.21v-.37c0-2-.71-3.07-2.09-3.07a1.73,1.73,0,0,0-1.59.87,4.52,4.52,0,0,0-.42,2.54v5.88a7.6,7.6,0,0,0,.29,2.62,1.84,1.84,0,0,0,1.77,1.14c1.41,0,2.12-1.14,2.12-3.44a4.23,4.23,0,0,0,0-.45h2.75v.61c0,3.81-1.67,5.85-4.85,5.85a4.36,4.36,0,0,1-3.94-2c-.66-1.09-.85-2.12-.85-4.74V47.74c0-2.78.21-3.79,1-4.9a4.47,4.47,0,0,1,3.74-1.64c3,0,4.79,2,4.79,5.48v.53h-2.73" transform="translate(0 -0.11)"/><path id="path3348" class="cls-4" d="M119.93,54.73c0,1.67.48,2.41,1.56,2.41s1.59-.74,1.59-2.41V50.36c0-1.67-.48-2.41-1.56-2.41s-1.59.74-1.59,2.41Zm5.61-.16c0,2.07-.23,3-1,3.73a4.08,4.08,0,0,1-3,1.09,4.12,4.12,0,0,1-3-1.09c-.77-.76-1-1.66-1-3.73v-4c0-2.07.26-3,1-3.76a4.24,4.24,0,0,1,3-1.06,4.19,4.19,0,0,1,3,1.06c.8.79,1,1.69,1,3.76v4" transform="translate(0 -0.11)"/><path id="path3350" class="cls-4" d="M131.18,47.66c1.14-1.33,2.12-1.88,3.29-1.88,1.46,0,2.14,1,2.14,3.07V59.12h-2.46V49.49c0-1.17-.24-1.54-1-1.54a2.75,2.75,0,0,0-2,1.32v9.85h-2.46V46h2.46v1.7" transform="translate(0 -0.11)"/><path id="path3352" class="cls-4" d="M142.59,59.12,139.36,46H142l1.88,8.37L145.53,46h2.6l-2.94,13.16h-2.6" transform="translate(0 -0.11)"/><path id="path3354" class="cls-4" d="M156.21,50.07c0-1.56-.48-2.2-1.62-2.2s-1.61.66-1.61,2.2v.71h3.23ZM153,53v1.17a5.05,5.05,0,0,0,.31,2.3,1.49,1.49,0,0,0,1.36.72c1.08,0,1.58-.69,1.58-2.23v-.34h2.47c0,1.8-.11,2.38-.51,3a3.83,3.83,0,0,1-3.54,1.77A3.93,3.93,0,0,1,151.33,58a5.75,5.75,0,0,1-.82-3.57V50.52c0-2.09.24-3,1.06-3.74a4.14,4.14,0,0,1,3-1.08,3.93,3.93,0,0,1,3.1,1.22c.75.84,1,1.8,1,3.86V53H153" transform="translate(0 -0.11)"/><path id="path3356" class="cls-4" d="M164.1,47.66c1.14-1.33,2.12-1.88,3.28-1.88,1.46,0,2.15,1,2.15,3.07V59.12h-2.47V49.49c0-1.17-.23-1.54-.95-1.54a2.74,2.74,0,0,0-2,1.32v9.85h-2.46V46h2.46v1.7" transform="translate(0 -0.11)"/><path id="path3358" class="cls-4" d="M178.56,48.16h-2.25v7c0,1.32.45,1.88,1.53,1.88a3.66,3.66,0,0,0,1-.16v2.22a7.63,7.63,0,0,1-1.67.19,3.25,3.25,0,0,1-2.68-1c-.47-.58-.61-1.22-.61-2.89V48.16h-1.9V46h1.9v-3.6h2.47V46h2.25v2.2" transform="translate(0 -0.11)"/><path id="path3360" class="cls-4" d="M181.2,46h2.47V59.12H181.2Zm0-4.5h2.47V44H181.2Z" transform="translate(0 -0.11)"/><path id="path3362" class="cls-4" d="M189.12,54.73c0,1.67.48,2.41,1.57,2.41s1.58-.74,1.58-2.41V50.36c0-1.67-.47-2.41-1.56-2.41s-1.59.74-1.59,2.41Zm5.62-.16c0,2.07-.24,3-1,3.73a4.7,4.7,0,0,1-6,0c-.76-.76-1-1.66-1-3.73v-4c0-2.07.27-3,1-3.76a4.8,4.8,0,0,1,6,0c.79.79,1,1.69,1,3.76v4" transform="translate(0 -0.11)"/><path id="path3364" class="cls-4" d="M200.3,47.66c1.14-1.33,2.12-1.88,3.28-1.88,1.46,0,2.15,1,2.15,3.07V59.12h-2.47V49.49c0-1.17-.23-1.54-.95-1.54a2.74,2.74,0,0,0-2,1.32v9.85h-2.46V46h2.46v1.7" transform="translate(0 -0.11)"/><path id="path3366" class="cls-4" d="M217.11,54.73c0,1.67.48,2.41,1.57,2.41s1.59-.74,1.59-2.41V50.36c0-1.67-.48-2.41-1.57-2.41s-1.59.74-1.59,2.41Zm5.62-.16c0,2.07-.24,3-1,3.73a4.7,4.7,0,0,1-6,0c-.76-.76-1-1.66-1-3.73v-4c0-2.07.27-3,1-3.76a4.8,4.8,0,0,1,6,0c.79.79,1,1.69,1,3.76v4" transform="translate(0 -0.11)"/><path id="path3368" class="cls-4" d="M227.87,47.66c1.13-1.33,2.11-1.88,3.28-1.88,1.46,0,2.14,1,2.14,3.07V59.12h-2.46V49.49c0-1.17-.24-1.54-1-1.54a2.72,2.72,0,0,0-2,1.32v9.85H225.4V46h2.47v1.7" transform="translate(0 -0.11)"/><path id="path3370" class="cls-4" d="M109.39,83.8c1.72,0,2.73-.9,2.73-2.49A2.85,2.85,0,0,0,109,78.37h-1V83.8Zm-.4-7.94a2.47,2.47,0,0,0,2.76-2.49,2.17,2.17,0,0,0-.67-1.64,2.77,2.77,0,0,0-2-.56h-1v4.69Zm-3.7-7.21h4.07c3.31,0,5.17,1.62,5.17,4.48a3.69,3.69,0,0,1-2.92,3.94C114,77.76,115,79,115,81.31c0,3.13-2,5-5.24,5h-4.42V68.65" transform="translate(0 -0.11)"/><path id="path3372" class="cls-4" d="M117.94,73.16h2.47V86.32h-2.47Zm0-4.51h2.47v2.57h-2.47Z" transform="translate(0 -0.11)"/><path id="path3374" class="cls-4" d="M125.89,81.92c0,1.67.47,2.41,1.56,2.41s1.59-.74,1.59-2.41V77.55c0-1.67-.48-2.41-1.56-2.41s-1.59.74-1.59,2.41Zm5.61-.16c0,2.07-.24,3-1,3.74a4.72,4.72,0,0,1-6,0c-.77-.77-1-1.67-1-3.74V77.71c0-2.07.26-3,1-3.76a4.79,4.79,0,0,1,6,0c.79.79,1,1.69,1,3.76v4.05" transform="translate(0 -0.11)"/><path id="path3376" class="cls-4" d="M134.49,68.65H137V86.32h-2.47Z" transform="translate(0 -0.11)"/><path id="path3378" class="cls-4" d="M142.44,81.92c0,1.67.47,2.41,1.56,2.41s1.59-.74,1.59-2.41V77.55c0-1.67-.48-2.41-1.56-2.41s-1.59.74-1.59,2.41Zm5.61-.16c0,2.07-.24,3-1,3.74a4.72,4.72,0,0,1-6,0c-.77-.77-1-1.67-1-3.74V77.71c0-2.07.26-3,1-3.76a4.79,4.79,0,0,1,6,0c.79.79,1,1.69,1,3.76v4.05" transform="translate(0 -0.11)"/><path id="path3380" class="cls-4" d="M153.32,78.74c0,1.43.5,2.15,1.49,2.15s1.51-.69,1.51-2.15V77.29c0-1.46-.48-2.15-1.49-2.15s-1.51.72-1.51,2.15Zm.21,8a1.69,1.69,0,0,0-.58,1.11c0,.77.69,1.09,2.44,1.09s2.51-.37,2.51-1.14c0-.5-.31-.77-1-.87a12.37,12.37,0,0,0-2-.14c-.34,0-.69-.05-1.3-.13A.15.15,0,0,1,153.53,86.74Zm6.84-11.1a1.12,1.12,0,0,0-.85-.34,1.05,1.05,0,0,0-1,.5,8,8,0,0,1,.26,2.2c0,3.28-1.4,5.06-4,5.06a4.68,4.68,0,0,1-1-.11.89.89,0,0,0-.59.77c0,.29.19.48.53.58a14.41,14.41,0,0,0,2,.16,6,6,0,0,1,3.1.72,2.91,2.91,0,0,1,1.25,2.54C160.24,90,158.59,91,155,91c-3,0-4.55-.79-4.55-2.38,0-1,.61-1.67,2.06-2.17-1.11-.45-1.53-.93-1.53-1.72,0-1,.55-1.54,2-2-1.53-.82-2.19-2.23-2.19-4.69,0-3.28,1.4-5,4.05-5a3.42,3.42,0,0,1,3.2,1.67A2,2,0,0,1,160.37,73v2.62" transform="translate(0 -0.11)"/><path id="path3382" class="cls-4" d="M162.46,73.16h2.46V86.32h-2.46Zm0-4.51h2.46v2.57h-2.46Z" transform="translate(0 -0.11)"/><path id="path3384" class="cls-4" d="M173.66,77.71v-.34c0-1.51-.5-2.23-1.59-2.23a1.47,1.47,0,0,0-1.35.72,4.88,4.88,0,0,0-.32,2.3v3.18a4.88,4.88,0,0,0,.32,2.28,1.46,1.46,0,0,0,1.35.71c1.09,0,1.59-.71,1.59-2.3v-.37h2.46v.5a4.33,4.33,0,0,1-.92,3.2,4.07,4.07,0,0,1-3.13,1.22,3.93,3.93,0,0,1-3.31-1.38c-.61-.82-.82-1.74-.82-3.54V77.84c0-1.8.21-2.75.82-3.57a3.93,3.93,0,0,1,3.31-1.38,4,4,0,0,1,3.13,1.19,4.26,4.26,0,0,1,.92,3.15v.48h-2.46" transform="translate(0 -0.11)"/><path id="path3386" class="cls-4" d="M184,79.54c-2.17,1.16-3,2.09-3,3.31a1.33,1.33,0,0,0,1.24,1.48,2.16,2.16,0,0,0,1.8-1.19Zm.21,6.78a4.83,4.83,0,0,1-.21-1.54c-1.19,1.3-1.9,1.72-3,1.72-1.67,0-2.68-1.32-2.68-3.49a3.85,3.85,0,0,1,2.15-3.63A24.7,24.7,0,0,1,184,77.71V77c0-1.35-.37-1.88-1.3-1.88s-1.35.56-1.45,1.88h-2.6a4,4,0,0,1,4.4-4,3.43,3.43,0,0,1,2.7,1c.56.66.72,1.29.72,2.91v5.85a12.9,12.9,0,0,0,.29,3.58h-2.55" transform="translate(0 -0.11)"/><path id="path3388" class="cls-4" d="M189.71,68.65h2.46V86.32h-2.46Z" transform="translate(0 -0.11)"/><path id="path3390" class="cls-4" d="M204.94,83.8c1.93,0,2.62-1,2.62-3.76V74.93c0-2.78-.69-3.76-2.62-3.76h-1.36V83.8Zm-4.08-15.15h4.32c3.46,0,5.11,1.78,5.11,5.54v6.59c0,3.76-1.65,5.54-5.11,5.54h-4.32V68.65" transform="translate(0 -0.11)"/><path id="path3392" class="cls-4" d="M213.28,73.16h2.46V86.32h-2.46Zm0-4.51h2.46v2.57h-2.46Z" transform="translate(0 -0.11)"/><path id="path3394" class="cls-4" d="M221.41,86.32l-3.23-13.16h2.62l1.88,8.36,1.67-8.36h2.59L224,86.32h-2.59" transform="translate(0 -0.11)"/><path id="path3396" class="cls-4" d="M234.73,77.26c0-1.56-.48-2.2-1.62-2.2s-1.61.66-1.61,2.2V78h3.23Zm-3.23,2.89v1.16a5.13,5.13,0,0,0,.31,2.31,1.47,1.47,0,0,0,1.35.71c1.09,0,1.59-.69,1.59-2.22v-.35h2.47c0,1.8-.11,2.38-.51,3a3.81,3.81,0,0,1-3.55,1.77,3.9,3.9,0,0,1-3.31-1.38,5.75,5.75,0,0,1-.82-3.57V77.71c0-2.09.24-3,1.06-3.73a4.1,4.1,0,0,1,3-1.09,3.93,3.93,0,0,1,3.1,1.22c.74.85,1,1.8,1,3.86v2.18H231.5" transform="translate(0 -0.11)"/><path id="path3398" class="cls-4" d="M242.59,73.16v2.27c.66-1.75,1.62-2.46,3.15-2.46v2.86a2.87,2.87,0,0,0-1.19-.24,1.83,1.83,0,0,0-1.53.69c-.35.45-.43.87-.43,2.12v7.92h-2.46V73.16h2.46" transform="translate(0 -0.11)"/><path id="path3400" class="cls-4" d="M252.84,77.05c-.5-1.38-1.09-1.91-2-1.91a1.18,1.18,0,0,0-1.3,1.17c0,.71.37,1.06,2.23,2.09a11.37,11.37,0,0,1,2.67,1.8,3.62,3.62,0,0,1,.93,2.49,3.77,3.77,0,0,1-4.05,3.89c-2.25,0-3.66-1.16-4.5-3.71l2.3-.79c.53,1.62,1.16,2.25,2.2,2.25a1.31,1.31,0,0,0,1.4-1.32c0-.75-.42-1.22-1.85-2a10.19,10.19,0,0,1-2.89-2,3.57,3.57,0,0,1-.95-2.49,3.64,3.64,0,0,1,3.84-3.68c2.09,0,3.44,1,4.26,3.18l-2.25,1" transform="translate(0 -0.11)"/><path id="path3402" class="cls-4" d="M257.69,73.16h2.46V86.32h-2.46Zm0-4.51h2.46v2.57h-2.46Z" transform="translate(0 -0.11)"/><path id="path3404" class="cls-4" d="M268.94,75.35h-2.25v7c0,1.33.45,1.88,1.54,1.88a3.59,3.59,0,0,0,.95-.16v2.23a8.14,8.14,0,0,1-1.67.18,3.24,3.24,0,0,1-2.67-1c-.48-.58-.61-1.22-.61-2.88V75.35h-1.91V73.16h1.91V69.55h2.46v3.61h2.25v2.19" transform="translate(0 -0.11)"/><path id="path3406" class="cls-4" d="M279.32,73.16l-2.86,12.6c-.9,4.32-1.88,5.24-5.59,5.24V88.46a2.37,2.37,0,0,0,.4,0,2.1,2.1,0,0,0,2.28-2.17,4.41,4.41,0,0,0-.19-1.14l-2.88-12h2.59l1.93,9,1.78-9h2.54" transform="translate(0 -0.11)"/></g></g></g></g></svg>