<svg xmlns="http://www.w3.org/2000/svg" viewBox="0 0 238.38 237.31"><defs><style>.cls-1{fill:#02809e;}</style></defs><title>Asset 12</title><g id="Layer_2" data-name="Layer 2"><g id="Layer_1-2" data-name="Layer 1"><path class="cls-1" d="M105.68.23c-1.58-.19-3.17-.54-4.57.4l-1.46,1c-.24.16-.78.38-.93.62a3.07,3.07,0,0,0-.15,1.14,3,3,0,0,0,.59,1,7.33,7.33,0,0,1,1.75,1.69c.46.67.93,1.33,1.35,2l.88,1.46c.12.19.52.58.29.74-.71.45-1.19.94-2,.9l-3.4-.1a5.69,5.69,0,0,0-2.14.54c-.77.27-1.51.6-2.26.93l-1.14.5c-.24.11-1-.23-1.29-.29-.5-.12-.52-.21-.82.2s-.42.8-.89.8c-.26,0-1-.14-1.19,0l-1.18,1.05c-.17.16-.75,0-1,0a5,5,0,0,0-1.36,0c-.33.12-.71.61-1,.84s-1,.07-1.23.09-.91-.06-1.07.08l-1.11,1c-.13.12-1-.17-1.23-.19a1.39,1.39,0,0,0-1.07.18c-.27.12-.74.47-1,.44l-1.65-.13c-.33,0-.7.37-1,.54a1.23,1.23,0,0,1-1.16.21c-.56-.07-.54.1-.87.57s-.35.35-.91.21L70,18.34c-.26-.07-.88.34-1.12.44a3.21,3.21,0,0,1-1,.4H66.46c-.23,0-.37.83-.6.86l-1.49.18a13.15,13.15,0,0,0-3.88,1.54,4.26,4.26,0,0,0-1.45.87l-1.7,1.83c.46.35.87.84,1.46.87l2.54.1,7.08.26c3.23.12,6.49-.23,9.71-.4l5-.27c1.57-.09,3.18-.48,4.74-.72a17.85,17.85,0,0,0,4.41-.75l3.12-1.36a14.5,14.5,0,0,1,2-.88L102.55,20c.87-.22,1.77-.34,2.65-.51l1-.2c.28-.05.88.27,1.15.36a6.84,6.84,0,0,1,1.95.89l2.75,1.79c1.48,1,3,1.91,4.48,2.86.33.21.35.18.35.58a1.37,1.37,0,0,0,.35,1.12c.2.28.49.92.8,1.09l1.43.81A5,5,0,0,1,121.12,31a1.77,1.77,0,0,1-.08,2.16,6,6,0,0,0,2-.7c.16-.1.18-.91.22-1.09a2.18,2.18,0,0,0,0-.85c-.07-.44-.15-.89-.22-1.34-.06-.29-.5-.7-.67-.94s.1-.59.16-.79c.14-.48.28-1,.43-1.45a10.27,10.27,0,0,0,.21-2c0-.27-.27-.68-.38-.91a2.35,2.35,0,0,0-.41-.8,35.93,35.93,0,0,1-3.19-3.33,6.46,6.46,0,0,1,2.25-.62,13.82,13.82,0,0,0,2.34-.17l3.24-.7a4.63,4.63,0,0,1,1.89.21c1.77.36,3.53.73,5.3,1.13a10.21,10.21,0,0,0,2.08.43h3.22a12.88,12.88,0,0,0,3.05-.66c1-.24,2-.56,2.93-.85l1.55-.48c.32-.1.79-.79,1-1,.78-.78,1.52-1.56,2.24-2.38a8.28,8.28,0,0,0-2-1l-2.83-.54c-.27-.05-.87.29-1.13.38s-.83-.23-1.15-.36a1.77,1.77,0,0,0-.92-.27l-1.66.24c-.7.1-1.45-.78-2.13-.69l-1.34.17a2.54,2.54,0,0,1-1,.08,9.23,9.23,0,0,0-2.44-.71l-1.41-.1c-.35,0-.67-.6-1-.72a5.1,5.1,0,0,0-1.36,0,4.34,4.34,0,0,0-1.06.16c-.27.06-.88.34-1.15.26l-1.46-.42a1.25,1.25,0,0,0-.88,0,4.1,4.1,0,0,1-1.25.32l-3-.39c-.66-.09-1.31.46-2,.39l-2.79-.28c-.88-.08-1.75-.27-2.62-.41-.18,0-.32-.22-.45-.34L112,8.25q-2-1.82-4-3.58a2.06,2.06,0,0,1-.31-.64l-.78-1.7a12.13,12.13,0,0,0-1.21-2.1"/><path class="cls-1" d="M201.26,61.41c-.66-.26-2.36-4.94-1.08-6.67C199,53.2,198.09,52.34,197,51L196.9,51C193.85,48,189.13,42.69,181,39.41a38.84,38.84,0,0,0-20.39-2.28,10,10,0,0,0,4,2.44c.62.45,1.92,0,2.08.85-.9,2.15-3.31.94-5.26,1.27-4.07.13-7.8-2.08-10.42-4.78-5.11,1.24-7.25,2.47-14.66,3.2-2.67.26-4.11,1.65-5,.9-.6-.75-.79-1.33-.43-1.9.57-.91,1.19-1.16,2-1.89s1.22-1.79,1.94-2.42c2-6.05,10.18-12.72,20.66-14.5S169.76,20,173,18c3.7-2.89,8.52-5.17,13.23-5,.49.09,1.21.42.91,1.17a8.25,8.25,0,0,0-3.25,4c-1,3.58,2.35,5.31,4.53,7.54,1.56,1.72,5.77,4.46,9.34,9C203.7,42.42,204.5,48,205,51.23c.16.55.36,2.7.45,3.16,0,0,6.78,8.63,7.62,10.08s1.3,2,.12,2-3.15-3.93-5.62-4.91c-.81,0-.83.79-2.34.33s-1.27-1.3-2.35-1.63c0,0-1,1.44-1.62,1.17"/><path class="cls-1" d="M42.22,59.16c.79.26,1.32.61,1.32,1.5s-.72,1.27-1.33,1.69a43.26,43.26,0,0,0-4.06,3.09,33.34,33.34,0,0,0-6.54,7.3c-.5.78-1,1.56-1.46,2.36-.34.56-.62,1.33-1.32,1.51a4.5,4.5,0,0,1-1.11.19c-.33,0-.76-.4-1-.57s-.39-.58-.63-.81a4.41,4.41,0,0,1-.51-1.32,41.18,41.18,0,0,1-2.19-9.78,28.79,28.79,0,0,1,.9-10,30.42,30.42,0,0,1,3.73-9,35.16,35.16,0,0,1,2.54-3.78A39.57,39.57,0,0,1,34,37.83c1.19-1.11,2.27-1.83,2.27-3.59a3.67,3.67,0,0,0-2.42-3.34,18.07,18.07,0,0,1,5-.38,15.69,15.69,0,0,1,2.51.28,23.37,23.37,0,0,1,2.34.76c.4.15.79.29,1.18.46s.77-.07,1.16-.19c.86-.26,1.72-.49,2.59-.72a31.19,31.19,0,0,1,4.68-1,49.8,49.8,0,0,1,10.15-.33,50.88,50.88,0,0,1,10,1.89c.46.14.93.27,1.38.45s.73.47,1.13.61-.23.53-.39.65L73.82,34.7c-.28.21-.75.39-.75.75s.66.13.93.06l3.22-.87c0,.13.07.27.1.4a5.3,5.3,0,0,0-2.1,1.3,8.21,8.21,0,0,0-1.54,1.87,9.18,9.18,0,0,1-3.75,2.91,10.24,10.24,0,0,1-2.52.78,7.61,7.61,0,0,0-1,.16c-.16.06-1.23.36-1.24.5a19.58,19.58,0,0,1-1,5,13.39,13.39,0,0,1-.85,2,2.24,2.24,0,0,1-.67.92c-.11.07-.53-.54-.61-.69a10.86,10.86,0,0,1-1-2c-.22-.68-.23-1.35-.4-2-1.54.74-3.07,1.56-4.65,2.23s-3.24,1.23-4.86,1.83a87.72,87.72,0,0,1-10,2.9c-1.66.4-3.36.65-5,.92-.74.11-1.47.32-2.2.5s-1.68.22-2,1.09c-.6,1.5-.27,3.4,1.51,3.79a26,26,0,0,0,5,.17l3.75.05"/><path class="cls-1" d="M188.46,140.31a4.89,4.89,0,0,1-2.16,1.14,8,8,0,0,1-2.21.08c-.69-.07-1.22-.22-1.7-.29a5.91,5.91,0,0,0-1.46,0,15.55,15.55,0,0,0-1.9.23,7.51,7.51,0,0,0-1.45.4c-.34.14-.52.28-.5.43s.24.32.68.54a4.66,4.66,0,0,1,1.58,1.05,3.92,3.92,0,0,1,.81,2.14,5,5,0,0,1-.25,2,9.17,9.17,0,0,0-.37,1.32,2.23,2.23,0,0,0,.25.92,2.55,2.55,0,0,1,0,1.65,7.42,7.42,0,0,1-1.43,2.54,7.8,7.8,0,0,1-2.9,2.12,35.85,35.85,0,0,1-5.3,1.81,39.58,39.58,0,0,1-5.79,1.17,54,54,0,0,1-5.88.33,15,15,0,0,1-4.16-.59c-1.36-.32-4.15-2.14-5.52-2.68s-9-2.35-10-2.54-4.21,1-4.91,1.61a15,15,0,0,0-2.14,2c-.64.76-6.69,6.81-7,8.27s-2.47,5.36-3.09,6.87a14,14,0,0,1-2.78,4.1,37.92,37.92,0,0,1-5.26,5.11,26.35,26.35,0,0,1-6.63,3.53,55.5,55.5,0,0,1-7.46,2.28,35.56,35.56,0,0,1-7.17,1,41.09,41.09,0,0,1-5.45-.44,12.48,12.48,0,0,0-3,0,11.89,11.89,0,0,1-3.05.12,9.52,9.52,0,0,1-3.16-1.16,24.56,24.56,0,0,1-2.65-1.72,23,23,0,0,1-2.06-1.6,4.53,4.53,0,0,1-.88-1.08c-.15-.26-.21-.43-.43-.55s-.59-.2-1.28-.49-1.68-.81-2.49-1.19-1.43-.63-2-.93-1.14-.64-1.52-.84a2.07,2.07,0,0,0-.8-.25.85.85,0,0,1-.51-.13,2.5,2.5,0,0,1-.55-.6.86.86,0,0,1-.21-.7,1.06,1.06,0,0,1,.51-.66c.21-.09.38.06.64.23a7.21,7.21,0,0,0,1.07.55,11.72,11.72,0,0,0,1.66.54,9.87,9.87,0,0,0,1.39.19,5.08,5.08,0,0,1,1.06.17c.33.1.65.26,1,.39a3,3,0,0,0,1.86.06c-1.62-.58-2.5-.85-3.21-1s-1.23-.32-1.76-.51a12.89,12.89,0,0,1-1.51-.7,11.55,11.55,0,0,0-1.2-.59,5.27,5.27,0,0,1-1-.39.43.43,0,0,1-.05-.64,2.34,2.34,0,0,1,1.05-.68,8.65,8.65,0,0,1,2-.49,12,12,0,0,1,2.1-.07c.52,0,.75.12,1.18.13a10.66,10.66,0,0,0,1.7-.16c.66-.1,1.36-.24,2.27-.33a24.46,24.46,0,0,1,3-.12c1,0,1.73.1,2.55.19s1.66.19,2.54.37a25.58,25.58,0,0,1,3,.83A36.27,36.27,0,0,1,88,175.9c1.23.56,2.26,1.18,3.24,1.61a11.4,11.4,0,0,0,3.13.86,16.9,16.9,0,0,0,4.4.09,23,23,0,0,0,4.8-1.18,14.82,14.82,0,0,0,3.14-1.53,18.17,18.17,0,0,0,2.11-1.61c.63-.54,1.24-1.08,2-1.81a18.13,18.13,0,0,0,2.12-2.54,5.63,5.63,0,0,0,.95-2.39c.12-.79.09-1.62.29-2.69s1.95-3.21,2.52-4.49,1.93-2,2.7-2.94,6.22-5.83,7-6.42,3.32-2.39,3.8-2.73a10.5,10.5,0,0,1,2.12-1,16.39,16.39,0,0,1,3.4-1c1.28-.19,10.46.64,13.5,1.2s13,3.71,15.07,4.09a17.83,17.83,0,0,0,5.36.11,14.21,14.21,0,0,0,2.87-.63,5.63,5.63,0,0,0,1.22-.51.81.81,0,0,0,.45-.59,2.56,2.56,0,0,0-.23-1,4.54,4.54,0,0,1-.36-1.33,5.1,5.1,0,0,1,.24-2,14,14,0,0,1,.83-1.74,2.77,2.77,0,0,0,.36-1.25,9.82,9.82,0,0,1,.06-1.45,2.89,2.89,0,0,1,.68-1.44,1.45,1.45,0,0,1,1.26-.49,6.51,6.51,0,0,1,1.27.49,1.17,1.17,0,0,0,1-.14,5.68,5.68,0,0,1,1.43-.59c.45-.07.79.14,1.53.42a17,17,0,0,0,2.8.82,13.13,13.13,0,0,0,3.39,0"/><path class="cls-1" d="M227,113.79c-.15-.09,0-1.57,0-.48,0,.14.16.27,0,.48m-.33-1c.27.12-.06.57.06.9-.33-.11,0-.54-.06-.9m.74-1.5c.24.81.05,2.08.39,2.76-.12.15-.26-.2-.46-.17.07-.9,0-1.53.06-2.59M212,182.58a7.7,7.7,0,0,1,3.25.69,8.25,8.25,0,0,0,3.07,1.22c.6,0-1.38-2.37-1.49-2.47a18.67,18.67,0,0,0-2.67-2.31c-.95-.56-2-1-3-1.48-2.38-1.3-4.68-2.87-7.31-3.55a58.53,58.53,0,0,0-6.64-1.44c-1.68-.23-2.58-.85-2.29-2.88.12-.87.52-1.65.67-2.5s.07-1.16.73-1.68a6.26,6.26,0,0,1,2.65-1c1.06-.25,1.9-.63,3-.8,1.35-.2,2.52-1,3.85-1.36a24.89,24.89,0,0,1,3.62-.43c1-.09,2-.5,3.08-.57.79-.06,1.5.4,2.27.36-.22.59.31,1.08.14,1.65-.12.39-.55.44-.74.72-.29.46,0,.7-.17,1.33-.19,1-1.13,1.37-1.48,2.16.37.93,1.43,1,2.55.91l1.48-.18a7,7,0,0,0,3.75-1.74,21.14,21.14,0,0,0,2.32-2.33c1.87-2.21,2.38-5.34,4.26-7.5.08-.08.12-.18.18-.24a2.81,2.81,0,0,1,1.58-.5c.69-.13,1.37-.33,2-.53a25.85,25.85,0,0,1,2.92-.74,8.88,8.88,0,0,1,2.71.1,3,3,0,0,1,.78.12c.48.18.79.66,1.3.26,0-.32-.33-.55-.62-.78a8.14,8.14,0,0,0-1.41-1c-2.16-1-5.44.19-6.69-1.82a5.37,5.37,0,0,1-.55-3.61,10.59,10.59,0,0,1,1.38-3.52c.3-.57.6-1.12.87-1.7a10.63,10.63,0,0,0,.51-1.42c.11-.39.29-.72.43-1.09a13.11,13.11,0,0,0,.92-4.75c-.12-2.59.3-5.77,0-8.47a11,11,0,0,0-1.57-4.51,33.29,33.29,0,0,0-2.78-3.25,3.27,3.27,0,0,1-.67-1.68c0-1.83,1.44-2.6,2.62-3.59a2.6,2.6,0,0,0,.76-1c.11-.29.12-1.06-.39-.8-.07,0-.26.29-.38.21s-.16-.74-.56-.78c-.09.52.06,1.1-.4,1.32-.31,0-.12-.52-.51-.42-.21.06,0,.52-.23.6-.09-.09-.13-.4-.28-.24s0,.36-.17.42c-.3-.26-.35.25-.74.12-.11-.78-.38-2.25,0-2.83,0,.06.08.45.1.52a2.68,2.68,0,0,1,.1.6c.31,0,.06-1.09,0-1.25s-.1-.4,0-.47.4.19.45.32,0,.36.12.28,0-.43,0-.55a1.56,1.56,0,0,1,0-.73s.2-.34.27-.28.28.54.49.63-.11-.52-.15-.56a.87.87,0,0,1-.2-.38c0-.09.23-.42.26-.34a4.75,4.75,0,0,0,.62.72,3.62,3.62,0,0,0,.44.56c.12.1.13,0,.1-.1a1.65,1.65,0,0,0-.28-.4c-.14-.18-.29-.34-.45-.52l-.37-.52c.11,0,.11-.17.2-.22s.21,0,.33.1.35.13.51.24.34.31.56.27-.07-.18-.12-.21a3,3,0,0,0-.46-.29,2.2,2.2,0,0,1-.5-.23s-.37-.32-.31-.36c.52-.31,1.17.25,1.68.37.23.06.08-.12,0-.21a1.36,1.36,0,0,0-.57-.23,5.66,5.66,0,0,1-.65-.18,4,4,0,0,1-.5-.35,1.73,1.73,0,0,1,.93,0s.53.11.43,0-.53-.17-.69-.18-.57,0-.78-.16c0,0,.4-.17.46-.19s.35-.08.39-.21-.42,0-.52,0-.47.24-.51.2a1.92,1.92,0,0,0-1.86-.36c-1.46.43-2.48,1.74-4.14,2.57s-3.31.84-4.77,1.91c-.19.14-.28.35-.46.48a8.25,8.25,0,0,0-2.77,2.7c-.95,1.75-1,3.87-1.31,5.83a37.5,37.5,0,0,1-1.33,6.12,40.68,40.68,0,0,0-1.77,5.71c-.15.82-.24,1.7-.46,2.58s-2,2.29-2.67,2.91a29.89,29.89,0,0,1-3.92,2.66c-3.08,1.88-6.91,3-10.09,4.66a28.24,28.24,0,0,0-6.25,4.14,13.7,13.7,0,0,0-1,1,11.13,11.13,0,0,0-1.82,3.54,26.53,26.53,0,0,0-.92,3.13c-.38,1.57-.54,3.19-.86,4.87-.2,1.07-.23,2.4-.46,3.66a8.91,8.91,0,0,1-1.09,3.42c-.86,1.14-2.7.82-3.89.74a5.22,5.22,0,0,0-3.83,1.53,8,8,0,0,0-1.93,2.94,4.67,4.67,0,0,0-.44,3.15c.48-.1.82-1.16,1.07-1.61a5.67,5.67,0,0,1,1.34-1.75c.17.18.2.08.39.15a3.8,3.8,0,0,1,3.22-2.39c1.56-.12,2.91,1.07,4.57.91.53,0,1.17.15,1.53.07.57-.13.71-.86,1.26-.9.36.87.63,2.62,1.63,2.52.44-.47,0-2.12.9-2.33-.13,3.3,2.55,4.08,4.08,5.83,2,.83,3.33,2.41,5.43,3.14a44.28,44.28,0,0,0,3.79,2.49,10.31,10.31,0,0,1,2.59,2.32c.75.72,1.56,1.42,2.27,2.2,1.32,1.47,3.71,2.86,5.7,2.48-.11-.56-.77-1-1-1.59a9.88,9.88,0,0,1-.21-2,4.63,4.63,0,0,0-1.37-3.3c1-.17,1.44,1.38,2.26,1.26a1.5,1.5,0,0,0-.27-1.25c.76.09,1.29.78,1.87,1.26.35-.69-.06-1.14-.33-1.63l0-.05"/><path class="cls-1" d="M37.54,126.84c1.54,0,3.08,1,4.69,1,4-1.1,2.24-17.85,1.83-20v-.34a41.35,41.35,0,0,1,1.17-8.15c0-.85,0-1.81-1.08-1.68s-1.66,2.62-1.56,4.47-.81,1.85-.81,1.85c-.35-.26-.39-.45-1.12-.14s-.37.61-.37.61c-1.25-1.42-1.15-3.9-3-4.78.16-1.46,1.67-4,.07-4.52s-1.12,2.26-2.47,3c-.78-.84.57-1.91.43-3a9,9,0,0,1,0-1.26c.11-1.35.45-3.52-.11-4s.29-.24.29-.24c.39-.06,1.05-.2,1.09-.95s-.51-.45-.87-.76c.94-1.31,3.51-2.84,3.28-3.92s-1.54-.26-2.32-.13c.18-.67.83-2.54-.71-2.29a5.19,5.19,0,0,0,.37-3c-.11-.66-1.34-1.38-1.41-.18s-2.86,2.82-2.71,5.15-.43,2.5-.77,3.72L30.73,84c1-.29.8-1.48.72-2.22s-.31-1.07-.89-.88c-.81.2-.93,1.14-1.12,1.75-.55-.15-1.47-1.85-1.92-.63a3.37,3.37,0,0,0,1.13,3.55.73.73,0,0,1,.43.58A1.4,1.4,0,0,0,28,87.5c.21.41,0,.76,0,1.09-1-1.14-2.18-3.49-3.21-3.17s-.38,1.52-.12,2.37c-.23.22-.9,0-1.16.39-.53,2.07,1.77,2.88,3,4.07-.3.87-.62,1.69-.87,2.55-1-.51-1.16-2-1.4-3-1.31-.95-2.66-3.3-4.46-2.47,1.21,1.25-1.22,2.06.25,3.19.93.57,2.21.67,2.74,1.68-.55,1.16.83,1.75,1,2.5.07.28,0,.6-.47,1a1,1,0,0,0-1.4-.12l-.25,1.31a5.59,5.59,0,0,1-.51-1.65s-.42-1.46-.76-2.39a11.09,11.09,0,0,0-1.09-2.53c-1.24-2.1-1.79-4.87-3.74-6.35-.71-.12-.83.6-1,1-.11,1.68,1.93,3.54.25,4.62-1.39-1.72-3.1-4.63-5.77-4.1-.9.55,0,1.41.36,2l.75.79c-.42.61-1.73.87-1.05,2,1.74,1.35,6.07,1.06,5.5,4.17-.75.69-2.52-.77-3,.6a4.13,4.13,0,0,0,2.12,2.06c1.08.65,2.09,1.3,1.83,3-1.89.45-1.62-2.29-3.43-2.12-2.2.21-.08,1.76-.08,1.76-.55.08-1.81.12-1.79,1.11s.22.92.58,1.23c-1.34.38-2.81-1-4.17-.26-.34,1.67,1.13,2.55,2.58,2.7s3.3.46,4.12,2c.66.58,1.51-.13,2.24,0,2.3,2,5.86-1.51,7.71,1.47a10.07,10.07,0,0,0,2.79,1.9c.38,2.82,3.06,4.18,4.65,5.62a19.37,19.37,0,0,0,4.75,2.69c-.18.44.12,1,.17,1.44-1.2.68-2.72-2.32-3.51-.36-.08.65.7.8.49,1.36a40.46,40.46,0,0,1-7.56-5.15c-.18-1.63-.31-3.83-1.24-5.24a3,3,0,0,0-1.36-1.16c-.48-.06-.59.66-.57,1,0,0,0,.25.09.61.17,1,.49,3.08.49,3.08-1.11-.33-2.6-1.72-4-2.23a2.26,2.26,0,0,0-2.19.25,1.86,1.86,0,0,0-.56.58c-.06,0-2.91-3.52-5.26-4.33-1.62-.13,0,1.37-.62,1.91-1.85-.81-3.94-1.54-5.73-1.09s-.89,1.41.54,1.75,2.79.47,3.83,1.71c1.35,2.64-2.9-.22-4.56,1-1.37.21-4-1.62-4,.09s2.22,1.5,3.48,1.74l.13,0c3,2.15,6.49,1.65,9.34,4.22-.52.47-1.91-.35-2,.87,1.84,1,7.75-.09,9.5,1,.37,1.11,7.25,1.61,9.22,2s5.23,1.54,7.82,1.52"/><path class="cls-1" d="M138.54,90.75h0c3.9,4.35,11.17,5.2,16.47,3.36,8.37-2.91,7.41-10.68,1.79-15.77-2.52-2.28-5.17-4.32-7.5-6.81s-4.56-5.25-7.78-6.63c-3.67-1.59-7.65-1-11.45-.3-3,.55-6.88,1.68-9.61-.35-3.7-2.74-3-12.93-9-11.82-2.75-.78-12,.13-8.06,4.66,2.67,3.12,7,2.46,9.15,6.66,1.54,3,2,6.54,3,9.7-3.36.09-2.71,2.59-4.66,4.15-1.06.84-3.19-.1-4.12.91-1.23,1.35.92,2.12,2.19,2.33,3.26.54,4.52-4.71,7.32-3.32a2.63,2.63,0,0,1,.84,3.57c-.91,1.83-2.29,1.26-3.82,1.94-2.06.92-.75,2,1.22,2.25A5.09,5.09,0,0,0,119,83.63a.14.14,0,0,1-.1.09c0-1.05,1.8-2.95,2.61-3.62,2-1.66,5.18-1,7.66-1.6.68-.15,7.86-1.91,6.64.15-1,1.74-4.67-.88-5.28,1.87.36.15.52.5,1,.53-.09.17-.23.27-.32.44a2.37,2.37,0,0,0,1.64.4,3.83,3.83,0,0,0,.07,1.94c2,.72,9.76,3,11.19.62,1-1.71-.6-2.21,1.43-3.64,1.53-1.08,2.61-1.58,3.51-3.37.38-.76,4.49,3.6,4.73,4.16a5.9,5.9,0,0,1-.74,6.16c-3.59,4.11-10.08,1.06-14.43,3"/><path class="cls-1" d="M97.83,144.37a1.59,1.59,0,0,0,.24,1,3.39,3.39,0,0,1,.24.9c.07.44.15,1.1.22,1.65a8.31,8.31,0,0,0,.25,1.37c.13.37.32.65.43,1a2.08,2.08,0,0,1-.66,1.38c-.36.43-.78.89-1.12,1.4a12.93,12.93,0,0,0-1.48,3.37,5.29,5.29,0,0,0-.1,1.4,4.55,4.55,0,0,1,0,.9c0,.31-.16.7-.21,1.09a4.6,4.6,0,0,0,0,1.11c0,.34.09.63.14.86a1.36,1.36,0,0,0,.18.53.56.56,0,0,0,.45.15,3.11,3.11,0,0,0,.95-.06,6.94,6.94,0,0,0,1.14-.39c.38-.14.72-.28,1-.36a3.58,3.58,0,0,0,.69-.22,5.75,5.75,0,0,0,.51-.44,7.13,7.13,0,0,1,.79-.52c.3-.19.62-.42.85-.59a5.79,5.79,0,0,1,.57-.39c.17-.08.36-.15.54-.25a2.24,2.24,0,0,0,.49-.4,5.56,5.56,0,0,1,.57-.62c.31-.29.82-.69,1.7-1.48a15.72,15.72,0,0,0,1.71.9c.46.2.92.37,1.4.52a10,10,0,0,1,2.4,1.18,3.39,3.39,0,0,0-1.76-1.11.67.67,0,0,1-.48-.6,2.66,2.66,0,0,1,0-.74,2.29,2.29,0,0,0,.08-.79,3.36,3.36,0,0,0-.39-1.06c-.19-.39-.43-.82-.91-.86a57.37,57.37,0,0,0,3.66-4.94,6.19,6.19,0,0,0,2-.26,1.89,1.89,0,0,0,.95-.72c.25-.34.43-.8.88-1.5s1.17-1.66,1.85-2.53,1.32-1.67,2.09-2.62,1.68-2,2.51-3.17a24.32,24.32,0,0,0,2.08-3.42,12.66,12.66,0,0,0,1-2.9c.18-.88.25-1.68.5-2.56a26.68,26.68,0,0,1,1-2.6,7,7,0,0,1,.93-1.89,7.49,7.49,0,0,1,2-1.66,11.63,11.63,0,0,1,2.71-1.19,5.73,5.73,0,0,1,2.26-.21,2.32,2.32,0,0,1,1.4.71,6.46,6.46,0,0,1,1.41,2.2,4.63,4.63,0,0,0-.4-2.7,3.15,3.15,0,0,0-1.44-1.67,5.81,5.81,0,0,0-2.43-.74,10.7,10.7,0,0,0-3.68.28,14.7,14.7,0,0,0-3.86,1.66,10.63,10.63,0,0,0-3,2.62,35.12,35.12,0,0,0-2.58,4.05c-.79,1.37-1.49,2.6-2.1,3.63s-1.12,1.87-1.81,2.83a27.52,27.52,0,0,1-2.49,3c-.94,1-2,1.89-2.94,2.71l-3,2.63c-1.23,1.07-2.82,2.46-3.44,2.87a4,4,0,0,0-.68-1.52,18.7,18.7,0,0,0-1.05,2.16,4.26,4.26,0,0,0-1-.64,5.3,5.3,0,0,1-.55-.28,3.83,3.83,0,0,1-.46-.32,1.1,1.1,0,0,0-.33-.2,2.72,2.72,0,0,1-.36-.07c-.15-.06-.35-.2-.54-.3a1.61,1.61,0,0,0-.62-.23,1.62,1.62,0,0,1-1-.41"/><path class="cls-1" d="M66.26,202.84c.19-1,1.95.11,2.38.76.34-1.15,3.09.59,2.79,1.7-.79-.57-1.66-1.12-2.36-1.73-.24.46.31.62.4.95-1.32.08-1.87-1.31-3.22-1.68m.41.94c-.37-.32-1-.56-.76-1.08.34.33,1.1.51.76,1.08m5.5.84c-.63-.23-1.12-.5-1.26-.9.43-.65,1.84.08,1.26.9m2.92,1a7.32,7.32,0,0,1-2.26-1.49c.9-.53,2.37.77,2.26,1.49m2.36.36c-1-.43-2.29-.79-2.18-1.65.86,0,2.34.82,2.18,1.65m1-1.19c.29.17.27.45,0,.8a1.23,1.23,0,0,1-.81-.51c.12-.41.59,0,.76-.29M82,206.17c-.47.43-2.75-.43-2.41-1.16A3.56,3.56,0,0,1,82,206.17m1.72-.1c-.12.81-2,.07-1.42-.57.45.05,1.22.1,1.42.57m89.45-19.52c-.75-1.21.33-2-.89-3.09-3.13.14-3.88,4-3.48,6.63.14.9,1.28,2.15,1,2.76-.4,1-6.34,3.74-7,3.93a28.23,28.23,0,0,1-4.34,1.2c-1.63.19-3.25,1.12-4.89,1.42a14.13,14.13,0,0,1-5.83-.32c-3.85-.78-7,.89-10.77.7-4.11-.21-8.06-1.64-12-2.47-1.61-.33-3.93-.85-5.78-1.13-7.25-1.14-14.17-1-20.82-.89-2.24,0-4.23.67-6.52.92-1.05.12-2.41,0-3.63.12s-2.57.72-3.43.58c-.44-.07-1.28-.67-1.77-.71-2.84-.22-6.41,1.7-9.45,2.29-2.3.44-4.65.44-7,.74-.68.09-4.77.15-4.92.87-.08.42,1.32,1.19,1.63,1.4,1,.69,3,1.82,2.79,3.19-1.82.07-5.12-1.45-6.72-.92-.68.58.07,1.8.08,2.57,8.12,6.95,21.51,12,33.54,16.13,6.34,2.18,12.72,2.75,19.18,3.55,2.11.26,4,.09,5.48.42.43.1.82.57,1.35.73,1.41.45,3.08.31,3.85.76s.87,1.4,1.42,1.93a9.65,9.65,0,0,0,3.79,2.29c1.77.42,3.76-.92,5.52-.14,1.34.6,1.73,2.05,2.58,2.6,2.12,1.36,2.76.12,5,.45,1.8.26,3,1.75,4.89,2.15s3.42-.59,5.15-.68c2.85,1.39,4.47-.08,6.65-.28,2.31.91,4.82.53,5.25-1.81-3.91-1.79-9.44-1-14.53-2.68a48.26,48.26,0,0,1-16-8.54c2.06-.91,4.56-.78,6.54-1.88C152,218,166,208,176.22,198.55c3.78,1.37,7.67,3,11.77,3.22a9,9,0,0,0,4.89-1.11c.18-.08,5.35-2.79,4.2-3.16-2.69-.86-5.65-.25-8.65-1.3-3.92-1.38-6-4.05-10.34-3.55,1.18-3.29-3.56-3.81-5-6.09"/><path class="cls-1" d="M111.86,131.53c-2,.8-4.5.69-5.66-.53a10.61,10.61,0,0,0-1.73-6.83,14,14,0,0,0-2.94-3.27c-1.26-1.1-3-2.49-4.47-3.62a34.31,34.31,0,0,0-3.83-2.66,24.17,24.17,0,0,0-4.12-1.82c-1.76-.63-4.09-1.39-9.6-3.32a2.59,2.59,0,0,0-.52,2,2.2,2.2,0,0,1-.62,1.23,3,3,0,0,0-.76,1.25c-.15.56-.11,1.35-.23,1.87a1,1,0,0,1-.68.85.63.63,0,0,1-.82-.28,4.07,4.07,0,0,1,.16-2c0-.54-.37-.2-.71.26a10.75,10.75,0,0,1-1.41,1.84,8,8,0,0,1-3.54,2.14c-.54,1.25-.79,1.94-1.05,2.48a8.31,8.31,0,0,1-.8,1.28,2.22,2.22,0,0,1-.74.76,1,1,0,0,1-.78,0c-.21-.11-.31-.25-.44-.29s-.29,0-.47,0a.72.72,0,0,1-.5-.3.73.73,0,0,1-.11-.68,1,1,0,0,1,.64-.54c.3-.08.64-.06.94-.11a1.77,1.77,0,0,0,.83-.43c.28-.23.59-.56.88-2.12-1.76.31-2.34-.24-2.75-.64s-.68-.68-.9-.91-.43-.43-.41-.74a1.5,1.5,0,0,1,.5-1,.71.71,0,0,1,.94,0,6.5,6.5,0,0,1,.92,1.11,2.38,2.38,0,0,0,.92.78,2.18,2.18,0,0,0,1.09.15,2.74,2.74,0,0,0,1-.33,9.61,9.61,0,0,0,1.26-.69c.4-.27.72-.56,1.09-.8a11.83,11.83,0,0,0,1.14-.74,2.29,2.29,0,0,0,.71-1c.08-.3,0-.49-.31-.45a7.51,7.51,0,0,0-1,.43.69.69,0,0,1-.79-.1,1.8,1.8,0,0,1-.53-.91.7.7,0,0,1,.27-.76,1.49,1.49,0,0,1,1-.09c.49.08,1.13.24,1.7.3a4.65,4.65,0,0,0,1.45-.08,1.32,1.32,0,0,0,.78-.37,1.15,1.15,0,0,0,.11-.66,2.58,2.58,0,0,1,.08-.81,2.07,2.07,0,0,1,.44-.76,2.84,2.84,0,0,0,.49-.56,1,1,0,0,0,0-.82,1.47,1.47,0,0,0-.88-.68,6.14,6.14,0,0,0-1.86-.41,13.25,13.25,0,0,0-1.59.17,5.9,5.9,0,0,1-1.4-.14,5.69,5.69,0,0,0-1.63-.08,4.41,4.41,0,0,0-1.61.59,16.91,16.91,0,0,0-1.4,1c-.48.33-1,.65-1.5,1a8.17,8.17,0,0,0-1.4,1.36c-.4.51-.71,1-1.21,1.6a9.88,9.88,0,0,1-1.79,1.59,8.28,8.28,0,0,1-1.68.87,4.1,4.1,0,0,1-1.37.39,1,1,0,0,1-.93-.39.92.92,0,0,1,.09-.89,1.31,1.31,0,0,1,.81-.64,8.72,8.72,0,0,1,1.37-.14,3.36,3.36,0,0,0,1.27-.39,5.59,5.59,0,0,0,1.22-.92,4.89,4.89,0,0,0,.93-1.14c.2-.38.27-.74.06-.88a2.54,2.54,0,0,0-1.25,0,12.6,12.6,0,0,1-1.61.11,13.64,13.64,0,0,1-1.59-.13,1.48,1.48,0,0,0-1,.06c-.36.16-.88.52-1.4.74a2.56,2.56,0,0,1-1.37.23.78.78,0,0,1-.64-.58,1.23,1.23,0,0,1,.06-.93c.15-.23.43-.29.8-.29s.84,0,1.16.05.48,0,.49-.18-.14-.38-.52-.51-1-.17-1.34-.28-.49-.28-.43-.55a1.59,1.59,0,0,1,.58-.83,1.11,1.11,0,0,1,1-.17,5.43,5.43,0,0,1,1.26.71,4.49,4.49,0,0,0,1.2.62,8.4,8.4,0,0,0,1.81.34,14,14,0,0,0,2.14.05,8.82,8.82,0,0,0,1.86-.31,10.9,10.9,0,0,0,1.71-.64,2.62,2.62,0,0,0,.92-.69c.18-.23.25-.48,0-.58a5.81,5.81,0,0,0-1.43-.06,7.07,7.07,0,0,1-1.62-.12c-.48-.11-.86-.31-1.26-.44a6.83,6.83,0,0,0-1.38-.28,18.79,18.79,0,0,0-2.22-.16c-.84,0-1.72.07-2.34.06a10.67,10.67,0,0,0-1.33-.05c-.37.06-.77.27-1.21.38a2.14,2.14,0,0,1-1.21,0,.57.57,0,0,1-.33-.68,1.26,1.26,0,0,1,.65-.94,4.3,4.3,0,0,1,1.78-.36,12.27,12.27,0,0,1,1.87.09c.54.06,1,.13,1.07,0s-.13-.34-.43-.53-.71-.32-1-.46a4.47,4.47,0,0,0-.8-.42c-.34-.11-.87-.17-1.3-.28s-.78-.25-.79-.49.34-.54.57-.79a1,1,0,0,0,.36-.68,1.47,1.47,0,0,0-.35-.79,1.7,1.7,0,0,0-.94-.54A12.67,12.67,0,0,0,52,98.67a5.86,5.86,0,0,0-1.37,0,1.46,1.46,0,0,0-.79.42,3,3,0,0,1-.78.65.79.79,0,0,1-.81-.11.7.7,0,0,1-.14-.76c.1-.29.35-.59.38-.79s-.15-.32-.36-.46a1.2,1.2,0,0,1-.53-.57,1,1,0,0,1,.16-.88,1.13,1.13,0,0,1,.82-.43,1,1,0,0,1,.8.34,4.2,4.2,0,0,1,.45.79.7.7,0,0,0,.62.4c.36,0,1,0,1.48,0a11.54,11.54,0,0,0,1.27,0c.31,0,.48-.16.32-.49a7.92,7.92,0,0,0-1-1.27,7.66,7.66,0,0,1-.91-1.16c-.31-.48-.68-1.15-1.07-1.63a3.36,3.36,0,0,0-1.32-1c-.56-.26-1.29-.53-1.92-.79a16.39,16.39,0,0,1-1.55-.76,1.89,1.89,0,0,1-.89-.75,1,1,0,0,1,.12-1,.88.88,0,0,1,.85-.25,1.7,1.7,0,0,1,.89.44c.26.23.46.53.77.76a5.6,5.6,0,0,0,1.13.54,5.58,5.58,0,0,0,1.07.4c.27,0,.4-.07.41-.3a4.1,4.1,0,0,0-.27-1.14c-.17-.52-.38-1.19-.57-1.73a5.06,5.06,0,0,0-.6-1.25,5.32,5.32,0,0,1-.6-.77.7.7,0,0,1,.19-.66,1,1,0,0,1,.63-.43,1.21,1.21,0,0,1,1,.31,3.41,3.41,0,0,1,.73,1.25,13,13,0,0,1,.55,1.7,18.36,18.36,0,0,1,.3,1.88,17.84,17.84,0,0,0,.36,2.14,7,7,0,0,0,.68,1.72,7.56,7.56,0,0,0,.85,1.24c.24.28.42.38.61.25a1.86,1.86,0,0,0,.52-.93c.11-.42.13-.89.22-1.35A7.13,7.13,0,0,0,54.83,91a4.12,4.12,0,0,0-.33-1.24,7.22,7.22,0,0,1-.33-1.52A1.82,1.82,0,0,1,54.34,87a.52.52,0,0,1,.71,0,1.37,1.37,0,0,1,.45.87,6.42,6.42,0,0,0,.28,1.23.42.42,0,0,0,.67.17,3.67,3.67,0,0,0,.85-.95c.26-.37.48-.71.66-1a2.34,2.34,0,0,0,.39-.93,4.85,4.85,0,0,1,.11-1.12.73.73,0,0,1,.79-.5c.31.09.61.51.82.85a2.58,2.58,0,0,1,.4.83c0,.22,0,.4-.26.7s-.65.73-1.12,1.27-1,1.2-1.41,1.66a8.74,8.74,0,0,0-.94,1,3.08,3.08,0,0,0-.37,1.09,9.68,9.68,0,0,1-.29,1.16,6.15,6.15,0,0,1-.59,1.22,7,7,0,0,0-.63,1.07,1.32,1.32,0,0,0,.06,1c.15.37.44.78.66,1.25s.36,1,.56,1.48a4.54,4.54,0,0,0,.91,1.44,9.68,9.68,0,0,0,1.75,1.38,14.2,14.2,0,0,0,2.28,1.25,15.86,15.86,0,0,0,2.37.73,12.19,12.19,0,0,0,2,.34c.58,0,1.09,0,1.68,0a9.86,9.86,0,0,1,1.89.54,11.05,11.05,0,0,0,1.7.53,6,6,0,0,0,1.71,0c.59-.06,1.18-.17,1.35-.46a5,5,0,0,0-2.08-1.43,6.63,6.63,0,0,0-1.83-.36,6.47,6.47,0,0,1-1.39-.08,6.1,6.1,0,0,1-1.24-.65,6,6,0,0,1-1-.61,1.27,1.27,0,0,1-.45-.84.53.53,0,0,1,.44-.53,2.17,2.17,0,0,1,1,.18,4.38,4.38,0,0,1,1.06.48c.29.2.47.45.69.56s.49.08.55-.1-.08-.52-.38-1.07-.73-1.31-1.12-2a13.26,13.26,0,0,0-1.19-1.93,4.29,4.29,0,0,0-1.47-1.19A3.06,3.06,0,0,0,64,95.41a3.78,3.78,0,0,1-1.15-.08,2.54,2.54,0,0,1-1.12-.67,1.08,1.08,0,0,1-.3-1,1.12,1.12,0,0,1,.76-.76,1.24,1.24,0,0,1,.93.37,1.83,1.83,0,0,0,.74.46,1.23,1.23,0,0,0,.83-.22c.23-.16.38-.37.62-.34a2.89,2.89,0,0,1,1,.72c.45.4,1,.91,1.42,1.36a5.35,5.35,0,0,1,1,1.35c.27.52.53,1.19.86,1.89s.74,1.43,1.09,2.06a6.11,6.11,0,0,0,1,1.5,3.73,3.73,0,0,0,1.27.68,5.33,5.33,0,0,1,1.31.65,7.55,7.55,0,0,1,1.2,1.14,4.83,4.83,0,0,0,1.32,1.14,19.37,19.37,0,0,0,2.4,1.07c.78.31,1.38.55,2,.85s1.35.66,1.84.4A34.44,34.44,0,0,0,80,105.17c-.78-.6-1.58-1.09-2.19-1.58a9,9,0,0,1-1.46-1.49c-.43-.53-.86-1.12-1.37-1.69s-1.12-1.11-1.71-1.65a18.08,18.08,0,0,1-1.57-1.53,12.21,12.21,0,0,0-.88-1.14,3.34,3.34,0,0,0-.92-.41,2.08,2.08,0,0,1-.79-.62.82.82,0,0,1-.23-.73c.08-.19.37-.29.66-.33s.62,0,.73-.14,0-.36-.22-.74a4.19,4.19,0,0,0-1-1.15,1.92,1.92,0,0,0-1-.3.77.77,0,0,1-.6-.29,1.3,1.3,0,0,1-.17-.81.66.66,0,0,1,.51-.58,1.93,1.93,0,0,1,1.26.15,4.6,4.6,0,0,1,1.39,1,7.82,7.82,0,0,1,1,1.33,4,4,0,0,1,.5,1.13,7.16,7.16,0,0,0,.3,1.18,4.64,4.64,0,0,0,.69,1,1.84,1.84,0,0,0,.67.63,3.14,3.14,0,0,0,1,.07.88.88,0,0,1,.79.33A8.5,8.5,0,0,1,75.71,98a4.52,4.52,0,0,0,.74,1.26c.3.37.59.66,1,1.2a9.72,9.72,0,0,0,1.95,1.93c-.42-2.07-.58-3-.64-3.59a2.94,2.94,0,0,0-.25-1.32,6.76,6.76,0,0,0-1.19-1.4,2.4,2.4,0,0,0-1.2-.73,6.13,6.13,0,0,0-1.28.07,1,1,0,0,1-.92-.29,1.22,1.22,0,0,1-.16-1c.07-.29.27-.46.69-.42S75.6,94,76,94s.44-.19.24-.56a5.5,5.5,0,0,0-1.09-1.29,8.56,8.56,0,0,0-1.44-1,6.79,6.79,0,0,1-1.39-.91A7.32,7.32,0,0,1,71.44,89a1.12,1.12,0,0,0-.87-.57,8.47,8.47,0,0,0-1.62,0,6.94,6.94,0,0,1-1.5,0,5.35,5.35,0,0,1-.81-.33c-.29-.09-.69-.1-1-.21a.73.73,0,0,1-.55-.63,1.26,1.26,0,0,1,.5-.83.88.88,0,0,1,.79-.19,1.56,1.56,0,0,1,.63.53c.17.22.33.44.61.46a2.2,2.2,0,0,0,1-.28,1.45,1.45,0,0,0,.57-.44c.15-.2.31-.48.57-.59a1,1,0,0,1,.89.19,7.84,7.84,0,0,1,.75.87,8,8,0,0,0,1.11,1,2.63,2.63,0,0,0,.82.5c.16,0,.19-.16.1-.49a3.76,3.76,0,0,0-.73-1.31,7.53,7.53,0,0,0-1.77-1.43c-.8-.51-1.84-1.08-2.72-1.54a12.14,12.14,0,0,0-2.28-1,10.14,10.14,0,0,1-1.76-.43c-.51-.25-.93-.74-1.55-1.06s-1.46-.46-2.22-.74a16.22,16.22,0,0,1-2-1,3.6,3.6,0,0,0-1.6-.51c-.59,0-1.33.09-2.24.11s-2,0-2.62.05-.78.36-1.14.45a1.3,1.3,0,0,1-1.15-.25,1.08,1.08,0,0,1-.12-1.05c.11-.33.29-.52.35-.75a5.37,5.37,0,0,0,0-.75.68.68,0,0,1,.35-.57,1,1,0,0,1,.87,0c.33.17.65.53,1,.74a3.52,3.52,0,0,0,1.42.35,13.19,13.19,0,0,0,1.72,0c.49,0,.81-.12.89-.24s-.06-.28-.36-.58a5.28,5.28,0,0,0-1.24-1,7.74,7.74,0,0,0-1.43-.45,2,2,0,0,1-1-.61,1.56,1.56,0,0,1-.35-1,1.5,1.5,0,0,1,.4-1,1.48,1.48,0,0,1,1-.41,1.69,1.69,0,0,1,1.16.32,6.4,6.4,0,0,1,.89,1.18c.35.48.85,1,1.22,1.43a11.52,11.52,0,0,0,1.05,1.16c.43.39,1.06.85,1.52,1.25a6,6,0,0,0,1.2,1,2.38,2.38,0,0,0,1.32.22c.3-.06.33-.26.19-.67a7.78,7.78,0,0,0-.88-1.66,8,8,0,0,0-1.66-1.81,12.51,12.51,0,0,0-1.92-1.11c-.52-.27-.81-.46-.84-.65s.2-.41.56-.45a2.51,2.51,0,0,1,1.25.28,5.53,5.53,0,0,0,1,.52,3.63,3.63,0,0,0,.87-.09,1,1,0,0,1,.73.35,3.35,3.35,0,0,1,.59.9c.17.36.31.75.54,1.2a15.8,15.8,0,0,1,.77,1.45c.2.5.28,1,.52,1.51a5.31,5.31,0,0,0,1.08,1.45,3.35,3.35,0,0,0,1.18.83.39.39,0,0,0,.55-.33,6.11,6.11,0,0,0,0-1.22,8.24,8.24,0,0,1,.07-1.46c.07-.41.2-.69.44-.77A1,1,0,0,1,67.71,78c0,.35-.19.78-.22,1.21a3.09,3.09,0,0,0,.23,1.26,2,2,0,0,0,.61.94,1.15,1.15,0,0,0,1,.21c.27-.09.41-.36.66-.48a1.06,1.06,0,0,1,1,.13,3.9,3.9,0,0,1,1.19,1.17c.33.48.53,1,.94,1.65s1,1.48,1.4,2.16a8.76,8.76,0,0,1,.67,1.95A24.84,24.84,0,0,0,76,90.56,14.88,14.88,0,0,0,77,92.72c.42.71.94,1.45,1.41,2.15s.88,1.38,1.16,1.81.47.63.63.64.31-.14.46-.43a2.6,2.6,0,0,0,.3-1.18,5,5,0,0,0-.4-1.55c-.22-.6-.49-1.32-.73-2.06s-.47-1.52-.62-2.1a8,8,0,0,0-.53-1.59,15.35,15.35,0,0,0-1.25-2.09c-.49-.68-1-1.24-1.52-1.89s-1.15-1.38-1.71-2a8.72,8.72,0,0,1-1.41-1.91c-.34-.72-.5-1.59-.86-2.18a8.58,8.58,0,0,0-1.72-1.61,28.06,28.06,0,0,0-2.9-2.5,10.7,10.7,0,0,0-3.09-1.26c-1-.27-1.77-.52-2.57-.7s-1.55-.3-2.39-.43l-2.65-.41a23.45,23.45,0,0,0-2.6-.28c-.78,0-1.43.07-2,.08a2.87,2.87,0,0,1-1.39-.26,1,1,0,0,1-.54-.78.55.55,0,0,1,.46-.63,5.68,5.68,0,0,1,1.31.09,1,1,0,0,0,.78-.17c.18-.13.32-.34.55-.33a2.73,2.73,0,0,1,.89.42,4.37,4.37,0,0,0,1.32.48c.59.13,1.4.21,2.24.34s1.7.31,2.29.39.93.06.9-.14-.43-.58-.94-.88a12.73,12.73,0,0,0-1.72-.77,7.74,7.74,0,0,1-1.6-.81,1.63,1.63,0,0,1-.68-.93.47.47,0,0,1,.45-.58,3.23,3.23,0,0,1,1.56.36A14.88,14.88,0,0,1,59.76,68a14.17,14.17,0,0,1,1.6,1.11,18.58,18.58,0,0,0,1.5,1.29,8.61,8.61,0,0,0,1.82.86c.64.25,1.27.49,1.76.64a1.58,1.58,0,0,0,.93.11c.12-.07,0-.24-.4-.73s-1.22-1.27-1.79-1.92a8.76,8.76,0,0,0-1.61-1.66,19.71,19.71,0,0,0-2.48-1.27,14.61,14.61,0,0,0-2.23-1,11.83,11.83,0,0,0-2.41-.27,17.45,17.45,0,0,1-2.62-.32c-.69-.17-1.05-.41-1-.69s.39-.64.93-.87a3.45,3.45,0,0,1,2-.26,11.25,11.25,0,0,1,2,.7c.56.2,1,.24,1.09,0s0-.64-.24-1.13a14.31,14.31,0,0,0-1-1.59,9.53,9.53,0,0,0-1.13-1.5,7.8,7.8,0,0,0-1.25-.91,2.2,2.2,0,0,1-1-1,.74.74,0,0,1,.48-.87,1.24,1.24,0,0,1,1.14.33,4.36,4.36,0,0,1,.62.9c.15.22.3.25.44.05s.27-.61.44-.87a.6.6,0,0,1,.58-.34.51.51,0,0,1,.43.52,9.61,9.61,0,0,0,0,1.34A5.15,5.15,0,0,0,59,60.18,12.16,12.16,0,0,1,59.72,62c.22.67.43,1.41.64,1.9a2.11,2.11,0,0,0,.75,1,5,5,0,0,0,1.11.6,2.73,2.73,0,0,0,1.1.26c.23,0,.22-.25.09-.62a7,7,0,0,0-.69-1.35c-.29-.44-.62-.78-.8-1.1s-.23-.62-.05-.78a2.55,2.55,0,0,1,.94-.31,1.28,1.28,0,0,0,.89-.61,3,3,0,0,0,0-1.28c0-.44,0-.83-.06-1.26a2.48,2.48,0,0,1,.08-1.21,1.26,1.26,0,0,1,1-.56,1.52,1.52,0,0,1,1,.17.48.48,0,0,1,.12.67,11.25,11.25,0,0,0-.62.95,1.25,1.25,0,0,0,.07,1,2.47,2.47,0,0,1,.37,1,2,2,0,0,1-.58,1,2.83,2.83,0,0,0-.66,1.16A3.13,3.13,0,0,0,64.5,64c.12.47.29.89.46,1.43a10.31,10.31,0,0,0,.63,1.73,7.73,7.73,0,0,0,1.09,1.42A17.54,17.54,0,0,1,68,70.28c.43.62.84,1.31,1.21,2a12.3,12.3,0,0,0,1.12,1.83,5.94,5.94,0,0,0,1.36,1.23c.38.24.6.27.7.09s.09-.6-.17-1.35a27.74,27.74,0,0,0-1.25-2.77c-.46-.92-.85-1.66-1.23-2.3a18.16,18.16,0,0,1-1.05-1.79,20.16,20.16,0,0,0-.89-2,10.11,10.11,0,0,0-.93-1.05c-.19-.28-.18-.58.07-.64s.69.13,1.1.12a.82.82,0,0,0,.83-.57A1.6,1.6,0,0,0,68.45,62c-.22-.3-.43-.47-.38-.67a1,1,0,0,1,.75-.49c.36-.05.74.09,1-.06s.3-.58.31-1a2.47,2.47,0,0,1,.08-1,.54.54,0,0,1,.73-.14,1.05,1.05,0,0,1,.54,1,6.57,6.57,0,0,1-.62,2,19.13,19.13,0,0,0-.92,2.63,3.18,3.18,0,0,0,.09,1.8,6.19,6.19,0,0,0,.72,1.59c.28.38.56.51.78.26A3.67,3.67,0,0,0,72,66.24c.08-.77.09-1.66.1-2.41a10.57,10.57,0,0,1,.13-2,9.59,9.59,0,0,1,.58-1.81,3,3,0,0,1,.73-1.23.71.71,0,0,1,.92,0,1.39,1.39,0,0,1,.4,1.16,3.84,3.84,0,0,1-.63,1.48A9.8,9.8,0,0,0,73.39,63c-.12.36,0,.52.23.45s.55-.35.77-.28.36.48.23.83a5.84,5.84,0,0,1-.76,1,3.31,3.31,0,0,0-.47,1.38A12.18,12.18,0,0,1,73.11,68a4.41,4.41,0,0,0-.43,1.34,5.3,5.3,0,0,0,.59,1.87A6.1,6.1,0,0,1,74,73.39a11.05,11.05,0,0,1-.32,2.42,5.69,5.69,0,0,0,0,1.82,7.68,7.68,0,0,0,.43,1.75,2.32,2.32,0,0,0,.73,1c.23.17.43.13.55-.26a4.61,4.61,0,0,0,0-1.82,6.5,6.5,0,0,0-.62-1.73c-.22-.42-.36-.6-.44-.78a.6.6,0,0,1,0-.56,2.42,2.42,0,0,1,.52-.68,4.16,4.16,0,0,0,.52-.38,3.73,3.73,0,0,0,.55-1,3.16,3.16,0,0,0,.28-1.36,5.31,5.31,0,0,0-.33-1.15,1,1,0,0,1,.07-.89.69.69,0,0,1,.85,0,2,2,0,0,1,.83,1.21,3.6,3.6,0,0,1-.15,1.88c-.2.63-.52,1.19-.69,1.66a2.07,2.07,0,0,0-.09,1.24c.1.38.3.76.42,1.32a6.36,6.36,0,0,1,0,2.08,14.09,14.09,0,0,0-.34,2.06,1.52,1.52,0,0,0,.55,1,6.08,6.08,0,0,1,.61.71,5.28,5.28,0,0,1,.8,1.31c.15.46.08.84.2,1.26a3,3,0,0,0,.71,1.11c.26.25.45.31.61.09a3.73,3.73,0,0,0,.39-1.33c.11-.62.19-1.34.32-2.31s.31-2.17.41-3.14a6.36,6.36,0,0,0-.08-2.35,14.17,14.17,0,0,0-.85-1.7,11.42,11.42,0,0,1-.68-2.27c-.21-.93-.46-2.06-.55-2.77a5.7,5.7,0,0,0-.14-1.26,3.57,3.57,0,0,0-.72-.9,2.25,2.25,0,0,1-.53-.67,3.45,3.45,0,0,0-.34-.8,2,2,0,0,0-.83-.54,2,2,0,0,1-.84-.5.58.58,0,0,1,.09-.71c.18-.19.47-.25.54-.46s-.08-.54-.1-.86.07-.6.34-.68a1.45,1.45,0,0,1,1.14.38A3.92,3.92,0,0,1,79,65.2a8.52,8.52,0,0,1,.47,1.6,5.49,5.49,0,0,0,.58,1.45c.19.28.33.23.49-.22A10.1,10.1,0,0,0,80.9,66a5.72,5.72,0,0,0-.14-2,14.33,14.33,0,0,0-.67-1.63,5.8,5.8,0,0,1-.47-1.81,17.46,17.46,0,0,0-.1-1.82,2,2,0,0,0-.73-1.12,13,13,0,0,1-1.06-.82c-.37-.36-.77-.89-1.08-1.24a1.86,1.86,0,0,0-.9-.61c-.35-.1-.8-.15-.93-.32s.06-.46.36-.59a3.65,3.65,0,0,1,1.07-.14,2.34,2.34,0,0,0,1-.32c.31-.19.6-.48.86-.5a.52.52,0,0,1,.51.53,10.81,10.81,0,0,0-.1,1.11,2.37,2.37,0,0,0,.64,1.14c.29.33.59.59.84.59s.44-.28.6-.68a8.1,8.1,0,0,0,.4-1.38c.09-.43.14-.75.37-.85a.75.75,0,0,1,.87.42,2.4,2.4,0,0,1,0,1.66,11.5,11.5,0,0,1-.77,1.55,3.8,3.8,0,0,0-.36,1.39,4,4,0,0,0,.13,1.13,15.4,15.4,0,0,0,.38,1.53,3.21,3.21,0,0,0,.6,1.17.68.68,0,0,0,.79.22,2.2,2.2,0,0,0,.78-.85,5.19,5.19,0,0,0,.66-1.43,11.83,11.83,0,0,0,.22-1.89A7.51,7.51,0,0,1,85,56.6c.17-.48.44-.77.74-.76s.61.33.67.9a18.63,18.63,0,0,1-.12,2c0,.59.19.95.51.89s.78-.52,1.1-.85a2.12,2.12,0,0,0,.63-.92,5.33,5.33,0,0,1,.37-1.26.52.52,0,0,1,.78,0,1.21,1.21,0,0,1,.37.9c0,.35-.11.7-.09,1s.19.65,0,.88a4.4,4.4,0,0,1-1.28.57,10.76,10.76,0,0,0-1.26.66c-.35.2-.65.35-.92.49a2.19,2.19,0,0,0-.81.63c-.28.35-.59.91-.95,1.38a14.49,14.49,0,0,1-1.1,1.18,2.24,2.24,0,0,0-.66,1.1c-.1.46-.09,1.11-.16,1.66a5.68,5.68,0,0,1-.49,1.56c-.24.56-.55,1.22-.78,1.89a5.23,5.23,0,0,0-.32,2,5.74,5.74,0,0,0,.45,1.76c.19.5.36.86.57.9s.45-.25.65-.7a10.75,10.75,0,0,0,.55-1.73,20.16,20.16,0,0,1,.66-2.17,10,10,0,0,1,1.11-2.12,2.71,2.71,0,0,1,1.25-1.06,1.11,1.11,0,0,1,1.11.13c.18.22.05.61-.22,1s-.73.75-1.07,1.15a3.55,3.55,0,0,0-.74,1.39c-.15.53-.2,1.16-.32,1.8a7.7,7.7,0,0,1-.6,1.87c-.27.54-.61,1-.92,1.48A5.17,5.17,0,0,0,83,77.89a10.79,10.79,0,0,0,0,1.93c0,.62,0,1.21,0,1.49s.18.28.33,0a5.84,5.84,0,0,0,.38-1.55A9.84,9.84,0,0,1,84,77.8a2.42,2.42,0,0,1,1.12-1.4,2.14,2.14,0,0,1,1.58-.23c.36.14.41.51.19,1s-.72,1-1,1.49a6.26,6.26,0,0,0-.57,1.61,4.48,4.48,0,0,1-.81,1.7c-.45.54-1.13,1-1.5,1.45a2.82,2.82,0,0,0-.57,1.4c-.14.58-.35,1.36-.57,2.07a9.49,9.49,0,0,0-.49,2.05A7,7,0,0,0,81.58,91c.17.71.38,1.43.55,1.91s.3.69.52.55a3.23,3.23,0,0,0,.8-1.21A9.76,9.76,0,0,0,84,90.49c.15-.62.28-1.29.46-1.92s.41-1.24.6-1.93a18.11,18.11,0,0,0,.45-2.14c.1-.69.14-1.27.22-1.81a3.72,3.72,0,0,1,.36-1.33.37.37,0,0,1,.62-.08,5.49,5.49,0,0,1,.65.91c.19.27.33.4.46.23a2.61,2.61,0,0,0,.26-1.08c0-.45,0-.88,0-1.24s.18-.66.27-1.15.14-1.16.31-1.8a12,12,0,0,1,.66-1.74,2,2,0,0,0,.28-1.17,4.38,4.38,0,0,0-.59-1.08,3.65,3.65,0,0,1-.5-1.27,1,1,0,0,1,.28-1,1.2,1.2,0,0,1,.93-.23c.27.06.39.26.44.64s0,.95.11,1.3.29.49.51.36a4.39,4.39,0,0,0,.82-1c.35-.5.79-1.09,1.11-1.48s.53-.59.86-.64a1.71,1.71,0,0,1,1.1.24.59.59,0,0,1,.26.82,7.26,7.26,0,0,1-1.05,1A12.17,12.17,0,0,0,93.07,73a8.62,8.62,0,0,1-1.16,1.18A7.29,7.29,0,0,0,91,75a4.26,4.26,0,0,0-.75,1.33A3.62,3.62,0,0,0,90,77.64c0,.32.15.42.33.27a5.57,5.57,0,0,0,.69-1,2.88,2.88,0,0,1,.84-1,.68.68,0,0,1,.85.16,1.17,1.17,0,0,1,.13.94c-.08.32-.26.56-.19.74s.4.3.74.28a1.44,1.44,0,0,0,1-.61,15.43,15.43,0,0,0,.95-1.63,5.18,5.18,0,0,1,1.12-1.44,1.2,1.2,0,0,1,1.07-.28.62.62,0,0,1,.49.59,1.38,1.38,0,0,1-.58.88c-.34.29-.81.56-1.13.86a1,1,0,0,0-.43.91c.07.27.38.48.54.7a.37.37,0,0,1-.15.62,5.24,5.24,0,0,1-1.39.29,3.94,3.94,0,0,0-1,.22,2.46,2.46,0,0,1-1,.3c-.36,0-.74-.27-1.07-.3a1.57,1.57,0,0,0-.88.34,1.5,1.5,0,0,0-.67.63c-.18.36-.3.93-.63,1.55S88.78,83,88.42,83.6a17,17,0,0,0-.78,1.81c-.23.53-.48.94-.73,1.44s-.5,1.08-.38,1.34.58.18,1-.05A3.55,3.55,0,0,0,88.69,87c.36-.5.71-1.13,1-1.71a9.45,9.45,0,0,0,.85-1.7,6,6,0,0,0,.2-1.49,2,2,0,0,1,.2-1,.86.86,0,0,1,.69-.44,1,1,0,0,1,.81.43c.17.27.16.66.3.89s.44.31.83.14a6.56,6.56,0,0,0,1.38-1c.5-.42,1-.86,1.37-1.12s.6-.35.83-.21a1.17,1.17,0,0,1,.49.82.9.9,0,0,1-.49.84c-.33.19-.81.29-1.06.46s-.27.42-.2.75a3.52,3.52,0,0,1,.17,1.07.92.92,0,0,1-.58.7c-.3.13-.64.16-.76,0s0-.6,0-.88-.22-.41-.56-.37a3.74,3.74,0,0,0-1.41.58,6.53,6.53,0,0,0-1.57,1.32,4.78,4.78,0,0,0-.86,1.49c-.15.41-.15.67.26.73a7.34,7.34,0,0,0,1.9-.21,9.17,9.17,0,0,1,1.73-.27,5.58,5.58,0,0,1,1.59.26c.45.14.75.29.83.65a1.1,1.1,0,0,1-.38,1.1A1.81,1.81,0,0,1,95,88.74a2.26,2.26,0,0,0-1.3-.18c-.43.11-.88.48-1.25.54s-.67-.2-1.06-.31a3.06,3.06,0,0,0-1.43.06,15.15,15.15,0,0,0-1.61.51c-.45.17-.75.31-1.06.42a2.24,2.24,0,0,0-1,.53A7.62,7.62,0,0,0,85.06,92c-.4.73-.77,1.55-1.31,2.63s-1.27,2.43-1.67,3.44a7.2,7.2,0,0,0-.55,2.26,3.89,3.89,0,0,0,.14,1.56,13.44,13.44,0,0,0,2.4,4c.46.46.87.58,1.2.44a2.23,2.23,0,0,0,.84-1c.23-.41.43-.82.67-1.18a2.08,2.08,0,0,1,.85-.83.9.9,0,0,1,.91.13.79.79,0,0,1,.11.89c-.14.36-.46.77-.56,1.13a1.71,1.71,0,0,0,.09,1c.06.28.07.51-.22.68s-.88.23-1.15.41-.21.47.08.81a8.93,8.93,0,0,0,1.41,1.19,9.24,9.24,0,0,0,2.17,1.27c3.46,1.78,4.66,2.39,5.22,2.4s.49-.58.07-1.45A6.08,6.08,0,0,0,91.28,108c-.74-.28-1.29-.64-1.33-1s.43-.71,1.07-.69a8.48,8.48,0,0,1,2.08.63c.62.21,1.05.24,1.22-.09A2.49,2.49,0,0,0,94,105a19,19,0,0,0-1.67-2.62,23.36,23.36,0,0,0-1.72-2.21,32.64,32.64,0,0,1-2.16-2.46A2.08,2.08,0,0,1,88,96a1,1,0,0,1,.88-.78,2.09,2.09,0,0,1,1.74.36,5.93,5.93,0,0,1,1.23,2.18,23.73,23.73,0,0,0,1.37,2.82c.45.76.86,1.16,1.21,1.17s.66-.39.85-.93a2.49,2.49,0,0,0,0-1.74A2.73,2.73,0,0,0,94,97.92c-.43-.24-.76-.32-.77-.57a1,1,0,0,1,.7-.8,2.62,2.62,0,0,1,1.32.14c.39.11.67.14.87,0s.31-.55.56-.74a.72.72,0,0,1,.88,0A1,1,0,0,1,97.87,97c-.13.45-.54.94-.68,1.33s0,.65.23.69a1.93,1.93,0,0,0,1-.38,2,2,0,0,1,.93-.45,1,1,0,0,1,.82.54.78.78,0,0,1-.22,1,8.29,8.29,0,0,1-1.78,1,10.4,10.4,0,0,0-1.49.82,3.19,3.19,0,0,0-1,1,2.16,2.16,0,0,0-.19,1.19c0,.41.12.84.17,1.27a11.1,11.1,0,0,1,.1,1.31,10.2,10.2,0,0,0,.12,1.44,7.34,7.34,0,0,0,.5,1.52c.24.56.53,1.21.81,1.86s.57,1.3.85,2a7.36,7.36,0,0,0,1,1.9,2.43,2.43,0,0,0,1.36.88c.35,0,.48-.23.51-.65a8.51,8.51,0,0,0-.16-1.7,12.42,12.42,0,0,0-.44-2.07,10.6,10.6,0,0,0-.62-1.23,1.56,1.56,0,0,1-.12-1.08.69.69,0,0,1,.81-.39,3.78,3.78,0,0,1,1.3.54c.37.22.58.41.82.32a1.37,1.37,0,0,0,.62-1c.12-.56.09-1.3.18-1.87s.31-1,.66-1a1.31,1.31,0,0,1,1.15.61,1.79,1.79,0,0,1,.18,1.5,10.94,10.94,0,0,1-.73,1.5,7.61,7.61,0,0,1-.55,1.31c-.3.45-.85,1-1.19,1.47a3.59,3.59,0,0,0-.51,1.67,10,10,0,0,0,0,2,6.19,6.19,0,0,0,.48,1.9c.25.54.58,1,.84,1s.48-.32.46-.82-.25-1.17-.25-1.73a1.23,1.23,0,0,1,.51-1.13c.28-.13.6.07.85.55a5.8,5.8,0,0,1,.49,2c.07.72,0,1.38.09,2.09a6.9,6.9,0,0,0,.58,2.19,10.63,10.63,0,0,0,1.18,2c.35.45.54.6.77.49a1.61,1.61,0,0,0,.64-1,4.22,4.22,0,0,0,.08-1.68,18.49,18.49,0,0,0-.41-1.94c-.17-.74-.34-1.61-.48-2.4a5.68,5.68,0,0,1-.17-1.91.59.59,0,0,1,.72-.5,1.08,1.08,0,0,1,.67.75,6,6,0,0,1,.12,1.36,8.33,8.33,0,0,0,.28,1.79c.16.54.4,1,.75,1s.83-.43,1.22-1.15a7.2,7.2,0,0,0,.77-2.4,3.65,3.65,0,0,0-.35-1.81c-.26-.75-.62-1.89-.86-2.8s-.36-1.61-.49-2.24a10,10,0,0,0-.5-1.87c-.28-.7-.71-1.57-1.09-2.36a15.3,15.3,0,0,0-1.14-2,5,5,0,0,0-1.46-1.36,21.41,21.41,0,0,0-1.93-1,10.22,10.22,0,0,1-1.51-.89,2.31,2.31,0,0,1-.82-.94,2.18,2.18,0,0,1-.15-1.32,1.14,1.14,0,0,1,.68-.81.8.8,0,0,1,.87.17,2.22,2.22,0,0,1,.44.93c.1.31.16.55.42.53s.73-.27,1.08-.32a.54.54,0,0,1,.67.4,12.18,12.18,0,0,1,.05,1.31c0,.56.18,1.22.51,1.27s.86-.51,1.28-.77a.91.91,0,0,1,1-.1,1.22,1.22,0,0,1,.49.58,2.37,2.37,0,0,1,.25.93c0,.36-.07.76,0,1.16a4.6,4.6,0,0,0,.35,1.19,6.86,6.86,0,0,0,.53,1.11c.23.37.54.75.87.63s.67-.75,1-1.43a9.9,9.9,0,0,0,.72-2.07,3.4,3.4,0,0,0,0-1.91c-.21-.55-.64-1-.6-1.29s.58-.48,1-.64.73-.32.55-.78a7.84,7.84,0,0,0-1.47-1.89c-.63-.66-1.23-1.19-1.94-1.84s-1.52-1.44-2.11-2a4.42,4.42,0,0,0-1.49-1.1,9.81,9.81,0,0,1-1.47-.44c-.26-.2-.09-.55.2-.83s.7-.48,1-.84.59-.85.83-1.06a.35.35,0,0,1,.6.16c.12.27.11.71.27,1.21a5.31,5.31,0,0,0,.92,1.61,14.7,14.7,0,0,0,1.61,1.61,9.92,9.92,0,0,0,2,1.53c.46.18.56-.19.65-.87a12.47,12.47,0,0,0,.11-2.44,19,19,0,0,1-.23-2,1.76,1.76,0,0,1,.7-1.35,1,1,0,0,1,1.15,0,1.48,1.48,0,0,1,.24,1.16,3,3,0,0,0,.09,1.34c.17.32.55.42.58.71s-.3.76-.56,1.22a2.84,2.84,0,0,0-.47,1.36,9.3,9.3,0,0,0,.25,1.54,11.63,11.63,0,0,1,.1,1.67,12.54,12.54,0,0,0,.14,2,5.85,5.85,0,0,1,.14,2.45,14.55,14.55,0,0,1-1.5,3.17,25.8,25.8,0,0,0-1.51,3.18,5.82,5.82,0,0,0-.42,2.42,15,15,0,0,0,.45,2.41,5.13,5.13,0,0,0,.75,2c.36.38.88.29,1.42-.28a7.41,7.41,0,0,0,1.36-2.54,8.49,8.49,0,0,0,.35-2.61c0-.9,0-1.91,0-2.76a7.23,7.23,0,0,1,.32-2,10,10,0,0,0,.56-1.53c.11-.58.07-1.35.2-1.86a.92.92,0,0,1,.8-.8,3.12,3.12,0,0,0,1.39-.16,3.56,3.56,0,0,0,1.47-1.64,1.73,1.73,0,0,0-.13-1.71,6.7,6.7,0,0,0-1.17-.94c-.34-.3-.48-.68-.27-1a1.32,1.32,0,0,1,1.36-.31,2.84,2.84,0,0,1,1.52,1.38,3.08,3.08,0,0,1,.22,2.4,9.18,9.18,0,0,1-1.67,2.83,19.64,19.64,0,0,0-2,2.62,8.46,8.46,0,0,0-.85,3,7.07,7.07,0,0,0,0,2.88c.25.54.82.36,1.49-.05a5.94,5.94,0,0,0,1.92-1.81,9.12,9.12,0,0,0,.89-2.47,11.58,11.58,0,0,1,.87-2.26c.36-.7.81-1.33,1.17-2a6.76,6.76,0,0,0,.71-2.13,5.33,5.33,0,0,0-.11-2.24,4.88,4.88,0,0,0-.81-1.41,1.08,1.08,0,0,1-.25-1,1.31,1.31,0,0,1,.89-.6,1.39,1.39,0,0,1,1.22.22,2.8,2.8,0,0,1,.91,1.49,5.22,5.22,0,0,1,0,2,10.29,10.29,0,0,0-.24,1.66,3,3,0,0,0,.37,1.3c.15.3.28.4.08.69a7.44,7.44,0,0,1-1.15,1.15,5.21,5.21,0,0,0-1.14,1.12,7.23,7.23,0,0,0-1,2.15,4,4,0,0,0-.1,2.3c.23.51.79.6,1.2.77s.7.42.56.74a1.77,1.77,0,0,1-1.34.77,16.73,16.73,0,0,0-2.12,0,6.2,6.2,0,0,0-2.64,1.48,29.15,29.15,0,0,0-2.53,2.52,13,13,0,0,0-1.41,1.7,1,1,0,0,0-.21.89c.07.18.26.22.23.43a1.5,1.5,0,0,1-.76.81,13.76,13.76,0,0,0-1.41.63c-.34.25-.4.64-.65,1.19a12.44,12.44,0,0,1-1,1.8c-.33.52-.59.84-.83,1.18a4.9,4.9,0,0,0-.66,1.34c-.22.65-.46,1.6-.64,2.29a6.11,6.11,0,0,0-.32,2.05,5.45,5.45,0,0,0,1.74,4"/><path class="cls-1" d="M97.85,49.86a1.77,1.77,0,0,0,1.31.06,13.6,13.6,0,0,0,1.74-.49c.67-.23,1.42-.55,2.1-.85s1.29-.56,2-.94,1.53-.84,2.16-1.22,1.07-.69,1.34-.89.37-.31.53-.41a1.91,1.91,0,0,1,.62-.24,5.43,5.43,0,0,1,.84-.05c.33,0,.74,0,1-.06a4.65,4.65,0,0,0,.63-.09.65.65,0,0,0,.27-.09.16.16,0,0,0,.08-.15.22.22,0,0,0-.11-.14c-.05,0-.11,0-.09-.13.53,0,.58-.07.6-.25a.89.89,0,0,0-.14-.64,4.75,4.75,0,0,0-.81-.74,7.15,7.15,0,0,1-1-.93,2.83,2.83,0,0,1-.57-1.09c-.11-.42-.15-.92-.23-1.35a5.37,5.37,0,0,0-.39-1.24c-.19-.42-.44-.89-.7-1.37s-.52-1-.77-1.47a13.61,13.61,0,0,1-.65-1.4,9.52,9.52,0,0,1-.23-1,10.27,10.27,0,0,0-.34-1c-.13-.37-.27-.77-.38-1.11a2.46,2.46,0,0,0-.33-.86,5.65,5.65,0,0,0-.78-.68,3.92,3.92,0,0,1-.67-.71c-.18-.24-.29-.47-.44-.63a1.38,1.38,0,0,0-.51-.34,4.5,4.5,0,0,1-.54-.24,2.26,2.26,0,0,1-.48-.39,3.55,3.55,0,0,0-.3-.31,1.48,1.48,0,0,0-.43-.16,4.51,4.51,0,0,1-.79-.3,1.67,1.67,0,0,1-.48-.42,1.19,1.19,0,0,0-.42-.34,2.6,2.6,0,0,0-.61-.12,3,3,0,0,1-.55-.14,1.31,1.31,0,0,0-.35-.14,2.23,2.23,0,0,0-.47.06c-.22,0-.53.07-.75.1a1.37,1.37,0,0,0-.44.09,3,3,0,0,1-.33.17c-.15.06-.37.1-.51.15a1.49,1.49,0,0,0-.38.23l-.56.36a1.45,1.45,0,0,0-.39.33c-.1.13-.2.32-.34.5s-.33.36-.52.58a6.29,6.29,0,0,0-.52.69c-.12.2-.18.33-.25.45s-.18.25-.24.36-.09.22-.17.36-.23.32-.31.48-.1.27-.16.39-.17.26-.26.44a5.16,5.16,0,0,1-.28.57,6.08,6.08,0,0,1-.42.51,2.67,2.67,0,0,0-.28.5l-.23.51c-.1.21-.24.48-.4.78s-.36.62-.53,1-.33.68-.5,1.06-.36.77-.51,1.17-.26.79-.35,1.1a2,2,0,0,0-.12.73.75.75,0,0,0,.32.55A2.84,2.84,0,0,1,88,38.65a6.87,6.87,0,0,1-.63-.41,1.26,1.26,0,0,0-.31-.18c-.09,0-.2-.05-.37-.12a6,6,0,0,1-.61-.32c-.2-.11-.35-.21-.53-.29s-.36-.14-.62-.25-.58-.3-.88-.48a9,9,0,0,0-.83-.48,1.72,1.72,0,0,0-.7-.13.7.7,0,0,0-.48.17,1,1,0,0,0-.21.55c0,.27-.07.62-.08,1s0,.61,0,.88a4.79,4.79,0,0,0-.07.77c0,.26.1.55.16,1s.09.94.12,1.33a6.63,6.63,0,0,0,.14,1c.09.38.23.9.37,1.34A8.24,8.24,0,0,0,82.88,45c.13.25.23.4.38.43a1,1,0,0,0,.59-.23c.23-.15.48-.33.8-.57a13.16,13.16,0,0,0,1.08-.88c.39-.36.8-.79,1.15-1.15a4.84,4.84,0,0,1,1-.88,1.3,1.3,0,0,1,1.27-.1c-.92-.06-1.18.23-1.39.54a2.8,2.8,0,0,0-.39.94,2.53,2.53,0,0,0,0,.83,7.43,7.43,0,0,0,.17,1c.09.38.23.76.35,1.26s.24,1.11.4,1.62A3.2,3.2,0,0,0,89,49.13a4.38,4.38,0,0,0,1,.78,2.73,2.73,0,0,0,.64.3l.75.23a4.23,4.23,0,0,0,.77.17,5.88,5.88,0,0,0,1,0c.44,0,1-.07,1.61-.14a10.65,10.65,0,0,0,1.64-.29,8.48,8.48,0,0,0,1.82-.75.6.6,0,0,1-.32.46"/><path class="cls-1" d="M199.75,94.93A8.9,8.9,0,0,0,196.36,97a5.07,5.07,0,0,1-3.48,1.38,9,9,0,0,1-1.68-.14,2.41,2.41,0,0,1-.9-.28c-.14-.12-.11-.25.2-.36s.89-.2,1.45-.33a6.25,6.25,0,0,0,1.52-.56,10.27,10.27,0,0,0,1.24-.85l1.24-.91c.43-.32.88-.68,1.4-1a6.52,6.52,0,0,1,2.91-1,35,35,0,0,1-5-.89c-1.26-.33-2.53-.71-3.85-1.09s-2.68-.76-3.55-1.06-1.25-.56-1.27-.66.3-.06.82,0a15.35,15.35,0,0,0,2,.24,16.38,16.38,0,0,0,2.43-.15,9.6,9.6,0,0,1,2.95,0A19.31,19.31,0,0,1,198,90.42c1,.4,1.95.68,1.83.39a28.43,28.43,0,0,0-2.53-2.24c-1.25-1.11-2.57-2.48-3.79-3.65s-2.33-2.12-3.12-2.85a6.63,6.63,0,0,1-1.33-1.42c-.05-.17.33,0,1.06.41s1.81,1.1,2.86,1.66a25,25,0,0,1,3.2,1.82c1.15.82,2.43,2,3,2.4s.34,0-.07-.77a31.68,31.68,0,0,0-1.74-2.68,28.32,28.32,0,0,0-2.38-2.89c-1-1-2.12-2.16-2.61-2.79s-.32-.75.09-.55a14.79,14.79,0,0,1,1.7,1.16c.65.47,1.28.89,1.94,1.34a15.34,15.34,0,0,1,2.31,1.87c.94.92,2.13,2.29,2.51,2.56s-.07-.54-.55-1.32-1-1.5-1.6-2.45-1.25-2.1-1.82-3.08-1.07-1.82-1.5-2.51a7.49,7.49,0,0,1-.84-1.56c-.06-.3.16-.35.45-.17a4.72,4.72,0,0,1,1,1.12c.41.55.92,1.27,1.39,1.86s.91,1.09,1.35,1.63.88,1.14,1.57,1.86,1.62,1.56,2.28,2.22,1,1.17,1.14,1.08a5.09,5.09,0,0,0-.41-1.72c-.29-1-.67-2.28-1.09-3.52s-.83-2.42-1.15-3.33a8.52,8.52,0,0,1-.56-2c0-.42.14-.61.36-.47a3.4,3.4,0,0,1,.74,1.14c.27.54.53,1.14.82,1.71s.61,1.1.95,1.66.72,1.16,1.06,1.76a20,20,0,0,1,.92,1.81,8.09,8.09,0,0,0,1,1.78,18.67,18.67,0,0,0,.49-5c0-1.41,0-2.35,0-3.27s.13-1.85.24-2.67.24-1.54.34-2,.2-.68.31-.61.23.42.27,1,0,1.51,0,2.42a17.78,17.78,0,0,0,.13,2.67,17.53,17.53,0,0,0,.47,2c.12.52.16.89.29,1.64a28.62,28.62,0,0,1,.46,4,36.6,36.6,0,0,0,1.16-4.24c.25-1.13.43-1.91.61-2.66s.39-1.49.55-2.16a17.42,17.42,0,0,1,.56-2.11c.29-.82.74-1.85,1.51-2.13-.43.26-.48,1-.54,1.54s-.11.94-.17,1.65-.12,1.74-.22,2.87a32,32,0,0,0-.22,3.56,24.81,24.81,0,0,1-.16,5.09A9.32,9.32,0,0,1,215,80.73c.62-.47,1.32-1.07,2.07-1.76s1.57-1.46,2.15-2.1a17.81,17.81,0,0,0,1.4-1.82c.48-.65,1.08-1.47,1.59-1.63a3.62,3.62,0,0,1-.73,1.6c-.31.49-.59,1.05-.92,1.69s-.7,1.36-1.19,2.19-1.09,1.77-1.66,2.57-1.13,1.45-1.59,2-.84,1.11-.6,1.32c.94-.74,1.59-1.14,2.17-1.56s1.1-.85,1.57-1.2a12.7,12.7,0,0,1,1.54-1c.64-.35,1.52-.8,2.31-1.2a9.72,9.72,0,0,1,2.14-.91c-.13.62-1,1.26-1.63,1.73a16.83,16.83,0,0,0-1.44,1.17c-.43.4-.93.9-1.79,1.74s-2.08,2-3.58,3.62c1.12-.2,2-.38,2.88-.56s1.6-.35,2.23-.54a11.72,11.72,0,0,0,1.64-.61,15.35,15.35,0,0,0,1.56-.87c.55-.35,1.15-.76,1.59-1.07a4,4,0,0,1-1,1.6l-.9.89a10.49,10.49,0,0,1-1.3,1.12,17,17,0,0,1-2.06,1.27,15.51,15.51,0,0,1-2.26,1c-.69.24-1.25.32-1.82.47a5.32,5.32,0,0,0-1.44.56c2.16,0,3.41,0,4.55,0s2.18,0,3.17,0,1.94,0,2.63,0a4.89,4.89,0,0,1,1.41.2,1.1,1.1,0,0,1,.59.38c.07.13,0,.26-.2.31s-.58,0-1.22,0a13.89,13.89,0,0,0-2.32.25,7.39,7.39,0,0,0-2,.75c-.58.31-1.09.66-1.62.89a9.7,9.7,0,0,1-3.12.41,4.13,4.13,0,0,1,3.4.84,10.37,10.37,0,0,0,1.5,1,16.72,16.72,0,0,0,2.67,1A3.57,3.57,0,0,1,223,97c-.75-.09-1.21-.21-1.65-.26a6.32,6.32,0,0,1-1.55-.2,33.15,33.15,0,0,1-3.22-1.35c3.22,1.35,3.9,2,4.44,2.46s.92.88,1.5,1.36a4.4,4.4,0,0,0,2.59,1.14,1.63,1.63,0,0,1-1.85.73,4.47,4.47,0,0,1-1.6-.49c-.48-.25-1-.57-1.66-.95s-1.55-.83-2.38-1.2a13.81,13.81,0,0,1,2.16,2.3A16.19,16.19,0,0,0,221,102a16.1,16.1,0,0,1,1.57,1.71c-2-.16-3.85-1.43-5.81-3,.44,1.09.72,2,1.1,2.87a5.15,5.15,0,0,1,.8,2.29,4.08,4.08,0,0,1-1.93-1.66c-.52-.71-1.15-1.62-2.48-3.26a8.58,8.58,0,0,1,1.6,3c.32.74.92,1.53.61,2.51a22.83,22.83,0,0,1-2.18-1.93,8.42,8.42,0,0,1-1.73-2.41c.33,1.43.64,2.12.77,2.86a5.48,5.48,0,0,1-.08,2c-.12.44-.27.52-.38.46s-.21-.25-.36-.58-.37-.77-.61-1.2a8.4,8.4,0,0,0-.83-1.2c-.32-.38-.68-.75-.91-1.08a3.58,3.58,0,0,1-.27,2.53,2.7,2.7,0,0,1-.65,1c-.15.12-.21.07-.31-.18s-.25-.72-.37-1.12a5.82,5.82,0,0,0-.48-1.17,13.07,13.07,0,0,1-1-2,7.85,7.85,0,0,1-1.56,3.36,3.66,3.66,0,0,1-1.15,1.14c-.3.13-.57,0-.57-.22a5.81,5.81,0,0,1,.38-1.1,7,7,0,0,0,.25-1.8,14.09,14.09,0,0,0-.06-1.76c-.65,1.15-1.06,2.22-1.42,2.87a1.92,1.92,0,0,1-1,1c-.32.13-.65.18-.71,0a3,3,0,0,1,.33-1.22,12.36,12.36,0,0,0,.45-1.39,2.27,2.27,0,0,0-.08-1.74,6.18,6.18,0,0,1-1.3,2.77,2.87,2.87,0,0,1-1,.8,1.21,1.21,0,0,1-.78.08,1.51,1.51,0,0,1-.79-.4.84.84,0,0,1-.2-.67.23.23,0,0,1,.27-.21,1.83,1.83,0,0,0,.53.13.88.88,0,0,0,.63-.43,2.42,2.42,0,0,0,.38-1.12,5.14,5.14,0,0,0-.08-1.18c0-.32,0-.54-.05-.83a2.74,2.74,0,0,1,.05-1.19,6.26,6.26,0,0,1,1.45-2.3A5.26,5.26,0,0,0,199,99.1c-.27.57-.38,1.08-.64,1.65a8.05,8.05,0,0,1-1,1.6c-.31.38-.52.51-.82.52a1.86,1.86,0,0,1-.94-.27.89.89,0,0,1-.4-.56c0-.17,0-.29.16-.26a3.44,3.44,0,0,0,.57.23.44.44,0,0,0,.42-.33,1.53,1.53,0,0,0,0-.71,7.08,7.08,0,0,1-.15-.83,2.28,2.28,0,0,1,.16-1.13,6.5,6.5,0,0,1,.94-1.47,31.78,31.78,0,0,1,2.42-2.6"/><path class="cls-1" d="M147.25,57.88a.94.94,0,0,0-.61.17.89.89,0,0,0-.33.79c.07.25.37.39.74.51a4.21,4.21,0,0,0,1.2.21,1.94,1.94,0,0,0,1.08-.29,3.73,3.73,0,0,0,.82-.8c.23-.27.42-.51.29-.59a.44.44,0,0,0-.22-.05,6.27,6.27,0,0,0,.89-.19,12,12,0,0,0,1.38-.46c.5-.19,1-.44,1.57-.68s1-.47,1.54-.74,1.07-.57,1.46-.82a3.29,3.29,0,0,0,.8-.68,4.14,4.14,0,0,0,.44-.7,3,3,0,0,0,.26-.64.53.53,0,0,0,0-.42c-.07-.1-.17-.15-.19-.21s.06-.11.08-.2a.6.6,0,0,0-.1-.46,4.21,4.21,0,0,0-.67-.88,6.78,6.78,0,0,0-1.06-.87,7.36,7.36,0,0,0-1-.57c-.3-.14-.57-.25-.83-.38s-.51-.3-.79-.45a10.48,10.48,0,0,0-1-.43c-.41-.15-.9-.33-1.35-.46s-.85-.22-1.27-.3l-.36-.07a3.29,3.29,0,0,0-2.79-1.51,4.14,4.14,0,0,0-2.08.46,2.8,2.8,0,0,0-1.48,2l.06,0-1.16.37c-.28.09-.58.18-.86.29a6.27,6.27,0,0,0-2.59-.66,2.6,2.6,0,0,0-1.51.29,2.21,2.21,0,0,0-1,1.29,5.06,5.06,0,0,0,0,2.48,2.28,2.28,0,0,1-.76.31,2.76,2.76,0,0,1-.84,0c-.35,0-.77-.11-1.21-.18a7.69,7.69,0,0,0-1.37-.14,3.86,3.86,0,0,0-1.42.24,3.21,3.21,0,0,0-1.1.75,1.7,1.7,0,0,0-.49,1,5.57,5.57,0,0,0,0,1.61,2.15,2.15,0,0,0,.52,1.1,3.42,3.42,0,0,0,1.05.84,2.87,2.87,0,0,0,1.24.27,3.87,3.87,0,0,0,1.19-.17c.41-.12.85-.33,1.36-.49a14.29,14.29,0,0,1,1.62-.43c.31-.07.64-.13,1-.18-1,.78-1,1.48-.78,2a1.94,1.94,0,0,0,1.1,1.11,3.93,3.93,0,0,0,1.71.26,4.27,4.27,0,0,0,1.6-.49c.65-.31,1.53-.76,2.19-1.1a10.07,10.07,0,0,0,1.59-.89l.71.15a10.7,10.7,0,0,0,1.57.11h.24"/><path class="cls-1" d="M141.85,122.4a14.8,14.8,0,0,1,1.15-6.11,4.73,4.73,0,0,1-2.79-2.47c-1.1-2.09-.38-6.56-2.74-10.15l-4.86-7.43a28.81,28.81,0,0,1,8.08,5.74c5,5.09,4.87,10.06,4.87,10.06s1.85-2,7.66-5.1c5.67-3,7.15-2.19,10.18-2.88,1.79-.41,5.47-4.27,5.47-4.27s-.79-6.35-1-10.08-.34-8.12.71-7.15,4.68,3.33,5.92,7.61,2,7.08,4.53,8,13.42,3.41,17.94,14.49a16,16,0,0,1,1.11,8.54,5.27,5.27,0,0,1,2,1.59c1.72,2.22,1.35,3.57,2.85,6,1.11,1.78,3.9,2.23,3.9,2.23a8.48,8.48,0,0,1-6,.32,20.33,20.33,0,0,1-5.21-3.65,21.73,21.73,0,0,1-6.82,6.91c-8.71,4-18.4-6-18.4-6a6.7,6.7,0,0,1-2,4.6c-2.33,2.6-7.38,4.66-7.38,4.66s.66-6.1,1.64-8.44a10,10,0,0,1,3.53-3.94s-.45-3-1.7-3.94a10,10,0,0,0-4.94-1.86c-1.52-.06-2.68,1-4.5.84s-4.2-3.56-5.48-3.67a5.14,5.14,0,0,0-2.74.9,28.13,28.13,0,0,1-1,9.29,10.1,10.1,0,0,1-5.28,5.78,51,51,0,0,0,2.44-4.61c.82-1.88-.89-3-1.18-5.84"/><path class="cls-1" d="M55.63,129.51c.61-.16,1.3,1.11,3.46,1.13a7.15,7.15,0,0,0,4.53-2,30,30,0,0,1,10.08-6.25c3.17-2.13,7.33-1.67,10.4.33,3,1.13,5.14,3.75,8,5.11,2.07.68,4.33,1.36,5.95,3.05a2.78,2.78,0,0,1,1.65.91c.39.5,1.15,1.29.22,3.11S97.4,136,97,137.63a5.27,5.27,0,0,1-.57,1.73,2.8,2.8,0,0,1-2.54.79c-2.76-.37-2.68,3.46-5,4a2.92,2.92,0,0,1-2.77-.54c-.11,0-.28-.08-.32.06.1.53.66.78,1.11.9.36.62-.5.85-.74,1.2,1.2,1.85,2.67,3.55,3.75,5.49a16.09,16.09,0,0,1,1.8,5.38c.38,2-.75,3.82-1.87,5.4-1.39,1.74-1.42,3.88-1.25,6,0,0,.32,1-.65.09s.32-6,1.7-8.71c.82-2,.39-4.5-.35-6.6-.79-2.67-3.18-4.38-4.41-6.7a1.92,1.92,0,0,1-1.28-.74c-.29-.38,0-1.45-.75-1.24-.23.85.36,1.61.73,2.28.08.37-.43.51-.6.68,1.69,3.36,3.39,7,3.42,11,.21,3-1.55,5.75-1.1,8.81.28.76.61,3,.22,2.67a2.9,2.9,0,0,1-.72-1.6c-1.31-3.22.31-7.36,0-11.09a11.54,11.54,0,0,0-.41-4.2,24.67,24.67,0,0,0-1.58-4,2.53,2.53,0,0,0-.74-1.15,21.49,21.49,0,0,0,.68,6,22.2,22.2,0,0,1,.36,2.73,59.34,59.34,0,0,1-.67,8.26c-.2.71-.56-.15-.5-.28a66.11,66.11,0,0,0-1-13.55,32.73,32.73,0,0,0-.39,8c.41,3,.91,5.89,0,8.64-.18.23-.36.92-.73.66a1.41,1.41,0,0,1,0-1.31,32,32,0,0,0-.43-6.86,53.11,53.11,0,0,1,0-6c.14-2,1.76-4.24.14-6.06-.45,0-.24.59-.54.76-.52,1.7-1.79,3.26-1.56,5.07.46,3.74,1.19,7.3.33,10.85-.29.9-.28,2-1.08,2.59a1,1,0,0,1-.31-.33c-.31-.82,0-1.32.41-2.42s0-9.34,0-9.54-.26-.61-.41.8.18,6.82.12,7.48-.27,1.55-.65,1.19A3.11,3.11,0,0,1,75.2,162c.08-.87.14-7.45.6-11.08-.14-2.38,1.43-4.36,1.07-6.75,0-.26.15-.67-.21-.81s-.51.36-.63.62c-.43.92.37,1.28.08,2.32a1,1,0,0,1-1,.56,32.67,32.67,0,0,0-.16,7c.51,3.43-1.8,7.7-1.58,9.69s1.15,4.58.26,6.63c-.29.55-1.35,1.27-1.43,1s1-2.12.87-3.09-1.83-8.23-2-11.55c.15-3.44,2.61-6.62,2.85-10,0-.06-.63-.55-.59-1.08s0-.45.54-1.05.54-1.25.4-1.19a7.71,7.71,0,0,0-1.33,2c-.14.35,0,.83-.17,1.1a.76.76,0,0,1-.51.38,1.36,1.36,0,0,1-.49.1l-.57,1.13a19.34,19.34,0,0,0-.81,8.13,6.09,6.09,0,0,1-.37,3.59,6.64,6.64,0,0,1-1.64,3.31c-.32.2-.64.91-1.08.5a2.37,2.37,0,0,1,.23-1.33c1.36-2.51,1.35-5.28,1.19-8.12.06-2.16,1-4.14,1.51-6.2.32-.83.21-1.55.5-2.63s1.14-1,1.13-1.88c-1.19-.54-1,1-1.58,1.51-.1.28,0,.5-.21.84a9.84,9.84,0,0,1-1,1.21c-1.61,3.54-3.14,7.13-2.26,11.17.71,2.39-1,6.18-1.07,6.45s-.2.47-.47.44a.53.53,0,0,1-.38-.5c0-.25,1.28-3.67.78-5.77a17,17,0,0,1,1.37-10.8,16.07,16.07,0,0,0-3.79,4.91c-1.63,3,.26,8.82.43,9.77a2.64,2.64,0,0,1-.31,2.26.39.39,0,0,1-.46-.11,9.86,9.86,0,0,1-.6-2.07c-.29-1.16-1.43-10.14,1.45-14.3,1.08-1.72,3.39-2.93,4.14-3.68s.71-1.18,1.23-1.73c.09-.38,0-.49-.38-.55s-.5,1-.68,1.57c-.1.29-.26.83-.69.77a2.12,2.12,0,0,1-1.44-.9c-.64-1.26.89-1.63,1.46-2.43a3.08,3.08,0,0,0-1.92-.09A6.6,6.6,0,0,1,61,139.58c-.77-.88-1.28-1.84-2-1.87-.18,0-4.86-.55-4.83-3.58,0-.57.56-.16.19-2.49a2.26,2.26,0,0,1,.12-1.26,1.54,1.54,0,0,1,1.16-.88"/><path class="cls-1" d="M156.28,171.25c-.76,1.65-3.69,2.26-5.09,4.12s-2.5,2.8-4.5,2.79c1.41,2.57,6.12,4.13,6.81,4.27a6.09,6.09,0,0,1,2.47,1.15,3.78,3.78,0,0,1,1,2.27c0,.82-.43.89-.74.72-1.2-2.08-3.09-1.1-5.57-.69s-3.91-2-6-2.62c-2.6,2.54-2.06,5.27-4.1,7.37s-3.71,2.06-4.53,1.81c-.39-.28-.84-.63-.43-1.12a8.64,8.64,0,0,0,3.13-6.47c0-1.21,1.18-3,1.38-3.62-3.46.57-8.11.74-9,2.86s-2,3.38-3.72,2.75c-.65-1,1-3.95,1.66-4.95a9.31,9.31,0,0,1,7.21-4.16l1.53-.17a28.75,28.75,0,0,1-1.64-4.71,7.3,7.3,0,0,0-4.58-4.28c-.24-.25.22-1,.43-1.28a3.07,3.07,0,0,1,2.36-.58c1.12.15,2,.49,3.79,1.89a29.47,29.47,0,0,1,5.44,5.77c1-.37,1.87-1.36,2.79-1.67s1.42-.78,3.1-1.4,5-1.22,6-2.39,1.56.7.8,2.36"/><path class="cls-1" d="M29.72,140.14c.24-.28.52-.28.92-.13a7.54,7.54,0,0,1,1.81,1.08,5.33,5.33,0,0,1,3.05-2.75A25.22,25.22,0,0,1,39.86,137a23.61,23.61,0,0,1,3.75-.5,5.2,5.2,0,0,1,2.43.41,17.25,17.25,0,0,1,3.63,2.1,12.42,12.42,0,0,1,4.24,4.87,15.44,15.44,0,0,1-5.08-.91,6.77,6.77,0,0,0-3.36.15,23.52,23.52,0,0,0-5.85,2.27c3.08,3.47,5.57,6.63,7.2,8.62s2.44,2.82,3.1,3.61,1.15,1.53.9,2.27c1.61,2.36,1.87,5.05,1.61,5.71a4.92,4.92,0,0,1,1,4.77c.83,1.4,1,2.73.36,3.64.33,2.07.26,2.76-.67,3.28.06,2.34-.08,3-1,3.24.72,2.17,1.26,3.79,1.76,5.16s.95,2.48,1.3,3.44a14.27,14.27,0,0,1,.67,2.25c.08.49,0,.67-.19.6s-.44-.38-1.22-1.5a69,69,0,0,1-4.19-7c-1,1.31-2.83.72-4.59-.48l-.72.32a20.69,20.69,0,0,1,1.22,5.78c0,1-.07,1.26-.33,1.53a4.69,4.69,0,0,1-1,.65c-.26.16-.36.24-.37.48a7.38,7.38,0,0,0,.1.87.6.6,0,0,1-.11.54,3.9,3.9,0,0,0-.51.41,4.5,4.5,0,0,0-.45.82c-.12.26-.22.43-.4.48s-.48,0-.67,0-.31.21-.51.5a3.85,3.85,0,0,1-.74.86.43.43,0,0,1-.58-.1c-.15-.14-.25-.33-.38-.38s-.29,0-.5.07a1.1,1.1,0,0,1-.7,0c-.21-.1-.38-.32-.69-.83a12.47,12.47,0,0,1-1-2.07,6.69,6.69,0,0,1-.37-2.26c0-.8,0-1.7.09-2.62s.11-1.87.12-2.94a23.08,23.08,0,0,1,.23-3.6,5.25,5.25,0,0,1-1.93-1.73,4.42,4.42,0,0,1-3.06-.6A7.72,7.72,0,0,1,30.77,178a2.28,2.28,0,0,1-.79-1.36c-1.33.24-1.75,0-2.18-.3a6.52,6.52,0,0,1-1.34-1.56,7,7,0,0,1-1.06-2.31,3,3,0,0,1-2.29-.87A4.45,4.45,0,0,1,22,170.09a7,7,0,0,1-.52-2.25,2.76,2.76,0,0,1-2.07-1.72,10,10,0,0,1-.77-2.12c-.23-.78-.51-1.76-.32-2a3.51,3.51,0,0,1-1-2.54,11.66,11.66,0,0,1,.42-2.88,4.06,4.06,0,0,1-.1-2.24,4.62,4.62,0,0,1,.44-1.14,8,8,0,0,1,.83-1.25l-.37-.64a2.91,2.91,0,0,1-1,1.1,1.35,1.35,0,0,1-1.23,1.06c-.27.78-.78,1.24-1.09,1.18a1.74,1.74,0,0,1-1.49,1.27c-.13.94-.66,1.36-1,1.29A4.49,4.49,0,0,1,10.56,160c-.42,1.38-.59,1.83-.76,2.24s-.33.78-.49,1.15-.33.75-.49,1a8.18,8.18,0,0,0-.42.78,3.15,3.15,0,0,0-.19.84,2.25,2.25,0,0,1-.09.63.94.94,0,0,1-.34.37.92.92,0,0,0-.25.18,2.79,2.79,0,0,0-.24.39.57.57,0,0,1-.22.26c-.1,0-.24.06-.36.12a.65.65,0,0,0-.29.39,4.36,4.36,0,0,1-.28.7.36.36,0,0,1-.5.15,2.45,2.45,0,0,1-.79-.81A6.18,6.18,0,0,1,4,166.68a9.58,9.58,0,0,1-.34-2.22c0-.68,0-1.22,0-1.85s-.09-1.36-.07-1.94a4.54,4.54,0,0,1,.25-1.38c.13-.37.28-.68.42-1.11s.27-1,.42-1.54A15.42,15.42,0,0,1,5.21,155a11.34,11.34,0,0,1,.7-1.45c.25-.45.51-.87.86-1.48s.8-1.39,1.3-2.19a14.54,14.54,0,0,1,1.6-2.19,8.47,8.47,0,0,1,1.74-1.33,18.1,18.1,0,0,1,2.06-1.19,5,5,0,0,1,2.1-.53,6.55,6.55,0,0,1,2,.43,14.17,14.17,0,0,1,1.93.81c.58.32,1.09.69,1.61.91a7.08,7.08,0,0,0,1.5-2.41,1.38,1.38,0,0,0-.11-1.27c-.21-.29-.56-.46-.61-.92-1.38-1.21-2.06-1.83-2.59-2.37s-.9-1-1.17-1.28a2.62,2.62,0,0,1-.51-.71,4.51,4.51,0,0,1-.15-.75,5.75,5.75,0,0,0-.21-.74c-.1-.29-.22-.66-.36-1a5.91,5.91,0,0,0-.39-.83,1.62,1.62,0,0,0-.23-.3c0-.06-.06-.11,0-.32a6.71,6.71,0,0,1,.33-.89,6.26,6.26,0,0,1,.47-.86,1.32,1.32,0,0,1,.69-.55,5.13,5.13,0,0,1,1.35-.18,6.51,6.51,0,0,1,1.26.05,4.52,4.52,0,0,1,1.1.32,6.88,6.88,0,0,1,.9.53,6,6,0,0,1,1,.76,12.42,12.42,0,0,1,1.8,2.29,1.37,1.37,0,0,1,.89.56c.11.18.14.31.23.42a4.19,4.19,0,0,0,.35.33.68.68,0,0,1,.22.31,1.92,1.92,0,0,0,.11.39,2.87,2.87,0,0,0,.33.4,1.62,1.62,0,0,1,.23.4,1.43,1.43,0,0,0,.11.33,3.72,3.72,0,0,0,.52.5,10.18,10.18,0,0,0,1.49,1.15"/><path class="cls-1" d="M165.21,53.61a11.14,11.14,0,0,0,2.34-1.12,1.46,1.46,0,0,0,.61-.71c.11-.28.19-.63.31-1s.29-.77.42-1.11A2.17,2.17,0,0,0,169,48.5c.43.32.6.43.83.41s.54-.19.74-.72a1.16,1.16,0,0,0,.52-.41,1.28,1.28,0,0,0,.21-.54,2.47,2.47,0,0,0,0-.66c.36,0,.46-.12.54-.2l.23-.23a1.61,1.61,0,0,1,.26-.21,3,3,0,0,1,.34-.17.82.82,0,0,0,.28-.21,2.3,2.3,0,0,0,.16-.35,1.71,1.71,0,0,1,.46-.47c0,.3.44.56.94.39a1.26,1.26,0,0,0,.14.66A.39.39,0,0,0,175,46a1.72,1.72,0,0,0,.41,0,1,1,0,0,1,.37,0,.72.72,0,0,1,.29.17,1.23,1.23,0,0,1,.18.26,1.1,1.1,0,0,0,.13.19.55.55,0,0,0,.2.11.52.52,0,0,0,.2,0l.23,0a1.63,1.63,0,0,1,.44,0,.6.6,0,0,1,.32.19c.08.09.14.2.21.28a.58.58,0,0,0,.22.18,1.72,1.72,0,0,0,.34.1.77.77,0,0,1,.31.12,1.12,1.12,0,0,1,.24.3,1.52,1.52,0,0,0,.29.35,1.29,1.29,0,0,0,.42.21l.45.16a1,1,0,0,1,.35.21,1.77,1.77,0,0,1,.27.31,2.42,2.42,0,0,0,.17.26,1.32,1.32,0,0,0,.24.23c.11.08.25.17.41.3a2,2,0,0,1,.47.5,2.73,2.73,0,0,1,.23.64c.07.21.16.41.25.65a6,6,0,0,1,.28.76,9.48,9.48,0,0,1,.21,1,8.1,8.1,0,0,1,.13,1.12,7.48,7.48,0,0,1-.08,1.16c0,.38-.11.76-.16,1.1a7.63,7.63,0,0,1-.21,1c-.1.31-.24.63-.35.9s-.22.49-.37.8l-.51,1.09c-.17.39-.33.76-.73,1.74a1.73,1.73,0,0,0,1.07-.26c.29-.16.53-.33.77-.46-.15.24,0,.56.06.83a2.74,2.74,0,0,1,.09.67,3.07,3.07,0,0,0,.07.6c.06.21.16.46.21.64a.77.77,0,0,1,0,.54c-.08.2-.24.47-.4.77a2.67,2.67,0,0,1,.18,1.16,4.91,4.91,0,0,1-.08.8,4.12,4.12,0,0,1-.2.68,5.16,5.16,0,0,1-.23.49,4.45,4.45,0,0,0-.25.53,1.79,1.79,0,0,1-.18.48,2.06,2.06,0,0,1-.51.45l-.77.53a10,10,0,0,1-1,.66,9,9,0,0,1-.15-1c0-.25,0-.46-.08-.66a1.54,1.54,0,0,0-.19-.5.88.88,0,0,0-.26-.27,1.14,1.14,0,0,0-.3-.17.62.62,0,0,0-.29,0,.23.23,0,0,0-.2.14.9.9,0,0,0-.07.4c0,.17,0,.37.08.62s.08.53.12.79l.12.77a7.84,7.84,0,0,0,.16.84,5.1,5.1,0,0,0,.28.72c.12.28.28.67.42,1s.24.5.37.75.28.55.44.84a6.77,6.77,0,0,0,.57.85c.23.3.53.65.79,1s.48.69.71,1a9.71,9.71,0,0,1,.64,1,7.17,7.17,0,0,1,.4.95c.13.35.31.74.44,1.12s.24.76.33,1.07.17.57.23.85a7.7,7.7,0,0,1,.1.84,4.63,4.63,0,0,1,0,.85,5,5,0,0,1-.26,1,11.2,11.2,0,0,1-.43,1,2.38,2.38,0,0,1-.56.83,6.53,6.53,0,0,1-1,.68,9.1,9.1,0,0,1-.92.54,3.2,3.2,0,0,1-.9.25,3.37,3.37,0,0,1-.89,0,2.88,2.88,0,0,1-.85-.28,5,5,0,0,1-.88-.54,3.77,3.77,0,0,1-.61-.63,3.4,3.4,0,0,1-.45-.74,3.68,3.68,0,0,1-.28-1,2.83,2.83,0,0,1,.06-1,3.2,3.2,0,0,1,.33-.8,3,3,0,0,1,.49-.65,2.27,2.27,0,0,1,.64-.44,1.9,1.9,0,0,1,.8-.19,2.53,2.53,0,0,1,.86.18,1.57,1.57,0,0,1,.59.39,2.88,2.88,0,0,1,.43.62,2,2,0,0,1,.2.55,1.71,1.71,0,0,1,0,.54,1.91,1.91,0,0,1-.18.5,1.58,1.58,0,0,1-.27.39,1.69,1.69,0,0,1-.42.35.62.62,0,0,1-.4.08.93.93,0,0,1-.41-.15,1.91,1.91,0,0,1-.57-.7c0-.17.19-.06.31,0a1.32,1.32,0,0,0,.33.19.63.63,0,0,0,.34,0,.36.36,0,0,0,.26-.24,1,1,0,0,0,0-.54,1,1,0,0,0-.31-.51,1,1,0,0,0-.54-.25.64.64,0,0,0-.47.16.74.74,0,0,0-.21.43,1.25,1.25,0,0,0,.06.52,2.28,2.28,0,0,0,.25.52,1.76,1.76,0,0,0,.34.43,1.54,1.54,0,0,0,.52.31A1.67,1.67,0,0,0,180,87a1.7,1.7,0,0,0,.72-.27,1.93,1.93,0,0,0,.56-.55,2.62,2.62,0,0,0,.33-.77,3.52,3.52,0,0,0,.12-.79,3.13,3.13,0,0,0-.08-.79,7.56,7.56,0,0,0-.31-1,8.39,8.39,0,0,0-.45-1c-.18-.32-.39-.66-.6-1s-.47-.66-.71-1l-.74-1L178,77.86c-.35-.44-.78-1-1.25-1.58s-1-1.32-1.48-2-1.05-1.33-1.51-1.9-.82-1.06-1.14-1.55a14,14,0,0,1-.81-1.41c-.21-.43-.37-.79-.54-1.09s-.34-.54-.48-.83a3.26,3.26,0,0,1-.27-.93c0-.31,0-.6-.11-.94s-.22-.74-.31-1.16a4.74,4.74,0,0,1-.09-1.33,11.59,11.59,0,0,1,.23-1.47,7.27,7.27,0,0,1,.32-1.17,5.38,5.38,0,0,1,.49-.93,8.66,8.66,0,0,1,.7-1,12,12,0,0,1,.91-.89l.9-.81c.26-.23.47-.43.72-.61a7.67,7.67,0,0,1,.78-.49,7.7,7.7,0,0,0,.7-.4,3.36,3.36,0,0,0,.57-.51,5.45,5.45,0,0,0,.55-.67,2.48,2.48,0,0,0,.34-.68,1.05,1.05,0,0,0,0-.6,1.2,1.2,0,0,0-.27-.49.74.74,0,0,0-.42-.26,1.15,1.15,0,0,0-.6.16c-.29.13-.71.34-1.05.48a2.81,2.81,0,0,1-.92.2,9.45,9.45,0,0,1-1,0c-.33,0-.63,0-.91,0a5.18,5.18,0,0,0-.8.08,4,4,0,0,0-.79.2c-.22.09-.41.19-.64.29l-.85.33-1,.42c-.33.14-.64.26-.9.38a5.35,5.35,0,0,0-.63.37,2.93,2.93,0,0,1-.41.27.66.66,0,0,1-.42,0,.77.77,0,0,1-.41-.25,2,2,0,0,1-.28-.42c-.06-.12-.09-.2-.17-.33s-.21-.33-.28-.47-.1-.2-.08-.26.08-.1.2-.13a1,1,0,0,1,.62.07"/></g></g></svg>