<svg id="4aa6e49f-291c-413f-8913-47b101fb17a1" data-name="Layer 1" xmlns="http://www.w3.org/2000/svg" viewBox="0 0 512 532.17"><defs><style>.\38 45ea9a5-baae-421f-9082-27f050aafa7d{fill:#00405c;}.\35 fe33fdb-b73a-4dee-86cb-38613d47ce48,.\38 620e935-fe53-4d8d-9417-f60b0b60bfc2,.bc10e0cc-f249-4558-94c0-5de856969ac1{fill:#fff;}.\38 620e935-fe53-4d8d-9417-f60b0b60bfc2,.bc10e0cc-f249-4558-94c0-5de856969ac1{font-size:149.69px;font-family:Roboto-Bold, Roboto;font-weight:700;}.\38 620e935-fe53-4d8d-9417-f60b0b60bfc2{letter-spacing:0.07em;}</style></defs><title>icon</title><rect class="845ea9a5-baae-421f-9082-27f050aafa7d" width="512" height="512"/><path class="5fe33fdb-b73a-4dee-86cb-38613d47ce48" d="M269.93,101.21l15.34-.86c26.91-1.38,27.44-21.73,27.44-21.91V31.86l-2.25-.34c0,.18-4.14,20.88-23.46,21.91l-17.59.86c-14.84.69-22.43,10-26,18.63a53.81,53.81,0,0,0-3.8,17.25v32.77q-.58-2.1-1.38-4.14c-3.63-8.62-11.22-17.76-26.05-18.45l-17.6-.87C183,99,175.57,91,172.12,80.85a21.55,21.55,0,0,1-.86-3.27l-2.25.18v46.5a11.09,11.09,0,0,0,.52,3.29c3,12.76,14.31,18.1,26.91,18.79l15.35.87c22.6,1.2,27.6,26.22,27.94,30.53v37H242c0-2.58,4.5-29.49,28-30.87l15.34-.87c26.91-1.38,27.44-21.9,27.44-22.08V114.32l-2.25-.17s-4.14,20.7-23.46,21.74l-17.6.85c-14.83.69-22.24,9.84-26,18.63a37.44,37.44,0,0,0-1.38,4V131.91c-.34-1.89,6.21-30.7,28-30.7"/><text class="bc10e0cc-f249-4558-94c0-5de856969ac1" transform="translate(16.4 357.2)">CORAL</text><text class="8620e935-fe53-4d8d-9417-f60b0b60bfc2" transform="translate(19.4 491.6)">REEFS</text></svg>