<svg xmlns="http://www.w3.org/2000/svg" xmlns:xlink="http://www.w3.org/1999/xlink" width="698" height="198" viewBox="0 0 698 198"><defs><path id="a" d="M49.386.667v34.181H.966V.668h48.42z"/></defs><g fill="none" fill-rule="evenodd"><path fill="#272C6C" d="M2.946 185.973c0-.97.155-2.51-.976-2.913v-.062h4.218v.062c-1.111.403-.975 1.965-.975 2.913v7.953c0 .952-.136 2.491.975 2.891v.065H1.97v-.065c1.11-.378.976-1.939.976-2.891v-7.953zm19.254 8.168c0 1.181-.021 2.022 1.156 2.676v.065h-3.931v-.065c1.176-.654 1.176-1.495 1.176-2.676v-8.42c0-1.183 0-2.024-1.154-2.661v-.062h3.243v.023c.09.254.177.357.332.527l.312.422 8.126 9.746v-7.995c0-1.183.024-2.024-1.154-2.661v-.062h3.91v.062c-1.156.637-1.156 1.478-1.156 2.661v11.837c-1.576-.508-2.264-1.205-3.241-2.404l-7.62-9.181v8.168zm30.358 0c0 1.2-.02 2.022 1.156 2.676v.065h-4.397v-.065c1.11-.4.977-1.939.977-2.891v-9.406H48.34c-.956 0-1.954.231-2.643.843h-.068l.78-2.514h.064c.267.11.555.11.847.149h8.838c.375 0 .732-.02 1.02-.149h.067l-.712 2.514h-.066c-.288-.741-1.176-.843-1.909-.843h-2v9.621zm20.077.969l2.822.254c1.463.124 2.997-.317 4.108-1.245h.066l-.999 2.763h-9.26v-.065c1.132-.378.998-1.938.998-2.891v-7.953c0-.97.134-2.51-.999-2.913v-.061h7.11c.374 0 .753.043 1.041-.105h.067v2.469h-.067c-.69-.76-1.6-.843-2.62-.843-.78 0-1.556.019-2.267.146v3.924h2.644c.354 0 .71 0 .976-.126h.068v2.239h-.068c-.355-.615-1.288-.592-1.975-.592h-1.645v4.999zm25.273-12.112c2.977 0 4.598 1.48 4.598 3.396 0 1.856-1.71 3.316-3.53 3.716l3.196 3.816c.933 1.098 2.334 2.197 3.598 2.956h-2.043c-1.176 0-1.91-.276-2.576-1.055l-2.71-3.187-2.041-2.975c1.776-.252 3.84-1.032 3.84-3.017 0-1.518-1.377-2.405-2.864-2.342-.51.021-.998.084-1.51.171v9.45c0 .972-.132 2.511 1 2.89v.065h-4.243v-.066c1.133-.378.978-1.938.978-2.89v-7.953c0-.97.155-2.51-.978-2.913v-.062h5.285zm21.121 11.143c0 1.181-.021 2.022 1.156 2.676v.065h-3.931v-.065c1.176-.654 1.176-1.495 1.176-2.676v-8.42c0-1.183 0-2.024-1.153-2.661v-.062h3.24v.023c.09.254.176.357.334.527l.313.422 8.127 9.746v-7.995c0-1.183.022-2.024-1.157-2.661v-.062h3.91v.062c-1.155.637-1.155 1.478-1.155 2.661v11.837c-1.576-.508-2.264-1.205-3.241-2.404l-7.62-9.181v8.168zm34.757-2.471l1.199 2.976c.599 1.477.777 1.707-.313 2.17v.066h4.555v-.066c-1.266-.61-1.665-1.792-2.176-2.993l-4.62-10.825h-3.51v.062c1.067.318.645 1.206.334 1.964l-3.708 8.8c-.49 1.2-.868 2.382-2.156 2.992v.066h4.086v-.066c-1.064-.377-.91-.989-.442-2.17l1.153-2.977h5.598zm-.644-1.56h-4.376l2.198-5.318 2.178 5.318zm22.744 4.031c0 1.2-.024 2.022 1.152 2.676v.065h-4.394v-.065c1.11-.4.976-1.939.976-2.891v-9.406h-1.954c-.955 0-1.955.231-2.644.843h-.066l.777-2.514h.068c.267.11.554.11.842.149h8.838c.381 0 .733-.02 1.021-.149h.07l-.71 2.514h-.07c-.287-.741-1.177-.843-1.909-.843h-1.997v9.621zm17.677-8.168c0-.97.153-2.51-.978-2.913v-.062h4.221v.062c-1.109.403-.977 1.965-.977 2.913v7.953c0 .952-.132 2.491.977 2.891v.065h-4.221v-.065c1.111-.378.978-1.939.978-2.891v-7.953zm24.584-3.331c-4.663-.107-8.328 3.247-8.328 7.257 0 4.325 3.708 7.321 8.107 7.321 4.419 0 8.17-3.124 8.17-7.428 0-3.796-3.283-7.172-7.95-7.15m-.153 1.518c3.507 0 5.575 2.976 5.575 6.054 0 3.145-2.157 5.485-5.531 5.485-3.487 0-5.683-3.037-5.683-5.989 0-3.187 2.196-5.55 5.639-5.55m23.917 9.981c0 1.181-.02 2.022 1.155 2.676v.065h-3.93v-.065c1.177-.654 1.177-1.495 1.177-2.676v-8.42c0-1.183 0-2.024-1.155-2.661v-.062h3.24v.023c.09.254.18.357.336.527l.31.422 8.129 9.746v-7.995c0-1.183.022-2.024-1.155-2.661v-.062h3.91v.062c-1.156.637-1.156 1.478-1.156 2.661v11.837c-1.577-.508-2.265-1.205-3.243-2.404l-7.617-9.181v8.168zm34.756-2.471l1.199 2.976c.601 1.477.779 1.707-.31 2.17v.066h4.553v-.066c-1.264-.61-1.666-1.792-2.175-2.993l-4.62-10.825h-3.51v.062c1.067.318.644 1.206.332 1.964l-3.709 8.8c-.486 1.2-.863 2.382-2.154 2.992v.066h4.087v-.066c-1.065-.377-.911-.989-.445-2.17l1.156-2.977h5.596zm-.644-1.56h-4.375l2.2-5.318 2.175 5.318zm25.141 5.254c1.509.084 2.819-.402 3.93-1.288h.066l-1.152 2.807h-9.13v-.066c1.133-.378 1-1.938 1-2.89v-7.954c0-.97.133-2.51-1-2.913v-.061h4.242v.06c-1.132.405-.977 1.966-.977 2.914v9.199l3.02.192zm41.417-1.223c0 1.265 0 1.896 1.135 2.676v.065h-4.331v-.065c1.089-.527.933-1.896.933-2.891v-3.12l-3.688-5.637c-.6-.925-1.043-1.621-2.111-2.171h2.024c.71 0 1.376.148 1.664.592l3.554 5.507 2.753-3.928c.378-.525.889-1.537-.356-2.109v-.062h3.887l-5.464 7.808v3.335zm20.61.969l2.822.254c1.464.124 2.996-.317 4.107-1.245h.068l-1 2.763h-9.26v-.065c1.132-.378.998-1.938.998-2.891v-7.953c0-.97.134-2.51-.998-2.913v-.061h7.108c.376 0 .755.043 1.043-.105h.067v2.469h-.067c-.69-.76-1.601-.843-2.621-.843-.78 0-1.554.019-2.266.146v3.924h2.644c.355 0 .708 0 .973-.126h.069v2.239h-.07c-.351-.615-1.285-.592-1.973-.592h-1.643v4.999zm29.627-3.44l1.199 2.976c.6 1.477.779 1.707-.311 2.17v.066h4.552v-.066c-1.265-.61-1.663-1.792-2.175-2.993l-4.62-10.825h-3.507v.062c1.062.318.642 1.206.333 1.964l-3.71 8.8c-.49 1.2-.865 2.382-2.156 2.992v.066h4.087v-.066c-1.065-.377-.91-.989-.443-2.17l1.154-2.977h5.597zm-.645-1.56h-4.376l2.2-5.318 2.176 5.318zm24.051-7.112c2.976 0 4.6 1.48 4.6 3.396 0 1.856-1.71 3.316-3.53 3.716l3.194 3.816c.931 1.098 2.334 2.197 3.6 2.956h-2.044c-1.177 0-1.91-.276-2.576-1.055l-2.71-3.187-2.042-2.975c1.776-.252 3.841-1.032 3.841-3.017 0-1.518-1.378-2.405-2.864-2.342-.512.021-1.002.084-1.509.171v9.45c0 .972-.139 2.511.997 2.89v.065h-4.242v-.066c1.133-.378.976-1.938.976-2.89v-7.953c0-.97.157-2.51-.976-2.913v-.062h5.285zm44.44-.356c-4.662-.107-8.327 3.247-8.327 7.257 0 4.325 3.708 7.321 8.107 7.321 4.419 0 8.17-3.124 8.17-7.428 0-3.796-3.284-7.172-7.95-7.15m-.154 1.518c3.508 0 5.574 2.976 5.574 6.054 0 3.145-2.156 5.485-5.53 5.485-3.487 0-5.684-3.037-5.684-5.989 0-3.187 2.197-5.55 5.64-5.55m24.451 9.766c0 .952-.178 2.491.933 2.891v.065h-4.2v-.065c1.134-.378 1.001-1.939 1.001-2.89v-7.954c0-.97.133-2.51-1.002-2.913v-.062h7.11c.377 0 .754.043 1.042-.104h.067v2.447h-.067c-.687-.737-1.598-.82-2.619-.82-.778 0-1.556.017-2.266.144v3.925h2.667c.331 0 .687 0 .953-.127h.068v2.24h-.068c-.354-.637-1.288-.592-1.976-.592h-1.644v3.815zm41.152.215c0 1.2-.022 2.022 1.154 2.676v.065h-4.397v-.065c1.11-.4.977-1.939.977-2.891v-9.406h-1.954c-.955 0-1.953.231-2.643.843h-.065l.778-2.514h.066c.266.11.556.11.845.149h8.837c.377 0 .733-.02 1.02-.149h.069l-.712 2.514h-.066c-.29-.741-1.177-.843-1.91-.843h-2v9.621zm19.854-4.031v3.816c0 .953-.134 2.492.977 2.89v.066h-4.218v-.065c1.11-.4.974-1.938.974-2.891v-7.973c0-.95.157-2.49-.974-2.893v-.061h4.218v.06c-1.11.405-.977 1.945-.977 2.914v2.617h8.02v-2.617c0-.97.152-2.51-.979-2.913v-.061h4.241v.06c-1.13.405-1 1.945-1 2.894v7.973c0 .953-.13 2.492 1 2.89v.066h-4.24v-.065c1.13-.4.977-1.938.977-2.891v-3.815h-8.019zm27.983 5l2.822.254c1.462.124 2.996-.317 4.108-1.245h.067l-1 2.763h-9.262v-.065c1.133-.378 1-1.938 1-2.891v-7.953c0-.97.133-2.51-1-2.913v-.061h7.107c.378 0 .758.043 1.045-.105h.067v2.469h-.067c-.69-.76-1.6-.843-2.621-.843-.78 0-1.554.019-2.266.146v3.924h2.644c.354 0 .709 0 .976-.126h.067v2.239h-.067c-.355-.615-1.29-.592-1.976-.592h-1.644v4.999zm43.263-12.112c2.974 0 4.597 1.48 4.597 3.396 0 1.856-1.712 3.316-3.535 3.716l3.202 3.816c.933 1.098 2.33 2.197 3.595 2.956h-2.042c-1.175 0-1.91-.276-2.576-1.055l-2.709-3.187-2.045-2.975c1.777-.252 3.845-1.032 3.845-3.017 0-1.518-1.379-2.405-2.867-2.342a11.73 11.73 0 0 0-1.51.171v9.45c0 .972-.134 2.511.998 2.89v.065h-4.24v-.066c1.134-.378.977-1.938.977-2.89v-7.953c0-.97.157-2.51-.978-2.913v-.062h5.288zm21.808 12.112l2.823.254c1.462.124 2.995-.317 4.107-1.245h.065l-.999 2.763h-9.262v-.065c1.132-.378 1.001-1.938 1.001-2.891v-7.953c0-.97.131-2.51-1.001-2.913v-.061h7.108c.377 0 .756.043 1.043-.105h.068v2.469h-.068c-.69-.76-1.599-.843-2.62-.843-.779 0-1.554.019-2.265.146v3.924h2.642c.356 0 .71 0 .977-.126h.066v2.239h-.066c-.356-.615-1.289-.592-1.976-.592h-1.643v4.999zm23.317 0l2.82.254c1.465.124 2.998-.317 4.11-1.245h.068l-1 2.763h-9.26v-.065c1.132-.378.998-1.938.998-2.891v-7.953c0-.97.134-2.51-.999-2.913v-.061h7.106c.377 0 .757.043 1.046-.105h.065v2.469h-.065c-.69-.76-1.603-.843-2.624-.843-.776 0-1.55.019-2.265.146v3.924h2.645c.354 0 .71 0 .977-.126h.066v2.239h-.066c-.355-.615-1.289-.592-1.979-.592h-1.643v4.999zm23.167-1.184c0 .952-.18 2.491.933 2.891v.065h-4.2v-.065c1.132-.378.998-1.939.998-2.89v-7.954c0-.97.134-2.51-.998-2.913v-.062h7.11c.376 0 .754.043 1.041-.104h.068v2.447h-.068c-.686-.737-1.598-.82-2.62-.82-.779 0-1.554.017-2.264.144v3.925h2.662c.335 0 .69 0 .956-.127h.07v2.24h-.07c-.356-.637-1.289-.592-1.979-.592h-1.639v3.815zm-566.321-67.844c0 12.227-1.648 25.395 9.874 32.688v.7H65.81v-.7c11.518-7.293 9.87-20.46 9.87-32.688v-87.7c0-12.22 1.648-25.632-9.87-32.913v-.707h63.248v.707c-11.522 7.281-9.874 20.692-9.874 32.913v87.7zm105.092-.941c0 13.64.237 23.981 10.352 33.63v.699h-63.728v-.699c11.524-7.294 9.885-20.932 9.885-33.158V89.405l-35.041-65.838c-3.996-7.519-7.755-13.867-14.806-18.098v-.707h54.547v.707l27.273 55.48 13.164-26.795c2.116-4.233 5.41-11.292 5.41-16.231 0-6.346-2.35-9.633-7.286-12.454v-.707h42.319v.707l-42.09 83.936v35.736z"/><path fill="#272C6C" d="M248.708 81.647c0 49.61 37.381 80.882 85.59 80.882 47.728 0 88.399-29.864 88.399-81.113C422.697 29.682 386.485 1 337.117 1c-47.732 0-88.409 30.564-88.409 80.646M476.463 93.17l27.274 51.255c8.231 14.572 15.753 16.686 31.508 15.754l32.447-2.11c-9.406-7.763-16.225-17.64-22.573-28.225l-27.982-46.789c15.52-6.578 27.982-19.517 27.982-37.143 0-15.757-7.047-28.214-20.924-35.742-10.58-5.639-19.982-5.408-31.505-5.408h-69.592v.707c11.508 7.282 9.867 20.692 9.867 32.913v87.463c0 12.228 1.641 25.632-9.867 32.926v.7h63.242v-.7c-11.523-7.294-9.877-20.698-9.877-32.926V93.17zm2.352-65.604c4.7 0 9.643.471 13.632 3.294 6.352 4.463 9.412 12.456 9.412 19.984 0 14.81-10.818 27.271-25.396 29.857V27.566h2.352z"/><path fill="#4FB9D4" d="M352.973 103.98l-.834-.554c-.725-.894-1.602-.856-2.312-.465-.532.356-.532 1.332-.257 2.196.551 1.048 1.118 2.075 1.691 3.127 0 0 .372 1.433-.093 2.17-.592 1.853-1.737 4.089-2.143 3.377-.598-.742-.419-1.712-.167-2.45.348-.912.691-2.04-.05-2.682-1.106-.797-1.652.945-2.312 1.353-.416.266-.792-.32-1.117-.688-.227-.224-1.15-.247-1.52-.064-.46.325-.508.832-.508.832-.74 2.129 2.71 2.959 1.19 5.659-.47 2.183 1.43 3.55.838 5.607l-.595 1.688c-.325.46-1.017.463-1.017.463-.644-.192-1.387-.378-1.828.003-.663.394-.626 1.109-.477 1.9l.696 1.392s.272.667-.008 1.222c-.31.728-.594 1.468-.96 2.175-.973 1.2-1.912.574-2.42.298-2.094-1.002-3.02-2.508-5.137-3.832-1.057-.695-1.496-1.652-1.758-2.693-.219-1.56-1.527-2.544-1.34-4.58-.04-.184.045-.511.302-.842.884-1.337 2.653-2.155 2.513-3.917-.087-.931-.365-1.393-1.688-1.27-.99-.173-2.12 1.258-2.786.292-.517-.88-1.212-1.866-.563-2.8 0 0 .695-.624 1.388-.765 0 0 .79-.231 1.25-.092 1.063.516 2.126 2.06 3.562 1.666 1.091-.413.461-1.433.37-2.22 0 0 .232-.741.877-.88 2.408-.717 5.146-1.844 7.081-.093 0 0 .371.143.694.093.647 0 .891-.421.971-.603.187-1.061-.083-1.086-.417-1.894-.096-.65.642-.871.974-1.111.738-.62 2.228-.941 1.851-2.267-.418-1.804-3.004.022-4.629.23-2.127.973-1.43-1.403-2.729-1.666-1.6-.215-1.6 1.8-2.636 2.685-.719.475-3.193 1.248-2.726-.088.537-1.235.996-2.31 2.217-3.336 1.287-.871 2.918-.154 4.341-.403 1.152-.173 1.136-.74 1.136-.74.594-1.623-1.175-1.866-2.425-2.651-.325-.463-.092-1.387-.092-1.387 1.337-1.942 2.036-2.776 4.072-4.395.358-.283.841-.442 1.666-.554.81 0 1.48.23 2.214.684l.84.38.495.059c.345-.08.654-.247.912-.53.59-1.23-.707-2.06-1.506-2.945-.418-.5.02-1.19.02-1.19l.402-.576c.6-.973 1.38-2.157-.047-2.686-.6-.14-1.012.17-1.525.279-1.482.973-2.496 2.096-3.796 2.87-1.666.278-1.2-1.386-1.2-1.386.94-1.74 1.192-3.05 2.496-4.634 1.063-1.061 3.573.239 5.043 0 0 0 .74-.138.878-.692 0 0 .282-.463-.09-.973 0 0-.049-.6.508-.6l.464-.045c.693.046 1.248-.187 1.895.323l.417.51c.048.57.326.877.463 1.57.295.666.924 1.005 1.598.673 1.27-.443.97-1.766 1.408-2.664.254-1.55 2.124-.532 3.01-1.106.474-.39.924-.788.433-1.922 0 0-.144-.596.31-.75.935-.402 1.866-.821 2.855-1.145 0 0 .603-.142 1.14.242.495.398 1.043.705 1.486.76 1.022.446 2.24.733 2.934-.333.454-.586.097-1.655-.2-2.444 0 0-.31-.84.316-1.143.775-.678 1.763-1.048 2.658-1.55 0 0 .536-.176.961-.065.51.165 1.053.249 1.585.36.694.077 1.213-.195 1.403-.842.071-.513-.065-.925-.42-1.252-.489-1.172.638-1.578 1.404-1.964.808-.448 1.114-.47 1.678-.702 1.243-.68 2.05.535 2.923 1.122.754.729 2.041.583 2.175-.45.185-.881-.213-1.514-.626-2.073-1.179-1.768.638-2.775 1.553-3.063 0 0 .97-.232 1.48-.094l.611.218c1.113.11 2.136.443 3.08-.288.351-.9-.345-1.442-.85-1.972 0 0-.437-1.133.557-1.143 1.557-.628 3.482-.072 5.054-.095 1.031-.005 1.828-.512 1.773-1.577-.14-.788-.629-.964-1.219-1.221-2.343-.074-.91-2.343-1.65-3.036-.88-.648-1.666.186-2.358 1.433-.418.509-.604.557-1.249.463-.406.03-.51-.463-.695-.832-.237-1.253-.496-2.38.323-3.376.603-.973 1.388-1.575 1.984-2.634.376-.836.306-1.614-.275-2.18-.554-.416-.795-.044-1.476.094-.788.506-1.343 1.85-1.993 1.389-.693-.05-.564-1.967-1.006-2.518-.45-.675-1.046-.79-1.816-.552-1.578 1.308-.618 3.904-.282 5.589.38 1.735 1.74 4.143-.04 5.62-.14.249-.513.506-.827.667-.656.215-1.024-.341-1.024-.341-.566-.886-.927-2.068-2.268-1.713-1.074.362-1.414 2.1-.874 3.469.565 2.06-1.082 2.616-2.318 3.564-.417.279-1.11-.093-1.11-.093-.257-.345-.369-.415-.928-1.11-.506-.601-1.209-.575-1.568-.368-.7.269-.652 1.063-.66 1.648.38 3.812-4.34 4.876-6.298 6.84-1.789 1.505-3.309 1.817-4.935 2.756-.588.204-.984.452-1.575.644-.647.232-.926-.602-.926-.602.03-.73.144-1.502.232-2.264.086-.511.521-1.235.521-1.235.587-.664 1.348-1.346 2.065-1.801.868-.57 1.745-1.977 2.807-1.258 1.04.407 2.058.5 2.475-.242.83-1.27-1.575-2.452-.465-3.84 1.994-2.154 3.657-3.793 5.784-5.784 1.434-1.201 3.008-.738 4.303-1.48 1.25-.647.878-2.222-.637-2.374-2.402.18-.83-3.007-1.766-4.055-.47-.775-1.066-.881-1.72-.567-2.445.99-.74 3.882-2.513 5.27-.482.403-1.23.156-1.23.156-.66-.205-1.57-.97-2.22-.604-1.48.509.37 2.407-.323 3.748l-.51.555c-.324.322-.832.232-.832.232l-.626-.08c-.228-.14-.624-.013-.624-.013-.33.152-.559.463-.369 1.02.318 1.59-.61 2.03-1.619 2.958-1.205.649-1.249-.508-1.85-1.11-.489-.551-1.33-.75-1.992-.555-.704.144-.995.702-1.11 1.433.048.88.236 1.77.463 2.686.635 1.522-1.166 2.999-2.262 3.718-.642.39-1.435.07-1.435.07-.583-.468-.768-1.14-1.577-1.845-.749-.555-1.933-.416-2.315.14-.2.46-.66.89-.437 1.535-.027 2.182 1.848 4.114.563 6.293-.59.609-.865 1.1-2.092 1.693-.849.415-1.67.866-2.545 1.209-1.18.282-1.456-.736-1.456-.736-.189-.53-.137-.78-.256-1.345-.21-.507.091-1.356.091-1.356.585-.915 1.327-1.821.951-2.97-.316-.481-.648-.715-1.27-.685-.983-.086-1.838 1.358-2.654.42-.45-1.36-1.214-2.993-.703-3.782.37-.51.927-1.25 1.342-1.525l.878-1.02c.153-.1.51-.463.72-.678 2.333-2.191 3.895 1.202 5.621-.757.37-1.203-.233-1.805-.649-2.775 0 0 0-.927.368-1.295.65-.655.867-.961 1.574-1.481 0 0 .741-.511 1.39-.462 1.201.368 2.188 1.034 3.283 1.167 0 0 .834.31 1.434-.66l.233-.556c.273-1.608-1.5-2.378-2.499-3.561-.323-.51-.044-1.388-.044-1.388.818-1.51 2.636-3.702 3.56-3.205.884.548 2.256.866 2.407-.173.123-.407-.186-1.527-.277-2.081-.138-.601.555-1.156.555-1.156 1.204-.556.87-.47 2.266-1.017.545-.216.592-.228 1.387-.51 1.946-.927 2.391.646 3.378 1.016.972.417 1.317.108 1.76-.045.968-.838-.347-2.136-.602-3.1-.474-.71-.137-1.664-.137-1.664.163-1 1.09-2.306 0-3.102-2.224-.833-2.59 1.734-3.799 2.59-.878.556-2.774.54-4.308.853-.654.157-1.242-.758-1.242-.758-.507-1.065-.6-1.896-1.115-3.158-.392-.966-1.159-1.003-2.097-.704-1.404.888-.918 2.717-.839 4.055.151 1.633-.34 3.757-1.87 4.85-.74.788-1.526.138-1.526.138-.797-.693-1.066-.971-1.716-1.988-.346-.668-.693-1.665-.875-2.408-.532-1.402-.483-3-1.423-4.234-.615-.716-1.136-.762-1.678-.484-.786.324-.739.744-.74 1.757.171.676.138 1.573.32 2.224-.142.605-.83.786-.83.786-.929-.008-2.193.328-2.389.905-.219.333-.16.893 0 1.258.353.796 1.232.98 2.518 1.116 1.791.038 2.408 2.06 2.933 3.356.535 1.869-.004 3.522-1.304 4.929-.924.695-1.665 0-1.665 0-1.14-1.013-1.667-1.898-2.906-2.97-.657-.685-2.002-.953-2.646.24-.55 1.637 1.186 3.75 2.068 5.535 0 0 .266 1.332-.347 1.926a20.99 20.99 0 0 1-2.858 3.91c-.638.43-.996.937-1.87.844-.649-.33-1.067-1.047-1.203-1.712-.695-1.944-1.386-4.7-.697-6.832.418-.987.985-2.132.848-3.21-.012-.692-.468-1.272-1.123-1.201-.833-.046-1.316.659-1.713 1.203-.508.369-1.158 0-1.158 0-.65-.602-.894-.948-1.755-.97-1.173-.041-1.527 1.249-1.11 2.125.883 1.754 1.507 2.697 1.848 4.027.373 1.018.742 4.259 1.017 6.2 0 0 .254.943 0 1.296-.228.325-.554.323-.554.323-.554-.185-.97.37-.97.37-.88 2.545 3.666 4.116 4.3 7.079.65 3.245 1.461 5.709 1.686 7.968 0 0 .167 1.103-.526 1.518-.524.445-.65.982-.465 1.806.137.526 1.158.88.972 1.85-.134.843-.464 1.873-1.008 2.735-.546.979-1.339.555-1.339.555-2.812-1.756-.034-4.891-.212-7.353-.077-1.72-1-2-2.097-1.681-1.125.377-1.348 1.734-1.68 2.832-.279.415-.728.256-.728.256-.623-.396-1.486-.551-2.327-.396-2.73 2.033.924 3.19 1.063 5.413.193.82 0 1.062-1.073 1.97-.684.76-.708 1.664-.36 2.243.25.497 1.238.864 1.89.694 2.222-.78 3.161.914 3.723 2.2 0 0 .325.836-.062 1.546-.277.51-.74.74-.74.74-.426 0-.849.205-1.063.277-.72.356-.852.962-.725 1.844 0 0 .154.656-.277 1.093-.306.468-.618.532-1.36 1.318-.647.327-1.2.045-1.2.045-.39-.211-1.063-.303-1.435-.09-.899.59-.733 1.406-.664 2.27 0 0 .04.532-.296.89l-.802.947c-.699.452-1.204-.03-1.204-.03-.269-.3-.487-.697-.754-1.158-.723-1.717-1.757-3.436-2.24-5.305-.132-2.556 2.821-2.275 4.061-3.858.56-.566.547-1.913-.484-2.428-.747-.371-1.987.075-2.733.126-.425.014-.236-.451-.292-.696.727-2.754 1.226-5.595 2.81-7.981 1.398-1.41 3.198-2.35 4.1-4.013.31-.794.53-1.493 0-1.874-1.13-.695-2.222.089-3.213.346-.372.185-.672-.207-.672-.207-.14-.42.138-1.184.138-1.184.83-1.718 3.362-1.945 4.828-2.453 1.21-.51 1.441-1.432.932-2.195-.786-.997-2.805-.347-4.432-.321-.31-.13-.446-.266-.47-.583-.096-.415-.05-.6-.05-.6.234-.557.188-.88.188-.88.046-.74-.187-1.203-.187-1.203-.204-1.867 1.066-2.267 1.528-3.006l.324-.371c.461-.508.045-1.065.045-1.065-.089-.323-.833-.323-.833-.323-.323.187-.555 0-.555 0-.276-.14-.002-.884-.002-.884.373-.69.418-1.71.012-2.558-2.018-3.913 2.922-5.265 2.944-8.674-.063-.564-.269-1.117-.85-1.405-1.772-.508-2.843 1.117-3.908 2.324-1.017.6-1.573-.231-1.573-.231-.817-1.448-1.85-2.545-2.73-4.026-1.285-1.625-2.52-4.108-4.798-4.218-.374.13-.88.233-.984.7-.117.609-.232 1.389.274 2.099.306.867 1.888 2.253.141 2.935-.694.612-.51 1.629.57 2.097 2.38.628 3.824 2.866 5.261 4.669.911 1.347.92 2.903 1.072 4.398 0 0-.06.824-.66.897-.442.07-.877.155-1.2.534-.949 1.229.333 2.465.984 3.5 0 0 .5.479.311 1.635 0 0 0 .554-.556 1.436 0 0-.508.786-.462 1.944 0 0 .046.833.325 1.526 0 0 .324 1.205.186 1.988.045.604-.138 1.527-1.387 1.158-1.706-1.68-2.857-3.01-4.537-4.21-1.019-.434-1.609-.222-2.005.397-.332 1.448.841 2.584 1.404 3.813 0 0 .438 1.024-.404 1.045-.264.132-.603.115-.86.32-.957.578-1.143 1.877.71 2.199 2.034.465 3.945.97 5.137 2.454 0 0 .505 1.109.158 2.01-.354 1.754-1.526 2.569-1.797 4.825.4 1.114.034 2.204-.502 3.079-.468.979-1.192.359-1.192.359-.833-.553-1.22-1.378-1.158-2.224.52-.947 1.801-2.167 1.026-3.331-.977-.647-2.028.026-3.015.417-.554.139-1.064-.371-1.064-.371-.626-.835-.6-1.526-.533-2.28.301-.722 1.054-.898 1.678-1.121.671-.333 1.098-1.03.974-1.818-.399-.763-.916-.982-1.82-.844-.709.065-1.257.17-1.779.237-.648.138-1.112-.51-1.112-.51-.394-.631-.662-1.344-.326-2.103.976-1.787-.042-2.295-1.25-2.943-.782-.558-.879-1.468-.088-2.177.925-.785 1.876-2.384 3.302-1.873.862-.022 1.6.152 2.018-.715.36-.673-.416-1.667-.878-2.361 0 0-.326-.74.23-1.204 0 0 .417-.462.973-.462l.508.092c.555 0 1.61.052 2.182.022.915-.05 1.473-.623 1.257-1.664-.25-.626-1.042-.914-1.54-1.181-.465-.601.276-1.405.833-1.896.582-.737.983-1.41.322-1.99-.757-.605-1.71-.185-2.454.416-.278.177-.507.554-.97.833-2.406 2.083-1.2-1.527-2.617-2.202-.5-.171-.894.123-1.27.26-.546.359-.624 1.394-.74 2.59l-.23 2.313s-.14 1.293-.834 1.944l-1.249.925c-.602.556-1.18.057-1.18.057-.674-1.126-1.27-2.232-1.042-3.111.133-.278.51-1.016.88-1.71.417-.651 1.124-1.41.417-2.131-.602-.877-1.759.418-2.314.279-.429-.124-.23-1.111-.137-1.667.166-1.066.005-1.736 1.016-2.451.972-1.064 3.604-2.462 2.192-4.15-.987-.612-1.806.2-2.793.639-.415.328-1.018.134-1.018.134-.476-.117-.092-2.451.23-2.87.656-.74 2.211-.44 2.267-1.756-.018-.742-.923-.786-1.662-.833-.42-.045-.206-.76-.206-.76.057-.192.111-.385.11-.531.123-.714.575-1.894-.14-2.436-1.226-.578-1.617.58-2.375 1.556-.092.225-.353.578-.445.738-.415.646-1.275.325-1.275.325-.71-.382-1.5-.928-2.242-.188-.405 1.176.646 2.067 1.407 3.23 0 0 .401.607.285 1.304-.02.638.02 1.528-.21 2.128-.372.556-1.018.508-1.018.508-.428.004-1.049-.31-1.758-.277-.802.144-.957.674-1.018 1.343.245 1.092 1.888 1.927 2.821 2.59 0 0 .694.508.65 1.528l.04.74c.018 1.484.366 2.878-.089 3.515-.579.773-2.147.54-2.728 1.297-.787 1.617.925 2.08 2.45 2.544 0 0 .836.325 1.157 1.388l.464.833c.462.878.88 1.527.925 2.22 0 0 .28 1.204-1.108 1.11-.728-.013-1.204-.461-2.038-.925-1.249-.971-1.018-1.63-1.018-2.778 0-1.432-.74-2.125-1.714-1.57 0 0-.275.416-.46.877l-.51.51s-.368.416-.923.324l-.504-.165c-.619-.145-1.289-.415-1.904-.53-1.85-.414-3.043-.667-4.67-.462-.596.11-.86.695-.696 1.249 1.615 2.234 4.403 2.666 6.748 3.737 1.5.679-.456 2.278-.133 3.435-.046 1.064 1.101 1.148 1.897.74 2.5-1.618 4.255.09 6.014 1.02 1.375.89 3.164 2.033 2.583 4.187-.38 1.57.243 2.614 1.074 3.585 0 0 .686.805.277 1.62-.232.464-.927.418-.927.418-.46 0-1.2.093-1.525.507-2.373 1.2-3.388-2.62-5.414-2.636-.877 0-1.249.786-.927 1.529 0 0 .558.97-.229 1.339l-1.159.048c-.744.09-1.293.184-2.17.09-2.316.094-2.222-2.821-3.888-2.405 0 0-.462.14-.557.833l.048 1.018s.138.603-.788.554l-1.34-.15c-1.246-.024-2.752-.593-4.026-.058-.695.208-.956.633-1.118 1.255-.248.74.411 1.642 1.252 1.822 1.47.474 4.787.384 6.34.652 0 0 .838.324.466.832l-.139.924s.092.879.648.973c.832.415 2.08-.786 2.7-1.697 0 0 1.235-.988 2.018-.85l.465.049c.022.013.358.083.38.097.851.703-.38 1.938.637 2.816.492.527 1.133.267 1.71-.23.464-.276.464-.415.867-.762 2.098-2.108 5.561-1.388 8.25-1.458 0 0 .786.092 1.064.507 1.271 1.61-1.528 1.852-1.11 3.425.358 1.077 1.757 1.063 2.775 1.156 0 0 1.016-.047 1.433 1.018.237.536.266.87.43 1.436 0 0 .118 1.049-.526 1.356-1.152.629-2 .547-3.049.629-2.31.187-2.499-3.561-4.626-2.312 0 0-.417.415-.417.924l.138.972c-.183.972-1.283.865-1.283.865-1.076.015-1.493-.032-2.742-.262-2.776-.324-2.304-3.617-4.58-3.147-.987.25-.599 1.528-.694 2.22-.37.788-1.248.372-1.248.372-1.174-.618-2.494-1.64-3.893-1.287-.726.312-1.106.96-.736 1.749.704 1.25 1.728 1.714 2.917 2.406 0 0 .508.372.091.833-.489.492-.786.554-1.286.899-.183.266-.796.865-.563 1.415.124.675.322.83 1.4.976 1.482-.168 2.39-.496 3.918-1.487 2.408-2.312 4.186 1.106 6.724.356a2.44 2.44 0 0 1 .562-.33l.441-.35c.417-.277 1.064-.6 1.064-.6.742-.14 1.064.416 1.064.416l.05.693c.181.74.553.833.553.833.278.28.797.057 1.11 0 .772-.296 1.007-.625 1.756-1.713.05-.644 3.571-1.18 5.184.279.37.416 1.112.6 1.896.232.802-.071 1.621-.6 2.407.276.694 1.206 1.2 2.002 1.435 3.238 0 0 .05 1.296-.948 1.806-1.273.648-4.65 2.776-8.029.832-1.649-.586-3.7-2.776-4.533-.924-.138.834.467 1.746.785 2.545 0 0 .185.925-.6.97l-.74.095c-1.36.27-3.348.033-4.433.94-.237.337-.174.924 0 1.256.408.485.664.569 1.101.72 1.295.275 2.324-.03 3.368.195 0 0 .803.225.521.869l-.799 1.302c-.372.662-.178 1.51.38 1.844.571.24 1.205.108 1.634-.11l2.066-1.972s1.157-.84 1.9-.976c1.757-.784 4.035-2.38 4.951-1.848 0 0 .552.186.46.647l-.199 1.712c.015.88.34 1.573 1.448 1.479 1.311-.457 1.667-1.951 2.054-3.155.303-1.52 1.603-1.446 2.644-1.446.554.278 1.108 1.597 1.456 2.428 0 0 .338 1.164-.143 1.208-.9.105-2.038-.041-1.87 1.153.36 2.056 4.442 1.695 4.442 3.748-.115.783-2.083.415-2.637.762-1.3 2.513 3.024 1.864 3.378 3.91.126.335.415 1.214-.27 1.253-2.157-.154-4.598-.918-6.648-1.275-1.618-.994-2.012-4.303-3.332-4.511-.97-.278-1.456.484-1.364 1.435.256 1.052-.37 1.687-1.48 1.34-1.806 0-3.762-1.895-5.087-.065-.415 2.68 2.878 1.897 4.113 3.327.904 1.04-2.496 1.3-3.136 2.549-.225.427-.225 1.103 0 1.535.65.56 1.127.565 1.961.425l3.918-1.27c1.052-.717 1.984-.038 3.08.143 1.334.25-.617 1.96.633 2.588.971 1.11 2.957-1.365 4.165-1.736 1.472.149 2.911.613 4.51.764 1.057.42 2.013 3.608 1.317 3.849-.926.535-2.396 1.332-3.538 1.355-1.4-.27-2.383-2.915-3.748-1.318-.55.829.605 1.894.291 2.622-1.689.789-3.468 1.345-5.18 2.098-.577.61-.593 1.526.14 2.097.801.62 1.645-.154 2.53-.154.692-.208 1.111-.487 2.012-.694 1.984-1.133.81 1.883 1.943 2.429.452.45.858.388 1.387.208.705-.25.903-.902.974-1.598a2.817 2.817 0 0 1 .052-.697s-.123-1.037.433-1.176l.763-.347c.814-.35 1.723-.45 2.43-.834.22-.178 1.751-.493 1.665-.485 1.665-.416 1.944 1.042 2.88 1.529.952.51 2.416.18 3.366.27 1.387.215 1.272 1.438 1.674 2.252.478 2.404-.077 2.89-2.299 3.168-2.022 1.37.187 2.49 1.874 2.707 0 0 .695.486.695.902.1.829.217 1.84-.347 1.942-.765.07-.556.07-1.113.07-1.109.484-3.368-.451-3.284 1.842.053.56.375 1.004.84 1.406.775.592 2.075.026 2.723.777.012.234.077.538 0 .903 0 0 .14.902-.626 1.179l-1.803.487c-1.452.31-3.105.324-4.096 1.525-.5 1.147-.478 2.21.465 3.123 0 0 10.64.74 16.38.092 0 0 8.974-.646 12.305-1.617.832-1.112.712-2.365-.417-3.541-.638-.455-1.604-.451-2.49-.518-.96-.172-1.24-1.425-1.24-1.425-.192-.624-.018-2.498-.018-2.498.764-1.598 2.558-1.837 3.333-2.776.555-.348.367-1.204.136-1.666-.613-.597-1.67-.777-2.565-.834-.556-.144-.765-1.107-.765-1.107-.068-.834.034-.993.056-1.946 0 0 .192-1.29 1.11-1.651 1.328-.634 3.046-1.45 4.712-1.796l.647-.16c.353.015 1.286-.168 1.594-.21.374-.05.733-.121 1.088-.092.682.057 1.39-.03 2.041-.184.574-.14 1.152-.258 1.454-.857.128-.247.124-.542.094-.79-.07-.53-1.066-.644-1.412-.922 0 0-.348-.556.415-.834l.417-.207c.064-.047.834-.372.902-.415 1.665-.765 1.791-.784 3.192-1.388.764-.418 1.735-.626 2.29-.974.8-.547 1.856-.625 2.061-1.656.092-.703-.117-1.534-1.783-1.397-1.667.578-1.979 1.057-3.262 1.39-1.665.555-.02-1.947-.762-3.242-2.59-1.574-3.25 3.87-5.739 5.368-.537.446-.506.152-1.064.578-.924.648-1.458-.14-1.458-.14.07-1.315-.435-2.01-.435-2.01-2.524-.81-2.409 2.96-3.796 4.255-.563.563-1.103.923-1.847.792-2.736-1.3-.28-4.214 1.255-7.271.638-1.108.405-.83 1.191-2.08.394-.49.788-1.803 2.083-2.313l4.673-.833c.987-.168 2.824-.183 3.102-1.628-.054-1.714-1.602-1.483-3.01-1.75l-2.266-.186c-.648-.045-.648-.834-.648-.834.138-1.43 1.847-1.631 3.472-2.311.891-.312 1.516-.537 2.36-.97.832-.463 1.848-.651 3.031-1.221 2.103-1 3.527 1.399 5.156.388.663-.41.722-1.025.14-1.99-.278-.416-.092-.324-.556-.832 0 0-.279-.881.416-1.065l1.388-.37c2.082-.602 3.43-1.153 5.413-1.62.703-.252 1.807-.973 1.482-2.083-.693-2.73-4.535-.74-6.854-.403-.887.288-.968-.43-.968-.43.05-1.111.416-2.33-.274-3.238-.452-.606-1.177-.62-1.619-.28-1.112.742-1.3 2.702-1.716 3.982-.459 1.435-1.248.645-1.248.645-.499-.511-1.317-1.54-2.127-1.015-.945.655-.232 2.403-.185 3.192 0 0 0 .924-.602 1.156a30.602 30.602 0 0 1-3.795 1.482c-.83.184-1.709-.138-1.202-1.158 1.172-2.803 2.036-4.351 3.702-7.033.417-.738 1.025-.847 1.025-.847.642-.184 1.325-.272 2.011-.377 1.035-.238 1.821-.952 1.137-2.202l-.333-.643s-.046-1.205.834-1.251c0 0 1.71-.556 2.5.092 0 0 .643.555 1.803.555 0 0 .878 0 1.803-.184 0 0 1.481-.186 2.035.093 1.02.416 1.853.463 2.942.456 1.5-.178 2.582-.48 3.646-1.264 2.067-1.462 4.656-1.6 6.74-1.23l.685.11c1.605.425 2.597.54 4.466.976 1.232.027 1.823-.263 2.112-.992.22-.494.091-1.482-.56-1.808-.515-.21-.877-.274-1.552-.548-2.884-.19-.757-2.316-1.683-3.15-1.708-.75-2.569.959-3.932 1.898-.653.123-1.575.368-2.308.232-1.014.239-1.3-.696-1.3-.696.182-.461.507-1.111.831-2.128-.049-1.2-.615-1.4-1.402-1.333-1.965 0-2.125 2.343-3.492 3.21-2.17 2.515-5.377 2.054-8.198 1.454-.694-.09-.465-1.203-.465-1.203 1.907-2.308 2.717-3.934 4.768-6.197 0 0 .68-.62 1.335-.633.747.057 1.944.302 2.318-.06.522-.295.911-1.113.417-1.943-1.067-.897-.585-2.007.044-2.78.783-.783 1.113-1.76 2.152-1.644.764.858 1.642 1.822 2.708 1.413.972-.09 1.018-1.248 1.074-2.115.452-1.216 2.414-.476 3.632-.704 1.24.198 2.262-1.57 3.344-1.392.662.108 1.296.647 1.843 1.25.795 1.11 2.09 1.273 2.6.418.724-1.107-.254-2.21-.64-3.173-.174-.584.455-1.083.455-1.083.768-.6 1.364-1.184 2.037-1.67.74-.553 1.094-1.46.6-2.174-.297-.334-.792-.43-1.295-.322-1.093-.016-2.962 1.665-3.204.305-.127-1.046-.358-2.436-.592-3.733-.315-.607-.718-.811-1.502-.605-1.134-.088-1.74 3.596-2.102 5.609-.606 1.987-2.346 1.847-3.8 2.35-.88.312-1.217-.506-1.217-.506.096-1.43.62-3.19-.583-3.94-1.667-.825-2.38 2.245-3.585 3.68-.807.756-1.864-.193-1.864-.193-1.687-2.691 2.025-4.361.408-6.865-.557-.683-1.165-.637-1.9-.27-1.222.977-1.343 4.168-3.84 3.193-1.316-.075-2.25-.513-2.684.326-.744 1.14.322 2.359 1.717 2.775 1.846.418 1.66 1.539 2.375 2.523.426.989-.207 1.967-1.133 2.474-.739.186-1.2-.14-1.2-.14-.604-.554-1.297-1.755-2.593-1.431-2.354 1.39.066 3.563.372 5.319.462 1.252-.58 2.278-1.482 2.178-.418-.046-.833-.6-.833-.6-.61-.791-1.574-2.732-2.82-2.688-.742 0-1.153.19-1.482 1.019 0 0-.322.74 0 1.808l1.155 3.33c.326 1.296-.35 2.526-1.062 3.423-.557.647-1.342.369-1.342.369-.374-.045-1.18-.508-1.667-.508-.927-.417-1.62.552-1.297 1.36.05.094.241.448.281.536l.553.787s.37.693-.184 1.388l-.418.646c-.276.399-.56.932-1.062 1.388-.65.6-1.675.196-1.675.196-1.463-.831-1.564-1.594-1.57-2.66l-.274-3.643c0-1.198-.782-1.85-1.956-1.4-1.476 1.12-1.203 2.593-1.464 4.362-.234.739-.834.694-.834.694-.873-.403-2.638-.88-3.286-.093-1.572 3.238 3.03 3.25 4.764 5.645.397.484.481 1.072.557 1.667-.14.969-.37 1.522-.88 1.894-.555.233-1.203-.091-1.203-.091m214.262-19.816c-1.386-.328-5.068-1.441-4.358.969.408 1.359 4.706 3.677.203 4.602-1.77.369-3.95-.852-5.64-1.278-4.972-1.264-4.033.803-2.703 4.352 1.33 3.537-.036 4.696-2.083 7.222-1.506 1.867-.953 1.7 1.624 1.882 4.014.299 5.026-1.708 8.447-3.008 1.053 1.52-2.36 3.33-2.716 5.017 2.827 1.32 6.708-.75 9.496-1.37.627-.133 10.077-2.18 9.75-.91-.402 1.539-.953 2.973-1.727 4.364 2.76.373 4.34-3.64 6.474-4.88 2.029-1.177 4.544-1.462 6.686-2.453 2.51-1.164 4.678-2.92 6.576-4.91 1.606-1.686 1.793-1.834.543-3.68-3.661-5.401-11.804-7.376-17.928-7.11-2.263.09-4.527.5-6.748.865-1.784.302-3.336.719-5.151.484a5.696 5.696 0 0 1-.745-.158M24.603 113.826c-3.29 1.019-6.37 2.416-9.982 2.404-1.096 0-8.854-.49-8.811 1.358.031 1.543 6.71 3.075 4.791 4.824-.074.067-10.304-2.141-10.057-1.531.922 2.285 3.438 3.976 3.197 6.739-.21 2.492-2.869 3.438-3.741 5.46 2.492-.393 4.826-1.037 7.102-2.086.545-.242 3.777-2.051 3.813-1.771.306 2.61-1.745 3-2.135 4.988a.709.709 0 0 0 .025.344c2.432.935 5.637-1.16 8.252-1.414 2.661-.262 4.942-1.753 7.483-2.458 3.355-.918 1.822 1.035 1.091 3.258 1.871.826 3.974-2.775 5.332-3.597 2.672-1.596 5.559-2.824 8.248-4.361 2.847-1.612 5.957-3.79 7.316-6.886.501-1.146-3.007-3.928-3.79-4.408-4.728-2.883-9.424-2.507-14.638-1.702-1.208.18-2.361.489-3.496.839"/><g transform="translate(644 39.558)"><mask id="b" fill="#fff"><use xlink:href="#a"/></mask><path fill="#4FB9D4" d="M30.077 3.655c-6.445 2.488-12.247 7.513-18.81 9.474-2.154.648-4.844-.066-6.507 1.568 1.91 1.686 4.998 1.208 7.063 2.66 3.047 2.14-.453 2.45-2.436 2.148-2.364-.348-6.583-3.129-8.408-.234-.25.532 3.06 3.587 3.3 4.354.96 2.973-2.164 5.033-2.665 7.812 2.56 1.087 11.997-5.35 12.556-3.888.315.795-5.644 6.996-5.622 7.006 3.573 1.577 12.363-3.638 15.436-5.636 1.65-1.072 3.294-2.705 5.1-3.48.43-.186 3.479-.564 3.453-.502-.557 1.53-1.541 3.64-1.454 5.304 2.925-2.008 4.403-5.524 6.95-7.922 2.448-2.324 5.742-3.675 7.852-6.432 2.47-3.216 4.12-7.492 3.28-11.586-.55-2.64-3.143-2.796-5.744-3.34-4.922-1.055-8.791.942-13.344 2.694" mask="url(#b)"/></g><path fill="#4FB9D4" d="M584.9 38.427c.29.56.765 1.27 1.18 1.749 1.294 1.496 3.316 2.505 4.937 3.589.086.052-1.794.412-2.044.383-.73-.082-1.323-.261-2.048-.287-1.9-.06-3.801.51-5.688.14-1.52-.302-3.214-.81-4.755-.792-.775 1.906 2.358 2.674 3.438 3.31 1.204.729 2.652 1.586 3.428 2.789-1.726 2.899-7.558 3.862-7.697 7.869 1.883.194 3.427-.827 5.269-1.274 1.585-.38 3.256-.52 4.823-.912.602-.16 1.054-.43 1.64-.64.115-.046 1.66-.331 1.556-.205-.643.813-1.764 1.119-2.582 1.72-1.048.763-1.96 1.78-2.778 2.777.78.73 2.117.248 3.036-.008 1.877-.522 3.846-.215 5.737-.81 2-.626 3.887-1.76 6.014-1.937.122.91-.697 1.717-1.014 2.494-.338.89-.53 1.8-.968 2.693 1.52.337 3.635-1.673 4.526-2.726.969-1.145 1.732-3.884 3.504-4.028 2.7-.225 4.494-2.813 6.45-4.425 1.503-1.248 7.47-5.7 3.64-7.454-3-3.46-7.624-3.78-11.592-3.926-1.522-.05-2.92-.373-4.486-.241-1.595.144-3.173.463-4.78.545-2.601.119-6.706-.59-8.988-1.908-.448-.255.223 1.47.243 1.515M324.366 15.855c.446.3.903.596 1.37.855.69.375 2.208.573 1.823 1.6-.612 1.647-2.935.53-4.03.243-1.661-.433-3.311-.5-5.016-.573-.537-.028-2.714-.229-1.89.874.325.434 1.049.446 1.495.71.487.29 1.009.74 1.439 1.102 1.047.865 1.239 1.898.46 3.068-.757 1.155-1.612 2.191-2.467 3.268.885.98 3.752-.619 4.669-.992 1.44-.594 2.584-1.697 4.169-1.818.307-.02-1.22 1.974-1.322 2.067-.663.63-1.417 1.1-2.113 1.716-.297.275-1.125.716-1.311 1.032-.754 1.274 1.866.321 2.35.062.9-.477 1.706-.706 2.709-.762 2.429-.13 4.735-1.029 7.053-1.719 1.432-.435 2.747-1.193 4.197-1.614.27-.079-.931 2.933-1.074 3.163 2.1.916 3.21-1.199 4.175-2.739 1.236-2.003 3.64-3.704 5.659-4.809 1.8-.979 2.47-2.942 3.13-4.75.305-.819.969-1.758 1.068-2.602.284-2.448-5.834-2.988-7.406-3.086-2.971-.186-6.115.378-8.46 2.317-1.42 1.361-2.763.895-4.467.911-1.496.021-2.983.51-4.488.282-.963-.148-2.908-.803-3.762-.052-.751.67.742 1.344 1.259 1.708.258.175.514.355.78.538M136.143 81.307c.352.469.901 1.04 1.356 1.412 1.426 1.168 3.444 1.762 5.102 2.497.09.034-1.574.666-1.811.681-.68.041-1.253-.029-1.916.064-1.755.254-3.403 1.088-5.191 1.046-1.44-.033-3.072-.228-4.482.043-.405 1.87 2.588 2.067 3.679 2.477 1.225.469 2.685 1.025 3.59 1.998-1.112 2.933-6.301 4.76-5.782 8.449 1.759-.125 3.004-1.31 4.617-2.015 1.394-.604 2.904-1.002 4.275-1.614.524-.243.892-.562 1.4-.849.097-.062 1.47-.573 1.392-.439-.46.846-1.432 1.309-2.087 1.991-.845.868-1.513 1.947-2.101 2.99.839.545 1.982-.112 2.779-.492 1.635-.784 3.492-.816 5.126-1.669 1.733-.897 3.279-2.237 5.199-2.743.254.811-.363 1.679-.528 2.448-.167.868-.195 1.734-.457 2.618 1.453.064 3.065-2.114 3.712-3.222.701-1.206.959-3.836 2.56-4.254 2.435-.645 3.663-3.3 5.194-5.087 1.176-1.388 5.922-6.43 2.14-7.42-3.316-2.685-7.601-2.236-11.256-1.726-1.403.2-2.739.127-4.15.501-1.439.387-2.835.934-4.286 1.267-2.364.527-6.241.537-8.547-.297-.448-.161.45 1.307.473 1.345"/><path fill="#272C6C" d="M605.215 137.055c-1.751 1.082-4.533 2.319-7.676 2.73-2.885.413-4.688.361-7.573-.257l7.315-11.437c3.658-5.822 7.11-12.365 3.246-17.465-3.915-5.152-11.9-5.667-19.113-3.452l-1.855.567-2.473 7.882 3.864-2.112c1.803-1.03 4.43-2.06 7.264-1.185 5.307 1.649.31 10.046-2.06 14.013l-11.438 19.32h27.769l2.73-8.604zm32.2-11.025c.309 9.995-6.028 20.71-15.662 20.247-9.634-.412-14.734-9.016-14.889-19.99-.103-9.685 6.028-20.452 15.301-20.092 10.613.413 14.89 9.531 15.25 19.835zm-10.15-1.133c.052-5.049-.515-11.798-4.997-11.953-3.658-.103-5.358 6.904-5.358 11.953v3.297c0 4.74.979 10.974 5.049 11.18 4.018.206 5.1-6.492 5.203-11.283l.103-3.194zm32.572 20.71c-.721-.36-1.185-.72-1.7-1.34-1.34-1.545-1.391-2.987-1.391-4.996l-.052-33.488c-2.112 2.473-3.658 3.761-6.337 5.513-3.348 2.164-7.058 3.452-9.53 4.018l5.821 1.649v22.05c0 2.215-.515 3.71-1.958 5.255-.566.567-.927.927-1.648 1.34h16.795zm35.25-10.87c.31 7.676-8.243 11.798-15.919 11.85-7.625 0-15.92-3.195-15.92-11.49 0-4.379 2.937-7.315 7.007-8.912-3.348-1.752-5.77-5.05-5.77-9.531-.051-6.698 7.264-10.716 14.786-10.304 6.491.31 13.498 1.288 14.322 10.304.31 3.812-2.73 6.182-5.77 7.522 4.585 1.957 7.11 5.564 7.264 10.56zm-10.046-19.165c-1.03-3.04-3.864-4.894-7.315-3.967-3.246.927-4.225 5.564.206 7.625l5.564 2.576c2.009-1.958 2.318-3.864 1.545-6.234zm-3.452 16.589l-7.16-3.4c-2.474 1.803-3.452 4.482-2.68 7.47 1.03 4.07 5.358 5.461 8.552 4.688 5.564-1.34 4.946-7.058 1.288-8.758z"/></g></svg>