<svg xmlns="http://www.w3.org/2000/svg" xmlns:xlink="http://www.w3.org/1999/xlink" viewBox="0 0 298.62 195.98"><defs><style>.cls-1,.cls-21{fill:#2d96ac;}.cls-2{fill:url(#linear-gradient);}.cls-3{fill:url(#linear-gradient-2);}.cls-4{fill:url(#linear-gradient-3);}.cls-5{fill:url(#linear-gradient-4);}.cls-6{fill:url(#linear-gradient-5);}.cls-7{fill:url(#linear-gradient-6);}.cls-8{fill:url(#linear-gradient-7);}.cls-9{fill:url(#linear-gradient-8);}.cls-10{fill:url(#linear-gradient-9);}.cls-11{fill:url(#linear-gradient-10);}.cls-12{fill:url(#linear-gradient-11);}.cls-13{fill:url(#linear-gradient-12);}.cls-14{fill:url(#linear-gradient-13);}.cls-15{fill:url(#linear-gradient-14);}.cls-16{fill:url(#linear-gradient-15);}.cls-17{fill:#0084b0;}.cls-18{fill:url(#linear-gradient-16);}.cls-19{fill:url(#linear-gradient-17);}.cls-20{fill:url(#linear-gradient-18);}.cls-21,.cls-25{opacity:0.4;}.cls-22{opacity:0.85;fill:url(#linear-gradient-19);}.cls-23{opacity:0.35;fill:url(#linear-gradient-20);}.cls-24{opacity:0.6;fill:url(#linear-gradient-21);}.cls-25{fill:url(#linear-gradient-22);}</style><linearGradient id="linear-gradient" x1="39.98" y1="64.69" x2="64.32" y2="64.69" gradientUnits="userSpaceOnUse"><stop offset="0" stop-color="#42a8ae"/><stop offset="1" stop-color="#2ea1af"/></linearGradient><linearGradient id="linear-gradient-2" x1="59.2" y1="70.75" x2="80.96" y2="70.75" gradientUnits="userSpaceOnUse"><stop offset="0" stop-color="#2d96ac"/><stop offset="1" stop-color="#0084b0"/></linearGradient><linearGradient id="linear-gradient-3" x1="31.06" y1="74.28" x2="45.21" y2="74.28" gradientUnits="userSpaceOnUse"><stop offset="0" stop-color="#2080a4"/><stop offset="1" stop-color="#0d77a6"/></linearGradient><linearGradient id="linear-gradient-4" x1="41.29" y1="103.24" x2="74.3" y2="103.24" xlink:href="#linear-gradient"/><linearGradient id="linear-gradient-5" x1="69.77" y1="99.14" x2="87.37" y2="99.14" xlink:href="#linear-gradient-3"/><linearGradient id="linear-gradient-6" x1="24.98" y1="87.27" x2="36.81" y2="87.27" xlink:href="#linear-gradient-2"/><linearGradient id="linear-gradient-7" x1="51.79" y1="79.62" x2="67.15" y2="79.62" xlink:href="#linear-gradient"/><linearGradient id="linear-gradient-8" x1="50" y1="97.3" x2="61" y2="97.3" xlink:href="#linear-gradient-2"/><linearGradient id="linear-gradient-9" x1="40.42" y1="115.42" x2="76.6" y2="115.42" gradientUnits="userSpaceOnUse"><stop offset="0" stop-color="#90bccd"/><stop offset="1" stop-color="#a2c1d0"/></linearGradient><linearGradient id="linear-gradient-10" x1="36.68" y1="84.58" x2="58.5" y2="84.58" xlink:href="#linear-gradient-9"/><linearGradient id="linear-gradient-11" x1="46.35" y1="70.23" x2="54.53" y2="70.23" xlink:href="#linear-gradient-3"/><linearGradient id="linear-gradient-12" x1="73.82" y1="83.35" x2="84.72" y2="83.35" xlink:href="#linear-gradient-9"/><linearGradient id="linear-gradient-13" x1="58.81" y1="74.2" x2="66.48" y2="74.2" xlink:href="#linear-gradient-9"/><linearGradient id="linear-gradient-14" x1="59.69" y1="89.19" x2="79.1" y2="89.19" xlink:href="#linear-gradient-2"/><linearGradient id="linear-gradient-15" x1="39.15" y1="98.59" x2="51.24" y2="98.59" xlink:href="#linear-gradient-3"/><linearGradient id="linear-gradient-16" x1="25.92" y1="103.25" x2="39.58" y2="103.25" xlink:href="#linear-gradient"/><linearGradient id="linear-gradient-17" x1="68" y1="77.9" x2="73.22" y2="77.9" xlink:href="#linear-gradient-3"/><linearGradient id="linear-gradient-18" x1="12.86" y1="90.99" x2="92.31" y2="90.99" xlink:href="#linear-gradient-9"/><linearGradient id="linear-gradient-19" x1="7.35" y1="84.81" x2="103.99" y2="84.81" xlink:href="#linear-gradient-9"/><linearGradient id="linear-gradient-20" x1="7.35" y1="84.81" x2="103.99" y2="84.81" xlink:href="#linear-gradient"/><linearGradient id="linear-gradient-21" x1="0" y1="89.55" x2="111.5" y2="89.55" xlink:href="#linear-gradient-3"/><linearGradient id="linear-gradient-22" x1="0" y1="89.55" x2="111.5" y2="89.55" xlink:href="#linear-gradient-2"/></defs><title>Asset 13</title><g id="Layer_2" data-name="Layer 2"><g id="Layer_1-2" data-name="Layer 1"><path class="cls-1" d="M17.51,15.74H10.13c-4.49,0-6.67-1.84-6.67-5.64C3.46,5,7,2.59,14.27,2.59A42.14,42.14,0,0,1,25.13,4l.3.08V1.46l-.18,0A42.65,42.65,0,0,0,14.27,0C5.14,0,.52,3.4.52,10.1c0,5.61,3.23,8.46,9.61,8.46h7.38c4.46,0,6.62,1.77,6.62,5.4,0,5.38-3.3,8-10.08,8A39.06,39.06,0,0,1,2.47,30.32l-.31-.1v2.85l.18,0a45.59,45.59,0,0,0,11.71,1.42c8.64,0,13-3.56,13-10.58C27.07,18.51,23.85,15.74,17.51,15.74Z"/><path class="cls-1" d="M52.79,21.1C52.79,28.4,49.26,32,42,32S31.18,28.4,31.18,21.1V.23H28.24V21.1C28.24,30,32.86,34.54,42,34.54S55.73,30,55.73,21.1V.23H52.79Z"/><path class="cls-1" d="M73.89,15.74H66.51c-4.49,0-6.67-1.84-6.67-5.64,0-5.06,3.54-7.51,10.81-7.51A42.14,42.14,0,0,1,81.51,4l.3.08V1.46l-.18,0A42.66,42.66,0,0,0,70.64,0C61.52,0,56.9,3.4,56.9,10.1c0,5.61,3.23,8.46,9.61,8.46h7.38c4.46,0,6.62,1.77,6.62,5.4,0,5.38-3.3,8-10.08,8a39.06,39.06,0,0,1-11.58-1.63l-.31-.1v2.85l.18,0a45.59,45.59,0,0,0,11.71,1.42c8.64,0,13-3.56,13-10.58C83.45,18.51,80.23,15.74,73.89,15.74Z"/><polygon class="cls-1" points="110.36 0.23 84.62 0.23 84.62 2.82 95.9 2.82 95.9 34.31 98.84 34.31 98.84 2.82 110.36 2.82 110.36 0.23"/><polygon class="cls-1" points="127.27 0.23 124.02 0.23 108.61 34.31 111.76 34.31 125.49 2.99 133.21 20.44 120.79 20.44 119.89 23.03 134.36 23.03 139.29 34.31 142.75 34.31 127.33 0.37 127.27 0.23"/><rect class="cls-1" x="147.16" y="0.23" width="2.94" height="34.07"/><polygon class="cls-1" points="182.16 28.95 160.15 0.33 160.08 0.23 156.55 0.23 156.55 34.31 159.26 34.31 159.26 3.94 182.45 34.21 182.52 34.31 184.87 34.31 184.87 0.23 182.16 0.23 182.16 28.95"/><polygon class="cls-1" points="203.98 0.23 200.74 0.23 185.32 34.31 188.47 34.31 202.2 2.99 209.92 20.44 197.5 20.44 196.61 23.03 211.07 23.03 216 34.31 219.47 34.31 204.04 0.37 203.98 0.23"/><path class="cls-1" d="M238,16.42c4.2-1.7,6.33-4.44,6.33-8.13,0-5.35-3.31-8.06-9.82-8.06H219.92V34.31H234c7.13,0,10.74-3.34,10.74-9.94C244.74,20.09,242.46,17.42,238,16.42ZM222.86,2.82h11.46c4.71,0,7,1.84,7,5.63,0,4.24-3.88,6.74-11.53,7.42l-.22,0V18h2.12c6.69,0,9.94,2.1,9.94,6.41,0,4.9-2.58,7.28-7.89,7.28H222.86Z"/><polygon class="cls-1" points="251.39 0.23 248.44 0.23 248.44 34.31 270.84 34.31 270.84 31.72 251.39 31.72 251.39 0.23"/><polygon class="cls-1" points="278.47 31.72 278.47 18.33 297.26 18.33 297.26 15.74 278.47 15.74 278.47 2.82 298.06 2.82 298.06 0.23 275.53 0.23 275.53 34.31 298.39 34.31 298.39 31.72 278.47 31.72"/><path class="cls-1" d="M21,154v42H17.78V154Z"/><path class="cls-1" d="M27.43,196V154h4.15L61,190.45V154H63.9v42H61.28L30.35,157.43V196Z"/><path class="cls-1" d="M72.25,154v42H69V154Z"/><path class="cls-1" d="M108.74,154v2.64H93.66V196H90.43V156.61H75.65V154Z"/><path class="cls-1" d="M114.28,154v42h-3.23V154Z"/><path class="cls-1" d="M118.21,196l19.91-42H142l20,42h-3.85l-6.46-14.1H133l1-2.64h16.53l-10.59-22.86L121.65,196Z"/><path class="cls-1" d="M188.55,154v2.64H173.47V196h-3.23V156.61H155.46V154Z"/><path class="cls-1" d="M196.28,154v42H193V154Z"/><path class="cls-1" d="M245.32,154,226,196H221l-19.39-42h3.54l18.5,39.63L241.88,154Z"/><path class="cls-1" d="M279.2,154v2.64H253.53v16.75h24.62V176H253.53v17.34h26.1V196H250.3V154Z"/><path class="cls-1" d="M148.56,117.27a53.74,53.74,0,0,1-15.34,2.21q-28.77,0-28.77-27.49,0-26,28.77-26a53.7,53.7,0,0,1,15.34,2.21v3.32A51.23,51.23,0,0,0,134,69.3q-25.5,0-25.5,22.69,0,24.18,25.5,24.17a51.3,51.3,0,0,0,14.57-2.21Z"/><path class="cls-1" d="M191.54,66.34v3.32h-32v21h30.68V94H159.55v21.77h32.52v3.32H155.53V66.34Z"/><path class="cls-1" d="M197.58,119.11l24.81-52.77h4.8l24.93,52.77h-4.79l-8.05-17.71H216l1.19-3.32h20.6L224.54,69.37l-22.67,49.74Z"/><path class="cls-1" d="M253.17,119.11V66.34h5.18L295,112.17V66.34h3.64v52.77h-3.26L256.82,70.7v48.41Z"/><path class="cls-2" d="M52.64,60.41a1.67,1.67,0,0,0-1.2.1l-.38.26c-.06,0-.2.1-.24.16a.76.76,0,0,0,0,.3.74.74,0,0,0,.15.26,2,2,0,0,1,.46.44c.12.18.24.35.35.53l.23.38s.14.15.08.19-.31.25-.53.24l-.89,0a1.51,1.51,0,0,0-.56.14c-.2.07-.4.16-.59.24l-.3.13c-.06,0-.27-.06-.34-.07s-.14-.05-.21.05-.11.21-.23.21-.26,0-.31,0l-.31.28s-.2,0-.25,0a1.32,1.32,0,0,0-.36,0c-.09,0-.18.16-.26.22s-.26,0-.32,0-.24,0-.28,0l-.29.25s-.27,0-.32-.05a.37.37,0,0,0-.28,0c-.07,0-.19.12-.28.12l-.43,0c-.09,0-.19.1-.25.14a.32.32,0,0,1-.31.06c-.15,0-.14,0-.23.15s-.09.09-.24.05l-.38-.1c-.07,0-.23.09-.29.12a.9.9,0,0,1-.26.1h-.39c-.06,0-.1.22-.16.22l-.39,0a3.44,3.44,0,0,0-1,.4,1.15,1.15,0,0,0-.38.23l-.45.48c.12.09.23.22.38.23L41,67l1.85.07c.84,0,1.7-.06,2.54-.1l1.31-.07c.41,0,.83-.12,1.24-.19a4.76,4.76,0,0,0,1.16-.2l.82-.36a3.7,3.7,0,0,1,.53-.23l1.34-.34c.23-.06.46-.09.7-.14l.27-.05c.07,0,.23.07.3.09a1.78,1.78,0,0,1,.51.23l.72.47,1.17.75c.09.05.09,0,.09.15a.35.35,0,0,0,.09.29c.05.08.13.24.21.29l.37.21a1.33,1.33,0,0,1,.43.56.47.47,0,0,1,0,.57,1.58,1.58,0,0,0,.51-.18s0-.24.06-.28a.55.55,0,0,0,0-.22c0-.12,0-.24-.06-.35s-.13-.18-.18-.25,0-.16,0-.2l.11-.38a2.6,2.6,0,0,0,.05-.54c0-.07-.07-.18-.1-.24a.61.61,0,0,0-.11-.21,9.39,9.39,0,0,1-.83-.87,1.72,1.72,0,0,1,.59-.16,3.66,3.66,0,0,0,.61,0l.85-.18a1.24,1.24,0,0,1,.5.05l1.39.29a2.58,2.58,0,0,0,.54.11h.84a3.38,3.38,0,0,0,.8-.17c.26-.06.51-.15.77-.22l.41-.13c.09,0,.21-.21.27-.27s.4-.41.59-.62a2.1,2.1,0,0,0-.52-.27l-.74-.14c-.07,0-.23.08-.29.1s-.22-.06-.3-.09a.48.48,0,0,0-.24-.07l-.43.06c-.18,0-.38-.2-.55-.18l-.35,0a.7.7,0,0,1-.27,0,2.43,2.43,0,0,0-.64-.19l-.37,0c-.09,0-.17-.16-.26-.19A1.27,1.27,0,0,0,59,63a1,1,0,0,0-.28,0c-.07,0-.23.09-.3.07L58,63a.33.33,0,0,0-.23,0,1,1,0,0,1-.33.09l-.79-.1c-.17,0-.34.12-.52.1L55.43,63c-.23,0-.46-.07-.69-.11,0,0-.08-.05-.12-.09l-.34-.31-1.05-.94a.51.51,0,0,1-.08-.17L53,61a3.09,3.09,0,0,0-.32-.55"/><path class="cls-3" d="M77.65,76.43c-.17-.07-.62-1.29-.28-1.75-.32-.4-.55-.63-.83-1l0,0a12.18,12.18,0,0,0-4.17-3,10.14,10.14,0,0,0-5.34-.6,2.66,2.66,0,0,0,1.05.64c.16.12.5,0,.54.22-.23.56-.87.25-1.38.33A3.76,3.76,0,0,1,64.5,70a19.82,19.82,0,0,1-3.84.84c-.7.07-1.07.43-1.3.24s-.21-.35-.11-.5.31-.31.52-.5.32-.47.51-.63c.52-1.58,2.67-3.33,5.41-3.79s3.74-.09,4.59-.6a5.66,5.66,0,0,1,3.46-1.32c.13,0,.31.11.24.31a2.18,2.18,0,0,0-.85,1c-.26.94.62,1.39,1.19,2a21.28,21.28,0,0,1,2.44,2.37,8.43,8.43,0,0,1,1.89,4.31c0,.15.09.71.12.83s1.78,2.26,2,2.64.34.53,0,.52-.83-1-1.47-1.28c-.21,0-.22.21-.61.08s-.33-.34-.61-.42c0,0-.25.38-.42.31"/><path class="cls-4" d="M36,75.83c.2.07.35.16.35.4s-.19.33-.35.44a10.94,10.94,0,0,0-1.06.81,8.7,8.7,0,0,0-1.71,1.91l-.38.62c-.09.15-.16.35-.35.39a1.24,1.24,0,0,1-.29.05c-.09,0-.2-.1-.27-.15s-.1-.15-.16-.21a1.18,1.18,0,0,1-.13-.34,10.79,10.79,0,0,1-.57-2.56,7.53,7.53,0,0,1,.24-2.62,8,8,0,0,1,1-2.36,9.78,9.78,0,0,1,.66-1,10.09,10.09,0,0,1,.9-1c.31-.29.59-.48.59-.94a1,1,0,0,0-.63-.87,4.73,4.73,0,0,1,1.3-.1,3.87,3.87,0,0,1,.66.07,6.46,6.46,0,0,1,.62.2l.31.12c.1,0,.2,0,.3,0l.68-.19a8.42,8.42,0,0,1,1.22-.25,12.93,12.93,0,0,1,2.66-.09,13.27,13.27,0,0,1,2.63.49l.36.12c.1,0,.19.12.3.16s-.06.14-.1.17l-.46.33c-.07.05-.2.1-.2.2s.17,0,.24,0l.84-.23,0,.11a1.39,1.39,0,0,0-.55.34,2.1,2.1,0,0,0-.4.49,2.42,2.42,0,0,1-1,.76,2.63,2.63,0,0,1-.66.2,2.28,2.28,0,0,0-.26,0s-.32.09-.32.13a5.08,5.08,0,0,1-.25,1.3,3.39,3.39,0,0,1-.22.52.6.6,0,0,1-.17.24s-.14-.14-.16-.18a2.72,2.72,0,0,1-.25-.53c-.06-.18-.06-.35-.11-.53-.4.2-.8.41-1.22.58s-.85.32-1.27.48a23.37,23.37,0,0,1-2.6.76c-.44.11-.88.17-1.32.24-.19,0-.39.08-.58.13s-.44.06-.53.29a.68.68,0,0,0,.39,1,6.82,6.82,0,0,0,1.3,0h1"/><path class="cls-5" d="M74.3,97.08a1.28,1.28,0,0,1-.56.3,2.21,2.21,0,0,1-.58,0c-.18,0-.32-.06-.44-.08a1.46,1.46,0,0,0-.38,0,3.5,3.5,0,0,0-.5.06,1.79,1.79,0,0,0-.38.1c-.09,0-.14.07-.13.11s.06.09.18.14a1.23,1.23,0,0,1,.41.28,1,1,0,0,1,.21.56,1.31,1.31,0,0,1-.07.52,2.48,2.48,0,0,0-.1.34.56.56,0,0,0,.07.24.67.67,0,0,1,0,.43,2,2,0,0,1-.37.66,2,2,0,0,1-.76.55,9.13,9.13,0,0,1-1.39.47,10.31,10.31,0,0,1-1.52.31,14.41,14.41,0,0,1-1.54.08,3.9,3.9,0,0,1-1.09-.15c-.36-.08-1.09-.56-1.45-.7s-2.36-.62-2.62-.67a3,3,0,0,0-1.28.42,4,4,0,0,0-.56.52,14.11,14.11,0,0,0-1.82,2.16,18,18,0,0,1-.81,1.8,3.6,3.6,0,0,1-.73,1.07A9.76,9.76,0,0,1,54.73,108a7,7,0,0,1-1.74.93,14.61,14.61,0,0,1-2,.59,9.46,9.46,0,0,1-1.88.25,10.55,10.55,0,0,1-1.43-.11,3.46,3.46,0,0,0-.79,0,3.05,3.05,0,0,1-.8,0,2.5,2.5,0,0,1-.83-.3,6.5,6.5,0,0,1-.69-.45,5.77,5.77,0,0,1-.54-.42,1.1,1.1,0,0,1-.23-.28c0-.07-.05-.11-.11-.14l-.33-.13c-.18-.08-.44-.21-.65-.31l-.53-.25-.4-.22a.59.59,0,0,0-.21-.07.22.22,0,0,1-.13,0,.64.64,0,0,1-.14-.16.23.23,0,0,1-.06-.18.27.27,0,0,1,.13-.17c.05,0,.1,0,.17.06a2,2,0,0,0,.28.14,3,3,0,0,0,.44.14,2.22,2.22,0,0,0,.36,0,1.15,1.15,0,0,1,.28,0,2.69,2.69,0,0,1,.26.1.79.79,0,0,0,.49,0c-.42-.15-.66-.22-.84-.27s-.32-.08-.46-.13a3.58,3.58,0,0,1-.4-.18,3.09,3.09,0,0,0-.32-.15,1.51,1.51,0,0,1-.26-.1.11.11,0,0,1,0-.17.62.62,0,0,1,.28-.18,2.19,2.19,0,0,1,.52-.12,3.27,3.27,0,0,1,.55,0c.14,0,.2,0,.31,0a2.58,2.58,0,0,0,.44,0c.17,0,.36-.06.59-.09a6.33,6.33,0,0,1,.77,0c.25,0,.45,0,.67.05s.43,0,.67.09A6.33,6.33,0,0,1,47,106a9,9,0,0,1,1,.38c.32.15.59.31.85.42a2.9,2.9,0,0,0,.82.23,4.45,4.45,0,0,0,1.15,0,6.07,6.07,0,0,0,1.26-.31,3.88,3.88,0,0,0,.82-.4,4.75,4.75,0,0,0,.55-.42,6.65,6.65,0,0,0,.51-.47,4.62,4.62,0,0,0,.56-.67,1.5,1.5,0,0,0,.25-.62c0-.21,0-.42.08-.7a10.92,10.92,0,0,1,.66-1.18c.15-.34.51-.51.71-.77s1.63-1.52,1.83-1.68l1-.71a2.66,2.66,0,0,1,.56-.26,4.35,4.35,0,0,1,.89-.25,27.39,27.39,0,0,1,3.53.32c.79.15,3.41,1,3.94,1.07a4.55,4.55,0,0,0,1.4,0,3.94,3.94,0,0,0,.75-.16,1.41,1.41,0,0,0,.32-.13.21.21,0,0,0,.12-.16.65.65,0,0,0-.06-.25,1.2,1.2,0,0,1-.09-.35,1.34,1.34,0,0,1,.06-.51A3.77,3.77,0,0,1,70.7,98a.75.75,0,0,0,.09-.33,2.38,2.38,0,0,1,0-.38.75.75,0,0,1,.18-.38.38.38,0,0,1,.33-.13,1.78,1.78,0,0,1,.33.13.31.31,0,0,0,.26,0,1.32,1.32,0,0,1,.37-.15c.12,0,.21,0,.4.11a4.25,4.25,0,0,0,.73.21,3.45,3.45,0,0,0,.89,0"/><path class="cls-6" d="M84.38,90.13s0-.41,0-.13c0,0,0,.07,0,.13m-.09-.27c.07,0,0,.15,0,.24s0-.14,0-.24m.19-.39c.06.21,0,.54.1.72s-.07-.05-.12,0c0-.24,0-.4,0-.68m-4,18.66a2,2,0,0,1,.85.18,2.22,2.22,0,0,0,.8.32c.16,0-.36-.62-.39-.65a4.7,4.7,0,0,0-.7-.6c-.25-.15-.52-.25-.78-.39a9,9,0,0,0-1.91-.93,16.09,16.09,0,0,0-1.74-.38c-.44-.06-.68-.22-.6-.75,0-.23.13-.43.17-.65s0-.3.19-.44a1.67,1.67,0,0,1,.69-.27c.28-.06.5-.17.78-.21s.66-.28,1-.36a7.2,7.2,0,0,1,.95-.11c.27,0,.54-.13.81-.14s.39.1.59.09c-.06.15.08.28,0,.43s-.14.11-.2.19,0,.18,0,.35-.3.36-.39.56c.1.24.37.27.67.24l.39,0a1.84,1.84,0,0,0,1-.45,5.37,5.37,0,0,0,.61-.61c.49-.58.63-1.4,1.12-2l0-.06a.73.73,0,0,1,.41-.13,5.3,5.3,0,0,0,.54-.13,6.78,6.78,0,0,1,.76-.2,2.34,2.34,0,0,1,.71,0,1.17,1.17,0,0,1,.2,0c.13,0,.21.17.34.07s-.09-.15-.16-.21a2.28,2.28,0,0,0-.37-.27c-.57-.25-1.43,0-1.75-.47a1.4,1.4,0,0,1-.14-.94,2.79,2.79,0,0,1,.36-.92c.08-.15.16-.29.23-.45a2.73,2.73,0,0,0,.14-.37c0-.1.08-.19.11-.29A3.47,3.47,0,0,0,86,96c0-.68.08-1.51,0-2.22a2.9,2.9,0,0,0-.41-1.18,8.48,8.48,0,0,0-.73-.85.87.87,0,0,1-.17-.44c0-.48.38-.68.68-.94a.67.67,0,0,0,.2-.26c0-.08,0-.28-.1-.21s-.07.08-.1.05,0-.19-.15-.2,0,.29-.1.34,0-.14-.13-.11,0,.14-.06.16,0-.11-.07-.06,0,.09,0,.11-.09.07-.19,0c0-.21-.1-.59,0-.74a.45.45,0,0,0,0,.14.85.85,0,0,1,0,.16c.08,0,0-.29,0-.33s0-.1,0-.12.1,0,.12.08,0,.09,0,.07,0-.11,0-.14a.4.4,0,0,1,0-.19s.05-.09.07-.07.07.14.13.16,0-.13,0-.15a.28.28,0,0,1-.05-.1s.06-.11.07-.09a1.35,1.35,0,0,0,.16.19.85.85,0,0,0,.11.15s0,0,0,0a.46.46,0,0,0-.07-.11L85.12,89,85,88.81s0,0,.05-.06.06,0,.09,0l.13.06s.09.08.15.07,0,0,0-.06a.76.76,0,0,0-.12-.08.48.48,0,0,1-.13-.06s-.1-.08-.08-.09.31.07.44.1,0,0,0-.06a.35.35,0,0,0-.15-.06l-.17,0-.13-.09a.45.45,0,0,1,.24,0s.14,0,.11,0-.14,0-.18-.05a.29.29,0,0,1-.21,0s.1,0,.12-.05.09,0,.1-.05-.11,0-.14,0a.52.52,0,0,1-.13.05.5.5,0,0,0-.49-.1c-.38.11-.65.45-1.08.67a7.46,7.46,0,0,0-1.25.5c-.05,0-.07.09-.12.12a2.19,2.19,0,0,0-.73.71A4.44,4.44,0,0,0,81,91.76a9.85,9.85,0,0,1-.35,1.6,10.68,10.68,0,0,0-.46,1.5c0,.21-.06.45-.12.67s-.51.6-.7.76a7.73,7.73,0,0,1-1,.7c-.81.49-1.81.78-2.64,1.22a7.49,7.49,0,0,0-1.64,1.08c-.09.08-.19.18-.27.27a2.88,2.88,0,0,0-.48.92,7,7,0,0,0-.24.82c-.1.41-.14.83-.22,1.27-.05.28-.06.63-.12,1a2.36,2.36,0,0,1-.28.9c-.23.29-.71.21-1,.19a1.38,1.38,0,0,0-1,.4,2.14,2.14,0,0,0-.51.77,1.23,1.23,0,0,0-.11.83c.13,0,.21-.3.28-.43a1.51,1.51,0,0,1,.35-.46c0,.05.05,0,.1,0a1,1,0,0,1,.84-.63c.41,0,.76.28,1.2.24.14,0,.31,0,.4,0s.19-.22.33-.24c.09.23.17.69.43.66s0-.55.24-.61c0,.86.67,1.06,1.07,1.52.53.22.87.63,1.42.82.32.22.65.47,1,.65a2.63,2.63,0,0,1,.68.61c.2.19.41.37.59.58a1.83,1.83,0,0,0,1.49.65c0-.15-.2-.26-.26-.42a2.69,2.69,0,0,1-.06-.53,1.21,1.21,0,0,0-.36-.87c.25,0,.38.36.59.33a.39.39,0,0,0-.07-.33c.2,0,.34.2.49.33.09-.18,0-.3-.09-.43h0"/><path class="cls-7" d="M34.8,93.55c.4,0,.81.26,1.23.26,1.06-.29.59-4.67.48-5.24v-.09a10.8,10.8,0,0,1,.31-2.13c0-.22,0-.47-.28-.44s-.43.69-.41,1.17-.21.48-.21.48-.1-.12-.29,0-.1.16-.1.16c-.33-.37-.3-1-.77-1.25,0-.38.44-1,0-1.18s-.29.59-.64.8c-.2-.22.15-.5.11-.77a2.19,2.19,0,0,1,0-.33c0-.36.12-.92,0-1.05s.08-.07.08-.07.27-.05.28-.25-.13-.12-.23-.2c.25-.34.92-.74.86-1s-.4-.07-.61,0c0-.18.22-.67-.19-.6a1.35,1.35,0,0,0,.1-.78c0-.17-.35-.36-.37,0s-.75.74-.71,1.35a1.77,1.77,0,0,1-.2,1L33,82.34c.25-.08.21-.39.19-.58s-.08-.28-.23-.23-.24.3-.29.46c-.14,0-.38-.49-.5-.16a.88.88,0,0,0,.3.93.19.19,0,0,1,.11.15.37.37,0,0,0-.27.35c.06.11,0,.2,0,.29-.25-.3-.57-.91-.84-.83s-.1.4,0,.62c-.06.06-.23,0-.3.1-.14.54.46.75.79,1.07-.08.23-.16.44-.23.67-.26-.13-.31-.52-.37-.78-.34-.25-.7-.87-1.17-.65.32.33-.32.54.06.83s.58.17.72.44c-.14.3.21.46.26.65s0,.16-.12.25a.26.26,0,0,0-.37,0l-.07.34a1.52,1.52,0,0,1-.13-.43s-.11-.38-.2-.63a2.9,2.9,0,0,0-.29-.66c-.32-.55-.47-1.28-1-1.66-.19,0-.22.16-.25.27,0,.44.5.92.07,1.21-.36-.45-.81-1.21-1.51-1.07-.24.15,0,.37.09.52l.2.21c-.11.16-.45.23-.27.53.46.35,1.59.28,1.44,1.09-.2.18-.66-.2-.79.16a1.07,1.07,0,0,0,.55.54c.28.17.55.34.48.78-.5.12-.42-.6-.9-.56s0,.46,0,.46-.48,0-.47.29.06.24.15.32c-.35.1-.74-.27-1.09-.07-.09.44.3.67.68.71a1.27,1.27,0,0,1,1.08.52c.17.15.39,0,.58,0,.6.53,1.53-.39,2,.39a2.6,2.6,0,0,0,.73.5c.1.74.8,1.1,1.22,1.47a5.09,5.09,0,0,0,1.24.71c0,.11,0,.26,0,.38-.31.18-.71-.61-.92-.1,0,.17.18.21.13.36a10.65,10.65,0,0,1-2-1.35,3.25,3.25,0,0,0-.32-1.37.76.76,0,0,0-.36-.3c-.12,0-.15.17-.15.26l0,.16.13.81c-.29-.09-.68-.45-1.06-.58a.6.6,0,0,0-.57.06.51.51,0,0,0-.15.15,4.47,4.47,0,0,0-1.38-1.14c-.42,0,0,.36-.16.5a2.49,2.49,0,0,0-1.5-.29c-.47.12-.24.37.14.46a1.64,1.64,0,0,1,1,.45c.35.69-.76-.06-1.19.25-.36.05-1.06-.42-1,0s.58.39.91.46h0c.78.56,1.7.43,2.44,1.11-.14.12-.5-.09-.51.23.48.28,2,0,2.49.27.1.29,1.9.42,2.41.53a10.14,10.14,0,0,0,2,.4"/><path class="cls-8" d="M61.24,84.1h0a4.19,4.19,0,0,0,4.31.88c2.19-.76,1.94-2.79.47-4.13-.66-.6-1.35-1.13-2-1.78a6.48,6.48,0,0,0-2-1.74,5.15,5.15,0,0,0-3-.08c-.79.14-1.8.44-2.52-.09-1-.72-.79-3.39-2.35-3.09-.72-.2-3.13,0-2.11,1.22.7.82,1.82.64,2.39,1.74a16.05,16.05,0,0,1,.78,2.54c-.88,0-.71.68-1.22,1.09-.28.22-.83,0-1.08.24s.24.56.57.61c.85.14,1.18-1.23,1.92-.87a.69.69,0,0,1,.22.94c-.24.48-.6.33-1,.51s-.2.52.32.59a1.34,1.34,0,0,0,1.16-.44l0,0c0-.28.47-.77.68-.95.53-.44,1.35-.27,2-.42.18,0,2.06-.5,1.74,0s-1.22-.23-1.38.49c.09,0,.14.13.25.14s-.06.07-.08.12a.61.61,0,0,0,.43.1,1,1,0,0,0,0,.51c.53.19,2.55.79,2.93.16.27-.45-.16-.58.37-1a2.21,2.21,0,0,0,.92-.88c.1-.2,1.18.94,1.24,1.09A1.54,1.54,0,0,1,65,83.32c-.94,1.08-2.64.28-3.78.78"/><path class="cls-9" d="M50.58,98.14a.4.4,0,0,0,.06.27.94.94,0,0,1,.06.24c0,.11,0,.29.06.43a2.05,2.05,0,0,0,.07.36c0,.1.08.17.11.26a.55.55,0,0,1-.17.36c-.09.11-.2.23-.29.37a2.78,2.78,0,0,0-.23.43,2.61,2.61,0,0,0-.16.45,1.33,1.33,0,0,0,0,.37,1.23,1.23,0,0,1,0,.24c0,.08,0,.19-.05.28a1.17,1.17,0,0,0,0,.29,2.22,2.22,0,0,0,0,.23.37.37,0,0,0,0,.13s.06,0,.12,0a.89.89,0,0,0,.25,0,1.77,1.77,0,0,0,.3-.1l.26-.09a1.15,1.15,0,0,0,.18-.06,1.42,1.42,0,0,0,.13-.12l.21-.13.22-.15a.94.94,0,0,1,.15-.1l.14-.06.13-.1a1.34,1.34,0,0,1,.15-.16l.45-.39a3.42,3.42,0,0,0,.45.24l.36.14a2.7,2.7,0,0,1,.63.31.89.89,0,0,0-.46-.29.18.18,0,0,1-.12-.16.69.69,0,0,1,0-.19.64.64,0,0,0,0-.21.89.89,0,0,0-.1-.28c-.05-.1-.11-.21-.24-.22a14.91,14.91,0,0,0,1-1.29,1.55,1.55,0,0,0,.52-.07.51.51,0,0,0,.25-.19c.07-.09.11-.21.23-.39s.31-.44.48-.66l.55-.69c.2-.24.44-.53.66-.83a6.38,6.38,0,0,0,.54-.89,3.28,3.28,0,0,0,.27-.76c0-.23.07-.44.13-.67a7.25,7.25,0,0,1,.26-.68,1.8,1.8,0,0,1,.25-.5,2,2,0,0,1,.53-.43,3.09,3.09,0,0,1,.71-.31,1.51,1.51,0,0,1,.59-.05.61.61,0,0,1,.37.19,1.66,1.66,0,0,1,.37.58,1.19,1.19,0,0,0-.1-.71.81.81,0,0,0-.37-.44,1.59,1.59,0,0,0-.64-.2,2.78,2.78,0,0,0-1,.08,3.81,3.81,0,0,0-1,.43,2.74,2.74,0,0,0-.79.69A9.42,9.42,0,0,0,56.43,94l-.55.95c-.16.27-.29.49-.47.74a7.37,7.37,0,0,1-.65.79c-.25.26-.52.5-.77.71l-.79.69c-.32.28-.74.64-.9.75a1.1,1.1,0,0,0-.18-.4,5,5,0,0,0-.28.57,1,1,0,0,0-.25-.17l-.14-.08-.12-.08-.09-.05-.09,0L51,98.31a.48.48,0,0,0-.16-.06.42.42,0,0,1-.26-.11"/><path class="cls-10" d="M42.32,113.44c0-.27.51,0,.62.2.09-.3.81.15.73.45-.21-.15-.43-.29-.62-.45-.06.12.08.16.11.25-.35,0-.49-.34-.84-.44m.11.25c-.1-.08-.25-.15-.2-.28.09.08.29.13.2.28m1.44.22c-.16-.06-.29-.13-.33-.24s.48,0,.33.24m.76.25a1.86,1.86,0,0,1-.59-.39c.23-.14.62.2.59.39m.62.09c-.27-.11-.6-.21-.57-.43.23,0,.61.21.57.43m.25-.31c.08,0,.07.12,0,.21a.34.34,0,0,1-.21-.13c0-.11.16,0,.2-.08m.93.37c-.12.11-.72-.11-.63-.3a.94.94,0,0,1,.63.3m.45,0c0,.21-.51,0-.37-.15.12,0,.32,0,.37.15m23.41-5.11c-.2-.32.09-.53-.23-.81-.82,0-1,1.05-.91,1.73,0,.23.33.56.27.72a6.42,6.42,0,0,1-1.84,1,7.34,7.34,0,0,1-1.13.32c-.43,0-.85.29-1.28.37a3.7,3.7,0,0,1-1.52-.08c-1-.21-1.83.23-2.82.18a20.61,20.61,0,0,1-3.15-.65c-.42-.09-1-.22-1.51-.29a31.48,31.48,0,0,0-5.45-.23c-.58,0-1.11.17-1.71.24-.28,0-.63,0-.95,0a5.3,5.3,0,0,1-.9.15c-.12,0-.34-.18-.46-.19a11.3,11.3,0,0,0-2.47.6c-.6.12-1.22.12-1.83.19-.18,0-1.25,0-1.29.22s.35.31.43.37c.25.18.79.48.73.83-.48,0-1.34-.38-1.76-.24-.18.15,0,.47,0,.67,2.13,1.82,5.63,3.14,8.78,4.22a24.16,24.16,0,0,0,5,.93c.55.07,1,0,1.43.11.11,0,.21.15.35.19.37.12.81.08,1,.2s.23.37.37.51a2.52,2.52,0,0,0,1,.6c.46.11,1-.24,1.45,0s.45.54.68.68c.56.36.72,0,1.32.12s.79.46,1.28.56.89-.15,1.35-.18c.74.36,1.17,0,1.74-.08.6.24,1.26.14,1.37-.47-1-.47-2.47-.26-3.8-.7a12.51,12.51,0,0,1-4.19-2.23c.54-.24,1.19-.21,1.71-.49,3.38-.86,7-3.5,9.73-6a11.21,11.21,0,0,0,3.08.84,2.36,2.36,0,0,0,1.28-.29s1.4-.73,1.1-.83c-.71-.23-1.48-.07-2.26-.34-1-.36-1.56-1.06-2.71-.93.31-.86-.93-1-1.3-1.59"/><path class="cls-11" d="M54.25,94.78a1.45,1.45,0,0,1-1.48-.14,2.77,2.77,0,0,0-.45-1.79,3.64,3.64,0,0,0-.77-.86c-.33-.29-.79-.65-1.17-.95a9.31,9.31,0,0,0-1-.69,6.35,6.35,0,0,0-1.08-.48L45.79,89a.69.69,0,0,0-.14.52.58.58,0,0,1-.16.32.75.75,0,0,0-.2.33c0,.15,0,.35-.06.49a.27.27,0,0,1-.18.22.16.16,0,0,1-.21-.07,1.08,1.08,0,0,1,0-.51c0-.14-.1-.05-.19.07a2.87,2.87,0,0,1-.37.48,2.09,2.09,0,0,1-.92.56c-.14.33-.21.5-.28.65a2.47,2.47,0,0,1-.21.34.58.58,0,0,1-.19.2.25.25,0,0,1-.21,0c-.06,0-.08-.07-.11-.08s-.08,0-.12,0a.2.2,0,0,1-.13-.08.2.2,0,0,1,0-.18.27.27,0,0,1,.17-.14c.08,0,.17,0,.25,0a.46.46,0,0,0,.22-.11c.07-.06.15-.15.23-.55a.69.69,0,0,1-.72-.17L42,91c-.06-.06-.11-.11-.11-.19a.37.37,0,0,1,.13-.26.18.18,0,0,1,.25,0,1.6,1.6,0,0,1,.24.29.6.6,0,0,0,.24.2.56.56,0,0,0,.28,0,.73.73,0,0,0,.25-.09,2.35,2.35,0,0,0,.33-.18l.29-.21c.1-.06.21-.12.3-.19a.61.61,0,0,0,.19-.26c0-.08,0-.12-.08-.12a2,2,0,0,0-.27.11.18.18,0,0,1-.21,0,.46.46,0,0,1-.14-.24.19.19,0,0,1,.07-.2.39.39,0,0,1,.27,0l.44.08a1.29,1.29,0,0,0,.38,0,.37.37,0,0,0,.2-.1.3.3,0,0,0,0-.17.77.77,0,0,1,0-.21.53.53,0,0,1,.12-.2.79.79,0,0,0,.13-.15.27.27,0,0,0,0-.21.37.37,0,0,0-.23-.18,1.58,1.58,0,0,0-.49-.11,3.49,3.49,0,0,0-.42,0,1.47,1.47,0,0,1-.37,0,1.57,1.57,0,0,0-.43,0,1.16,1.16,0,0,0-.42.16c-.13.07-.24.17-.37.25l-.39.27a2.3,2.3,0,0,0-.37.36c-.1.13-.18.27-.32.42a2.57,2.57,0,0,1-.47.41,2.16,2.16,0,0,1-.44.23,1.08,1.08,0,0,1-.36.1.27.27,0,0,1-.24-.1.24.24,0,0,1,0-.23.34.34,0,0,1,.21-.17,2.23,2.23,0,0,1,.36,0A1,1,0,0,0,41,90a1.51,1.51,0,0,0,.32-.24,1.2,1.2,0,0,0,.24-.3c.05-.1.07-.19,0-.23a.67.67,0,0,0-.33,0,3.26,3.26,0,0,1-.42,0,3.13,3.13,0,0,1-.41,0,.4.4,0,0,0-.26,0c-.09,0-.23.14-.37.19a.67.67,0,0,1-.36.06.2.2,0,0,1-.17-.15.33.33,0,0,1,0-.24c0-.06.11-.07.21-.07h.3c.08,0,.13,0,.13,0s0-.1-.14-.13-.26,0-.35-.07-.13-.08-.11-.14a.4.4,0,0,1,.15-.22.3.3,0,0,1,.27,0,1.43,1.43,0,0,1,.33.19,1.3,1.3,0,0,0,.31.16,2.17,2.17,0,0,0,.47.09,4.18,4.18,0,0,0,.56,0,2.3,2.3,0,0,0,.49-.08,2.8,2.8,0,0,0,.45-.17.66.66,0,0,0,.24-.18c0-.06.07-.12,0-.15a1.47,1.47,0,0,0-.38,0,1.92,1.92,0,0,1-.42,0,3.43,3.43,0,0,1-.33-.12,2.11,2.11,0,0,0-.36-.07,5.11,5.11,0,0,0-.58,0h-.61a3.19,3.19,0,0,0-.35,0c-.1,0-.2.07-.32.1a.55.55,0,0,1-.32,0,.15.15,0,0,1-.09-.18.34.34,0,0,1,.17-.25,1.11,1.11,0,0,1,.47-.09,2.93,2.93,0,0,1,.49,0c.14,0,.25,0,.28,0s0-.09-.11-.14-.19-.08-.26-.12a.93.93,0,0,0-.21-.11c-.09,0-.23,0-.34-.07s-.21-.07-.21-.13.09-.14.15-.21a.26.26,0,0,0,.09-.18.38.38,0,0,0-.09-.21.42.42,0,0,0-.24-.14,4.11,4.11,0,0,0-.46-.07,1.49,1.49,0,0,0-.36,0,.36.36,0,0,0-.21.11.89.89,0,0,1-.2.17.22.22,0,0,1-.21,0,.19.19,0,0,1,0-.2c0-.08.09-.15.1-.21s0-.08-.1-.12a.33.33,0,0,1-.14-.15.27.27,0,0,1,0-.23.3.3,0,0,1,.21-.11.26.26,0,0,1,.21.09,1.23,1.23,0,0,1,.12.2.18.18,0,0,0,.16.11h.39a2.32,2.32,0,0,0,.33,0c.08,0,.12,0,.08-.13a2.21,2.21,0,0,0-.27-.33,1.87,1.87,0,0,1-.24-.3,5.11,5.11,0,0,0-.28-.43.84.84,0,0,0-.35-.26l-.5-.21a4,4,0,0,1-.41-.2c-.11-.06-.2-.11-.23-.2a.27.27,0,0,1,0-.26.24.24,0,0,1,.22-.07.45.45,0,0,1,.23.12c.07.06.12.14.2.2a1.57,1.57,0,0,0,.3.14A1.63,1.63,0,0,0,38,84c.07,0,.11,0,.11-.08a1.11,1.11,0,0,0-.07-.3l-.15-.45a1.42,1.42,0,0,0-.16-.33,1.39,1.39,0,0,1-.16-.2.18.18,0,0,1,0-.17.26.26,0,0,1,.17-.11.32.32,0,0,1,.26.08.88.88,0,0,1,.19.33,3.26,3.26,0,0,1,.14.45,4.79,4.79,0,0,1,.08.49,4.31,4.31,0,0,0,.1.56,1.81,1.81,0,0,0,.18.45,2,2,0,0,0,.22.32c.06.07.11.1.16.06a.49.49,0,0,0,.14-.24c0-.11,0-.23.06-.35a1.85,1.85,0,0,0,.06-.35,1.11,1.11,0,0,0-.09-.32,2,2,0,0,1-.09-.4.49.49,0,0,1,0-.31.14.14,0,0,1,.19,0,.36.36,0,0,1,.12.23,1.7,1.7,0,0,0,.07.32.11.11,0,0,0,.17,0,1,1,0,0,0,.22-.25c.07-.1.12-.19.17-.27a.57.57,0,0,0,.1-.24,1.41,1.41,0,0,1,0-.29.19.19,0,0,1,.21-.13c.08,0,.16.13.22.22a.65.65,0,0,1,.11.22c0,.06,0,.1-.07.18l-.29.33c-.12.14-.26.32-.37.44a2.16,2.16,0,0,0-.25.27.82.82,0,0,0-.1.29,2.1,2.1,0,0,1-.08.3,1.58,1.58,0,0,1-.15.32,1.65,1.65,0,0,0-.16.28.35.35,0,0,0,0,.27c0,.1.12.2.17.32s.09.26.15.39a1.14,1.14,0,0,0,.24.37,2.52,2.52,0,0,0,.46.36,3.88,3.88,0,0,0,.6.33,4,4,0,0,0,.62.19,3.14,3.14,0,0,0,.52.09c.15,0,.29,0,.44,0a2.59,2.59,0,0,1,.49.14,2.76,2.76,0,0,0,.44.14,1.8,1.8,0,0,0,.45,0c.15,0,.31,0,.35-.12a1.28,1.28,0,0,0-.54-.37,1.73,1.73,0,0,0-.48-.1,1.62,1.62,0,0,1-.36,0,1.57,1.57,0,0,1-.33-.17,1.43,1.43,0,0,1-.26-.16.32.32,0,0,1-.12-.22.14.14,0,0,1,.11-.14.55.55,0,0,1,.26,0,1.11,1.11,0,0,1,.28.13c.08.05.12.12.18.15s.13,0,.14,0,0-.14-.1-.28l-.29-.53a3.47,3.47,0,0,0-.31-.5,1.11,1.11,0,0,0-.38-.31.75.75,0,0,0-.35-.06,1.06,1.06,0,0,1-.3,0,.67.67,0,0,1-.29-.18.29.29,0,0,1-.08-.27.29.29,0,0,1,.2-.2.32.32,0,0,1,.24.1.46.46,0,0,0,.19.12.3.3,0,0,0,.22-.06c.06,0,.1-.1.16-.09a.75.75,0,0,1,.27.19,5.09,5.09,0,0,1,.37.36,1.44,1.44,0,0,1,.25.35c.07.14.14.31.23.49s.19.38.29.54a1.55,1.55,0,0,0,.27.39,1,1,0,0,0,.33.18,1.37,1.37,0,0,1,.34.17,2.1,2.1,0,0,1,.32.3,1.22,1.22,0,0,0,.35.3,4.72,4.72,0,0,0,.63.28l.53.22c.17.08.35.17.48.1a8.85,8.85,0,0,0-.8-.72c-.21-.16-.41-.29-.57-.41a2.39,2.39,0,0,1-.38-.39c-.11-.14-.22-.3-.36-.44s-.29-.29-.45-.43a4.53,4.53,0,0,1-.41-.4,3,3,0,0,0-.23-.3.86.86,0,0,0-.24-.11.57.57,0,0,1-.21-.16C43,85.16,43,85.09,43,85s.1-.08.17-.09.16,0,.19,0,0-.09-.06-.19a1.06,1.06,0,0,0-.25-.3.52.52,0,0,0-.26-.08.21.21,0,0,1-.16-.08.35.35,0,0,1,0-.21.16.16,0,0,1,.13-.15.48.48,0,0,1,.33,0,1.23,1.23,0,0,1,.36.28,2,2,0,0,1,.27.35,1.06,1.06,0,0,1,.13.29,1.84,1.84,0,0,0,.08.31,1.43,1.43,0,0,0,.18.26.49.49,0,0,0,.17.16.93.93,0,0,0,.25,0,.23.23,0,0,1,.21.09,2.15,2.15,0,0,1,.09.31,1.17,1.17,0,0,0,.19.33l.27.32a2.7,2.7,0,0,0,.51.5c-.11-.54-.15-.78-.17-.94a.77.77,0,0,0-.07-.35,1.71,1.71,0,0,0-.31-.37.62.62,0,0,0-.31-.19,1.8,1.8,0,0,0-.33,0,.26.26,0,0,1-.24-.07.32.32,0,0,1,0-.25c0-.08.07-.12.18-.11s.29.07.38.08.11-.05.07-.15a1.51,1.51,0,0,0-.29-.34,2.36,2.36,0,0,0-.38-.27A1.73,1.73,0,0,1,43.9,84a1.75,1.75,0,0,1-.22-.32.29.29,0,0,0-.23-.15,2.59,2.59,0,0,0-.42,0,1.57,1.57,0,0,1-.39,0,1.1,1.1,0,0,1-.21-.08c-.08,0-.18,0-.26-.05A.2.2,0,0,1,42,83.2a.34.34,0,0,1,.13-.22.23.23,0,0,1,.21,0,.4.4,0,0,1,.17.14c0,.06.08.12.16.12a.58.58,0,0,0,.26-.08.36.36,0,0,0,.15-.11.44.44,0,0,1,.15-.16.26.26,0,0,1,.23,0,2,2,0,0,1,.2.23,2.09,2.09,0,0,0,.29.25.63.63,0,0,0,.21.13s.05,0,0-.13A1,1,0,0,0,44,83a2.06,2.06,0,0,0-.46-.37c-.21-.13-.48-.28-.71-.4a3.19,3.19,0,0,0-.6-.25,2.51,2.51,0,0,1-.46-.11c-.13-.07-.24-.19-.4-.28a5.83,5.83,0,0,0-.58-.2,4.4,4.4,0,0,1-.52-.26.94.94,0,0,0-.42-.13c-.16,0-.35,0-.59,0s-.52,0-.69,0-.21.09-.3.12a.33.33,0,0,1-.3-.06.28.28,0,0,1,0-.28c0-.09.08-.14.09-.2a1.3,1.3,0,0,0,0-.19.18.18,0,0,1,.09-.15.26.26,0,0,1,.23,0c.09,0,.17.14.27.19a.88.88,0,0,0,.37.09,3.39,3.39,0,0,0,.45,0c.13,0,.21,0,.23-.06s0-.07-.09-.15a1.5,1.5,0,0,0-.32-.26,2.29,2.29,0,0,0-.38-.12.5.5,0,0,1-.25-.16.4.4,0,0,1-.09-.26.36.36,0,0,1,.36-.37.44.44,0,0,1,.3.08,1.75,1.75,0,0,1,.23.31c.09.13.22.26.32.38a3.14,3.14,0,0,0,.28.3l.4.33a1.66,1.66,0,0,0,.32.25.61.61,0,0,0,.34.06c.08,0,.08-.07,0-.18a2,2,0,0,0-.23-.43,2.15,2.15,0,0,0-.43-.47,3.15,3.15,0,0,0-.5-.29c-.14-.07-.21-.12-.22-.17s.05-.11.15-.12a.67.67,0,0,1,.33.07,1.52,1.52,0,0,0,.26.14,1,1,0,0,0,.23,0,.25.25,0,0,1,.19.09.83.83,0,0,1,.16.23c0,.09.08.2.14.32a4.17,4.17,0,0,1,.2.38c.05.13.07.26.14.4a1.36,1.36,0,0,0,.28.38.92.92,0,0,0,.31.22.1.1,0,0,0,.14-.09,1.68,1.68,0,0,0,0-.32,2.11,2.11,0,0,1,0-.38c0-.11.05-.18.12-.2a.23.23,0,0,1,.21.06.24.24,0,0,1,.08.22c0,.09-.05.2-.06.32a.8.8,0,0,0,.06.33.53.53,0,0,0,.16.25.31.31,0,0,0,.25.06c.07,0,.11-.09.17-.13a.29.29,0,0,1,.27,0,1,1,0,0,1,.31.31c.09.13.14.26.25.43s.27.39.37.56a2.17,2.17,0,0,1,.18.51c.06.19.14.43.22.63a3.64,3.64,0,0,0,.28.57c.11.19.25.38.37.56l.3.47c.08.11.12.16.16.17s.08,0,.12-.11a.7.7,0,0,0,.08-.31,1.34,1.34,0,0,0-.1-.41c-.06-.16-.13-.35-.19-.54s-.12-.4-.16-.55a2.1,2.1,0,0,0-.14-.42,4.09,4.09,0,0,0-.33-.55c-.13-.18-.26-.33-.4-.5l-.45-.53a2.21,2.21,0,0,1-.37-.5c-.09-.18-.13-.41-.23-.57a2.19,2.19,0,0,0-.45-.42,6.77,6.77,0,0,0-.76-.66,2.87,2.87,0,0,0-.81-.33l-.67-.18c-.21,0-.41-.08-.63-.11L39.81,79a6.45,6.45,0,0,0-.68-.07c-.2,0-.37,0-.53,0a.73.73,0,0,1-.36-.07.26.26,0,0,1-.14-.2.14.14,0,0,1,.12-.17,1.7,1.7,0,0,1,.35,0,.27.27,0,0,0,.2,0s.08-.09.14-.09a.71.71,0,0,1,.23.11,1.29,1.29,0,0,0,.34.13l.59.09.6.1c.16,0,.24,0,.24,0s-.11-.15-.25-.23a3.6,3.6,0,0,0-.45-.2,1.94,1.94,0,0,1-.42-.21.43.43,0,0,1-.18-.24.12.12,0,0,1,.12-.15.84.84,0,0,1,.41.1,3.66,3.66,0,0,1,.48.28,3.45,3.45,0,0,1,.42.29c.13.11.25.24.39.34a2.17,2.17,0,0,0,.48.22l.46.17a.46.46,0,0,0,.24,0s0-.07-.11-.19l-.47-.5a2.25,2.25,0,0,0-.42-.44,4.83,4.83,0,0,0-.65-.33,3.44,3.44,0,0,0-.58-.26,3,3,0,0,0-.63-.07,5.1,5.1,0,0,1-.69-.08c-.18,0-.28-.11-.27-.18s.1-.17.24-.23a.9.9,0,0,1,.51-.07,2.92,2.92,0,0,1,.52.18c.15.05.25.06.29,0s0-.17-.06-.3a3.79,3.79,0,0,0-.26-.41,2.62,2.62,0,0,0-.3-.39,2.29,2.29,0,0,0-.33-.24.58.58,0,0,1-.25-.26.19.19,0,0,1,.12-.23.32.32,0,0,1,.3.09,1.07,1.07,0,0,1,.16.24c0,.05.08.06.12,0s.07-.16.11-.23a.15.15,0,0,1,.15-.08.13.13,0,0,1,.11.14,2.91,2.91,0,0,0,0,.35,1.33,1.33,0,0,0,.18.38,3.16,3.16,0,0,1,.2.47c.06.17.11.37.17.5a.57.57,0,0,0,.2.25,1.32,1.32,0,0,0,.29.16.68.68,0,0,0,.29.07c.06,0,.06-.06,0-.16a1.83,1.83,0,0,0-.18-.35c-.08-.11-.16-.2-.21-.29s-.06-.16,0-.21a.63.63,0,0,1,.25-.08.34.34,0,0,0,.23-.16.8.8,0,0,0,0-.34c0-.11,0-.22,0-.33a.65.65,0,0,1,0-.32.33.33,0,0,1,.25-.15.41.41,0,0,1,.26,0,.13.13,0,0,1,0,.18,2.84,2.84,0,0,0-.16.24.33.33,0,0,0,0,.27.62.62,0,0,1,.09.26.53.53,0,0,1-.15.26.75.75,0,0,0-.17.3.84.84,0,0,0,0,.38c0,.12.08.23.12.38a3,3,0,0,0,.17.45,2.22,2.22,0,0,0,.28.37,4.52,4.52,0,0,1,.34.44c.11.16.22.34.32.51a3.06,3.06,0,0,0,.29.48,1.53,1.53,0,0,0,.36.32c.1.06.16.07.18,0s0-.16,0-.35a7.32,7.32,0,0,0-.33-.72c-.12-.24-.22-.44-.32-.6a4.75,4.75,0,0,1-.28-.47,4.78,4.78,0,0,0-.23-.52,2.44,2.44,0,0,0-.24-.27c0-.07,0-.15,0-.17s.18,0,.29,0a.21.21,0,0,0,.21-.15.41.41,0,0,0-.1-.28c-.06-.08-.11-.12-.1-.17a.24.24,0,0,1,.2-.13c.09,0,.2,0,.25,0s.08-.15.08-.26a.65.65,0,0,1,0-.27.15.15,0,0,1,.19,0,.28.28,0,0,1,.14.26,1.71,1.71,0,0,1-.16.53,5,5,0,0,0-.24.69.83.83,0,0,0,0,.47,1.6,1.6,0,0,0,.19.42c.07.1.15.14.21.07a1,1,0,0,0,.11-.43c0-.2,0-.44,0-.63a2.68,2.68,0,0,1,0-.51,2.44,2.44,0,0,1,.15-.47.76.76,0,0,1,.19-.32.19.19,0,0,1,.24,0,.36.36,0,0,1,.1.3,1,1,0,0,1-.17.39,2.77,2.77,0,0,0-.21.38c0,.09,0,.14.06.12s.14-.09.2-.07.09.13.06.22a1.58,1.58,0,0,1-.2.27.86.86,0,0,0-.12.36,3.13,3.13,0,0,1-.07.43,1.17,1.17,0,0,0-.11.35,1.44,1.44,0,0,0,.15.49,1.56,1.56,0,0,1,.19.57,2.86,2.86,0,0,1-.08.63,1.49,1.49,0,0,0,0,.48,2,2,0,0,0,.11.46.61.61,0,0,0,.19.27c.06,0,.11,0,.14-.07a1.17,1.17,0,0,0,0-.48,1.78,1.78,0,0,0-.16-.46l-.12-.2a.16.16,0,0,1,0-.15.62.62,0,0,1,.14-.18,1,1,0,0,0,.14-.1,1,1,0,0,0,.14-.27.83.83,0,0,0,.08-.35,1.48,1.48,0,0,0-.09-.3.25.25,0,0,1,0-.23.18.18,0,0,1,.22,0,.51.51,0,0,1,.22.31,1,1,0,0,1,0,.5c-.05.16-.14.31-.18.43a.53.53,0,0,0,0,.33c0,.1.08.2.11.35a1.61,1.61,0,0,1,0,.54,3.85,3.85,0,0,0-.09.54.4.4,0,0,0,.14.27,1.5,1.5,0,0,1,.16.19,1.34,1.34,0,0,1,.21.34c0,.12,0,.22.05.33a.74.74,0,0,0,.19.29c.07.07.12.08.16,0a.94.94,0,0,0,.1-.35c0-.16.05-.35.08-.61s.08-.57.11-.82a1.69,1.69,0,0,0,0-.62,4,4,0,0,0-.22-.45,3.07,3.07,0,0,1-.18-.59c-.06-.24-.12-.54-.15-.72a1.42,1.42,0,0,0,0-.33.92.92,0,0,0-.19-.24.62.62,0,0,1-.14-.17.91.91,0,0,0-.09-.21.53.53,0,0,0-.22-.14.53.53,0,0,1-.22-.13.16.16,0,0,1,0-.19s.12-.07.14-.12,0-.14,0-.23,0-.16.09-.18a.38.38,0,0,1,.3.1,1,1,0,0,1,.3.36,2.23,2.23,0,0,1,.12.42,1.51,1.51,0,0,0,.15.38c.05.08.09.06.13-.06a2.89,2.89,0,0,0,.09-.54,1.49,1.49,0,0,0,0-.52,4,4,0,0,0-.17-.43,1.5,1.5,0,0,1-.12-.47,4.26,4.26,0,0,0,0-.47.5.5,0,0,0-.19-.29c-.09-.07-.18-.12-.28-.22s-.2-.23-.28-.33a.51.51,0,0,0-.24-.16c-.09,0-.21,0-.24-.08s0-.12.09-.15a.88.88,0,0,1,.28,0,.62.62,0,0,0,.27-.08c.08,0,.16-.12.23-.13a.13.13,0,0,1,.13.14,2.43,2.43,0,0,0,0,.29.6.6,0,0,0,.17.29c.08.09.16.16.22.16s.11-.07.16-.18a2,2,0,0,0,.1-.36c0-.11,0-.2.1-.22a.2.2,0,0,1,.23.11.63.63,0,0,1,0,.43,3,3,0,0,1-.2.41,1,1,0,0,0-.09.36,1.06,1.06,0,0,0,0,.3c0,.11.06.27.1.4a.82.82,0,0,0,.16.31.18.18,0,0,0,.21.06.57.57,0,0,0,.2-.22,1.37,1.37,0,0,0,.17-.37,3,3,0,0,0,.06-.49,2.07,2.07,0,0,1,.07-.48c0-.13.12-.2.19-.2s.16.09.18.24a4.83,4.83,0,0,1,0,.52c0,.15,0,.25.13.23s.2-.13.29-.22a.56.56,0,0,0,.17-.24,1.38,1.38,0,0,1,.1-.33.14.14,0,0,1,.21,0,.31.31,0,0,1,.1.24c0,.09,0,.18,0,.27s0,.17,0,.23a1.16,1.16,0,0,1-.34.15c-.13.05-.24.12-.33.17l-.24.13a.59.59,0,0,0-.21.16c-.07.09-.15.24-.25.36a3.47,3.47,0,0,1-.29.31.58.58,0,0,0-.17.29c0,.12,0,.29,0,.43a1.44,1.44,0,0,1-.13.41c-.06.15-.15.32-.21.49a1.35,1.35,0,0,0-.08.52,1.55,1.55,0,0,0,.12.46c.05.13.1.22.15.24s.12-.07.17-.18a2.84,2.84,0,0,0,.14-.45A5,5,0,0,1,47,78.8a2.61,2.61,0,0,1,.29-.55A.68.68,0,0,1,47.6,78a.29.29,0,0,1,.29,0c0,.06,0,.16-.06.26s-.19.2-.28.3a.93.93,0,0,0-.19.36c0,.14-.05.31-.08.47a2,2,0,0,1-.16.49c-.07.14-.16.25-.24.39a1.35,1.35,0,0,0-.18.47,2.76,2.76,0,0,0,0,.5c0,.16,0,.32,0,.39s0,.07.09,0a1.6,1.6,0,0,0,.1-.4,2.36,2.36,0,0,1,.08-.51.63.63,0,0,1,.29-.37.57.57,0,0,1,.41-.06c.09,0,.11.13,0,.25s-.19.25-.27.39a1.82,1.82,0,0,0-.15.42,1.13,1.13,0,0,1-.21.45c-.12.14-.3.27-.39.38a.75.75,0,0,0-.15.37c0,.15-.09.36-.15.54a2.54,2.54,0,0,0-.13.54,1.92,1.92,0,0,0,.07.55c0,.19.1.38.14.5s.08.18.14.14a.84.84,0,0,0,.21-.32A2.61,2.61,0,0,0,47,84c0-.16.07-.34.12-.5s.11-.33.16-.5a4.3,4.3,0,0,0,.12-.56c0-.18,0-.33.06-.47a1,1,0,0,1,.09-.35.1.1,0,0,1,.16,0,1.48,1.48,0,0,1,.17.24c0,.07.09.11.12.06a.65.65,0,0,0,.07-.28c0-.12,0-.23,0-.32s0-.17.07-.3,0-.31.08-.47a3.07,3.07,0,0,1,.17-.46.52.52,0,0,0,.07-.31,1.14,1.14,0,0,0-.15-.28,1,1,0,0,1-.13-.33.27.27,0,0,1,.07-.25.32.32,0,0,1,.24-.06c.07,0,.1.07.12.17s0,.25,0,.34.08.13.13.09a1.19,1.19,0,0,0,.21-.27c.09-.13.21-.29.29-.39s.14-.16.22-.17a.45.45,0,0,1,.29.06.16.16,0,0,1,.07.22,1.8,1.8,0,0,1-.27.27,3.25,3.25,0,0,0-.23.28,2.06,2.06,0,0,1-.31.31,1.79,1.79,0,0,0-.24.2,1.06,1.06,0,0,0-.2.35,1,1,0,0,0-.06.35c0,.08,0,.11.09.07a1.4,1.4,0,0,0,.18-.26.73.73,0,0,1,.22-.26.18.18,0,0,1,.22,0,.3.3,0,0,1,0,.25c0,.08-.07.14,0,.19s.1.08.2.07a.36.36,0,0,0,.26-.16,3.93,3.93,0,0,0,.25-.42,1.33,1.33,0,0,1,.29-.38.31.31,0,0,1,.28-.07.16.16,0,0,1,.13.16.36.36,0,0,1-.15.23c-.09.07-.21.15-.3.22a.28.28,0,0,0-.11.24c0,.07.1.13.14.18a.1.1,0,0,1,0,.16,1.43,1.43,0,0,1-.36.08.86.86,0,0,0-.27.06.65.65,0,0,1-.27.08c-.1,0-.19-.07-.28-.08a.39.39,0,0,0-.23.09.38.38,0,0,0-.18.17c0,.09-.08.24-.16.4s-.22.33-.31.5a4.15,4.15,0,0,0-.21.47c-.06.14-.13.25-.19.38s-.13.28-.1.35.15,0,.26,0a.93.93,0,0,0,.3-.29c.1-.13.19-.3.28-.45a2.58,2.58,0,0,0,.22-.45,1.54,1.54,0,0,0,.05-.39.51.51,0,0,1,.05-.25.22.22,0,0,1,.18-.12.25.25,0,0,1,.21.11c0,.07,0,.17.08.23s.11.08.22,0a1.75,1.75,0,0,0,.36-.26c.13-.11.26-.23.36-.3s.16-.09.22-.06a.31.31,0,0,1,.13.22.23.23,0,0,1-.13.22c-.09,0-.21.08-.28.12s-.07.11-.05.2a.85.85,0,0,1,0,.28.24.24,0,0,1-.15.18c-.08,0-.17,0-.2,0s0-.16,0-.23-.06-.11-.15-.1a.92.92,0,0,0-.37.15,1.73,1.73,0,0,0-.41.35,1.22,1.22,0,0,0-.22.39c0,.11,0,.18.07.19a2,2,0,0,0,.5-.05,2.2,2.2,0,0,1,.45-.07,1.51,1.51,0,0,1,.42.07c.12,0,.2.08.22.17a.29.29,0,0,1-.1.29.47.47,0,0,1-.35,0,.57.57,0,0,0-.34,0c-.11,0-.23.12-.33.14s-.18-.05-.28-.08a.81.81,0,0,0-.37,0l-.42.13-.28.11a.6.6,0,0,0-.26.14,2,2,0,0,0-.32.46c-.1.19-.2.41-.34.69s-.33.63-.44.9a1.87,1.87,0,0,0-.14.59,1,1,0,0,0,0,.41,2.7,2.7,0,0,0,.25.53,2.81,2.81,0,0,0,.38.52c.12.12.23.15.31.11a.58.58,0,0,0,.22-.26c.06-.11.11-.21.18-.31a.59.59,0,0,1,.22-.22.25.25,0,0,1,.24,0,.22.22,0,0,1,0,.23c0,.09-.12.2-.15.3a.46.46,0,0,0,0,.25c0,.07,0,.13-.06.18s-.23.06-.3.11-.06.12,0,.21a2.24,2.24,0,0,0,.37.31,2.37,2.37,0,0,0,.57.33A6.12,6.12,0,0,0,50,90c.15,0,.13-.15,0-.38a1.61,1.61,0,0,0-1.18-1c-.19-.07-.34-.17-.35-.26s.11-.19.28-.18a2,2,0,0,1,.54.17c.16.06.27.06.32,0a.66.66,0,0,0-.08-.49,4.82,4.82,0,0,0-.44-.69,5.79,5.79,0,0,0-.45-.58c-.18-.21-.43-.45-.57-.65a.55.55,0,0,1-.13-.44.28.28,0,0,1,.23-.21.55.55,0,0,1,.46.1,1.54,1.54,0,0,1,.32.57,6.58,6.58,0,0,0,.36.74c.12.2.22.3.32.3s.17-.1.22-.24a.65.65,0,0,0,0-.46.71.71,0,0,0-.32-.31c-.11-.06-.2-.08-.2-.15a.27.27,0,0,1,.19-.21.75.75,0,0,1,.35,0c.1,0,.18,0,.23,0s.08-.14.15-.19a.19.19,0,0,1,.23,0,.26.26,0,0,1,.07.28c0,.12-.14.25-.18.35s0,.17.06.18a.53.53,0,0,0,.26-.1A.49.49,0,0,1,51,86a.27.27,0,0,1,.21.14.2.2,0,0,1-.06.26,2.25,2.25,0,0,1-.46.27,2.74,2.74,0,0,0-.39.21.9.9,0,0,0-.25.26.56.56,0,0,0,0,.31c0,.11,0,.22,0,.33a2.74,2.74,0,0,1,0,.34,2.73,2.73,0,0,0,0,.38,2,2,0,0,0,.13.4l.21.49.22.52a1.91,1.91,0,0,0,.26.5.64.64,0,0,0,.36.23c.09,0,.13-.06.13-.17a2.23,2.23,0,0,0,0-.45,3.36,3.36,0,0,0-.11-.54,2.93,2.93,0,0,0-.16-.32.4.4,0,0,1,0-.28.18.18,0,0,1,.21-.1,1,1,0,0,1,.34.14c.1.06.15.11.21.08a.34.34,0,0,0,.17-.27c0-.15,0-.34,0-.49s.08-.25.17-.27a.35.35,0,0,1,.3.16.47.47,0,0,1,0,.39,2.93,2.93,0,0,1-.19.39,2,2,0,0,1-.14.34c-.08.12-.22.25-.31.38a1,1,0,0,0-.13.44,2.78,2.78,0,0,0,0,.54,1.63,1.63,0,0,0,.13.5c.06.14.15.25.22.26s.13-.08.12-.21-.07-.31-.07-.45a.32.32,0,0,1,.13-.3c.07,0,.16,0,.22.14a1.55,1.55,0,0,1,.13.52c0,.19,0,.36,0,.55a1.88,1.88,0,0,0,.15.57,2.93,2.93,0,0,0,.31.51c.09.12.14.16.2.13a.43.43,0,0,0,.17-.25,1.09,1.09,0,0,0,0-.44,5.09,5.09,0,0,0-.1-.51c0-.19-.09-.42-.13-.63a1.52,1.52,0,0,1,0-.5.16.16,0,0,1,.19-.13.28.28,0,0,1,.17.2,1.54,1.54,0,0,1,0,.35,2.28,2.28,0,0,0,.07.47c0,.14.1.25.2.25s.22-.11.32-.3a1.92,1.92,0,0,0,.2-.63,1,1,0,0,0-.09-.47c-.07-.2-.16-.49-.23-.73S54,89.16,54,89a2.77,2.77,0,0,0-.13-.49c-.07-.18-.19-.41-.29-.62a3.77,3.77,0,0,0-.3-.53,1.24,1.24,0,0,0-.38-.36,5,5,0,0,0-.51-.26A3,3,0,0,1,52,86.5a.61.61,0,0,1-.21-.25.58.58,0,0,1,0-.35.3.3,0,0,1,.18-.21.21.21,0,0,1,.23,0,.58.58,0,0,1,.12.24c0,.08,0,.14.11.14s.19-.07.28-.08a.14.14,0,0,1,.17.11,3,3,0,0,1,0,.34c0,.15,0,.32.13.33s.22-.13.34-.2a.24.24,0,0,1,.25,0,.31.31,0,0,1,.13.15.58.58,0,0,1,.06.24c0,.09,0,.2,0,.3a1.22,1.22,0,0,0,.09.31,1.64,1.64,0,0,0,.14.29c.06.1.14.2.23.17s.17-.2.25-.38a2.48,2.48,0,0,0,.19-.54.88.88,0,0,0,0-.5c-.05-.14-.17-.25-.16-.33s.15-.13.26-.17.19-.08.14-.2a2,2,0,0,0-.38-.5c-.17-.17-.32-.31-.51-.48l-.55-.53a1.17,1.17,0,0,0-.39-.29,2.69,2.69,0,0,1-.39-.12c-.07-.05,0-.14.05-.22s.18-.13.27-.22.15-.22.22-.28a.09.09,0,0,1,.16,0c0,.07,0,.18.07.32a1.4,1.4,0,0,0,.24.42,3.94,3.94,0,0,0,.42.42,2.58,2.58,0,0,0,.52.4c.12,0,.15-.05.17-.23a3.2,3.2,0,0,0,0-.64,5,5,0,0,1-.06-.52.47.47,0,0,1,.18-.35.27.27,0,0,1,.3,0,.39.39,0,0,1,.06.3.79.79,0,0,0,0,.35c0,.08.15.11.15.19a.81.81,0,0,1-.15.32.75.75,0,0,0-.12.36,2.25,2.25,0,0,0,.07.4,3.15,3.15,0,0,1,0,.44,3.29,3.29,0,0,0,0,.52,1.53,1.53,0,0,1,0,.64,3.76,3.76,0,0,1-.4.83,7.08,7.08,0,0,0-.39.83,1.53,1.53,0,0,0-.11.63,3.83,3.83,0,0,0,.12.63,1.35,1.35,0,0,0,.2.54c.09.1.23.07.37-.07a2,2,0,0,0,.36-.67,2.16,2.16,0,0,0,.09-.68c0-.23,0-.5,0-.72a1.91,1.91,0,0,1,.08-.53,2.83,2.83,0,0,0,.15-.4c0-.15,0-.36.05-.48a.24.24,0,0,1,.21-.21.77.77,0,0,0,.36,0,.94.94,0,0,0,.38-.43.45.45,0,0,0,0-.45,1.67,1.67,0,0,0-.31-.25c-.09-.08-.13-.18-.07-.25a.35.35,0,0,1,.36-.08.72.72,0,0,1,.4.36.8.8,0,0,1,.06.63,2.43,2.43,0,0,1-.44.74,5.06,5.06,0,0,0-.52.69,2.22,2.22,0,0,0-.22.78,1.84,1.84,0,0,0,0,.76c.07.14.22.09.39,0a1.56,1.56,0,0,0,.5-.47,2.38,2.38,0,0,0,.23-.65,3,3,0,0,1,.23-.59c.09-.18.21-.35.3-.52a1.81,1.81,0,0,0,.19-.56,1.39,1.39,0,0,0,0-.58,1.25,1.25,0,0,0-.21-.37.29.29,0,0,1-.07-.26.34.34,0,0,1,.23-.16.36.36,0,0,1,.32.06.73.73,0,0,1,.24.39,1.37,1.37,0,0,1,0,.52,2.71,2.71,0,0,0-.06.43.83.83,0,0,0,.1.34c0,.08.07.1,0,.18a2.07,2.07,0,0,1-.3.3,1.44,1.44,0,0,0-.3.29,1.89,1.89,0,0,0-.25.56,1.07,1.07,0,0,0,0,.6c.06.13.21.16.32.2s.18.11.15.19a.47.47,0,0,1-.35.2,4.21,4.21,0,0,0-.56,0,1.6,1.6,0,0,0-.69.39,7.45,7.45,0,0,0-.66.66,3.52,3.52,0,0,0-.37.44c-.07.11-.08.19-.06.24s.07.06.06.11a.4.4,0,0,1-.2.21,2.71,2.71,0,0,0-.37.16c-.09.07-.11.17-.17.31a3.13,3.13,0,0,1-.26.47c-.09.14-.15.22-.22.31a1.33,1.33,0,0,0-.17.35c-.06.17-.12.42-.17.6a1.59,1.59,0,0,0-.08.54,1.44,1.44,0,0,0,.45,1"/><path class="cls-12" d="M50.59,73.4a.45.45,0,0,0,.34,0,3.39,3.39,0,0,0,.45-.12l.55-.22.53-.24L53,72.5a3.64,3.64,0,0,0,.35-.23l.14-.11a.53.53,0,0,1,.16-.06h.49l.16,0,.07,0s0,0,0,0,0,0,0,0,0,0,0,0,.15,0,.16-.06a.24.24,0,0,0,0-.17,1.14,1.14,0,0,0-.21-.19,1.63,1.63,0,0,1-.25-.24.73.73,0,0,1-.15-.29c0-.11,0-.24-.06-.35a1.42,1.42,0,0,0-.1-.32c0-.11-.12-.23-.18-.36l-.2-.38a4,4,0,0,1-.17-.37,2.32,2.32,0,0,1-.06-.25c0-.08-.05-.16-.09-.26s-.07-.2-.1-.29a.66.66,0,0,0-.09-.22,1.55,1.55,0,0,0-.2-.18.94.94,0,0,1-.17-.19c0-.06-.08-.12-.12-.16a.33.33,0,0,0-.13-.09l-.14-.06a.59.59,0,0,1-.13-.1l-.08-.08-.11,0a1,1,0,0,1-.21-.08A.46.46,0,0,1,51.4,67a.31.31,0,0,0-.11-.09.7.7,0,0,0-.16,0l-.14,0-.09,0-.12,0-.2,0-.12,0-.09,0-.13,0-.1.06-.15.09a.37.37,0,0,0-.1.09s-.05.09-.09.13l-.14.15-.13.18-.06.12-.06.1,0,.1-.08.12s0,.07,0,.11l-.07.11a1.7,1.7,0,0,1-.07.15l-.11.13a.59.59,0,0,0-.07.13l-.06.13-.1.21-.14.25-.13.28c0,.1-.09.2-.13.31a3,3,0,0,0-.09.29.55.55,0,0,0,0,.19.19.19,0,0,0,.09.14.71.71,0,0,1-.3-.1l-.16-.11-.08,0-.1,0-.16-.08-.14-.07-.16-.07L47,69.93l-.22-.12a.47.47,0,0,0-.18,0,.19.19,0,0,0-.13,0,.26.26,0,0,0-.05.14c0,.07,0,.17,0,.25s0,.16,0,.23a1,1,0,0,0,0,.2c0,.07,0,.14,0,.25s0,.25,0,.35a2,2,0,0,0,0,.27c0,.1.06.23.1.35a2.42,2.42,0,0,0,.11.28c0,.06.06.11.1.11a.27.27,0,0,0,.15-.06l.21-.15.28-.23.3-.3a1.27,1.27,0,0,1,.27-.23.34.34,0,0,1,.33,0c-.24,0-.31.06-.36.14a.77.77,0,0,0-.1.25.66.66,0,0,0,0,.22,2,2,0,0,0,0,.27c0,.1.06.2.09.33s.06.29.1.42a.84.84,0,0,0,.17.33,1.09,1.09,0,0,0,.26.2.65.65,0,0,0,.17.08l.2.06.2,0h.26l.42,0a2.71,2.71,0,0,0,.43-.08,2.16,2.16,0,0,0,.48-.2.15.15,0,0,1-.08.12"/><path class="cls-13" d="M77.26,85.2a2.32,2.32,0,0,0-.89.54,1.39,1.39,0,0,1-.46.28,1.42,1.42,0,0,1-.46.08,2.47,2.47,0,0,1-.44,0,.67.67,0,0,1-.24-.08s0-.06.05-.09.23-.05.38-.09a1.76,1.76,0,0,0,.4-.15,2.88,2.88,0,0,0,.33-.22l.32-.24c.11-.08.23-.18.37-.27a1.7,1.7,0,0,1,.76-.26,9,9,0,0,1-1.31-.23l-1-.29c-.35-.1-.7-.2-.93-.28s-.33-.15-.33-.17.08,0,.22,0a3.76,3.76,0,0,0,.51.06,3.91,3.91,0,0,0,.64,0,2.53,2.53,0,0,1,.77,0,4.93,4.93,0,0,1,.85.3c.27.11.51.18.48.1a7.65,7.65,0,0,0-.66-.58c-.33-.29-.67-.65-1-1s-.61-.55-.82-.75a1.76,1.76,0,0,1-.35-.37s.09,0,.28.11l.75.43a6.78,6.78,0,0,1,.84.47c.3.22.63.53.78.63s.09,0,0-.2-.28-.45-.46-.7a7.34,7.34,0,0,0-.62-.76c-.25-.26-.55-.56-.68-.73s-.08-.2,0-.14a4.22,4.22,0,0,1,.44.3l.51.35a4,4,0,0,1,.6.49c.25.24.56.6.66.67s0-.14-.14-.35L77,81.41c-.16-.25-.33-.55-.48-.81l-.39-.66a2,2,0,0,1-.22-.41c0-.08,0-.09.12,0a1.23,1.23,0,0,1,.27.29l.36.49.35.43c.12.14.23.29.41.48s.42.41.6.58.27.3.3.28a1.39,1.39,0,0,0-.11-.45c-.08-.26-.18-.6-.28-.92s-.22-.64-.3-.87a2.26,2.26,0,0,1-.15-.52c0-.11,0-.16.09-.12a.88.88,0,0,1,.19.3l.21.45c.08.15.16.29.25.44l.28.46c.09.16.17.32.24.48a2,2,0,0,0,.25.47,5,5,0,0,0,.13-1.31c0-.37,0-.61,0-.85a6.9,6.9,0,0,1,.06-.7,5,5,0,0,1,.09-.53c0-.12,0-.18.08-.16s.06.11.07.27,0,.4,0,.63a4.58,4.58,0,0,0,0,.7,4.47,4.47,0,0,0,.12.52c0,.14,0,.23.08.43a7.6,7.6,0,0,1,.12,1,9.8,9.8,0,0,0,.3-1.11c.07-.3.11-.5.16-.7l.14-.56a4.81,4.81,0,0,1,.15-.55c.08-.21.19-.49.39-.55-.11.06-.13.25-.14.4s0,.25,0,.43,0,.46-.06.75a9,9,0,0,0-.06.93,6.4,6.4,0,0,1,0,1.33,2.45,2.45,0,0,1,.64-.68c.16-.12.34-.28.54-.46s.41-.38.56-.55a4.53,4.53,0,0,0,.37-.48c.12-.17.28-.39.42-.43a.94.94,0,0,1-.19.42c-.08.13-.15.28-.24.44s-.18.35-.31.57-.29.46-.44.67-.3.38-.42.53-.22.29-.16.34c.24-.19.41-.3.57-.41l.41-.32a3.17,3.17,0,0,1,.4-.25l.6-.31a2.4,2.4,0,0,1,.56-.24c0,.16-.26.33-.43.45a4.55,4.55,0,0,0-.37.31l-.47.45c-.23.22-.55.53-.94.95l.75-.15.58-.14a2.94,2.94,0,0,0,.43-.16,4,4,0,0,0,.41-.23l.42-.28a1.07,1.07,0,0,1-.27.42l-.24.23a2.73,2.73,0,0,1-.34.29,4.06,4.06,0,0,1-.54.33,4,4,0,0,1-.59.27c-.18.06-.33.08-.48.12a1.46,1.46,0,0,0-.38.14h2.71a1.24,1.24,0,0,1,.37.05.27.27,0,0,1,.15.1s0,.07-.05.08a2.52,2.52,0,0,1-.32,0,3.35,3.35,0,0,0-.61.06,1.94,1.94,0,0,0-.52.19c-.15.08-.29.17-.43.23a2.51,2.51,0,0,1-.82.11,1.08,1.08,0,0,1,.89.22,2.81,2.81,0,0,0,.39.27,4.15,4.15,0,0,0,.7.26.93.93,0,0,1-.61.07l-.43-.07a1.88,1.88,0,0,1-.4-.05,8,8,0,0,1-.84-.35,3.34,3.34,0,0,1,1.16.64l.39.35a1.14,1.14,0,0,0,.68.3.43.43,0,0,1-.48.19,1.2,1.2,0,0,1-.42-.13l-.43-.25-.62-.31a3.62,3.62,0,0,1,.57.6,4.91,4.91,0,0,0,.33.39,4.2,4.2,0,0,1,.41.45,3,3,0,0,1-1.52-.78c.11.29.19.53.29.75a1.35,1.35,0,0,1,.21.6,1.08,1.08,0,0,1-.5-.44c-.14-.18-.3-.42-.65-.85a2.22,2.22,0,0,1,.42.79c.08.2.24.4.16.66a6.24,6.24,0,0,1-.57-.5,2.21,2.21,0,0,1-.45-.63c.09.37.17.55.2.75a1.48,1.48,0,0,1,0,.52c0,.12-.07.13-.1.12s-.05-.07-.09-.15-.1-.2-.16-.31a2.36,2.36,0,0,0-.22-.32c-.08-.1-.18-.19-.24-.28a.94.94,0,0,1-.07.66.68.68,0,0,1-.17.25s-.05,0-.08,0-.06-.19-.1-.3a1.7,1.7,0,0,0-.13-.31,3.46,3.46,0,0,1-.27-.54,2.09,2.09,0,0,1-.41.88.94.94,0,0,1-.3.3c-.08,0-.15,0-.15-.06a1.56,1.56,0,0,1,.1-.28,2,2,0,0,0,.06-.47,4.39,4.39,0,0,0,0-.46c-.17.3-.28.58-.37.75a.51.51,0,0,1-.26.26c-.08,0-.17,0-.19,0a.77.77,0,0,1,.09-.32,3.47,3.47,0,0,0,.12-.36.61.61,0,0,0,0-.46,1.61,1.61,0,0,1-.34.72.73.73,0,0,1-.25.21.31.31,0,0,1-.21,0,.39.39,0,0,1-.21-.1.21.21,0,0,1-.05-.17s0-.06.07-.06a.43.43,0,0,0,.14,0,.22.22,0,0,0,.16-.11.61.61,0,0,0,.1-.29,1.39,1.39,0,0,0,0-.31c0-.08,0-.14,0-.21a.72.72,0,0,1,0-.31,1.62,1.62,0,0,1,.38-.6,1.38,1.38,0,0,0-.55.56c-.07.15-.1.28-.17.43a2.13,2.13,0,0,1-.25.42c-.08.1-.14.13-.21.14a.51.51,0,0,1-.25-.07.23.23,0,0,1-.1-.15s0-.07,0-.07a1,1,0,0,0,.15.06.11.11,0,0,0,.11-.09.4.4,0,0,0,0-.19,2.07,2.07,0,0,1,0-.22.61.61,0,0,1,0-.29,1.62,1.62,0,0,1,.25-.38,8.57,8.57,0,0,1,.63-.68"/><path class="cls-14" d="M63.52,75.5a.27.27,0,0,0-.16,0,.24.24,0,0,0-.08.21c0,.06.1.1.19.13a1.18,1.18,0,0,0,.31.05.51.51,0,0,0,.28-.08,1,1,0,0,0,.21-.21c.06-.07.11-.13.08-.15h-.06l.23,0,.36-.12.41-.18.4-.19.38-.21a.94.94,0,0,0,.21-.17,1.18,1.18,0,0,0,.11-.19.85.85,0,0,0,.07-.17.14.14,0,0,0,0-.11l0-.05s0,0,0-.05,0-.06,0-.12a1.11,1.11,0,0,0-.17-.23,1.87,1.87,0,0,0-.28-.23,1.72,1.72,0,0,0-.26-.15l-.22-.1L65.28,73,65,72.93l-.35-.12-.33-.08-.09,0a.86.86,0,0,0-.73-.4,1.08,1.08,0,0,0-.54.12.72.72,0,0,0-.39.51h0l-.3.1-.23.07a1.71,1.71,0,0,0-.68-.17A.71.71,0,0,0,61,73a.59.59,0,0,0-.27.34,1.32,1.32,0,0,0,0,.65.63.63,0,0,1-.2.08.64.64,0,0,1-.22,0L60,74a2,2,0,0,0-.36,0,1,1,0,0,0-.37.06.84.84,0,0,0-.29.2.44.44,0,0,0-.13.27,1.47,1.47,0,0,0,0,.42.56.56,0,0,0,.14.29.88.88,0,0,0,.27.22.72.72,0,0,0,.32.07.88.88,0,0,0,.31,0l.35-.13a3.49,3.49,0,0,1,.42-.11l.27,0c-.27.21-.26.39-.2.53A.51.51,0,0,0,61,76a1,1,0,0,0,.45.07,1.13,1.13,0,0,0,.42-.13l.57-.29a2.59,2.59,0,0,0,.41-.23l.19,0a3.16,3.16,0,0,0,.41,0h.06"/><path class="cls-15" d="M62.1,92.39a3.87,3.87,0,0,1,.3-1.6,1.25,1.25,0,0,1-.73-.65c-.29-.55-.1-1.72-.72-2.66l-1.27-1.94A7.59,7.59,0,0,1,61.8,87a4,4,0,0,1,1.28,2.63,8,8,0,0,1,2-1.33,6.26,6.26,0,0,1,2.66-.75,5.25,5.25,0,0,0,1.43-1.12s-.21-1.66-.26-2.64-.09-2.13.19-1.87a4.21,4.21,0,0,1,1.55,2c.32,1.12.53,1.85,1.19,2.1a6.89,6.89,0,0,1,4.7,3.79,4.19,4.19,0,0,1,.29,2.24,1.36,1.36,0,0,1,.52.41c.45.58.35.94.75,1.56a1.67,1.67,0,0,0,1,.58,2.23,2.23,0,0,1-1.56.08,5.29,5.29,0,0,1-1.36-1,5.66,5.66,0,0,1-1.79,1.81C72.12,96.64,69.58,94,69.58,94a1.75,1.75,0,0,1-.51,1.2,6.43,6.43,0,0,1-1.93,1.22,12.11,12.11,0,0,1,.43-2.21,2.62,2.62,0,0,1,.92-1,2,2,0,0,0-.44-1,2.64,2.64,0,0,0-1.29-.48c-.4,0-.7.26-1.18.22s-1.1-.93-1.43-1a1.37,1.37,0,0,0-.72.24,7.34,7.34,0,0,1-.27,2.43,2.65,2.65,0,0,1-1.38,1.52,13.2,13.2,0,0,0,.64-1.21c.21-.49-.23-.79-.31-1.53"/><path class="cls-16" d="M39.54,94.25c.16,0,.34.29.91.3A1.89,1.89,0,0,0,41.63,94a7.76,7.76,0,0,1,2.64-1.64,2.49,2.49,0,0,1,2.72.08c.79.29,1.35,1,2.09,1.34a3.61,3.61,0,0,1,1.56.8.74.74,0,0,1,.43.24.63.63,0,0,1,.06.82c-.24.48-.65.28-.75.72a1.33,1.33,0,0,1-.15.45.74.74,0,0,1-.66.21c-.72-.1-.7.91-1.31,1a.77.77,0,0,1-.72-.14s-.07,0-.09,0,.17.2.29.24-.13.22-.19.31c.31.49.7.93,1,1.44a4.16,4.16,0,0,1,.47,1.41,1.91,1.91,0,0,1-.49,1.41,2.12,2.12,0,0,0-.33,1.57s.08.26-.17,0,.08-1.57.44-2.28a2.55,2.55,0,0,0-.09-1.73c-.21-.7-.83-1.14-1.16-1.76a.49.49,0,0,1-.33-.19c-.08-.1,0-.38-.2-.33-.06.22.1.42.19.6s-.11.13-.16.18a6.59,6.59,0,0,1,.9,2.87c.05.79-.41,1.51-.29,2.31.07.2.16.78.06.7a.76.76,0,0,1-.19-.42c-.34-.84.08-1.93,0-2.9a3,3,0,0,0-.11-1.1,6.6,6.6,0,0,0-.41-1,.66.66,0,0,0-.19-.3,5.55,5.55,0,0,0,.18,1.56,6,6,0,0,1,.09.71,15.84,15.84,0,0,1-.17,2.16c-.05.19-.15,0-.13-.07a17.35,17.35,0,0,0-.26-3.55,8.55,8.55,0,0,0-.1,2.09,5,5,0,0,1,0,2.26c0,.06-.09.24-.19.17a.37.37,0,0,1,0-.35,8.29,8.29,0,0,0-.11-1.79,14.4,14.4,0,0,1,0-1.56c0-.53.46-1.11,0-1.58-.12,0-.06.16-.14.2-.14.45-.47.85-.41,1.33a7.86,7.86,0,0,1,.09,2.84c-.08.24-.07.54-.28.68A.27.27,0,0,1,45,104c-.08-.21,0-.34.11-.63a16.12,16.12,0,0,0,0-2.5c0-.05-.07-.16-.11.21s0,1.78,0,2-.07.4-.17.31a.81.81,0,0,1-.16-.58c0-.23,0-1.95.16-2.9,0-.62.37-1.14.28-1.77,0-.07,0-.17-.05-.21s-.14.1-.17.17c-.11.24.1.33,0,.6a.26.26,0,0,1-.26.15,8.63,8.63,0,0,0,0,1.82c.13.9-.47,2-.41,2.54a3.5,3.5,0,0,1,.07,1.73c-.08.14-.35.33-.37.27s.26-.55.23-.81a28,28,0,0,1-.51-3c0-.9.68-1.73.75-2.63,0,0-.16-.14-.16-.28s0-.12.14-.27.14-.33.1-.31a2.11,2.11,0,0,0-.35.53c0,.09,0,.21,0,.28a.2.2,0,0,1-.13.1l-.13,0-.15.3a5,5,0,0,0-.21,2.13,1.6,1.6,0,0,1-.1.94,1.74,1.74,0,0,1-.43.87c-.08.05-.17.24-.28.13a.59.59,0,0,1,.06-.34,3.9,3.9,0,0,0,.31-2.13,7.28,7.28,0,0,1,.4-1.62c.09-.21.05-.4.13-.69s.3-.26.3-.49c-.31-.14-.26.26-.41.39a1.28,1.28,0,0,1-.05.22,2.91,2.91,0,0,1-.27.32,4.58,4.58,0,0,0-.59,2.92,3.08,3.08,0,0,1-.28,1.69c0,.08-.05.12-.12.12a.14.14,0,0,1-.1-.13,4,4,0,0,0,.2-1.51A4.45,4.45,0,0,1,42.54,99a4.19,4.19,0,0,0-1,1.29c-.42.78.07,2.31.11,2.56a.69.69,0,0,1-.08.59.11.11,0,0,1-.12,0,2.61,2.61,0,0,1-.16-.55c-.08-.3-.37-2.65.38-3.74a5.21,5.21,0,0,1,1.08-1c.19-.2.19-.31.32-.45s0-.13-.1-.14-.13.27-.18.41-.07.22-.18.2a.55.55,0,0,1-.38-.24c-.17-.33.23-.43.38-.64a.78.78,0,0,0-.5,0,1.72,1.72,0,0,1-1.19-.43c-.2-.23-.34-.48-.52-.49s-1.27-.15-1.26-.93c0-.15.15,0,.05-.66a.58.58,0,0,1,0-.33.39.39,0,0,1,.3-.23"/><path class="cls-17" d="M65.88,105.17c-.2.43-1,.59-1.33,1.08a1.37,1.37,0,0,1-1.18.73,3.33,3.33,0,0,0,1.78,1.12,1.58,1.58,0,0,1,.64.3,1,1,0,0,1,.26.6c0,.21-.11.23-.19.18-.31-.54-.81-.29-1.46-.18s-1-.52-1.56-.69c-.68.66-.54,1.38-1.07,1.93s-1,.54-1.19.47-.22-.16-.11-.29a2.25,2.25,0,0,0,.82-1.7,3.28,3.28,0,0,1,.36-.95c-.9.15-2.12.19-2.36.75s-.52.89-1,.72c-.17-.25.26-1,.43-1.29a2.42,2.42,0,0,1,1.89-1.09l.4,0a7.63,7.63,0,0,1-.43-1.23,1.9,1.9,0,0,0-1.2-1.12c-.06-.07.06-.28.11-.34a.81.81,0,0,1,.62-.15,1.94,1.94,0,0,1,1,.49A7.83,7.83,0,0,1,62.57,106c.27-.1.49-.36.73-.44s.37-.2.81-.36,1.31-.32,1.56-.63.41.18.21.62"/><path class="cls-18" d="M32.75,97c.06-.07.13-.07.24,0a2,2,0,0,1,.47.28,1.37,1.37,0,0,1,.8-.72,6.23,6.23,0,0,1,1.14-.34,6.13,6.13,0,0,1,1-.13,1.35,1.35,0,0,1,.64.11,4.44,4.44,0,0,1,1,.55A3.23,3.23,0,0,1,39.09,98a4,4,0,0,1-1.33-.24,1.83,1.83,0,0,0-.88,0,6.3,6.3,0,0,0-1.53.59c.81.91,1.46,1.74,1.89,2.26s.64.74.81.94.3.4.23.6a2.18,2.18,0,0,1,.42,1.5,1.28,1.28,0,0,1,.25,1.25.88.88,0,0,1,.1,1c.09.54.07.72-.17.86,0,.62,0,.79-.27.85.19.57.33,1,.46,1.35s.25.65.34.9a3.65,3.65,0,0,1,.17.59c0,.13,0,.17,0,.15s-.12-.1-.32-.39a17.92,17.92,0,0,1-1.1-1.83c-.25.34-.74.18-1.2-.13l-.19.08a5.34,5.34,0,0,1,.32,1.51c0,.25,0,.33-.09.4a1.31,1.31,0,0,1-.25.17c-.07,0-.1.06-.1.13a1.83,1.83,0,0,0,0,.23c0,.07,0,.11,0,.14a.85.85,0,0,0-.13.11,1,1,0,0,0-.12.21c0,.07-.06.11-.1.12s-.12,0-.18,0-.08.05-.13.13a1,1,0,0,1-.19.22.11.11,0,0,1-.15,0s-.06-.09-.1-.1-.08,0-.13,0a.3.3,0,0,1-.18,0c-.06,0-.1-.08-.18-.22a3.23,3.23,0,0,1-.27-.54,1.75,1.75,0,0,1-.1-.59c0-.21,0-.45,0-.69s0-.49,0-.77a5.88,5.88,0,0,1,.06-.94,1.41,1.41,0,0,1-.5-.45,1.16,1.16,0,0,1-.8-.16,2.19,2.19,0,0,1-.4-.32.61.61,0,0,1-.21-.36c-.35.06-.46,0-.57-.08a1.74,1.74,0,0,1-.35-.41,1.84,1.84,0,0,1-.28-.6.78.78,0,0,1-.6-.23,1.19,1.19,0,0,1-.3-.4,1.81,1.81,0,0,1-.14-.59.72.72,0,0,1-.54-.45,2.59,2.59,0,0,1-.2-.55c-.06-.21-.13-.46-.08-.52a.93.93,0,0,1-.25-.67,3,3,0,0,1,.11-.75,1.05,1.05,0,0,1,0-.59,1.25,1.25,0,0,1,.11-.3,2.52,2.52,0,0,1,.22-.33l-.1-.17a.74.74,0,0,1-.27.29.35.35,0,0,1-.32.28c-.07.21-.2.32-.29.31a.46.46,0,0,1-.39.33c0,.25-.17.35-.25.34a1.17,1.17,0,0,1-.57.72,5.86,5.86,0,0,1-.2.58l-.13.3c0,.1-.09.2-.13.28a2,2,0,0,0-.11.21.8.8,0,0,0,0,.22.62.62,0,0,1,0,.17.24.24,0,0,1-.09.09l-.07.05-.06.1a.17.17,0,0,1-.06.07l-.09,0a.18.18,0,0,0-.08.1,1.56,1.56,0,0,1-.07.18.09.09,0,0,1-.13,0,.58.58,0,0,1-.21-.21A1.59,1.59,0,0,1,26,104a2.46,2.46,0,0,1-.09-.58c0-.18,0-.32,0-.48s0-.36,0-.5A1.12,1.12,0,0,1,26,102c0-.1.07-.18.11-.29s.07-.26.11-.4a3.93,3.93,0,0,1,.13-.43,2.78,2.78,0,0,1,.18-.38l.22-.39c.09-.16.21-.37.34-.58a3.75,3.75,0,0,1,.42-.57,2.18,2.18,0,0,1,.45-.35,4.92,4.92,0,0,1,.54-.31,1.31,1.31,0,0,1,.55-.14,1.81,1.81,0,0,1,.54.11,4.12,4.12,0,0,1,.51.21,4.34,4.34,0,0,0,.42.24,1.87,1.87,0,0,0,.39-.63.37.37,0,0,0,0-.33c-.06-.07-.15-.12-.16-.24-.36-.31-.54-.48-.68-.62s-.24-.26-.31-.34a.68.68,0,0,1-.13-.18,1.37,1.37,0,0,1,0-.2,1.41,1.41,0,0,0-.06-.2l-.09-.26a1.69,1.69,0,0,0-.1-.22l-.06-.08s0,0,0-.08a1.74,1.74,0,0,1,.09-.23,1.7,1.7,0,0,1,.12-.22.34.34,0,0,1,.18-.14,1.19,1.19,0,0,1,.35,0,1.49,1.49,0,0,1,.33,0,1.26,1.26,0,0,1,.29.08,2.28,2.28,0,0,1,.24.14,1.49,1.49,0,0,1,.26.2,3.34,3.34,0,0,1,.47.6.35.35,0,0,1,.23.14l.06.11.09.09a.16.16,0,0,1,.06.08.59.59,0,0,0,0,.1.6.6,0,0,0,.09.1.45.45,0,0,1,.06.11.31.31,0,0,0,0,.08.8.8,0,0,0,.14.13,2.48,2.48,0,0,0,.39.3"/><path class="cls-19" d="M68.22,74.38a2.8,2.8,0,0,0,.61-.29A.36.36,0,0,0,69,73.9c0-.07.05-.17.08-.26s.08-.2.11-.29a.58.58,0,0,0,0-.3c.11.08.16.11.22.11s.14-.05.19-.19a.31.31,0,0,0,.13-.11.35.35,0,0,0,.06-.14.68.68,0,0,0,0-.17c.1,0,.12,0,.14-.05l.06-.06.07-.05.09,0,.07-.05a.69.69,0,0,0,0-.09s0-.05.12-.12c0,.08.12.15.25.1a.28.28,0,0,0,0,.17.1.1,0,0,0,.08.05H71l.08,0,0,.07,0,.05.05,0h.23a.15.15,0,0,1,.09.05l.05.07.06,0,.09,0,.08,0a.29.29,0,0,1,.06.08.42.42,0,0,0,.08.09L72,73l.12,0,.09.05.07.08,0,.07.06.06.11.08a.48.48,0,0,1,.12.13.69.69,0,0,1,.06.17l.07.17a1.9,1.9,0,0,1,.07.2c0,.07,0,.16.05.25a2.12,2.12,0,0,1,0,.29,2,2,0,0,1,0,.3c0,.1,0,.2,0,.29a1.65,1.65,0,0,1-.05.25,2.5,2.5,0,0,1-.09.24l-.1.21-.13.29-.19.46a.43.43,0,0,0,.28-.07l.2-.12c0,.06,0,.15,0,.22a.72.72,0,0,1,0,.17.62.62,0,0,0,0,.16c0,.05,0,.12.05.17a.19.19,0,0,1,0,.14,1.81,1.81,0,0,1-.1.2.67.67,0,0,1,0,.3,1.09,1.09,0,0,1,0,.21.88.88,0,0,1-.05.18,1,1,0,0,1-.06.13l-.07.14a.39.39,0,0,1,0,.13.51.51,0,0,1-.13.12l-.2.14A2.55,2.55,0,0,1,72,79a2.56,2.56,0,0,1,0-.27c0-.06,0-.12,0-.17a.38.38,0,0,0,0-.13.27.27,0,0,0-.07-.07l-.08,0h-.07a.06.06,0,0,0-.05,0,.21.21,0,0,0,0,.1s0,.1,0,.16,0,.14,0,.21l0,.2a2.23,2.23,0,0,0,0,.22,1.4,1.4,0,0,0,.07.19l.11.25.1.2.12.22a1.82,1.82,0,0,0,.15.22l.21.26c.07.09.13.18.19.27a2.33,2.33,0,0,1,.17.26,1.94,1.94,0,0,1,.11.25c0,.09.08.19.12.29s.06.2.09.28,0,.15.06.22a1.54,1.54,0,0,1,0,.22,1.29,1.29,0,0,1,0,.22,1.44,1.44,0,0,1-.07.25,2.92,2.92,0,0,1-.11.27.62.62,0,0,1-.15.22,1.57,1.57,0,0,1-.26.18l-.24.14a.89.89,0,0,1-.24.06,1,1,0,0,1-.23,0,.74.74,0,0,1-.22-.07,1.3,1.3,0,0,1-.23-.14.87.87,0,0,1-.16-.17.76.76,0,0,1-.12-.19.94.94,0,0,1-.08-.26.72.72,0,0,1,0-.25.83.83,0,0,1,.09-.21.84.84,0,0,1,.13-.17.58.58,0,0,1,.17-.11.52.52,0,0,1,.21-.05.71.71,0,0,1,.23,0,.42.42,0,0,1,.15.1.75.75,0,0,1,.11.16.49.49,0,0,1,.05.15.46.46,0,0,1,0,.14.51.51,0,0,1,0,.13.44.44,0,0,1-.07.11A.41.41,0,0,1,72,83a.15.15,0,0,1-.1,0,.24.24,0,0,1-.11,0,.47.47,0,0,1-.15-.18s0,0,.08,0l.09.05h.09a.09.09,0,0,0,.07-.06.26.26,0,0,0,0-.14.27.27,0,0,0-.08-.13.23.23,0,0,0-.14-.07.17.17,0,0,0-.12,0,.24.24,0,0,0-.05.11.35.35,0,0,0,0,.13.56.56,0,0,0,.06.14.44.44,0,0,0,.09.11.39.39,0,0,0,.14.08.44.44,0,0,0,.19,0,.43.43,0,0,0,.19-.07.49.49,0,0,0,.15-.14.61.61,0,0,0,.09-.2.86.86,0,0,0,0-.21.72.72,0,0,0,0-.21,1.91,1.91,0,0,0-.08-.26,2.25,2.25,0,0,0-.12-.25l-.16-.26L72,81.28,71.79,81l-.23-.29-.33-.41-.39-.52-.4-.5c-.12-.15-.21-.28-.3-.4a4.07,4.07,0,0,1-.21-.37l-.14-.29c0-.08-.09-.14-.13-.22a.88.88,0,0,1-.07-.24c0-.08,0-.16,0-.25s-.06-.19-.08-.3a1.27,1.27,0,0,1,0-.35,3,3,0,0,1,.06-.39,1.94,1.94,0,0,1,.09-.31,1.45,1.45,0,0,1,.13-.24,2.64,2.64,0,0,1,.18-.25l.24-.23.23-.21.19-.16.2-.13.18-.11a.75.75,0,0,0,.15-.13l.14-.17a.6.6,0,0,0,.09-.18.28.28,0,0,0,0-.16.33.33,0,0,0-.07-.13.2.2,0,0,0-.11-.07.32.32,0,0,0-.16,0l-.27.12a.71.71,0,0,1-.24.05H70l-.21,0-.21.05-.17.08-.22.09-.27.11-.23.1-.17.1-.11.07a.16.16,0,0,1-.11,0,.21.21,0,0,1-.11-.06.53.53,0,0,1-.07-.11l0-.09L68,74.47s0-.05,0-.07,0,0,.05,0a.26.26,0,0,1,.16,0"/><path class="cls-20" d="M55.67,130.16a39,39,0,0,1,0-78.06,39.42,39.42,0,0,1,5.29.36l-.08-3a42,42,0,1,0,31.43,60.5l-1.92-1A39,39,0,0,1,55.67,130.16Z"/><path class="cls-21" d="M55.67,130.16a39,39,0,0,1,0-78.06,39.42,39.42,0,0,1,5.29.36l-.08-3a42,42,0,1,0,31.43,60.5l-1.92-1A39,39,0,0,1,55.67,130.16Z"/><path class="cls-22" d="M104,90.68A48.32,48.32,0,1,0,13.56,114.4l2.72-1.5a45.14,45.14,0,1,1,69.46,10l1.53,4.31A48.21,48.21,0,0,0,104,90.68Z"/><path class="cls-23" d="M104,90.68A48.32,48.32,0,1,0,13.56,114.4l2.72-1.5a45.14,45.14,0,1,1,69.46,10l1.53,4.31A48.21,48.21,0,0,0,104,90.68Z"/><path class="cls-24" d="M55.75,144.85a55.76,55.76,0,0,0,10-110.6L65.16,36A53.43,53.43,0,1,1,2.82,81.32L.6,80.9a55.78,55.78,0,0,0,55.15,63.94Z"/><path class="cls-25" d="M55.75,144.85a55.76,55.76,0,0,0,10-110.6L65.16,36A53.43,53.43,0,1,1,2.82,81.32L.6,80.9a55.78,55.78,0,0,0,55.15,63.94Z"/></g></g></svg>