<svg xmlns="http://www.w3.org/2000/svg" viewBox="0 0 202 105.1"><defs><style>.a{fill:#00aeef;}</style></defs><title>Asset 1unep</title><path class="a" d="M159.3,50.9a19.5,19.5,0,0,1-13.3-23.2l12.6,1.6s4.8.2,4.7,8.8S159.3,50.9,159.3,50.9Z"/><path class="a" d="M170.6,50.9a19.5,19.5,0,0,0,13.3-23.2l-12.6,1.6s-4.8.2-4.7,8.8S170.6,50.9,170.6,50.9Z"/><path class="a" d="M164.9,18.4a2.9,2.9,0,0,1,2.9,2.9,3.2,3.2,0,0,1-1.9,2.8c-.1.1-.2.1-.2.3s.6.3.9.4l17,2A19.4,19.4,0,0,0,165,12.9h0a19.4,19.4,0,0,0-18.6,13.9l17-2c.3-.1.9-.2.9-.4s-.1-.3-.2-.3a3.2,3.2,0,0,1-1.9-2.8,2.9,2.9,0,0,1,2.9-2.9Z"/><path class="a" d="M172.7,64.7l1.1-.7s-5.5-7.4-17.7-7.4c-6.2,0-9.5,2.5-13.8,2.5a5.9,5.9,0,0,1-3.5-.9s2.1,3,9.6,3c5.5,0,9.5-3.2,13.3-3.2S171,62.8,172.7,64.7Z"/><path class="a" d="M155.8,64.7l-1.1-.7s5.5-7.4,17.7-7.4c6.2,0,9.5,2.5,13.8,2.5a5.9,5.9,0,0,0,3.5-.9s-2.1,3-9.6,3c-5.5,0-9.5-3.2-13.3-3.2S157.4,62.8,155.8,64.7Z"/><path class="a" d="M150,55.9c-.2.6-2.5-.1-4.1.4a13,13,0,0,1-15.2-8s3.9,4.2,6.9,4.4a23.2,23.2,0,0,1,9.1,2.6h.6a.8.8,0,0,0-.4-.4c-.4-.2-3.3-1.1-4.7-5.7a38.9,38.9,0,0,1-.9-5.3,48,48,0,0,1,4.4,5.7C147.2,51.9,147.3,54.4,150,55.9Z"/><path class="a" d="M140.4,51.1c-.2.2-.8-.1-1-.3s-1.8-.8-4.4-1.8a12.1,12.1,0,0,1-7-12.1,9.8,9.8,0,0,0,2.7,4.4c2,1.8,2.7,2,3.9,3.4s4,4.7,4.1,4.7.1-.2-.1-.4-.9-2-1.4-2.6-1.9-4.8.2-10a16.2,16.2,0,0,1,2,7.6c-.1,3.8-.3,2.9.6,6.1C140,50.1,140.6,51,140.4,51.1Z"/><path class="a" d="M134.3,41.8c-.1.1-.7-.7-1.1-1.4s-3.4-4-3.8-4.6A10.6,10.6,0,0,1,128.2,25s.3-.1.3,1.4a13.7,13.7,0,0,0,2.4,6,11.7,11.7,0,0,1,2.3,5.9s.1.4.3.5.2-.4.2-.4-.1-2.2-.1-3.6a8.7,8.7,0,0,1,2-5.4,7.2,7.2,0,0,0,1-1.6,2.7,2.7,0,0,1,.6-.9,21.9,21.9,0,0,1-1.1,8c-1.4,3.8-1.9,4.5-1.7,6.6C134.4,41.3,134.4,41.8,134.3,41.8Z"/><path class="a" d="M132,30.5c-.1,0-.3-.5-.3-.9a19.7,19.7,0,0,0-.8-3.2,12.8,12.8,0,0,1-1.4-5.5,14,14,0,0,1,3.9-9.3,14,14,0,0,1-.8,2.8,7.1,7.1,0,0,0-.2,4,31.1,31.1,0,0,1,.3,3.6,29.8,29.8,0,0,1-.4,4.2s-.1.4.1.4.3-.3.3-.3a8.2,8.2,0,0,1,1.8-4.2c1.7-2,4.6-3.2,5.1-4.1s-.2,3.2-3.7,6.9-2.2,1.6-3.2,4.3a7.7,7.7,0,0,0-.4,1.2C132.2,30.6,132,30.5,132,30.5Z"/><path class="a" d="M133.9,19.9a2.5,2.5,0,0,1,.5-1.4c.5-1,0-2.7.7-5.2s2-6.8,7.1-9.4l-.8.8a19.9,19.9,0,0,0-2,4.7,17.3,17.3,0,0,1-2.8,5.5c-.6.7-.4.8-.4.8a1.2,1.2,0,0,0,.6-.6,7.7,7.7,0,0,1,3.8-2.8,35.6,35.6,0,0,0,4.9-1.5,34,34,0,0,1-6.1,4.9c-2.9,1.7-3.2,1.1-5,3.4C134.6,19.1,134,19.9,133.9,19.9Z"/><path class="a" d="M140.8,10.3s0-.3.5-.8,1.1-2,2-3.4A11.8,11.8,0,0,1,151.9.2,14.8,14.8,0,0,0,150,1.8,34.7,34.7,0,0,1,147.4,5,20.7,20.7,0,0,1,144,7.6s-.4.3-.3.4.4-.1.4-.1a8.1,8.1,0,0,1,4.2-1.5c2.3-.1,4.7,0,5.1.1s-2.2,1.5-7.3,2.4-4.2,1-5,1.5S141,10.4,140.8,10.3Z"/><path class="a" d="M150,4.4s.1-.3.9-.5.8-1,3.3-2.4,5.1-1.9,7.8-.8l-1.3.2a27.1,27.1,0,0,0-2.6.9,27,27,0,0,1-4.4,1.7c-1.1.2-.6.3-.6.3h.5a12.6,12.6,0,0,1,4.3.3c1.6.6,1.6.8,2.2,1s1.4.4,1.5.6H159a14.8,14.8,0,0,1-4.7-.8,6.6,6.6,0,0,0-3.1-.7A2.1,2.1,0,0,1,150,4.4Z"/><path class="a" d="M160.2,3.1s.1-.1.8-.3a18.5,18.5,0,0,1,2.6-.9,8.4,8.4,0,0,1,6.7,1h-1.8l-3.8.5c-.6,0-1.9-.3-2.1-.1s1.2.5,1.4.6a4.5,4.5,0,0,1,2.4,1.3A16.6,16.6,0,0,0,168.6,7a31.3,31.3,0,0,1-4.5-1.3c-.9-.5-2.4-2-2.7-2.2Z"/><path class="a" d="M168.5,4.6a7.9,7.9,0,0,1,3.9,1c1.7,1,3,2.4,3.1,3.2a6,6,0,0,0-1.5-1,20.8,20.8,0,0,1-2.7-1.4Z"/><path class="a" d="M179.1,56.3l1.4-1.3c1.1-.9,1.4-2.3,2.5-4.4a19.4,19.4,0,0,1,4.6-5.7,20.8,20.8,0,0,0-.5,2.1,10.2,10.2,0,0,1-1.8,4.9c-1.4,1.6-1.4,2-3,2.9,0,0-.6.4-.6.6s1.1,0,1.1,0l1.5-.6,2.6-1.3,2.6-.9c1.4-.4,6.6-1.8,8.7-5.1a10.6,10.6,0,0,1-1.4,2.8c-.8.9-5,6.5-10.9,6.4l-3.6-.4-1.8-.2A5.4,5.4,0,0,1,179.1,56.3Z"/><path class="a" d="M192.3,36.2a21.1,21.1,0,0,0-2.7,8.5c-.5,5,.4,3.5-.5,5.7,0,0-.3.6-.2.6l2.1-1.2c1.6-1,3.1-.7,6.5-3.9s4.1-9.7,4.1-10.2a3.4,3.4,0,0,0-.8,1.4,4.6,4.6,0,0,1-.9,1.7c-.1.1-3.8,4.1-4.2,4.5a34.8,34.8,0,0,0-3,3.7c-.5.8-1.8,2.1-2.1,2a2.4,2.4,0,0,1,.1-.6,13.5,13.5,0,0,0,1.5-3.2,14.3,14.3,0,0,0,.6-3.6C193,40.7,192.4,37,192.3,36.2Z"/><path class="a" d="M195.3,41.1a1.2,1.2,0,0,1,0-.9,6,6,0,0,0-.4-3.3c-.6-1.4-2-5.3-1.9-7.9s.4-2.9.4-2.9.7,2.1.9,2.5,2.4,4.2,2.2,6.2-.3,2.7-.2,2.8.4-.3.4-.5a20.8,20.8,0,0,1,1.1-3.4c.7-1.7,3.4-5.4,4.1-7.9a12.7,12.7,0,0,1-1.5,8.3c-2.4,4-2.7,3.1-3.7,5S195.5,41.1,195.3,41.1Z"/><path class="a" d="M197.5,29.7c-.2,0-.1-1.7-.5-2.2s-4.1-4.9-4.9-9.3c0,0,2.3,2.4,2.7,2.6a8.6,8.6,0,0,1,2.4,3.2c.5,1.4.4,2.5.5,2.5s.2-1.5.2-1.5a39.4,39.4,0,0,1,.3-4.4c.3-1.4.9-3.8.6-5.1a10.5,10.5,0,0,1,1.3,5.4,14.4,14.4,0,0,1-1.6,6,11.2,11.2,0,0,0-.7,2.2C198,29.5,197.5,29.7,197.5,29.7Z"/><path class="a" d="M193.1,7.2s4.8,2.9,4.1,12.5c0,0,0,.4-.3,0a10,10,0,0,0-1.8-2.1c-.5-.3-4.8-2.9-6.6-6.9,0,0,.3-.1.7.3a12.9,12.9,0,0,0,2,1.2,7,7,0,0,1,2.8,1.7,9.4,9.4,0,0,1,1.8,2.8s.3.3.1-.5a6.2,6.2,0,0,0-.8-2.1,9,9,0,0,1-1.1-3.6A7.2,7.2,0,0,0,193.1,7.2Z"/><path class="a" d="M192.3,10.6a2.7,2.7,0,0,0-.4-1.5c-.5-.9-.1-1.9-1.6-4.3s-3.7-2.4-3.7-2.4l1.4,1.8a6.9,6.9,0,0,1,.9,1.4c.2.3,1.2,1.3,1.5,1.8a1.4,1.4,0,0,1,.2.6c0,.2-.4-.1-.5-.2a9.5,9.5,0,0,0-3-1.7,29.1,29.1,0,0,1-3.8-.7,14.6,14.6,0,0,0,5.2,2.9A6,6,0,0,1,192.3,10.6Z"/><path class="a" d="M186.7,4.7a9,9,0,0,0-7-3.3,1.6,1.6,0,0,0,.8.4c.5.1,1.4,1,1.9,1.3A12,12,0,0,0,186.7,4.7Z"/><path class="a" d="M49,0V42.2a24.3,24.3,0,0,1-1.8,9.8A19.8,19.8,0,0,1,42,59a21.6,21.6,0,0,1-7.7,4.3,31.8,31.8,0,0,1-9.8,1.4,32,32,0,0,1-9.8-1.4A21.6,21.6,0,0,1,6.9,59a19.5,19.5,0,0,1-5.1-7.1A24.5,24.5,0,0,1,0,42.2V0H13.2V42.2q0,6.3,3,9.1t8.3,2.9q5.4,0,8.3-2.9t3-9.1V0Z"/><path class="a" d="M111.7,63.9H98.5l-25.6-42v42H59.7V0H72.9L98.6,42.1V0h13.1Z"/><path class="a" d="M9.5,105.1a10.3,10.3,0,0,1-4-.7,8.8,8.8,0,0,1-3-2A8.4,8.4,0,0,1,.6,99.4,10,10,0,0,1,0,95.8v-.7a12.1,12.1,0,0,1,.6-4,9.1,9.1,0,0,1,1.8-3.1,8,8,0,0,1,2.8-2,9,9,0,0,1,3.7-.7,9.1,9.1,0,0,1,3.6.7,7.3,7.3,0,0,1,2.6,1.9,8.1,8.1,0,0,1,1.6,3,12.9,12.9,0,0,1,.5,3.8v2.2H5.2a5.3,5.3,0,0,0,.5,1.7,4.4,4.4,0,0,0,1,1.3,4.3,4.3,0,0,0,1.4.8,5,5,0,0,0,1.8.3,6.3,6.3,0,0,0,2.6-.5,5.2,5.2,0,0,0,2-1.6l2.5,2.8-1.1,1.3L14.1,104l-2.1.8A10.6,10.6,0,0,1,9.5,105.1ZM8.9,89.4a3.4,3.4,0,0,0-1.5.3,3.2,3.2,0,0,0-1.1.8,4.2,4.2,0,0,0-.7,1.2,7.1,7.1,0,0,0-.4,1.6h7.1V93a5.1,5.1,0,0,0-.2-1.4,3.1,3.1,0,0,0-.6-1.1,2.8,2.8,0,0,0-1.1-.7A4,4,0,0,0,8.9,89.4Z"/><path class="a" d="M24.9,85.7l.2,2.2A6.7,6.7,0,0,1,27.4,86a7.1,7.1,0,0,1,3.1-.7,7.6,7.6,0,0,1,2.5.4,4.5,4.5,0,0,1,1.9,1.2,5.8,5.8,0,0,1,1.2,2.3,11.7,11.7,0,0,1,.4,3.4v12.1H31.5V92.6a4.8,4.8,0,0,0-.2-1.5,2.2,2.2,0,0,0-.6-1l-1-.5H28.4a3.6,3.6,0,0,0-1.9.5,3.8,3.8,0,0,0-1.3,1.3v13.4H20.1V85.7Z"/><path class="a" d="M47.5,98.5l3.5-12.8h5.3L50,104.7H45.1L38.7,85.7H44Z"/><path class="a" d="M58.6,80.7a2.5,2.5,0,0,1,.8-1.9,2.9,2.9,0,0,1,2.1-.7l1.2.2.9.5a2.4,2.4,0,0,1,.6.8,2.7,2.7,0,0,1,.2,1,2.7,2.7,0,0,1-.2,1.1,2.4,2.4,0,0,1-.6.8l-.9.5-1.2.2-1.2-.2-.9-.5a2.4,2.4,0,0,1-.6-.8A2.7,2.7,0,0,1,58.6,80.7Zm5.4,24H58.9V85.7H64Z"/><path class="a" d="M78.9,90.4H77.1a5.1,5.1,0,0,0-2.4.5,3.1,3.1,0,0,0-1.4,1.5v12.5H68.2V85.7H73v2.3A5.7,5.7,0,0,1,74.9,86a4.4,4.4,0,0,1,2.5-.7h.9l.7.2Z"/><path class="a" d="M79.9,95a12,12,0,0,1,.6-3.9,8.8,8.8,0,0,1,1.7-3.1,8,8,0,0,1,2.8-2,9.4,9.4,0,0,1,3.8-.7,9.5,9.5,0,0,1,3.9.7,8.1,8.1,0,0,1,2.8,2,8.8,8.8,0,0,1,1.8,3.1A12.1,12.1,0,0,1,98,95v.4a12,12,0,0,1-.6,3.9,8.8,8.8,0,0,1-1.8,3.1,8,8,0,0,1-2.8,2,10.5,10.5,0,0,1-7.7,0,8,8,0,0,1-2.8-2,8.8,8.8,0,0,1-1.8-3.1,12,12,0,0,1-.6-3.9Zm5.1.4a10.8,10.8,0,0,0,.2,2.2,5.4,5.4,0,0,0,.7,1.8,3.5,3.5,0,0,0,1.2,1.2,3.6,3.6,0,0,0,1.8.4,3.5,3.5,0,0,0,1.8-.4A3.6,3.6,0,0,0,92,99.3a5.3,5.3,0,0,0,.7-1.8,10.8,10.8,0,0,0,.2-2.2V95a10.5,10.5,0,0,0-.2-2.1,5.5,5.5,0,0,0-.7-1.8,3.6,3.6,0,0,0-1.2-1.2,3.5,3.5,0,0,0-1.8-.4,3.4,3.4,0,0,0-1.8.4,3.5,3.5,0,0,0-1.2,1.2,5.6,5.6,0,0,0-.7,1.8A10.5,10.5,0,0,0,85,95Z"/><path class="a" d="M105.8,85.7l.2,2.2a6.7,6.7,0,0,1,2.4-1.9,7.1,7.1,0,0,1,3.1-.7,7.6,7.6,0,0,1,2.5.4,4.5,4.5,0,0,1,1.9,1.2,5.8,5.8,0,0,1,1.2,2.3,11.7,11.7,0,0,1,.4,3.4v12.1h-5.1V92.6a4.8,4.8,0,0,0-.2-1.5,2.2,2.2,0,0,0-.6-1l-1-.5h-1.3a3.6,3.6,0,0,0-1.9.5,3.8,3.8,0,0,0-1.3,1.3v13.4H101V85.7Z"/><path class="a" d="M126.1,85.7l.2,2.1a6.8,6.8,0,0,1,2.3-1.8,7.2,7.2,0,0,1,3.2-.7,6.4,6.4,0,0,1,3,.7,4.6,4.6,0,0,1,2,2.2,6.8,6.8,0,0,1,2.4-2.1,6.9,6.9,0,0,1,3.4-.8,7.8,7.8,0,0,1,2.5.4,4.7,4.7,0,0,1,1.9,1.3,5.8,5.8,0,0,1,1.2,2.2,11.5,11.5,0,0,1,.4,3.4v12.1h-5.1V92.6a5.1,5.1,0,0,0-.2-1.6,2.2,2.2,0,0,0-.6-1l-.9-.5h-1.2a3.2,3.2,0,0,0-2,.6,3.6,3.6,0,0,0-1.2,1.6v13.1h-5.1V92.6a5.3,5.3,0,0,0-.2-1.6,2.2,2.2,0,0,0-.6-1,2,2,0,0,0-.9-.5h-1.2a3.6,3.6,0,0,0-1.9.5,3.4,3.4,0,0,0-1.2,1.3v13.5h-5.1V85.7Z"/><path class="a" d="M161.4,105.1a10.3,10.3,0,0,1-4-.7,8.8,8.8,0,0,1-3-2,8.4,8.4,0,0,1-1.9-2.9,10,10,0,0,1-.6-3.6v-.7a12.1,12.1,0,0,1,.6-4,9.1,9.1,0,0,1,1.8-3.1,8,8,0,0,1,2.8-2,9.9,9.9,0,0,1,7.3-.1,7.3,7.3,0,0,1,2.6,1.9,8.1,8.1,0,0,1,1.6,3,12.9,12.9,0,0,1,.5,3.8v2.2H157.1a5.3,5.3,0,0,0,.5,1.7,4.4,4.4,0,0,0,1,1.3,4.3,4.3,0,0,0,1.4.8,5,5,0,0,0,1.8.3,6.3,6.3,0,0,0,2.6-.5,5.2,5.2,0,0,0,2-1.6l2.5,2.8-1.1,1.3L166,104l-2.1.8A10.6,10.6,0,0,1,161.4,105.1Zm-.6-15.6a3.4,3.4,0,0,0-1.5.3,3.2,3.2,0,0,0-1.1.8,4.2,4.2,0,0,0-.7,1.2,7.1,7.1,0,0,0-.4,1.6h7.1V93a5.1,5.1,0,0,0-.2-1.4,3.1,3.1,0,0,0-.6-1.1,2.8,2.8,0,0,0-1.1-.7A4,4,0,0,0,160.8,89.4Z"/><path class="a" d="M176.8,85.7l.2,2.2a6.7,6.7,0,0,1,2.4-1.9,7.1,7.1,0,0,1,3.1-.7,7.6,7.6,0,0,1,2.5.4,4.5,4.5,0,0,1,1.9,1.2,5.8,5.8,0,0,1,1.2,2.3,11.7,11.7,0,0,1,.4,3.4v12.1h-5.1V92.6a4.8,4.8,0,0,0-.2-1.5,2.2,2.2,0,0,0-.6-1l-1-.5h-1.3a3.6,3.6,0,0,0-1.9.5,3.8,3.8,0,0,0-1.3,1.3v13.4H172V85.7Z"/><path class="a" d="M198.4,81v4.7h3.3v3.7h-3.3v9.5a3.3,3.3,0,0,0,.1,1,1.3,1.3,0,0,0,.4.6l.6.3h2.4v3.9l-1.4.3h-1.7a7.7,7.7,0,0,1-2.3-.3,4.3,4.3,0,0,1-1.7-1,4.4,4.4,0,0,1-1.1-1.7,7.7,7.7,0,0,1-.4-2.6V89.4h-2.8V85.7h2.8V81Z"/></svg>