<svg xmlns="http://www.w3.org/2000/svg" viewBox="0 0 70.56 70.56"><defs><style>.cls-1{fill:#19486a;}.cls-2{fill:#fff;}</style></defs><title>Asset 18</title><g id="Layer_2" data-name="Layer 2"><g id="OUTLINE"><rect class="cls-1" width="70.56" height="70.56"/><polygon class="cls-2" points="10.56 5.91 10.56 20.14 8.17 20.14 8.17 9.25 8.14 9.25 6.47 10.99 6.45 10.99 6.45 8.49 8.65 5.91 10.56 5.91"/><polygon class="cls-2" points="11.65 5.91 17.65 5.91 17.65 8.12 14.52 20.14 12.15 20.14 15.34 7.86 11.65 7.86 11.65 5.91"/><path class="cls-2" d="M53.21,42.79a9.2,9.2,0,0,0-8.85-9.18,9.19,9.19,0,0,0-17.33,0A9.18,9.18,0,0,0,21.73,50a9.18,9.18,0,0,0,14,10.13A9.18,9.18,0,0,0,49.68,50a9.18,9.18,0,0,0,3.53-7.23M43,36.67a7.34,7.34,0,0,1-6.26,7.25,7.27,7.27,0,0,1,6.16-8.38,7.31,7.31,0,0,1,.1,1.13M35.73,57.78a7.32,7.32,0,0,1-.07-10.45,7.32,7.32,0,0,1,.07,10.45M28.45,35.54a7.27,7.27,0,0,1,6.16,8.38,7.27,7.27,0,0,1-6.16-8.38m5.47,10.53A7.31,7.31,0,0,1,24,49.3a7.31,7.31,0,0,1,9.93-3.23m3.52,0a7.31,7.31,0,0,1,10,3.27,7.31,7.31,0,0,1-10-3.27m-1.75-16.7a7.35,7.35,0,0,1,6.73,4.41,9.22,9.22,0,0,0-6.73,5.16A9.21,9.21,0,0,0,29,33.74a7.35,7.35,0,0,1,6.73-4.41M20,42.79a7.35,7.35,0,0,1,6.55-7.3,9.32,9.32,0,0,0-.08,1.17,9.17,9.17,0,0,0,3,6.79,9.21,9.21,0,0,0-7,4.78A7.32,7.32,0,0,1,20,42.79m3.18,9.8a7.26,7.26,0,0,1,.16-1.52,9.17,9.17,0,0,0,8.43-.23,9.15,9.15,0,0,0,2.44,8.08,7.32,7.32,0,0,1-11-6.33m25-.06a7.33,7.33,0,0,1-11,6.38,9.15,9.15,0,0,0,2.35-8.07,9.17,9.17,0,0,0,8.46.23,7.27,7.27,0,0,1,.15,1.47m-6.24-9.12a9.17,9.17,0,0,0,2.95-6.73,9.32,9.32,0,0,0-.08-1.17,7.33,7.33,0,0,1,4.14,12.72,9.21,9.21,0,0,0-7-4.81"/><path class="cls-2" d="M22.29,5.86h1.48c1,0,1.38.5,1.38,1.33V8.44c0,.83-.37,1.34-1.38,1.34h-.48v2h-1Zm1,.82V9h.37a.43.43,0,0,0,.49-.49V7.15c0-.32-.15-.48-.49-.48Z"/><path class="cls-2" d="M25.16,11.8l1.12-5.95h1.14l1.13,5.95h-1l-.18-1.09H26.28L26.1,11.8Zm1.25-1.89h.8l-.39-2.39h0Z"/><path class="cls-2" d="M30,9.08V11.8H29V5.86h1.46c1,0,1.38.5,1.38,1.33V8c0,.64-.23,1-.8,1.15l1,2.7H30.9Zm0-2.4V8.52h.33A.43.43,0,0,0,30.79,8V7.15c0-.32-.15-.48-.49-.48Z"/><path class="cls-2" d="M32.14,5.86H34.8v.82H34V11.8H33V6.67h-.82Z"/><path class="cls-2" d="M36.1,8.07V11.8h-.84V5.86h1l1.08,3.41V5.86h.83V11.8h-.88Z"/><path class="cls-2" d="M38.72,5.86h2.39v.82H39.72v1.7h1v.81h-1V11h1.39v.82H38.72Z"/><path class="cls-2" d="M42.64,9.08V11.8h-1V5.86H43.1c1,0,1.38.5,1.38,1.33V8c0,.64-.23,1-.8,1.15l1,2.7H43.58Zm0-2.4V8.52H43A.43.43,0,0,0,43.47,8V7.15c0-.32-.15-.48-.49-.48Z"/><path class="cls-2" d="M44.92,10.52v-.8h.93v.82c0,.33.15.53.49.53s.46-.21.46-.53v-.23a1.07,1.07,0,0,0-.45-.84l-.59-.59a2,2,0,0,1-.83-1.59v-.2a1.24,1.24,0,0,1,1.4-1.31c1,0,1.39.49,1.39,1.35v.48h-.91V7.1c0-.34-.16-.51-.47-.51a.44.44,0,0,0-.47.49v.12c0,.33.18.53.47.81l.64.63a2,2,0,0,1,.81,1.54v.29a1.29,1.29,0,0,1-1.46,1.39A1.24,1.24,0,0,1,44.92,10.52Z"/><path class="cls-2" d="M50.28,9.18h-1V11.8h-1V5.86h1V8.37h1V5.86h1V11.8h-1Z"/><path class="cls-2" d="M51.86,5.86h1V11.8h-1Z"/><path class="cls-2" d="M53.44,5.86h1.48c1,0,1.38.5,1.38,1.33V8.44c0,.83-.37,1.34-1.38,1.34h-.48v2h-1Zm1,.82V9h.37a.43.43,0,0,0,.49-.49V7.15c0-.32-.15-.48-.49-.48Z"/><path class="cls-2" d="M56.76,10.52v-.8h.93v.82c0,.33.15.53.49.53s.46-.21.46-.53v-.23a1.07,1.07,0,0,0-.45-.84l-.59-.59a2,2,0,0,1-.83-1.59v-.2a1.24,1.24,0,0,1,1.4-1.31c1,0,1.39.49,1.39,1.35v.48h-.91V7.1c0-.34-.16-.51-.47-.51a.44.44,0,0,0-.47.49v.12c0,.33.18.53.47.81l.64.63a2,2,0,0,1,.81,1.54v.29a1.29,1.29,0,0,1-1.46,1.39A1.24,1.24,0,0,1,56.76,10.52Z"/><path class="cls-2" d="M22.29,14.19h2.34V15H23.29v1.7h1v.81h-1v2.62h-1Z"/><path class="cls-2" d="M25,18.6V15.72a1.52,1.52,0,1,1,3,0V18.6a1.52,1.52,0,1,1-3,0Zm2,.16V15.56c0-.36-.16-.61-.52-.61s-.51.25-.51.61v3.19c0,.36.16.61.51.61S27,19.12,27,18.76Z"/><path class="cls-2" d="M29.58,17.41v2.73h-1V14.19H30c1,0,1.38.5,1.38,1.33v.76c0,.64-.23,1-.8,1.15l1,2.7H30.51Zm0-2.4v1.85h.33a.43.43,0,0,0,.49-.49v-.88c0-.32-.15-.48-.49-.48Z"/><path class="cls-2" d="M32.76,14.19h2.66V15h-.82v5.13h-1V15h-.82Z"/><path class="cls-2" d="M37.85,17.51h-1v2.62h-1V14.19h1V16.7h1V14.19h1v5.95h-1Z"/><path class="cls-2" d="M39.42,14.19h2.39V15H40.42v1.7h1v.81h-1v1.81h1.39v.82H39.42Z"/><path class="cls-2" d="M44.77,17h1.42v3.18h-.72v-.65a.9.9,0,0,1-1,.72c-.86,0-1.25-.68-1.25-1.61V15.72a1.41,1.41,0,0,1,1.5-1.61c1.11,0,1.43.61,1.43,1.49v.53h-.91v-.61c0-.37-.14-.58-.5-.58s-.52.25-.52.61v3.19c0,.36.15.61.49.61s.49-.18.49-.57V17.75h-.47Z"/><path class="cls-2" d="M46.76,18.6V15.72a1.52,1.52,0,1,1,3,0V18.6a1.52,1.52,0,1,1-3,0Zm2,.16V15.56c0-.36-.16-.61-.52-.61s-.51.25-.51.61v3.19c0,.36.16.61.51.61S48.79,19.12,48.79,18.76Z"/><path class="cls-2" d="M50.07,20.13l1.12-5.95h1.14l1.13,5.95h-1L52.25,19H51.19L51,20.13Zm1.25-1.89h.8l-.39-2.39h0Z"/><path class="cls-2" d="M53.88,14.19h1v5.13h1.19v.82H53.88Z"/><path class="cls-2" d="M56.43,18.85v-.8h.93v.82c0,.33.15.53.49.53s.46-.21.46-.53v-.23a1.07,1.07,0,0,0-.45-.84l-.59-.59a2,2,0,0,1-.83-1.59v-.2a1.24,1.24,0,0,1,1.4-1.31c1,0,1.39.49,1.39,1.35V16h-.91v-.52c0-.34-.16-.51-.47-.51a.44.44,0,0,0-.47.49v.12c0,.33.18.53.47.81l.64.63a2,2,0,0,1,.81,1.54v.29a1.29,1.29,0,0,1-1.46,1.39A1.24,1.24,0,0,1,56.43,18.85Z"/></g></g></svg>