<svg xmlns="http://www.w3.org/2000/svg" viewBox="0 0 70.36 70.36"><defs><style>.cls-1{fill:#fd6925;}.cls-2{fill:#fff;}</style></defs><title>Asset 10</title><g id="Layer_2" data-name="Layer 2"><g id="OUTLINE"><rect class="cls-1" width="70.36" height="70.36"/><path class="cls-2" d="M53.15,46.26l-8.36-4.83V31.77a.57.57,0,0,0-.29-.49l-8.65-5a.57.57,0,0,0-.57,0l-8.65,5a.57.57,0,0,0-.29.49v9.66L18,46.26a.57.57,0,0,0-.29.49v10a.57.57,0,0,0,.29.49l8.65,5a.57.57,0,0,0,.57,0l8.36-4.83,8.36,4.83a.57.57,0,0,0,.57,0l8.65-5a.57.57,0,0,0,.29-.49v-10A.57.57,0,0,0,53.15,46.26ZM35,55.75l-6.94-4,6.94-4Zm8.08-14-6.94,4v-8Zm-8.08,4-6.94-4,6.94-4Zm1.71,1,7.51-4.33,7.51,4.33-7.51,4.33Zm6.94-6-6.94-4,6.94-4Zm-9.22-4-6.94,4v-8Zm-8.08,24-7.51-4.33V47.74l7.51,4.34Zm1.14,0v-8l6.94,4Zm24.8-4.33-7.51,4.33V52.07l7.51-4.34Z"/><path class="cls-2" d="M12.89,9.47c0-2.2-1-3.79-3.47-3.79S5.9,7.06,5.9,9.26v2.09c0,2.32.92,3.49,2.64,3.49a2,2,0,0,0,2-1.15h0v3.05c0,.86-.33,1.46-1.19,1.46s-1.17-.5-1.17-1.38v-.94H6v.75c0,2.09.75,3.55,3.39,3.55s3.51-1.61,3.51-3.83Zm-2.36,2.17c0,.79-.38,1.3-1.13,1.3s-1.13-.5-1.13-1.42V9c0-.9.33-1.42,1.15-1.42s1.11.54,1.11,1.42Z"/><path class="cls-2" d="M17,5.91h1v5.93H17Z"/><path class="cls-2" d="M19.12,8.11v3.73h-.84V5.91h1l1.08,3.4V5.91h.83v5.93h-.87Z"/><path class="cls-2" d="M24.47,7.5v2.75c0,.91-.38,1.59-1.44,1.59H21.48V5.91H23C24.09,5.91,24.47,6.58,24.47,7.5ZM22.9,11c.41,0,.57-.24.57-.6V7.32a.52.52,0,0,0-.57-.59h-.42V11Z"/><path class="cls-2" d="M27.67,5.91V10.4c0,.92-.39,1.51-1.41,1.51a1.34,1.34,0,0,1-1.49-1.51V5.91h1v4.58c0,.35.14.59.49.59s.49-.24.49-.59V5.91Z"/><path class="cls-2" d="M27.94,10.56v-.8h.93v.81c0,.33.15.52.49.52s.45-.21.45-.52v-.23a1.07,1.07,0,0,0-.45-.84l-.59-.59a2,2,0,0,1-.83-1.58v-.2a1.24,1.24,0,0,1,1.4-1.3c1,0,1.39.49,1.39,1.35v.48h-.91V7.15c0-.34-.16-.51-.47-.51a.44.44,0,0,0-.47.49v.12c0,.33.18.52.47.8l.64.63a2,2,0,0,1,.8,1.54v.29a1.28,1.28,0,0,1-1.45,1.39A1.23,1.23,0,0,1,27.94,10.56Z"/><path class="cls-2" d="M30.82,5.91h2.65v.81h-.82v5.12h-1V6.72h-.82Z"/><path class="cls-2" d="M34.68,9.12v2.72h-1V5.91h1.45c1,0,1.37.5,1.37,1.33V8c0,.64-.23,1-.8,1.15l1,2.69h-1Zm0-2.4V8.57H35a.43.43,0,0,0,.49-.49V7.2c0-.32-.15-.48-.49-.48Z"/><path class="cls-2" d="M38.61,9.58v2.26h-1V9.58L36.5,5.91h1l.6,2.25h0l.6-2.25h1Z"/><path class="cls-2" d="M40.31,11,39.8,12.3h-.56l.12-1.42h.94Z"/><path class="cls-2" d="M41.29,5.91h1v5.93h-1Z"/><path class="cls-2" d="M43.45,8.11v3.73h-.84V5.91h1l1.08,3.4V5.91h.83v5.93h-.87Z"/><path class="cls-2" d="M46.65,8.11v3.73h-.84V5.91h1l1.08,3.4V5.91h.83v5.93h-.87Z"/><path class="cls-2" d="M49,10.31V7.44a1.51,1.51,0,1,1,3,0v2.87a1.51,1.51,0,1,1-3,0Zm2,.16V7.28c0-.36-.16-.61-.52-.61s-.51.25-.51.61v3.18c0,.36.16.61.51.61S51,10.83,51,10.47Z"/><path class="cls-2" d="M55.36,5.91l-1.13,5.93H53.15L52,5.91h1L53.71,10h0l.7-4.14Z"/><path class="cls-2" d="M54.83,11.84,56,5.91h1.14l1.13,5.93h-1L57,10.76H56l-.17,1.08ZM56.08,10h.8l-.39-2.38h0Z"/><path class="cls-2" d="M57.82,5.91h2.65v.81h-.82v5.12h-1V6.72h-.82Z"/><path class="cls-2" d="M60.68,5.91h1v5.93h-1Z"/><path class="cls-2" d="M62,10.31V7.44a1.51,1.51,0,1,1,3,0v2.87a1.51,1.51,0,1,1-3,0Zm2,.16V7.28c0-.36-.16-.61-.52-.61s-.51.25-.51.61v3.18c0,.36.16.61.51.61S64,10.83,64,10.47Z"/><path class="cls-2" d="M66.17,8.11v3.73h-.84V5.91h1l1.08,3.4V5.91h.83v5.93h-.87Z"/><path class="cls-2" d="M16.81,20.15l1.12-5.93h1.14l1.13,5.93h-1L19,19.06H17.92l-.17,1.08Zm1.25-1.88h.8l-.39-2.38h0Z"/><path class="cls-2" d="M21.19,16.42v3.73h-.84V14.22h1l1.08,3.4v-3.4h.83v5.93h-.87Z"/><path class="cls-2" d="M26.53,15.81v2.75c0,.91-.38,1.59-1.44,1.59H23.55V14.22h1.54C26.15,14.22,26.53,14.89,26.53,15.81ZM25,19.33c.41,0,.57-.24.57-.6v-3.1A.52.52,0,0,0,25,15h-.42v4.3Z"/><path class="cls-2" d="M27.51,14.22h1v5.93h-1Z"/><path class="cls-2" d="M29.67,16.42v3.73h-.84V14.22h1l1.08,3.4v-3.4h.83v5.93h-.87Z"/><path class="cls-2" d="M32,14.22h2.34V15H33v1.7h1v.8H33v2.62H32Z"/><path class="cls-2" d="M35.54,17.43v2.72h-1V14.22H36c1,0,1.37.5,1.37,1.33v.76c0,.64-.23,1-.8,1.15l1,2.69h-1Zm0-2.4v1.85h.33a.43.43,0,0,0,.49-.49v-.87c0-.32-.15-.48-.49-.48Z"/><path class="cls-2" d="M37.5,20.15l1.12-5.93h1.14l1.13,5.93h-1l-.18-1.08H38.62l-.17,1.08Zm1.25-1.88h.8l-.39-2.38h0Z"/><path class="cls-2" d="M40.9,18.87v-.8h.93v.81c0,.33.15.52.49.52s.45-.21.45-.52v-.23a1.07,1.07,0,0,0-.45-.84l-.59-.59a2,2,0,0,1-.83-1.58v-.2a1.24,1.24,0,0,1,1.4-1.3c1,0,1.39.49,1.39,1.35V16h-.91v-.52c0-.34-.16-.51-.47-.51a.44.44,0,0,0-.47.49v.12c0,.33.18.52.47.8L43,17a2,2,0,0,1,.8,1.54v.29a1.28,1.28,0,0,1-1.45,1.39A1.24,1.24,0,0,1,40.9,18.87Z"/><path class="cls-2" d="M43.79,14.22h2.65V15h-.82v5.12h-1V15h-.82Z"/><path class="cls-2" d="M47.65,17.43v2.72h-1V14.22H48.1c1,0,1.37.5,1.37,1.33v.76c0,.64-.23,1-.8,1.15l1,2.69h-1Zm0-2.4v1.85H48a.43.43,0,0,0,.49-.49v-.87c0-.32-.15-.48-.49-.48Z"/><path class="cls-2" d="M52.66,14.22V18.7c0,.92-.39,1.51-1.41,1.51a1.34,1.34,0,0,1-1.49-1.51V14.22h1V18.8c0,.35.14.59.49.59s.49-.24.49-.59V14.22Z"/><path class="cls-2" d="M53,18.62V15.75a1.4,1.4,0,0,1,1.49-1.6c1.1,0,1.41.61,1.41,1.49v.7H55v-.78c0-.37-.12-.58-.48-.58s-.51.25-.51.61v3.18c0,.36.15.61.51.61s.48-.23.48-.58V17.72h.91v1c0,.85-.35,1.48-1.41,1.48A1.4,1.4,0,0,1,53,18.62Z"/><path class="cls-2" d="M56,14.22H58.6V15h-.82v5.12h-1V15H56Z"/><path class="cls-2" d="M61.71,14.22V18.7c0,.92-.39,1.51-1.41,1.51a1.34,1.34,0,0,1-1.49-1.51V14.22h1V18.8c0,.35.14.59.49.59s.49-.24.49-.59V14.22Z"/><path class="cls-2" d="M63,17.43v2.72H62V14.22h1.45c1,0,1.37.5,1.37,1.33v.76c0,.64-.23,1-.8,1.15l1,2.69H64ZM63,15v1.85h.33a.43.43,0,0,0,.49-.49v-.87c0-.32-.15-.48-.49-.48Z"/><path class="cls-2" d="M65.13,14.22h2.38V15H66.13v1.7h1v.8h-1v1.8h1.38v.81H65.13Z"/></g></g></svg>