<svg xmlns="http://www.w3.org/2000/svg" viewBox="0 0 70.36 70.36"><defs><style>.cls-1{fill:#c5192d;}.cls-2{fill:#fff;}</style></defs><title>Asset 5</title><g id="Layer_2" data-name="Layer 2"><g id="OUTLINE"><rect class="cls-1" width="70.36" height="70.36"/><path class="cls-2" d="M11,20.08h2.26v-2.3h1V15.92h-1V5.9H10.94L6.82,16.32v1.46H11ZM8.91,15.92,11,10.08h0v5.84Z"/><polygon class="cls-2" points="31.2 37.73 18.58 30.44 18.58 54.01 31.2 57.82 31.2 37.73"/><polygon class="cls-2" points="32.59 37.78 32.59 57.83 45.29 54.01 45.29 30.44 32.59 37.78"/><path class="cls-2" d="M55.19,29.84a1.49,1.49,0,1,0-3,0v1.61h3Z"/><polygon class="cls-2" points="52.58 53.59 52.21 53.59 53.7 58.81 55.19 53.59 54.82 53.59 55.19 53.59 55.19 32.62 54.82 32.62 54.45 32.62 54.06 32.62 53.32 32.62 52.95 32.62 52.58 32.62 52.21 32.62 52.21 53.59 52.58 53.59"/><polygon class="cls-2" points="48 31.45 46.65 30.39 46.65 54.65 32.63 59.18 31.98 59.18 31.85 59.18 31.2 59.18 17.24 55.28 17.24 30.39 15.89 31.45 15.89 56.23 31.14 60.45 31.85 60.45 31.98 60.45 32.69 60.45 46.76 55.99 48 55.62 48 31.45"/><path class="cls-2" d="M21.23,12.06v-.4a1.36,1.36,0,0,1-1.14-1.53V7.26a1.41,1.41,0,0,1,1.5-1.6,1.41,1.41,0,0,1,1.51,1.6v2.87a1.42,1.42,0,0,1-.73,1.4l.73.14v.74Zm.88-1.72V7.1c0-.36-.16-.61-.52-.61s-.51.25-.51.61v3.24c0,.35.16.61.51.61S22.12,10.69,22.12,10.34Z"/><path class="cls-2" d="M26.58,5.73v4.49c0,.92-.39,1.51-1.41,1.51a1.34,1.34,0,0,1-1.49-1.51V5.73h1v4.58c0,.35.14.59.49.59s.49-.24.49-.59V5.73Z"/><path class="cls-2" d="M26.86,11.66,28,5.73h1.14l1.13,5.93h-1L29,10.57H28l-.17,1.08Zm1.25-1.88h.8L28.51,7.4h0Z"/><path class="cls-2" d="M30.65,5.73h1v5.12h1.19v.81H30.65Z"/><path class="cls-2" d="M33.29,5.73h1v5.93h-1Z"/><path class="cls-2" d="M34.75,5.73H37.4v.81h-.82v5.12h-1V6.54h-.82Z"/><path class="cls-2" d="M39.81,9.4v2.26h-1V9.4L37.7,5.73h1L39.34,8h0L40,5.73h1Z"/><path class="cls-2" d="M20.1,14h2.38v.81H21.09v1.7h1v.8h-1v1.8h1.38V20H20.1Z"/><path class="cls-2" d="M26,15.63v2.75c0,.91-.38,1.59-1.44,1.59H23V14h1.54C25.62,14,26,14.71,26,15.63Zm-1.57,3.52c.41,0,.57-.24.57-.6V15.44a.52.52,0,0,0-.57-.59H24v4.3Z"/><path class="cls-2" d="M29.45,14v4.49c0,.92-.39,1.51-1.41,1.51a1.34,1.34,0,0,1-1.49-1.51V14h1v4.58c0,.35.14.59.49.59s.49-.24.49-.59V14Z"/><path class="cls-2" d="M30,18.43V15.57A1.4,1.4,0,0,1,31.51,14c1.1,0,1.41.61,1.41,1.49v.7H32v-.78c0-.37-.12-.58-.48-.58S31,15,31,15.41v3.18c0,.36.15.61.51.61S32,19,32,18.63V17.53h.91v1c0,.85-.35,1.48-1.41,1.48A1.4,1.4,0,0,1,30,18.43Z"/><path class="cls-2" d="M33.21,20,34.33,14h1.14L36.6,20h-1l-.18-1.08H34.33L34.16,20Zm1.25-1.88h.8l-.39-2.38h0Z"/><path class="cls-2" d="M36.46,14h2.65v.81h-.82V20h-1V14.85h-.82Z"/><path class="cls-2" d="M39.57,14h1V20h-1Z"/><path class="cls-2" d="M41.15,18.43V15.57a1.51,1.51,0,1,1,3,0v2.87a1.51,1.51,0,1,1-3,0Zm2,.16V15.41c0-.36-.16-.61-.52-.61s-.51.25-.51.61v3.18c0,.36.16.61.51.61S43.17,19,43.17,18.59Z"/><path class="cls-2" d="M45.57,16.24V20h-.84V14h1l1.08,3.4V14h.83V20h-.87Z"/></g></g></svg>