<svg xmlns="http://www.w3.org/2000/svg" viewBox="0 0 70.56 70.56"><defs><style>.cls-1{fill:#56c02b;}.cls-2{fill:#fff;}</style></defs><title>Asset 16</title><g id="Layer_2" data-name="Layer 2"><g id="OUTLINE"><rect class="cls-1" width="70.56" height="70.56"/><polygon class="cls-2" points="5.17 8.49 5.17 10.98 5.19 10.98 6.87 9.24 6.89 9.24 6.89 20.13 9.28 20.13 9.28 5.91 7.37 5.91 5.17 8.49"/><path class="cls-2" d="M15,10.42a2.16,2.16,0,0,0-2,1h0V7.86H17v-2H10.75v8h2.18v-.32c0-.84.38-1.3,1-1.3s1,.5,1,1.28V17c0,.75-.27,1.28-1,1.28s-1.11-.55-1.11-1.38V15.14H10.71v1.62c0,2.16.86,3.55,3.29,3.55S17.4,19,17.4,17V13.57c0-2.25-1.15-3.15-2.43-3.15"/><rect class="cls-2" x="26.98" y="47.71" width="2.39" height="5.45" rx="0.16" ry="0.16"/><path class="cls-2" d="M52.05,55.36H17.79a.16.16,0,0,0-.16.16v2.09a.16.16,0,0,0,.16.15H52.05a.16.16,0,0,0,.16-.15V55.52a.16.16,0,0,0-.16-.16"/><path class="cls-2" d="M52.05,59.53H17.79a.16.16,0,0,0-.16.15v2.1a.16.16,0,0,0,.16.15H52.05a.16.16,0,0,0,.16-.15v-2.1a.16.16,0,0,0-.16-.15"/><path class="cls-2" d="M45.53,42a5.07,5.07,0,0,0-3-1.12,4,4,0,0,0-2.75,1.17.29.29,0,0,0-.09.21v.19a.3.3,0,0,0,.1.23.27.27,0,0,0,.24.06l.06,0a.46.46,0,0,0,.17-.11,2.77,2.77,0,0,1,1.37-.29,5.18,5.18,0,0,1,3.53,1.48l0,0a.41.41,0,0,0,.3.12.4.4,0,0,0,.29-.12l0,0a5.2,5.2,0,0,1,3.54-1.48,2.77,2.77,0,0,1,1.38.29.51.51,0,0,0,.19.12.42.42,0,0,0,.2,0,.29.29,0,0,0,.22-.28v-.17a.29.29,0,0,0-.09-.21,4,4,0,0,0-2.78-1.2,5,5,0,0,0-3,1.12"/><path class="cls-2" d="M43.4,28.36a.29.29,0,0,0-.15.18l0,.11a.29.29,0,0,0,0,.26.28.28,0,0,0,.21.12h0a.37.37,0,0,0,.17,0,.87.87,0,0,1,.21,0,3,3,0,0,1,2.45,1.6v0a.35.35,0,0,0,.22.18l.11,0a.36.36,0,0,0,.17,0h0a3.41,3.41,0,0,1,1.53-.38,2.33,2.33,0,0,1,1.56.5.4.4,0,0,0,.11.13l.11.05h.08a.3.3,0,0,0,.14,0,.29.29,0,0,0,.15-.18l0-.1a.26.26,0,0,0,0-.08.28.28,0,0,0,0-.15,2.58,2.58,0,0,0-2.32-1.4,3.65,3.65,0,0,0-1.23.23A3,3,0,0,0,44.69,28a2.85,2.85,0,0,0-1.28.33"/><path class="cls-2" d="M36.17,33.64v.15a.29.29,0,0,0,.37.27l.05,0a.37.37,0,0,0,.15-.11,2.51,2.51,0,0,1,1.31-.3,4.23,4.23,0,0,1,2.71,1l0,0a.41.41,0,0,0,.26.1h0a.4.4,0,0,0,.27-.13l0,0a4.12,4.12,0,0,1,3-1.39,2,2,0,0,1,.89.16.45.45,0,0,0,.18.09h.13l.07,0a.29.29,0,0,0,.19-.29v-.13a.29.29,0,0,0-.1-.2A3.36,3.36,0,0,0,43.53,32,4.08,4.08,0,0,0,41,33.05a4.28,4.28,0,0,0-2.29-.76,3.27,3.27,0,0,0-2.43,1.12.3.3,0,0,0-.08.22"/><path class="cls-2" d="M18.83,36.39a3.71,3.71,0,0,1,3.71-3.71h.24a5,5,0,1,1,9.52,2.57,5.61,5.61,0,0,1-1.22,11.1l-7.5,0h0a4,4,0,0,1-2.89-6.7A3.71,3.71,0,0,1,18.83,36.39Z"/><path class="cls-2" d="M21.91,5.86h1V11H24.1v.82H21.91Z"/><path class="cls-2" d="M24.56,5.86h1V11.8h-1Z"/><path class="cls-2" d="M26.13,5.86h2.34v.82H27.13v1.7h1v.81h-1V11.8h-1Z"/><path class="cls-2" d="M28.91,5.86H31.3v.82H29.91v1.7h1v.81h-1V11H31.3v.82H28.91Z"/><path class="cls-2" d="M21.91,18.6V15.72a1.52,1.52,0,1,1,3,0V18.6a1.52,1.52,0,1,1-3,0Zm2,.16V15.56c0-.36-.16-.61-.52-.61s-.51.25-.51.61v3.19c0,.36.16.61.51.61S23.93,19.12,23.93,18.76Z"/><path class="cls-2" d="M26.34,16.4v3.74H25.5V14.19h1l1.08,3.41V14.19h.83v5.95h-.88Z"/><path class="cls-2" d="M30.81,14.19h1v5.13H33v.82H30.81Z"/><path class="cls-2" d="M33.3,20.13l1.12-5.95h1.14l1.13,5.95h-1L35.48,19H34.42l-.17,1.09Zm1.25-1.89h.8L35,15.86h0Z"/><path class="cls-2" d="M37.95,16.4v3.74H37.1V14.19h1l1.08,3.41V14.19H40v5.95h-.88Z"/><path class="cls-2" d="M43.56,15.78v2.75c0,.91-.38,1.6-1.45,1.6H40.57V14.19h1.54C43.18,14.19,43.56,14.86,43.56,15.78ZM42,19.32c.41,0,.57-.25.57-.61V15.6A.52.52,0,0,0,42,15h-.42v4.32Z"/></g></g></svg>