<svg xmlns="http://www.w3.org/2000/svg" viewBox="0 0 70.36 70.36"><defs><style>.cls-1{fill:#4c9f38;}.cls-2{fill:#fff;}</style></defs><title>Asset 4</title><g id="Layer_2" data-name="Layer 2"><g id="OUTLINE"><rect class="cls-1" width="70.36" height="70.36"/><path class="cls-2" d="M10,20.27c2.41,0,3.45-1.28,3.45-3.24V14.94a2.18,2.18,0,0,0-1.76-2.41,2.27,2.27,0,0,0,1.63-2.3V9c0-2-1-3.24-3.16-3.24-2.47,0-3.33,1.46-3.33,3.56v1.26H9.06V9.12c0-.88.27-1.38,1-1.38s1,.5,1,1.28v1.53c0,.75-.5,1.15-1.28,1.15h-.9v1.82h1c.84,0,1.17.4,1.17,1.15V17c0,.75-.33,1.28-1.07,1.28s-1.11-.54-1.11-1.38v-2H6.76v1.86c0,2.16.86,3.54,3.28,3.54"/><path class="cls-2" d="M58.81,44a3.31,3.31,0,0,0-3.19-3.58c-1,0-2.12,1.05-2.75,1.7-.63-.65-1.71-1.7-2.68-1.7A3.37,3.37,0,0,0,46.92,44a3.63,3.63,0,0,0,1,2.54h0l4.93,4.94,4.93-4.94h0A3.63,3.63,0,0,0,58.81,44Z"/><path class="cls-2" d="M37.81,59.52h-.05a.81.81,0,0,1-.75-.67L34.51,44.25l-3.8,7A.81.81,0,0,1,29.2,51L27.59,39.76l-2.95,6.62a.81.81,0,0,1-.74.48H12.44a.81.81,0,1,1,0-1.62H23.37l3.88-8.71a.81.81,0,0,1,1.54.21l1.66,11.61,3.74-6.94a.81.81,0,0,1,1.51.25L38,55.18l8.46-28.09A.81.81,0,0,1,48,27l4.45,9.22a.81.81,0,0,1-1.46.7l-3.54-7.35L38.59,58.94A.81.81,0,0,1,37.81,59.52Z"/><path class="cls-2" d="M21.11,8.49h1.42v3.17h-.72V11a.9.9,0,0,1-1,.72c-.86,0-1.25-.68-1.25-1.6V7.26a1.41,1.41,0,0,1,1.5-1.6c1.1,0,1.43.61,1.43,1.49v.52h-.91v-.6c0-.37-.14-.58-.5-.58s-.52.25-.52.61v3.18c0,.36.15.61.49.61s.49-.18.49-.57v-1h-.47Z"/><path class="cls-2" d="M23.1,10.13V7.26a1.51,1.51,0,1,1,3,0v2.87a1.51,1.51,0,1,1-3,0Zm2,.16V7.1c0-.36-.16-.61-.52-.61s-.51.25-.51.61v3.18c0,.36.16.61.51.61S25.12,10.64,25.12,10.28Z"/><path class="cls-2" d="M26.68,10.13V7.26a1.51,1.51,0,1,1,3,0v2.87a1.51,1.51,0,1,1-3,0Zm2,.16V7.1c0-.36-.16-.61-.52-.61s-.51.25-.51.61v3.18c0,.36.16.61.51.61S28.7,10.64,28.7,10.28Z"/><path class="cls-2" d="M33.25,7.32v2.75c0,.91-.38,1.59-1.44,1.59H30.27V5.73h1.54C32.87,5.73,33.25,6.4,33.25,7.32Zm-1.57,3.53c.41,0,.57-.24.57-.6V7.14a.52.52,0,0,0-.57-.59h-.42v4.3Z"/><path class="cls-2" d="M36.7,9h-1v2.62h-1V5.73h1V8.24h1V5.73h1v5.93h-1Z"/><path class="cls-2" d="M38.27,5.73h2.38v.81H39.27v1.7h1V9h-1v1.8h1.38v.81H38.27Z"/><path class="cls-2" d="M41,11.66l1.12-5.93h1.14l1.13,5.93h-1l-.18-1.08H42.14L42,11.66Zm1.25-1.88h.8L42.68,7.4h0Z"/><path class="cls-2" d="M44.82,5.73h1v5.12H47v.81H44.82Z"/><path class="cls-2" d="M46.78,5.73h2.65v.81h-.82v5.12h-1V6.54h-.82Z"/><path class="cls-2" d="M51.85,9h-1v2.62h-1V5.73h1V8.24h1V5.73h1v5.93h-1Z"/><path class="cls-2" d="M19.45,20,20.57,14h1.14L22.84,20h-1l-.18-1.08H20.57L20.4,20Zm1.25-1.88h.8l-.39-2.38h0Z"/><path class="cls-2" d="M24.09,16.24V20h-.84V14h1l1.08,3.4V14h.83V20h-.87Z"/><path class="cls-2" d="M29.68,15.63v2.75c0,.91-.38,1.59-1.44,1.59H26.7V14h1.54C29.31,14,29.68,14.71,29.68,15.63Zm-1.57,3.53c.41,0,.57-.24.57-.6V15.44a.52.52,0,0,0-.57-.59H27.7v4.3Z"/><path class="cls-2" d="M33.32,16.3,32.76,20h-.94L31,14h1l.46,3.76h0L33,14h.81l.55,3.76h0L34.79,14h.84L34.86,20h-.94l-.59-3.66Z"/><path class="cls-2" d="M36.06,14h2.38v.81H37.05v1.7h1v.8h-1v1.8h1.38V20H36.06Z"/><path class="cls-2" d="M39,14h1v5.12h1.19V20H39Z"/><path class="cls-2" d="M41.61,14h1v5.12H43.8V20H41.61Z"/><path class="cls-2" d="M43.67,16.81h1.4v.8h-1.4Z"/><path class="cls-2" d="M45.57,14H47c1,0,1.33.46,1.33,1.3v.6a.86.86,0,0,1-.59.94.9.9,0,0,1,.74,1v.79c0,.84-.38,1.3-1.37,1.3H45.57Zm1,2.5h.35a.42.42,0,0,0,.47-.48v-.73a.42.42,0,0,0-.48-.48h-.34Zm0,.76v1.85H47a.43.43,0,0,0,.49-.48v-.89c0-.31-.15-.48-.5-.48Z"/><path class="cls-2" d="M49,14h2.38v.81H50v1.7h1v.8H50v1.8h1.38V20H49Z"/><path class="cls-2" d="M51.9,14h1V20h-1Z"/><path class="cls-2" d="M54.32,16.24V20h-.84V14h1l1.08,3.4V14h.83V20h-.87Z"/><path class="cls-2" d="M58.44,16.8h1.42V20h-.72v-.65a.9.9,0,0,1-1,.72c-.86,0-1.25-.68-1.25-1.6V15.57a1.41,1.41,0,0,1,1.5-1.6c1.1,0,1.43.61,1.43,1.49V16h-.91v-.6c0-.37-.14-.58-.5-.58s-.52.25-.52.61v3.18c0,.36.15.61.49.61s.49-.18.49-.57v-1h-.47Z"/></g></g></svg>