<svg xmlns="http://www.w3.org/2000/svg" viewBox="0 0 70.36 70.36"><defs><style>.cls-1{fill:#ff3a21;}.cls-2{fill:#fff;}</style></defs><title>Asset 6</title><g id="Layer_2" data-name="Layer 2"><g id="OUTLINE"><rect class="cls-1" width="70.36" height="70.36"/><path class="cls-2" d="M11.22,10.39a2.15,2.15,0,0,0-2,1h0V7.84h4.1V5.89H7v8H9.19v-.32c0-.84.38-1.3,1-1.3s1,.5,1,1.28V17c0,.75-.27,1.28-1,1.28s-1.11-.54-1.11-1.38V15.1H7v1.61c0,2.15.86,3.54,3.29,3.54S13.65,19,13.65,17V13.53c0-2.24-1.15-3.14-2.43-3.14"/><path class="cls-2" d="M51.25,26.62H42.5a.11.11,0,0,0-.11.11v2.91a.11.11,0,0,0,.11.11H46l-3.87,3.87A11.45,11.45,0,1,0,33.58,54v3.35H30.13a.11.11,0,0,0-.11.11v3.11a.11.11,0,0,0,.11.11h3.45V64a.11.11,0,0,0,.11.11H36.8a.11.11,0,0,0,.11-.11v-3.3h3.45a.11.11,0,0,0,.11-.11V57.44a.11.11,0,0,0-.11-.11H36.92v-3.4A11.44,11.44,0,0,0,44.42,36l3.81-3.81v3.25a.11.11,0,0,0,.11.11h2.91a.11.11,0,0,0,.11-.11V26.73a.11.11,0,0,0-.11-.11M35.06,51.06a8.43,8.43,0,1,1,8.43-8.43,8.44,8.44,0,0,1-8.43,8.43"/><path class="cls-2" d="M40.21,39.17H30a.11.11,0,0,0-.11.1v2.48a.11.11,0,0,0,.11.1H40.21a.11.11,0,0,0,.11-.1V39.27a.11.11,0,0,0-.11-.1"/><path class="cls-2" d="M40.21,43.59H30a.11.11,0,0,0-.11.1v2.48a.11.11,0,0,0,.11.1H40.21a.11.11,0,0,0,.11-.1V43.69a.11.11,0,0,0-.11-.1"/><path class="cls-2" d="M21.93,8.49h1.42v3.17h-.72V11a.9.9,0,0,1-1,.72c-.86,0-1.25-.68-1.25-1.6V7.26a1.41,1.41,0,0,1,1.5-1.6c1.1,0,1.43.61,1.43,1.49v.52h-.91v-.6c0-.37-.14-.58-.5-.58s-.52.25-.52.61v3.18c0,.36.15.61.49.61s.49-.18.49-.57v-1h-.47Z"/><path class="cls-2" d="M23.91,5.73h2.38v.81H24.91v1.7h1V9h-1v1.8h1.38v.81H23.91Z"/><path class="cls-2" d="M27.67,7.93v3.73h-.84V5.73h1l1.08,3.4V5.73h.83v5.93h-.87Z"/><path class="cls-2" d="M33.26,7.32v2.75c0,.91-.38,1.59-1.44,1.59H30.28V5.73h1.54C32.89,5.73,33.26,6.4,33.26,7.32ZM31.7,10.84c.41,0,.57-.24.57-.6V7.14a.52.52,0,0,0-.57-.59h-.42v4.3Z"/><path class="cls-2" d="M33.83,5.73h2.38v.81H34.83v1.7h1V9h-1v1.8h1.38v.81H33.83Z"/><path class="cls-2" d="M37.74,8.94v2.72h-1V5.73h1.45c1,0,1.37.5,1.37,1.33v.76c0,.64-.23,1-.8,1.15l1,2.69h-1Zm0-2.4V8.39h.33a.43.43,0,0,0,.49-.49V7c0-.32-.15-.48-.49-.48Z"/><path class="cls-2" d="M20.43,14h2.38v.81H21.42v1.7h1v.8h-1v1.8h1.38V20H20.43Z"/><path class="cls-2" d="M24.39,20.37V20a1.36,1.36,0,0,1-1.14-1.53V15.57a1.51,1.51,0,1,1,3,0v2.87a1.42,1.42,0,0,1-.73,1.4l.73.14v.74Zm.88-1.72V15.41c0-.36-.16-.61-.52-.61s-.51.25-.51.61v3.24c0,.35.16.61.51.61S25.27,19,25.27,18.64Z"/><path class="cls-2" d="M29.73,14v4.49c0,.92-.39,1.51-1.41,1.51a1.34,1.34,0,0,1-1.49-1.51V14h1v4.58c0,.35.14.59.49.59s.49-.24.49-.59V14Z"/><path class="cls-2" d="M30,20,31.13,14h1.14L33.39,20h-1l-.18-1.08H31.13L31,20Zm1.25-1.88h.8l-.39-2.38h0Z"/><path class="cls-2" d="M33.8,14h1v5.12H36V20H33.8Z"/><path class="cls-2" d="M36.45,14h1V20h-1Z"/><path class="cls-2" d="M37.91,14h2.65v.81h-.82V20h-1V14.85h-.82Z"/><path class="cls-2" d="M43,17.71V20H42V17.71L40.85,14h1l.6,2.25h0l.6-2.25h1Z"/></g></g></svg>