<svg xmlns="http://www.w3.org/2000/svg" viewBox="0 0 70.58 70.36"><defs><style>.cls-1{fill:#dda63a;}.cls-2{fill:#fff;}</style></defs><title>Asset 3</title><g id="Layer_2" data-name="Layer 2"><g id="OUTLINE"><rect class="cls-1" width="70.58" height="70.36"/><path class="cls-2" d="M13.2,18.14H9.27v-.67a2.71,2.71,0,0,1,1-2.18l1.53-1.61a4.46,4.46,0,0,0,1.51-3.58V8.72c0-2-1-3-3.13-3S7,6.84,7,8.83v1.71H9.21V8.76c0-.86.42-1.11.92-1.11s.86.19.86,1.07V9.89a2.81,2.81,0,0,1-.88,2.45L8.77,13.76C7.47,15.14,7,16.07,7,17.47v2.62H13.2Z"/><path class="cls-2" d="M28.15,59.78v1a.47.47,0,0,0,.46.44H40.29a.47.47,0,0,0,.46-.46h0V59.67A18.09,18.09,0,0,0,53.3,45.78v0a.38.38,0,0,0,0-.06.47.47,0,0,0-.47-.47H15.73a.47.47,0,0,0-.47.47l0,.21c1.13,6.51,6.18,11.84,12.87,13.89"/><path class="cls-2" d="M40.74,29.42c-.15.22-3.74,5.36.08,9.52,1.75,1.91,1.6,3.59,1.1,4.73h2.45c.5-1.68.29-3.79-1.7-6-2.81-3.07,0-7.21.08-7.27a.91.91,0,0,0-.4-1.37,1.3,1.3,0,0,0-1.61.34"/><path class="cls-2" d="M34.54,43.68H37c.5-1.68.29-3.79-1.7-6-2.81-3.07,0-7.21.08-7.28a.91.91,0,0,0-.4-1.36,1.3,1.3,0,0,0-1.61.34c-.15.22-3.74,5.36.08,9.52,1.75,1.91,1.6,3.59,1.1,4.73"/><path class="cls-2" d="M26,29.42c-.16.22-3.74,5.36.08,9.52,1.75,1.91,1.6,3.59,1.1,4.73h2.45c.5-1.68.29-3.79-1.7-6-2.81-3.07,0-7.21.08-7.27a.91.91,0,0,0-.4-1.36,1.3,1.3,0,0,0-1.61.34"/><path class="cls-2" d="M21.13,10.84h1.52v.81H20.09v-.81l1.57-4.3H20.25V5.73h2.47v.81Z"/><path class="cls-2" d="M23.24,5.73h2.39v.81H24.24v1.7h1V9h-1v1.8h1.39v.81H23.24Z"/><path class="cls-2" d="M27.16,8.94v2.72h-1V5.73h1.46c1,0,1.38.5,1.38,1.33v.76c0,.64-.23,1-.8,1.15l1,2.69H28.1Zm0-2.4V8.39h.33A.43.43,0,0,0,28,7.9V7c0-.32-.15-.48-.49-.48Z"/><path class="cls-2" d="M29.54,10.13V7.26a1.52,1.52,0,1,1,3,0v2.87a1.52,1.52,0,1,1-3,0Zm2,.16V7.1c0-.36-.16-.61-.52-.61s-.51.25-.51.61v3.18c0,.36.16.61.51.61S31.56,10.64,31.56,10.28Z"/><path class="cls-2" d="M22.12,17.35h-1V20h-1V14h1v2.51h1V14h1V20h-1Z"/><path class="cls-2" d="M26.61,14v4.49c0,.92-.39,1.51-1.41,1.51a1.34,1.34,0,0,1-1.49-1.51V14h1v4.58c0,.35.14.59.49.59s.49-.24.49-.59V14Z"/><path class="cls-2" d="M28,16.24V20h-.84V14h1l1.08,3.4V14h.83V20h-.88Z"/><path class="cls-2" d="M32.15,16.8h1.42V20h-.72v-.65a.9.9,0,0,1-1,.72c-.86,0-1.25-.68-1.25-1.6V15.56a1.41,1.41,0,0,1,1.5-1.6c1.11,0,1.43.61,1.43,1.49V16h-.91v-.6c0-.37-.14-.58-.5-.58s-.52.25-.52.61v3.18c0,.36.15.61.49.61s.49-.18.49-.57v-1h-.47Z"/><path class="cls-2" d="M34.14,14h2.39v.81H35.14v1.7h1v.8h-1v1.8h1.39V20H34.14Z"/><path class="cls-2" d="M38.06,17.24V20h-1V14h1.46c1,0,1.38.5,1.38,1.33v.76c0,.64-.23,1-.8,1.15l1,2.69H39Zm0-2.4v1.85h.33a.43.43,0,0,0,.49-.49v-.87c0-.32-.15-.48-.49-.48Z"/></g></g></svg>