<svg xmlns="http://www.w3.org/2000/svg" viewBox="0 0 70.36 70.36"><defs><style>.cls-1{fill:#26bde2;}.cls-2{fill:#fff;}</style></defs><title>Asset 7</title><g id="Layer_2" data-name="Layer 2"><g id="OUTLINE"><rect class="cls-1" width="70.36" height="70.36"/><path class="cls-2" d="M10.65,20.27c2.53,0,3.51-1.38,3.51-3.58V14.6c0-2.32-.92-3.49-2.64-3.49a2,2,0,0,0-2,1.15h0V9.2c0-.86.27-1.46,1.13-1.46s1.11.5,1.11,1.38v.94H14V9.31c0-2.09-.69-3.56-3.33-3.56S7.17,7.36,7.17,9.58v6.91c0,2.2,1,3.79,3.47,3.79m-1.11-6c0-.79.38-1.3,1.13-1.3s1.13.5,1.13,1.42V16.9c0,.9-.33,1.42-1.15,1.42s-1.11-.54-1.11-1.42Z"/><path class="cls-2" d="M48.14,28.45a.31.31,0,0,0-.23-.1H22.38a.29.29,0,0,0-.29.34l4.29,25.94a.3.3,0,0,0,.29.25h5.26l.36,4.22H30.08l5.15,5.15L40.4,59.1H38.18l.36-4.22H43.9a.29.29,0,0,0,.29-.25l4-25.93A.3.3,0,0,0,48.14,28.45ZM38.27,49.22a4.1,4.1,0,0,1-3,1.06,4.1,4.1,0,0,1-3-1.06,4.52,4.52,0,0,1-.56-5.52c.41-.77,3.35-5.18,3.6-5.56v0h0v0c.25.38,3.19,4.79,3.6,5.56A4.52,4.52,0,0,1,38.27,49.22Zm8.1-15.31a3.17,3.17,0,0,0-2.41.15c-3.17,1.28-5.32,1.75-8.65.7-2.1-.66-4.06-2-6.38-1.19a13.15,13.15,0,0,1-4.72,1.07l-1-5.15H47.09Z"/><path class="cls-2" d="M20.42,10.13V7.26a1.4,1.4,0,0,1,1.49-1.6c1.1,0,1.41.61,1.41,1.49v.7H22.4V7.07c0-.37-.12-.58-.48-.58s-.51.25-.51.61v3.18c0,.36.15.61.51.61s.48-.23.48-.58V9.23h.91v1c0,.85-.35,1.48-1.41,1.48A1.4,1.4,0,0,1,20.42,10.13Z"/><path class="cls-2" d="M23.85,5.73h1v5.12H26v.81H23.85Z"/><path class="cls-2" d="M26.49,5.73h2.38v.81H27.49v1.7h1V9h-1v1.8h1.38v.81H26.49Z"/><path class="cls-2" d="M29.25,11.66l1.12-5.93H31.5l1.13,5.93h-1l-.18-1.08H30.37l-.17,1.08ZM30.5,9.78h.8L30.9,7.4h0Z"/><path class="cls-2" d="M33.88,7.93v3.73H33V5.73h1l1.08,3.4V5.73h.83v5.93h-.87Z"/><path class="cls-2" d="M39.57,8,39,11.66h-.94l-.8-5.93h1l.46,3.76h0l.5-3.76H40l.55,3.76h0L41,5.73h.84l-.77,5.93h-.94L39.58,8Z"/><path class="cls-2" d="M41.8,11.66l1.12-5.93h1.14l1.13,5.93h-1L44,10.57H42.92l-.18,1.08ZM43,9.78h.8L43.45,7.4h0Z"/><path class="cls-2" d="M45,5.73h2.65v.81h-.82v5.12h-1V6.54H45Z"/><path class="cls-2" d="M48.15,5.73h2.38v.81H49.15v1.7h1V9h-1v1.8h1.38v.81H48.15Z"/><path class="cls-2" d="M52.06,8.94v2.72h-1V5.73h1.45c1,0,1.37.5,1.37,1.33v.76c0,.64-.23,1-.8,1.15l1,2.69H53Zm0-2.4V8.39h.33a.43.43,0,0,0,.49-.49V7c0-.32-.15-.48-.49-.48Z"/><path class="cls-2" d="M20.26,20,21.38,14h1.14L23.64,20h-1l-.18-1.08H21.38L21.2,20Zm1.25-1.88h.8l-.39-2.38h0Z"/><path class="cls-2" d="M24.89,16.24V20h-.84V14h1l1.08,3.4V14h.83V20h-.87Z"/><path class="cls-2" d="M30.49,15.63v2.75c0,.91-.38,1.59-1.44,1.59H27.51V14H29C30.11,14,30.49,14.71,30.49,15.63Zm-1.57,3.52c.41,0,.57-.24.57-.6V15.44a.52.52,0,0,0-.57-.59H28.5v4.3Z"/><path class="cls-2" d="M31.92,18.69v-.8h.93v.81c0,.33.15.52.49.52s.45-.21.45-.52v-.23a1.07,1.07,0,0,0-.45-.84l-.59-.59a2,2,0,0,1-.83-1.58v-.2a1.24,1.24,0,0,1,1.4-1.3c1,0,1.39.49,1.39,1.35v.48h-.91v-.52c0-.34-.16-.51-.47-.51a.44.44,0,0,0-.47.49v.12c0,.33.18.52.47.8l.64.63a2,2,0,0,1,.81,1.54v.29A1.28,1.28,0,0,1,33.33,20,1.24,1.24,0,0,1,31.92,18.69Z"/><path class="cls-2" d="M35.06,20,36.18,14h1.14L38.45,20h-1l-.18-1.08H36.18L36,20Zm1.25-1.88h.8l-.39-2.38h0Z"/><path class="cls-2" d="M39.7,16.24V20h-.84V14h1l1.08,3.4V14h.83V20h-.87Z"/><path class="cls-2" d="M42.31,14h1V20h-1Z"/><path class="cls-2" d="M43.77,14h2.65v.81H45.6V20h-1V14.85h-.82Z"/><path class="cls-2" d="M46.29,20,47.41,14h1.14L49.68,20h-1l-.18-1.08H47.41L47.24,20Zm1.25-1.88h.8l-.39-2.38h0Z"/><path class="cls-2" d="M49.54,14h2.65v.81h-.82V20h-1V14.85h-.82Z"/><path class="cls-2" d="M52.65,14h1V20h-1Z"/><path class="cls-2" d="M54.22,18.43V15.57a1.51,1.51,0,1,1,3,0v2.87a1.51,1.51,0,1,1-3,0Zm2,.16V15.41c0-.36-.16-.61-.52-.61s-.51.25-.51.61v3.18c0,.36.16.61.51.61S56.24,19,56.24,18.59Z"/><path class="cls-2" d="M58.65,16.24V20h-.84V14h1l1.08,3.4V14h.83V20h-.87Z"/></g></g></svg>