<svg xmlns="http://www.w3.org/2000/svg" viewBox="0 0 70.36 70.36"><defs><style>.cls-1{fill:#fd9d24;}.cls-2{fill:#fff;}</style></defs><title>Asset 12</title><g id="Layer_2" data-name="Layer 2"><g id="OUTLINE"><rect class="cls-1" width="70.36" height="70.36"/><polygon class="cls-2" points="5.04 8.47 5.04 10.96 5.06 10.96 6.74 9.22 6.76 9.22 6.76 20.08 9.14 20.08 9.14 5.9 7.24 5.9 5.04 8.47"/><polygon class="cls-2" points="10.48 8.47 10.48 10.96 10.5 10.96 12.18 9.22 12.2 9.22 12.2 20.08 14.58 20.08 14.58 5.9 12.68 5.9 10.48 8.47"/><path class="cls-2" d="M12.1,53.57H22.69a.26.26,0,0,0,.26-.26.26.26,0,0,0-.07-.17v0L17.6,46.3l-.05-.06a.26.26,0,0,0-.19-.08.26.26,0,0,0-.17.07l0,0,0,.06L12,53.06l-.08.1a.26.26,0,0,0,0,.15A.26.26,0,0,0,12.1,53.57Z"/><path class="cls-2" d="M22.66,54.53H12.05a.26.26,0,0,0-.26.26v8.3a.26.26,0,0,0,.26.26h3.41V58.12a.26.26,0,0,1,.26-.26h3.17a.26.26,0,0,1,.26.26v5.22h3.5a.26.26,0,0,0,.26-.26v-8.3A.26.26,0,0,0,22.66,54.53Z"/><path class="cls-2" d="M59.31,52.35H48.81a.25.25,0,0,0-.26.25V63.2a.25.25,0,0,0,.26.25h10.5a.25.25,0,0,0,.26-.25V52.6a.25.25,0,0,0-.26-.25m-5.74,6.92a.25.25,0,0,1-.26.25H50.17a.25.25,0,0,1-.26-.25V57.37a.25.25,0,0,1,.26-.25h3.14a.25.25,0,0,1,.26.25Zm0-3.52a.25.25,0,0,1-.26.25H50.17a.25.25,0,0,1-.26-.25V53.84a.25.25,0,0,1,.26-.25h3.14a.25.25,0,0,1,.26.25Zm4.79,3.52a.25.25,0,0,1-.26.25H55a.25.25,0,0,1-.26-.25V57.37a.25.25,0,0,1,.26-.25H58.1a.25.25,0,0,1,.26.25Zm0-3.52a.25.25,0,0,1-.26.25H55a.25.25,0,0,1-.26-.25V53.84a.25.25,0,0,1,.26-.25H58.1a.25.25,0,0,1,.26.25Z"/><path class="cls-2" d="M34.91,27.75H24.64a.25.25,0,0,0-.25.25v35.1a.25.25,0,0,0,.25.25H34.91a.25.25,0,0,0,.25-.25V28a.25.25,0,0,0-.25-.25M28.8,59.36a.14.14,0,0,1-.13.13H26.31a.14.14,0,0,1-.13-.13V56.74a.13.13,0,0,1,.13-.13h2.35a.13.13,0,0,1,.13.13Zm0-6a.13.13,0,0,1-.13.13H26.31a.13.13,0,0,1-.13-.13V50.72a.13.13,0,0,1,.13-.13h2.35a.13.13,0,0,1,.13.13Zm0-6a.14.14,0,0,1-.13.13H26.31a.14.14,0,0,1-.13-.13V44.7a.14.14,0,0,1,.13-.13h2.35a.14.14,0,0,1,.13.13Zm0-6a.14.14,0,0,1-.13.13H26.31a.14.14,0,0,1-.13-.13V38.68a.13.13,0,0,1,.13-.13h2.35a.13.13,0,0,1,.13.13Zm0-6a.14.14,0,0,1-.13.13H26.31a.14.14,0,0,1-.13-.13V32.66a.13.13,0,0,1,.13-.13h2.35a.13.13,0,0,1,.13.13Zm4.61,24.07a.14.14,0,0,1-.14.13H30.92a.13.13,0,0,1-.13-.13V56.74a.13.13,0,0,1,.13-.13h2.35a.13.13,0,0,1,.14.13Zm0-6a.13.13,0,0,1-.14.13H30.92a.13.13,0,0,1-.13-.13V50.72a.13.13,0,0,1,.13-.13h2.35a.13.13,0,0,1,.14.13Zm0-6a.14.14,0,0,1-.14.13H30.92a.13.13,0,0,1-.13-.13V44.7a.13.13,0,0,1,.13-.13h2.35a.14.14,0,0,1,.14.13Zm0-6a.14.14,0,0,1-.14.13H30.92a.13.13,0,0,1-.13-.13V38.68a.13.13,0,0,1,.13-.13h2.35a.13.13,0,0,1,.14.13Zm0-6a.14.14,0,0,1-.14.13H30.92a.13.13,0,0,1-.13-.13V32.66a.13.13,0,0,1,.13-.13h2.35a.13.13,0,0,1,.14.13Z"/><rect class="cls-2" x="48.56" y="48.96" width="10.99" height="2.54" rx="0.21" ry="0.21"/><path class="cls-2" d="M47.31,34.38a.27.27,0,0,0-.26-.2.27.27,0,0,0-.15,0h0l-.09.11L36.71,47.16l0,.06a.29.29,0,0,0-.09.2V63.16a.25.25,0,0,0,.25.25H47.09a.25.25,0,0,0,.25-.25V34.49A.25.25,0,0,0,47.31,34.38Zm-4.25,7,.07-.09c.69-.89,1.85-2.32,2.42-3l.07-.09a.29.29,0,0,1,.23-.11.29.29,0,0,1,.28.23v3.24a.29.29,0,0,1-.28.29H43.29a.29.29,0,0,1-.23-.46Zm-1.6,17.93a.25.25,0,0,1-.25.25H38.15a.25.25,0,0,1-.25-.25V57.35a.25.25,0,0,1,.25-.25h3.06a.25.25,0,0,1,.25.25Zm0-3.54a.25.25,0,0,1-.25.25H38.15a.25.25,0,0,1-.25-.25V53.81a.25.25,0,0,1,.25-.25h3.06a.25.25,0,0,1,.25.25Zm0-3.54a.25.25,0,0,1-.25.25H38.15a.25.25,0,0,1-.25-.25V50.27a.25.25,0,0,1,.25-.25h3.06a.25.25,0,0,1,.25.25Zm0-7.76v4.22a.25.25,0,0,1-.25.25H38.16a.25.25,0,0,1-.25-.25v-.53a.28.28,0,0,1,0-.09l0,0,0,0,0,0c.39-.56,2.16-2.74,2.9-3.64l.07-.09a.29.29,0,0,1,.23-.11.29.29,0,0,1,.28.23Zm4.67,14.84a.25.25,0,0,1-.25.25H42.83a.25.25,0,0,1-.25-.25V57.35a.25.25,0,0,1,.25-.25H45.9a.25.25,0,0,1,.25.25Zm0-3.54a.25.25,0,0,1-.25.25H42.83a.25.25,0,0,1-.25-.25V53.81a.25.25,0,0,1,.25-.25H45.9a.25.25,0,0,1,.25.25Zm0-3.54a.25.25,0,0,1-.25.25H42.83a.25.25,0,0,1-.25-.25V50.27a.25.25,0,0,1,.25-.25H45.9a.25.25,0,0,1,.25.25Zm0-3.54a.25.25,0,0,1-.25.25H42.83a.25.25,0,0,1-.25-.25V46.73a.25.25,0,0,1,.25-.25H45.9a.25.25,0,0,1,.25.25Zm0-3.54a.25.25,0,0,1-.25.25H42.83a.25.25,0,0,1-.25-.25V43.19a.25.25,0,0,1,.25-.25H45.9a.25.25,0,0,1,.25.25Z"/><path class="cls-2" d="M19.5,10.56v-.8h.93v.81c0,.33.15.52.49.52s.45-.21.45-.52v-.23a1.07,1.07,0,0,0-.45-.84l-.59-.59a2,2,0,0,1-.83-1.58v-.2a1.24,1.24,0,0,1,1.4-1.3c1,0,1.39.49,1.39,1.35v.48h-.91V7.15c0-.34-.16-.51-.47-.51a.44.44,0,0,0-.47.49v.12c0,.33.18.52.47.8l.64.63a2,2,0,0,1,.8,1.54v.29a1.28,1.28,0,0,1-1.45,1.39A1.24,1.24,0,0,1,19.5,10.56Z"/><path class="cls-2" d="M25.68,5.91V10.4c0,.92-.39,1.51-1.41,1.51a1.34,1.34,0,0,1-1.49-1.51V5.91h1v4.58c0,.35.14.59.49.59s.49-.24.49-.59V5.91Z"/><path class="cls-2" d="M26.1,10.56v-.8H27v.81c0,.33.15.52.49.52s.45-.21.45-.52v-.23a1.07,1.07,0,0,0-.45-.84l-.59-.59a2,2,0,0,1-.83-1.58v-.2a1.24,1.24,0,0,1,1.4-1.3c1,0,1.39.49,1.39,1.35v.48H28V7.15c0-.34-.16-.51-.47-.51a.44.44,0,0,0-.47.49v.12c0,.33.18.52.47.8l.64.63a2,2,0,0,1,.8,1.54v.29a1.28,1.28,0,0,1-1.45,1.39A1.24,1.24,0,0,1,26.1,10.56Z"/><path class="cls-2" d="M29.15,5.91H31.8v.81H31v5.12H30V6.72h-.82Z"/><path class="cls-2" d="M31.57,11.84l1.12-5.93h1.14L35,11.84h-1l-.18-1.08H32.69l-.17,1.08ZM32.82,10h.8l-.39-2.38h0Z"/><path class="cls-2" d="M35.27,5.91h1v5.93h-1Z"/><path class="cls-2" d="M37.59,8.11v3.73h-.84V5.91h1l1.08,3.4V5.91h.83v5.93h-.87Z"/><path class="cls-2" d="M39.95,11.84l1.12-5.93H42.2l1.13,5.93h-1l-.18-1.08H41.06l-.17,1.08ZM41.2,10H42L41.6,7.58h0Z"/><path class="cls-2" d="M43.64,5.91h1.44c1,0,1.33.46,1.33,1.3v.6a.86.86,0,0,1-.59.94.9.9,0,0,1,.74,1v.79c0,.84-.38,1.3-1.37,1.3H43.64Zm1,2.5H45a.42.42,0,0,0,.47-.48V7.21A.42.42,0,0,0,45,6.72h-.34Zm0,.76V11h.44a.43.43,0,0,0,.49-.48V9.65c0-.31-.15-.48-.5-.48Z"/><path class="cls-2" d="M47,5.91h1V11h1.19v.81H47Z"/><path class="cls-2" d="M49.51,5.91h2.38v.81H50.51v1.7h1v.8h-1V11h1.38v.81H49.51Z"/><path class="cls-2" d="M53.15,10.31V7.44a1.4,1.4,0,0,1,1.49-1.6c1.1,0,1.41.61,1.41,1.49V8h-.91V7.25c0-.37-.12-.58-.48-.58s-.51.25-.51.61v3.18c0,.36.15.61.51.61s.48-.23.48-.58V9.41H56v1c0,.85-.35,1.48-1.41,1.48A1.4,1.4,0,0,1,53.15,10.31Z"/><path class="cls-2" d="M56.49,5.91h1v5.93h-1Z"/><path class="cls-2" d="M57.85,5.91H60.5v.81h-.82v5.12h-1V6.72h-.82Z"/><path class="cls-2" d="M60.87,5.91h1v5.93h-1Z"/><path class="cls-2" d="M62.35,5.91h2.38v.81H63.34v1.7h1v.8h-1V11h1.38v.81H62.35Z"/><path class="cls-2" d="M65.07,10.56v-.8H66v.81c0,.33.15.52.49.52s.45-.21.45-.52v-.23a1.07,1.07,0,0,0-.45-.84l-.59-.59a2,2,0,0,1-.83-1.58v-.2a1.24,1.24,0,0,1,1.4-1.3c1,0,1.39.49,1.39,1.35v.48H67V7.15c0-.34-.16-.51-.47-.51a.44.44,0,0,0-.47.49v.12c0,.33.18.52.47.8l.64.63a2,2,0,0,1,.8,1.54v.29a1.28,1.28,0,0,1-1.45,1.39A1.24,1.24,0,0,1,65.07,10.56Z"/><path class="cls-2" d="M19.4,20.15l1.12-5.93h1.14l1.13,5.93h-1l-.18-1.08H20.52l-.17,1.08Zm1.25-1.88h.8L21,15.89h0Z"/><path class="cls-2" d="M23.93,16.42v3.73H23.1V14.22h1l1.08,3.4v-3.4H26v5.93h-.87Z"/><path class="cls-2" d="M29.44,15.81v2.75c0,.91-.38,1.59-1.44,1.59H26.45V14.22H28C29.06,14.22,29.44,14.89,29.44,15.81Zm-1.57,3.52c.41,0,.57-.24.57-.6v-3.1a.52.52,0,0,0-.57-.59h-.42v4.3Z"/><path class="cls-2" d="M30.73,18.62V15.75a1.4,1.4,0,0,1,1.49-1.6c1.1,0,1.41.61,1.41,1.49v.7h-.91v-.78c0-.37-.12-.58-.48-.58s-.51.25-.51.61v3.18c0,.36.15.61.51.61s.48-.23.48-.58V17.72h.91v1c0,.85-.35,1.48-1.41,1.48A1.4,1.4,0,0,1,30.73,18.62Z"/><path class="cls-2" d="M34.07,18.62V15.75a1.51,1.51,0,1,1,3,0v2.87a1.51,1.51,0,1,1-3,0Zm2,.16V15.59c0-.36-.16-.61-.52-.61s-.51.25-.51.61v3.18c0,.36.16.61.51.61S36.09,19.13,36.09,18.77Z"/><path class="cls-2" d="M40.3,16.3h0l-.67,3.85h-.46L38.4,16.3h0v3.85h-.82V14.22h1.16l.65,3.34h0L40,14.22h1.26v5.93H40.3Z"/><path class="cls-2" d="M44.43,16.3h0l-.67,3.85h-.46l-.74-3.85h0v3.85h-.82V14.22h1.16l.65,3.34h0l.58-3.34h1.26v5.93h-.91Z"/><path class="cls-2" d="M48.71,14.22V18.7c0,.92-.39,1.51-1.41,1.51a1.34,1.34,0,0,1-1.49-1.51V14.22h1V18.8c0,.35.14.59.49.59s.49-.24.49-.59V14.22Z"/><path class="cls-2" d="M50,16.42v3.73h-.84V14.22h1l1.08,3.4v-3.4h.83v5.93h-.87Z"/><path class="cls-2" d="M52.54,14.22h1v5.93h-1Z"/><path class="cls-2" d="M53.9,14.22h2.65V15h-.82v5.12h-1V15H53.9Z"/><path class="cls-2" d="M56.92,14.22h1v5.93h-1Z"/><path class="cls-2" d="M58.4,14.22h2.38V15H59.39v1.7h1v.8h-1v1.8h1.38v.81H58.4Z"/><path class="cls-2" d="M61.11,18.87v-.8H62v.81c0,.33.15.52.49.52s.45-.21.45-.52v-.23a1.07,1.07,0,0,0-.45-.84L62,17.24a2,2,0,0,1-.83-1.58v-.2a1.24,1.24,0,0,1,1.4-1.3c1,0,1.39.49,1.39,1.35V16H63v-.52c0-.34-.16-.51-.47-.51a.44.44,0,0,0-.47.49v.12c0,.33.18.52.47.8l.64.63a2,2,0,0,1,.8,1.54v.29a1.28,1.28,0,0,1-1.45,1.39A1.24,1.24,0,0,1,61.11,18.87Z"/></g></g></svg>