<svg xmlns="http://www.w3.org/2000/svg" viewBox="0 0 70.36 70.36"><defs><style>.cls-1{fill:#fcc30b;}.cls-2{fill:#fff;}</style></defs><title>Asset 8</title><g id="Layer_2" data-name="Layer 2"><g id="OUTLINE"><rect class="cls-1" width="70.36" height="70.36"/><polygon class="cls-2" points="7.22 7.84 10.9 7.84 7.72 20.08 10.08 20.08 13.2 8.09 13.2 5.9 7.22 5.9 7.22 7.84"/><path class="cls-2" d="M35.2,34.09A10.31,10.31,0,1,0,45.52,44.4,10.31,10.31,0,0,0,35.2,34.09m-.76,4.07a.77.77,0,0,1,1.53,0V41.7a.77.77,0,0,1-1.53,0Zm.77,11.52A5.36,5.36,0,0,1,33.61,39.2v2a3.51,3.51,0,1,0,3.18,0v-2a5.36,5.36,0,0,1-1.58,10.49"/><path class="cls-2" d="M23.37,44.31a.86.86,0,0,0-.79-.85H18.06a.85.85,0,0,0,0,1.7h4.52a.86.86,0,0,0,.79-.85"/><path class="cls-2" d="M53.15,44.31a.86.86,0,0,0-.79-.85H47.85a.85.85,0,0,0,0,1.7h4.52a.86.86,0,0,0,.79-.85"/><path class="cls-2" d="M35.21,32.47a.86.86,0,0,0,.85-.79V27.16a.85.85,0,0,0-1.7,0v4.52a.87.87,0,0,0,.85.79"/><path class="cls-2" d="M35.21,62.26a.86.86,0,0,0,.85-.79V57a.85.85,0,0,0-1.7,0v4.52a.87.87,0,0,0,.85.79"/><path class="cls-2" d="M24.93,38.43a.86.86,0,0,0-.27-1.13l-3.92-2.24a.85.85,0,0,0-.84,1.47l3.92,2.24a.86.86,0,0,0,1.11-.34"/><path class="cls-2" d="M50.78,53.23a.86.86,0,0,0-.27-1.13L46.6,49.85a.85.85,0,0,0-.84,1.47l3.92,2.24a.86.86,0,0,0,1.11-.34"/><path class="cls-2" d="M41.09,34a.86.86,0,0,0,1.13-.27l2.24-3.92A.85.85,0,0,0,43,29l-2.24,3.92A.86.86,0,0,0,41.09,34"/><path class="cls-2" d="M26.29,59.89a.86.86,0,0,0,1.13-.27l2.24-3.92a.85.85,0,0,0-1.47-.84L26,58.78a.87.87,0,0,0,.34,1.11"/><path class="cls-2" d="M29.31,34a.86.86,0,0,0,.34-1.11L27.39,29a.85.85,0,0,0-1.47.85l2.25,3.91a.86.86,0,0,0,1.13.26"/><path class="cls-2" d="M44.15,59.87a.86.86,0,0,0,.34-1.11l-2.25-3.91a.85.85,0,0,0-1.47.85L43,59.61a.86.86,0,0,0,1.13.26"/><path class="cls-2" d="M45.47,38.41a.86.86,0,0,0,1.11.34l3.91-2.25A.85.85,0,0,0,49.65,35l-3.91,2.25a.86.86,0,0,0-.26,1.13"/><path class="cls-2" d="M19.65,53.26a.86.86,0,0,0,1.11.34l3.91-2.25a.85.85,0,0,0-.84-1.47l-3.91,2.25a.87.87,0,0,0-.26,1.13"/><path class="cls-2" d="M19.88,11.84,21,5.91h1.14l1.13,5.93h-1l-.18-1.08H21l-.17,1.08ZM21.13,10h.8l-.39-2.38h0Z"/><path class="cls-2" d="M23.68,5.91H26v.81H24.67v1.7h1v.8h-1v2.62h-1Z"/><path class="cls-2" d="M26.45,5.91h2.34v.81H27.45v1.7h1v.8h-1v2.62h-1Z"/><path class="cls-2" d="M29.13,10.31V7.44a1.51,1.51,0,1,1,3,0v2.87a1.51,1.51,0,1,1-3,0Zm2,.16V7.28c0-.36-.16-.61-.52-.61s-.51.25-.51.61v3.18c0,.36.16.61.51.61S31.15,10.83,31.15,10.47Z"/><path class="cls-2" d="M33.72,9.12v2.72h-1V5.91h1.45c1,0,1.37.5,1.37,1.33V8c0,.64-.23,1-.8,1.15l1,2.69h-1Zm0-2.4V8.57H34a.43.43,0,0,0,.49-.49V7.2c0-.32-.15-.48-.49-.48Z"/><path class="cls-2" d="M39.07,7.5v2.75c0,.91-.38,1.59-1.44,1.59H36.09V5.91h1.54C38.69,5.91,39.07,6.58,39.07,7.5ZM37.5,11c.41,0,.57-.24.57-.6V7.32a.52.52,0,0,0-.57-.59h-.42V11Z"/><path class="cls-2" d="M39.35,11.84l1.12-5.93H41.6l1.13,5.93h-1l-.18-1.08H40.47l-.17,1.08ZM40.6,10h.8L41,7.58h0Z"/><path class="cls-2" d="M43.14,5.91h1.44c1,0,1.33.46,1.33,1.3v.6a.86.86,0,0,1-.59.94.9.9,0,0,1,.74,1v.79c0,.84-.38,1.3-1.37,1.3H43.14Zm1,2.5h.35A.42.42,0,0,0,45,7.93V7.2a.42.42,0,0,0-.48-.48h-.34Zm0,.76V11h.44a.43.43,0,0,0,.49-.48V9.65c0-.31-.15-.48-.5-.48Z"/><path class="cls-2" d="M46.56,5.91h1V11h1.19v.81H46.56Z"/><path class="cls-2" d="M49.2,5.91h2.38v.81H50.2v1.7h1v.8h-1V11h1.38v.81H49.2Z"/><path class="cls-2" d="M52.87,11.84,54,5.91h1.14l1.13,5.93h-1l-.18-1.08H54l-.17,1.08ZM54.13,10h.8l-.39-2.38h0Z"/><path class="cls-2" d="M57.51,8.11v3.73h-.84V5.91h1l1.08,3.4V5.91h.83v5.93h-.87Z"/><path class="cls-2" d="M63.11,7.5v2.75c0,.91-.38,1.59-1.44,1.59H60.12V5.91h1.54C62.73,5.91,63.11,6.58,63.11,7.5ZM61.54,11c.41,0,.57-.24.57-.6V7.32a.52.52,0,0,0-.57-.59h-.42V11Z"/><path class="cls-2" d="M20,18.62V15.75a1.4,1.4,0,0,1,1.49-1.6c1.1,0,1.41.61,1.41,1.49v.7H22v-.78c0-.37-.12-.58-.48-.58s-.51.25-.51.61v3.18c0,.36.15.61.51.61s.48-.23.48-.58V17.72h.91v1c0,.85-.35,1.48-1.41,1.48A1.4,1.4,0,0,1,20,18.62Z"/><path class="cls-2" d="M23.48,14.22h1v5.12h1.19v.81H23.48Z"/><path class="cls-2" d="M26.12,14.22H28.5V15H27.11v1.7h1v.8h-1v1.8H28.5v.81H26.12Z"/><path class="cls-2" d="M28.87,20.15,30,14.22h1.14l1.13,5.93h-1L31,19.06H30l-.17,1.08Zm1.25-1.88h.8l-.39-2.38h0Z"/><path class="cls-2" d="M33.51,16.42v3.73h-.84V14.22h1l1.08,3.4v-3.4h.83v5.93h-.87Z"/><path class="cls-2" d="M37,14.22h2.38V15H38v1.7h1v.8H38v1.8h1.38v.81H37Z"/><path class="cls-2" d="M40.79,16.42v3.73h-.84V14.22h1L42,17.62v-3.4h.83v5.93H42Z"/><path class="cls-2" d="M43.4,14.22h2.38V15H44.4v1.7h1v.8h-1v1.8h1.38v.81H43.4Z"/><path class="cls-2" d="M47.31,17.43v2.72h-1V14.22h1.45c1,0,1.37.5,1.37,1.33v.76c0,.64-.23,1-.8,1.15l1,2.69h-1Zm0-2.4v1.85h.33a.43.43,0,0,0,.49-.49v-.87c0-.32-.15-.48-.49-.48Z"/><path class="cls-2" d="M51.19,17H52.6v3.17h-.72V19.5a.9.9,0,0,1-1,.72c-.86,0-1.25-.68-1.25-1.6V15.75a1.41,1.41,0,0,1,1.5-1.6c1.1,0,1.43.61,1.43,1.49v.52h-.91v-.6c0-.37-.14-.58-.5-.58s-.52.25-.52.61v3.18c0,.36.15.61.49.61s.49-.18.49-.57v-1h-.47Z"/><path class="cls-2" d="M54.89,17.89v2.26h-1V17.89l-1.11-3.67h1l.6,2.25h0l.6-2.25h1Z"/></g></g></svg>