<svg xmlns="http://www.w3.org/2000/svg" viewBox="0 0 70.56 70.56"><defs><style>.cls-1{fill:#3f7e44;}.cls-2{fill:#fff;}</style></defs><title>Asset 14</title><g id="Layer_2" data-name="Layer 2"><g id="OUTLINE"><rect class="cls-1" width="70.56" height="70.56"/><polygon class="cls-2" points="8.91 5.92 8.91 20.14 6.51 20.14 6.51 9.25 6.49 9.25 4.82 10.99 4.79 10.99 4.79 8.5 7 5.92 8.91 5.92"/><path class="cls-2" d="M16.79,9v1.24a2.28,2.28,0,0,1-1.64,2.31A2.19,2.19,0,0,1,16.92,15v2.1c0,2-1,3.25-3.46,3.25s-3.29-1.38-3.29-3.54V14.9h2.18v2c0,.84.29,1.38,1.11,1.38s1.07-.52,1.07-1.28V14.69c0-.76-.34-1.15-1.17-1.15h-1V11.71h.9c.78,0,1.28-.4,1.28-1.15V9c0-.78-.27-1.28-1-1.28s-1,.5-1,1.38v1.45H10.29V9.32c0-2.1.86-3.57,3.34-3.57,2.2,0,3.17,1.24,3.17,3.25"/><path class="cls-2" d="M61.7,44.17a32.27,32.27,0,0,0-51.8,0l-.2.29.2.29a32.27,32.27,0,0,0,51.8,0l.2-.29-.2-.29M27.09,37.74c.14-.21.61-.8.67-.87a.83.83,0,0,1,.53-.22c.17,0,.39.06.41.19a1.45,1.45,0,0,1-.15.69,1.8,1.8,0,0,1-1.15.52c-.25,0-.35-.24-.31-.31m-.56,1.11.06-.07a1.46,1.46,0,0,1,.86-.31c.27,0,.63.09.68.27s-.68.51-.81.63c-.38.35-1,1.05-1.31,1.13a.41.41,0,0,1-.28,0,10.78,10.78,0,0,1,.81-1.62m5.85,12a3.1,3.1,0,0,1-.67,1.4,2.26,2.26,0,0,1-1.48.57c-.5,0-.56-1.36-.56-2,0-.23-.33.46-.51-1-.11-.91-.69.09-.73-.51s-.33-.48-.64-.86-.68,0-1.11.23-.25.29-.85.1h0a10.85,10.85,0,0,1-.86-4.24c0-.37,0-.73.05-1.09l.07-.1c.58-.68.56-.84.56-.84l.64-.22a10.65,10.65,0,0,1,1.78.45c.63.24,1.63.77,2.2.54.42-.17.75-.4.71-.75s-.39-.54-.81-.25c-.15.11-.48-.66-.74-.62s.32.9.1.94-.66-.9-.73-1.05-.41-.53-.72-.24c-.64.61-1.69.57-1.89.73-.64.48-.81-.16-.79-.54l.08-.26a1.3,1.3,0,0,1,1.21-.13c.28.19.48,0,.59-.16a.39.39,0,0,0,0-.44c-.07-.15.14-.26.29-.3a7.65,7.65,0,0,0,.83-.49,2.72,2.72,0,0,1,1.65,0,.88.88,0,0,0,1.09-.22,2.92,2.92,0,0,1,.79-.66c.16-.07-.39-.58-.84,0s-.68.6-.89.6-1.47-.31-1.62-.71.39-.69.86-.92a11.35,11.35,0,0,1,2.06-.29c.66-.14,1.5-.48,1.93-.19s-1.77.78-1.05,1.17c.26.14,1.42-.67,1.82-.88.94-.48-.91-.64-.67-1.62s-2.26-.68-3.53-.59A10.89,10.89,0,0,1,46.41,42a1.79,1.79,0,0,1-.05.5.71.71,0,0,1-1.28.1c-.11-.16-.58-.6-.56.15s.73.83,0,1.28a2.68,2.68,0,0,1-1.14.46,1.47,1.47,0,0,0-.56,1.31c.08.42,1.07,1.55.33,1.5a4.26,4.26,0,0,1-1.69-1.47c-.23-.6-.47-1.19-.65-1.64a.65.65,0,0,0-1-.3c-.39.27.11.53-.17,1.1s-.48,1.07-.89.6c-1.06-1.22-2.61-.62-2.85-2-.13-.73-.76-.66-1.29-1.08s-.83-.64-.92-.34,1.66,1.64,1.79,2c.18.53-.52,1-1,1.11s-.74-.29-1.25-.82-.73-.9-.76-.49a2.38,2.38,0,0,0,1,1.81c.44.28.93.41.79.86s0,.2-.5.69a1.33,1.33,0,0,0-.55,1.33c0,.68-.14.72-.25,1.28s-.35.08-.56.91m11.68-4.34c.37,0,.92.48.7.67a1,1,0,0,1-1-.09c-.27-.21.17-.57.34-.58m-.46-.33c-.12,0-.22-.15-.31-.42a.24.24,0,0,1,.36-.31,1.05,1.05,0,0,1,.51.62c0,.18-.44.16-.56.11m-4.81,0a1,1,0,0,1-1-.09c-.27-.21.17-.57.34-.58.37,0,.92.48.7.67m-4.45,2.16c-.15.25-.56,2.08-.83,1.86s.11-2.12.19-2.27c.43-.79,1.36-.75.64.41m1.48,7.1A10.9,10.9,0,0,1,32.76,55a.45.45,0,0,1-.13-.53,2.43,2.43,0,0,1,2.13-1.3c1.77-.17,4.09,1.15,4.46.93s1.12-1.18,2.21-1.14a1.71,1.71,0,0,1,1,.25,10.84,10.84,0,0,1-6.6,2.23m7.68-3.17a1.86,1.86,0,0,1-.34-.13c-.59-.3-.52.18-.82.07s.33-.79-.55-.21-.64-.09-1-1.06a2,2,0,0,1,1.13-2.33,13.81,13.81,0,0,1,2-.52c1.31-.33,1.58-1.1,1.82-.63l.13.25a1.72,1.72,0,0,1,.17.71,10.91,10.91,0,0,1-2.5,3.84m3-5.5c-.29-.08-1.51-1.77-.55-2.88.16-.18-.32-.72-.19-.73a.88.88,0,0,1,.95.76c0,.21,0,.42,0,.63a11,11,0,0,1-.23,2.22"/><path class="cls-2" d="M21.77,10.27V7.39a1.4,1.4,0,0,1,1.49-1.61c1.11,0,1.41.61,1.41,1.49V8h-.91V7.2c0-.37-.12-.58-.48-.58s-.51.25-.51.61v3.19c0,.36.15.61.51.61s.48-.23.48-.58V9.37h.91v1c0,.85-.35,1.48-1.41,1.48A1.41,1.41,0,0,1,21.77,10.27Z"/><path class="cls-2" d="M25.21,5.86h1V11h1.19v.82H25.21Z"/><path class="cls-2" d="M27.86,5.86h1V11.8h-1Z"/><path class="cls-2" d="M32.19,7.94h0l-.68,3.86H31l-.75-3.86h0V11.8h-.82V5.86h1.17l.65,3.35h0l.58-3.35h1.26V11.8h-.91Z"/><path class="cls-2" d="M33.52,11.8l1.12-5.95h1.14l1.13,5.95h-1l-.18-1.09H34.64l-.18,1.09Zm1.25-1.89h.8l-.39-2.39h0Z"/><path class="cls-2" d="M36.77,5.86h2.66v.82H38.6V11.8h-1V6.67h-.82Z"/><path class="cls-2" d="M39.89,5.86h2.39v.82H40.89v1.7h1v.81h-1V11h1.39v.82H39.89Z"/><path class="cls-2" d="M21.61,20.13l1.12-5.95h1.14L25,20.13H24L23.79,19H22.73l-.18,1.09Zm1.25-1.89h.8l-.39-2.39h0Z"/><path class="cls-2" d="M25.28,18.6V15.72a1.4,1.4,0,0,1,1.49-1.61c1.11,0,1.41.61,1.41,1.49v.7h-.91v-.78c0-.37-.12-.58-.48-.58s-.51.25-.51.61v3.19c0,.36.15.61.51.61s.48-.23.48-.58V17.7h.91v1c0,.85-.35,1.48-1.41,1.48A1.41,1.41,0,0,1,25.28,18.6Z"/><path class="cls-2" d="M28.53,14.19h2.66V15h-.82v5.13h-1V15h-.82Z"/><path class="cls-2" d="M31.65,14.19h1v5.95h-1Z"/><path class="cls-2" d="M33.23,18.6V15.72a1.52,1.52,0,1,1,3,0V18.6a1.52,1.52,0,1,1-3,0Zm2,.16V15.56c0-.36-.16-.61-.52-.61s-.51.25-.51.61v3.19c0,.36.16.61.51.61S35.26,19.12,35.26,18.76Z"/><path class="cls-2" d="M37.67,16.4v3.74h-.84V14.19h1l1.08,3.41V14.19h.83v5.95h-.88Z"/></g></g></svg>