<svg xmlns="http://www.w3.org/2000/svg" viewBox="0 0 70.36 70.36"><defs><style>.cls-1{fill:#bf8b2e;}.cls-2{fill:#fff;}.cls-3{fill:none;stroke:#fff;stroke-miterlimit:10;stroke-width:0.73px;}</style></defs><title>Asset 13</title><g id="Layer_2" data-name="Layer 2"><g id="OUTLINE"><rect class="cls-1" width="70.36" height="70.36"/><polygon class="cls-2" points="7.02 9.24 7.04 9.24 7.04 20.11 9.43 20.11 9.43 5.92 7.52 5.92 5.33 8.49 5.33 10.98 5.35 10.98 7.02 9.24"/><path class="cls-2" d="M10.85,8.85v1.72H13V8.78c0-.86.42-1.11.92-1.11s.86.19.86,1.07V9.91a2.81,2.81,0,0,1-.88,2.45l-1.34,1.42c-1.3,1.38-1.78,2.3-1.78,3.7v2.62H17V18.16H13.09v-.67a2.71,2.71,0,0,1,1-2.18l1.53-1.61a4.46,4.46,0,0,0,1.51-3.58V8.74c0-2-1-3-3.12-3s-3.16,1.11-3.16,3.1"/><path class="cls-2" d="M53,36.51a11.54,11.54,0,0,0-8.73-2.15l-.18,0c-1.74.41-4.51,1.09-7.74,5.11l-.05.07,0,0a.26.26,0,0,0,0,.29l.08.12c.41.68.92,1.55,1.35,2.36v0a.28.28,0,0,0,.25.15.27.27,0,0,0,.19-.08l.06-.08c2.87-4,5.13-4.52,6.66-4.88l.18,0A8.37,8.37,0,0,1,51,39c1.7,1.34,2.56,3.48,2.56,6.34,0,4.81-2.34,6.69-4.3,7.42a8,8,0,0,1-6-.39l-.13-.06c-1.67-.73-4.16-2.23-6.51-7C31.93,35.88,28,35,25.35,34.39l-.14,0a11.31,11.31,0,0,0-8.6,2.14c-1.7,1.36-3.73,4-3.73,8.86a10.42,10.42,0,0,0,2.17,7A10.58,10.58,0,0,0,25.69,56a10.19,10.19,0,0,0,4.17-1.94l1.49,1.35a.24.24,0,0,0,.34,0,.23.23,0,0,0,.06-.16v0l1.08-6.62v-.07a.24.24,0,0,0-.08-.18.22.22,0,0,0-.16-.06h-.12l-6.34,1.78-.12,0a.22.22,0,0,0-.12.07.24.24,0,0,0,0,.34l.07.07,1.42,1.28a6.62,6.62,0,0,1-2.33,1,7.42,7.42,0,0,1-7.42-2.4l0,0a7.25,7.25,0,0,1-1.53-5c0-2.88.85-5,2.52-6.35a8.12,8.12,0,0,1,5.88-1.51l.14,0c2.15.49,5.09,1.15,9.15,9.3,2.11,4.23,4.74,7,8.06,8.45a11.72,11.72,0,0,0,5.05,1.17,10.06,10.06,0,0,0,3.52-.62c1.92-.72,6.4-3.17,6.4-10.45,0-4.86-2.06-7.51-3.79-8.87"/><path class="cls-3" d="M53,36.51a11.54,11.54,0,0,0-8.73-2.15l-.18,0c-1.74.41-4.51,1.09-7.74,5.11l-.05.07,0,0a.26.26,0,0,0,0,.29l.08.12c.41.68.92,1.55,1.35,2.36v0a.28.28,0,0,0,.25.15.27.27,0,0,0,.19-.08l.06-.08c2.87-4,5.13-4.52,6.66-4.88l.18,0A8.37,8.37,0,0,1,51,39c1.7,1.34,2.56,3.48,2.56,6.34,0,4.81-2.34,6.69-4.3,7.42a8,8,0,0,1-6-.39l-.13-.06c-1.67-.73-4.16-2.23-6.51-7C31.93,35.88,28,35,25.35,34.39l-.14,0a11.31,11.31,0,0,0-8.6,2.14c-1.7,1.36-3.73,4-3.73,8.86a10.42,10.42,0,0,0,2.17,7A10.58,10.58,0,0,0,25.69,56a10.19,10.19,0,0,0,4.17-1.94l1.49,1.35a.24.24,0,0,0,.34,0,.23.23,0,0,0,.06-.16v0l1.08-6.62v-.07a.24.24,0,0,0-.08-.18.22.22,0,0,0-.16-.06h-.12l-6.34,1.78-.12,0a.22.22,0,0,0-.12.07.24.24,0,0,0,0,.34l.07.07,1.42,1.28a6.62,6.62,0,0,1-2.33,1,7.42,7.42,0,0,1-7.42-2.4l0,0a7.25,7.25,0,0,1-1.53-5c0-2.88.85-5,2.52-6.35a8.12,8.12,0,0,1,5.88-1.51l.14,0c2.15.49,5.09,1.15,9.15,9.3,2.11,4.23,4.74,7,8.06,8.45a11.72,11.72,0,0,0,5.05,1.17,10.06,10.06,0,0,0,3.52-.62c1.92-.72,6.4-3.17,6.4-10.45,0-4.86-2.06-7.51-3.79-8.87"/><path class="cls-2" d="M23.6,9.12v2.72h-1V5.91h1.45c1,0,1.37.5,1.37,1.33V8c0,.64-.23,1-.8,1.15l1,2.69h-1Zm0-2.4V8.57h.33a.43.43,0,0,0,.49-.49V7.21c0-.32-.15-.48-.49-.48Z"/><path class="cls-2" d="M25.85,5.91h2.38v.81H26.84v1.7h1v.8h-1V11h1.38v.81H25.85Z"/><path class="cls-2" d="M28.54,10.56v-.8h.93v.81c0,.33.15.52.49.52s.46-.21.46-.52v-.23A1.07,1.07,0,0,0,30,9.51l-.59-.59a2,2,0,0,1-.83-1.58v-.2a1.24,1.24,0,0,1,1.4-1.3c1,0,1.39.49,1.39,1.35v.48h-.91V7.15c0-.34-.16-.51-.47-.51a.44.44,0,0,0-.47.49v.12c0,.33.18.52.47.8l.64.63a2,2,0,0,1,.8,1.54v.29a1.28,1.28,0,0,1-1.45,1.39A1.24,1.24,0,0,1,28.54,10.56Z"/><path class="cls-2" d="M31.8,5.91h1.48c1,0,1.37.5,1.37,1.33V8.49c0,.83-.37,1.34-1.37,1.34H32.8v2h-1Zm1,.81V9.06h.37a.43.43,0,0,0,.49-.49V7.21c0-.32-.15-.48-.49-.48Z"/><path class="cls-2" d="M35,10.31V7.44a1.51,1.51,0,1,1,3,0v2.87a1.51,1.51,0,1,1-3,0Zm2,.16V7.28c0-.36-.16-.61-.52-.61s-.51.25-.51.61v3.18c0,.36.16.61.51.61S37.07,10.83,37.07,10.47Z"/><path class="cls-2" d="M39.35,8.11v3.73h-.84V5.91h1l1.08,3.4V5.91h.83v5.93h-.87Z"/><path class="cls-2" d="M41.79,10.56v-.8h.93v.81c0,.33.15.52.49.52s.45-.21.45-.52v-.23a1.07,1.07,0,0,0-.45-.84l-.59-.59a2,2,0,0,1-.83-1.58v-.2a1.24,1.24,0,0,1,1.4-1.3c1,0,1.39.49,1.39,1.35v.48h-.91V7.15c0-.34-.16-.51-.47-.51a.44.44,0,0,0-.47.49v.12c0,.33.18.52.47.8l.64.63a2,2,0,0,1,.81,1.54v.29a1.28,1.28,0,0,1-1.45,1.39A1.24,1.24,0,0,1,41.79,10.56Z"/><path class="cls-2" d="M45.05,5.91h1v5.93h-1Z"/><path class="cls-2" d="M46.5,5.91h1.44c1,0,1.33.46,1.33,1.3v.6a.86.86,0,0,1-.6.94.9.9,0,0,1,.74,1v.79c0,.84-.38,1.3-1.37,1.3H46.5Zm1,2.5h.35a.42.42,0,0,0,.47-.48V7.21a.42.42,0,0,0-.48-.48H47.5Zm0,.76V11h.44a.43.43,0,0,0,.49-.48V9.65c0-.31-.15-.48-.5-.48Z"/><path class="cls-2" d="M49.8,5.91h1V11H52v.81H49.8Z"/><path class="cls-2" d="M52.32,5.91H54.7v.81H53.31v1.7h1v.8h-1V11H54.7v.81H52.32Z"/><path class="cls-2" d="M22.6,18.62V15.75a1.4,1.4,0,0,1,1.49-1.6c1.1,0,1.41.61,1.41,1.49v.7h-.91v-.78c0-.37-.12-.58-.48-.58s-.51.25-.51.61v3.18c0,.36.15.61.51.61s.48-.23.48-.58V17.72h.91v1c0,.85-.35,1.48-1.41,1.48A1.4,1.4,0,0,1,22.6,18.62Z"/><path class="cls-2" d="M25.92,18.62V15.75a1.51,1.51,0,1,1,3,0v2.87a1.51,1.51,0,1,1-3,0Zm2,.16V15.59c0-.36-.16-.61-.52-.61s-.51.25-.51.61v3.18c0,.36.16.61.51.61S27.94,19.13,27.94,18.77Z"/><path class="cls-2" d="M30.22,16.42v3.73h-.84V14.22h1l1.08,3.4v-3.4h.83v5.93h-.87Z"/><path class="cls-2" d="M32.66,18.87v-.8h.93v.81c0,.33.15.52.49.52s.46-.21.46-.52v-.23a1.07,1.07,0,0,0-.45-.84l-.59-.59a2,2,0,0,1-.83-1.58v-.2a1.24,1.24,0,0,1,1.4-1.3c1,0,1.39.49,1.39,1.35V16h-.91v-.52c0-.34-.16-.51-.47-.51a.44.44,0,0,0-.47.49v.12c0,.33.18.52.47.8l.64.63a2,2,0,0,1,.8,1.54v.29a1.28,1.28,0,0,1-1.45,1.39A1.24,1.24,0,0,1,32.66,18.87Z"/><path class="cls-2" d="M38.82,14.22V18.7c0,.92-.39,1.51-1.41,1.51a1.34,1.34,0,0,1-1.49-1.51V14.22h1V18.8c0,.35.14.59.49.59s.49-.24.49-.59V14.22Z"/><path class="cls-2" d="M42,16.3h0l-.67,3.85h-.46L40.1,16.3h0v3.85h-.82V14.22h1.16l.65,3.34h0l.58-3.34h1.26v5.93H42Z"/><path class="cls-2" d="M43.36,14.22h1.48c1,0,1.37.5,1.37,1.33V16.8c0,.83-.37,1.34-1.37,1.34h-.48v2h-1Zm1,.81v2.34h.37a.43.43,0,0,0,.49-.49V15.51c0-.32-.15-.48-.49-.48Z"/><path class="cls-2" d="M46.45,14.22H49.1V15h-.82v5.12h-1V15h-.82Z"/><path class="cls-2" d="M49.44,14.22h1v5.93h-1Z"/><path class="cls-2" d="M50.89,18.62V15.75a1.51,1.51,0,1,1,3,0v2.87a1.51,1.51,0,1,1-3,0Zm2,.16V15.59c0-.36-.16-.61-.52-.61s-.51.25-.51.61v3.18c0,.36.16.61.51.61S52.91,19.13,52.91,18.77Z"/><path class="cls-2" d="M55.19,16.42v3.73h-.84V14.22h1l1.08,3.4v-3.4h.83v5.93h-.87Z"/><path class="cls-2" d="M22.45,28.46l1.12-5.93H24.7l1.13,5.93h-1l-.18-1.08H23.56l-.17,1.08Zm1.25-1.88h.8L24.1,24.2h0Z"/><path class="cls-2" d="M27,24.73v3.73h-.84V22.53h1l1.08,3.4v-3.4H29v5.93h-.87Z"/><path class="cls-2" d="M32.43,24.12v2.75c0,.91-.38,1.59-1.44,1.59H29.45V22.53H31C32.06,22.53,32.43,23.2,32.43,24.12Zm-1.57,3.52c.41,0,.57-.24.57-.6V23.93a.52.52,0,0,0-.57-.59h-.42v4.3Z"/><path class="cls-2" d="M33.67,22.53h1.48c1,0,1.37.5,1.37,1.33v1.25c0,.83-.37,1.34-1.37,1.34h-.48v2h-1Zm1,.81v2.34H35a.43.43,0,0,0,.49-.49V23.82c0-.32-.15-.48-.49-.48Z"/><path class="cls-2" d="M37.91,25.74v2.72h-1V22.53h1.45c1,0,1.37.5,1.37,1.33v.76c0,.64-.23,1-.8,1.15l1,2.69h-1Zm0-2.4v1.85h.33a.43.43,0,0,0,.49-.49v-.87c0-.32-.15-.48-.49-.48Z"/><path class="cls-2" d="M40.16,26.92V24.06a1.51,1.51,0,1,1,3,0v2.87a1.51,1.51,0,1,1-3,0Zm2,.16V23.9c0-.36-.16-.61-.52-.61s-.51.25-.51.61v3.18c0,.36.16.61.51.61S42.18,27.44,42.18,27.08Z"/><path class="cls-2" d="M46.61,24.12v2.75c0,.91-.38,1.59-1.44,1.59H43.62V22.53h1.54C46.23,22.53,46.61,23.2,46.61,24.12ZM45,27.64c.41,0,.57-.24.57-.6V23.93a.52.52,0,0,0-.57-.59h-.42v4.3Z"/><path class="cls-2" d="M49.95,22.53V27c0,.92-.39,1.51-1.41,1.51A1.34,1.34,0,0,1,47.05,27V22.53h1v4.58c0,.35.14.59.49.59s.49-.24.49-.59V22.53Z"/><path class="cls-2" d="M50.39,26.92V24.06a1.4,1.4,0,0,1,1.49-1.6c1.1,0,1.41.61,1.41,1.49v.7h-.91v-.78c0-.37-.12-.58-.48-.58s-.51.25-.51.61v3.18c0,.36.15.61.51.61s.48-.23.48-.58V26h.91v1c0,.85-.35,1.48-1.41,1.48A1.4,1.4,0,0,1,50.39,26.92Z"/><path class="cls-2" d="M53.51,22.53h2.65v.81h-.82v5.12h-1V23.34h-.82Z"/><path class="cls-2" d="M56.5,22.53h1v5.93h-1Z"/><path class="cls-2" d="M57.95,26.92V24.06a1.51,1.51,0,1,1,3,0v2.87a1.51,1.51,0,1,1-3,0Zm2,.16V23.9c0-.36-.16-.61-.52-.61s-.51.25-.51.61v3.18c0,.36.16.61.51.61S60,27.44,60,27.08Z"/><path class="cls-2" d="M62.25,24.73v3.73h-.84V22.53h1l1.08,3.4v-3.4h.83v5.93h-.87Z"/></g></g></svg>