<svg xmlns="http://www.w3.org/2000/svg" viewBox="0 0 70.56 70.56"><defs><style>.cls-1{fill:#00689d;}.cls-2{fill:#fff;}</style></defs><title>Asset 17</title><g id="Layer_2" data-name="Layer 2"><g id="OUTLINE"><rect class="cls-1" width="70.56" height="70.56"/><polygon class="cls-2" points="5.43 8.5 5.43 11 5.45 11 7.13 9.26 7.15 9.26 7.15 20.14 9.54 20.14 9.54 5.92 7.63 5.92 5.43 8.5"/><path class="cls-2" d="M17.91,16.73v-2.1c0-2.33-.92-3.5-2.64-3.5a2,2,0,0,0-2,1.15h0V9.21c0-.86.27-1.47,1.13-1.47s1.11.5,1.11,1.38v.95H17.7V9.32c0-2.1-.69-3.57-3.34-3.57s-3.46,1.62-3.46,3.84v6.92c0,2.2,1,3.8,3.48,3.8s3.52-1.38,3.52-3.59m-2.37.21c0,.9-.34,1.43-1.15,1.43s-1.11-.55-1.11-1.43v-2.6c0-.8.38-1.3,1.13-1.3s1.13.5,1.13,1.43Z"/><path class="cls-2" d="M47.59,31.18a2.47,2.47,0,0,0-.47,1.75A2.47,2.47,0,0,0,48.3,34.3a2.47,2.47,0,0,0,.47-1.75,2.46,2.46,0,0,0-1.18-1.38"/><path class="cls-2" d="M46.5,36.24A2.47,2.47,0,0,0,47,34.49a2.46,2.46,0,0,0-1.18-1.38,2.47,2.47,0,0,0-.47,1.75,2.47,2.47,0,0,0,1.18,1.38"/><path class="cls-2" d="M49.25,35.29a2.19,2.19,0,0,0,1.51.64,2.29,2.29,0,0,0,1.4-.9,2.19,2.19,0,0,0-1.51-.64,2.29,2.29,0,0,0-1.4.9"/><path class="cls-2" d="M50.4,31.49a2.65,2.65,0,0,0-.56,1.84,2.54,2.54,0,0,0,1.81-.56,2.65,2.65,0,0,0,.56-1.83,2.54,2.54,0,0,0-1.81.56"/><path class="cls-2" d="M49,37.92a2.29,2.29,0,0,0,1.55-.59,2.2,2.2,0,0,0-1.34-.93,2.29,2.29,0,0,0-1.55.59,2.2,2.2,0,0,0,1.34.93"/><path class="cls-2" d="M49.67,50.78h-6a.85.85,0,1,0,0,1.69h6a.85.85,0,0,0,0-1.69"/><path class="cls-2" d="M49.67,60.1h-6a.85.85,0,1,0,0,1.69h6a.85.85,0,0,0,0-1.69"/><path class="cls-2" d="M22.79,48.73l-.42-.11.42.11"/><path class="cls-2" d="M49.45,53.06H43.92a.48.48,0,0,0-.48.48v1.68l-3.62.4-5.28-.12V52.27a14.52,14.52,0,0,0,2.1-.43c5.09-1.43,6.19-4.6,6.08-7.51s.84-4.11,2.2-4.62a6.14,6.14,0,0,1,1.13-.3A9.07,9.07,0,0,0,46.54,42l.36,0a8.57,8.57,0,0,1-.5-2.6,6.34,6.34,0,0,1,1.21,0,7.66,7.66,0,0,1-1.15-.82,5.73,5.73,0,0,1,1.93-3.15,10.35,10.35,0,0,0,1.35-1.58l-.3-.19a10,10,0,0,1-1.3,1.53,6.2,6.2,0,0,0-2,3.13,11.36,11.36,0,0,1-.87-.88C44,36,42.41,37,40.11,39.13s-5.2,2.22-8-.68c-3.73-3.82-7-3.8-9.22-3.58,1.53.65,2.06,2.08,2.83,5.7.81,3.81,2.85,5.53,5.65,5.77-1.3.21-1.63.39-3.71,1.83-1.63,1.12-3.91.77-4.84.56,1.7.53,3.72,2.32,5.52,2.94a13.37,13.37,0,0,0,3.29.68v3.09l-10-.22v2.16L39.82,57l3.62.4V59a.48.48,0,0,0,.48.48h5.54a.48.48,0,0,0,.48-.48v-5.5A.48.48,0,0,0,49.45,53.06Zm-17-.68c.39,0,.79,0,1.19,0v3.12l-1.19,0Z"/><path class="cls-2" d="M21.07,57a.77.77,0,0,1-.71.82h-.43a.77.77,0,0,1-.71-.82V55.52a.77.77,0,0,1,.71-.82h.43a.77.77,0,0,1,.71.82Z"/><path class="cls-2" d="M22.3,5.86h1.48c1,0,1.38.5,1.38,1.33V8.44c0,.83-.37,1.34-1.38,1.34H23.3v2h-1Zm1,.82V9h.37a.43.43,0,0,0,.49-.49V7.15c0-.32-.15-.48-.49-.48Z"/><path class="cls-2" d="M25.68,5.86h2.39v.82H26.68v1.7h1v.81h-1V11h1.39v.82H25.68Z"/><path class="cls-2" d="M28.44,11.8l1.12-5.95H30.7l1.13,5.95h-1l-.18-1.09H29.56l-.18,1.09Zm1.25-1.89h.8L30.1,7.53h0Z"/><path class="cls-2" d="M32.11,10.27V7.39A1.4,1.4,0,0,1,33.6,5.79c1.11,0,1.41.61,1.41,1.49V8H34.1V7.2c0-.37-.12-.58-.48-.58s-.51.25-.51.61v3.19c0,.36.15.61.51.61s.48-.23.48-.58V9.37H35v1c0,.85-.35,1.48-1.41,1.48A1.41,1.41,0,0,1,32.11,10.27Z"/><path class="cls-2" d="M35.56,5.86h2.39v.82H36.56v1.7h1v.81h-1V11h1.39v.82H35.56Z"/><path class="cls-2" d="M39.5,10.93,39,12.27h-.56l.12-1.42h.95Z"/><path class="cls-2" d="M43.65,5.86v4.6a1.24,1.24,0,0,1-1.38,1.42c-1,0-1.32-.57-1.32-1.32V9.37h.95v1.2c0,.3.11.47.37.47s.38-.18.38-.48V5.86Z"/><path class="cls-2" d="M47.12,5.86v4.5c0,.92-.39,1.52-1.41,1.52a1.34,1.34,0,0,1-1.49-1.52V5.86h1v4.6c0,.35.14.59.49.59s.49-.24.49-.59V5.86Z"/><path class="cls-2" d="M47.63,10.52v-.8h.93v.82c0,.33.15.53.49.53s.46-.21.46-.53v-.23a1.07,1.07,0,0,0-.45-.84l-.59-.59a2,2,0,0,1-.83-1.59v-.2A1.24,1.24,0,0,1,49,5.79c1,0,1.39.49,1.39,1.35v.48h-.91V7.1c0-.34-.16-.51-.47-.51a.44.44,0,0,0-.47.49v.12c0,.33.18.53.47.81l.64.63a2,2,0,0,1,.81,1.54v.29A1.29,1.29,0,0,1,49,11.87,1.24,1.24,0,0,1,47.63,10.52Z"/><path class="cls-2" d="M50.78,5.86h2.66v.82h-.82V11.8h-1V6.67h-.82Z"/><path class="cls-2" d="M53.9,5.86h1V11.8h-1Z"/><path class="cls-2" d="M55.48,10.27V7.39A1.4,1.4,0,0,1,57,5.79c1.11,0,1.41.61,1.41,1.49V8h-.91V7.2c0-.37-.12-.58-.48-.58s-.51.25-.51.61v3.19c0,.36.15.61.51.61s.48-.23.48-.58V9.37h.91v1c0,.85-.35,1.48-1.41,1.48A1.41,1.41,0,0,1,55.48,10.27Z"/><path class="cls-2" d="M58.93,5.86h2.39v.82H59.93v1.7h1v.81h-1V11h1.39v.82H58.93Z"/><path class="cls-2" d="M22.14,20.13l1.12-5.95H24.4l1.13,5.95h-1L24.33,19H23.26l-.18,1.09Zm1.25-1.89h.8l-.39-2.39h0Z"/><path class="cls-2" d="M26.79,16.4v3.74h-.84V14.19h1L28,17.6V14.19h.83v5.95H28Z"/><path class="cls-2" d="M32.4,15.78v2.75c0,.91-.38,1.6-1.45,1.6H29.41V14.19H31C32,14.19,32.4,14.86,32.4,15.78Zm-1.57,3.53c.41,0,.57-.25.57-.61V15.6a.52.52,0,0,0-.57-.6h-.42v4.32Z"/><path class="cls-2" d="M33.84,18.85v-.8h.93v.82c0,.33.15.53.49.53s.46-.21.46-.53v-.23a1.07,1.07,0,0,0-.45-.84l-.59-.59a2,2,0,0,1-.83-1.59v-.2a1.24,1.24,0,0,1,1.4-1.31c1,0,1.39.49,1.39,1.35V16h-.91v-.52c0-.34-.16-.51-.47-.51a.44.44,0,0,0-.47.49v.12c0,.33.18.53.47.81l.64.63a2,2,0,0,1,.81,1.54v.29a1.29,1.29,0,0,1-1.46,1.39A1.24,1.24,0,0,1,33.84,18.85Z"/><path class="cls-2" d="M37,14.19h2.66V15h-.82v5.13h-1V15H37Z"/><path class="cls-2" d="M41.11,17.41v2.73h-1V14.19h1.46c1,0,1.38.5,1.38,1.33v.76c0,.64-.23,1-.8,1.15l1,2.7H42Zm0-2.4v1.85h.33a.43.43,0,0,0,.49-.49v-.88c0-.32-.15-.48-.49-.48Z"/><path class="cls-2" d="M43.49,18.6V15.72a1.52,1.52,0,1,1,3,0V18.6a1.52,1.52,0,1,1-3,0Zm2,.16V15.56c0-.36-.16-.61-.52-.61s-.51.25-.51.61v3.19c0,.36.16.61.51.61S45.51,19.12,45.51,18.76Z"/><path class="cls-2" d="M47.92,16.4v3.74h-.84V14.19h1l1.08,3.41V14.19H50v5.95H49.1Z"/><path class="cls-2" d="M52.05,17h1.42v3.18h-.72v-.65a.9.9,0,0,1-1,.72c-.86,0-1.25-.68-1.25-1.61V15.72A1.41,1.41,0,0,1,52,14.12c1.11,0,1.43.61,1.43,1.49v.53h-.91v-.61c0-.37-.14-.58-.5-.58s-.52.25-.52.61v3.19c0,.36.15.61.49.61s.49-.18.49-.57V17.75h-.47Z"/><path class="cls-2" d="M22.3,22.52h1v5.95h-1Z"/><path class="cls-2" d="M24.72,24.73v3.74h-.84V22.52h1l1.08,3.41V22.52h.83v5.95H25.9Z"/><path class="cls-2" d="M27.29,27.18v-.8h.93v.82c0,.33.15.53.49.53s.46-.21.46-.53V27a1.07,1.07,0,0,0-.45-.84l-.59-.59A2,2,0,0,1,27.3,24v-.2a1.24,1.24,0,0,1,1.4-1.31c1,0,1.39.49,1.39,1.35v.48h-.91v-.52c0-.34-.16-.51-.47-.51a.44.44,0,0,0-.47.49v.12c0,.33.18.53.47.81l.64.63a2,2,0,0,1,.81,1.54v.29a1.29,1.29,0,0,1-1.46,1.39A1.24,1.24,0,0,1,27.29,27.18Z"/><path class="cls-2" d="M30.44,22.52H33.1v.82h-.82v5.13h-1V23.33h-.82Z"/><path class="cls-2" d="M33.56,22.52h1v5.95h-1Z"/><path class="cls-2" d="M35,22.52h2.66v.82h-.82v5.13h-1V23.33H35Z"/><path class="cls-2" d="M41,22.52V27c0,.92-.39,1.52-1.41,1.52A1.34,1.34,0,0,1,38.14,27v-4.5h1v4.6c0,.35.14.59.49.59s.49-.24.49-.59v-4.6Z"/><path class="cls-2" d="M41.5,22.52h2.66v.82h-.82v5.13h-1V23.33H41.5Z"/><path class="cls-2" d="M44.63,22.52h1v5.95h-1Z"/><path class="cls-2" d="M46.2,26.93V24.05a1.52,1.52,0,1,1,3,0v2.88a1.52,1.52,0,1,1-3,0Zm2,.16V23.9c0-.36-.16-.61-.52-.61s-.51.25-.51.61v3.19c0,.36.16.61.51.61S48.23,27.45,48.23,27.09Z"/><path class="cls-2" d="M50.64,24.73v3.74H49.8V22.52h1l1.08,3.41V22.52h.83v5.95h-.88Z"/><path class="cls-2" d="M53.21,27.18v-.8h.93v.82c0,.33.15.53.49.53s.46-.21.46-.53V27a1.07,1.07,0,0,0-.45-.84l-.59-.59A2,2,0,0,1,53.22,24v-.2a1.24,1.24,0,0,1,1.4-1.31c1,0,1.39.49,1.39,1.35v.48H55.1v-.52c0-.34-.16-.51-.47-.51a.44.44,0,0,0-.47.49v.12c0,.33.18.53.47.81l.64.63a2,2,0,0,1,.81,1.54v.29a1.29,1.29,0,0,1-1.46,1.39A1.24,1.24,0,0,1,53.21,27.18Z"/></g></g></svg>