<svg xmlns="http://www.w3.org/2000/svg" viewBox="0 0 70.56 70.56"><defs><style>.cls-1{fill:#0a97d9;}.cls-2{fill:#fff;}</style></defs><title>Asset 15</title><g id="Layer_2" data-name="Layer 2"><g id="OUTLINE"><rect class="cls-1" width="70.56" height="70.56"/><polygon class="cls-2" points="9.19 5.94 9.19 20.16 6.8 20.16 6.8 9.27 6.78 9.27 5.1 11.01 5.08 11.01 5.08 8.52 7.28 5.94 9.19 5.94"/><path class="cls-2" d="M16.47,20.16V17.85h1V16h-1V5.93H14.12L10,16.38v1.47h4.22v2.31ZM12.09,16l2.14-5.85h0V16Z"/><path class="cls-2" d="M54.17,51.48C53.29,50.28,47.55,43,39.51,43c-7,0-14.45,6.33-14.45,6.33s-2.81-5.74-8.55-6.3h-.14a.23.23,0,0,0-.22.23.64.64,0,0,0,.09.21,17.56,17.56,0,0,1,2.63,8.21c0,3.5-1.9,7-2.63,8.23l0,.08a.23.23,0,0,0,.18.35h.12c5.76-.54,8.57-6.3,8.57-6.3s7.47,6.33,14.45,6.33c8,0,13.78-7.31,14.67-8.51l.06-.08a.24.24,0,0,0,0-.09.23.23,0,0,0,0-.09l-.06-.08M44,52.58a2.35,2.35,0,1,1,2.35-2.35A2.35,2.35,0,0,1,44,52.58"/><path class="cls-2" d="M16.33,29.22h0a.23.23,0,0,0-.23.23V31a.23.23,0,0,0,.07.17c3.88,3.37,7.56.21,8.41-.62a.22.22,0,0,1,.06-.07.23.23,0,0,1,.13,0,.22.22,0,0,1,.16.06h0c4.39,4.18,9,.8,9.94,0l.09-.09.09,0,.09,0,.09.09c1,.8,5.55,4.18,9.94,0h0a.22.22,0,0,1,.28,0,.24.24,0,0,1,.06.07c.85.84,4.52,4,8.41.62A.23.23,0,0,0,54,31v-1.6a.23.23,0,0,0-.23-.23h0l-.12.06a7.07,7.07,0,0,1-8.26-1.16l-.1-.09-.1,0H45a.26.26,0,0,0-.12.09c-1,.76-5.6,3.88-9.69.06l-.06-.06A.26.26,0,0,0,35,28a.24.24,0,0,0-.16.07l-.06.06c-4.09,3.82-8.7.71-9.7-.06A.25.25,0,0,0,25,28H24.9l-.1,0-.1.09a7.06,7.06,0,0,1-8.26,1.16l-.12-.06"/><path class="cls-2" d="M24.53,36.41l.06-.06a.24.24,0,0,1,.13,0,.23.23,0,0,1,.16.06h0c4.38,4.18,9,.79,9.94,0l.09-.09h.18l.09.09c1,.79,5.55,4.18,9.94,0h0a.22.22,0,0,1,.16-.06.23.23,0,0,1,.13,0l.07.06c.85.84,4.52,4,8.41.62a.23.23,0,0,0,.07-.16v-1.6a.23.23,0,0,0-.23-.23h0l-.12.06a7.07,7.07,0,0,1-8.26-1.16l-.1-.09a.19.19,0,0,0-.1,0l-.07,0a.2.2,0,0,0-.12.09c-1,.76-5.6,3.88-9.69.06l-.06-.06a.24.24,0,0,0-.17-.06.23.23,0,0,0-.16.06l-.06.06c-4.09,3.82-8.7.71-9.7-.06a.19.19,0,0,0-.11-.09l-.07,0-.1,0-.1.09a7.07,7.07,0,0,1-8.26,1.16L16.33,35h0a.23.23,0,0,0-.23.23v1.6a.22.22,0,0,0,.07.16c3.88,3.38,7.56.21,8.41-.62"/><path class="cls-2" d="M23,5.86h1V11h1.19v.82H23Z"/><path class="cls-2" d="M25.69,5.86h1V11.8h-1Z"/><path class="cls-2" d="M27.27,5.86h2.34v.82H28.27v1.7h1v.81h-1V11.8h-1Z"/><path class="cls-2" d="M30.05,5.86h2.39v.82H31.05v1.7h1v.81h-1V11h1.39v.82H30.05Z"/><path class="cls-2" d="M23,14.19h1.45c1,0,1.33.46,1.33,1.31v.61a.87.87,0,0,1-.6.95A.9.9,0,0,1,26,18v.79c0,.84-.38,1.31-1.38,1.31H23Zm1,2.51h.35a.42.42,0,0,0,.47-.48v-.73a.42.42,0,0,0-.48-.48H24Zm0,.76v1.86h.44a.43.43,0,0,0,.49-.48v-.89c0-.32-.15-.48-.5-.48Z"/><path class="cls-2" d="M26.47,14.19h2.39V15H27.47v1.7h1v.81h-1v1.81h1.39v.82H26.47Z"/><path class="cls-2" d="M29.39,14.19h1v5.13h1.19v.82H29.39Z"/><path class="cls-2" d="M32,18.6V15.72a1.52,1.52,0,1,1,3,0V18.6a1.52,1.52,0,1,1-3,0Zm2,.16V15.56c0-.36-.16-.61-.52-.61s-.51.25-.51.61v3.19c0,.36.16.61.51.61S34,19.12,34,18.76Z"/><path class="cls-2" d="M37.66,16.46l-.56,3.68h-.94l-.8-5.95h1L36.8,18h0l.5-3.77h.82L38.67,18h0l.46-3.77H40l-.77,5.95h-.95l-.59-3.68Z"/><path class="cls-2" d="M43.49,16.46l-.56,3.68H42l-.8-5.95h1L42.62,18h0l.5-3.77h.82L44.5,18h0L45,14.19h.84L45,20.13h-.95l-.59-3.68Z"/><path class="cls-2" d="M45.72,20.13l1.12-5.95H48l1.13,5.95h-1L47.91,19H46.84l-.18,1.09ZM47,18.25h.8l-.39-2.39h0Z"/><path class="cls-2" d="M49,14.19h2.66V15h-.82v5.13h-1V15H49Z"/><path class="cls-2" d="M52.1,14.19h2.39V15H53.1v1.7h1v.81h-1v1.81h1.39v.82H52.1Z"/><path class="cls-2" d="M56,17.41v2.73H55V14.19h1.46c1,0,1.38.5,1.38,1.33v.76c0,.64-.23,1-.8,1.15l1,2.7H57ZM56,15v1.85h.33a.43.43,0,0,0,.49-.49v-.88c0-.32-.15-.48-.49-.48Z"/></g></g></svg>