<svg xmlns="http://www.w3.org/2000/svg" viewBox="0 0 70.36 70.36"><defs><style>.cls-1{fill:#e5243b;}.cls-2{fill:#fff;}.cls-3{fill:none;stroke:#fff;stroke-linecap:round;stroke-miterlimit:10;stroke-width:1.31px;}</style></defs><title>Asset 2</title><g id="Layer_2" data-name="Layer 2"><g id="OUTLINE"><rect class="cls-1" width="70.36" height="70.36"/><polygon class="cls-2" points="9.82 9.25 9.84 9.25 9.84 20.11 12.23 20.11 12.23 5.93 10.32 5.93 8.13 8.5 8.13 10.99 8.15 10.99 9.82 9.25"/><path class="cls-2" d="M54.18,33.57a1.95,1.95,0,1,1,1.95,1.95,1.95,1.95,0,0,1-1.95-1.95"/><path class="cls-2" d="M58.41,36.27a2.6,2.6,0,0,1,2.36,2.59v5.4a.75.75,0,0,1-1.51,0V39.61c0-.17-.05-.41-.37-.41s-.27.23-.27.38v13.9a1.09,1.09,0,0,1-2.17,0v-8a.29.29,0,0,0-.31-.32h0a.3.3,0,0,0-.31.32v8a1.08,1.08,0,1,1-2.17,0V39.59c0-.15-.05-.38-.27-.38s-.37.24-.37.41v4.64a.75.75,0,0,1-1.51,0v-5.4a2.6,2.6,0,0,1,2.36-2.59h4.55"/><path class="cls-2" d="M42.6,34.59a1.84,1.84,0,1,0-1.84,1.84,1.84,1.84,0,0,0,1.84-1.84"/><path class="cls-2" d="M37,38.77l-1.53,5s-.27.91.5,1.14,1-.66,1-.66l1.24-4.17s.07-.32.31-.25.15.41.15.41L36.56,48h2v5.59a1,1,0,0,0,1.92,0V48H41v5.59a1,1,0,0,0,1.92,0V48h2L42.8,40.23s-.09-.34.15-.41.31.25.31.25l1.24,4.17s.24.89,1,.66.5-1.14.5-1.14l-1.53-5s-.55-1.44-1.76-1.44H38.8c-1.21,0-1.76,1.44-1.76,1.44"/><path class="cls-2" d="M31.55,34.59a1.84,1.84,0,1,0-1.84,1.84,1.85,1.85,0,0,0,1.84-1.84"/><path class="cls-2" d="M26,38.77l-1.53,5s-.27.91.5,1.14,1-.66,1-.66l1.24-4.17s.07-.32.31-.25.15.41.15.41L25.51,48h2v5.59a1,1,0,0,0,1.92,0V48H30v5.59a1,1,0,0,0,1.92,0V48h2l-2.15-7.81s-.09-.34.15-.41.31.25.31.25l1.24,4.17s.24.89,1,.66.5-1.14.5-1.14l-1.53-5s-.55-1.44-1.76-1.44H27.76c-1.21,0-1.76,1.44-1.76,1.44"/><path class="cls-2" d="M48.8,44.91a1.54,1.54,0,1,0-1.54-1.54,1.53,1.53,0,0,0,1.54,1.54"/><path class="cls-2" d="M45.12,49.68a.53.53,0,0,0,.22.73.51.51,0,0,0,.66-.21l.83-2.66s.14-.18.14,0V53.8h0a.79.79,0,1,0,1.58,0V51.33s0-.35.24-.35.24.35.24.35V53.8a.79.79,0,0,0,1.58,0V47.54c0-.18.1-.05.1-.05l.65,1.82a4.36,4.36,0,0,0,.37.85.58.58,0,0,0,.76-.31.57.57,0,0,0-.06-.56h0c0-.06-1-2.41-1.09-2.74-.35-1-1-1-1.58-1s-1,0-1,0-.39,0-1.19,0-1.05.44-1.94,2.71c-.13.33-.55,1.39-.56,1.45Z"/><path class="cls-2" d="M15.08,33.57a1.95,1.95,0,1,0-1.95,1.95,1.95,1.95,0,0,0,1.95-1.95"/><path class="cls-2" d="M10.86,36.27A2.6,2.6,0,0,0,8.5,38.85v5.4a.76.76,0,0,0,1.51,0V39.61c0-.17.05-.41.37-.41s.27.23.27.38v13.9a1.08,1.08,0,1,0,2.17,0v-8a.3.3,0,0,1,.31-.32h0a.3.3,0,0,1,.31.32v8a1.08,1.08,0,1,0,2.17,0V39.59c0-.15.06-.38.27-.38s.37.24.37.41v4.64a.76.76,0,0,0,1.51,0v-5.4a2.6,2.6,0,0,0-2.36-2.59H10.86"/><line class="cls-3" x1="9.16" y1="45.04" x2="7.43" y2="54.2"/><path class="cls-2" d="M18.69,44.11a.56.56,0,0,0-1,.3,1,1,0,0,0,.05.25l1.55,2.8a1,1,0,0,1,.09.37v6h0a.76.76,0,1,0,1.51,0V51.46s0-.34.23-.34.23.34.23.34v2.37a.76.76,0,0,0,1.52,0v-6a1,1,0,0,1,.09-.37l1.43-2.59a2.52,2.52,0,0,0,.18-.46.56.56,0,0,0-1-.3h0s-.76,1.31-1,1.55a.62.62,0,0,1-.47.22H20.17a.62.62,0,0,1-.47-.22c-.24-.24-1-1.51-1-1.55Z"/><path class="cls-2" d="M21.1,44.91a1.54,1.54,0,1,0-1.53-1.54,1.53,1.53,0,0,0,1.53,1.54"/><polygon class="cls-2" points="21.1 47.07 22.84 48.33 23.66 51.37 21.1 51.37 18.54 51.37 19.37 48.33 21.1 47.07"/><path class="cls-2" d="M21,7.93v3.73h-.84V5.73h1l1.08,3.4V5.73H23v5.93h-.87Z"/><path class="cls-2" d="M23.58,10.13V7.26a1.51,1.51,0,1,1,3,0v2.87a1.51,1.51,0,1,1-3,0Zm2,.16V7.1c0-.36-.16-.61-.52-.61s-.51.25-.51.61v3.18c0,.36.16.61.51.61S25.61,10.64,25.61,10.28Z"/><path class="cls-2" d="M20.13,14h1.48c1,0,1.37.5,1.37,1.33v1.25c0,.83-.37,1.34-1.37,1.34h-.48v2h-1Zm1,.81v2.34h.37a.43.43,0,0,0,.49-.49V15.33c0-.32-.15-.48-.49-.48Z"/><path class="cls-2" d="M23.5,18.43V15.56a1.51,1.51,0,1,1,3,0v2.87a1.51,1.51,0,1,1-3,0Zm2,.16V15.41c0-.36-.16-.61-.52-.61s-.51.25-.51.61v3.18c0,.36.16.61.51.61S25.52,18.95,25.52,18.59Z"/><path class="cls-2" d="M30.1,14,29,20H27.89L26.76,14h1l.68,4.14h0l.7-4.14Z"/><path class="cls-2" d="M30.51,14h2.38v.81H31.51v1.7h1v.8h-1v1.8h1.38V20H30.51Z"/><path class="cls-2" d="M34.42,17.24V20h-1V14h1.45c1,0,1.37.5,1.37,1.33v.76c0,.64-.23,1-.8,1.15l1,2.69h-1Zm0-2.4v1.85h.33a.43.43,0,0,0,.49-.49v-.87c0-.32-.15-.48-.49-.48Z"/><path class="cls-2" d="M36.59,14h2.65v.81h-.82V20h-1V14.85h-.82Z"/><path class="cls-2" d="M41.64,17.71V20h-1V17.71L39.53,14h1l.6,2.25h0l.6-2.25h1Z"/></g></g></svg>