<svg xmlns="http://www.w3.org/2000/svg" viewBox="0 0 70.36 70.36"><defs><style>.cls-1{fill:#a21942;}.cls-2{fill:#fff;}</style></defs><title>Asset 9</title><g id="Layer_2" data-name="Layer 2"><g id="OUTLINE"><rect class="cls-1" width="70.36" height="70.36"/><path class="cls-2" d="M13.67,16.61V15.06a2.81,2.81,0,0,0-1.59-2.85,2.5,2.5,0,0,0,1.38-2.47V9.16c0-2.22-1.15-3.41-3.35-3.41S6.81,6.94,6.81,9.16v.59a2.52,2.52,0,0,0,1.34,2.47,2.8,2.8,0,0,0-1.57,2.85v1.55c0,2.15,1,3.66,3.54,3.66s3.56-1.51,3.56-3.66M9,9c0-.86.29-1.36,1.07-1.36S11.2,8.16,11.2,9v1c0,.86-.29,1.36-1.09,1.36S9,10.84,9,10Zm2.24,7.85c0,.86-.31,1.46-1.17,1.46S9,17.72,9,16.86v-2.3c0-.86.31-1.46,1.15-1.46s1.17.61,1.17,1.46Z"/><path class="cls-2" d="M48.53,34.62l-7.15,6.8a1.18,1.18,0,0,0-.41,1V61.51a.41.41,0,0,0,.41.41h7.39a.41.41,0,0,0,.41-.41V34.79c0-.22-.18-.64-.64-.17"/><path class="cls-2" d="M27.93,43.48l-7.15,6.8a1.19,1.19,0,0,0-.41,1V61.51a.41.41,0,0,0,.41.41h7.39a.41.41,0,0,0,.41-.41V43.65c0-.23-.18-.64-.64-.17"/><path class="cls-2" d="M51.78,26.37a.2.2,0,0,0-.06-.15.22.22,0,0,0-.13-.06h-.1L46,27.39h-.1a.22.22,0,0,0-.11.06.21.21,0,0,0,0,.29l.06.06,1.25,1.25L34.71,41.47,29,35.74a.16.16,0,0,0-.23,0L27.19,37.3h0L18,46.49a.17.17,0,0,0,0,.23l1.56,1.56a.16.16,0,0,0,.23,0l9.07-9.07L33,43.36v0l1.56,1.55a.16.16,0,0,0,.23,0L48.91,30.86l1.31,1.31a.2.2,0,0,0,.29,0,.2.2,0,0,0,.06-.13v0l1.2-5.59Z"/><path class="cls-2" d="M38.27,44.67l-3.46,3.49a.17.17,0,0,1-.22,0L31.45,45c-.57-.57-.7-.11-.7.12V61.51a.41.41,0,0,0,.4.41h7.39a.41.41,0,0,0,.41-.41V44.8c0-.22-.18-.64-.68-.13"/><path class="cls-2" d="M21.77,7.5v2.75c0,.91-.38,1.59-1.44,1.59H18.78V5.91h1.54C21.39,5.91,21.77,6.58,21.77,7.5ZM20.2,11c.41,0,.57-.24.57-.6V7.32a.52.52,0,0,0-.57-.59h-.42V11Z"/><path class="cls-2" d="M22.33,5.91h2.38v.81H23.33v1.7h1v.8h-1V11h1.38v.81H22.33Z"/><path class="cls-2" d="M25.16,10.31V7.44a1.4,1.4,0,0,1,1.49-1.6c1.1,0,1.41.61,1.41,1.49V8h-.91V7.25c0-.37-.12-.58-.48-.58s-.51.25-.51.61v3.18c0,.36.15.61.51.61s.48-.23.48-.58V9.41h.91v1c0,.85-.35,1.48-1.41,1.48A1.4,1.4,0,0,1,25.16,10.31Z"/><path class="cls-2" d="M28.59,5.91H31v.81H29.59v1.7h1v.8h-1V11H31v.81H28.59Z"/><path class="cls-2" d="M32.35,8.11v3.73h-.84V5.91h1l1.08,3.4V5.91h.83v5.93h-.87Z"/><path class="cls-2" d="M34.85,5.91H37.5v.81h-.82v5.12h-1V6.72h-.82Z"/><path class="cls-2" d="M41,8.18l-.56,3.66h-.94l-.8-5.93h1l.46,3.76h0l.5-3.76h.81L42,9.67h0l.46-3.76h.84l-.77,5.93h-.94L41,8.18Z"/><path class="cls-2" d="M43.68,10.31V7.44a1.51,1.51,0,1,1,3,0v2.87a1.51,1.51,0,1,1-3,0Zm2,.16V7.28c0-.36-.16-.61-.52-.61s-.51.25-.51.61v3.18c0,.36.16.61.51.61S45.7,10.83,45.7,10.47Z"/><path class="cls-2" d="M48.26,9.12v2.72h-1V5.91h1.45c1,0,1.37.5,1.37,1.33V8c0,.64-.23,1-.8,1.15l1,2.69h-1Zm0-2.4V8.57h.33a.43.43,0,0,0,.49-.49V7.2c0-.32-.15-.48-.49-.48Z"/><path class="cls-2" d="M51.63,9v2.89h-1V5.91h1V8.52l1.08-2.61h1L52.54,8.58l1.18,3.26h-1Z"/><path class="cls-2" d="M54.85,11.84,56,5.91h1.14l1.13,5.93h-1L57,10.76H56l-.17,1.08ZM56.1,10h.8l-.39-2.38h0Z"/><path class="cls-2" d="M59.49,8.11v3.73h-.84V5.91h1l1.08,3.4V5.91h.83v5.93h-.87Z"/><path class="cls-2" d="M65.08,7.5v2.75c0,.91-.38,1.59-1.44,1.59H62.1V5.91h1.54C64.71,5.91,65.08,6.58,65.08,7.5ZM63.52,11c.41,0,.57-.24.57-.6V7.32a.52.52,0,0,0-.57-.59H63.1V11Z"/><path class="cls-2" d="M18.78,14.22h2.38V15H19.78v1.7h1v.8h-1v1.8h1.38v.81H18.78Z"/><path class="cls-2" d="M21.61,18.62V15.75a1.4,1.4,0,0,1,1.49-1.6c1.1,0,1.41.61,1.41,1.49v.7h-.91v-.78c0-.37-.12-.58-.48-.58s-.51.25-.51.61v3.18c0,.36.15.61.51.61s.48-.23.48-.58V17.72h.91v1c0,.85-.35,1.48-1.41,1.48A1.4,1.4,0,0,1,21.61,18.62Z"/><path class="cls-2" d="M25,18.62V15.75a1.51,1.51,0,1,1,3,0v2.87a1.51,1.51,0,1,1-3,0Zm2,.16V15.59c0-.36-.16-.61-.52-.61s-.51.25-.51.61v3.18c0,.36.16.61.51.61S27.06,19.13,27.06,18.77Z"/><path class="cls-2" d="M29.47,16.42v3.73h-.84V14.22h1l1.08,3.4v-3.4h.83v5.93h-.87Z"/><path class="cls-2" d="M32.08,18.62V15.75a1.51,1.51,0,1,1,3,0v2.87a1.51,1.51,0,1,1-3,0Zm2,.16V15.59c0-.36-.16-.61-.52-.61s-.51.25-.51.61v3.18c0,.36.16.61.51.61S34.1,19.13,34.1,18.77Z"/><path class="cls-2" d="M38.41,16.3h0l-.67,3.85h-.46l-.74-3.85h0v3.85h-.82V14.22h1.16l.65,3.34h0l.58-3.34h1.26v5.93h-.91Z"/><path class="cls-2" d="M39.89,14.22h1v5.93h-1Z"/><path class="cls-2" d="M41.46,18.62V15.75A1.4,1.4,0,0,1,43,14.15c1.1,0,1.41.61,1.41,1.49v.7h-.91v-.78c0-.37-.12-.58-.48-.58s-.51.25-.51.61v3.18c0,.36.15.61.51.61s.48-.23.48-.58V17.72h.91v1c0,.85-.35,1.48-1.41,1.48A1.4,1.4,0,0,1,41.46,18.62Z"/><path class="cls-2" d="M47.32,17h1.42v3.17H48V19.5a.9.9,0,0,1-1,.72c-.86,0-1.25-.68-1.25-1.6V15.75a1.41,1.41,0,0,1,1.5-1.6c1.1,0,1.43.61,1.43,1.49v.52h-.91v-.6c0-.37-.14-.58-.5-.58s-.52.25-.52.61v3.18c0,.36.15.61.49.61s.49-.18.49-.57v-1h-.47Z"/><path class="cls-2" d="M50.3,17.43v2.72h-1V14.22h1.45c1,0,1.37.5,1.37,1.33v.76c0,.64-.23,1-.8,1.15l1,2.69h-1Zm0-2.4v1.85h.33a.43.43,0,0,0,.49-.49v-.87c0-.32-.15-.48-.49-.48Z"/><path class="cls-2" d="M52.67,18.62V15.75a1.51,1.51,0,1,1,3,0v2.87a1.51,1.51,0,1,1-3,0Zm2,.16V15.59c0-.36-.16-.61-.52-.61s-.51.25-.51.61v3.18c0,.36.16.61.51.61S54.69,19.13,54.69,18.77Z"/><path class="cls-2" d="M58.32,16.48l-.56,3.66h-.94L56,14.22h1L57.46,18h0l.5-3.76h.81L59.33,18h0l.46-3.76h.84l-.77,5.93h-.94l-.59-3.66Z"/><path class="cls-2" d="M60.95,14.22H63.6V15h-.82v5.12h-1V15h-.82Z"/><path class="cls-2" d="M66,17.53h-1v2.62h-1V14.22h1v2.51h1V14.22h1v5.93H66Z"/></g></g></svg>