<svg xmlns="http://www.w3.org/2000/svg" viewBox="0 0 70.36 70.36"><defs><style>.cls-1{fill:#dd1367;}.cls-2{fill:#fff;}</style></defs><title>Asset 11</title><g id="Layer_2" data-name="Layer 2"><g id="OUTLINE"><rect class="cls-1" width="70.36" height="70.36"/><polygon class="cls-2" points="6.79 9.22 6.79 20.09 9.18 20.09 9.18 5.89 7.27 5.89 5.07 8.46 5.07 10.96 5.09 10.96 6.77 9.22 6.79 9.22"/><path class="cls-2" d="M17.89,16.42V9.55c0-2.22-1.11-3.83-3.54-3.83s-3.52,1.61-3.52,3.83v6.87c0,2.2,1.11,3.83,3.52,3.83s3.54-1.63,3.54-3.83m-4.67.38V9.18c0-.86.31-1.47,1.13-1.47s1.15.61,1.15,1.47V16.8c0,.86-.31,1.47-1.15,1.47s-1.13-.61-1.13-1.47"/><path class="cls-2" d="M42.44,46.48H28.38a.15.15,0,0,0-.15.15v3.19a.15.15,0,0,0,.15.15H42.44a.15.15,0,0,0,.15-.15V46.63a.15.15,0,0,0-.15-.15"/><path class="cls-2" d="M42.6,40.64a.15.15,0,0,0-.15-.15H28.38a.15.15,0,0,0-.15.15v3.19a.15.15,0,0,0,.15.15H42.44a.15.15,0,0,0,.15-.15Z"/><path class="cls-2" d="M50.74,41.89a16.25,16.25,0,0,0-3-6.15l0,0a15.21,15.21,0,0,1,1.2,2.13A14.93,14.93,0,0,1,23.66,53.77,14.09,14.09,0,0,1,44.12,34.55l.09.08a.53.53,0,0,0,.32.12.54.54,0,0,0,.35-.14l.06-.06,1.79-1.77.12-.12a.51.51,0,0,0,0-.68l-.06-.05A17.32,17.32,0,1,0,24.52,58.46,16.34,16.34,0,0,0,50.74,41.89"/><path class="cls-2" d="M23.72,9.12v2.72h-1V5.91h1.45c1,0,1.37.5,1.37,1.33V8c0,.64-.23,1-.8,1.15l1,2.69h-1Zm0-2.4V8.57H24a.43.43,0,0,0,.49-.49V7.2c0-.32-.15-.48-.49-.48Z"/><path class="cls-2" d="M26.09,5.91h2.38v.81H27.08v1.7h1v.8h-1V11h1.38v.81H26.09Z"/><path class="cls-2" d="M32,7.5v2.75c0,.91-.38,1.59-1.44,1.59H29V5.91h1.54C31.6,5.91,32,6.58,32,7.5ZM30.42,11c.41,0,.57-.24.57-.6V7.32a.52.52,0,0,0-.57-.59H30V11Z"/><path class="cls-2" d="M35.44,5.91V10.4c0,.92-.39,1.51-1.41,1.51a1.34,1.34,0,0,1-1.49-1.51V5.91h1v4.58c0,.35.14.59.49.59s.49-.24.49-.59V5.91Z"/><path class="cls-2" d="M36,10.31V7.44a1.4,1.4,0,0,1,1.49-1.6c1.1,0,1.41.61,1.41,1.49V8H38V7.25c0-.37-.12-.58-.48-.58s-.51.25-.51.61v3.18c0,.36.15.61.51.61s.48-.23.48-.58V9.41h.91v1c0,.85-.35,1.48-1.41,1.48A1.4,1.4,0,0,1,36,10.31Z"/><path class="cls-2" d="M39.45,5.91h2.38v.81H40.45v1.7h1v.8h-1V11h1.38v.81H39.45Z"/><path class="cls-2" d="M45.34,7.5v2.75c0,.91-.38,1.59-1.44,1.59H42.36V5.91H43.9C45,5.91,45.34,6.58,45.34,7.5ZM43.78,11c.41,0,.57-.24.57-.6V7.32a.52.52,0,0,0-.57-.59h-.42V11Z"/><path class="cls-2" d="M22.72,14.22h1v5.93h-1Z"/><path class="cls-2" d="M25.13,16.42v3.73h-.84V14.22h1l1.08,3.4v-3.4h.83v5.93h-.87Z"/><path class="cls-2" d="M27.75,14.22h2.38V15H28.74v1.7h1v.8h-1v1.8h1.38v.81H27.75Z"/><path class="cls-2" d="M31.71,20.55v-.4a1.36,1.36,0,0,1-1.14-1.53V15.75a1.51,1.51,0,1,1,3,0v2.87a1.42,1.42,0,0,1-.73,1.4l.73.14v.74Zm.88-1.72V15.59c0-.36-.16-.61-.52-.61s-.51.25-.51.61v3.24c0,.35.16.61.51.61S32.59,19.18,32.59,18.83Z"/><path class="cls-2" d="M37.05,14.22V18.7c0,.92-.39,1.51-1.41,1.51a1.34,1.34,0,0,1-1.49-1.51V14.22h1V18.8c0,.35.14.59.49.59s.49-.24.49-.59V14.22Z"/><path class="cls-2" d="M37.33,20.15l1.12-5.93h1.14l1.13,5.93h-1l-.18-1.08H38.45l-.17,1.08Zm1.25-1.88h.8L39,15.89h0Z"/><path class="cls-2" d="M41.13,14.22h1v5.12h1.19v.81H41.13Z"/><path class="cls-2" d="M43.77,14.22h1v5.93h-1Z"/><path class="cls-2" d="M45.23,14.22h2.65V15h-.82v5.12h-1V15h-.82Z"/><path class="cls-2" d="M48.34,14.22h1v5.93h-1Z"/><path class="cls-2" d="M49.91,14.22h2.38V15H50.91v1.7h1v.8h-1v1.8h1.38v.81H49.91Z"/><path class="cls-2" d="M52.73,18.87v-.8h.93v.81c0,.33.15.52.49.52s.45-.21.45-.52v-.23a1.07,1.07,0,0,0-.45-.84l-.59-.59a2,2,0,0,1-.83-1.58v-.2a1.24,1.24,0,0,1,1.4-1.3c1,0,1.39.49,1.39,1.35V16h-.91v-.52c0-.34-.16-.51-.47-.51a.44.44,0,0,0-.47.49v.12c0,.33.18.52.47.8l.64.63a2,2,0,0,1,.8,1.54v.29a1.28,1.28,0,0,1-1.45,1.39A1.24,1.24,0,0,1,52.73,18.87Z"/></g></g></svg>