<svg xmlns="http://www.w3.org/2000/svg" viewBox="0 0 114.38 134"><defs><style>.cls-1{fill:#dca3ff;}</style></defs><title>Asset 4</title><g id="Layer_2" data-name="Layer 2"><g id="Layer_1-2" data-name="Layer 1"><path class="cls-1" d="M50.2,97.69A47.49,47.49,0,1,0,2.71,50.2,47.54,47.54,0,0,0,50.2,97.69Z"/><path class="cls-1" d="M95.63,95.63A64.27,64.27,0,0,0,97.5,6.84l2.08-2.08a2.79,2.79,0,1,0-4-3.95l-7.9,7.9a2.79,2.79,0,0,0,3.95,4l1.87-1.88A58.58,58.58,0,0,1,10.79,93.56l1.88-1.88a2.79,2.79,0,0,0-3.95-4L.82,95.63a2.79,2.79,0,1,0,4,3.95L6.84,97.5a63.91,63.91,0,0,0,37.77,16.65v3.38A58.15,58.15,0,0,0,15.1,129a2.79,2.79,0,0,0,1.67,5H83.62a2.79,2.79,0,0,0,1.67-5,58.17,58.17,0,0,0-29.51-11.44v-3.38A64,64,0,0,0,95.63,95.63Z"/></g></g></svg>