<svg xmlns="http://www.w3.org/2000/svg" viewBox="0 0 184 262"><defs><style>.cls-1{fill:#ff5690;}.cls-2{fill:#fff;}</style></defs><title>Asset 9</title><g id="Layer_2" data-name="Layer 2"><g id="Layer_1-2" data-name="Layer 1"><path class="cls-1" d="M119.06,260.93a1.16,1.16,0,0,0,.3-.78A1,1,0,0,0,119.06,260.93Z"/><path class="cls-1" d="M119.37,260.14h0Z"/><path class="cls-1" d="M111.51,202.38c0,.07,0,.16,0,.24A.74.74,0,0,0,111.51,202.38Z"/><path class="cls-1" d="M120.45,245.82l-.36-.06c0-.7.42-.19.35-.84-.5-.27.09-1.08-.18-1.31,0,0,.07-.31.22-.29-.27-.11-.05-.33-.12-.53s-.08.05-.17.1l-.08-.46c.09-.18.26-.22.28,0,.14-1.2.59-7,.49-8.25-.21.16-.09.56-.42.7-.17-.35.08-.5-.11-.66.49-.12.14-.75.64-1l-.27-.11.17-.16c-.24-1.51-.13-.35,0-1.68,0-.77-.39-1.15-.23-1.58,0,.06-.18.23-.24,0,.24,0-.16-.54.09-.63,0-.2,0-.83-.31-.63.17-.1.26-.67.39-.32a1.05,1.05,0,0,0,0-.51l-.1.24c0-.65.24-1,0-1.42l-.14.23c0-.39,0-.71.31-.85l.09.4a4.63,4.63,0,0,0-.15-1.56l0,.19c-.31-.69-.46-4.25-.85-4.89l-.26.28-.2-.54c0,.06.82.29.73.34,0-1.15,0-7.15.22-8.21.16-.42.41-.06.45-.06-.08-.53-.26-.23-.23-.68,0-.12.2,0,.23.1,0-.2.07-.37,0-.39-.1.24-.41.13-.62.22l0-.57.2,0c0-.13-.53-.34-.41-.9.12-.94.08-2,.16-2.93.12,0,.18.22.25.42,0-.13,0-.32.08-.44-.22.22-.13-.4-.22-.23-.47-.71,0-1.6-.3-2.23-.44-.07-7.49-1.56-8-1.58a1.23,1.23,0,0,1,.08-.44c-.12,0-.19.42-.13.62l.28,0c.08.46-.17.1-.17.55-.23,0-.27-.4-.28-.76,0,.33-.21.65,0,.79-.11.3-.28,0-.39.32.06.27.27.62.13.92h0c-.26.73.31,1.14.05,1.81l-.07-.08c-.14.23,0,.71-.13,1.13.05-.12.22-.22.24,0-.16.49,0,.83-.22,1.19l.21.35c-.1,1.72,0,8.52,0,10.25l0-.07c0,2.64-.17,8,.05,10.77a4.47,4.47,0,0,0-.28,1.43c.1-.24.25-.15.24,0-.07,1.34.15.1.2,1.45a66.62,66.62,0,0,1-.5,8.89c.3.75,0,1.67.21,2.41l-.07-.08c.1.79-.35,5.2-.26,6.11l.05-.12c.18.8-.18.68-.31,1.3.37-.07.55.61.57.87h-.08a19,19,0,0,1,.36,1.93l-.2,0a6.92,6.92,0,0,1,.08,1.94,10.92,10.92,0,0,0-.28,3.42l-.59.74.05.11s6.82,1.45,8.34-.06l.2,0,0-.31c.11-.37-.12-.55.08-.51l0,.51c.07-.37.17-.11.27,0a1.36,1.36,0,0,1,.12-.43c-.07-.08-.08.05-.13.11-.06-.2-.24-.49-.14-.73s.32,0,.36-.46c.23-2.34.53-4.6.57-7,.08-.05.08,0,.11.08-.06-.72,0-1.35-.08-2a.64.64,0,0,1,.3-.27A20.71,20.71,0,0,1,120.45,245.82Z"/><path class="cls-1" d="M114.72,99.27l-.11,2.26C114.65,100.87,114.67,100.18,114.72,99.27Z"/><path class="cls-1" d="M114.6,101.54h0v0Z"/><path class="cls-1" d="M110.16,261.38l.12-.69Z"/><path class="cls-1" d="M115,142.61l.33.08c.29,2.06-.29.67.07,2.57.56.65.51,3.21.91,3.8,0,0,.14.92,0,.9.32.21.27.92.47,1.47.12.18,0-.17.09-.35l.4,1.26c0,.52-.09.69-.25.16l.93,4.4c.4,1.94.79,4.14,1,6.34a88.49,88.49,0,0,1,.32,10.69c.24-.43.14-1.47.5-1.86.19.9-.12,1.32.09,1.72-.54.32-.24,2-.83,2.61l.28.28-.22.43c-.07,4,.1.92-.38,4.42-.22,2,0,3.08-.3,4.19,0-.17.29-.59.28,0-.27,0-.06,1.45-.37,1.66-.05.53-.42,2.21.05,1.71-.23.25-.61,1.74-.58.81a7,7,0,0,0-.26,1.37l.23-.63c-.3,1.73-.78,2.61-.71,3.81l.28-.61c-.21,1-.38,1.91-.82,2.23l.14-1.09a36.12,36.12,0,0,0-.77,4.25l.13-.51c-.07,1.89-2.27,11.68-2.31,13.54l.43-.73L114,213c0-.17-.59-.93-.48-1.06-.37,1.59-1.53,6.57-2.4,11.63s-1.39,10.11-1.58,11.62c-.19,1.22-.28.18-.3.16,0,1.51.12.67,0,1.95-.05.34-.12-.09-.13-.29a4.77,4.77,0,0,0,0,1.13c.09-.69.27-.37.41-.65l-.12,1.64-.11-.09a11.5,11.5,0,0,1,.11,2.56c-.17,2.71-.19,5.65-.16,8.37a7.19,7.19,0,0,1-.11-1.19c0,.37,0,.92,0,1.26.05-.65.08,1.15.1.63.18,2,.2,4.57.39,6.32a8.75,8.75,0,0,1,.68,3.74L110,262l.31-1.76v-.1c.19-1.29.06-.3.27-1.57,0-.07-.17,1.09-.34,2.12.15-.92.35-1.84.38-2.21.16-.86,0,.1.22-.94.13-.74.27-1.71.45-2.56v0c.47-2.05.5-3.14.94-5v.2c.18-.65.38-2,.68-3.13-.09.33-.22.62-.08-.09.35-1.35.48-2.28.79-3.26l.09-1c.53-2.35,1.84-8.14,3.38-13.81s3.32-11.29,4.06-13.61l0,.19c1.09-3.51,2.89-8.89,4.47-14.49a103.49,103.49,0,0,0,3.29-15.45,25.83,25.83,0,0,0,.84-4.2c-.19.71-.33.44-.25-.12.41-4-.1-.28.11-4.31a87.93,87.93,0,0,0-.49-13.58,61.3,61.3,0,0,0-1.54-7.82c-.58-2.23-1.1-4-1.34-4.9-1-1.92-1.49-4.38-2.18-6.21l.12.17a75.15,75.15,0,0,1-1.82-8c-.66-3.57-1.25-7.28-1.52-8.54l0,.34a20.41,20.41,0,0,1-.47-3.67c-.2.25-.67-1.63-.81-2.35l.05,0c-.24-1.08-.85-3.53-1.2-5.33l.11.06c-.38-1.49-.85-4.31-1.07-5.38-.42-2.47-1.13-6.26-1.91-9.54-.13-.71-.29-1.42-.45-2.12l-.08-.31-.15-.46a5.15,5.15,0,0,1-.15-.7c0-.31.07-.09-.08,2.14v-.07l0,.88c0,1.06,0,1.54,0,1.47l0-1.45c0,1.06,0,.32,0-.08l-.06,1.23c0,.21,0-.15,0-.32l0,2.06c0,1.08-.06.08-.1,1.34-.21,6.68-.35,13.15-.23,19.87-.05.16-.05,0-.08-.22.09,2,.1,3.82.22,5.67a2.46,2.46,0,0,1-.2.84c.06-.16.16,2.4.36,5.07.1,1.33.22,2.69.32,3.72Z"/><path class="cls-2" d="M121.39,95.58c2.4,2.66-2.89,7.07-6.68,6.34-3.16-.61-7-2.06-6.68-6.34.32-3.8,1.46-7.59,6.68-6.34C118.29,90.1,118.5,92.39,121.39,95.58Z"/><path class="cls-1" d="M49.59,119.93c.21.3.59.8,1,1.27C50.29,120.81,50,120.42,49.59,119.93Z"/><polygon class="cls-1" points="50.56 121.2 50.57 121.21 50.55 121.19 50.56 121.2"/><path class="cls-1" d="M120.54,210.37l-.16-.49Z"/><path class="cls-1" d="M68.83,143.73l.23-.12c1,1.06.1.52,1.11,1.46.61.1,1.62,1.63,2.1,1.79,0,0,.46.47.35.54.28,0,.53.42.87.65.15.05,0-.12-.09-.25l.75.56c.23.3.22.46-.09.22A76,76,0,0,1,79.52,154c2.06,2.36,3.84,5,4.54,6,0-.38-.51-.91-.42-1.33.5.4.47.8.78.91-.25.49.66,1.23.5,1.93h.33l0,.37c1.65,2.23.47.45,1.61,2.65.71,1.24,1.37,1.65,1.59,2.46,0-.11,0-.49.21-.2-.21.19.59.81.43,1.12.19.31.63,1.44.81.88-.08.28.26,1.31-.13.8a3.21,3.21,0,0,0,.39.89l-.08-.48c.52,1.11.49,1.88,1.11,2.47l0-.5c.29.68.55,1.24.28,1.7l-.39-.66a12.83,12.83,0,0,0,1.31,2.71l-.12-.35c.43.52,1.34,2.37,2.35,4.2a20.87,20.87,0,0,0,2.65,4.09l.07-.68.74.85c-.05-.12-1.27,0-1.21-.13.51,1,2.2,4.28,4.19,7.41s4.16,6.07,4.76,7c.42.78-.27.35-.32.37.77.8.54.22,1.1.95.12.22-.21.07-.33,0,.28.3.45.63.57.59-.25-.44.17-.45.21-.72l.72.93-.2.07c.17.21.88.23,1.54,1.17a58.79,58.79,0,0,0,4.06,4.46c-.09,0-.42-.24-.76-.5a5.53,5.53,0,0,1,.62.66c-.23-.41.67.52.45.23,1.26.84,2.43,2.24,3.52,3a8.29,8.29,0,0,1,2,.18,6.2,6.2,0,0,1,1.38.53c.13.38.25.77.28.9a11.75,11.75,0,0,0-.39-1.27l-.07,0c-.34-.89,0-.25-.36-1.12a5.16,5.16,0,0,1,.57,1.45,8.64,8.64,0,0,0-.53-1.56c-.19-.63.09,0-.12-.74-.19-.51-.48-1.14-.65-1.76h0c-.39-1.51-.93-2.06-1.3-3.41l.09.11c-.08-.51-.52-1.32-.73-2.18.05.25,0,.52-.17.05-.25-1-.6-1.54-.72-2.29l-.41-.53c-.6-1.6-2.18-5.43-3.8-9.16s-3.22-7.47-4-9l.1.1a100.17,100.17,0,0,0-5-9.49,104.13,104.13,0,0,0-6.4-9.4A15.62,15.62,0,0,0,95.2,158c.22.48,0,.42-.25.09-1.68-2.3-.23-.08-2.06-2.31a86.89,86.89,0,0,0-6.6-7.1A50.41,50.41,0,0,0,81.93,145L79,142.91a43.31,43.31,0,0,1-4-2.45l.15,0a53.44,53.44,0,0,1-4.54-3.62c-1.95-1.68-3.9-3.48-4.61-4.06l.16.18a13.28,13.28,0,0,1-1.86-1.83c0,.24-1.09-.6-1.48-.94h0c-.6-.5-2-1.59-3-2.45l.09,0c-.86-.66-2.33-2-2.91-2.56-1.28-1.21-3.28-3.07-5.09-4.61q-.53-.55-1.08-1.07l-.18-.14a3.89,3.89,0,0,0-1-.21c-.34,0-.39.3.5,1.61l-.05,0,.39.48a8,8,0,0,1,.64.81l-.64-.79c.46.59.12.2-.07,0l.53.69c.1.1-.06-.1-.12-.19.26.3.64.71.94,1.1.48.6,0,.09.53.79,2.91,3.7,5.7,7.31,8.71,11,0,.11,0,0-.14-.08.93,1.08,1.72,2.08,2.59,3.06a1.67,1.67,0,0,1,.25.56c0-.12,1.13,1.27,2.38,2.69l1.76,2Z"/><path class="cls-2" d="M54.39,119.58c2.4,2.66-2.89,7.07-6.68,6.34-3.16-.61-7-2.06-6.68-6.34.32-3.8,1.46-7.59,6.68-6.34C51.29,114.1,51.5,116.39,54.39,119.58Z"/><path class="cls-1" d="M7.68,194.55c.41,0,1.1-.06,1.76-.11C8.93,194.46,8.39,194.49,7.68,194.55Z"/><path class="cls-1" d="M9.45,194.44h0Z"/><path class="cls-1" d="M119.26,223l-.5-.22Z"/><path class="cls-1" d="M41.69,190.66l0-.19c1.57-.6.54,0,2-.63.47-.45,2.33-1.06,2.71-1.42,0,0,.65-.31.65-.21.13-.22.64-.37,1-.61.12-.11-.13,0-.26,0l.88-.53c.37-.15.5-.12.13.1.6-.3,1.74-.9,3.12-1.52.69-.31,1.43-.62,2.19-.88a10.75,10.75,0,0,1,1.14-.32,7.57,7.57,0,0,1,1.16-.24,12.78,12.78,0,0,1,4.36,0,17,17,0,0,1,2.85.82c-.24-.25-.94-.42-1.15-.69.63,0,.86.35,1.16.31.12.37,1.26.63,1.55,1.16l.24-.08.23.26a14.18,14.18,0,0,1,1.53.79c.1.07.16.14,1.2.93a17.49,17.49,0,0,1,2.52,1.86c-.09-.09-.27-.42.07-.19-.07.19.87.66.89.94.31.26,1.19,1.24,1.06.72.07.24.83,1.16.28.72a5.82,5.82,0,0,0,.73.79l-.29-.44a17.06,17.06,0,0,0,2,2.22l-.24-.47c.54.63,1,1.14,1,1.58l-.6-.6a28.53,28.53,0,0,0,2.22,2.51l-.25-.33c.56.48,2.07,2.21,3.63,3.95a37,37,0,0,0,3.79,3.85l-.24-.65.94.8c-.09-.11-1,0-1-.09a86.84,86.84,0,0,0,6.58,6.84,64.3,64.3,0,0,0,7.5,5.91c.8.62,0,.33,0,.35,1.1.59.56.13,1.45.68.23.17-.13.08-.29,0,.41.21.75.47.83.42-.47-.33-.13-.39-.26-.63l1.15.68-.12.08a7.25,7.25,0,0,1,2,.72,37.71,37.71,0,0,0,6.32,2.53,4.17,4.17,0,0,1-1-.17,9.86,9.86,0,0,1,1,.31c-.48-.24.91.21.53.05,1.63.25,3.6.85,5,.91a10.66,10.66,0,0,1,1.71-.59,7.93,7.93,0,0,1,1-.16,3.1,3.1,0,0,0,.45,0l.91.4c-.1-.06-.88-.41-1.29-.57h-.08c-.94-.39-.22-.13-1.13-.53a11.61,11.61,0,0,1,1.54.63c-.68-.28-1.32-.65-1.6-.71-.61-.3.08,0-.65-.4-.52-.27-1.22-.53-1.79-.89h0c-1.38-.85-2.18-1.06-3.37-1.91l.14.05c-.41-.32-1.28-.79-2-1.36.2.17.36.36-.11.08-.82-.68-1.44-1-2-1.56l-.64-.32a74.34,74.34,0,0,1-7.92-7.11c-3-3.17-5.94-6.75-7.17-8.19l.12.09c-1.86-2.18-4.72-5.61-8-8.92a64.89,64.89,0,0,0-9.64-8.33,18.9,18.9,0,0,0-2.85-2.08c.48.37.24.36-.15.11-1.44-.82-1.51-.81-1.58-.81a6.89,6.89,0,0,1-1.69-.68,26.86,26.86,0,0,0-4.5-1.37,18.8,18.8,0,0,0-6.85-.12,21.29,21.29,0,0,0-6.22,2.18c-1.65.86-2.86,1.63-3.54,2-1.33,1-3.09,2.06-4.37,2.91l.12-.11a27,27,0,0,1-5.75,2.56,63,63,0,0,1-6.51,1.58l.27,0a22.31,22.31,0,0,1-2.86.44c.2.09-1.28.42-1.85.53l0,0c-.85.17-2.78.61-4.19.87l0-.06c-1.17.26-3.39.63-4.24.79-1.94.32-4.94.82-7.52,1.33l-1.68.25-.24.05a5.27,5.27,0,0,0-.87.5c-.22.21,0,.33,1.73.28l-.05,0,.69-.06c.82-.06,1.2-.12,1.15-.09l-1.13.09c.83-.06.25,0-.06,0l1-.06c.16,0-.12,0-.25,0,.44,0,1.06-.12,1.6-.15.85-.07.06,0,1,0,5.21-.39,10.27-.74,15.53-1.19.12,0,0,0-.17.05,1.58-.16,3-.27,4.48-.47a3.07,3.07,0,0,1,.66,0c-.13,0,1.92-.26,4-.73,1.06-.23,2.13-.51,2.94-.77Z"/><path class="cls-2" d="M13.39,193.58c2.4,2.66-2.89,7.07-6.68,6.34-3.16-.61-7-2.06-6.68-6.34.32-3.8,1.46-7.59,6.68-6.34C10.29,188.1,10.5,190.39,13.39,193.58Z"/><path class="cls-1" d="M176.45,66.38c-.19.31-.48.87-.76,1.39C175.93,67.38,176.17,66.95,176.45,66.38Z"/><polygon class="cls-1" points="175.69 67.78 175.69 67.79 175.69 67.77 175.69 67.78"/><path class="cls-1" d="M121,167.06l.36-.35Z"/><path class="cls-1" d="M162.61,93.58l.16.15c-.55,1.35-.39.32-.84,1.59.09.58-.82,2.12-.81,2.61,0,0-.24.61-.33.54.11.24-.17.65-.26,1.05,0,.15.09-.09.17-.18l-.22.9c-.17.33-.3.39-.2,0a77.49,77.49,0,0,1-2.77,7.28,71.79,71.79,0,0,1-3.69,6.69c.31-.17.62-.85,1-1-.19.62-.54.77-.55,1.09-.48,0-.85,1.13-1.49,1.31l.1.27-.31.18a9.09,9.09,0,0,1-1.81,2.56c-.86,1.16-1,1.9-1.67,2.44.08-.09.42-.24.22.09-.22-.09-.54.86-.84.86-.22.3-1.07,1.17-.53,1.07-.26.06-1.05.81-.72.25a3.91,3.91,0,0,0-.66.72l.4-.28c-.81.93-1.49,1.24-1.82,2l.43-.24c-.51.55-.92,1-1.4,1l.46-.61a15.8,15.8,0,0,0-2,2.28l.27-.26c-.34.58-1.68,2.15-3,3.79a24.64,24.64,0,0,0-2.8,4l.6-.24-.53,1c.09-.09-.37-1-.23-1-.76.87-3.08,3.67-5.2,6.68s-4,6.11-4.62,7c-.54.7-.37-.07-.4-.1-.46,1,0,.55-.49,1.34-.15.2-.12-.14-.07-.29-.17.37-.41.66-.34.74.3-.4.42-.06.67-.14l-.58,1-.11-.14a4.43,4.43,0,0,1-.56,1.8c-.95,1.69-1.82,3.61-2.61,5.4a2.71,2.71,0,0,1,.21-.86,6.66,6.66,0,0,1-.38.82c.28-.38-.25.8-.06.48-.35,1.44-1.19,3.06-1.49,4.31a7.51,7.51,0,0,1,.41,1.78,6.67,6.67,0,0,1-.06,1.42c-.28.28-.57.55-.67.64.09-.06.67-.6.95-.9v-.08c.64-.69.2-.14.83-.8a6.07,6.07,0,0,1-1,1.13,10.05,10.05,0,0,0,1.15-1.15c.47-.44,0,.08.58-.44.38-.39.82-.92,1.29-1.34v0c1.16-1,1.47-1.71,2.49-2.63l-.06.13c.4-.3,1-1,1.63-1.6-.2.16-.43.26-.09-.12.77-.65,1.13-1.2,1.74-1.64l.33-.59c1.19-1.22,4-4.27,6.77-7.29s5.58-6,6.71-7.29l-.06.13c1.72-1.93,4.35-5,6.81-8.3a105.28,105.28,0,0,0,6.24-9.38,17.84,17.84,0,0,0,1.78-2.45c-.34.39-.36.16-.14-.17,1.45-2.41,0-.23,1.35-2.74a80.19,80.19,0,0,0,4-8.72,49.53,49.53,0,0,0,1.62-5.35l.82-3.48c.08-1.51.58-3.23.79-4.62v.15a56.88,56.88,0,0,1,1.61-5.61l2-5.82-.1.22a15.92,15.92,0,0,1,1-2.43c-.19.1.18-1.22.35-1.71l0,0c.24-.75.72-2.46,1.15-3.68l0,.07c.3-1,1-2.93,1.25-3.66.62-1.65,1.57-4.21,2.3-6.46l.57-1.42.06-.22a4,4,0,0,0-.1-1c-.11-.29-.36-.21-1.16,1.14v-.05l-.28.55a9.52,9.52,0,0,1-.48.92l.46-.9c-.34.66-.13.19,0-.07l-.41.76c-.06.14.06-.09.12-.19-.17.36-.4.87-.63,1.3-.35.68-.08,0-.49.81-2.18,4.16-4.33,8.18-6.47,12.42-.08.08,0,0,0-.16-.62,1.29-1.21,2.41-1.76,3.6a1.88,1.88,0,0,1-.38.46c.09-.08-.71,1.54-1.5,3.25l-1.08,2.39Z"/><path class="cls-2" d="M183.39,65.58c2.4,2.66-2.89,7.07-6.68,6.34-3.16-.61-7-2.06-6.68-6.34.32-3.8,1.46-7.59,6.68-6.34C180.29,60.1,180.5,62.39,183.39,65.58Z"/><path class="cls-1" d="M62.35,7.49c.16.57.47,1.54.76,2.46C62.91,9.24,62.68,8.48,62.35,7.49Z"/><path class="cls-1" d="M63.12,10h0v0Z"/><path class="cls-1" d="M100.55,189.23l0-.8Z"/><path class="cls-1" d="M77.93,54.48l.23.06c1,2.15.07.72,1,2.69.59.65,1.58,3.28,2.08,3.86,0,0,.47.93.36.92.29.2.55.93.91,1.49.16.19,0-.18-.09-.36l.79,1.29c.24.54.23.72-.1.17a96.83,96.83,0,0,1,5.68,11.51A70.92,70.92,0,0,1,92.09,88.4,21.75,21.75,0,0,1,92,86.16c.34,1,.23,1.54.46,2-.28.47.27,2.32,0,3.17l.25.27-.07.54c.37,2.3.39,2.57.41,2.77s0,.34.09,2.41a44.64,44.64,0,0,1,.35,4.88c0-.2.14-.74.2-.11-.2.11.13,1.67-.08,2,0,.61-.09,2.61.23,1.94-.15.34-.3,2.12-.37,1.06a11.71,11.71,0,0,0-.07,1.62l.13-.77a33.11,33.11,0,0,0-.23,4.48l.18-.75a6,6,0,0,1-.5,2.71l0-1.26c-.17,2-.28,3.25-.28,5l.07-.6c.05,1.09-.15,4.47-.33,7.88a69.34,69.34,0,0,0-.12,7.86l.33-.92.09,1.77c0-.21-.8-.91-.7-1.08-.13,1.88-.48,7.75-.37,13.67s.64,11.76.77,13.51c.06,1.42-.29.27-.33.26.3,1.72.31.73.48,2.2,0,.4-.17-.07-.22-.29a5.08,5.08,0,0,0,.23,1.28c0-.81.24-.49.36-.84l.24,1.88-.16-.07a12.15,12.15,0,0,1,.76,2.87c.44,3.1,1.16,6.43,1.87,9.48a6.9,6.9,0,0,1-.45-1.31c.1.41.26,1,.31,1.42-.08-.75.39,1.27.29.69.75,2.2,1.39,5.09,2.1,7a12.75,12.75,0,0,1,1.55,1.93,12.07,12.07,0,0,1,.73,1.3,5.66,5.66,0,0,0,.28.59l.08,1.45c0-.17,0-1.41-.11-2.06l-.06-.1c-.13-1.5,0-.36-.09-1.82a19.77,19.77,0,0,1,.2,2.45c-.06-1.07-.07-2.15-.15-2.57,0-1,.07.1,0-1.12-.06-.86-.17-2-.19-3h0c0-2.41-.3-3.63-.28-5.82l0,.23c.05-.78-.09-2.28,0-3.67,0,.4-.11.75-.14-.08,0-1.6-.06-2.67,0-3.84l-.16-1.09c0-2.76-.07-9.54.2-16.27s.86-13.47,1.05-16.25l0,.22c.31-4.22.82-10.72.93-17.42a144.38,144.38,0,0,0-.7-18.07,40.76,40.76,0,0,0-.32-4.84c0,.83-.14.56-.2-.08-.62-4.48-.11-.29-.93-4.79A81.13,81.13,0,0,0,95.44,75.3a61,61,0,0,0-4-8c-1.33-2.24-2.45-4-3-4.93-1.49-1.93-3-4.48-4.21-6.41l.15.18A84.37,84.37,0,0,1,80,47.6c-1.73-3.85-3.33-7.88-3.92-9.23l.13.37c-1.05-2.35-.79-2.08-1.52-4,0,.29-.93-1.72-1.25-2.5l0,0c-.5-1.17-1.68-3.8-2.48-5.74l.09.06c-.72-1.6-1.93-4.66-2.41-5.82C67.63,18.11,66,14,64.5,10.45l-.88-2.32-.15-.33a9.19,9.19,0,0,0-.87-1.13c-.31-.27-.38,0,.31,2.49l0-.07.31,1c.36,1.15.56,1.67.51,1.6l-.51-1.57c.37,1.15.09.36-.06-.08l.42,1.34c.08.22,0-.17-.09-.35.21.62.52,1.47.75,2.23.38,1.18,0,.09.42,1.47,2.32,7.27,4.52,14.33,6.92,21.66,0,.18,0,0-.12-.23.75,2.2,1.37,4.17,2.08,6.17a4.9,4.9,0,0,1,.18.92c0-.18.92,2.6,2,5.45.53,1.42,1.08,2.86,1.53,4Z"/><path class="cls-2" d="M69.39,6.58c2.4,2.66-2.89,7.07-6.68,6.34-3.16-.61-7-2.06-6.68-6.34C56.34,2.78,57.48-1,62.71.24,66.29,1.1,66.5,3.39,69.39,6.58Z"/></g></g></svg>