<svg xmlns="http://www.w3.org/2000/svg" viewBox="0 0 125.62 134"><defs><style>.cls-1{fill:#d44f83;}</style></defs><title>Asset 6</title><g id="Layer_2" data-name="Layer 2"><g id="Layer_1-2" data-name="Layer 1"><path class="cls-1" d="M47.46,97.71a41.8,41.8,0,0,1,64.21-35.36V25.13a2.8,2.8,0,0,0-2.79-2.79H14A8.37,8.37,0,0,1,14,5.58h94.92a2.79,2.79,0,1,0,0-5.58H14A14,14,0,0,0,0,14V120a14,14,0,0,0,14,14H68.53A41.86,41.86,0,0,1,47.46,97.71Z"/><path class="cls-1" d="M89.33,61.42a36.29,36.29,0,1,0,36.29,36.29A36.33,36.33,0,0,0,89.33,61.42Zm13.14,41.06L91.31,113.63a2.79,2.79,0,0,1-2,.82,2.79,2.79,0,0,1-2-.82L76.19,102.47a2.79,2.79,0,0,1,3.95-3.95l6.4,6.4V83.75a2.79,2.79,0,1,1,5.58,0v21.18l6.4-6.4a2.79,2.79,0,0,1,3.95,3.95Z"/><path class="cls-1" d="M14,11.17a2.79,2.79,0,0,0,0,5.58h89.33a2.79,2.79,0,0,0,0-5.58Z"/></g></g></svg>
