<svg xmlns="http://www.w3.org/2000/svg" viewBox="0 0 122.65 160.46"><defs><style>.cls-1{fill:#008099;}.cls-2{fill:#fff;}.cls-3{fill:none;}</style></defs><title>Asset 10</title><g id="Layer_2" data-name="Layer 2"><g id="Layer_1-2" data-name="Layer 1"><path class="cls-1" d="M42.17,117.48a43.23,43.23,0,0,1-8.5,2.73,14.17,14.17,0,0,1-4.91.07,13.16,13.16,0,0,1-5.06-2,18.82,18.82,0,0,1-4.16-3.81,31.8,31.8,0,0,1-3.06-4.58,56.2,56.2,0,0,1-4.13-9.76,67.6,67.6,0,0,1,2.91-18.69l2.41-8.22c.38-1.33.68-2.56.93-3.74a14.06,14.06,0,0,0,.32-3.2A9.18,9.18,0,0,0,18.17,63a25.93,25.93,0,0,0-1.81-3.64c-.74-1.23-1.51-2.62-2.22-3.91s-1.45-2.66-2.09-4.07A23.07,23.07,0,0,1,10,42.53c-.15-3,0-5.87.07-8.79a55.18,55.18,0,0,0,.46,8.72,19.71,19.71,0,0,0,3,8.09c.78,1.22,1.66,2.37,2.55,3.52s1.79,2.28,2.76,3.38A35.36,35.36,0,0,1,21.44,61a14.74,14.74,0,0,1,2,4,23.32,23.32,0,0,1,.47,8.88c-.27,2.93-.67,5.82-1.05,8.71A101.36,101.36,0,0,0,21.7,99.86a41,41,0,0,0,.77,8.52A15.92,15.92,0,0,0,26,116a10.28,10.28,0,0,0,7.63,3.19A24,24,0,0,0,42.17,117.48Z"/><path class="cls-2" d="M13.47,33a3.66,3.66,0,0,0-.8,1.86,5.74,5.74,0,0,0,0,2.3,2.14,2.14,0,0,0,1.48,1.66,3.51,3.51,0,0,0,3.3-1.12,4,4,0,0,0,1.36-3.49,2.5,2.5,0,0,0-1.48-1.94,3.74,3.74,0,0,0-2.17-.2A2.78,2.78,0,0,0,13.47,33Z"/><path class="cls-3" d="M4.75,37.29a8.74,8.74,0,0,0,1.59.93"/><path class="cls-2" d="M2.26,38.21a7.72,7.72,0,0,0,2.68,2.26,4.37,4.37,0,0,0,3.27.34,1.85,1.85,0,0,0,1.53-1.91,4,4,0,0,0-1.06-2.11,6.83,6.83,0,0,0-2.85-1.7,3.85,3.85,0,0,0-3.18-.36,1.81,1.81,0,0,0-1,1.31A2.68,2.68,0,0,0,2.26,38.21Z"/><path class="cls-2" d="M4.85,29.78a3.1,3.1,0,0,0-.44-1.69,4,4,0,0,0-1.25-1.37,1.78,1.78,0,0,0-1.77-.17A2.78,2.78,0,0,0,0,28.82a3.24,3.24,0,0,0,.81,2.72,2.08,2.08,0,0,0,1.85.6A2.71,2.71,0,0,0,4.2,31.3,2.32,2.32,0,0,0,4.85,29.78Z"/><path class="cls-3" d="M9.68,22.43a4.94,4.94,0,0,0-.78.07,4.85,4.85,0,0,0-.77.15"/><path class="cls-2" d="M9.88,20.38a11,11,0,0,0-1.28,0A8.53,8.53,0,0,1,11,21.56,2.06,2.06,0,0,0,9.56,20.2a3.75,3.75,0,0,0-2.45.16,3.47,3.47,0,0,0-1.76,1.52,1.83,1.83,0,0,0,0,1.83,2.76,2.76,0,0,0,1.49,1.18,3.82,3.82,0,0,0,1.55.22,3.08,3.08,0,0,0,2.53-1.89,5.8,5.8,0,0,0-1.57,1.34,5.52,5.52,0,0,1,.73-.12A2.21,2.21,0,0,0,12,22.67a1.76,1.76,0,0,0-.33-1.45,2.32,2.32,0,0,0-.71-.58A3.09,3.09,0,0,0,9.88,20.38Z"/><path class="cls-2" d="M14.68,28a3.09,3.09,0,0,0,1.18,1.34,4.13,4.13,0,0,0,1.79.71,1.82,1.82,0,0,0,1.71-.65,2.87,2.87,0,0,0,.22-2.76,3.33,3.33,0,0,0-2-2.16,2.15,2.15,0,0,0-2,.34,2.82,2.82,0,0,0-1,1.5A2.36,2.36,0,0,0,14.68,28Z"/><path class="cls-1" d="M32.54,117.48A23.56,23.56,0,0,0,41,118a8.49,8.49,0,0,0,6.11-3.6,14.22,14.22,0,0,0,2-6.83,39.38,39.38,0,0,0-.31-7.88,92.48,92.48,0,0,0,0-16.69c-.22-2.92-.46-5.86-.57-8.9a45.58,45.58,0,0,1,0-4.72,19.26,19.26,0,0,1,1-5A16.38,16.38,0,0,1,51.73,60a35.44,35.44,0,0,1,3-3.52c1-1.06,2-2.1,2.93-3.19s1.88-2.16,2.69-3.28c3.41-4.4,4-10.46,4.33-16.25a56.81,56.81,0,0,1,.26,8.82,20.89,20.89,0,0,1-2.41,8.77c-.71,1.36-1.52,2.63-2.33,3.87s-1.64,2.51-2.49,3.67a31.39,31.39,0,0,0-2.2,3.51,11.54,11.54,0,0,0-1.27,3.46,21.28,21.28,0,0,0,.41,7.64c.51,2.75,1.16,5.58,1.8,8.42A101.18,101.18,0,0,1,59.08,100a47.62,47.62,0,0,1-2.47,9.44,27.19,27.19,0,0,1-2.29,4.57,16.71,16.71,0,0,1-3.54,4A12.25,12.25,0,0,1,46,120.39a12.91,12.91,0,0,1-5,.19A24.83,24.83,0,0,1,32.54,117.48Z"/><path class="cls-2" d="M55.93,37.64a4.64,4.64,0,0,0,3.65,1.74A2.52,2.52,0,0,0,61.73,38,3.3,3.3,0,0,0,62,35.86,3.57,3.57,0,0,0,60.9,34a5.06,5.06,0,0,0-2-1.16,5.17,5.17,0,0,0-2.36-.24A2,2,0,0,0,54.83,34,4,4,0,0,0,55.93,37.64Z"/><path class="cls-3" d="M68.92,35.87a7,7,0,0,1-1.28.74"/><path class="cls-2" d="M68.06,33.59c-.48.24-1,.35-1.38.55a2.86,2.86,0,0,0-1.12,1.06,3.24,3.24,0,0,0-.64,2.13,2.25,2.25,0,0,0,1.58,1.83c1.54.55,3.3-.48,4.34-1.73S71.89,34.71,71,34a3.16,3.16,0,0,0-1.49-.55A2.65,2.65,0,0,0,68.06,33.59Z"/><path class="cls-2" d="M75.64,29.49a3.66,3.66,0,0,0-1.31-2.8,2.08,2.08,0,0,0-2-.36A2.43,2.43,0,0,0,71,27.47a2.88,2.88,0,0,0-.31,1.83,3.91,3.91,0,0,0,.72,1.85,3.67,3.67,0,0,0,1.44,1.24,1.7,1.7,0,0,0,1.78-.2A3.16,3.16,0,0,0,75.64,29.49Z"/><path class="cls-3" d="M65.07,21.53a5.75,5.75,0,0,1,.87.08,5.63,5.63,0,0,1,.86.17"/><path class="cls-2" d="M64.78,23.55a5.18,5.18,0,0,1,.84.16,6.46,6.46,0,0,0-1.85-1.23,3.37,3.37,0,0,0,2.66,1.76A4.71,4.71,0,0,0,68,24.18a3,3,0,0,0,1.56-.8A1.73,1.73,0,0,0,70,21.45a3.55,3.55,0,0,0-1.86-1.82,4.39,4.39,0,0,0-2.88-.3,2.64,2.64,0,0,0-1.14.57,1.9,1.9,0,0,0-.63,1A9.26,9.26,0,0,1,66,19.49c-.46,0-.93,0-1.38,0a2.57,2.57,0,0,0-1.92.9,1.53,1.53,0,0,0-.19,1.42A2.8,2.8,0,0,0,64.78,23.55Z"/><path class="cls-2" d="M54.57,25.55a3.86,3.86,0,0,0-.08,3.24A2.17,2.17,0,0,0,56.15,30a2.58,2.58,0,0,0,1.77-.46A3,3,0,0,0,59,28a4.19,4.19,0,0,0,.2-2,3.86,3.86,0,0,0-.74-1.83,1.77,1.77,0,0,0-1.74-.68A3.31,3.31,0,0,0,54.57,25.55Z"/><path class="cls-1" d="M17.78,101.43a16.73,16.73,0,0,0,8.55,0,8.64,8.64,0,0,0,3.47-1.89,6.82,6.82,0,0,0,1.9-2.95,12.88,12.88,0,0,0-.14-7,39.34,39.34,0,0,0-2.8-7.3c-.27-5-.81-10.47-1.53-16.07-.37-2.93-.73-5.9-1-9.06-.12-1.57-.18-3.25-.14-5A21.75,21.75,0,0,1,27,46.56a17.2,17.2,0,0,1,2.41-4.93,34.74,34.74,0,0,1,3-3.74c1-1.11,1.91-2.15,2.85-3.29A42.54,42.54,0,0,0,37.8,31.2a17.07,17.07,0,0,0,2.8-7.85,37.4,37.4,0,0,0-.15-8.7,58.67,58.67,0,0,1,.68,8.72,20.24,20.24,0,0,1-1.84,8.54c-.61,1.34-1.33,2.62-2.05,3.89S35.77,38.33,35,39.54a34.56,34.56,0,0,0-2.11,3.78,13.78,13.78,0,0,0-1.28,4,22.52,22.52,0,0,0,.79,8.45c.67,2.81,1.48,5.61,2.26,8.42a96.62,96.62,0,0,1,3.47,17.28,42.19,42.19,0,0,1-.4,8.9,23.79,23.79,0,0,1-1.15,4.34,14,14,0,0,1-2.26,3.9,11,11,0,0,1-7.83,3.85A25.45,25.45,0,0,1,17.78,101.43Z"/><path class="cls-2" d="M32.31,19.49a4.64,4.64,0,0,0,3.83,1.33,2.52,2.52,0,0,0,2-1.57,3.3,3.3,0,0,0,0-2.19,3.57,3.57,0,0,0-1.28-1.75,5.06,5.06,0,0,0-2.11-.93,5.17,5.17,0,0,0-2.37,0A2,2,0,0,0,30.81,16,4,4,0,0,0,32.31,19.49Z"/><path class="cls-3" d="M45,16.28a7,7,0,0,1-1.19.88"/><path class="cls-2" d="M43.91,14.12c-.45.3-.93.46-1.31.7a2.86,2.86,0,0,0-1,1.18,3.23,3.23,0,0,0-.4,2.19A2.25,2.25,0,0,0,43,19.83c1.59.38,3.23-.85,4.12-2.2s.74-2.83-.26-3.4a3.16,3.16,0,0,0-1.54-.39A2.65,2.65,0,0,0,43.91,14.12Z"/><path class="cls-2" d="M51,9.2a3.66,3.66,0,0,0-1.61-2.64,2.08,2.08,0,0,0-2-.14A2.43,2.43,0,0,0,46.2,7.71a2.88,2.88,0,0,0-.11,1.85A3.91,3.91,0,0,0,47,11.32a3.67,3.67,0,0,0,1.57,1.07A1.7,1.7,0,0,0,50.33,12,3.16,3.16,0,0,0,51,9.2Z"/><path class="cls-3" d="M39.6,2.46a5.74,5.74,0,0,1,.88,0,5.62,5.62,0,0,1,.87.08"/><path class="cls-2" d="M39.54,4.5a5.19,5.19,0,0,1,.86.06,6.46,6.46,0,0,0-2-1A3.37,3.37,0,0,0,41.26,5a4.71,4.71,0,0,0,1.59-.24,3,3,0,0,0,1.46-1,1.73,1.73,0,0,0,.17-2A3.55,3.55,0,0,0,42.43.24a4.39,4.39,0,0,0-2.9,0,2.64,2.64,0,0,0-1.07.69,1.9,1.9,0,0,0-.52,1A9.25,9.25,0,0,1,40.26.34c-.46,0-.92.09-1.38.16a2.57,2.57,0,0,0-1.81,1.11A1.53,1.53,0,0,0,37,3,2.8,2.8,0,0,0,39.54,4.5Z"/><path class="cls-2" d="M29.62,7.62a3.86,3.86,0,0,0,.28,3.23,2.17,2.17,0,0,0,1.79,1,2.58,2.58,0,0,0,1.71-.66,3,3,0,0,0,.95-1.65,4.19,4.19,0,0,0,0-2,3.87,3.87,0,0,0-.94-1.73,1.77,1.77,0,0,0-1.8-.48A3.31,3.31,0,0,0,29.62,7.62Z"/><circle class="cls-1" cx="36.36" cy="116.47" r="24.51"/><rect class="cls-1" x="11.77" y="114.46" width="49" height="46"/><path class="cls-1" d="M97.81,129.62a26.8,26.8,0,0,1-6.1,1.81,9.86,9.86,0,0,1-3.43-.08,9,9,0,0,1-3.4-1.49,12.59,12.59,0,0,1-2.71-2.69A21.13,21.13,0,0,1,80.23,124a37.5,37.5,0,0,1-2.47-6.82,51.89,51.89,0,0,1,1.83-13.21c.52-2,1.07-4,1.53-6a16.16,16.16,0,0,0,.64-5.26,12.29,12.29,0,0,0-2.13-5c-1.13-1.79-2.25-3.62-3.24-5.57a16.07,16.07,0,0,1-1.62-6.26c-.15-2.12-.07-4.21,0-6.3a39.87,39.87,0,0,0,.31,6.26,14.19,14.19,0,0,0,2.11,5.82,52.89,52.89,0,0,0,3.8,5,25.25,25.25,0,0,1,1.91,2.52A10.51,10.51,0,0,1,84.26,92a16.66,16.66,0,0,1,.31,6.34c-.2,2.1-.5,4.17-.78,6.24A72.34,72.34,0,0,0,83,117a29.53,29.53,0,0,0,.6,6.14,11.52,11.52,0,0,0,2.62,5.45,7.44,7.44,0,0,0,5.52,2.27A17.34,17.34,0,0,0,97.81,129.62Z"/><path class="cls-2" d="M76.46,69.08c-.22.25-.2.71-.17,1.36a10.76,10.76,0,0,0,.3,2.17,2.5,2.5,0,0,0,1.3,1.74,2.47,2.47,0,0,0,2.68-.69,2.83,2.83,0,0,0,.88-2.83,2.59,2.59,0,0,0-1.61-1.63,6.23,6.23,0,0,0-2.11-.37C77.12,68.79,76.69,68.82,76.46,69.08Z"/><path class="cls-3" d="M70.81,73a6.52,6.52,0,0,0,1.19.69"/><path class="cls-2" d="M68.55,74.09A5.77,5.77,0,0,0,70.66,76a3.13,3.13,0,0,0,2.65.14,1.9,1.9,0,0,0,1.22-1.95,5.18,5.18,0,0,0-.69-2.07c-.48-.92-1.07-1-1.83-1.22A3.67,3.67,0,0,0,69.3,71a2.12,2.12,0,0,0-1.05,1.2A2,2,0,0,0,68.55,74.09Z"/><path class="cls-2" d="M71.84,67.43a1.63,1.63,0,0,0-.57-1.06,6.37,6.37,0,0,0-1.35-1.12,2.12,2.12,0,0,0-1.7-.31A1.9,1.9,0,0,0,67,66.64a2.08,2.08,0,0,0,2.59,2.42,4.22,4.22,0,0,0,1.55-.69C71.56,68.06,71.82,67.79,71.84,67.43Z"/><path class="cls-3" d="M74.5,62.25a4.72,4.72,0,0,0-1.09.16"/><path class="cls-2" d="M74.63,60.2a8.85,8.85,0,0,0-1,0,6.32,6.32,0,0,1,1.84,1.17A1.75,1.75,0,0,0,74.38,60a2.48,2.48,0,0,0-1.9.07A2.38,2.38,0,0,0,71.2,61.4a1.88,1.88,0,0,0,.22,1.68,4.15,4.15,0,0,0,1.33,1.28,2.77,2.77,0,0,0,1.07.45c.53.05,1-.43,1.52-1.8a4.08,4.08,0,0,0-1,1.34,2.83,2.83,0,0,1,.43-.11c.56-.1,1.12-.91,1.36-1.84A2,2,0,0,0,76,61,1.63,1.63,0,0,0,74.63,60.2Z"/><path class="cls-2" d="M77.31,66.44c.13.32.5.5,1,.7a6.62,6.62,0,0,0,1.77.43,2.17,2.17,0,0,0,1.72-.49,2,2,0,0,0,.35-2.15,2.15,2.15,0,0,0-3.54-1,4.42,4.42,0,0,0-1.1,1.38A1.38,1.38,0,0,0,77.31,66.44Z"/><path class="cls-1" d="M90.9,129.62a17.31,17.31,0,0,0,6.1.74,6.72,6.72,0,0,0,4.88-2.44,10.67,10.67,0,0,0,2-5.13,28.47,28.47,0,0,0,.16-5.87,68.5,68.5,0,0,0-.37-12.18c-.21-2.09-.44-4.18-.58-6.32a17.81,17.81,0,0,1,.54-6.69,11.22,11.22,0,0,1,1.57-3,25.56,25.56,0,0,1,2-2.53,53.35,53.35,0,0,0,3.92-4.79c2.4-3.32,2.68-7.7,2.81-11.84a40.87,40.87,0,0,1,0,6.3A14.75,14.75,0,0,1,112.12,82a54.42,54.42,0,0,1-3.57,5.27,14.28,14.28,0,0,0-2.75,5.13,15.51,15.51,0,0,0,.1,5.77c.31,2,.72,4.06,1.12,6.11a72.35,72.35,0,0,1,1.54,12.82,32.25,32.25,0,0,1-1.39,6.56,13.37,13.37,0,0,1-3.67,5.9,8.45,8.45,0,0,1-6.49,2A17.86,17.86,0,0,1,90.9,129.62Z"/><path class="cls-2" d="M106.94,73.69a3.33,3.33,0,0,0,3,1.23,2.55,2.55,0,0,0,1.84-1.48,4.87,4.87,0,0,0,.41-2.11,2,2,0,0,0-.46-1.46,2.54,2.54,0,0,0-1.52-.5,7.8,7.8,0,0,0-2.24.07,2.32,2.32,0,0,0-1.77,1.28A2.87,2.87,0,0,0,106.94,73.69Z"/><path class="cls-3" d="M116.86,71.56a4.76,4.76,0,0,1-.87.51"/><path class="cls-2" d="M115.77,69.48a4.84,4.84,0,0,0-.8.16c-.2.11-.32.32-.5.87a5.33,5.33,0,0,0-.34,2.1,2.26,2.26,0,0,0,1.21,1.87c1.21.61,2.58-.25,3.33-1.25a1.93,1.93,0,0,0-.35-2.88,5.06,5.06,0,0,0-1.42-.66A2.85,2.85,0,0,0,115.77,69.48Z"/><path class="cls-2" d="M122.65,67.14A2.57,2.57,0,0,0,121.46,65a2.13,2.13,0,0,0-1.86-.12,3.43,3.43,0,0,0-1.39,1,1.62,1.62,0,0,0-.46,1.25,2,2,0,0,0,.73,1.2,5,5,0,0,0,1.5,1,2,2,0,0,0,1.74,0A2.22,2.22,0,0,0,122.65,67.14Z"/><path class="cls-3" d="M114.25,61.34a5.61,5.61,0,0,1,1.27.19"/><path class="cls-2" d="M114,63.37a3.06,3.06,0,0,1,.54.13,4.45,4.45,0,0,0-1.24-1.22c.53,1.21,1.09,1.66,1.73,1.68a2.65,2.65,0,0,0,1.13-.27,3.92,3.92,0,0,0,1.34-.95,2,2,0,0,0,.54-1.82,2.55,2.55,0,0,0-1.38-1.59,3,3,0,0,0-2.29-.19,1.94,1.94,0,0,0-1.35,1.51A7.08,7.08,0,0,1,115,59.29c-.36,0-.73,0-1.09,0a1.8,1.8,0,0,0-1.48.86,1.77,1.77,0,0,0-.06,1.39A2.67,2.67,0,0,0,114,63.37Z"/><path class="cls-2" d="M105.94,64a2.71,2.71,0,0,0,.1,2.59,2.22,2.22,0,0,0,1.68,1,3.64,3.64,0,0,0,1.76-.31,1.7,1.7,0,0,0,1-.93,2.15,2.15,0,0,0-.12-1.43,5.31,5.31,0,0,0-.92-1.62,2,2,0,0,0-1.63-.79A2.33,2.33,0,0,0,105.94,64Z"/><path class="cls-1" d="M80.31,118.1a13,13,0,0,0,6.15.13,5.9,5.9,0,0,0,4.21-3.32,9.55,9.55,0,0,0,.42-5.21,27.47,27.47,0,0,0-1.54-5.47c-.23-3.73-.73-7.68-1.38-11.71-.33-2.09-.65-4.19-.88-6.41a33.76,33.76,0,0,1-.2-3.47,14.6,14.6,0,0,1,.49-3.8,12,12,0,0,1,1.56-3.41,25.34,25.34,0,0,1,2-2.69,46.53,46.53,0,0,0,3.73-4.93,12.69,12.69,0,0,0,1.87-5.73,29.1,29.1,0,0,0-.18-6.25A41.81,41.81,0,0,1,97,62.07a14.48,14.48,0,0,1-1.34,6.11,53.79,53.79,0,0,1-3.11,5.47,24.89,24.89,0,0,0-1.52,2.71,10,10,0,0,0-.94,2.91,16.21,16.21,0,0,0,.54,6.1c.47,2,1,4,1.6,6.05a69.69,69.69,0,0,1,2.45,12.38,30.17,30.17,0,0,1-.24,6.36A12.17,12.17,0,0,1,92.1,116a7.84,7.84,0,0,1-5.57,2.78A18.15,18.15,0,0,1,80.31,118.1Z"/><path class="cls-2" d="M90.06,60.73a3.33,3.33,0,0,0,3.14.89A2.55,2.55,0,0,0,94.87,60,4.87,4.87,0,0,0,95,57.81a2,2,0,0,0-.62-1.4,2.54,2.54,0,0,0-1.57-.33,7.8,7.8,0,0,0-2.22.32A2.32,2.32,0,0,0,89,57.87,2.87,2.87,0,0,0,90.06,60.73Z"/><path class="cls-3" d="M99.69,57.52a4.77,4.77,0,0,1-.81.6"/><path class="cls-2" d="M98.37,55.58a4.84,4.84,0,0,0-.78.24c-.19.13-.29.36-.4.92a5.32,5.32,0,0,0-.1,2.12,2.26,2.26,0,0,0,1.41,1.72c1.27.48,2.54-.53,3.17-1.61a1.93,1.93,0,0,0-.66-2.82,5.06,5.06,0,0,0-1.48-.5A2.85,2.85,0,0,0,98.37,55.58Z"/><path class="cls-2" d="M104.95,52.49a2.58,2.58,0,0,0-1.42-2,2.13,2.13,0,0,0-1.87.09,3.43,3.43,0,0,0-1.27,1.15,1.62,1.62,0,0,0-.32,1.29,2,2,0,0,0,.86,1.12,5,5,0,0,0,1.6.81,2,2,0,0,0,1.73-.24A2.22,2.22,0,0,0,104.95,52.49Z"/><path class="cls-3" d="M96,47.66a5.61,5.61,0,0,1,1.28,0"/><path class="cls-2" d="M96,49.7a3.06,3.06,0,0,1,.55.07,4.45,4.45,0,0,0-1.37-1.07c.66,1.15,1.27,1.53,1.9,1.48a2.66,2.66,0,0,0,1.1-.4,3.92,3.92,0,0,0,1.23-1.09,2,2,0,0,0,.34-1.86,2.55,2.55,0,0,0-1.55-1.43,3,3,0,0,0-2.29.06,1.94,1.94,0,0,0-1.17,1.65,7.07,7.07,0,0,1,1.75-1.56c-.36,0-.72.08-1.08.14a1.8,1.8,0,0,0-1.37,1,1.77,1.77,0,0,0,.09,1.39A2.67,2.67,0,0,0,96,49.7Z"/><path class="cls-2" d="M88,51.24a2.71,2.71,0,0,0,.38,2.56,2.22,2.22,0,0,0,1.78.77,3.64,3.64,0,0,0,1.72-.5,1.69,1.69,0,0,0,.89-1,2.15,2.15,0,0,0-.28-1.41,5.32,5.32,0,0,0-1.09-1.51,2,2,0,0,0-1.71-.61A2.33,2.33,0,0,0,88,51.24Z"/><circle class="cls-1" cx="94.42" cy="127.1" r="12.36"/><rect class="cls-1" x="80.77" y="127.46" width="26" height="33"/></g></g></svg>